<?xml version="1.0" encoding="utf-8"?>
<!-- Generator: Adobe Illustrator 18.0.0, SVG Export Plug-In . SVG Version: 6.00 Build 0)  -->
<!DOCTYPE svg PUBLIC "-//W3C//DTD SVG 1.1//EN" "http://www.w3.org/Graphics/SVG/1.1/DTD/svg11.dtd">
<svg version="1.1" id="Layer_1" xmlns="http://www.w3.org/2000/svg" xmlns:xlink="http://www.w3.org/1999/xlink" x="0px" y="0px"
	 width="20px" height="20px" viewBox="0 0 20 20" enable-background="new 0 0 20 20" xml:space="preserve">
<g>
	<path fill="#7D7D7D" d="M16.4,1.9h-0.7V4c0,0.8-0.6,1.4-1.4,1.4h-0.9c-0.8,0-1.4-0.6-1.4-1.4V1.9H8V4c0,0.8-0.6,1.4-1.4,1.4H5.6
		C4.8,5.4,4.2,4.8,4.2,4V1.9H3.6c-1.4,0-2.6,1.2-2.6,2.6v12.8c0,1.4,1.2,2.6,2.6,2.6h12.8c1.4,0,2.6-1.2,2.6-2.6V4.6
		C19,3.1,17.8,1.9,16.4,1.9z M17.3,17.4c0,0.5-0.4,0.9-0.9,0.9H3.6c-0.5,0-0.9-0.4-0.9-0.9V7.1h14.6V17.4z"/>
	<rect x="3.5" y="8" fill="#7D7D7D" width="2.6" height="2.6"/>
	<rect x="7" y="8" fill="#7D7D7D" width="2.6" height="2.6"/>
	<rect x="10.4" y="8" fill="#7D7D7D" width="2.6" height="2.6"/>
	<rect x="13.8" y="8" fill="#7D7D7D" width="2.6" height="2.6"/>
	<rect x="3.5" y="11.4" fill="#7D7D7D" width="2.6" height="2.6"/>
	<rect x="7" y="11.4" fill="#7D7D7D" width="2.6" height="2.6"/>
	<rect x="10.4" y="11.4" fill="#7D7D7D" width="2.6" height="2.6"/>
	<rect x="13.8" y="11.4" fill="#7D7D7D" width="2.6" height="2.6"/>
	<rect x="3.5" y="14.9" fill="#7D7D7D" width="2.6" height="2.6"/>
	<rect x="7" y="14.9" fill="#7D7D7D" width="2.6" height="2.6"/>
	<rect x="10.4" y="14.9" fill="#7D7D7D" width="2.6" height="2.6"/>
	<rect x="13.8" y="14.9" fill="#7D7D7D" width="2.6" height="2.6"/>
	<g>
		<path fill="#7D7D7D" d="M7.1,0.8V4c0,0.3-0.3,0.6-0.6,0.6H5.6C5.3,4.6,5.1,4.3,5.1,4V0.8c0-0.3,0.3-0.6,0.6-0.6h0.9
			C6.8,0.3,7.1,0.5,7.1,0.8z"/>
	</g>
	<g>
		<path fill="#7D7D7D" d="M14.8,0.8V4c0,0.3-0.3,0.6-0.6,0.6h-0.9c-0.3,0-0.6-0.3-0.6-0.6V0.8c0-0.3,0.3-0.6,0.6-0.6h0.9
			C14.6,0.3,14.8,0.5,14.8,0.8z"/>
	</g>
</g>
</svg>
