<?xml version="1.0" encoding="utf-8"?>
<!-- Generator: Adobe Illustrator 18.0.0, SVG Export Plug-In . SVG Version: 6.00 Build 0)  -->
<!DOCTYPE svg PUBLIC "-//W3C//DTD SVG 1.1//EN" "http://www.w3.org/Graphics/SVG/1.1/DTD/svg11.dtd">
<svg version="1.1" id="Layer_1" xmlns="http://www.w3.org/2000/svg" xmlns:xlink="http://www.w3.org/1999/xlink" x="0px" y="0px"
	 width="20px" height="20px" viewBox="0 0 20 20" enable-background="new 0 0 20 20" xml:space="preserve">
<g>
	<path fill="#7D7D7D" d="M10,0.2c-3.7,0-6.8,3-6.8,6.8c0,0.6,0,2.2,2.9,7.1c1.4,2.3,2.7,4.2,2.8,4.2l1.1,1.6l1.1-1.6
		c0,0,1.4-1.9,2.8-4.2c2.9-4.8,2.9-6.5,2.9-7.1C16.8,3.2,13.7,0.2,10,0.2z M10,9.9c-1.7,0-3.1-1.4-3.1-3.1S8.3,3.8,10,3.8
		c1.7,0,3.1,1.4,3.1,3.1S11.7,9.9,10,9.9z"/>
</g>
</svg>
