<?xml version="1.0" encoding="utf-8"?>
<!-- Generator: Adobe Illustrator 18.0.0, SVG Export Plug-In . SVG Version: 6.00 Build 0)  -->
<!DOCTYPE svg PUBLIC "-//W3C//DTD SVG 1.1//EN" "http://www.w3.org/Graphics/SVG/1.1/DTD/svg11.dtd">
<svg version="1.1" id="Layer_1" xmlns="http://www.w3.org/2000/svg" xmlns:xlink="http://www.w3.org/1999/xlink" x="0px" y="0px"
	 width="20px" height="20px" viewBox="0 0 20 20" enable-background="new 0 0 20 20" xml:space="preserve">
<path id="world" fill="#7D7D7D" d="M10,0.4c-5.3,0-9.6,4.3-9.6,9.6s4.3,9.6,9.6,9.6s9.6-4.3,9.6-9.6S15.3,0.4,10,0.4z M18.4,9.7
	h-3.7c0-1.4-0.3-2.7-0.7-3.9c0.8-0.3,1.6-0.8,2.3-1.4C17.5,5.8,18.3,7.7,18.4,9.7z M9.7,18.4c-1-0.9-1.9-2-2.5-3.3
	c0.8-0.3,1.7-0.4,2.6-0.4L9.7,18.4C9.7,18.4,9.7,18.4,9.7,18.4z M10.3,1.6c1.2,1,2.1,2.3,2.8,3.8c-0.9,0.3-1.8,0.5-2.8,0.5L10.3,1.6
	C10.3,1.6,10.3,1.6,10.3,1.6z M11.4,1.7C13.1,2,14.6,2.8,15.8,4c-0.7,0.5-1.4,0.9-2.1,1.2C13.1,3.9,12.3,2.7,11.4,1.7z M9.7,1.6v4.3
	c-1,0-1.9-0.2-2.8-0.5C7.5,3.9,8.5,2.6,9.7,1.6C9.7,1.6,9.7,1.6,9.7,1.6z M6.3,5.2C5.5,4.9,4.8,4.5,4.2,4c1.2-1.2,2.7-2,4.4-2.2
	C7.7,2.7,6.9,3.9,6.3,5.2z M6.6,6c1,0.3,2,0.5,3,0.6v3.1H6C6,8.4,6.2,7.1,6.6,6z M9.7,10.3v3.7c-1,0-1.9,0.2-2.8,0.5
	C6.3,13.2,6,11.8,6,10.3H9.7z M8.6,18.3c-1.5-0.3-2.9-0.9-4.1-1.9c0.6-0.4,1.3-0.8,2-1.1C7.1,16.4,7.8,17.4,8.6,18.3z M10.3,18.4
	v-3.7c0.9,0,1.8,0.2,2.6,0.4C12.2,16.4,11.4,17.5,10.3,18.4C10.3,18.4,10.3,18.4,10.3,18.4z M13.5,15.3c0.7,0.3,1.4,0.6,2,1.1
	c-1.1,1-2.5,1.6-4.1,1.9C12.2,17.4,12.9,16.4,13.5,15.3z M13.1,14.5c-0.9-0.3-1.8-0.4-2.8-0.5v-3.7H14C14,11.8,13.7,13.2,13.1,14.5z
	 M10.3,9.7V6.6c1.1,0,2.1-0.2,3-0.6C13.8,7.1,14,8.4,14,9.7L10.3,9.7L10.3,9.7z M3.7,4.4c0.7,0.5,1.5,1,2.3,1.4
	C5.6,7,5.4,8.3,5.4,9.7H1.6C1.7,7.7,2.5,5.8,3.7,4.4z M1.6,10.3h3.7c0,1.6,0.4,3.1,0.9,4.4c-0.8,0.3-1.5,0.7-2.2,1.2
	C2.6,14.5,1.7,12.5,1.6,10.3z M15.9,15.9c-0.7-0.5-1.4-0.9-2.2-1.2c0.6-1.3,0.9-2.8,0.9-4.4h3.7C18.3,12.5,17.4,14.5,15.9,15.9z"/>
</svg>
