<?xml version="1.0" encoding="utf-8"?>
<!-- Generator: Adobe Illustrator 17.0.0, SVG Export Plug-In . SVG Version: 6.00 Build 0)  -->
<!DOCTYPE svg PUBLIC "-//W3C//DTD SVG 1.1//EN" "http://www.w3.org/Graphics/SVG/1.1/DTD/svg11.dtd">
<svg version="1.1" id="Layer_1" xmlns="http://www.w3.org/2000/svg" xmlns:xlink="http://www.w3.org/1999/xlink" x="0px" y="0px"
	 width="127.219px" height="227.811px" viewBox="0 0 127.219 227.811" enable-background="new 0 0 127.219 227.811"
	 xml:space="preserve">
<g>
	<path fill="#FFFFFF" d="M38.56,105.842h19.616c1.011,0,1.831-0.82,1.831-1.831V71.319c0-11.736,4.57-22.77,12.869-31.069
		c8.299-8.299,19.333-12.87,31.069-12.87h13.077c1.011,0,1.831-0.82,1.831-1.831V5.934c0-1.011-0.82-1.831-1.831-1.831h-13.077
		c-9.073,0-17.876,1.777-26.164,5.283c-8.004,3.386-15.192,8.232-21.365,14.404c-6.172,6.172-11.019,13.361-14.404,21.365
		c-3.505,8.288-5.283,17.091-5.283,26.164v32.693C36.729,105.023,37.549,105.842,38.56,105.842z"/>
	<path fill="#FFFFFF" d="M121.927,76.027h-0.001H64.714c-1.011,0-1.831,0.82-1.831,1.831v19.616c0,1.011,0.82,1.831,1.831,1.831
		h53.534c0.881,0,1.637-0.628,1.799-1.493l3.667-19.556c0.028-0.128,0.043-0.26,0.043-0.397
		C123.758,76.846,122.939,76.027,121.927,76.027z"/>
	<path fill="#FFFFFF" d="M115.797,108.719h-0.001h-18.39c-1.011,0-1.831,0.82-1.831,1.831v19.616c0,1.011,0.82,1.831,1.831,1.831
		h14.712c0.881,0,1.637-0.627,1.799-1.493l3.667-19.556c0.028-0.128,0.043-0.26,0.043-0.397
		C117.628,109.539,116.809,108.719,115.797,108.719z"/>
	<path fill="#FFFFFF" d="M117.022,36.796h-13.077c-9.221,0-17.891,3.591-24.412,10.112s-10.112,15.19-10.112,24.412
		c0,1.011,0.82,1.831,1.831,1.831h19.616c1.011,0,1.831-0.82,1.831-1.831c0-6.201,5.045-11.246,11.246-11.246h13.077
		c1.011,0,1.831-0.82,1.831-1.831V38.626C118.853,37.615,118.033,36.796,117.022,36.796z"/>
	<path fill="#FFFFFF" d="M90.868,102.181H71.253c-1.011,0-1.831,0.82-1.831,1.831v71.924c0,11.737-4.57,22.77-12.869,31.07
		c-0.715,0.715-0.715,1.874,0,2.589l13.87,13.87c0.357,0.357,0.826,0.536,1.295,0.536c0.469,0,0.937-0.179,1.295-0.536
		c6.172-6.172,11.019-13.361,14.404-21.365c3.506-8.288,5.283-17.091,5.283-26.164v-71.924
		C92.699,103,91.879,102.181,90.868,102.181z"/>
	<path fill="#FFFFFF" d="M60.006,136.704c0-1.011-0.82-1.831-1.831-1.831H38.56c-1.011,0-1.831,0.82-1.831,1.831v39.231
		c0,3.004-1.17,5.828-3.294,7.953c-0.715,0.715-0.715,1.874,0,2.589l13.87,13.87c0.357,0.358,0.826,0.536,1.294,0.536
		c0.469,0,0.937-0.179,1.295-0.536c6.521-6.52,10.112-15.19,10.112-24.412V136.704z"/>
	<path fill="#FFFFFF" d="M66.545,130.165V110.55c0-1.011-0.82-1.831-1.831-1.831H11.122c-0.881,0-1.637,0.628-1.799,1.493
		l-3.678,19.616c-0.1,0.535,0.043,1.088,0.391,1.507c0.348,0.419,0.864,0.661,1.409,0.661h57.27
		C65.725,131.996,66.545,131.177,66.545,130.165z"/>
	<path fill="#FFFFFF" d="M13.574,99.304h18.448c1.011,0,1.831-0.82,1.831-1.831V77.857c0-1.011-0.82-1.831-1.831-1.831h-14.77
		c-0.881,0-1.637,0.628-1.799,1.493l-3.678,19.616c-0.1,0.535,0.043,1.088,0.391,1.507C12.513,99.061,13.029,99.304,13.574,99.304z"
		/>
</g>
<g>
</g>
<g>
</g>
<g>
</g>
<g>
</g>
<g>
</g>
<g>
</g>
</svg>
