<?xml version="1.0" encoding="utf-8"?>
<!-- Generator: Adobe Illustrator 18.0.0, SVG Export Plug-In . SVG Version: 6.00 Build 0)  -->
<!DOCTYPE svg PUBLIC "-//W3C//DTD SVG 1.1//EN" "http://www.w3.org/Graphics/SVG/1.1/DTD/svg11.dtd">
<svg version="1.1" id="Layer_1" xmlns="http://www.w3.org/2000/svg" xmlns:xlink="http://www.w3.org/1999/xlink" x="0px" y="0px"
	 viewBox="-117 -94 257 213.3" enable-background="new -117 -94 257 213.3" xml:space="preserve">
<g>
	<path fill="#326DE6" d="M-12.6,45.9c-3.3,0-6.5-1.5-8.6-4.2L-53.8,1.3c-2.1-2.7-3-6.1-2.1-9.5l11.6-50.4c0.7-3.3,3-6,6-7.5l47-22.5
		c1.5-0.7,3.2-1.1,4.8-1.1s3.3,0.4,4.8,1.1l47,22.4c3.1,1.5,5.3,4.2,6,7.5L83-8.3c0.7,3.3,0,6.8-2.1,9.5L48.4,41.6
		c-2.1,2.6-5.3,4.2-8.6,4.2L-12.6,45.9z"/>
	<path fill="#FFFFFF" d="M13.5-87.3c1.3,0,2.6,0.3,3.8,0.8l47,22.4c2.4,1.2,4.3,3.4,4.8,6L80.7-7.7c0.6,2.7,0,5.5-1.8,7.6L46.4,40.3
		c-1.7,2.1-4.3,3.3-7,3.3h-52.1c-2.7,0-5.3-1.2-7-3.3L-52.1-0.1c-1.7-2.1-2.3-4.9-1.8-7.6l11.6-50.4c0.6-2.7,2.4-4.9,4.8-6l47-22.5
		C10.8-87.1,12.2-87.3,13.5-87.3 M13.5-91.7L13.5-91.7c-1.9,0-3.9,0.5-5.8,1.3l-47,22.5c-3.7,1.8-6.3,5-7.2,9L-58.1-8.5
		c-0.9,4,0,8.1,2.6,11.3L-23,43.2c2.5,3.2,6.3,4.9,10.3,4.9h52.1c4,0,7.8-1.8,10.3-4.9L82.1,2.8c2.6-3.2,3.5-7.3,2.6-11.3L73.1-58.9
		c-0.9-4-3.5-7.2-7.2-9L19.1-90.4C17.4-91.2,15.4-91.7,13.5-91.7L13.5-91.7z"/>
	<path fill="#FFFFFF" d="M60.5-11.7L60.5-11.7L60.5-11.7L60.5-11.7C60.4-11.7,60.4-11.7,60.5-11.7C60.4-11.7,60.4-11.7,60.5-11.7
		c-0.2,0-0.3,0-0.3-0.1c-0.2,0-0.4-0.1-0.6-0.1c-0.6-0.1-1.2-0.2-1.8-0.2c-0.3,0-0.6,0-0.9-0.1h-0.1c-1.9-0.2-3.5-0.4-5-0.8
		c-0.6-0.3-0.8-0.6-1-1c0-0.1-0.1-0.1-0.1-0.2l0,0l0,0l0,0l0,0l0,0l-1.2-0.4c0.6-4.3,0.4-8.7-0.6-13.1s-2.8-8.4-5.2-12.2l0.9-0.8
		l0,0l0,0l0,0l0,0l0,0l0,0c0-0.1,0-0.1,0-0.2c0-0.5,0.1-0.9,0.5-1.4c1.1-1,2.5-1.9,4.2-2.9l0,0c0.3-0.2,0.6-0.3,0.8-0.5
		c0.6-0.3,1-0.6,1.6-0.9c0.1-0.1,0.3-0.2,0.5-0.4c0.1-0.1,0.2-0.1,0.2-0.2l0,0l0,0c1.3-1.1,1.6-3,0.6-4.2c-0.5-0.6-1.3-1-2.1-1
		c-0.7,0-1.4,0.3-2,0.7l0,0l0,0l0,0l0,0l0,0c-0.1,0.1-0.1,0.1-0.2,0.2c-0.2,0.1-0.3,0.3-0.5,0.4c-0.5,0.5-0.8,0.8-1.2,1.3
		c-0.2,0.2-0.4,0.5-0.6,0.6l0,0c-1.3,1.4-2.5,2.5-3.7,3.3c-0.3,0.2-0.6,0.3-0.8,0.3c-0.2,0-0.4,0-0.6-0.1c-0.1,0-0.1,0-0.2,0l0,0
		l0,0l0,0l0,0l0,0l-1.1,0.7c-1.2-1.3-2.5-2.4-3.8-3.5c-5.6-4.4-12.3-7.1-19.4-7.7l-0.1-1.2l0,0l0,0l0,0l0,0l0,0
		c-0.1-0.1-0.1-0.1-0.2-0.2c-0.3-0.3-0.6-0.6-0.7-1.2c-0.1-1.5,0.1-3.2,0.3-5v-0.1c0-0.3,0.1-0.6,0.2-0.9c0.1-0.6,0.2-1.1,0.3-1.8
		c0-0.2,0-0.4,0-0.6c0-0.1,0-0.2,0-0.3l0,0l0,0l0,0l0,0l0,0c0-1.7-1.3-3.1-2.9-3.1c-0.7,0-1.5,0.4-2,0.9s-0.8,1.3-0.8,2.1l0,0l0,0
		l0,0l0,0l0,0c0,0.1,0,0.2,0,0.2c0,0.2,0,0.4,0,0.6c0,0.6,0.1,1.2,0.3,1.8c0.1,0.3,0.1,0.6,0.2,0.9v0.1c0.2,1.9,0.5,3.5,0.3,5
		c-0.1,0.6-0.5,0.9-0.7,1.2c-0.1,0.1-0.1,0.1-0.2,0.2l0,0l0,0l0,0l0,0l0,0l-0.1,1.2c-1.7,0.2-3.3,0.4-5,0.7
		C-1.8-53.7-8.1-50.1-13-44.9l-0.9-0.6l0,0l0,0l0,0l0,0l0,0l0,0c-0.1,0-0.1,0-0.2,0c-0.2,0-0.4,0.1-0.6,0.1c-0.3,0-0.6-0.1-0.8-0.3
		c-1.2-0.8-2.4-2-3.7-3.4l0,0c-0.2-0.2-0.4-0.5-0.6-0.6c-0.4-0.5-0.7-0.8-1.2-1.3c-0.1-0.1-0.3-0.2-0.5-0.4
		c-0.1-0.1-0.2-0.1-0.2-0.2l0,0l0,0c-0.6-0.5-1.3-0.7-2-0.7c-0.8,0-1.7,0.4-2.1,1c-0.9,1.2-0.6,3.1,0.6,4.2l0,0l0,0l0,0l0,0
		c0.1,0,0.1,0.1,0.2,0.1c0.2,0.1,0.3,0.3,0.5,0.4c0.6,0.4,1,0.6,1.6,0.9c0.3,0.1,0.6,0.3,0.8,0.5l0,0c1.7,1,3.1,1.9,4.2,2.9
		c0.5,0.5,0.5,0.9,0.5,1.4c0,0.1,0,0.1,0,0.2l0,0l0,0l0,0l0,0l0,0l0.9,0.8c-0.2,0.3-0.4,0.5-0.5,0.7c-4.6,7.3-6.4,16-5.2,24.5
		l-1.2,0.4l0,0l0,0l0,0l0,0l0,0l0,0c0,0.1-0.1,0.1-0.1,0.2c-0.2,0.4-0.5,0.7-1,1c-1.4,0.5-3.1,0.6-5,0.8h-0.1c-0.3,0-0.6,0-0.9,0.1
		c-0.6,0-1.1,0.1-1.8,0.2c-0.2,0-0.4,0.1-0.6,0.1c-0.1,0-0.2,0-0.3,0.1l0,0l0,0l0,0l0,0l0,0c-1.7,0.4-2.7,1.9-2.4,3.4
		c0.3,1.3,1.5,2.1,3,2.1c0.3,0,0.5,0,0.7-0.1l0,0l0,0l0,0l0,0l0,0c0.1,0,0.2,0,0.2-0.1c0.2,0,0.4-0.1,0.6-0.1
		c0.6-0.2,1.1-0.4,1.7-0.6c0.3-0.1,0.6-0.3,0.8-0.4h0.1c1.8-0.6,3.3-1.2,4.8-1.4c0.1,0,0.1,0,0.2,0c0.6,0,0.9,0.3,1.2,0.5
		c0.1,0,0.1,0.1,0.2,0.1l0,0l0,0l0,0l0,0l0,0l1.3-0.2c2.2,6.9,6.5,13,12.2,17.5c1.3,1,2.6,1.9,4,2.7l-0.6,1.2l0,0l0,0l0,0l0,0l0,0
		c0,0.1,0.1,0.1,0.1,0.2c0.2,0.4,0.4,0.8,0.2,1.5c-0.6,1.4-1.4,2.8-2.4,4.4v0.1C-7.6,19-7.8,19.2-8,19.5C-8.4,20-8.6,20.4-9,21
		c-0.1,0.1-0.2,0.3-0.3,0.5c0,0.1-0.1,0.2-0.1,0.2l0,0l0,0l0,0l0,0l0,0c-0.7,1.6-0.2,3.3,1.2,4c0.4,0.2,0.7,0.3,1.1,0.3
		c1.1,0,2.2-0.7,2.8-1.8l0,0l0,0l0,0l0,0l0,0c0-0.1,0.1-0.2,0.1-0.2c0.1-0.2,0.2-0.4,0.3-0.5c0.3-0.6,0.4-1.1,0.6-1.7
		c0.1-0.3,0.2-0.6,0.3-0.8l0,0c0.6-1.9,1.1-3.3,1.9-4.6c0.4-0.6,0.8-0.6,1.2-0.8c0.1,0,0.1,0,0.2-0.1l0,0l0,0l0,0l0,0l0,0l0.6-1.2
		c4.1,1.6,8.5,2.4,13,2.4c2.7,0,5.5-0.3,8.1-0.9c1.7-0.4,3.2-0.8,4.8-1.4l0.6,1l0,0l0,0l0,0l0,0l0,0l0,0c0.1,0,0.1,0,0.2,0.1
		c0.5,0.1,0.8,0.3,1.2,0.8c0.7,1.3,1.3,2.9,1.9,4.6V21c0.1,0.3,0.2,0.6,0.3,0.8c0.2,0.6,0.3,1.1,0.6,1.7c0.1,0.2,0.2,0.3,0.3,0.5
		c0,0.1,0.1,0.2,0.1,0.2l0,0l0,0l0,0l0,0l0,0c0.6,1.1,1.7,1.8,2.8,1.8c0.4,0,0.7-0.1,1.1-0.3c0.6-0.4,1.2-0.9,1.4-1.7
		c0.2-0.7,0.2-1.6-0.2-2.3l0,0l0,0l0,0l0,0l0,0c0-0.1-0.1-0.1-0.1-0.2c-0.1-0.2-0.2-0.4-0.3-0.5c-0.3-0.6-0.6-1-1-1.5
		c-0.2-0.3-0.4-0.5-0.6-0.7v-0.1c-1-1.6-1.9-3-2.4-4.4c-0.2-0.6,0-1,0.1-1.5c0-0.1,0.1-0.1,0.1-0.2l0,0l0,0l0,0l0,0l0,0l-0.5-1.1
		c4.9-2.9,9.1-7,12.3-12c1.7-2.6,3-5.5,3.9-8.4l1.1,0.2l0,0l0,0l0,0l0,0l0,0l0,0c0.1,0,0.1-0.1,0.2-0.1c0.4-0.2,0.6-0.5,1.2-0.5
		c0.1,0,0.1,0,0.2,0c1.5,0.2,3.1,0.7,4.8,1.4h0.1c0.3,0.1,0.6,0.3,0.8,0.4c0.6,0.3,1,0.5,1.7,0.6c0.2,0,0.4,0.1,0.6,0.1
		c0.1,0,0.2,0,0.3,0.1l0,0l0,0c0.3,0.1,0.5,0.1,0.7,0.1c1.4,0,2.6-0.9,3-2.1C63.2-9.7,62.2-11.2,60.5-11.7z M17.5-16.2l-4.1,1.9
		l-4.1-1.9l-1-4.4l2.8-3.5h4.5l2.8,3.5L17.5-16.2z M41.8-25.9c0.7,3.2,0.9,6.3,0.6,9.4l-14.2-4.1l0,0c-1.3-0.4-2-1.7-1.8-3
		c0.1-0.4,0.3-0.7,0.6-1l11.2-10.1C39.8-32.1,41-29.1,41.8-25.9z M33.8-40.3l-12.2,8.6c-1,0.6-2.4,0.5-3.2-0.6
		c-0.3-0.3-0.4-0.6-0.5-1l-0.8-15.1C23.5-47.6,29.3-44.7,33.8-40.3z M6.9-47.9c1-0.2,1.9-0.4,3-0.6L9-33.6l0,0
		c-0.1,1.3-1.1,2.4-2.5,2.4c-0.4,0-0.8-0.1-1.1-0.3L-7-40.3C-3.2-44.1,1.6-46.7,6.9-47.9z M-11.4-34.7l11,9.8l0,0
		c1,0.8,1.1,2.4,0.3,3.4c-0.3,0.4-0.6,0.6-1.1,0.7l-14.4,4.2C-16.2-22.8-14.8-29.2-11.4-34.7z M-13.9-9.6l14.8-2.5
		c1.2-0.1,2.3,0.7,2.6,1.9c0.1,0.6,0.1,1-0.1,1.5l0,0L-2.3,5C-7.5,1.7-11.7-3.4-13.9-9.6z M20,8.9c-2.1,0.5-4.3,0.7-6.5,0.7
		c-3.2,0-6.4-0.6-9.4-1.5l7.3-13.3c0.7-0.8,1.9-1.2,3-0.6c0.5,0.3,0.8,0.6,1.1,1l0,0l7.1,12.9C21.8,8.5,20.9,8.6,20,8.9z M38.1-4
		c-2.3,3.7-5.4,6.7-8.9,9L23.3-9c-0.3-1.1,0.2-2.3,1.3-2.9c0.4-0.2,0.8-0.3,1.3-0.3l14.9,2.5C40.2-7.6,39.3-5.8,38.1-4z"/>
	<path fill="#FFFFFF" d="M-71.5,102.4c0.5-0.5,0.9-1,1.3-1.6c0.5-0.6,0.9-1.2,1.3-1.8c0.4-0.6,0.9-1.2,1.2-1.8
		c0.4-0.6,0.7-1.1,1-1.6h5.4c-0.5,0.6-0.9,1.2-1.5,1.8c-0.6,0.7-1.1,1.3-1.7,2c-0.6,0.7-1.2,1.3-1.8,2c-0.6,0.7-1.1,1.2-1.6,1.8
		c0.6,0.6,1.2,1.3,2,2.1c0.7,0.8,1.4,1.6,2.1,2.6c0.7,0.9,1.3,1.8,1.9,2.6c0.6,0.9,1,1.6,1.4,2.4h-5.2c-0.3-0.6-0.7-1.3-1.2-2
		c-0.5-0.8-1-1.5-1.5-2.3c-0.5-0.7-1-1.4-1.6-2.1c-0.5-0.7-1-1.2-1.5-1.6v8.1H-76V88.3l4.5-0.8L-71.5,102.4L-71.5,102.4z
		 M-44.1,112.2V95.6h-4.5v13.5c-0.7,0.1-1.4,0.2-2,0.2c-1.1,0-1.8-0.4-2.2-1.2c-0.4-0.8-0.6-2-0.6-3.5v-9H-58v9.6
		c0,1.2,0.1,2.2,0.3,3.2c0.2,1,0.5,1.8,1,2.6c0.5,0.7,1.2,1.2,2.2,1.6c0.9,0.4,2,0.6,3.5,0.6c1.4,0,2.7-0.1,3.9-0.3
		C-46,112.6-44.9,112.4-44.1,112.2L-44.1,112.2z M-29.3,104c0,1.9-0.3,3.2-1,4.1c-0.7,0.9-1.6,1.2-2.7,1.2c-0.3,0-0.6,0-1-0.1
		c-0.4,0-0.7-0.1-1-0.1v-9.3c0.3-0.2,0.7-0.3,1.2-0.5c0.5-0.1,1-0.2,1.4-0.2c1,0,1.9,0.5,2.4,1.3C-29.6,101.2-29.3,102.5-29.3,104
		L-29.3,104z M-24.7,104.2c0-1.3-0.1-2.6-0.5-3.7c-0.3-1.1-0.7-2-1.3-2.8c-0.6-0.8-1.3-1.4-2.2-1.8c-0.9-0.4-1.8-0.7-2.9-0.7
		c-0.6,0-1.2,0.1-1.8,0.2s-1.2,0.3-1.8,0.6v-8.6l-4.5,0.8v24c0.9,0.3,1.8,0.5,3.1,0.7c1.2,0.2,2.4,0.3,3.6,0.3
		c1.3,0,2.5-0.2,3.5-0.7c1-0.4,1.9-1,2.6-1.8c0.7-0.8,1.2-1.7,1.6-2.8C-24.9,106.8-24.7,105.6-24.7,104.2 M-22.5,104.3
		c0,1.4,0.2,2.7,0.7,3.8c0.5,1.1,1,2,1.9,2.7c0.8,0.7,1.8,1.3,2.9,1.7s2.5,0.6,3.9,0.6c1.1,0,2.1-0.1,2.9-0.3
		c0.9-0.2,1.7-0.4,2.5-0.7l-0.6-3.8c-0.6,0.2-1.2,0.4-2,0.6c-0.8,0.2-1.7,0.3-2.6,0.3c-1.4,0-2.6-0.3-3.6-1
		c-0.9-0.7-1.4-1.5-1.4-2.6h11.1c0-0.2,0.1-0.5,0.1-0.8s0-0.6,0-0.9c0-2.9-0.7-5-2-6.5s-3.2-2.2-5.8-2.2c-1,0-2,0.2-3,0.6
		c-1,0.4-1.8,1-2.6,1.7c-0.8,0.8-1.4,1.7-1.8,2.9C-22.3,101.5-22.5,102.8-22.5,104.3L-22.5,104.3z M-11,102.5h-6.9
		c0.1-0.5,0.1-0.9,0.3-1.4c0.1-0.5,0.4-0.9,0.7-1.2c0.3-0.3,0.7-0.6,1-0.8c0.4-0.2,0.9-0.3,1.5-0.3c0.6,0,1.1,0.1,1.5,0.3
		s0.8,0.5,1,0.9c0.3,0.3,0.5,0.7,0.6,1.2C-11.1,101.6-11,102.1-11,102.5L-11,102.5z M10.5,100.2l0.8-4.2c-0.4-0.1-0.9-0.3-1.4-0.3
		c-0.5-0.1-1-0.1-1.6-0.2c-0.5-0.1-1-0.1-1.4-0.1s-0.8-0.1-1-0.1c-1.7,0-3.1,0.1-4.4,0.4c-1.2,0.3-2.5,0.6-3.7,1v16h4.5v-12.7
		c0.7-0.2,1.2-0.3,1.8-0.3s1.2-0.1,1.8-0.1c0.3,0,0.6,0,1,0.1c0.4,0,0.8,0.1,1.2,0.1c0.4,0.1,0.9,0.1,1.2,0.2
		C9.9,100.1,10.2,100.1,10.5,100.2L10.5,100.2z M15.1,112.7h4.5V99.3c0.4-0.1,0.7-0.1,1-0.1c0.3,0,0.7-0.1,1-0.1
		c1.1,0,1.8,0.3,2.2,1c0.4,0.7,0.5,1.8,0.5,3.5v9.1h4.5V103c0-1.2-0.1-2.2-0.3-3.2c-0.2-1-0.6-1.8-1.1-2.5c-0.5-0.7-1.2-1.2-2.2-1.6
		s-2-0.6-3.4-0.6s-2.7,0.1-3.9,0.3c-1.2,0.2-2.2,0.4-2.9,0.6C15.1,95.9,15.1,112.7,15.1,112.7z M32.1,104.3c0,1.4,0.2,2.7,0.7,3.8
		c0.5,1.1,1,2,1.9,2.7c0.8,0.7,1.8,1.3,2.9,1.7s2.5,0.6,3.9,0.6c1.1,0,2.1-0.1,2.9-0.3c0.9-0.2,1.7-0.4,2.5-0.7l-0.6-3.8
		c-0.6,0.2-1.2,0.4-2,0.6c-0.8,0.2-1.7,0.3-2.6,0.3c-1.4,0-2.6-0.3-3.6-1c-0.9-0.7-1.4-1.5-1.4-2.6H48c0-0.2,0.1-0.5,0.1-0.8
		s0-0.6,0-0.9c0-2.9-0.7-5-2-6.5s-3.2-2.2-5.8-2.2c-1,0-2,0.2-3,0.6c-1,0.4-1.8,1-2.6,1.7c-0.8,0.8-1.4,1.7-1.8,2.9
		C32.4,101.5,32.1,102.8,32.1,104.3L32.1,104.3z M36.8,102.5c0.1-0.5,0.1-0.9,0.3-1.4c0.1-0.5,0.4-0.9,0.7-1.2
		c0.3-0.3,0.7-0.6,1-0.8c0.5-0.2,0.9-0.3,1.5-0.3s1.1,0.1,1.5,0.3c0.4,0.2,0.8,0.5,1,0.9c0.3,0.3,0.5,0.7,0.6,1.2
		c0.1,0.4,0.2,0.9,0.2,1.3L36.8,102.5L36.8,102.5z M54.4,99.3v7.1c0,1.4,0.1,2.6,0.5,3.5c0.3,0.9,0.7,1.6,1.3,2c0.6,0.5,1.2,0.8,2,1
		c0.8,0.2,1.7,0.3,2.7,0.3c0.9,0,1.8-0.1,2.8-0.2c1-0.1,1.8-0.4,2.7-0.7l-0.6-3.9c-0.4,0.2-0.8,0.3-1.2,0.5c-0.3,0.1-0.7,0.2-1,0.3
		c-0.3,0.1-0.7,0.1-1,0.1c-0.3,0-0.7,0.1-1.2,0.1c-0.4,0-0.7-0.1-1-0.1c-0.3-0.1-0.6-0.2-0.8-0.5c-0.2-0.2-0.4-0.5-0.5-0.9
		c-0.1-0.4-0.2-0.9-0.2-1.5v-6.9h7.2v-3.7h-7.2v-5l-4.5,0.7v4.3h-3.9v3.7L54.4,99.3L54.4,99.3z M68.6,104.3c0,1.4,0.2,2.7,0.7,3.8
		c0.5,1.1,1,2,1.9,2.7c0.8,0.7,1.8,1.3,2.9,1.7s2.5,0.6,3.9,0.6c1.1,0,2.1-0.1,2.9-0.3c0.9-0.2,1.7-0.4,2.5-0.7l-0.6-3.8
		c-0.6,0.2-1.2,0.4-2,0.6c-0.8,0.2-1.7,0.3-2.6,0.3c-1.4,0-2.6-0.3-3.6-1c-0.9-0.7-1.4-1.5-1.4-2.6h11.1c0-0.2,0.1-0.5,0.1-0.8
		s0-0.6,0-0.9c0-2.9-0.7-5-2-6.5s-3.2-2.2-5.8-2.2c-1,0-2,0.2-3,0.6c-1,0.4-1.8,1-2.6,1.7c-0.8,0.8-1.4,1.7-1.8,2.9
		C68.8,101.5,68.6,102.8,68.6,104.3L68.6,104.3z M80.1,102.5h-6.9c0.1-0.5,0.1-0.9,0.3-1.4c0.1-0.5,0.4-0.9,0.7-1.2s0.7-0.6,1-0.8
		s0.9-0.3,1.5-0.3c0.6,0,1.1,0.1,1.5,0.3c0.4,0.2,0.8,0.5,1,0.9c0.3,0.3,0.5,0.7,0.6,1.2C80,101.6,80.1,102.1,80.1,102.5L80.1,102.5
		z M94,109.3c-1,0-2-0.1-2.9-0.5c-1-0.3-1.9-0.6-2.7-0.9l-0.7,3.7c0.7,0.3,1.4,0.6,2.5,0.9c1,0.3,2.3,0.5,3.8,0.5
		c1.4,0,2.7-0.1,3.7-0.4c1-0.3,1.8-0.7,2.4-1.1c0.6-0.5,1-1,1.3-1.6c0.3-0.7,0.4-1.3,0.4-2c0-0.9-0.2-1.6-0.5-2.3
		c-0.4-0.6-0.9-1.1-1.4-1.5c-0.6-0.4-1.2-0.7-1.9-1c-0.7-0.3-1.4-0.5-2-0.7c-0.5-0.1-0.9-0.3-1.3-0.5c-0.4-0.1-0.8-0.3-1-0.5
		c-0.3-0.2-0.5-0.3-0.7-0.6c-0.2-0.2-0.3-0.5-0.3-0.7c0-0.3,0.2-0.6,0.6-0.9c0.4-0.3,1.2-0.4,2.3-0.4c1.1,0,2.1,0.1,2.9,0.4
		s1.5,0.5,2,0.6l0.7-3.8c-0.7-0.3-1.5-0.6-2.5-0.7c-1-0.2-2-0.3-3.1-0.3c-1.3,0-2.4,0.1-3.3,0.4c-0.9,0.3-1.7,0.7-2.3,1.2
		c-0.6,0.5-1,1-1.3,1.7c-0.3,0.7-0.4,1.3-0.4,2c0,0.9,0.2,1.6,0.5,2.2c0.4,0.6,0.9,1.1,1.4,1.5c0.6,0.4,1.2,0.7,1.8,1
		c0.7,0.3,1.4,0.5,2,0.7c0.5,0.1,0.9,0.3,1.3,0.5c0.4,0.1,0.8,0.3,1.1,0.5c0.3,0.1,0.6,0.3,0.8,0.6c0.2,0.2,0.3,0.5,0.3,0.8
		c0,0.5-0.3,0.8-0.9,1C95.9,109.3,95.1,109.3,94,109.3"/>
</g>
</svg>
