<?xml version="1.0" encoding="utf-8"?>
<!-- Generator: Adobe Illustrator 18.0.0, SVG Export Plug-In . SVG Version: 6.00 Build 0)  -->
<!DOCTYPE svg PUBLIC "-//W3C//DTD SVG 1.1//EN" "http://www.w3.org/Graphics/SVG/1.1/DTD/svg11.dtd">
<svg version="1.1" id="Isolation_Mode" xmlns="http://www.w3.org/2000/svg" xmlns:xlink="http://www.w3.org/1999/xlink" x="0px"
	 y="0px" viewBox="0 0 103.8 15.8" enable-background="new 0 0 103.8 15.8" xml:space="preserve">
<g>
	<path id="path254_1_" fill="#FFFFFF" d="M2.6,9.5c0.3-0.3,0.5-0.6,0.8-0.9c0.3-0.3,0.5-0.7,0.8-1c0.2-0.4,0.5-0.7,0.7-1
		c0.2-0.3,0.4-0.6,0.6-0.9h3.1C8.4,5.9,8.1,6.2,7.8,6.6C7.4,7,7.1,7.4,6.8,7.8c-0.3,0.4-0.7,0.8-1,1.1C5.4,9.3,5,9.6,4.8,9.9
		c0.4,0.3,0.7,0.7,1.1,1.2c0.4,0.5,0.8,1,1.2,1.5c0.4,0.5,0.8,1,1.1,1.5c0.3,0.5,0.6,1,0.8,1.4H6c-0.2-0.4-0.4-0.8-0.7-1.2
		c-0.3-0.4-0.6-0.9-0.9-1.3c-0.3-0.4-0.6-0.8-0.9-1.2c-0.3-0.4-0.6-0.7-0.9-1v4.7H0V1.2l2.6-0.4V9.5L2.6,9.5z"/>
	<path id="path256_1_" fill="#FFFFFF" d="M18.6,15.2c-0.5,0.1-1.1,0.3-1.8,0.4c-0.7,0.1-1.4,0.2-2.2,0.2c-0.8,0-1.5-0.1-2-0.3
		c-0.5-0.2-0.9-0.5-1.2-1C11,14,10.8,13.5,10.7,13c-0.1-0.6-0.2-1.2-0.2-1.9V5.5h2.6v5.2c0,0.9,0.1,1.6,0.3,2.1
		c0.2,0.4,0.6,0.7,1.3,0.7c0.4,0,0.8,0,1.2-0.1V5.5h2.6L18.6,15.2L18.6,15.2z"/>
	<path id="path258_1_" fill="#FFFFFF" d="M27.3,10.5c0-0.9-0.2-1.7-0.5-2.1c-0.3-0.5-0.8-0.7-1.4-0.7c-0.3,0-0.6,0-0.8,0.1
		c-0.3,0.1-0.5,0.2-0.7,0.3v5.4c0.2,0,0.4,0.1,0.6,0.1c0.2,0,0.4,0,0.6,0c0.7,0,1.2-0.2,1.6-0.7S27.3,11.6,27.3,10.5L27.3,10.5z
		 M29.9,10.5c0,0.8-0.1,1.5-0.3,2.2c-0.2,0.6-0.5,1.2-0.9,1.6c-0.4,0.5-0.9,0.8-1.5,1.1c-0.6,0.2-1.3,0.4-2,0.4
		c-0.7,0-1.4,0-2.1-0.1c-0.7-0.1-1.3-0.2-1.8-0.4v-14l2.6-0.4v5c0.4-0.2,0.7-0.3,1.1-0.4c0.3-0.1,0.7-0.1,1-0.1
		c0.7,0,1.2,0.1,1.7,0.4c0.5,0.2,0.9,0.6,1.2,1.1c0.3,0.5,0.6,1,0.8,1.6C29.9,9,29.9,9.8,29.9,10.5"/>
	<path id="path260_1_" fill="#FFFFFF" d="M31.2,10.6c0-0.9,0.1-1.7,0.4-2.3c0.3-0.7,0.6-1.2,1.1-1.7c0.4-0.4,0.9-0.8,1.5-1
		c0.6-0.2,1.1-0.3,1.7-0.3c1.5,0,2.6,0.4,3.4,1.3c0.8,0.9,1.1,2.1,1.1,3.8c0,0.2,0,0.3,0,0.5c0,0.2,0,0.3,0,0.4h-6.5
		c0,0.7,0.3,1.2,0.8,1.5c0.5,0.4,1.2,0.6,2.1,0.6c0.5,0,1-0.1,1.5-0.2c0.5-0.1,0.9-0.2,1.2-0.3l0.4,2.2c-0.5,0.2-0.9,0.3-1.4,0.4
		c-0.5,0.1-1.1,0.2-1.7,0.2c-0.9,0-1.6-0.1-2.3-0.3c-0.7-0.2-1.2-0.5-1.7-1c-0.5-0.4-0.8-1-1.1-1.6C31.4,12.2,31.2,11.5,31.2,10.6
		L31.2,10.6z M37.9,9.6c0-0.3,0-0.5-0.1-0.8c-0.1-0.2-0.2-0.5-0.3-0.7c-0.2-0.2-0.4-0.4-0.6-0.5c-0.2-0.1-0.5-0.2-0.9-0.2
		c-0.3,0-0.6,0.1-0.9,0.2c-0.2,0.1-0.5,0.3-0.6,0.5c-0.2,0.2-0.3,0.4-0.4,0.7C34,9,34,9.3,33.9,9.6H37.9L37.9,9.6z"/>
	<path id="path262_1_" fill="#FFFFFF" d="M50.5,8.2c-0.2,0-0.4-0.1-0.6-0.1c-0.2,0-0.5-0.1-0.7-0.1c-0.2,0-0.5-0.1-0.7-0.1
		c-0.2,0-0.4,0-0.6,0c-0.4,0-0.7,0-1.1,0.1c-0.4,0-0.7,0.1-1.1,0.2v7.4h-2.6V6.2c0.7-0.3,1.4-0.5,2.1-0.6c0.7-0.2,1.6-0.2,2.6-0.2
		c0.1,0,0.3,0,0.6,0c0.3,0,0.5,0,0.8,0.1c0.3,0,0.6,0.1,0.9,0.1c0.3,0,0.6,0.1,0.8,0.2L50.5,8.2L50.5,8.2z"/>
	<path id="path264_1_" fill="#FFFFFF" d="M53.2,5.9c0.5-0.1,1-0.2,1.7-0.4c0.7-0.1,1.4-0.2,2.2-0.2c0.8,0,1.5,0.1,2,0.3
		c0.5,0.2,0.9,0.5,1.2,0.9C60.7,7,60.9,7.5,61,8c0.1,0.6,0.2,1.2,0.2,1.9v5.6h-2.6v-5.3c0-0.9-0.1-1.6-0.3-2
		c-0.2-0.4-0.6-0.6-1.3-0.6c-0.2,0-0.4,0-0.6,0c-0.2,0-0.4,0-0.6,0.1v7.9h-2.6V5.9z"/>
	<path id="path266_1_" fill="#FFFFFF" d="M63.1,10.6c0-0.9,0.1-1.7,0.4-2.3c0.3-0.7,0.6-1.2,1.1-1.7c0.4-0.4,0.9-0.8,1.5-1
		c0.6-0.2,1.1-0.3,1.7-0.3c1.5,0,2.6,0.4,3.4,1.3c0.8,0.9,1.1,2.1,1.1,3.8c0,0.2,0,0.3,0,0.5c0,0.2,0,0.3,0,0.4h-6.5
		c0,0.7,0.3,1.2,0.8,1.5c0.5,0.4,1.2,0.6,2.1,0.6c0.5,0,1-0.1,1.5-0.2c0.5-0.1,0.9-0.2,1.2-0.3l0.4,2.2c-0.5,0.2-0.9,0.3-1.4,0.4
		c-0.5,0.1-1.1,0.2-1.7,0.2c-0.9,0-1.6-0.1-2.3-0.3c-0.7-0.2-1.2-0.5-1.7-1c-0.5-0.4-0.8-1-1.1-1.6C63.3,12.2,63.1,11.5,63.1,10.6
		L63.1,10.6z M69.9,9.6c0-0.3,0-0.5-0.1-0.8c-0.1-0.2-0.2-0.5-0.3-0.7c-0.2-0.2-0.4-0.4-0.6-0.5c-0.2-0.1-0.5-0.2-0.9-0.2
		c-0.3,0-0.6,0.1-0.9,0.2c-0.2,0.1-0.5,0.3-0.6,0.5c-0.2,0.2-0.3,0.4-0.4,0.7c-0.1,0.3-0.2,0.5-0.2,0.8H69.9z"/>
	<path id="path268_1_" fill="#FFFFFF" d="M76.2,7.7h-2.3V5.5h2.3V3l2.6-0.4v2.9H83v2.2h-4.2v4c0,0.4,0,0.7,0.1,0.9
		c0.1,0.2,0.2,0.4,0.3,0.5c0.1,0.1,0.3,0.2,0.5,0.3c0.2,0,0.4,0.1,0.6,0.1c0.2,0,0.5,0,0.7,0c0.2,0,0.4,0,0.6-0.1
		c0.2,0,0.4-0.1,0.6-0.2c0.2-0.1,0.4-0.2,0.7-0.3l0.4,2.3c-0.5,0.2-1,0.3-1.6,0.4c-0.6,0.1-1.1,0.1-1.6,0.1c-0.6,0-1.1,0-1.6-0.1
		c-0.5-0.1-0.9-0.3-1.2-0.6c-0.3-0.3-0.6-0.7-0.7-1.2c-0.2-0.5-0.3-1.2-0.3-2L76.2,7.7L76.2,7.7z"/>
	<path id="path270_1_" fill="#FFFFFF" d="M84.4,10.6c0-0.9,0.1-1.7,0.4-2.3c0.3-0.7,0.6-1.2,1.1-1.7c0.4-0.4,0.9-0.8,1.5-1
		c0.6-0.2,1.1-0.3,1.7-0.3c1.5,0,2.6,0.4,3.4,1.3c0.8,0.9,1.1,2.1,1.1,3.8c0,0.2,0,0.3,0,0.5c0,0.2,0,0.3,0,0.4h-6.5
		c0,0.7,0.3,1.2,0.8,1.5c0.5,0.4,1.2,0.6,2.1,0.6c0.5,0,1-0.1,1.5-0.2c0.5-0.1,0.9-0.2,1.2-0.3l0.4,2.2c-0.5,0.2-0.9,0.3-1.4,0.4
		c-0.5,0.1-1.1,0.2-1.7,0.2c-0.9,0-1.6-0.1-2.3-0.3c-0.7-0.2-1.2-0.5-1.7-1c-0.5-0.4-0.8-1-1.1-1.6C84.6,12.2,84.4,11.5,84.4,10.6
		L84.4,10.6z M91.1,9.6c0-0.3,0-0.5-0.1-0.8c-0.1-0.2-0.2-0.5-0.3-0.7c-0.2-0.2-0.4-0.4-0.6-0.5c-0.2-0.1-0.5-0.2-0.9-0.2
		c-0.3,0-0.6,0.1-0.9,0.2c-0.2,0.1-0.5,0.3-0.6,0.5c-0.2,0.2-0.3,0.4-0.4,0.7c-0.1,0.3-0.2,0.5-0.2,0.8H91.1L91.1,9.6z"/>
	<path id="path272_1_" fill="#FFFFFF" d="M99.3,13.6c0.6,0,1.1,0,1.5-0.1c0.3-0.1,0.5-0.3,0.5-0.6c0-0.2-0.1-0.3-0.2-0.5
		c-0.1-0.1-0.3-0.2-0.4-0.3c-0.2-0.1-0.4-0.2-0.7-0.3c-0.2-0.1-0.5-0.2-0.8-0.3c-0.4-0.1-0.8-0.2-1.2-0.4c-0.4-0.1-0.8-0.3-1.1-0.6
		c-0.3-0.2-0.6-0.5-0.8-0.9c-0.2-0.3-0.3-0.8-0.3-1.3c0-0.4,0.1-0.8,0.2-1.2c0.2-0.4,0.4-0.7,0.8-1c0.3-0.3,0.8-0.5,1.3-0.7
		c0.5-0.2,1.2-0.2,1.9-0.2c0.7,0,1.3,0,1.8,0.1c0.6,0.1,1,0.2,1.5,0.4L103,8.1c-0.2-0.1-0.6-0.2-1.1-0.4c-0.5-0.2-1.1-0.2-1.7-0.2
		c-0.7,0-1.1,0.1-1.4,0.2c-0.2,0.2-0.4,0.3-0.4,0.5c0,0.2,0.1,0.3,0.2,0.4C98.7,8.8,98.8,8.9,99,9c0.2,0.1,0.4,0.2,0.6,0.3
		c0.2,0.1,0.5,0.2,0.8,0.3c0.4,0.1,0.8,0.3,1.2,0.4c0.4,0.2,0.8,0.4,1.1,0.6c0.3,0.2,0.6,0.5,0.8,0.9c0.2,0.4,0.3,0.8,0.3,1.3
		c0,0.4-0.1,0.8-0.2,1.2c-0.2,0.4-0.4,0.7-0.8,1c-0.4,0.3-0.8,0.5-1.4,0.6c-0.6,0.2-1.3,0.2-2.1,0.2c-0.9,0-1.6-0.1-2.2-0.3
		c-0.6-0.2-1.1-0.4-1.5-0.5l0.4-2.2c0.5,0.2,1,0.4,1.6,0.6S98.7,13.6,99.3,13.6"/>
</g>
</svg>
