<?xml version="1.0" encoding="utf-8"?>
<!-- Generator: Adobe Illustrator 18.0.0, SVG Export Plug-In . SVG Version: 6.00 Build 0)  -->
<!DOCTYPE svg PUBLIC "-//W3C//DTD SVG 1.1//EN" "http://www.w3.org/Graphics/SVG/1.1/DTD/svg11.dtd">
<svg version="1.1" id="Isolation_Mode" xmlns="http://www.w3.org/2000/svg" xmlns:xlink="http://www.w3.org/1999/xlink" x="0px"
	 y="0px" width="196.3px" height="30px" viewBox="-88 -5 196.3 30" enable-background="new -88 -5 196.3 30" xml:space="preserve">
<g>
	<path id="path254_1_" fill="#FFFFFF" d="M-82,12.3c0.6-0.6,0.9-1.1,1.5-1.7c0.6-0.6,0.9-1.3,1.5-1.9c0.4-0.7,0.9-1.3,1.3-1.9
		c0.4-0.6,0.7-1.1,1.1-1.7h5.8c-0.4,0.4-0.9,0.9-1.5,1.7c-0.7,0.7-1.3,1.5-1.9,2.2c-0.6,0.7-1.3,1.5-1.9,2.1
		c-0.7,0.7-1.5,1.3-1.9,1.9c0.7,0.6,1.3,1.3,2.1,2.2s1.5,1.9,2.2,2.8c0.7,0.9,1.5,1.9,2.1,2.8c0.6,0.9,1.1,1.9,1.5,2.6h-5.6
		c-0.4-0.7-0.7-1.5-1.3-2.2c-0.6-0.7-1.1-1.7-1.7-2.4c-0.6-0.7-1.1-1.5-1.7-2.2c-0.6-0.7-1.1-1.3-1.7-1.9v8.8h-4.9V-3.2l4.9-0.7
		V12.3L-82,12.3z"/>
	<path id="path256_1_" fill="#FFFFFF" d="M-52.2,23c-0.9,0.2-2.1,0.6-3.4,0.7c-1.3,0.2-2.6,0.4-4.1,0.4c-1.5,0-2.8-0.2-3.7-0.6
		s-1.7-0.9-2.2-1.9c-0.7-0.9-1.1-1.9-1.3-2.8c-0.2-1.1-0.4-2.2-0.4-3.5V4.9h4.9v9.7c0,1.7,0.2,3,0.6,3.9c0.4,0.7,1.1,1.3,2.4,1.3
		c0.7,0,1.5,0,2.2-0.2V4.9h4.9L-52.2,23L-52.2,23z"/>
	<path id="path258_1_" fill="#FFFFFF" d="M-35.9,14.2c0-1.7-0.4-3.2-0.9-3.9C-37.4,9.3-38.3,9-39.5,9C-40,9-40.6,9-41,9.1
		c-0.6,0.2-0.9,0.4-1.3,0.6v10.1c0.4,0,0.7,0.2,1.1,0.2c0.4,0,0.7,0,1.1,0c1.3,0,2.2-0.4,3-1.3C-36.3,17.7-35.9,16.2-35.9,14.2
		L-35.9,14.2z M-31.1,14.2c0,1.5-0.2,2.8-0.6,4.1c-0.4,1.1-0.9,2.2-1.7,3c-0.7,0.9-1.7,1.5-2.8,2.1c-1.1,0.4-2.4,0.7-3.7,0.7
		s-2.6,0-3.9-0.2c-1.3-0.2-2.4-0.4-3.4-0.7V-3l4.9-0.7v9.3c0.7-0.4,1.3-0.6,2.1-0.7c0.6-0.2,1.3-0.2,1.9-0.2c1.3,0,2.2,0.2,3.2,0.7
		c0.9,0.4,1.7,1.1,2.2,2.1s1.1,1.9,1.5,3C-31.1,11.4-31.1,12.9-31.1,14.2"/>
	<path id="path260_1_" fill="#FFFFFF" d="M-28.6,14.4c0-1.7,0.2-3.2,0.7-4.3c0.6-1.3,1.1-2.2,2.1-3.2c0.7-0.7,1.7-1.5,2.8-1.9
		s2.1-0.6,3.2-0.6c2.8,0,4.9,0.7,6.3,2.4c1.5,1.7,2.1,3.9,2.1,7.1c0,0.4,0,0.6,0,0.9s0,0.6,0,0.7h-12.1c0,1.3,0.6,2.2,1.5,2.8
		c0.9,0.7,2.2,1.1,3.9,1.1c0.9,0,1.9-0.2,2.8-0.4c0.9-0.2,1.7-0.4,2.2-0.6l0.7,4.1c-0.9,0.4-1.7,0.6-2.6,0.7
		c-0.9,0.2-2.1,0.4-3.2,0.4c-1.7,0-3-0.2-4.3-0.6c-1.3-0.4-2.2-0.9-3.2-1.9c-0.9-0.7-1.5-1.9-2.1-3C-28.3,17.4-28.6,16.1-28.6,14.4
		L-28.6,14.4z M-16.1,12.5c0-0.6,0-0.9-0.2-1.5c-0.2-0.4-0.4-0.9-0.6-1.3C-17.3,9.3-17.6,9-18,8.8c-0.4-0.2-0.9-0.4-1.7-0.4
		c-0.6,0-1.1,0.2-1.7,0.4c-0.4,0.2-0.9,0.6-1.1,0.9c-0.4,0.4-0.6,0.7-0.7,1.3c-0.2,0.4-0.2,0.9-0.4,1.5H-16.1L-16.1,12.5z"/>
	<path id="path262_1_" fill="#FFFFFF" d="M7.4,9.9C7,9.9,6.6,9.7,6.3,9.7C5.9,9.7,5.3,9.5,5,9.5C4.6,9.5,4,9.3,3.7,9.3s-0.7,0-1.1,0
		c-0.7,0-1.3,0-2.1,0.2c-0.7,0-1.3,0.2-2.1,0.4v13.8h-4.9V6.2C-5.1,5.6-3.8,5.2-2.5,5c1.3-0.4,3-0.4,4.9-0.4c0.2,0,0.6,0,1.1,0
		s0.9,0,1.5,0.2C5.5,4.9,6.1,5,6.6,5c0.6,0,1.1,0.2,1.5,0.4L7.4,9.9L7.4,9.9z"/>
	<path id="path264_1_" fill="#FFFFFF" d="M12.4,5.6c0.9-0.2,1.9-0.4,3.2-0.7c1.3-0.2,2.6-0.4,4.1-0.4s2.8,0.2,3.7,0.6
		c0.9,0.4,1.7,0.9,2.2,1.7c0.7,0.9,1.1,1.9,1.3,2.8c0.2,1.1,0.4,2.2,0.4,3.5v10.5h-4.9v-9.9c0-1.7-0.2-3-0.6-3.7
		c-0.4-0.7-1.1-1.1-2.4-1.1c-0.4,0-0.7,0-1.1,0c-0.4,0-0.7,0-1.1,0.2v14.7h-4.9C12.4,23.7,12.4,5.6,12.4,5.6z"/>
	<path id="path266_1_" fill="#FFFFFF" d="M30.9,14.4c0-1.7,0.2-3.2,0.7-4.3c0.6-1.3,1.1-2.2,2.1-3.2c0.7-0.7,1.7-1.5,2.8-1.9
		c1.1-0.4,2.1-0.6,3.2-0.6c2.8,0,4.9,0.7,6.3,2.4s2.1,3.9,2.1,7.1c0,0.4,0,0.6,0,0.9s0,0.6,0,0.7H35.9c0,1.3,0.6,2.2,1.5,2.8
		c0.9,0.7,2.2,1.1,3.9,1.1c0.9,0,1.9-0.2,2.8-0.4c0.9-0.2,1.7-0.4,2.2-0.6l0.7,4.1c-0.9,0.4-1.7,0.6-2.6,0.7
		c-0.9,0.2-2.1,0.4-3.2,0.4c-1.7,0-3-0.2-4.3-0.6c-1.3-0.4-2.2-0.9-3.2-1.9c-0.9-0.7-1.5-1.9-2.1-3C31.3,17.4,30.9,16.1,30.9,14.4
		L30.9,14.4z M43.6,12.5c0-0.6,0-0.9-0.2-1.5c-0.2-0.4-0.4-0.9-0.6-1.3c-0.4-0.4-0.7-0.7-1.1-0.9s-0.9-0.4-1.7-0.4
		c-0.6,0-1.1,0.2-1.7,0.4C38,9,37.4,9.3,37.3,9.7c-0.4,0.4-0.6,0.7-0.7,1.3c-0.2,0.6-0.4,0.9-0.4,1.5H43.6z"/>
	<path id="path268_1_" fill="#FFFFFF" d="M55.4,9h-4.3V4.9h4.3V0.2l4.9-0.7v5.4h7.8V9h-7.8v7.5c0,0.7,0,1.3,0.2,1.7
		c0.2,0.4,0.4,0.7,0.6,0.9c0.2,0.2,0.6,0.4,0.9,0.6c0.4,0,0.7,0.2,1.1,0.2s0.9,0,1.3,0c0.4,0,0.7,0,1.1-0.2c0.4,0,0.7-0.2,1.1-0.4
		c0.4-0.2,0.7-0.4,1.3-0.6l0.7,4.3c-0.9,0.4-1.9,0.6-3,0.7c-1.1,0.2-2.1,0.2-3,0.2c-1.1,0-2.1,0-3-0.2c-0.9-0.2-1.7-0.6-2.2-1.1
		c-0.6-0.6-1.1-1.3-1.3-2.2c-0.4-0.9-0.6-2.2-0.6-3.7L55.4,9L55.4,9z"/>
	<path id="path270_1_" fill="#FFFFFF" d="M70.7,14.4c0-1.7,0.2-3.2,0.7-4.3c0.6-1.3,1.1-2.2,2.1-3.2c0.7-0.7,1.7-1.5,2.8-1.9
		c1.1-0.4,2.1-0.6,3.2-0.6c2.8,0,4.9,0.7,6.3,2.4c1.5,1.7,2.1,3.9,2.1,7.1c0,0.4,0,0.6,0,0.9s0,0.6,0,0.7H75.7
		c0,1.3,0.6,2.2,1.5,2.8c0.9,0.7,2.2,1.1,3.9,1.1c0.9,0,1.9-0.2,2.8-0.4c0.9-0.2,1.7-0.4,2.2-0.6l0.7,4.1c-0.9,0.4-1.7,0.6-2.6,0.7
		c-0.9,0.2-2.1,0.4-3.2,0.4c-1.7,0-3-0.2-4.3-0.6c-1.3-0.4-2.2-0.9-3.2-1.9c-0.9-0.7-1.5-1.9-2.1-3C71,17.4,70.7,16.1,70.7,14.4
		L70.7,14.4z M83.2,12.5c0-0.6,0-0.9-0.2-1.5c-0.2-0.4-0.4-0.9-0.6-1.3c-0.4-0.4-0.7-0.7-1.1-0.9c-0.4-0.2-0.9-0.4-1.7-0.4
		c-0.6,0-1.1,0.2-1.7,0.4C77.6,9,77,9.3,76.8,9.7c-0.4,0.4-0.6,0.7-0.7,1.3c-0.2,0.6-0.4,0.9-0.4,1.5H83.2L83.2,12.5z"/>
	<path id="path272_1_" fill="#FFFFFF" d="M98.5,20c1.1,0,2.1,0,2.8-0.2c0.6-0.2,0.9-0.6,0.9-1.1c0-0.4-0.2-0.6-0.4-0.9
		c-0.2-0.2-0.6-0.4-0.7-0.6c-0.4-0.2-0.7-0.4-1.3-0.6c-0.4-0.2-0.9-0.4-1.5-0.6c-0.7-0.2-1.5-0.4-2.2-0.7c-0.7-0.2-1.5-0.6-2.1-1.1
		c-0.6-0.4-1.1-0.9-1.5-1.7c-0.4-0.6-0.6-1.5-0.6-2.4c0-0.7,0.2-1.5,0.4-2.2c0.4-0.7,0.7-1.3,1.5-1.9c0.6-0.6,1.5-0.9,2.4-1.3
		s2.2-0.4,3.5-0.4c1.3,0,2.4,0,3.4,0.2c1.1,0.2,1.9,0.4,2.8,0.7l-0.6,4.5c-0.4-0.2-1.1-0.4-2.1-0.7c-0.9-0.4-2.1-0.4-3.2-0.4
		c-1.3,0-2.1,0.2-2.6,0.4c-0.4,0.4-0.7,0.6-0.7,0.9c0,0.4,0.2,0.6,0.4,0.7c0.2,0.4,0.4,0.6,0.7,0.7c0.4,0.2,0.7,0.4,1.1,0.6
		c0.4,0.2,0.9,0.4,1.5,0.6c0.7,0.2,1.5,0.6,2.2,0.7c0.7,0.4,1.5,0.7,2.1,1.1c0.6,0.4,1.1,0.9,1.5,1.7c0.4,0.7,0.6,1.5,0.6,2.4
		c0,0.7-0.2,1.5-0.4,2.2c-0.4,0.7-0.7,1.3-1.5,1.9c-0.7,0.6-1.5,0.9-2.6,1.1c-1.1,0.4-2.4,0.4-3.9,0.4c-1.7,0-3-0.2-4.1-0.6
		c-1.1-0.4-2.1-0.7-2.8-0.9l0.7-4.1c0.9,0.4,1.9,0.7,3,1.1C96.4,20,97.4,20,98.5,20"/>
</g>
</svg>
