<?xml version="1.0" encoding="utf-8"?>
<!-- Generator: Adobe Illustrator 18.0.0, SVG Export Plug-In . SVG Version: 6.00 Build 0)  -->
<!DOCTYPE svg PUBLIC "-//W3C//DTD SVG 1.1//EN" "http://www.w3.org/Graphics/SVG/1.1/DTD/svg11.dtd">
<svg version="1.1" id="Layer_1" xmlns="http://www.w3.org/2000/svg" xmlns:xlink="http://www.w3.org/1999/xlink" x="0px" y="0px"
	 viewBox="0 0 290 184" enable-background="new 0 0 290 184" xml:space="preserve">
<rect x="4" y="-18" fill="none" width="299" height="206"/>
<g>
	<path fill="#326DE6" d="M75.6,126.3c6.8,7.8-4.7,37.9-9.6,58c0,0,13-30.4,14.4-38.1C81.8,138.5,80.8,129.5,75.6,126.3z"/>
	<path fill="#09C1D1" d="M83.3,123.4c0,0,8.9-16.6,18.5-23.5c0.8,3.1-1,24.6-3.8,27.7c-2.8,3.1-17.9,25.2-19.9,29.3
		C80.8,144.7,86,133.6,83.3,123.4z"/>
	<path fill="#C9E9EC" d="M103.5,98.7c0,0,16.3-16.1,46.5-28.2c-1.6,7-4.9,22.1-10.1,25.5c-5.2,3.4-37.4,29.3-40.8,30.7
		C103,115.5,104.8,111,103.5,98.7z"/>
	<path fill="#326DE6" d="M146.1,92c1-3.3,7.5-12.1,9.1-23.5c4.9-1.4,24.5-9.7,29.6-14.7c0.4,5.3-6.3,18.2-10.8,21
		C169.6,77.6,146.1,92,146.1,92z"/>
	<path fill="#C9E9EC" d="M189,51.1c6.3-2.6,27.2-17.2,32.4-30.1c-3.7,16.5-9.8,37-12.9,42.3c-2.1,3.5-4.7,7.4-19.1,12.3
		s-25.2,5.6-25.2,5.6S180.3,70,189,51.1z"/>
	<path fill="#09C1D1" d="M67.2,180.7c0,0,5.1-11.7,9.9-15c2.1-1.5,3.9-3.4,8.5-4.2c-3.3-0.7-9,0.2-11.1,3.5
		C73.1,167.1,68.1,178.8,67.2,180.7z"/>
	<path fill="#C9E9EC" d="M89.6,139.2c6.5-1.2,15.3,0.4,19.5,1.7c4.2,1.3,8.4,2.9,11.8,8.2c-7.7-2.6-15.1-1.6-25.1,2.9
		c-11.2,5-16.2,7.5-19.5,11C72.1,167.4,89.6,139.2,89.6,139.2z"/>
	<path fill="#326DE6" d="M86.3,141.2c0,0,8.7-4.5,20.2-3.4c11.4,1.2,18.1,4.8,20.6,5.4c3.3-1.1,37.3-15.7,41.8-22.1
		c-5.1-1.5-29.1-6.2-36.4-6.5c-9.2-0.4-25.6,4.7-25.6,4.7L86.3,141.2z"/>
	<path fill="#09C1D1" d="M112.1,117.2c0,0,12.4-2.9,20.4-3.5c7.9-0.6,37.2,4.3,44,1.5c6.3-2.6,30.2-35.9,31.1-47.4
		c-8.6,7.3-29.3,11.5-42.5,12.6C151.6,88.5,119,109,112.1,117.2z"/>
	<g>
		<path fill="#6B7077" d="M66,184.3c0,0,0.3-0.9,0.8-2.5c0.5-1.6,1.3-3.9,2.4-6.9c2.2-5.9,5.6-14.2,10.7-23.8
			c2.6-4.8,5.5-9.8,9.2-14.9c1.8-2.5,3.8-5.1,6-7.5c2.2-2.5,4.6-4.8,7.2-7.1c5.1-4.5,10.7-8.7,16.5-12.7c5.8-4,11.9-7.9,18-11.6
			c6.1-3.8,12.3-7.4,18.3-11.1c6.1-3.6,11.9-7.3,17.6-10.9c5.7-3.5,10.9-7.4,15.7-11.3c4.8-3.9,9.1-7.8,12.9-11.6
			c7.6-7.6,13.3-14.6,16.4-20c1.6-2.7,2.5-5,2.8-6.7c0.2-0.8,0.2-1.5,0.2-1.9c0-0.4,0-0.7,0-0.7s0,0.2,0,0.7c0,0.4,0,1.1-0.2,1.9
			c-0.3,1.7-1.2,4-2.7,6.7c-3,5.5-8.6,12.6-16.2,20.3c-3.8,3.8-8.1,7.8-12.8,11.8c-4.7,3.9-9.9,8-15.7,11.4
			c-5.7,3.5-11.8,7-17.7,10.7c-6,3.7-12,7.6-17.9,11.7c-5.9,4.1-11.7,8.2-17.3,12.5c-2.8,2.1-5.5,4.3-8.2,6.5
			c-2.7,2.1-5.2,4.4-7.7,6.6c-2.4,2.2-4.8,4.5-6.9,6.8c-2.1,2.3-4.1,4.8-5.9,7.2c-3.6,4.9-6.7,9.8-9.4,14.4c-2.7,4.6-5,9-7,12.8
			c-2,3.9-3.6,7.3-4.9,10.2C67.4,181,66,184.3,66,184.3z"/>
	</g>
</g>
</svg>
