<?xml version="1.0" encoding="utf-8"?>
<!-- Generator: Adobe Illustrator 18.0.0, SVG Export Plug-In . SVG Version: 6.00 Build 0)  -->
<!DOCTYPE svg PUBLIC "-//W3C//DTD SVG 1.1//EN" "http://www.w3.org/Graphics/SVG/1.1/DTD/svg11.dtd">
<svg version="1.1" id="Layer_1" xmlns="http://www.w3.org/2000/svg" xmlns:xlink="http://www.w3.org/1999/xlink" x="0px" y="0px"
	 viewBox="0 0 290 184" enable-background="new 0 0 290 184" xml:space="preserve">
<g>
	<path id="left" fill="#326DE6" d="M90,65.6v118.5H78.1c-9.8,0-17.8-8-17.8-17.8V83.4c0-9.8,8-17.8,17.8-17.8H90z"/>
	<rect id="middle" x="95.9" y="65.6" fill="#09C1D1" width="106.7" height="118.5"/>
	<path id="right" fill="#326DE6" d="M208.5,65.6h11.9c9.8,0,17.8,8,17.8,17.8v82.9c0,9.8-8,17.8-17.8,17.8h-11.9V65.6z"/>
	<path id="handle" fill="#326DE6" d="M122.6,64.1v-8.9c0-7.4,6-13.3,13.3-13.3h26.7c7.4,0,13.3,6,13.3,13.3v8.9H167v-8.9
		c0-2.5-2-4.4-4.4-4.4h-26.7c-2.5,0-4.4,2-4.4,4.4v8.9H122.6z"/>
	<g>
		<defs>
			<rect id="middle_1_" x="95.9" y="65.6" width="106.7" height="118.5"/>
		</defs>
		<clipPath id="middle_2_">
			<use xlink:href="#middle_1_"  overflow="visible"/>
		</clipPath>
		<path clip-path="url(#middle_2_)" fill="none" stroke="#C9E9EC" stroke-width="1.4812" stroke-miterlimit="10" d="M64,24.4
			l-7.3-12.7L64-1h14.6L86,11.7l-7.3,12.7H64z M78.6,49.7L86,37.1l-7.3-12.7H64l-7.3,12.7L64,49.7H78.6z M78.6,75.1L86,62.4
			l-7.3-12.7H64l-7.3,12.7L64,75.1H78.6z M78.6,100.5L86,87.8l-7.3-12.7H64l-7.3,12.7l7.3,12.7H78.6z M78.6,125.9l7.3-12.7
			l-7.3-12.7H64l-7.3,12.7l7.3,12.7H78.6z M78.6,151.2l7.3-12.7l-7.3-12.7H64l-7.3,12.7l7.3,12.7H78.6z M78.6,176.6l7.3-12.7
			l-7.3-12.7H64l-7.3,12.7l7.3,12.7H78.6z M100.7,37.1l7.3-12.7l-7.3-12.7H86l-7.3,12.7L86,37.1H100.7z M100.7,62.4l7.3-12.7
			l-7.3-12.7H86l-7.3,12.7L86,62.4H100.7z M100.7,87.8l7.3-12.7l-7.3-12.7H86l-7.3,12.7L86,87.8H100.7z M100.7,113.2l7.3-12.7
			l-7.3-12.7H86l-7.3,12.7l7.3,12.7H100.7z M100.7,138.6l7.3-12.7l-7.3-12.7H86l-7.3,12.7l7.3,12.7H100.7z M100.7,163.9l7.3-12.7
			l-7.3-12.7H86l-7.3,12.7l7.3,12.7H100.7z M100.7,189.3l7.3-12.7l-7.3-12.7H86l-7.3,12.7l7.3,12.7H100.7z M122.6,24.4l7.3-12.7
			L122.6-1h-14.6l-7.3,12.7l7.3,12.7H122.6z M122.6,49.7l7.3-12.7l-7.3-12.7h-14.6l-7.3,12.7l7.3,12.7H122.6z M122.6,75.1l7.3-12.7
			l-7.3-12.7h-14.6l-7.3,12.7l7.3,12.7H122.6z M122.6,100.5l7.3-12.7l-7.3-12.7h-14.6l-7.3,12.7l7.3,12.7H122.6z M122.6,125.9
			l7.3-12.7l-7.3-12.7h-14.6l-7.3,12.7l7.3,12.7H122.6z M122.6,151.2l7.3-12.7l-7.3-12.7h-14.6l-7.3,12.7l7.3,12.7H122.6z
			 M122.6,176.6l7.3-12.7l-7.3-12.7h-14.6l-7.3,12.7l7.3,12.7H122.6z M144.6,37.1l7.3-12.7l-7.3-12.7H130l-7.3,12.7l7.3,12.7H144.6z
			 M144.6,62.4l7.3-12.7l-7.3-12.7H130l-7.3,12.7l7.3,12.7H144.6z M144.6,87.8l7.3-12.7l-7.3-12.7H130l-7.3,12.7l7.3,12.7H144.6z
			 M144.6,113.2l7.3-12.7l-7.3-12.7H130l-7.3,12.7l7.3,12.7H144.6z M144.6,138.6l7.3-12.7l-7.3-12.7H130l-7.3,12.7l7.3,12.7H144.6z
			 M144.6,163.9l7.3-12.7l-7.3-12.7H130l-7.3,12.7l7.3,12.7H144.6z M144.6,189.3l7.3-12.7l-7.3-12.7H130l-7.3,12.7l7.3,12.7H144.6z
			 M166.7,24.4l7.3-12.7L166.7-1H152l-7.3,12.7l7.3,12.7H166.7z M166.7,49.7l7.3-12.7l-7.3-12.7H152l-7.3,12.7l7.3,12.7H166.7z
			 M166.7,75.1l7.3-12.7l-7.3-12.7H152l-7.3,12.7l7.3,12.7H166.7z M166.7,100.5l7.3-12.7l-7.3-12.7H152l-7.3,12.7l7.3,12.7H166.7z
			 M166.7,125.9l7.3-12.7l-7.3-12.7H152l-7.3,12.7l7.3,12.7H166.7z M166.7,151.2l7.3-12.7l-7.3-12.7H152l-7.3,12.7l7.3,12.7H166.7z
			 M166.7,176.6l7.3-12.7l-7.3-12.7H152l-7.3,12.7l7.3,12.7H166.7z M188.7,37.1l7.3-12.7l-7.3-12.7h-14.6l-7.3,12.7l7.3,12.7H188.7z
			 M188.7,62.4l7.3-12.7l-7.3-12.7h-14.6l-7.3,12.7l7.3,12.7H188.7z M188.7,87.8l7.3-12.7l-7.3-12.7h-14.6l-7.3,12.7l7.3,12.7H188.7
			z M188.7,113.2l7.3-12.7l-7.3-12.7h-14.6l-7.3,12.7l7.3,12.7H188.7z M188.7,138.6l7.3-12.7l-7.3-12.7h-14.6l-7.3,12.7l7.3,12.7
			H188.7z M188.7,163.9l7.3-12.7l-7.3-12.7h-14.6l-7.3,12.7l7.3,12.7H188.7z M188.7,189.3l7.3-12.7l-7.3-12.7h-14.6l-7.3,12.7
			l7.3,12.7H188.7z M210.6,24.4l7.3-12.7L210.6-1H196l-7.3,12.7l7.3,12.7H210.6z M210.6,49.7l7.3-12.7l-7.3-12.7H196l-7.3,12.7
			l7.3,12.7H210.6z M210.6,75.1l7.3-12.7l-7.3-12.7H196l-7.3,12.7l7.3,12.7H210.6z M210.6,100.5l7.3-12.7l-7.3-12.7H196l-7.3,12.7
			l7.3,12.7H210.6z M210.6,125.9l7.3-12.7l-7.3-12.7H196l-7.3,12.7l7.3,12.7H210.6z M210.6,151.2l7.3-12.7l-7.3-12.7H196l-7.3,12.7
			l7.3,12.7H210.6z M210.6,176.6l7.3-12.7l-7.3-12.7H196l-7.3,12.7l7.3,12.7H210.6z M232.7,37.1l7.3-12.7l-7.3-12.7H218l-7.3,12.7
			l7.3,12.7H232.7z M232.7,62.4l7.3-12.7l-7.3-12.7H218l-7.3,12.7l7.3,12.7H232.7z M232.7,87.8l7.3-12.7l-7.3-12.7H218l-7.3,12.7
			l7.3,12.7H232.7z M232.7,113.2l7.3-12.7l-7.3-12.7H218l-7.3,12.7l7.3,12.7H232.7z M232.7,138.6l7.3-12.7l-7.3-12.7H218l-7.3,12.7
			l7.3,12.7H232.7z M232.7,163.9l7.3-12.7l-7.3-12.7H218l-7.3,12.7l7.3,12.7H232.7z M232.7,189.3l7.3-12.7l-7.3-12.7H218l-7.3,12.7
			l7.3,12.7H232.7z"/>
	</g>
</g>
</svg>
