<svg id="Layer_1" data-name="Layer 1" xmlns="http://www.w3.org/2000/svg" xmlns:xlink="http://www.w3.org/1999/xlink" viewBox="0 0 215 127"><defs><style>.cls-1,.cls-6{fill:none;}.cls-2{fill:transparent;}.cls-3{fill:#231f20;}.cls-4{fill:#287ac8;}.cls-5{fill:#fff;}.cls-6{stroke:#231f20;stroke-width:0.40668px;}.cls-7{fill:#c8c7c7;}.cls-8{clip-path:url(#clip-path);}</style><clipPath id="clip-path"><rect class="cls-1" x="389.19562" y="-8.94586" width="115.27524" height="49.40367"/></clipPath></defs><title>kubernetes.io-logos</title><rect class="cls-2" x="-4.36327" y="-3.16104" width="223.25536" height="134.51136"/><path class="cls-1" d="M28.267,14.33938H186.2618v96.7718H28.267Z"/><path class="cls-1" d="M28.267,14.33938H186.2618v96.7718H28.267Z"/><path class="cls-3" d="M29.012,92.11626V79.55173H31.1212l2.40823,5.369c.48979,1.13678,1.21419,2.75859,1.66171,3.97041h.04266c-.10664-1.60325-.23423-3.54184-.23423-5.79722V79.55173h2.00259V92.11626H34.89293l-2.42917-5.3501a38.1621,38.1621,0,0,1-1.55506-3.98937h-.04306c.08532,1.45355.17064,3.22468.17064,5.83475v3.50432H29.012m16.61947-2.06933a12.64927,12.64927,0,0,0,.128,2.06973H43.71417l-.12837-.93217h-.04226A2.65884,2.65884,0,0,1,41.349,92.26517a2.56507,2.56507,0,0,1-2.62113-2.68394c0-2.33042,2.25853-3.31828,4.60278-3.33685v-.24291a1.41215,1.41215,0,0,0-1.55585-1.60286,3.882,3.882,0,0,0-1.939.50321L39.41,83.54109a6.40837,6.40837,0,0,1,2.855-.65252c2.68472,0,3.36647,1.60365,3.36647,3.54146Zm-2.23721-2.47894c-.895.01856-2.49315.22356-2.49315,1.80825,0,1.02538.61815,1.39825,1.12966,1.39825a1.33018,1.33018,0,0,0,1.29951-1.04395,1.56478,1.56478,0,0,0,.064-.46609V87.56759m6.86053-6.78548v2.25577h2.003v1.45434H50.25516V89.1894c0,1.11861.48978,1.39826,1.06527,1.39826a4.2906,4.2906,0,0,0,.70308-.05609l.04266,1.54716a6.01526,6.01526,0,0,1-1.49147.14931,2.76331,2.76331,0,0,1-1.83274-.5597,2.96593,2.96593,0,0,1-.76667-2.46076V84.49222H46.739V83.03788h1.23631V81.47175l2.27947-.68964m5.71072-.11178a1.13461,1.13461,0,0,1-1.25724,1.13717,1.10951,1.10951,0,0,1-1.17232-1.13757,1.21628,1.21628,0,0,1,2.42956.0004ZM53.62163,92.11587v-9.078H55.9015v9.078H53.62124m11.39932-4.56724c0,3.67259-2.15268,4.71653-3.72868,4.71653-2.19494,0-3.70774-1.60364-3.70774-4.66045,0-3.28076,1.85407-4.71614,3.79306-4.71614C63.55041,82.88857,65.02056,84.56608,65.02056,87.54863Zm-5.15656.019c0,1.529.29822,3.16858,1.5128,3.16858,1.12967,0,1.38483-1.80785,1.38483-3.16858,0-1.32321-.25517-3.13146-1.42748-3.13146-1.23552,0-1.47015,1.80825-1.47015,3.13146m6.86092-1.97573c0-1.02578-.04265-1.75255-.08531-2.554h1.98125L68.72751,84.1h.04265a2.88211,2.88211,0,0,1,2.45011-1.21142c1.74742,0,2.66379,1.17469,2.66379,3.28116v5.94613H71.6038v-5.7601c0-.89464-.21329-1.78929-1.21419-1.78929A1.36143,1.36143,0,0,0,69.111,85.68508a2.752,2.752,0,0,0-.10664.81959v5.61119H66.72493v-6.524m15.57512,4.45467a12.65121,12.65121,0,0,0,.12758,2.06973H80.382l-.12758-.93217h-.04226a2.65979,2.65979,0,0,1-2.19534,1.08108,2.56511,2.56511,0,0,1-2.62034-2.68394c0-2.33042,2.25893-3.31828,4.602-3.33685v-.24291a1.41175,1.41175,0,0,0-1.55506-1.60286,3.881,3.881,0,0,0-1.939.50321l-.4258-1.36073a6.40545,6.40545,0,0,1,2.855-.65252c2.68433,0,3.36647,1.60365,3.36647,3.54146Zm-2.23721-2.47894c-.895.01856-2.49315.22356-2.49315,1.80825,0,1.02538.61815,1.39825,1.12926,1.39825a1.33018,1.33018,0,0,0,1.29951-1.04395,1.55148,1.55148,0,0,0,.06438-.46609V87.56759M84.40928,79.216h2.27947V92.11626H84.40967V79.216M94.419,88.88053l-.7564,3.23533H91.47718l3.152-12.39074h2.62666L100.176,92.11586H97.99091l-.7564-3.23533Zm2.5844-1.52584-.58853-2.849c-.16787-.80973-.35747-1.94887-.52534-2.8131h-.0632c-.14654.86424-.35707,2.04011-.52493,2.8131l-.6304,2.849h2.3324m4.58066,2.90473a3.87074,3.87074,0,0,0,1.7652.47794c.79826,0,1.28134-.3859,1.28134-1.03013,0-.55061-.29387-.91795-1.23947-1.452-1.51319-.79-2.08-1.6542-2.08-2.55516a2.83418,2.83418,0,0,1,3.13067-2.68394,4.47692,4.47692,0,0,1,1.97493.4408l-.46213,1.45237a2.86813,2.86813,0,0,0-1.40773-.3855c-.77734,0-1.15573.4408-1.15573.9369,0,.47794.2516.75443,1.23947,1.30623,1.36626.7165,2.08079,1.59891,2.08079,2.70171,0,1.8201-1.45039,2.75779-3.38385,2.75779a4.45065,4.45065,0,0,1-2.18507-.51466l.44159-1.45237m6.47186,0a3.86864,3.86864,0,0,0,1.76441.47794c.79905,0,1.28252-.3859,1.28252-1.03013,0-.55061-.29466-.91795-1.23987-1.452-1.51359-.79-2.08-1.6542-2.08-2.55516a2.83418,2.83418,0,0,1,3.13066-2.68394,4.477,4.477,0,0,1,1.97494.4408l-.46214,1.45237a2.86879,2.86879,0,0,0-1.40852-.3855c-.77655,0-1.15494.4408-1.15494.9369,0,.47794.2516.75443,1.24026,1.30623,1.36547.7165,2.08,1.59891,2.08,2.70171,0,1.8201-1.45039,2.75779-3.38345,2.75779a4.45056,4.45056,0,0,1-2.18586-.51466l.442-1.45237m13.57412-2.64721c0,3.62085-2.12266,4.65137-3.67772,4.65137-2.16414,0-3.656-1.58114-3.656-4.59686,0-3.23494,1.8276-4.65058,3.74053-4.65058C120.18008,83.01615,121.63008,84.67115,121.63008,87.61222Zm-5.08506.01857c0,1.50726.29427,3.12513,1.49147,3.12513,1.11426,0,1.36626-1.78376,1.36626-3.12513,0-1.30583-.252-3.0888-1.40813-3.0888-1.21892,0-1.4496,1.783-1.4496,3.0888m12.14506,4.3014a4.54258,4.54258,0,0,1-1.72372.29427c-2.43747,0-4.05494-1.58153-4.05494-4.5226a4.33226,4.33226,0,0,1,4.412-4.66954,3.9587,3.9587,0,0,1,1.47094.25793l-.33575,1.56217a3.29314,3.29314,0,0,0-1.09253-.20144c-1.45,0-2.2064,1.37811-2.2064,3.01375,0,1.83906.84054,2.94226,2.2064,2.94226a2.53811,2.53811,0,0,0,1.09253-.20263l.23147,1.52584m3.50828-11.10388a1.119,1.119,0,0,1-1.23947,1.12176,1.0935,1.0935,0,0,1-1.15573-1.12176,1.19908,1.19908,0,0,1,2.39521,0ZM129.8869,92.11586V83.16348h2.24826v8.95238H129.8869M140.43462,90.075a12.43368,12.43368,0,0,0,.1264,2.04089h-2.0168l-.1264-.91913H138.376a2.62128,2.62128,0,0,1-2.16453,1.06646,2.52959,2.52959,0,0,1-2.5844-2.6472c0-2.298,2.22733-3.27247,4.53919-3.291v-.239a1.39251,1.39251,0,0,0-1.53413-1.58034,3.83749,3.83749,0,0,0-1.91292.49571l-.41948-1.34177a6.32263,6.32263,0,0,1,2.81586-.64344c2.6468,0,3.31908,1.58074,3.31908,3.49287ZM138.229,87.63079c-.88241.01777-2.4584.2204-2.4584,1.78257,0,1.01117.60907,1.3789,1.11347,1.3789a1.31212,1.31212,0,0,0,1.28213-1.02934,1.56308,1.56308,0,0,0,.0628-.45976V87.63079m6.76574-6.69227v2.225h1.97573v1.43341h-1.97573v4.6328c0,1.1032.48386,1.37929,1.05067,1.37929a4.22446,4.22446,0,0,0,.6936-.05569l.04186,1.52623a5.94691,5.94691,0,0,1-1.47093.14693,2.72452,2.72452,0,0,1-1.80667-.5518,2.92347,2.92347,0,0,1-.75679-2.4264V84.59688h-1.21893V83.16347h1.21893v-1.5444l2.24826-.68056m5.63132-.11019a1.11859,1.11859,0,0,1-1.24026,1.12176,1.09308,1.09308,0,0,1-1.15495-1.12176,1.19908,1.19908,0,0,1,2.3952,0ZM148.315,92.11586V83.16348h2.24866v8.95238H148.315m11.24094-4.50364c0,3.62085-2.12187,4.65137-3.67733,4.65137-2.16374,0-3.656-1.58114-3.656-4.59686,0-3.23494,1.82761-4.65058,3.74052-4.65058C158.10673,83.01615,159.55594,84.67115,159.55594,87.61222Zm-5.08506.01857c0,1.50726.29506,3.12513,1.49227,3.12513,1.11386,0,1.36547-1.78376,1.36547-3.12513,0-1.30583-.25161-3.0888-1.40773-3.0888-1.21893,0-1.45,1.783-1.45,3.0888m6.76612-1.94887c0-1.01117-.04266-1.72807-.08414-2.51844h1.9544l.10427,1.0475h.04266a2.84233,2.84233,0,0,1,2.41614-1.19483c1.72373,0,2.62666,1.1577,2.62666,3.23494v5.86477h-2.24826v-5.6807c0-.882-.21052-1.76441-1.19721-1.76441a1.34263,1.34263,0,0,0-1.26119,1.10281,2.69056,2.69056,0,0,0-.10506.80893v5.53377H161.237V85.68192m17.98571.20224c0,1.89356-.98747,6.379-4.0972,6.379-1.42827,0-2.03813-1.23157-2.03813-2.96,0-2.00338,1.17706-6.15824,4.16079-6.15824,1.702,0,1.97454,1.58113,1.97454,2.73923Zm-5.25214,3.27246c0,1.23118.10467,2.42641,1.34375,2.42641,2.20679,0,3.02638-4.22834,3.02638-5.66214,0-1.12176-.1888-2.0958-1.23987-2.0958-2.01719,0-3.13026,3.4747-3.13026,5.33153m6.21868,2.95964,1.78653-8.16241h-1.19761l.1264-.6616h1.21815l.14694-.662a5.09548,5.09548,0,0,1,1.324-2.66616,2.8047,2.8047,0,0,1,1.87026-.7169,1.78949,1.78949,0,0,1,.79787.14733l-.20975.62487a2.46943,2.46943,0,0,0-.73546-.09164c-1.30267,0-2.03813,1.47054-2.28974,2.90474l-.08452.45976h1.91173l-.14654.66161h-1.91213l-1.80746,8.162h-.79866M31.08091,96.59581v12.8426H29.042V96.59581h2.03892m2.07684,6.17325c0-1.04751-.03831-1.79127-.07623-2.61008h1.77191l.09519,1.08622h.03832a2.491,2.491,0,0,1,2.19138-1.23868c1.56218,0,2.38177,1.20036,2.38177,3.35344v6.07885H37.52117v-5.88847c0-.91479-.19038-1.82879-1.08621-1.82879-.49532,0-.95271.38116-1.14309,1.1427a3.16429,3.16429,0,0,0-.09559.83856v5.7356H33.15775v-6.66935m8.117,4.745a3.18157,3.18157,0,0,0,1.60049.49532,1.02915,1.02915,0,0,0,1.16245-1.06686c0-.57155-.267-.95271-1.12414-1.5053-1.37179-.81921-1.88645-1.715-1.88645-2.64918a2.71824,2.71824,0,0,1,2.83916-2.7815,3.637,3.637,0,0,1,1.79087.457l-.41868,1.50569a2.35508,2.35508,0,0,0-1.277-.40012.95134.95134,0,0,0-1.0479.97167c0,.49531.2283.78128,1.12414,1.35283a3.25619,3.25619,0,0,1,1.88645,2.80085,2.75879,2.75879,0,0,1-3.06786,2.85852,3.63865,3.63865,0,0,1-1.98165-.53323l.40012-1.50569m12.27146-.76232c0,.991.03792,1.90542.07583,2.6867H51.86907l-.1335-.97167h-.03792a2.49641,2.49641,0,0,1-2.07684,1.12413c-1.69608,0-2.36281-1.27621-2.36281-3.69668V100.159h2.01956v5.48755c0,1.31491.24766,2.24827,1.08622,2.24827a1.14121,1.14121,0,0,0,1.02894-.9144,2.45206,2.45206,0,0,0,.11454-.80063V100.159h2.03853v6.59234m1.90542-3.98226c0-.85712-.05727-1.80983-.07623-2.61008h1.77191l.11454,1.41011h.05688a2.19421,2.19421,0,0,1,1.88646-1.56257,2.26149,2.26149,0,0,1,.41947.03792v2.03931a1.36111,1.36111,0,0,0-.41947-.03831,1.81947,1.81947,0,0,0-1.63841,1.60049,3.9053,3.9053,0,0,0-.07663.89583v4.89665H55.45121v-6.66935m10.80408,4.5542a14.71986,14.71986,0,0,0,.11454,2.11515H64.54025l-.11454-.95271h-.03792a2.28815,2.28815,0,0,1-1.9623,1.10517,2.48,2.48,0,0,1-2.34385-2.744c0-2.38177,2.01957-3.39136,4.11576-3.41071v-.24766c0-.95271-.38116-1.6388-1.39114-1.6388a3.14744,3.14744,0,0,0-1.734.51467l-.38077-1.39115a5.16132,5.16132,0,0,1,2.55319-.66674c2.40074,0,3.01059,1.6388,3.01059,3.62ZM64.25468,104.789c-.80064.019-2.22931.22909-2.22931,1.84854,0,1.0479.5522,1.42866,1.00959,1.42866a1.23145,1.23145,0,0,0,1.16245-1.06646,1.808,1.808,0,0,0,.05727-.47635V104.789m3.88667-2.02c0-1.04751-.03792-1.79127-.07584-2.61008h1.77191l.0948,1.08622h.03871a2.49041,2.49041,0,0,1,2.191-1.23868c1.56257,0,2.38177,1.20036,2.38177,3.35344v6.07885H72.50556v-5.88847c0-.91479-.19078-1.82879-1.08621-1.82879-.49532,0-.95271.38116-1.1431,1.1427a3.16723,3.16723,0,0,0-.09519.83856v5.7356H68.14175v-6.66935m13.14713,6.479a3.66575,3.66575,0,0,1-1.56217.30493c-2.21035,0-3.67772-1.63919-3.67772-4.6877,0-2.76254,1.54321-4.83978,4.00121-4.83978a3.19985,3.19985,0,0,1,1.33427.267l-.30493,1.61945a2.65751,2.65751,0,0,0-.991-.20935c-1.31491,0-2.001,1.42867-2.001,3.12435,0,1.90581.76233,3.0493,2.001,3.0493a2.05555,2.05555,0,0,0,.99141-.20974l.20935,1.58153m2.629-3.90642c.019,2.07684.99063,2.64838,2.07684,2.64838a4.04649,4.04649,0,0,0,1.65815-.34284l.28519,1.46737a5.94892,5.94892,0,0,1-2.3245.43844c-2.38177,0-3.67733-1.734-3.67733-4.61148,0-3.06747,1.48634-4.935,3.468-4.935,1.94333,0,2.934,1.77191,2.934,4.24926,0,.53324-.03792.83816-.05728,1.08582Zm2.53384-1.448c.01935-1.48633-.47556-2.36281-1.2-2.36281-.87687,0-1.27659,1.277-1.31491,2.36281h2.51489m12.46144,5.33509a4.52757,4.52757,0,0,1-1.88606.32389c-2.93436,0-4.61148-2.40073-4.61148-6.364,0-4.93536,2.61087-6.70727,4.89745-6.70727a3.61964,3.61964,0,0,1,1.67671.32389l-.38116,1.71543a2.66062,2.66062,0,0,0-1.21972-.24806c-1.39074,0-2.8198,1.2766-2.8198,4.78251,0,3.449,1.29555,4.6877,2.83916,4.6877a3.36722,3.36722,0,0,0,1.25725-.22909l.24765,1.715m7.31752-4.45861c0,3.75356-1.92437,4.82081-3.33487,4.82081-1.96229,0-3.31512-1.6384-3.31512-4.76354,0-3.35344,1.65736-4.82081,3.39175-4.82081C104.91622,100.00652,106.23112,101.72155,106.23112,104.77006Zm-4.61147.019c0,1.56217.26741,3.23968,1.35322,3.23968,1.00959,0,1.23829-1.84854,1.23829-3.23968,0-1.35283-.2287-3.201-1.2766-3.201-1.10517,0-1.31491,1.84854-1.31491,3.201m6.13573-2.02c0-1.04751-.03832-1.79127-.07663-2.61008h1.77191l.11455,1.10478h.03791a2.5243,2.5243,0,0,1,2.15347-1.25724,1.96575,1.96575,0,0,1,1.98165,1.33348h.03831a3.1132,3.1132,0,0,1,.93336-.99063,2.48169,2.48169,0,0,1,1.29556-.34285c1.46737,0,2.32489,1.14309,2.32489,3.42967v6.00222h-2.02v-5.62066c0-1.12492-.15247-2.11555-1.06686-2.11555-.51467,0-.93375.40052-1.12453,1.08622a4.11927,4.11927,0,0,0-.05688.74336v5.90663h-2.03892v-5.926c0-.83816-.11415-1.81022-1.02855-1.81022-.47675,0-.9531.38156-1.12453,1.14309a2.68371,2.68371,0,0,0-.0948.72441v5.86871h-2.02v-6.66935m12.44249,0c0-1.04751-.03831-1.79127-.07623-2.61008h1.77231l.11454,1.10478h.03792a2.523,2.523,0,0,1,2.15268-1.25724,1.96655,1.96655,0,0,1,1.982,1.33348h.03832a3.1088,3.1088,0,0,1,.93335-.99063,2.47971,2.47971,0,0,1,1.29556-.34285c1.467,0,2.32489,1.14309,2.32489,3.42967v6.00222h-2.02v-5.62066c0-1.12492-.15246-2.11555-1.06725-2.11555-.51467,0-.93375.40052-1.12413,1.08622a4.11512,4.11512,0,0,0-.05728.74336v5.90663H124.4657v-5.926c0-.83816-.11375-1.81022-1.02855-1.81022-.47675,0-.95271.38156-1.12453,1.14309a2.68374,2.68374,0,0,0-.09479.72441v5.86871h-2.02v-6.66935m14.53868-5.03016a1.08064,1.08064,0,0,1-1.12452,1.16244,1.064,1.064,0,0,1-1.04751-1.16244,1.08985,1.08985,0,1,1,2.172-.00039Zm-2.0962,11.69951V100.159h2.03853v9.27943h-2.03813m3.75277-1.92438a3.186,3.186,0,0,0,1.60128.49532,1.02871,1.02871,0,0,0,1.16166-1.06686c0-.57155-.26623-.95271-1.12374-1.5053-1.37219-.81921-1.88646-1.715-1.88646-2.64918a2.71824,2.71824,0,0,1,2.83916-2.7815,3.63825,3.63825,0,0,1,1.79087.457l-.41908,1.50569a2.35369,2.35369,0,0,0-1.2766-.40012.95113.95113,0,0,0-1.0479.97167c0,.49531.2283.78128,1.12373,1.35283a3.25639,3.25639,0,0,1,1.88725,2.80085,2.75911,2.75911,0,0,1-3.06827,2.85852,3.63861,3.63861,0,0,1-1.98164-.53323l.39972-1.50569m5.86913,0a3.18153,3.18153,0,0,0,1.60048.49532,1.02928,1.02928,0,0,0,1.16285-1.06686c0-.57155-.26741-.95271-1.12453-1.5053-1.37178-.81921-1.88685-1.715-1.88685-2.64918a2.71867,2.71867,0,0,1,2.84-2.7815,3.63663,3.63663,0,0,1,1.79047.457l-.41909,1.50569a2.35366,2.35366,0,0,0-1.27659-.40012.95156.95156,0,0,0-1.04791.97167c0,.49531.22831.78128,1.12452,1.35283a3.25647,3.25647,0,0,1,1.88606,2.80085,2.75879,2.75879,0,0,1-3.06786,2.85852,3.63767,3.63767,0,0,1-1.98165-.53323l.40012-1.50569m8.117-9.77513a1.08033,1.08033,0,0,1-1.12413,1.16244,1.06453,1.06453,0,0,1-1.04791-1.16244,1.09,1.09,0,1,1,2.17243-.00039Zm-2.0958,11.69951V100.159h2.03892v9.27943H148.2838m10.19422-4.66835c0,3.75356-1.92477,4.82081-3.33527,4.82081-1.96229,0-3.31473-1.6384-3.31473-4.76354,0-3.35344,1.657-4.82081,3.39136-4.82081C157.16272,100.00652,158.478,101.72155,158.478,104.77006Zm-4.61147.019c0,1.56217.26661,3.23968,1.35283,3.23968,1.01,0,1.23867-1.84854,1.23867-3.23968,0-1.35283-.2287-3.201-1.2766-3.201-1.10557,0-1.31491,1.84854-1.31491,3.201m6.13534-2.02c0-1.04751-.03831-1.79127-.07663-2.61008h1.7727l.0948,1.08622h.03831a2.49088,2.49088,0,0,1,2.191-1.23868c1.56256,0,2.38177,1.20036,2.38177,3.35344v6.07885h-2.03814v-5.88847c0-.91479-.19117-1.82879-1.08621-1.82879-.49531,0-.9527.38116-1.14348,1.1427a3.16471,3.16471,0,0,0-.09559.83856v5.7356h-2.03853v-6.66935m9.88891,2.57255c.01935,2.07684.99142,2.64838,2.07723,2.64838a4.04308,4.04308,0,0,0,1.65776-.34284l.28557,1.46737a5.95029,5.95029,0,0,1-2.3245.43844c-2.38177,0-3.67733-1.734-3.67733-4.61148,0-3.06747,1.48594-4.935,3.468-4.935,1.94334,0,2.934,1.77191,2.934,4.24926,0,.53324-.0383.83816-.05688,1.08582Zm2.53462-1.448c.01857-1.48633-.47675-2.36281-1.20076-2.36281-.87687,0-1.2762,1.277-1.31452,2.36281h2.51528m3.35344-1.12452c0-.85712-.05727-1.80983-.07663-2.61008h1.77231l.11455,1.41011h.05688a2.19376,2.19376,0,0,1,1.88646-1.56257,2.2617,2.2617,0,0,1,.41948.03792v2.03931a1.3599,1.3599,0,0,0-.41948-.03831,1.81947,1.81947,0,0,0-1.63841,1.60049,3.9053,3.9053,0,0,0-.07663.89583v4.89665h-2.03853v-6.66935m5.04951,4.745a3.179,3.179,0,0,0,1.60049.49532,1.02914,1.02914,0,0,0,1.16244-1.06686c0-.57155-.267-.95271-1.12452-1.5053-1.37179-.81921-1.88686-1.715-1.88686-2.64918a2.71868,2.71868,0,0,1,2.84-2.7815,3.64229,3.64229,0,0,1,1.79127.457l-.41948,1.50569a2.3561,2.3561,0,0,0-1.277-.40012.95155.95155,0,0,0-1.0479.97167c0,.49531.2283.78128,1.12452,1.35283a3.25575,3.25575,0,0,1,1.88606,2.80085,2.75879,2.75879,0,0,1-3.06786,2.85852,3.64107,3.64107,0,0,1-1.982-.53323l.40092-1.50569m5.106-35.089V15.8585H28.267V72.425H185.93435"/><path class="cls-4" d="M185.93435,72.425V15.8585H143.8639V72.425h42.07084"/><path class="cls-5" d="M74.30907,32.98869,68.26893,64.29417H66.48359L46.25631,33.59894,42.06194,56.23011a11.03141,11.03141,0,0,0-.23067,2.0808q0,3.59813,4.474,4.25914l-.19789,1.14862H33.86952l.19868-1.14862a6.13216,6.13216,0,0,0,3.45969-1.5681q1.2756-1.23591,2.03734-4.76907L44.97576,30.9075a11.56484,11.56484,0,0,0-3.25035-3.43362,10.72065,10.72065,0,0,0-4.66874-.95824l.19907-1.1498h12.971L68.25,52.57214l3.6639-19.85125a13.76517,13.76517,0,0,0,.22988-2.34425q0-3.85882-3.94513-3.861l.1975-1.1498h11.769l-.19947,1.1498q-4.53842.59544-5.65622,6.473M99.19759,56.488V50.60352H88.97809l-4.86623,7.44a4.77542,4.77542,0,0,0-.98984,2.37822q0,1.653,3.327,2.14833l-.19987,1.14862H74.43034l.19828-1.14862a7.27754,7.27754,0,0,0,4.175-1.80193A35.61787,35.61787,0,0,0,82.947,55.39353l20.80318-31.072h3.23257V56.95926q0,3.20118.84132,4.39028.839,1.18614,3.80887,1.22051l-.1975,1.14862H94.33808l.19868-1.14862A5.58013,5.58013,0,0,0,98.139,61.231q1.05758-1.10675,1.05856-4.743Zm0-8.60123V35.23616h-.13232L90.75158,47.88681h8.446M136.5519,32.85005l-5.33864,25.19621a4.741,4.741,0,0,0-.13193,1.08859q0,3.13836,4.45941,3.4352l-.26345,1.14862H117.254l.26227-1.14862a8.55317,8.55317,0,0,0,4.39028-2.03023,8.90358,8.90358,0,0,0,1.826-4.109L128.77936,32.852a11.28919,11.28919,0,0,0,.33061-2.44141q0-3.16858-4.28048-3.89457l.1655-1.15021H142.2812l-.13153,1.14981a7.63055,7.63055,0,0,0-3.90208,1.83116,10.45713,10.45713,0,0,0-1.69567,4.50325"/><path class="cls-3" d="M182.36564,25.636l-1.43776,10.60658h-.99536a9.56871,9.56871,0,0,0-2.72343-5.74706,7.40992,7.40992,0,0,0-5.2711-2.03734q-5.90231,0-10.28349,6.304a25.82275,25.82275,0,0,0-4.37962,15.11615q0,5.94258,2.93752,9.55553a9.39852,9.39852,0,0,0,7.6588,3.61492q6.25779,0,11.12086-6.42684l.88517.52613a22.733,22.733,0,0,1-6.53072,7.1307,16.13917,16.13917,0,0,1-9.04243,2.32252q-7.2668,0-11.40249-4.40687-4.13907-4.40805-4.13867-12.166,0-10.39922,6.65947-17.13454,6.65947-6.73471,15.273-6.73452a22.9311,22.9311,0,0,1,4.65374.44436,17.72266,17.72266,0,0,0,3.36528.44278,2.75742,2.75742,0,0,0,2.54372-1.4109h1.10754"/><path class="cls-6" d="M182.36564,25.636l-1.43776,10.60658h-.99536a9.56871,9.56871,0,0,0-2.72343-5.74706,7.40992,7.40992,0,0,0-5.2711-2.03734q-5.90231,0-10.28349,6.304a25.82275,25.82275,0,0,0-4.37962,15.11615q0,5.94258,2.93752,9.55553a9.39852,9.39852,0,0,0,7.6588,3.61492q6.25779,0,11.12086-6.42684l.88517.52613a22.733,22.733,0,0,1-6.53072,7.1307,16.13917,16.13917,0,0,1-9.04243,2.32252q-7.2668,0-11.40249-4.40687-4.13907-4.40805-4.13867-12.166,0-10.39922,6.65947-17.13454,6.65947-6.73471,15.273-6.73452a22.9311,22.9311,0,0,1,4.65374.44436,17.72266,17.72266,0,0,0,3.36528.44278,2.75742,2.75742,0,0,0,2.54372-1.4109Z"/><path class="cls-7" d="M180.52855,23.79892,179.09,34.4063h-.99536a9.56927,9.56927,0,0,0-2.72265-5.749,7.41048,7.41048,0,0,0-5.27188-2.03694q-5.90229,0-10.28269,6.304A25.82108,25.82108,0,0,0,155.437,48.04125q0,5.94258,2.93871,9.55473a9.39571,9.39571,0,0,0,7.65761,3.61492q6.25954,0,11.12283-6.42683l.88359.52652a22.72279,22.72279,0,0,1-6.53072,7.13149,16.147,16.147,0,0,1-9.04283,2.32252q-7.26678,0-11.40288-4.40805-4.13846-4.40628-4.13827-12.1656,0-10.39982,6.66027-17.13375,6.65889-6.7365,15.273-6.73571a22.96131,22.96131,0,0,1,4.65334.44436,17.70287,17.70287,0,0,0,3.3649.444,2.76,2.76,0,0,0,2.5445-1.41089h1.10754"/></svg>