<svg id="Layer_1" data-name="Layer 1" xmlns="http://www.w3.org/2000/svg" viewBox="0 0 215 127"><defs><style>.cls-1{fill:transparent;}.cls-2{fill:#0191e9;}.cls-3{fill:#0091e9;}</style></defs><title>kubernetes.io-logos</title><rect class="cls-1" x="-4.04384" y="-3.09231" width="223.25536" height="134.51136"/><path class="cls-2" d="M45.52289,58.40931v.67992q0,13.93346-.00007,27.86692c0,1.38065-.53827,1.91475-1.93728,1.91529q-5.28807.002-10.57613-.00008c-1.38822-.00063-1.92493-.54092-1.925-1.93233q-.00046-24.54695-.00005-49.09388c0-1.353.57919-1.92554,1.94686-1.92565,3.80461-.00032,7.60928.01,11.41379-.00895a2.04535,2.04535,0,0,1,1.71751.81129Q54.03893,46.45059,61.924,56.17238q4.04849,4.99347,8.103,9.98208c.07192.08853.12491.2127.32189.21055V65.8111q0-13.98573.00015-27.97148c0-1.36549.55959-1.92,1.93681-1.92011q5.28806-.00056,10.57612,0c1.34222.00018,1.90831.58125,1.90846,1.96856q.00156,14.66543.00056,29.33085,0,9.85536-.00062,19.71075A2.263,2.263,0,0,1,84.52869,88.14a1.37319,1.37319,0,0,1-1.04378.69444,5.03028,5.03028,0,0,1-.6784.03606c-3.76971.002-7.53949-.01164-11.30906.01172a2.24873,2.24873,0,0,1-1.91838-.92957Q62.60826,79.30668,55.596,70.69411q-4.824-5.946-9.65083-11.88973A1.04432,1.04432,0,0,0,45.52289,58.40931Z"/><path class="cls-3" d="M123.01876,56.06019c-.2594-1.23634-.48657-2.48055-.78675-3.70693a1.60083,1.60083,0,0,1,1.699-2.14585c3.24478.05866,6.49131.01913,9.73714.02113A1.51454,1.51454,0,0,1,135.39865,51.95q.00269,17.59165,0,35.18331a1.50965,1.50965,0,0,1-1.72062,1.73444q-4.89491.01271-9.78984.00037a1.51127,1.51127,0,0,1-1.62212-2.05353c.25809-1.184.504-2.37063.75558-3.55756-.358.33974-.71292.66321-1.053,1.00145a19.61428,19.61428,0,0,1-5.08847,4.04243,16.514,16.514,0,0,1-8.88021,1.51593,18.6292,18.6292,0,0,1-7.80715-2.40237A19.19129,19.19129,0,0,1,91.61794,77.127a22.109,22.109,0,0,1-1.24153-9.90284A20.27607,20.27607,0,0,1,95.94859,54.708a18.01769,18.01769,0,0,1,10.63178-5.53131,17.6862,17.6862,0,0,1,7.30216.3216,15.14214,15.14214,0,0,1,7.36191,4.72185c.56309.63191,1.13169,1.25893,1.69777,1.8882Zm-9.77385,22.141a8.79066,8.79066,0,1,0,.14059-17.58031,8.79085,8.79085,0,1,0-.14059,17.58031Z"/><path class="cls-3" d="M162.37991,77.63555c.49774-1.75171.99389-3.48281,1.48143-5.21633q2.78715-9.91015,5.57042-19.82139a3.04284,3.04284,0,0,1,3.14933-2.36811q5.00009-.00879,10.00019-.001c1.19946.00084,1.72.6945,1.36948,1.8371q-3.41624,11.13649-6.839,22.271-1.962,6.38839-3.92252,12.77725a2.069,2.069,0,0,1-2.39972,1.75589q-8.42949.00264-16.859.0004a2.08773,2.08773,0,0,1-2.45568-1.82338q-5.3462-17.42612-10.69272-34.85212c-.04576-.14911-.10449-.29524-.13769-.447a1.19831,1.19831,0,0,1,1.16194-1.50906c3.56019-.01552,7.12059-.02529,10.68066-.00068a3.01084,3.01084,0,0,1,2.7849,2.42663q1.102,3.90333,2.20008,7.80776,2.35458,8.35854,4.70637,16.71786A.84887.84887,0,0,0,162.37991,77.63555Z"/></svg>