<svg id="Layer_1" data-name="Layer 1" xmlns="http://www.w3.org/2000/svg" viewBox="0 0 215 127"><defs><style>.cls-1{fill:transparent;}.cls-2{fill:#0b5593;}.cls-3{fill:#ea4a27;}</style></defs><title>kubernetes.io-logos</title><rect class="cls-1" x="-3.97667" y="-3.55577" width="223.25536" height="134.51136"/><path class="cls-2" d="M11.822,73.482a.8178.8178,0,0,1,1.38415.25617c.06885.11139.15664.21108.23575.31612,1.09989,1.46032,1.0865,1.4429,2.52152.34.42932-.33.5455-.57414.163-1.01159a15.88664,15.88664,0,0,1-1.071-1.41431.62725.62725,0,0,1,.10919-.9575.64627.64627,0,0,1,.94773.20243c.3423.44153.69764.87663.99762,1.34625.32116.50278.64663.60051,1.07576.14786.6588-.69493,1.07141-.36034,1.52866.28615a3.79778,3.79778,0,0,1,.18957,4.82854.68277.68277,0,0,0,.04562.94045,6.63589,6.63589,0,0,1,.99641,6.61,12.41518,12.41518,0,0,0-.51112,1.89932,1.64569,1.64569,0,0,0,1.73871,2.06834,3.95926,3.95926,0,0,0,.492-.02518c1.53281-.157,1.82513-.50215,1.8231-2.00188Q24.47594,77.895,24.485,68.47685c0-6.14729.02053-12.29468-.01081-18.4418a6.0255,6.0255,0,0,1,2.62479-5.3223c.9668-.6816,1.87443-1.4477,2.848-2.11883a1.37952,1.37952,0,0,0,.65935-1.2992c-.02766-3.12271-.017-6.24579-.01129-9.36874a2.75288,2.75288,0,0,1,2.98094-3.0279c.95345-.015,1.90771-.01961,2.861.00128a2.73187,2.73187,0,0,1,2.91512,2.89873c.0201.95291-.008,1.90682.01194,2.85973.00568.27072-.1592.64874.1799.78806.2542.10445.45993-.19118.665-.33661q4.62537-3.28041,9.23921-6.577a8.23223,8.23223,0,0,0,1.64419-1.20956h1.184c2.6786,3.10283,5.36883,6.19571,8.03248,9.31129,2.60585,3.048,5.17767,6.125,7.78012,9.176a3.93914,3.93914,0,0,1,.9994,2.60975c.01391,5.16009.00286,10.32025.01561,15.48035a1.02649,1.02649,0,0,1-.49755.97924c-.64918.421-1.26784.88894-2.0784,1.46433,0-.56536-.00052-.91151.00007-1.25766.0087-5.09413-.008-10.18852.04407-15.28222a4.70681,4.70681,0,0,0-1.208-3.29756q-6.59334-7.7899-13.06631-15.68133c-.47628-.577-.77322-.64719-1.398-.1833-4.24854,3.15466-8.53,6.265-12.80126,9.38909-.33973.24848-.6825.4928-1.01847.73516-.35356-.26444-.20936-.58417-.21072-.84968-.013-2.5307-.054-5.06275.01464-7.59165.02794-1.02968-.33673-1.36335-1.30831-1.2523a7.14411,7.14411,0,0,1-1.47766.00127c-.80114-.07623-1.00507.28324-.99876,1.03547.03,3.58226.00048,7.165.02617,10.74733a1.37646,1.37646,0,0,1-.65707,1.30053c-1.27614.86968-2.48084,1.84778-3.78178,2.67633a3.43253,3.43253,0,0,0-1.65116,3.14783q-.00111,4.97937-.00045,9.95873,0,13.114.00062,26.22793c.00053,2.76782,1.35457,4.13012,4.09941,4.13254,10.38972.00915,20.77971-.018,31.169.05589,2.1477.01529,3.54137-.77448,4.2212-2.77873.24125-.71122.53295-.69675,1.11959-.34988,1.49272.88264,1.496.84843.83078,2.41019a5.36051,5.36051,0,0,1-5.42626,3.46707q-15.09174-.02984-30.18359-.008c-.85487,0-1.70986.00833-2.56459-.00315a5.48693,5.48693,0,0,1-3.8558-1.5033.9423.9423,0,0,0-1.28178-.15451,6.37246,6.37246,0,0,1-3.34959.6442,4.35119,4.35119,0,0,1-4.14216-4.97757,16.029,16.029,0,0,1,.74145-2.8562,3.83848,3.83848,0,0,0-.16793-3.06026c-.4412-.80846-.83528-1.47051-2.08042-1.25405-1.71248.29769-2.889-.783-3.80455-2.14536-.33311-.49567-.03221-.74767.325-.93718.78138-.41454.712-.8744.15691-1.42427-.3648-.36135-.51987-.91018-1.02028-1.15392Z"/><path class="cls-3" d="M36.76065,50.64483c1.21623,0,2.43393.03577,3.6481-.01419a1.3717,1.3717,0,0,1,1.41221.77211q9.08991,15.29009,18.2237,30.5541c.6231,1.04356,1.23559,2.09388,1.8815,3.12321.25236.40216.19192.61486-.22464.8427a8.89123,8.89123,0,0,1-8.15476.25411,2.46242,2.46242,0,0,1-1.10088-1.08972Q42.46873,68.31826,32.47714,51.558c-.53654-.90086-.5277-.9093.53623-.91231C34.26245,50.64213,35.51156,50.64484,36.76065,50.64483Z"/><path class="cls-3" d="M78.33789,78.24985c-1.90656,0-3.81361-.02417-5.7194.014-.61212.01226-.92737-.16547-.94246-.789-.00237-.09808-.02307-.19562-.03329-.29362-.33833-3.24559-.24612-3.3459,2.94791-3.35254,1.24861-.0026,2.49751-.05449,3.74558-.03612.64677.00951.70795-.26859.54721-.78707A3.53347,3.53347,0,0,0,75.896,70.34612a4.0193,4.0193,0,0,0-4.17315,1.6186c-1.607,2.23791-1.49041,6.91226.20393,9.07162a4.34125,4.34125,0,0,0,6.82785-.12092,1.09632,1.09632,0,0,1,1.1542-.49175c1.44.12618,2.88083.26464,4.32433.32012.741.02847.71661.30462.47421.839A9.08842,9.08842,0,0,1,77.566,87.14917c-3.7361.60935-7.2372.12492-10.041-2.71037-3.2428-3.27925-3.82219-9.53527-1.34033-13.80055a10.3865,10.3865,0,0,1,11.77787-4.63037c4.02317,1.07018,6.02112,3.96531,6.86066,7.84513a16.905,16.905,0,0,1,.2282,3.63c-.00079.60168-.19678.789-.79686.77912C82.28283,78.2295,80.31019,78.24984,78.33789,78.24985Z"/><path class="cls-3" d="M202.6379,80.81586a9.17568,9.17568,0,0,1-5.91747,5.96408,12.3009,12.3009,0,0,1-6.13415.41136c-4.83457-.87482-7.88931-4.395-8.24383-9.44658a13.142,13.142,0,0,1,.5498-4.96437c2.66356-8.353,12.889-8.81387,16.9427-4.32636,2.41161,2.66968,3.04276,5.88,2.83268,9.34729-.02573.42468-.28314.44893-.60082.4488-4.0106-.00166-8.02121-.00708-12.03176.00739-.46776.0017-.60692-.18539-.67468-.61893a11.6,11.6,0,0,1-.04395-2.94493c.0624-.63842.29229-.87933.97682-.86087,1.90529.05136,3.81324-.00371,5.71933.02984.62463.011.70486-.18165.546-.73761a3.53443,3.53443,0,0,0-2.8957-2.7584,4.02291,4.02291,0,0,0-4.27613,1.58252c-1.6228,2.246-1.52239,6.876.173,9.06963a4.36351,4.36351,0,0,0,6.83988-.07729c.252-.34325.45756-.5763.93619-.53325C199.06688,80.56386,200.80167,80.6782,202.6379,80.81586Z"/><path class="cls-3" d="M61.71663,82.01122c-2.548-4.2929-5.00508-8.5578-7.599-12.73786A8.43868,8.43868,0,0,1,52.784,64.38321c.10421-4.26707.04972-8.53852.01749-12.80787-.00545-.72127.16478-.96388.92424-.94876,2.46321.04906,4.928.02654,7.39214.01142.495-.003.78554.05182.78432.67573q-.03,15.27168-.02556,30.54345C61.87659,81.87653,61.83832,81.89586,61.71663,82.01122Z"/><path class="cls-3" d="M32.41724,54.3944c.85931,1.44076,1.60995,2.698,2.35935,3.956Q37.877,63.555,40.98114,68.7574a2.409,2.409,0,0,1,.38488,1.29171q-.01863,7.43919.00574,14.87839c.00328.66855-.16169.916-.87213.90455-2.46363-.03976-4.92838-.02637-7.3925-.00689-.54432.0043-.82674-.0742-.82531-.73565q.03279-15.12468.02289-30.24945A3.43086,3.43086,0,0,1,32.41724,54.3944Z"/><path class="cls-3" d="M150.29167,48.97121c0,4.39817,0,8.53733,0,12.6765,0,8.05028-.01093,16.1006.017,24.15079.00277.79958-.1817,1.10307-1.02768,1.05633a34.75867,34.75867,0,0,0-3.84383.00029c-.83352.04643-1.03179-.23118-1.02954-1.03961.02725-9.75884.11722-19.5195-.05142-29.27551-.04289-2.48073.519-4.15647,2.74558-5.30694A28.01308,28.01308,0,0,0,150.29167,48.97121Z"/><path class="cls-3" d="M141.45293,78.84648c0,2.74593-.01832,4.98083.01217,7.21505.00819.59978-.16922.80393-.77932.78717-1.41258-.03881-2.82868-.05435-4.23985.00476-.74854.03135-.93812-.20469-.93193-.94013.03565-4.239.01457-8.47835.02086-12.71759.0029-1.96519-.80309-2.79785-2.79623-2.85748-2.019-.06039-2.89122.45341-3.666,2.23253a.46232.46232,0,0,1-.50939.32469c-1.44649.0006-2.89334-.01776-4.33933.009-.65033.012-.56774-.38547-.51457-.781a6.26924,6.26924,0,0,1,3.29479-5.09456,12.12506,12.12506,0,0,1,11.28334.05085,5.56054,5.56054,0,0,1,3.00179,4.49863C141.64,74.16351,141.354,76.7654,141.45293,78.84648Z"/><path class="cls-3" d="M113.36883,71.49639c-3.10183-1.76774-5.56972-.711-6.44735,2.60246a9.99855,9.99855,0,0,0-.13225,4.39727c.50779,2.80235,2.6614,5.23825,6.57665,3.093,0,1.49608-.00769,2.92582.004,4.3554.00438.53584-.4195.61249-.76594.76712a8.21607,8.21607,0,0,1-10.29386-3.38485,13.89814,13.89814,0,0,1,.392-14.06575,8.30458,8.30458,0,0,1,9.88407-2.98057,1.04887,1.04887,0,0,1,.79792,1.15145C113.333,68.73763,113.36883,70.04672,113.36883,71.49639Z"/><path class="cls-3" d="M120.16444,73.45414c0,4.13993-.02122,8.28007.01872,12.41961.0076.78785-.21625,1.01519-.991.97976-1.34482-.06151-2.69519-.04255-4.04182-.00565-.61439.01684-.86917-.12869-.8675-.81012q.03093-12.61687.0009-25.23383c-.00138-.62351.21308-.77834.79725-.76374,1.4125.0353,2.828.05118,4.23918-.005.72287-.02878.86256.23828.8582.90071C120.15085,65.10847,120.16443,69.28135,120.16444,73.45414Z"/><path class="cls-3" d="M180.4666,68.95252c.391,1.30745-.402,2.37241-1.40552,3.4728-4.11495,4.512-8.16281,9.08508-12.23609,13.635a4.76335,4.76335,0,0,1-3.632.7531c-.27784-.127-.24687-.35684-.24752-.58018-.00341-1.149.01119-2.29822-.008-3.44689a1.30388,1.30388,0,0,1,.48342-.92518q6.87109-7.531,13.74211-15.06208a4.45348,4.45348,0,0,1,3.12376-.51406c.223.15794.1758.4074.17795.63135C180.47034,67.50728,180.4666,68.09823,180.4666,68.95252Z"/><path class="cls-3" d="M93.942,76.59335c0,3.11787-.0165,6.2359.01332,9.35348.00631.65924-.14115.93107-.86121.90533-1.47558-.05274-2.95461-.03193-4.43166-.00739-.50826.00845-.6841-.15758-.683-.67535q.02025-9.649.00271-19.298c-.00063-.44581.11389-.65608.60567-.64935,1.57566.02157,3.15235.03234,4.72749-.00354.67118-.01528.63019.37637.62946.82425Q93.9369,71.81807,93.942,76.59335Z"/><path class="cls-3" d="M153.94111,76.48991c0-3.0895.02031-6.17924-.01494-9.26835-.00835-.7328.12392-1.05809.95752-1.01251,1.37684.07528,2.76118.03973,4.14155.011.55412-.01152.82291.082.82047.74128q-.03556,9.56418-.00106,19.12856c.00215.63613-.232.77045-.80595.75716-1.41307-.03273-2.82882-.048-4.24066.005-.71078.02666-.878-.22313-.87117-.89656C153.95892,82.80058,153.94112,79.64515,153.94111,76.48991Z"/><path class="cls-3" d="M134.69533,84.09767c0,2.3475-.12789,2.52832-2.42593,3.08569a8.78434,8.78434,0,0,1-6.1567-.4198,6.13342,6.13342,0,0,1-3.566-6.16564,5.50152,5.50152,0,0,1,3.99421-5.3895c2.48172-.90947,5.12365-1.10662,7.69061-1.63849.3755-.0778.46365.10857.46291.42406-.00237,1.0175-.01552,2.03529.00482,3.05238.01021.511-.33026.5613-.696.64072-1.05747.22964-2.11638.45531-3.16572.7184a5.59186,5.59186,0,0,0-1.18791.46245,1.949,1.949,0,0,0-1.16068,2.08884,2.02952,2.02952,0,0,0,1.61817,1.77749,4.97417,4.97417,0,0,0,3.8058-.518c.70725-.39009.83863-.18749.78867.50332C134.66852,83.17669,134.69532,83.63815,134.69533,84.09767Z"/><path class="cls-3" d="M167.58927,86.62105c1.3428-1.502,2.71025-3.03112,4.07686-4.56094a.86841.86841,0,0,1,.72492-.22005c2.65866.00129,5.31741.01135,7.97591-.00854.53471-.004.76646.13177.748.71434-.03838,1.21277-.02443,2.42779-.00536,3.64148.007.44308-.1089.65786-.60219.65543-4.26629-.02092-8.53266-.02437-12.799-.03656C167.69108,86.80616,167.67387,86.75489,167.58927,86.62105Z"/><path class="cls-3" d="M176.27305,66.41794c-1.40947,1.51442-2.80083,3.01136-4.19525,4.50542-.20632.221-.488.15527-.74355.15575-2.16393.00406-4.32795-.0089-6.49171.01065-.50755.00458-.795-.0772-.77632-.68318.03634-1.17875.02068-2.35953.00565-3.53921-.0056-.44026.11891-.6481.61115-.64557,3.77017.01938,7.54045.01642,11.31069.025C176.04459,66.24691,176.09532,66.30652,176.27305,66.41794Z"/><path class="cls-3" d="M94.94411,72.59106c0-1.7087.01491-3.17776-.0083-4.64622a1.24842,1.24842,0,0,1,.5945-1.06132,5.88525,5.88525,0,0,1,4.00494-1.03516c.51859.02072.54211.34168.53924.73641-.00978,1.34435-.0211,2.68915.00518,4.03306.01021.52168-.13468.65046-.67618.6A5.204,5.204,0,0,0,94.94411,72.59106Z"/></svg>