<svg id="Layer_1" data-name="Layer 1" xmlns="http://www.w3.org/2000/svg" viewBox="0 0 215 127"><defs><style>.cls-1{fill:transparent;}.cls-2{fill:#be3038;}</style></defs><title>kubernetes.io-logos</title><rect class="cls-1" x="-4.60453" y="-5.55447" width="223.25536" height="134.51136"/><path id="red" class="cls-2" d="M46.87693,47.72179a3.02022,3.02022,0,0,0,.37341-.42008v-.51344a6.1816,6.1816,0,0,1,.09335-1.40027,9.9391,9.9391,0,0,0,.09335-1.867,3.48615,3.48615,0,0,0-.93352-1.96038c-1.3536-1.1669-2.47382-1.587-3.36066-1.30692a4.01592,4.01592,0,0,1-1.96038-.04668,4.55825,4.55825,0,0,0-3.03393.32673,3.0861,3.0861,0,0,1-1.02687.28005,1.32812,1.32812,0,0,0-.60679,0c-.09335.04668-.14.04668-.1867.09335a8.01461,8.01461,0,0,0-1.727.88685c-.04667.04667-.04667.14-.09335.23338a3.64593,3.64593,0,0,0-.56011,1.727c.09335.79349.1867,1.3536.23338,1.63365a3.10835,3.10835,0,0,0,.3734,1.82036v.09335l.09336.04668c.42008.37341.84016.65346,1.12022.88684l.09335.09335a1.856,1.856,0,0,1,.84016-.09335,2.267,2.267,0,0,0,1.12022,0,2.1395,2.1395,0,0,1,.93352-.04667,1.22109,1.22109,0,0,0,.93352-.18671,3.42953,3.42953,0,0,1,1.30692-.09335h.04668a2.93666,2.93666,0,0,0,.51343-.37341,1.58442,1.58442,0,0,1,.28-.28005.59162.59162,0,0,1,.18671-.42008,4.25726,4.25726,0,0,0,.28-.74682c0-.23338-.04667-.51343-.09335-.93351a1.75092,1.75092,0,0,1,0-.70014,4.1829,4.1829,0,0,0,.32673-1.12022,1.51327,1.51327,0,0,1,.65346-1.30693c.46676-.37341.88685-.56011,1.1669-.46676.28006.04668.46676.28006.65346.56011A3.41022,3.41022,0,0,1,45.29,43.521a4.03657,4.03657,0,0,1-.28006,1.07354,2.91786,2.91786,0,0,1-.60678.93352A2.09055,2.09055,0,0,0,43.983,46.9283c-.04667.14-.04667.28005-.09335.42008a1.48024,1.48024,0,0,1,.23338.28005c.04668,0,.04668.04668.09335.09335a3.54869,3.54869,0,0,1,1.1669.09335,11.38709,11.38709,0,0,0,1.21357.04668c.04667,0,.09335,0,.09335.04667.04667-.09335.09335-.09335.09335-.09335s0-.04666.09336-.09334Zm-7.65484,5.181a.42076.42076,0,0,1,.04668-.23338,1.3307,1.3307,0,0,0-.09335-.74681v-.88685a.59516.59516,0,0,0-.28006-.1867,3.25934,3.25934,0,0,0-.93351-.37341h-.04668a3.31629,3.31629,0,0,1-.98019.37341,5.19706,5.19706,0,0,1-.79349.09335c-.14.04668-.18671.09335-.23338.09335a1.52181,1.52181,0,0,0-.56011.51343,1.10222,1.10222,0,0,0-.28006.42009,5.51448,5.51448,0,0,1-.1867,1.16689,2.5942,2.5942,0,0,0-.1867,1.07355,2.2403,2.2403,0,0,1,1.12022-.65346,2.7251,2.7251,0,0,1,.93351-.18671,1.29529,1.29529,0,0,0,.84017,0,1.02873,1.02873,0,0,1,.74681,0h.09335a2.09384,2.09384,0,0,0,.79349-.46675ZM50.65767,63.45155a3.28957,3.28957,0,0,1,.04668,1.49362,2.80326,2.80326,0,0,0-.23338.65346,1.51966,1.51966,0,0,1-.28006.56011,1.84,1.84,0,0,1-1.26024.46676,1.35888,1.35888,0,0,1-1.07355-.60679,1.99565,1.99565,0,0,1-.42008-1.26024,1.27594,1.27594,0,0,0-.09335-.74682.69238.69238,0,0,1,0-.60679,1.29526,1.29526,0,0,0,0-.84016A3.792,3.792,0,0,1,47.157,60.931a10.56587,10.56587,0,0,0-.09335-3.22063,2.2617,2.2617,0,0,1,0-.79349,5.11939,5.11939,0,0,0,0-1.21357,3.63682,3.63682,0,0,1,.09335-1.49363,4.16354,4.16354,0,0,0,.09336-1.5403,3.64224,3.64224,0,0,1-.14-1.12022,2.72021,2.72021,0,0,0-.60679-.51344,6.15278,6.15278,0,0,0-.65346-.60678c-.04668-.04668-.09335-.04668-.18671-.04668a4.23964,4.23964,0,0,0-2.28711-.09335,2.8799,2.8799,0,0,1-.84017.09335,1.09777,1.09777,0,0,0-.56011.18671,1.0163,1.0163,0,0,0-.37341.23337.14457.14457,0,0,1,.04668.09336,5.95225,5.95225,0,0,0,.04667.88684,1.184,1.184,0,0,1-.09335.56011.17147.17147,0,0,0-.04667.14,2.66339,2.66339,0,0,0,.65346.60679c0,.04668.04667.04668.09335.09335a3.20552,3.20552,0,0,1,1.12022.09335,5.67074,5.67074,0,0,0,1.26025,0,2.074,2.074,0,0,1,1.12022.42009,1.29035,1.29035,0,0,1,.60679,1.16689,1.05192,1.05192,0,0,1-.74681,1.02687,2.97758,2.97758,0,0,1-2.00707-.04668A4.05023,4.05023,0,0,0,41.976,55.75a2.31675,2.31675,0,0,1-1.26024.04668H40.669a10.37668,10.37668,0,0,0-2.05374.88684l.04668.04668a2.70821,2.70821,0,0,1-.23338,1.49362,3.813,3.813,0,0,0-.04668.65346v.74682a1.77736,1.77736,0,0,0,.14.74681.93826.93826,0,0,0,.1867.37341c.32674.1867.37341.46676.23338.84017a1.23518,1.23518,0,0,1-.70013.74681.95452.95452,0,0,1-.51344,0c-.14-.04667-.32673-.09335-.56011-.1867A1.7979,1.7979,0,0,1,36.04813,60.791a7.89782,7.89782,0,0,1-.1867-2.42715,5.19805,5.19805,0,0,0,.09335-.79348v-.28006a.87951.87951,0,0,0-.18671-.42008,1.97581,1.97581,0,0,0-.23337-.32673,2.46564,2.46564,0,0,1-.60679-.04668c-.23338-.14-.42008-.23338-.56011-.32673a.3529.3529,0,0,0,.04667.18671,6.01671,6.01671,0,0,1-.14,1.16689,2.301,2.301,0,0,0-.23338,1.02687,3.15208,3.15208,0,0,1-.09335.65346,1.28106,1.28106,0,0,0-.09336.60679,1.87293,1.87293,0,0,1-.14.70014,1.83065,1.83065,0,0,0-.18671.84016,2.8631,2.8631,0,0,1-.14.74682,11.08241,11.08241,0,0,0-.70014,2.14709,2.602,2.602,0,0,1-.60679,1.02687,2.4084,2.4084,0,0,1-1.21357.65346,2.17689,2.17689,0,0,1-1.02687-.23338,1.51123,1.51123,0,0,1-.60678-.84017,3.33448,3.33448,0,0,1-.09336-.93352,8.81463,8.81463,0,0,1,.28006-.84016,4.04864,4.04864,0,0,0,.60678-.88684,1.96333,1.96333,0,0,0,.60679-1.21358,1.05245,1.05245,0,0,1,.23338-.5601,8.83791,8.83791,0,0,0,.46676-1.49363,2.29884,2.29884,0,0,0,.23338-.84017,7.5469,7.5469,0,0,1,.56011-2.84722,2.4785,2.4785,0,0,0,.09335-1.63366c.04667-.42008.09335-.70013.09335-.88684a2.32729,2.32729,0,0,0,.14-1.12022,6.86942,6.86942,0,0,1-.04668-1.68033,21.02226,21.02226,0,0,0-.09335-2.7072A3.64958,3.64958,0,0,0,31.754,45.388a4.38273,4.38273,0,0,1-.70014-2.42714,5.00874,5.00874,0,0,1,.46676-2.75388,3.44,3.44,0,0,1,1.1669-1.727,1.3294,1.3294,0,0,1,1.49363.04667c-.04668-.04667-.04668-.04667,0-.04667a.92082.92082,0,0,1,.51343,0,3.81294,3.81294,0,0,0,.65346-.04668,3.30653,3.30653,0,0,1,1.63366-.14,2.18694,2.18694,0,0,0,.93351.04667,2.117,2.117,0,0,1,1.12022-.28005.8793.8793,0,0,0,.56011-.09335,2.28887,2.28887,0,0,1,1.54031-.14,2.84876,2.84876,0,0,0,1.40027.04667,5.61328,5.61328,0,0,1,1.96039-.04667,5.66436,5.66436,0,0,0,.84016.04667,1.01183,1.01183,0,0,1,.65347.23338,1.44005,1.44005,0,0,0,.84016.23338,3.1813,3.1813,0,0,1,.98019.09335,1.38743,1.38743,0,0,1,.60679.51343,1.311,1.311,0,0,0,.74681.65347,2.66966,2.66966,0,0,1,1.26025,1.63365,3.08244,3.08244,0,0,1,0,1.30693,1.02429,1.02429,0,0,1-.37341.70013.92158.92158,0,0,0-.28005.65347,1.18585,1.18585,0,0,1-.14.56011,1.106,1.106,0,0,0-.09335.74681,1.15092,1.15092,0,0,1,0,.79349,9.67753,9.67753,0,0,0-.09335,2.61384,3.41009,3.41009,0,0,1-.28006,1.49363,1.63819,1.63819,0,0,0,.04668.93351,2.52434,2.52434,0,0,1-.04668,1.1669,2.27549,2.27549,0,0,0,0,1.12022,7.02806,7.02806,0,0,1,.09335,2.38047,5.20426,5.20426,0,0,0,.14,2.5205,13.6216,13.6216,0,0,1,.74682,3.454,11.85095,11.85095,0,0,1,.51343,1.77369Zm-8.775-3.50069a4.08562,4.08562,0,0,1,.93351-.09335,2.84355,2.84355,0,0,0,.88685-.1867,1.71632,1.71632,0,0,1,1.49362.1867,1.49339,1.49339,0,0,1,.74681,1.12022A1.14139,1.14139,0,0,1,45.43,62.14462a3.1311,3.1311,0,0,1-1.96039.28006,2.05177,2.05177,0,0,0-.42008-.04668,1.58775,1.58775,0,0,1-.46676.04668,1.67814,1.67814,0,0,0-.51343.09335,2.8098,2.8098,0,0,1-1.63366-.04668,1.238,1.238,0,0,1-.56011-.93351,2.42392,2.42392,0,0,1,.28006-.88684,1.51983,1.51983,0,0,1,.98019-.56011,2.655,2.655,0,0,0,.74682-.14Zm-4.94764-16.85a.62748.62748,0,0,0,.28-.32673c.04668-.1867.28006-.28.79349-.28a1.17512,1.17512,0,0,1,.93352.42008,2.87541,2.87541,0,0,1,.46676,1.12022,1.39765,1.39765,0,0,0,.1867.46676.6477.6477,0,0,1,0,.42008c.09335.32673.09335.60679.14.74682a1.72108,1.72108,0,0,1-.09336.79348,1.28326,1.28326,0,0,1-.60678.74682c-.23338.09335-.51343-.04668-.88684-.42009a1.86772,1.86772,0,0,1-.88684-1.07354,7.50592,7.50592,0,0,1-.42009-1.1669c0-.14-.04667-.42008-.09335-.79349,0-.42008.04668-.65346.18671-.65346ZM25.03264,48.42193c-.04668,0-.04668.04667,0,0a1.70291,1.70291,0,0,1-.93352.32673.7457.7457,0,0,0-.65346.56011,2.27483,2.27483,0,0,1-.9802,1.12022.94.94,0,0,0-.51343.74681,1.58536,1.58536,0,0,1-.42008.98019,1.11538,1.11538,0,0,0-.46676.79349,2.8621,2.8621,0,0,0,.70014,1.26025,1.90186,1.90186,0,0,0,.84016.23338,2.46638,2.46638,0,0,1,.79349.1867.60872.60872,0,0,0,.60679.09335,1.14753,1.14753,0,0,1,.74681-.09335,1.93292,1.93292,0,0,0,1.07355-.1867,3.3671,3.3671,0,0,0,1.12022-.88685v-.09335a3.01672,3.01672,0,0,1,.14-1.02686,2.30424,2.30424,0,0,0,.14-1.1669,1.57172,1.57172,0,0,0-.32673-.93352c-.04668-.09335-.09335-.23338-.1867-.42008a1.32785,1.32785,0,0,0-.42009-.65346.97657.97657,0,0,1-.1867-.28006c-.04668-.09335-.09335-.14-.14-.23338-.28-.09334-.60678-.1867-.93351-.32672Zm-6.44127,5.83448a2.19855,2.19855,0,0,0-.09335-.93352,1.6634,1.6634,0,0,1,.28-1.26024c.37341-.84017.74682-1.3536,1.12022-1.49363a.92753.92753,0,0,0,.42009-.74681,2.34762,2.34762,0,0,1,.51343-1.21357,1.57326,1.57326,0,0,0,.04668-1.21358,1.06154,1.06154,0,0,0-.28006-.5601.82794.82794,0,0,0-.46676-.37341,1.22344,1.22344,0,0,1-.79349-.60679.72577.72577,0,0,0-.3734-.28.38517.38517,0,0,1-.23338-.46676.4659.4659,0,0,0-.23338-.46676.82167.82167,0,0,1-.28006-.60679c-.04667-.70014.04668-1.12022.18671-1.21357a.568.568,0,0,0,.23338-.46676,4.63139,4.63139,0,0,1,.56011-1.49362,8.9326,8.9326,0,0,1,.93351-1.54031.99793.99793,0,0,0,.28006-.46676,1.4591,1.4591,0,0,1,.42008-.51343.67972.67972,0,0,0,.28006-.42008.64161.64161,0,0,1,.3734-.46676c.14-.04668.28006-.23338.46676-.51343.37341-.70014.70014-1.07355.93352-1.02687a.99542.99542,0,0,0,.56011-.14,1.22855,1.22855,0,0,1,.93352-.09335,1.20649,1.20649,0,0,0,.65346.09335,1.928,1.928,0,0,1,1.3536.28005,1.84213,1.84213,0,0,1,.93351,1.30693c.04668.46676-.04667.70014-.23338.79349-.42008.32673-.70013.46675-.98019.42008a.64232.64232,0,0,0-.56011.09335,1.07161,1.07161,0,0,1-.65346.1867.70789.70789,0,0,0-.60679.14.558.558,0,0,1-.3734.18671c-.14-.04668-.28006.04667-.42009.23338a1.11848,1.11848,0,0,0-.32673.60678.68339.68339,0,0,1-.28005.51344,1.32784,1.32784,0,0,0-.42008.65346c-.14.32673-.23338.51343-.32674.51343a1.66148,1.66148,0,0,0-.42008,1.07355,1.84959,1.84959,0,0,0-.28,1.447,3.3376,3.3376,0,0,0,.65346.79349c.1867.04667.28.14.28.23338a.54862.54862,0,0,0,.56011.32673,1.808,1.808,0,0,1,.51344.14.63628.63628,0,0,0,.84016-.09336.88976.88976,0,0,1,.56011-.32672.63976.63976,0,0,0,.56011-.51344,1.29261,1.29261,0,0,1,.23338-.37341,1.25414,1.25414,0,0,0,.51344-.79348,1.51983,1.51983,0,0,1,.28-.56011.45742.45742,0,0,0,.14-.56011c0-.18671-.28-.42008-.74681-.65346-.18671-.14-.18671-.37341-.04668-.79349a.6937.6937,0,0,1,.65346-.37341,1.39786,1.39786,0,0,0,.46676-.1867.56627.56627,0,0,1,.60679-.04668,1.10314,1.10314,0,0,0,.60678.09335,2.21566,2.21566,0,0,1,1.68033.93352c.28006.37341.37341.60679.23338.79349s-.09335.46675.04668.79348a1.43923,1.43923,0,0,1,0,.88685c-.18671.42008-.42009.70013-.65347.70013a3.34979,3.34979,0,0,0-1.40027.79349,1.08329,1.08329,0,0,0-.37341.60679,1.48355,1.48355,0,0,0-.14.42008c0,.09335,0,.14.04667.14a4.81421,4.81421,0,0,1,.09335.93352l.09336.09335a.478.478,0,0,0,.23338.28.86077.86077,0,0,1,.51343.60679,1.42136,1.42136,0,0,0,.42008.60679,1.01665,1.01665,0,0,1,.42009.60678,4.33616,4.33616,0,0,1,.32673,1.3536,4.13734,4.13734,0,0,0,.23338,1.12023,1.59813,1.59813,0,0,1,.14.88684,2.61415,2.61415,0,0,1-.46675,1.3536,2.37321,2.37321,0,0,1-.60679.42008c-.14.14-.32673.28-.56011.46676a4.9816,4.9816,0,0,0-1.1669,1.02687,2.65457,2.65457,0,0,1-2.00706.93351,3.55325,3.55325,0,0,0-.98019.14,1.47248,1.47248,0,0,1-1.1669-.1867,2.74622,2.74622,0,0,0-1.40027-.37341,2.81758,2.81758,0,0,1-2.05374-.74681,2.74121,2.74121,0,0,1-1.02687-1.867Zm8.58836,4.15415a.7259.7259,0,0,0,.28-.37341c.04668-.18671.32673-.28006.88684-.28006a1.23357,1.23357,0,0,1,.98019.46676,3.00747,3.00747,0,0,1,.51344,1.12022c.04667.1867.09335.37341.14.51344a.79553.79553,0,0,1,0,.46676,3.14886,3.14886,0,0,1,.14.79349,1.66731,1.66731,0,0,1-.09335.79348c-.23338.42008-.46676.70014-.70014.74682q-.35007.14-.98019-.42008a2.16954,2.16954,0,0,1-.88684-1.1669,3.62818,3.62818,0,0,1-.42008-1.21357,3.83026,3.83026,0,0,0-.14-.84017c.09335-.3734.1867-.60678.28006-.60678ZM23.259,59.4841a1.01637,1.01637,0,0,0,.37341-.23338c.09335-.1867.37341-.1867.88684,0a1.29517,1.29517,0,0,1,.74682.65346,2.79093,2.79093,0,0,1,.14,1.21358,5.4564,5.4564,0,0,0,.18671,1.77368,3.01511,3.01511,0,0,1-.28006,1.5403c-.04668.32673-.04668.60679-.09335.79349a1.587,1.587,0,0,1-.32673.70014,1.39973,1.39973,0,0,1-.84017.51344c-.23338.04668-.46676-.1867-.74681-.65346a2.12638,2.12638,0,0,1-.46676-1.30693,10.17176,10.17176,0,0,1-.1867-2.66052,15.2179,15.2179,0,0,0,.23338-1.77368c.14-.37342.28005-.56012.3734-.56012Zm-4.4342.28006c.1867-.70014.46676-1.12022.88684-1.26025a.87962.87962,0,0,1,1.07354.42009,1.56326,1.56326,0,0,1,0,1.447,12.67383,12.67383,0,0,0-.04667,1.35359,1.65973,1.65973,0,0,1-.09335,1.26025A4.54517,4.54517,0,0,1,19.945,64.105a7.90411,7.90411,0,0,0-.46676,1.26024,1.43107,1.43107,0,0,1-.60678.93352,1.45465,1.45465,0,0,1-1.12023.14,1.0596,1.0596,0,0,1-.74681-.84017,2.7233,2.7233,0,0,1,.04668-1.49362,4.9767,4.9767,0,0,0,.42008-1.40028,3.17853,3.17853,0,0,1,.79349-2.10041,2.92927,2.92927,0,0,0,.56011-.84016Zm49.56974,2.10041a2.64684,2.64684,0,0,1,.9802-.70014,3.73778,3.73778,0,0,0,.98019-.70013,7.409,7.409,0,0,1,1.26024-.79349c.56011-.32673,1.26025-.79349,2.10042-1.30693a11.24352,11.24352,0,0,1,1.447-.98019,2.50017,2.50017,0,0,1,.70014-.70014A11.80326,11.80326,0,0,0,77.823,55.2366a1.72413,1.72413,0,0,1,1.30693-.3734c.56011.14.84016.46675.79349.98019a1.93758,1.93758,0,0,1-.93352,1.21357,2.835,2.835,0,0,0-.74682.74681q-.84016.70014-1.5403,1.26025a2.50949,2.50949,0,0,0-.9802.88684,4.87512,4.87512,0,0,1-1.5403,1.12022,2.2384,2.2384,0,0,0-.23338.79349c-.09335.42008-.14.65345-.1867.65345a1.33239,1.33239,0,0,0-.60679,0c-.1867.04668-.42008.04668-.74681.09335-.09335,0-.14,0-.18671.04668-.04667,0-.04667,0-.09335.04668a3.60574,3.60574,0,0,0-.88684.79349,3.54578,3.54578,0,0,1-1.30692.74682,4.56775,4.56775,0,0,0-1.12022.79348,8.34787,8.34787,0,0,1-1.63366.84017,5.59546,5.59546,0,0,1-2.10041.74682,2.17784,2.17784,0,0,0-1.12022.51343,3.21966,3.21966,0,0,1-1.68033.60679,2.34641,2.34641,0,0,1-1.587-.23338,2.08571,2.08571,0,0,1-.93352-1.30692c-.09335-.42008.14-.84017.60679-1.3536a2.49967,2.49967,0,0,1,1.63365-.70014,5.881,5.881,0,0,0,2.3338-.65346,3.57131,3.57131,0,0,1,1.30692-.42008,8.72135,8.72135,0,0,0,2.75388-1.21358Zm9.89528,5.64778a2.41284,2.41284,0,0,1-1.40027.23337,3.566,3.566,0,0,0-.9802-.23337c-.51344-.09335-.84017-.23338-.9802-.46676a2.50756,2.50756,0,0,0-.46675-.74682,1.05136,1.05136,0,0,1-.37341-.65346,1.57742,1.57742,0,0,0-.28006-.56011A1.8621,1.8621,0,0,1,73.3888,63.965a.88224.88224,0,0,1,.28005-.84017,1.13712,1.13712,0,0,1,1.30693.09335,6.01443,6.01443,0,0,1,.84016.60679,1.06393,1.06393,0,0,0,.51344.14,4.06671,4.06671,0,0,0,2.05373-.14,5.52359,5.52359,0,0,0,2.24045-.79349.574.574,0,0,1,.51343-.32673,4.69163,4.69163,0,0,0,1.68034-1.49363,5.86834,5.86834,0,0,1,.60678-.74681,5.67266,5.67266,0,0,0,1.12022-2.14709,3.64076,3.64076,0,0,0-.04668-2.19376A4.88091,4.88091,0,0,0,83.0507,54.023a.62051.62051,0,0,0-.32673-.14c-.32673,0-.60679.04668-.74682.04668a3.76983,3.76983,0,0,1-.88684.14,3.21256,3.21256,0,0,1-.60678.09335c-.14,0-.28006-.28006-.37341-.74681a9.20761,9.20761,0,0,0-.46676-1.26025c-.09335-.14-.14-.28006-.1867-.32673a1.36279,1.36279,0,0,0-.42008-.09335,2.50076,2.50076,0,0,0-1.30692-.04668,2.29776,2.29776,0,0,1-1.07355.09335h-.09335a1.95429,1.95429,0,0,1-.88684.9802,2.72789,2.72789,0,0,0-.65346.60678c-.51344.42009-.98019.79349-1.447,1.12023a2.86391,2.86391,0,0,0-.88684.79348,12.73455,12.73455,0,0,1-1.40028,1.02687,3.89589,3.89589,0,0,0-.74681.56011,6.2056,6.2056,0,0,1-1.12022.88684,2.2813,2.2813,0,0,0-.84017.65346,2.3289,2.3289,0,0,1-1.1669.65346,3.87953,3.87953,0,0,0-.98019.74682c-.32673.1867-.84016.42008-1.49362.74681a5.23871,5.23871,0,0,1-1.91371.60679c-.18671-.04668-.51344.14-.98019.42008a3.4451,3.4451,0,0,1-1.54031.56011,2.17387,2.17387,0,0,1-1.447-.28006,1.72106,1.72106,0,0,1-.79349-1.21357c-.09335-.32673.09335-.74682.56011-1.1669a2.248,2.248,0,0,1,1.49363-.60679,5.231,5.231,0,0,0,2.14709-.51343,3.78815,3.78815,0,0,1,1.16689-.37341,7.89709,7.89709,0,0,0,2.42714-1.12022,2.93708,2.93708,0,0,1,.93352-.60679,4.23037,4.23037,0,0,0,.88684-.60678,6.92819,6.92819,0,0,1,1.1669-.70014c.56011-.32673,1.21357-.70014,1.96038-1.1669.60679-.42008,1.02687-.70013,1.26025-.88684A4.03079,4.03079,0,0,1,72.922,52.296a8.25324,8.25324,0,0,0,1.49363-.98019l-.04668-.04667a1.18855,1.18855,0,0,1-.51344-1.12022,1.30772,1.30772,0,0,1,.84017-1.12022,4.32487,4.32487,0,0,1,1.49362-.23338c.46676.04667.9802.09335,1.49363.1867a2.26986,2.26986,0,0,0,1.30692.14,1.81989,1.81989,0,0,1,.74682-.09335,2.37434,2.37434,0,0,0,1.02687.1867,1.285,1.285,0,0,1,.84016.23338,7.56735,7.56735,0,0,0,1.68034.93352,2.118,2.118,0,0,1,1.02686.79349,8.20618,8.20618,0,0,0,1.447,1.26024.9424.9424,0,0,1,.42008.84017l.56011,1.12022a1.36663,1.36663,0,0,1,.32673,1.02687,2.3776,2.3776,0,0,0,.32673.79349.57393.57393,0,0,1,.04667.60678,1.38156,1.38156,0,0,0-.09335.98019c.18671.28006.09335.84017-.23337,1.63366a3.24775,3.24775,0,0,0-.09335.74682,3.66052,3.66052,0,0,1-.70014,1.727q-.91018,1.12023-1.26025,1.12022a1.47562,1.47562,0,0,0-.46676.65346,6.71157,6.71157,0,0,1-1.68033,1.447,10.88337,10.88337,0,0,1-3.08061,1.68034,5.989,5.989,0,0,1-1.54029.70014Zm-11.949-29.87254c-.70014-.18671-1.07355-.56011-1.07355-1.12023a1.41362,1.41362,0,0,1,.56011-1.26024,2.67629,2.67629,0,0,1,1.727-.60679c.42008-.04667.84016-.09335,1.30692-.1867a6.349,6.349,0,0,1,2.19377-.37341,16.61818,16.61818,0,0,1,2.38046.09335,6.69908,6.69908,0,0,0,2.38047.14,5.71471,5.71471,0,0,1,3.36066.42008,1.75021,1.75021,0,0,0,1.07354.23338,3.1465,3.1465,0,0,1,1.587.70014c.60679.37341.93352.70014.93352.98019a1.21729,1.21729,0,0,0,.42008.79349,2.51975,2.51975,0,0,1,.42008,1.867,5.38489,5.38489,0,0,0,.32673,1.12022,3.14285,3.14285,0,0,1,.28005,1.49363v2.19376a3.28914,3.28914,0,0,1-.74681,2.24044,3.48678,3.48678,0,0,1-1.77369,1.30693,3.9842,3.9842,0,0,1-2.33379.37341,4.80546,4.80546,0,0,0-1.68033.09335,2.36812,2.36812,0,0,1-1.49363.09335,1.92557,1.92557,0,0,0-1.35359-.09335,1.70364,1.70364,0,0,1-1.49363.09335,1.7936,1.7936,0,0,0-1.12022-.09335,7.15369,7.15369,0,0,1-.51343,1.26024,4.852,4.852,0,0,1-.98019.9802,3.73058,3.73058,0,0,0-.60679.60678,1.2758,1.2758,0,0,1-.70014.70014,2.87083,2.87083,0,0,0-.88684.56011,3.68456,3.68456,0,0,1-1.447.93352,10.02491,10.02491,0,0,0-1.21357.65346,2.336,2.336,0,0,1-1.54031.42008,3.15572,3.15572,0,0,0-1.5403.46676,1.9,1.9,0,0,1-1.07355.28005,1.65663,1.65663,0,0,0-.70014.04668,3.00033,3.00033,0,0,1-1.82035.09335c-.46676-.14-.74682-.32673-.74682-.46676-.04667-.1867-.09335-.32673-.1867-.32673a.87745.87745,0,0,1-.1867-.46676,1.33626,1.33626,0,0,1,.28-1.02686,2.46442,2.46442,0,0,1,.98019-.56011,2.84892,2.84892,0,0,1,1.40028-.04668,4.3713,4.3713,0,0,0,1.16689.09335,2.88451,2.88451,0,0,0,1.26025-.42008,2.09578,2.09578,0,0,1,1.26025-.46676,2.64721,2.64721,0,0,0,1.26024-.60679,2.46537,2.46537,0,0,1,1.12022-.51343,4.01268,4.01268,0,0,0,1.40028-1.07355,2.61592,2.61592,0,0,1,.46676-.70013,2.42632,2.42632,0,0,0-1.727.09335,3.0767,3.0767,0,0,1-1.77368-.14c-.84017-.23338-1.3536-.51344-1.54031-.93352a1.85429,1.85429,0,0,0-.79348-1.07354c-.37341-.23338-.51344-.70014-.42009-1.49363-.04667-1.1669-.09335-2.10041-.1867-2.84723a2.48792,2.48792,0,0,1-.04668-1.30692,5.95057,5.95057,0,0,0,.04668-.93352A3.65641,3.65641,0,0,1,62.56,38.15323a1.86833,1.86833,0,0,1,.60679-.79349,1.121,1.121,0,0,1,.70013-.28005,2.81775,2.81775,0,0,1,.74682.23338,1.47743,1.47743,0,0,1,.46675.84016,4.93869,4.93869,0,0,1,.09335,2.14709,8.89533,8.89533,0,0,0-.09335,2.66052,3.40758,3.40758,0,0,0,.60679,1.63366,2.18631,2.18631,0,0,0,1.3536,1.02686,5.057,5.057,0,0,0,2.98726-.09335,7.87031,7.87031,0,0,1,4.15414-.14,3.763,3.763,0,0,0,2.28712-.09335,6.75411,6.75411,0,0,1,2.24044-.23338,1.67876,1.67876,0,0,0,1.63365-.5601,2.47956,2.47956,0,0,0,.79349-1.3536,3.64151,3.64151,0,0,0-.1867-1.91371,3.87806,3.87806,0,0,1-.28006-1.30693,5.42769,5.42769,0,0,0-.1867-.84016c-.28006-.37341-.46676-.60679-.46676-.74682a1.0166,1.0166,0,0,0-.42008-.60678,2.18327,2.18327,0,0,1-.65345-.37341c-.23338-.32673-1.3536-.51344-3.36066-.60679a25.12078,25.12078,0,0,1-3.40734-.09335,5.28334,5.28334,0,0,0-3.40734.42008,3.07187,3.07187,0,0,1-2.42712.56013ZM71.195,40.02028a6.84281,6.84281,0,0,1,2.75388-.04668,3.71036,3.71036,0,0,0,1.867.09335,2.12625,2.12625,0,0,1,1.63365.09335,1.74983,1.74983,0,0,1,.70014,1.30693,1.49339,1.49339,0,0,1-.60679,1.02686,1.68473,1.68473,0,0,1-1.26024.04668,3.69183,3.69183,0,0,0-2.00706-.04668,2.7178,2.7178,0,0,1-2.00707.04668,5.82614,5.82614,0,0,0-2.47382.14,2.8189,2.8189,0,0,1-1.96038,0,1.47982,1.47982,0,0,1-.56011-1.1669,1.62726,1.62726,0,0,1,.56011-1.12022,1.26068,1.26068,0,0,1,1.30692-.23338,4.03373,4.03373,0,0,0,2.05374-.14Z"/><path id="black" d="M17.00439,71.43312H197.12647v1.49363H17.00439ZM116.0972,52.90281H126.926v2.80055h-6.768v2.10041h6.25456V60.4643H120.158v2.56717h6.95471v2.98725H116.05053V52.90281Zm12.27575,0h12.32243v3.22063h-4.15415v9.89528h-4.01412V56.12344H128.373V52.90281Zm38.97434,13.11591h4.2475l-4.901-13.11591h-4.43421l-4.901,13.11591h4.15414l.65346-2.14709h4.57423l.60681,2.14709Zm-4.34086-4.99431,1.447-4.71426,1.44695,4.71426Zm9.19514.65345,3.82743-.23337a3.25977,3.25977,0,0,0,.51343,1.40027,2.20093,2.20093,0,0,0,1.77368.79349,2.04183,2.04183,0,0,0,1.3536-.42008,1.21251,1.21251,0,0,0,.46676-.93352,1.14953,1.14953,0,0,0-.42008-.88684,4.803,4.803,0,0,0-2.05374-.74681,9.04382,9.04382,0,0,1-3.78074-1.587,3.23751,3.23751,0,0,1-1.1669-2.52049,3.49894,3.49894,0,0,1,2.33379-3.314,8.59394,8.59394,0,0,1,3.22063-.51343,6.709,6.709,0,0,1,3.82743.93351,4.0997,4.0997,0,0,1,1.587,2.98726l-3.82742.23338a1.82035,1.82035,0,0,0-.65346-1.26025,2.04191,2.04191,0,0,0-1.3536-.42008,1.73394,1.73394,0,0,0-1.07354.28005.97441.97441,0,0,0-.3734.74682.66049.66049,0,0,0,.32674.5601,3.07967,3.07967,0,0,0,1.3536.46676,14.58494,14.58494,0,0,1,3.78074,1.1669,4.31591,4.31591,0,0,1,1.68034,1.447,3.83059,3.83059,0,0,1,.51343,1.96038,4.15237,4.15237,0,0,1-.70013,2.3338,4.51913,4.51913,0,0,1-1.9604,1.63365,7.73487,7.73487,0,0,1-3.17395.56011c-2.24043,0-3.78074-.42008-4.6209-1.30693a5.45937,5.45937,0,0,1-1.40031-3.36066Zm13.9094-8.775h10.8288v2.80055h-6.768v2.10041h6.25456V60.4643h-6.25456v2.56717h6.9547v2.98725H186.111Zm-87.23715-3.454h4.0608l5.27437,9.19514V49.4488h4.0608V65.972H108.209l-5.27437-9.14846V65.972h-4.0608Zm44.48207,0H154.9315v3.54736h-7.23476V55.61h6.72132v3.36065h-6.72132V62.238h7.42147V65.972h-11.809V49.4488ZM93.13269,75.26054V89.02991h-3.594V80.02147a10.4962,10.4962,0,0,1-1.68033,1.12022,15.3795,15.3795,0,0,1-2.05374.84017V78.90125a8.65911,8.65911,0,0,0,2.80056-1.49363,6.59709,6.59709,0,0,0,1.587-2.14709h2.94058ZM111.803,76.75416a4.30978,4.30978,0,0,0-1.447-1.12021,6.69326,6.69326,0,0,0-2.38047-.37341,4.84533,4.84533,0,0,0-4.01412,1.727c-.9802,1.12022-1.447,2.94058-1.447,5.36772a9.53167,9.53167,0,0,0,.70014,4.01413,4.751,4.751,0,0,0,1.867,2.24044,5.72448,5.72448,0,0,0,3.03393.70014,5.61936,5.61936,0,0,0,2.66053-.56011,3.79408,3.79408,0,0,0,1.63365-1.68033,5.38444,5.38444,0,0,0,.60679-2.47382,4.601,4.601,0,0,0-1.1669-3.26731,3.67417,3.67417,0,0,0-2.8939-1.30693,3.38187,3.38187,0,0,0-1.5403.32673,4.36634,4.36634,0,0,0-1.30693,1.02687,8.21707,8.21707,0,0,1,.51344-2.84723,1.489,1.489,0,0,1,1.3536-.93352.9615.9615,0,0,1,.79348.32673,2.08436,2.08436,0,0,1,.46676,1.12022l3.50069-.46676a5.54922,5.54922,0,0,0-.9335-1.82035Zm-5.13435,6.16121a1.59824,1.59824,0,0,1,1.26025-.56011,1.48062,1.48062,0,0,1,1.21358.60679,2.71433,2.71433,0,0,1,.46675,1.727,2.49068,2.49068,0,0,1-.46675,1.68033,1.47982,1.47982,0,0,1-1.1669.56011,1.64049,1.64049,0,0,1-1.26025-.60679,2.71831,2.71831,0,0,1-.51343-1.727,2.65909,2.65909,0,0,1,.46675-1.68034Zm17.69015-3.50068-3.36066-.65346a4.54383,4.54383,0,0,1,1.587-2.61385,5.43221,5.43221,0,0,1,3.36066-.88684,5.338,5.338,0,0,1,3.594.98019,3.16871,3.16871,0,0,1,1.12022,2.47382,2.64946,2.64946,0,0,1-.46676,1.587,3.95391,3.95391,0,0,1-1.3536,1.26025,3.21292,3.21292,0,0,1,1.12022.46676,3.07553,3.07553,0,0,1,.98019,1.07354,3.52207,3.52207,0,0,1,.32673,1.63366,5.0136,5.0136,0,0,1-.56011,2.28711,3.66346,3.66346,0,0,1-1.68033,1.68033,6.3476,6.3476,0,0,1-2.8939.60679,7.42149,7.42149,0,0,1-2.75387-.42008,3.96355,3.96355,0,0,1-1.63366-1.26025,6.26078,6.26078,0,0,1-.98019-2.10041l3.54737-.51344a2.8017,2.8017,0,0,0,.65345,1.587,1.514,1.514,0,0,0,1.12022.42008,1.41611,1.41611,0,0,0,1.1669-.56011,2.12587,2.12587,0,0,0,.46676-1.49363,2.00354,2.00354,0,0,0-.46676-1.447,1.58091,1.58091,0,0,0-1.26025-.51344,5.04,5.04,0,0,0-1.16689.23338l.1867-2.7072a1.93315,1.93315,0,0,0,.46675.04668,1.54818,1.54818,0,0,0,1.1669-.46676,1.517,1.517,0,0,0,.46676-1.12021,1.33712,1.33712,0,0,0-.37341-.9802,1.30326,1.30326,0,0,0-.93352-.37341,1.53779,1.53779,0,0,0-1.02686.37341,2.92051,2.92051,0,0,0-.42008,1.40028ZM17.00439,79.228h2.75388l.98019,5.181,1.447-5.181h2.7072l1.44695,5.181.98019-5.181H30.027l-2.05373,9.28849H25.17266L23.539,82.682l-1.63365,5.83448H19.1048Zm19.04375,0h2.70719l.9802,5.181,1.447-5.181h2.7072l1.447,5.181,1.02686-5.181h2.7072L47.017,88.51647H44.21641L42.58275,82.682,40.9491,88.51647H38.14855Zm18.99706,0h2.7072l.9802,5.181,1.447-5.181h2.7072l1.44695,5.181.98019-5.181h2.7072l-2.05374,9.28849H63.1668L61.53315,82.682l-1.63366,5.83448H57.09894Zm20.63073,3.314H78.4298v2.56717H75.67593Zm63.9459,0h2.75387v2.56717h-2.75387Zm18.11023,2.14709,2.52049.74681a4.77292,4.77292,0,0,1-.79349,1.77369,3.385,3.385,0,0,1-1.3536,1.07354,5.04617,5.04617,0,0,1-2.05373.37341,6.20559,6.20559,0,0,1-2.47382-.42008,3.75958,3.75958,0,0,1-1.68033-1.5403,5.2519,5.2519,0,0,1-.70014-2.84723,4.94788,4.94788,0,0,1,1.21358-3.54737,4.54826,4.54826,0,0,1,3.454-1.26025,4.71253,4.71253,0,0,1,2.75387.70014,4.28624,4.28624,0,0,1,1.49363,2.19377l-2.56717.5601a1.84966,1.84966,0,0,0-.28006-.60678,1.62521,1.62521,0,0,0-.60678-.51344,1.53412,1.53412,0,0,0-.79349-.1867,1.68478,1.68478,0,0,0-1.49363.79349,3.11739,3.11739,0,0,0-.37341,1.82035,3.312,3.312,0,0,0,.46676,2.10041,1.62856,1.62856,0,0,0,1.30692.56011,1.55778,1.55778,0,0,0,1.26025-.46676,1.99783,1.99783,0,0,0,.70014-1.30691Zm10.87547,1.867a3.92544,3.92544,0,0,0,1.68033,1.587,6.05571,6.05571,0,0,0,2.61385.51343,5.22838,5.22838,0,0,0,2.56717-.56011,3.829,3.829,0,0,0,1.587-1.63365,5.61946,5.61946,0,0,0,.56011-2.66052,4.73147,4.73147,0,0,0-1.26025-3.50069,4.83915,4.83915,0,0,0-8.40167,3.54737,5.6477,5.6477,0,0,0,.65348,2.70719Zm2.80055-4.71426a1.71217,1.71217,0,0,1,1.40027-.60679,1.80663,1.80663,0,0,1,1.447.60679,3.02523,3.02523,0,0,1,.51343,1.91371,3.42785,3.42785,0,0,1-.51343,2.14709,1.68744,1.68744,0,0,1-1.447.60679,1.65306,1.65306,0,0,1-1.40027-.60679,3.23735,3.23735,0,0,1-.51344-2.00706,2.78873,2.78873,0,0,1,.51344-2.05374Zm21.70427-2.80055a2.33912,2.33912,0,0,0-1.867,1.02686,2.18746,2.18746,0,0,0-1.96039-1.02686,2.1187,2.1187,0,0,0-1.63365.70013v-.46675h-2.42715v8.82173h2.52049V82.822c0-1.26025.56011-1.26025.79349-1.26025.65346,0,.74682.37341.74682,1.30692v5.2277h2.52049v-5.2277c0-1.30692.65346-1.30692.88684-1.30692.42008,0,.65346.42008.65346,1.26025v5.27437h2.52049V82.12188c0-1.867-1.07352-3.0806-2.75385-3.0806Z"/></svg>