<svg id="Layer_1" data-name="Layer 1" xmlns="http://www.w3.org/2000/svg" viewBox="0 0 215 127"><defs><style>.cls-1{fill:transparent;}.cls-2{fill:none;}</style></defs><title>kubernetes.io-logos2</title><rect class="cls-1" x="-3.85896" y="-3.29932" width="223.25536" height="134.51136"/><rect class="cls-2" x="12.98311" y="52.37137" width="189.57122" height="23.16998"/><path d="M44.97419,73.85506c4.48217,0,6.95205-3.55169,6.95205-9.965,0-6.3344-2.47024-9.965-6.95206-9.965-4.47852,0-6.952,3.63063-6.952,9.8119,0,6.56647,2.39459,10.11816,6.95206,10.11816m0-21.3978c6.25765,0,10.3495,4.63641,10.3495,11.43277,0,6.79929-4.17189,11.51427-10.3495,11.51427-6.10306,0-10.3517-4.87068-10.3517-11.51427,0-6.64286,4.24864-11.43277,10.3517-11.43277"/><path d="M95.44036,63.5834c0-6.02777-2.78053-9.42851-8.187-9.42851a23.51638,23.51638,0,0,0-3.30645.15569,4.15054,4.15054,0,0,1,.19736,1.40305c-.02084,1.926-.05921,5.45654-.05921,8.179,0,2.97313.06652,6.15057.11183,7.99036a4.5992,4.5992,0,0,1-.20247,1.58653,18.99839,18.99839,0,0,0,2.87117.15569c5.71529,0,8.57476-3.55606,8.57476-10.04177m3.3229-.07858c0,7.10519-4.0173,11.50952-10.89443,11.50952H80.9186s.1546-7.02881.1546-11.12175c0-4.02095-.1546-11.04976-.1546-11.04976h7.95674c6.48937,0,9.88792,3.63282,9.88792,10.662"/><path d="M166.24593,73.85506c4.48072,0,6.95205-3.55169,6.95205-9.965,0-6.3344-2.4717-9.965-6.95205-9.965-4.48328,0-6.95426,3.63063-6.95426,9.8119,0,6.56647,2.39239,10.11816,6.95426,10.11816m0-21.3978c6.2529,0,10.348,4.63641,10.348,11.43277,0,6.79929-4.1719,11.51427-10.348,11.51427-6.10671,0-10.35535-4.87068-10.35535-11.51427,0-6.64286,4.24863-11.43277,10.35535-11.43277"/><path d="M15.06887,67.21183c0,5.33556.23135,7.8047.23135,7.8047H12.98311s.30773-8.964.30773-17.53729c0-1.46847-.07894-4.63677-.07894-4.63677H14.839s6.17652,8.76188,10.28664,14.46182a23.721,23.721,0,0,1,1.47287,2.49948s-.17324-1.51233-.17324-2.88286V60.64754a63.2181,63.2181,0,0,0-.31029-7.80471h2.31455s-.30663,8.11134-.30663,17.5373c0,.929.07565,4.63677.07565,4.63677H26.57949S20.5181,66.37818,16.36375,60.61538a15.50923,15.50923,0,0,1-1.44143-2.34379s.14619,1.88621.14619,2.8803v6.05994Z"/><path d="M109.1135,73.85506a4.10637,4.10637,0,0,0,4.06041-4.62216c-.29311-1.89754-1.73052-3.036-4.13461-4.41566-3.07912-1.76049-4.90722-3.04989-5.21934-5.99744-.39-3.67265,2.683-6.28543,6.37607-6.43893a14.00586,14.00586,0,0,1,4.71316.73424V55.468a7.03561,7.03561,0,0,0-4.55747-1.69581c-1.941,0-4.06006,1.23348-4.06006,3.42158,0,1.944,1.52951,2.87811,4.21575,4.45513,3.58421,2.11135,5.38674,3.80715,5.38674,6.98458a6.8388,6.8388,0,0,1-7.08728,6.76895,14.27941,14.27941,0,0,1-4.71316-.73862v-2.585a7.15262,7.15262,0,0,0,5.01979,1.77621"/><path d="M133.52646,52.84283V54.9359a14.69308,14.69308,0,0,0-4.24609-.5409h-1.45422s.04642.58549.03727,1.41439c0,0-.05335,3.96284-.05335,5.0684,0,6.1809.30882,14.13692.30882,14.13692H124.644s.31138-7.956.31138-14.13692c0-1.10556-.05555-5.0684-.05555-5.0684-.01389-.83365.03727-1.41439.03727-1.41439h-1.44947a14.69393,14.69393,0,0,0-4.25084.54091V52.84283Z"/><path d="M202.48016,75.0074h-3.27537s-.18347-8.09088-.497-13.78168c-.03252-.678-.03-1.54011-.03-2.47134a24.35386,24.35386,0,0,1-.85959,2.395l-6.07894,14.392s-3.39855-7.77437-6.08368-13.61173c-.40421-.87787-.9316-2.41542-1.29159-3.17524a31.92871,31.92871,0,0,1-.102,3.49357c-.409,5.71419-.52044,12.75945-.52044,12.75945h-2.13254l1.37053-22.16932h1.90485s4.09039,9.20776,6.713,14.84046a11.52393,11.52393,0,0,1,.90126,2.267,23.44415,23.44415,0,0,1,.81319-2.24145c2.42272-5.70469,6.12279-14.8664,6.12279-14.8664h1.90484Z"/><path d="M151.38463,58.018c0,2.93622-1.8493,4.94524-5.10093,5.79533,2.09052,3.86306,6.3366,11.2007,6.3366,11.2007h-3.47493s-1.85113-3.78413-6.64359-12.20429h.38557c3.55424,0,5.40792-1.46811,5.40792-4.40433,0-2.55065-1.547-4.17153-4.48107-4.17153-.84754,0-2.1786.03-2.1786.03a6.50192,6.50192,0,0,1,.18348,1.92349V67.597c0,4.94523.23243,7.41694.23243,7.41694h-3.32179s.23463-8.72936.23463-13.28427c0-3.16866-.23463-8.88724-.23463-8.88724h6.5504c3.9442.00036,6.10451,1.85624,6.10451,5.17548"/><path d="M74.17121,58.018c0,2.93622-1.85479,4.94524-5.09983,5.79533,2.08613,3.86306,6.3344,11.2007,6.3344,11.2007H71.93085s-1.85478-3.78413-6.64323-12.20429h.38777c3.55059,0,5.40427-1.46811,5.40427-4.40433,0-2.55065-1.54376-4.17153-4.47962-4.17153-.849,0-2.179.03-2.179.03a6.41786,6.41786,0,0,1,.186,1.92349V67.597c0,4.94523.231,7.41694.231,7.41694H61.5152s.23244-8.72936.23244-13.28427c0-3.16866-.23244-8.88724-.23244-8.88724h6.553c3.94165.00036,6.10306,1.85624,6.10306,5.17548"/></svg>