<svg id="Layer_1" data-name="Layer 1" xmlns="http://www.w3.org/2000/svg" viewBox="0 0 215 127"><defs><style>.cls-1{fill:transparent;}.cls-2{fill:#12284a;}.cls-3{fill:#fbb61c;}</style></defs><title>kubernetes.io-logos2</title><rect class="cls-1" x="-4.99136" y="-4.21606" width="223.25536" height="134.51136"/><path class="cls-2" d="M70.39228,77.09771c.74716-1.56353,1.479-3.09135,2.20753-4.62075.521-1.09384,1.0154-2.20106,1.56489-3.2804a3.16949,3.16949,0,0,0,.42707-1.89439c-.04213-.31706.05834-.43389.40495-.42984q2.41845.02821,4.83739.00056c.3215-.00338.38915.09829.38791.39943-.00423,1.02388.00775,1.02393-1.02782,1.02393-.97457,0-.97457,0-.97457.97914,0,3.59643.00552,7.19288-.00874,10.78924-.00139.35112.07718.4676.43743.438.424-.03486.85349.00385,1.27966-.01294.22957-.009.2841.06822.293.29205.04467,1.127.05219,1.1267-1.069,1.1267-1.86546,0-3.731-.00785-5.59635.007-.34564.00276-.49327-.04936-.48114-.44955.02946-.97077.00595-.97148.98856-.97148,1.12041,0,1.12042,0,1.12041-1.11124q0-3.904,0-7.808,0-.22641,0-.45282l-.07607-.01962q-.47955,1.01-.95887,2.0201-1.98484,4.20483-3.967,8.41093c-.09332.19816-.14573.37762-.44718.38969-.33136.01326-.39016-.19568-.48926-.40239q-2.2856-4.76754-4.56973-9.5358c-.06777-.14144-.13616-.2826-.20637-.42827-.16843.06208-.08746.19181-.08763.27781-.0055,2.74463.00342,5.48932-.01407,8.23385-.00232.36406.09843.46172.44655.43287.37682-.03124.75825-.00709,1.13766-.00707a.6.6,0,0,1,.23512.00446c.47555.22665.1342.64907.21173.9737.03575.14969.139.4381-.22984.4373-1.75479-.0038-3.51151.04386-5.26329-.02883-.54259-.02252-.14822-.6087-.23469-.92392-.03959-.14435-.17665-.47368.23438-.46475.44245.00962.88712-.0228,1.32733.00991.35212.02617.44384-.075.44209-.434-.01584-3.24931-.00928-6.49872-.00928-9.7481,0-.55209-.01425-1.10469.00593-1.656.01025-.28-.05422-.39388-.36137-.37516-.45676.02785-.91653.0101-1.37493.00477-.09889-.00115-.26041.05166-.26739-.10653-.01734-.39318-.01346-.788.00059-1.18152.00571-.16.15661-.12353.25944-.12365,1.62834-.00189,3.25669.00256,4.885-.00576.23162-.00118.32737.08.29241.30047a3.97655,3.97655,0,0,0,.62992,2.41429c1.1723,2.387,2.32146,4.78522,3.48045,7.17869C70.26256,76.8679,70.31859,76.96191,70.39228,77.09771Z"/><path class="cls-3" d="M45.38927,53.86272a7.19805,7.19805,0,0,0,.046.85924,2.15615,2.15615,0,0,0,1.8606,1.82188,2.53013,2.53013,0,0,0,2.74448-1.33019A3.47766,3.47766,0,0,0,48.7946,50.759a5.25781,5.25781,0,0,0-3.69023-.69757A10.00144,10.00144,0,0,0,38.177,54.5021a22.61414,22.61414,0,0,0-3.58938,8.31956,45.58422,45.58422,0,0,0-1.15081,10.26522,3.61162,3.61162,0,0,1-.05194.729,6.37225,6.37225,0,0,1-.39115-1.61881,37.22825,37.22825,0,0,1-.58256-7.76583A21.54791,21.54791,0,0,1,35.50147,53.415a13.1953,13.1953,0,0,1,8.55089-6.17545,9.378,9.378,0,0,1,6.71794.81163,6.00864,6.00864,0,0,1,1.87278,8.59714,5.325,5.325,0,0,1-6.10064,1.78778,3.11816,3.11816,0,0,1-1.99335-3.55387A1.42134,1.42134,0,0,1,45.38927,53.86272Z"/><path class="cls-3" d="M16.935,55.97634A2.47157,2.47157,0,0,1,15.673,58.064a4.29918,4.29918,0,0,1-5.85076-1.27487,5.85146,5.85146,0,0,1,2.92-8.93563,9.477,9.477,0,0,1,7.59267.42064,15.835,15.835,0,0,1,6.83018,6.29431,22.82684,22.82684,0,0,1,3.45569,10.67918,23.90978,23.90978,0,0,1-1.00259,8.21115c-.03459.12366-.02314.28751-.22325.3949.032-.50486.069-.97569.09058-1.44722a24.65311,24.65311,0,0,0-5.43349-17.264,12.40435,12.40435,0,0,0-6.04047-4.31012,5.77406,5.77406,0,0,0-3.67814-.04,3.185,3.185,0,0,0-1.72464,4.83848,2.76663,2.76663,0,0,0,4.14779.48463,1.73727,1.73727,0,0,1,.186-.13051Z"/><path class="cls-2" d="M73.81731,56.9693v-.50824c0-2.71223-.0081-5.42452.00861-8.13665.00255-.41336-.07578-.60277-.53727-.55708a12.26021,12.26021,0,0,1-1.32659.00743c-.11666-.00118-.27327.03691-.27485-.1615-.00291-.36264-.00593-.72543.00135-1.08795.00384-.191.1609-.16154.28132-.16165,1.78586-.00172,3.57425-.05419,5.35608.03029.55426.02628.16669.66134.25991,1.00553.05476.20218.03737.40134-.29106.38366-.47274-.02544-.9484.00685-1.42181-.01144-.26963-.01042-.37711.08278-.34706.34912a2.96823,2.96823,0,0,1,.00185.33092c0,4.14719-.00586,8.29441.00957,12.44155.00146.39018-.09964.466-.48581.50489a2.043,2.043,0,0,1-1.8584-.80731c-2.81535-3.09307-5.67489-6.14609-8.51943-9.21269-.10565-.11391-.21463-.22474-.32473-.3398-.15469.11914-.08542.27244-.08565.40082-.00475,2.69646.00326,5.393-.012,8.08935-.002.34726.07217.47233.43669.442.42376-.0353.854.0116,1.279-.01488.306-.01906.36372.09944.36607.37827.00881,1.04539.01882,1.04531-1.01464,1.04531-1.454,0-2.908-.00814-4.36186.00668-.2999.003-.3993-.064-.39694-.38308.00767-1.04042-.007-1.04053,1.01537-1.04053.99211,0,.99211,0,.99211-1.00308,0-3.548-.01087-7.096.013-10.64386.00319-.474-.13309-.60951-.5733-.54331a2.88883,2.88883,0,0,1-.56816.00284c-.2806-.014-.74562.112-.80478-.05682a3.75635,3.75635,0,0,1-.05951-1.21285c.00048-.15852.13973-.14193.24817-.142,1.42237-.00088,2.84475.00306,4.26708-.00435.23652-.00123.32831.1026.28511.31219a2.27807,2.27807,0,0,0,.87922,2.09181c2.40408,2.5921,4.77189,5.21769,7.15484,7.82932C73.51095,56.70414,73.63183,56.79913,73.81731,56.9693Z"/><path class="cls-2" d="M114.32532,51.913a18.04214,18.04214,0,0,1,1.70523-.99149,4.27491,4.27491,0,0,1,2.70157-.48215,3.00587,3.00587,0,0,1,2.34033,3.18652c.01049,2.05046.01257,4.10111-.0063,6.15145-.00342.37262.09441.49838.46818.46277.34463-.03284.69653.01376,1.04218-.01325.30053-.02348.36884.08465.36748.3708-.00367.78146.01054.78153-.75415.78153-1.70731,0-3.41475-.011-5.12183.009-.35239.00413-.493-.07893-.43463-.43692a1.64106,1.64106,0,0,0,.001-.425c-.02235-.21952.04749-.31207.2845-.29779.315.019.63313-.01153.94788.00958.26039.01746.31429-.08933.31314-.32627-.00965-2.00312.01305-4.00663-.01826-6.00933a1.57742,1.57742,0,0,0-2.20431-1.61733c-.061.0158-.12236.03052-.18225.0498-1.3706.44131-1.44978.54852-1.44978,1.95988,0,1.81392.01679,3.6281-.01216,5.44156-.007.43639.12813.56428.52811.49855a1.4784,1.4784,0,0,1,.23682-.00182c.82637,0,.81807-.00031.78549.84764-.00834.21685-.05623.30362-.291.30268q-2.8929-.01167-5.78585-.00024c-.21128.00077-.25658-.07129-.26693-.27138-.04544-.87909-.05312-.87869.79374-.8787,1.11693,0,1.11693,0,1.11693-1.12138,0-4.19566-.00619-8.39135.01-12.587.00154-.40005-.10429-.535-.49513-.47984a4.44557,4.44557,0,0,1-.61583.005c-.82691,0-.81506.00006-.81072-.81524.0014-.26315.06879-.34715.34061-.34453,1.3594.01314,2.71914.0165,4.07842-.00182.31884-.0043.3958.09236.39389.3978-.01248,2.0031-.00641,4.00632-.0064,6.00951Z"/><path class="cls-2" d="M131.37442,54.12236q-1.33392,3.555-2.66619,7.10738c-.07.18688-.08916.38413-.385.38428-.275.00014-.33282-.16147-.42123-.35259-1.38038-2.98421-2.77329-5.96269-4.13937-8.95337-.16889-.36977-.354-.56457-.76432-.48093a.24183.24183,0,0,1-.04733.00039c-.90786-.00008-.89955.00075-.8076-.91862.01954-.19538.09339-.23089.26213-.23057q2.703.00518,5.406-.00183c.21773-.00085.252.08964.26338.2803.05181.871.058.87066-.81008.87072-.649.00005-.64935.00021-.381.60036q.95367,2.13246,1.90871,4.26432c.06331.14112.13737.27744.23084.465.63318-1.72122,1.24105-3.39068,1.86552-5.05393.10047-.26757.00218-.29194-.21649-.27766a3.17453,3.17453,0,0,1-.47386-.00059c-.23045-.01959-.55427.12047-.6711-.06964-.15975-.26-.04457-.61217-.0505-.92456-.00311-.16375.1293-.1497.23844-.14975,1.65973-.00076,3.31947.00116,4.97918-.00318.17079-.00044.23964.03535.2575.22951.08457.92012.09285.91938-.84593.92014-.15258.00013-.30515,0-.53113,0l2.41375,5.34875c.31534-.85289.59-1.59532.86436-2.33784.32162-.87035.62538-1.74787.97285-2.60781.14836-.36721.04-.43832-.29978-.406-.1723.01641-.34746.00287-.52134.00286-.65334,0-.62974-.0012-.66139-.63535-.01958-.3924.05661-.53923.49974-.52474,1.16844.0382,2.33912.02206,3.50862.00655.29512-.00391.4066.05545.4.38022-.01577.77293-.00078.82124-.75866.758-.59452-.04961-.82681.166-1.02637.7119-1.05818,2.8949-2.16694,5.77139-3.25832,8.6542-.08068.21313-.105.43629-.44734.44-.31575.00339-.40026-.16629-.503-.388q-1.5674-3.38311-3.14454-6.7617C131.55669,54.34679,131.54227,54.18667,131.37442,54.12236Z"/><path class="cls-2" d="M195.46889,51.96277a16.05943,16.05943,0,0,1,2.08217-1.22208,4.24183,4.24183,0,0,1,2.174-.33763,2.73137,2.73137,0,0,1,2.47064,2.82029c.04717,2.14417.03854,4.29014.01327,6.43486-.00572.4845.12038.65326.59551.58009a2.38423,2.38423,0,0,1,.61524-.00046c.22386.02451.56228-.13907.64737.09114a2.48312,2.48312,0,0,1,.02172.93687c-.00817.16731-.16521.11072-.26223.11089-1.91284.00322-3.82572-.00147-5.73852.00738-.23323.00109-.28563-.07363-.29355-.296-.03048-.85529-.03958-.855.77322-.855.78017,0,.78018,0,.78018-.797,0-1.79817.00283-3.59634-.001-5.3945a1.61519,1.61519,0,0,0-2.25481-1.752,5.88294,5.88294,0,0,0-1.42117.63153.37432.37432,0,0,0-.20479.38128c.00435,2.20826.00712,4.41656-.00284,6.62479-.00117.25957.08819.33053.32763.30923.18821-.01674.3791-.00334.56881-.00332.61382.00008.5905.00124.62183.63112.01953.39244-.05575.53578-.501.52794-1.78582-.03145-3.57263-.02309-5.35881-.00419-.343.00362-.451-.098-.4024-.42075a1.2692,1.2692,0,0,0-.00013-.37762c-.046-.29762.07343-.38172.3642-.36285.39356.02555.7904-.00416,1.18509.01029.23359.00855.33578-.04677.33491-.30943q-.01295-3.90387-.00143-7.8078c.00053-.22747-.07588-.30376-.30119-.29616-.41055.01384-.82256-.01-1.23271.00891-.25535.01178-.35254-.04689-.35376-.32945-.00357-.82286-.01825-.8228.80088-.8228,1.16985,0,2.34017.019,3.50926-.01065.39072-.00991.48737.11937.44952.47232C195.44776,51.3859,195.46889,51.63483,195.46889,51.96277Z"/><path class="cls-2" d="M111.05539,80.91638a7.3344,7.3344,0,0,1-3.018,1.24139,4.5416,4.5416,0,0,1-1.74037-.08511,2.4384,2.4384,0,0,1-1.89083-2.171,11.92582,11.92582,0,0,1-.06241-1.36817c-.00641-1.9235-.011-3.8471.00531-5.77049.0028-.33032-.08175-.44059-.4156-.41442-.37691.02954-.75867-.00738-1.13693.01181-.2466.0125-.31723-.06341-.32187-.31391-.01555-.83848-.02724-.83827.7893-.83827q1.65919,0,3.31839,0c.65782,0,.65783,0,.65783.67986q0,3.40559.00045,6.81116c.00006.18913-.00654.37951.01179.56719a1.46353,1.46353,0,0,0,1.88849,1.38312,6.46576,6.46576,0,0,0,1.76651-.77794c.17856-.10018.16855-.245.16856-.40167.00008-2.27039-.0042-4.5408.00569-6.81114.00113-.26038-.09078-.31788-.32762-.30791-.39434.0166-.7908-.01185-1.18462.01012-.26978.01506-.34065-.07359-.34153-.33991-.00269-.81293-.01521-.81289.8115-.81289,1.15354,0,2.30762.02011,3.46033-.01074.41161-.011.48238.12272.48019.50142-.01654,2.85365.00229,5.70754-.021,8.5611-.00357.43631.12495.54414.52814.50422.34425-.03408.69514.00506,1.042-.01109.24475-.01141.321.071.32839.3204.02469.83518.03575.83486-.80213.83486-1.13774,0-2.27608-.02159-3.41288.01085-.44139.0126-.6548-.07864-.57035-.55483A2.412,2.412,0,0,0,111.05539,80.91638Z"/><path class="cls-2" d="M89.03936,80.91112a9.22638,9.22638,0,0,1-2.12959,1.04326,4.88373,4.88373,0,0,1-2.66224.11546,2.57082,2.57082,0,0,1-1.94113-2.738q-.02463-3.26345.00417-6.52714c.00334-.376-.09945-.50076-.46613-.45436a5.31919,5.31919,0,0,1-.663.005c-.80134,0-.90794-.14128-.77048-.95349.03-.17716.11616-.19409.2532-.194,1.42215.001,2.84432.00571,4.26641-.00278.36827-.00219.24513.25806.24562.42839q.01,3.47645.00376,6.95294a3.93325,3.93325,0,0,0,.09319,1.03326,1.40789,1.40789,0,0,0,1.75426,1.04338,6.08034,6.08034,0,0,0,1.85689-.80132c.16191-.09217.155-.21677.155-.35756.0001-2.28612-.00271-4.57225.00447-6.85834.0007-.22172-.05489-.30536-.28843-.29534-.41008.01759-.82227-.01071-1.232.01039-.26836.01382-.34638-.07125-.349-.3411-.008-.81172-.02058-.8116.77621-.8116,1.18512,0,2.37045.01225,3.55523-.00788.33064-.00562.41941.08335.41783.41565-.01361,2.86941.002,5.739-.01823,8.60832-.00306.43478.11051.59693.5468.5384a5.38268,5.38268,0,0,1,.71033-.00554c.62533.00006.60019.00143.6337.61625.02258.41429-.07582.56048-.52813.5473-1.23148-.0359-2.46515-.03144-3.697-.00189-.42677.01024-.6097-.09626-.53481-.53492A3.37945,3.37945,0,0,0,89.03936,80.91112Z"/><path class="cls-2" d="M83.79349,50.38151c3.2246-.00481,5.42818,1.68552,6.0247,4.48354A5.5514,5.5514,0,0,1,84.634,61.655a7.55792,7.55792,0,0,1-3.21513-.4098A5.55961,5.55961,0,0,1,77.961,55.55829a5.48979,5.48979,0,0,1,4.64421-5.06865A7.63145,7.63145,0,0,1,83.79349,50.38151Zm-2.63428,5.64477a7.14575,7.14575,0,0,0,.56571,2.95461,2.4614,2.4614,0,0,0,1.58686,1.44521A2.38613,2.38613,0,0,0,86.269,58.7943a7.80039,7.80039,0,0,0-.01539-5.58294,2.31874,2.31874,0,0,0-2.28081-1.67056,2.43894,2.43894,0,0,0-2.33473,1.68A7.473,7.473,0,0,0,81.15921,56.02628Z"/><path class="cls-3" d="M48.33261,44.43331a13.22055,13.22055,0,0,1-3.13405,1.0408A65.74139,65.74139,0,0,1,36.456,46.82105a86.38954,86.38954,0,0,1-10.36516.41809A35.42369,35.42369,0,0,1,17.279,46.13893a6.42081,6.42081,0,0,1-1.49456-.58542.95925.95925,0,0,1-.5487-1.14139c.1009-.37175.47211-.60594,1.04207-.53529,1.07963.13384,2.15187.32621,3.22817.48769,1.59471.23925,3.20258.351,4.81044.43359,4.62721.23769,9.25806.17638,13.88718.0832,3.23806-.06517,6.4736-.22711,9.70554-.44678C48.04966,44.425,48.19142,44.43331,48.33261,44.43331Z"/><path class="cls-2" d="M117.14956,73.59472c-.29921-1.0875-.31885-.8315.43018-1.37585a6.02067,6.02067,0,0,1,4.105-1.2932,3.31947,3.31947,0,0,1,3.11119,3.08182c.08315,1.58811.03724,3.18292.04971,4.77477a5.81566,5.81566,0,0,0,.02212.61362,1.22949,1.22949,0,0,0,1.61468,1.11807c.12072-.03042.24-.06644.35909-.09962.01746.03419.04145.05976.04242.08617.03844,1.05524.02535,1.07009-.97871,1.43175a4.22472,4.22472,0,0,1-1.81377.2552,2.44236,2.44236,0,0,1-1.90749-1.264,6.61243,6.61243,0,0,1-2.33218,1.19209,2.54142,2.54142,0,0,1-3.21718-2.37361,2.50823,2.50823,0,0,1,1.88642-2.931,29.93989,29.93989,0,0,1,3.05532-.8254c.31622-.0804.40751-.20648.38445-.50749-.024-.31353-.002-.6303-.00811-.9455a1.83471,1.83471,0,0,0-2.44-1.94546A7.871,7.871,0,0,0,117.14956,73.59472Zm4.80581,4.87274c0-.36165-.00859-.72357.00335-1.08482.0067-.20329-.07862-.2436-.25323-.19759a5.9779,5.9779,0,0,0-1.75774.65815,1.426,1.426,0,0,0-.568,1.8137,1.12713,1.12713,0,0,0,1.28371.72254c.8947-.17726,1.29217-.60578,1.29217-1.3931Q121.95559,78.7269,121.95537,78.46746Z"/><path class="cls-2" d="M179.33643,59.1899a2.83339,2.83339,0,0,0-.025.33664c.05581.926-.48954,1.33589-1.28491,1.63064a7.70723,7.70723,0,0,1-4.78718.27752,5.056,5.056,0,0,1-3.75612-4.34769,6.78565,6.78565,0,0,1,.1224-3.09081,4.7827,4.7827,0,0,1,9.2419-.12465c.1126.35877.15658.73854.25932,1.101.0874.30829-.01981.3694-.31468.36773-1.97435-.0112-3.94895.0066-5.92311-.01619-.39921-.00461-.48241.13012-.43929.48148a9.46061,9.46061,0,0,0,.31543,1.7627,3.4393,3.4393,0,0,0,4.58755,2.51609A6.26651,6.26651,0,0,0,179.33643,59.1899Zm-5.0589-5.00767c.53543,0,1.07086.00091,1.60628-.00063.13519-.00039.29308.03881.25326-.20343a3.35762,3.35762,0,0,0-.90627-2.02256,1.44321,1.44321,0,0,0-2.223.22781,3.6712,3.6712,0,0,0-.5784,1.76869c-.03264.25768.1305.23058.28907.2304Q173.498,54.18158,174.27753,54.18223Z"/><path class="cls-2" d="M151.05647,59.19079c-.063.43985-.12707.82334-.16853,1.20925a.33862.33862,0,0,1-.21.28273,7.18925,7.18925,0,0,1-6.63906.40329,5.11588,5.11588,0,0,1-2.91476-4.44754,6.607,6.607,0,0,1,.30314-3.03117,4.779,4.779,0,0,1,9.0622.06873,10.26647,10.26647,0,0,1,.32266,1.27889c.07428.34739-.046.38621-.3438.38461-1.87993-.01013-3.76-.00513-5.63993-.00513-.73212,0-.73765.00054-.66549.74668a7.16142,7.16142,0,0,0,.29836,1.5265,3.43864,3.43864,0,0,0,4.52863,2.49331A6.68131,6.68131,0,0,0,151.05647,59.19079Zm-5.08994-5.0085c.53743,0,1.07491-.00373,1.61227.00212.17621.00192.31354.00026.26582-.24389a3.64755,3.64755,0,0,0-.80458-1.88533A1.455,1.455,0,0,0,144.71,52.19a3.37611,3.37611,0,0,0-.56611,1.72859c-.01946.208.04986.27279.2579.26779C144.92306,54.17386,145.4449,54.18226,145.96653,54.18229Z"/><path class="cls-2" d="M132.43368,73.07269c0,2.41348.00688,4.827-.00766,7.24039-.0021.34764.08015.48268.44564.45131.37662-.03233.7585.00153,1.13756-.01033.20117-.0063.26279.05807.27557.26537.05485.8895.06338.889-.83477.889-1.77068,0-3.54146-.01005-5.31195.00859-.348.00366-.50231-.07272-.44371-.43638a1.38528,1.38528,0,0,0,.00065-.37778c-.031-.26274.06045-.36624.339-.3513.40987.022.822-.00278,1.23275.00911.20156.00583.29785-.056.27542-.26619a2.23822,2.23822,0,0,1-.00121-.23648c0-4.401-.00553-8.80212.0096-13.20312.00135-.38871-.08265-.5388-.48524-.486-.26418.03468-.54041-.02186-.80458.01291-.4448.05855-.61122-.0734-.57478-.54949.047-.61385.011-.6166.64073-.61661,1.23315,0,2.46652.01251,3.69932-.00815.34008-.00569.41663.1008.41487.42473C132.42766,68.24571,132.43368,70.65921,132.43368,73.07269Z"/><path class="cls-2" d="M153.78828,61.07862c-.14707.18218-.03947.49757-.42071.49463-.60986-.00471-.61021.02488-.61029-.59452-.0001-.78849-.0055-1.577.005-2.36539.0019-.14213-.11271-.39524.19182-.37541.22146.01441.50415-.142.62.23907a3.00469,3.00469,0,0,0,.6814,1.17748,2.332,2.332,0,0,0,2.43466.77567,1.13488,1.13488,0,0,0,.53177-1.96108,6.367,6.367,0,0,0-1.39331-.97089,11.792,11.792,0,0,1-2.03005-1.38137,3.08252,3.08252,0,0,1-.963-3.50761,3.3281,3.3281,0,0,1,3.03272-2.20873,3.36709,3.36709,0,0,1,2.18635.44793c.17285.10557.30311.16332.36091-.11044.09661-.45748.47022-.27332.73216-.27357.32709-.00032.16678.28721.17109.43659.01953.67754.01515,1.35607.00317,2.034-.00251.14139.114.4056-.18719.37554-.23388-.02335-.55019.18431-.69086-.19987a4.30374,4.30374,0,0,0-.25541-.55692,1.83849,1.83849,0,0,0-2.37063-.89585,1.01428,1.01428,0,0,0-.52161,1.57841,2.8995,2.8995,0,0,0,1.04973.93543c.739.4527,1.52948.81894,2.23711,1.32468a3.32473,3.32473,0,0,1-1.777,6.1652A5.84319,5.84319,0,0,1,153.78828,61.07862Z"/><path class="cls-2" d="M188.52124,54.41648a5.70753,5.70753,0,0,0-.70639-.99558,1.37761,1.37761,0,0,0-2.05632-.03745,1.54615,1.54615,0,0,0-.56889,1.30571c.044,1.71713.023,3.43615.00929,5.1543-.00241.30188.06654.42091.38807.3964.377-.02873.75858.00758,1.13677-.01175.24689-.01262.318.06269.32251.314.01513.83729.02691.83707-.7878.83707-1.80109,0-3.60229-.01041-5.40317.00891-.35457.0038-.49579-.08318-.44041-.44157a1.69675,1.69675,0,0,0,.001-.42482c-.02348-.233.078-.29962.30032-.29248.42614.01367.85365-.01019,1.27935.00912.25616.01162.31717-.08454.31654-.3246q-.01046-3.87786.00148-7.75575c.00107-.28088-.099-.34995-.35733-.33508a9.0845,9.0845,0,0,1-.99481-.00038c-.17716-.00926-.46487.11076-.51084-.0932a3.25045,3.25045,0,0,1,.0036-.98065c.009-.101.16032-.06682.24979-.06694,1.40611-.00188,2.81226.00339,4.21831-.00592.23594-.00157.29369.0851.28726.30289-.01345.456-.00407.91272-.00407,1.40189.19736-.04321.23833-.20793.32237-.31986a5.10544,5.10544,0,0,1,1.3888-1.40373,1.95326,1.95326,0,0,1,2.6046.70035.47328.47328,0,0,1,.05075.221A7.24875,7.24875,0,0,1,188.52124,54.41648Z"/><path class="cls-2" d="M98.9078,54.42587c-.25811-.35509-.45506-.68189-.706-.96024a1.36451,1.36451,0,0,0-2.08388-.0871,1.5497,1.5497,0,0,0-.58345,1.30031c.0458,1.68566.0348,3.3737.00385,5.06-.00809.44012.13141.547.52942.49978.24929-.02958.51056.02814.75662-.01255.50332-.08324.56954.13975.58329.58769.01507.49106-.13577.5841-.59812.57711-1.86406-.02822-3.72888-.02118-5.59319-.00323-.34848.00335-.5017-.0735-.44373-.438a1.69134,1.69134,0,0,0,.00115-.42486c-.0223-.22875.07031-.3036.2972-.29582.42611.0146.85342-.0059,1.27957.00821.21908.00725.3028-.05184.30216-.28648q-.01076-3.92556.00011-7.85116c.00071-.24855-.11021-.28066-.31508-.27524-.41053.01086-.82193-.00737-1.23223.00723-.23434.00833-.32847-.04884-.33667-.30948-.0265-.84214-.03905-.84175.79123-.84175,1.20085,0,2.40188.01118,3.60244-.00759.31319-.00489.41329.08117.39477.393a8.07018,8.07018,0,0,0,.03981,1.31237,15.29578,15.29578,0,0,1,1.07261-1.24979,1.90022,1.90022,0,0,1,3.07733.08122c.10749.11654.21881.22.18257.40739A8.32808,8.32808,0,0,1,98.9078,54.42587Z"/><path class="cls-2" d="M94.0235,72.61849l4.499-4.32348c0,.90057.02205,1.69565-.00974,2.48857-.01487.37088.11.44457.45195.43264.74173-.02587,1.48523.00267,2.22752-.01359.26823-.00587.34417.076.34889.34473.0188,1.0713.0288,1.07111-1.04382,1.07113-.553,0-1.10639.01115-1.659-.0049-.24484-.00711-.32267.06336-.32124.31536.01146,2.01793.00345,4.036.01484,6.0539a2.96539,2.96539,0,0,0,.2842,1.28212,1.219,1.219,0,0,0,1.73613.62124,8.91781,8.91781,0,0,0,.844-.51831c.181-.11144.38433-.21508.56045-.03156.16737.17441.08318.38482-.0212.56812a2.28878,2.28878,0,0,1-1.24008.97424,4.94056,4.94056,0,0,1-3.02515.18034,2.62784,2.62784,0,0,1-1.98763-2.72515c-.05685-2.06378-.05113-4.12983-.03548-6.19462.00342-.45-.13577-.57042-.553-.52708C94.78586,72.64422,94.47148,72.61849,94.0235,72.61849Z"/><path class="cls-3" d="M26.56886,74.87049c-.08-.79832-.14031-1.58854-.24113-2.37359a22.09836,22.09836,0,0,0-2.454-8.2779,7.7922,7.7922,0,0,0-1.6094-2.03114,3.88836,3.88836,0,0,0-1.72759-.94028,2.63239,2.63239,0,0,0-2.74562.83449c-.06232.0712-.12035.14613-.18187.218-.0485.05671-.09932.11145-.15266.171a2.69981,2.69981,0,0,1,1.16234-3.92535,4.39185,4.39185,0,0,1,4.71665.65453,9.1973,9.1973,0,0,1,2.9084,4.39945,19.35263,19.35263,0,0,1,.48965,10.98582C26.71135,74.68018,26.74808,74.81459,26.56886,74.87049Z"/><path class="cls-2" d="M160.91749,52.09434l4.48466-4.31743c0,.81748,0,1.545,0,2.27248,0,.63091,0,.63093.60938.631.69516,0,1.39047.009,2.08536-.00482.24252-.00481.31844.06189.32573.31491.03185,1.10417.0414,1.10388-1.05179,1.1039-.553,0-1.10632.0124-1.65871-.0054-.254-.00819-.31644.077-.31513.32187.01068,2.0019.00288,4.00391.01351,6.00581a3.083,3.083,0,0,0,.26933,1.28546,1.23292,1.23292,0,0,0,1.80056.64508,8.65767,8.65767,0,0,0,.79977-.50136c.18423-.11753.39857-.20011.56487-.03073.16121.1642.08546.381-.01972.56957a1.92432,1.92432,0,0,1-.81848.76552,4.60806,4.60806,0,0,1-3.76166.27688,2.66611,2.66611,0,0,1-1.68356-2.75881c-.05262-2.03218-.03555-4.06659-.0178-6.0998.00352-.40348-.112-.52055-.49917-.481C161.71658,52.12093,161.38235,52.09434,160.91749,52.09434Z"/><path class="cls-2" d="M100.61214,52.09433l4.489-4.318c0,.90767.017,1.70324-.008,2.49749-.01059.33636.09417.42454.42214.41416.75746-.024,1.51638.00154,2.27433-.01287.24367-.00464.31513.06127.3208.31231.02508,1.10713.03446,1.10692-1.08777,1.10693-.53707,0-1.07425.00618-1.61116-.00307-.20589-.00355-.31816.03141-.31439.27863.03246,2.127-.05021,4.25483.04922,6.3812a2.62421,2.62421,0,0,0,.09766.55587,1.34221,1.34221,0,0,0,2.26866.85228c.19814-.12847.389-.27043.5966-.38127a.3514.3514,0,0,1,.4395.04048.37225.37225,0,0,1,.04121.4012,1.52928,1.52928,0,0,1-.69817.807,4.50572,4.50572,0,0,1-4.13265.32233,2.49887,2.49887,0,0,1-1.44423-2.12856,7.64994,7.64994,0,0,1-.0951-1.31821c.004-1.76523-.01694-3.53082.01438-5.29551.00808-.455-.14069-.55965-.54923-.51857C101.3757,52.11927,101.06081,52.09433,100.61214,52.09433Z"/><path class="cls-3" d="M45.4793,62.4627a2.88,2.88,0,0,0-3.71952-1.12314,5.469,5.469,0,0,0-2.43614,2.174,16.94761,16.94761,0,0,0-2.2685,5.921,33.35425,33.35425,0,0,0-.68381,5.05217.588.588,0,0,1-.071.26344A7.42021,7.42021,0,0,1,35.87,72.76013a19.91326,19.91326,0,0,1,1.36155-10.37351A7.2888,7.2888,0,0,1,40.24791,58.725a4.13648,4.13648,0,0,1,4.16254-.15865,2.66971,2.66971,0,0,1,1.26213,3.576C45.62618,62.23893,45.56188,62.327,45.4793,62.4627Z"/><path class="cls-3" d="M23.41522,76.29913a18.94571,18.94571,0,0,0-1.07483-4.1398,12.25993,12.25993,0,0,0-2.61112-4.29322,4.483,4.483,0,0,0-2.47059-1.39749,2.41434,2.41434,0,0,0-2.8013,1.41032,1.24168,1.24168,0,0,1-.11484.14571,2.11816,2.11816,0,0,1-.39054-2.00017,2.89829,2.89829,0,0,1,2.92472-2.17119,5.12738,5.12738,0,0,1,4.40785,2.34878,12.9938,12.9938,0,0,1,2.38675,6.0954,10.11022,10.11022,0,0,1-.08988,3.71327C23.55835,76.11343,23.57637,76.23745,23.41522,76.29913Z"/><path class="cls-3" d="M39.26868,76.3362a4.40471,4.40471,0,0,1-.29279-1.63314,14.03846,14.03846,0,0,1,2.19585-8.083,5.5929,5.5929,0,0,1,3.50519-2.631,3.95763,3.95763,0,0,1,2.85111.33671,2.59935,2.59935,0,0,1,1.28519,2.93479,1.46213,1.46213,0,0,1-.43781.76573,2.0258,2.0258,0,0,0-1.38816-1.436,3.44987,3.44987,0,0,0-2.45207.14954A6.17963,6.17963,0,0,0,41.97465,69.063a17.19467,17.19467,0,0,0-2.55156,6.75485A1.03342,1.03342,0,0,1,39.26868,76.3362Z"/><path class="cls-3" d="M22.83661,82.0974a11.14176,11.14176,0,0,1,2.25649-1.20784,19.67937,19.67937,0,0,1,8.94926-1.37779,16.88817,16.88817,0,0,1,3.50686.50461,4.25441,4.25441,0,0,1,1.17564.48687c.51927.33447.70539.74082.5437,1.17914-.14321.3882-.46816.515-1.13486.39974a35.73151,35.73151,0,0,0-4.22953-.49261,58.31284,58.31284,0,0,0-6.58241.09105c-1.40259.08521-2.80115.21548-4.19253.41585C23.076,82.10409,23.02076,82.0974,22.83661,82.0974Z"/><path class="cls-3" d="M22.9541,78.60229a11.759,11.759,0,0,1,3.219-1.55682,21.155,21.155,0,0,1,11.26313-.5178,6.4911,6.4911,0,0,1,1.065.38674,1.58445,1.58445,0,0,1,.5707.41528.81926.81926,0,0,1,.145,1.00345.72163.72163,0,0,1-.82582.31362c-1.07789-.15469-2.14965-.34741-3.23446-.45958a39.56378,39.56378,0,0,0-5.72981-.11177C27.26578,78.16558,25.1139,78.36823,22.9541,78.60229Z"/><path class="cls-3" d="M22.92254,48.378a7.13239,7.13239,0,0,1,5.52882,1.7385,10.67093,10.67093,0,0,1,3.38478,6.88242,4.67874,4.67874,0,0,1,.03014,1.4109c-.06658.36274-.21628.63621-.61419.66515-.43358.03152-.61621-.26986-.71193-.6247a20.10922,20.10922,0,0,0-1.35181-3.66968,13.11023,13.11023,0,0,0-5.31795-5.92049C23.56141,48.687,23.23882,48.53813,22.92254,48.378Z"/><path class="cls-3" d="M32.87614,55.42333a6.28772,6.28772,0,0,1,7.35674-7.86909C36.40769,48.932,34.26025,51.76377,32.87614,55.42333Z"/><path class="cls-2" d="M136.49413,68.84721A1.96921,1.96921,0,1,1,138.433,66.8679,1.973,1.973,0,0,1,136.49413,68.84721Zm-.02947-.36778a1.60466,1.60466,0,0,0,1.60682-1.583,1.6034,1.6034,0,1,0-1.60682,1.583Z"/><path class="cls-3" d="M16.94256,55.98487a.13856.13856,0,0,1,.01377-.03508c.00339-.00464.01609-.00252.02457-.00347l-.04588.03Z"/><path class="cls-2" d="M137.38928,67.87964c-.30337.10581-.50312.04953-.58133-.27612-.02884-.12011-.10458-.22825-.1431-.347-.06924-.21348-.243-.1603-.39221-.16108-.22558-.00117-.1757.172-.18127.30517-.00394.09409-.003.18853-.0005.28271.00355.13412.00061.24731-.19059.24209-.16523-.00451-.26776-.03376-.26517-.23138.0072-.54971.00584-1.09961.00049-1.64937-.00157-.16069.061-.2269.22118-.2214a8.10568,8.10568,0,0,1,1.03605.03408.56992.56992,0,0,1,.39371.95078c-.26384.2469-.16083.41424-.06725.63873C137.27858,67.58909,137.33217,67.73366,137.38928,67.87964Zm-.894-1.69422c-.235-.00093-.42542-.0522-.415.26546.00869.26429.112.32649.33925.29848.21075-.026.493.02013.5079-.28452C136.94385,66.129,136.65,66.20514,136.49527,66.18542Z"/></svg>