<svg id="Layer_1" data-name="Layer 1" xmlns="http://www.w3.org/2000/svg" viewBox="0 0 215 127"><defs><style>.cls-1{fill:transparent;}.cls-2{fill:#b9c200;}.cls-3{fill:#fff;}.cls-4{fill:#4d5152;}</style></defs><title>kubernetes.io-logos2</title><rect class="cls-1" x="-3.86923" y="-3.17679" width="223.25536" height="134.51136"/><path class="cls-2" d="M132.01169,16.02155H83.40541a6.79387,6.79387,0,0,0-6.78691,6.78691V71.41474a6.79387,6.79387,0,0,0,6.78691,6.78691H138.6988V22.80846a6.64741,6.64741,0,0,0-6.68711-6.78691"/><path class="cls-3" d="M107.95807,68.2209A21.51088,21.51088,0,0,0,129.5165,46.76227c0-2.79461-.89826-6.48749-.89826-5.58922a13.67512,13.67512,0,0,1-15.27056,13.37421c-5.98845-.79846-12.67556-6.28787-11.47787-14.97113a12.75333,12.75333,0,0,1,14.07287-11.27825c8.68325,1.19769,10.47979,7.785,7.8848,10.879a4.41757,4.41757,0,0,1-7.98461-2.595,4.295,4.295,0,0,1,1.69673-3.49326c-4.39154-1.2975-8.98268,2.19576-9.58153,6.78691a8.369,8.369,0,0,0,7.18615,9.48172c7.68518,1.09788,12.07672-5.09019,12.07672-10.5796,0-6.48749-6.88674-13.77344-19.16306-13.77344a21.60862,21.60862,0,0,0-.09981,43.21667"/><path class="cls-4" d="M152.37243,91.77548a10.18085,10.18085,0,1,0,10.28018,10.18037,10.18026,10.18026,0,0,0-10.28018-10.18037m0,3.49327a6.68786,6.68786,0,1,1-6.5873,6.6871,6.603,6.603,0,0,1,6.5873-6.6871M104.864,108.643a6.68786,6.68786,0,1,1,6.5873-6.6871,6.66635,6.66635,0,0,1-6.5873,6.6871m6.5873-16.36844v2.19577h-.09981a9.43621,9.43621,0,0,0-6.58729-2.69481,10.18085,10.18085,0,1,0,0,20.36074,8.87657,8.87657,0,0,0,6.48749-2.79461h.0998v2.096h3.69289v-19.163ZM128.61824,108.643a6.68786,6.68786,0,1,1,6.58729-6.6871,6.66636,6.66636,0,0,1-6.58729,6.6871m6.48749-25.55073V94.47029h-.09981a8.71081,8.71081,0,0,0-6.48749-2.79461,10.18085,10.18085,0,1,0,0,20.36073,8.87657,8.87657,0,0,0,6.48749-2.79461h.09981v2.096h3.69287V83.09222h-3.69287ZM91.1904,106.547a6.47955,6.47955,0,0,1-4.79076,2.096,6.68786,6.68786,0,0,1,0-13.37421,6.47955,6.47955,0,0,1,4.79076,2.096l1.79654-3.39346a10.53878,10.53878,0,0,0-6.5873-2.29558,10.18085,10.18085,0,1,0,0,20.36074,10.755,10.755,0,0,0,6.5873-2.29558L91.1904,106.547ZM63.14448,91.77548a10.18085,10.18085,0,1,0,10.28018,10.18037A10.18026,10.18026,0,0,0,63.14448,91.77548m0,3.49327a6.68786,6.68786,0,1,1-6.5873,6.6871,6.603,6.603,0,0,1,6.5873-6.6871"/></svg>