<svg id="Layer_1" data-name="Layer 1" xmlns="http://www.w3.org/2000/svg" viewBox="0 0 215 127"><defs><style>.cls-1{fill:transparent;}.cls-2{fill:#c8dc55;}.cls-3{fill:#394646;}</style></defs><title>kubernetes.io-logos2</title><rect class="cls-1" x="-4.92089" y="-2.95304" width="223.25536" height="134.51136"/><path class="cls-2" d="M27.05906,47.01456q.66441-.008,1.32885-.016A1.92886,1.92886,0,0,0,30.65828,48.677c.777-.05169,1.56037-.01017,2.34087-.00935,2.30578.00241,3.28515.70093,4.08807,2.90382.78526,2.15443,1.58582,4.30338,2.35786,6.46249A4.47189,4.47189,0,0,0,40.49815,59.681a15.1394,15.1394,0,0,1,4.49459,10.23241A15.548,15.548,0,0,1,27.29879,86.0479a14.77809,14.77809,0,0,1-12.3343-9.34377A14.44536,14.44536,0,0,1,16.958,61.215,24.09618,24.09618,0,0,0,20.723,54.48042c.46094-1.2373.97628-2.455,1.48865-3.67252a3.279,3.279,0,0,1,2.9548-2.14408A1.763,1.763,0,0,0,27.05906,47.01456Zm6.82933,29.59683a5.29123,5.29123,0,0,0,3.718-1.51614,1.5714,1.5714,0,0,0,.11025-2.30653,1.51231,1.51231,0,0,0-2.19989-.25756,2.38648,2.38648,0,0,1-3.27451.0123,1.65212,1.65212,0,0,0-2.11649,2.5274A5.23925,5.23925,0,0,0,33.88839,76.61139Zm.6426-10.0711a2.10118,2.10118,0,0,0,1.95349,2.19131,2.05832,2.05832,0,0,0,2.2612-1.98034,2.11,2.11,0,1,0-4.21469-.211ZM31.4116,68.73407a2.10344,2.10344,0,0,0,2.14954-2.11879,2.149,2.149,0,0,0-2.08845-2.0848,2.12109,2.12109,0,0,0-2.12939,2.14441A2.056,2.056,0,0,0,31.4116,68.73407Z"/><path class="cls-3" d="M27.05906,47.01456a1.763,1.763,0,0,1-1.89263,1.64926,3.279,3.279,0,0,0-2.9548,2.14408c-.51237,1.21751-1.02771,2.43522-1.48865,3.67252A24.09618,24.09618,0,0,1,16.958,61.215a14.44536,14.44536,0,0,0-1.99355,15.48918,14.77809,14.77809,0,0,0,12.3343,9.34377A15.548,15.548,0,0,0,44.99274,69.91344,15.1394,15.1394,0,0,0,40.49815,59.681,4.47189,4.47189,0,0,1,39.44508,58.034c-.772-2.15911-1.5726-4.30806-2.35786-6.46249-.80292-2.20289-1.78229-2.90141-4.08807-2.90382-.7805-.00082-1.56383-.04234-2.34087.00935a1.92886,1.92886,0,0,1-2.27037-1.67845,51.1336,51.1336,0,0,1-.704-5.89209c.15935-6.9622,6.95591-12.89908,13.81114-11.99509,1.3898.18328,1.82583.64176,1.915,2.01357A12.57442,12.57442,0,0,1,35.16011,44.022c-1.06609.39387-1.98694.44493-2.62161-.67442-.27389-.48305-.67537-.301-1.02975-.21365-.45867.11312-.23193.48417-.22476.7715.02785,1.11521.48239,1.58937,1.70148,1.47449a6.81892,6.81892,0,0,1,7.264,5.0031c.325,1.11513.83563,2.17525,1.19153,3.28287a18.31213,18.31213,0,0,0,2.95171,5.46082c4.76793,6.34063,5.41052,13.29023,1.74075,20.28158-3.60284,6.86384-9.59006,10.36281-17.39375,10.09084-8.055-.28072-13.87969-4.34619-16.91428-11.7433C8.78562,70.346,10.28711,63.49868,15.656,57.53293a4.14215,4.14215,0,0,0,.7791-1.278c.87514-2.20224,1.70672-4.42308,2.63957-6.60076a6.55451,6.55451,0,0,1,5.89805-4.28536C26.3377,45.27672,26.71565,45.62823,27.05906,47.01456Z"/><path class="cls-3" d="M132.25619,65.61411c-.00007-2.80109-.00711-5.60221.00255-8.40327.00588-1.70444.62067-2.348,2.32556-2.29967,2.83949.08043,5.69781-.30577,8.51739.24687,5.529,1.08368,8.87353,5.53347,8.56677,11.34152a10.53849,10.53849,0,0,1-9.86053,9.67418c-2.56315.174-5.1462.08956-7.71966.06434-1.1815-.01157-1.81763-.77838-1.82631-2.104C132.24335,71.29419,132.25625,68.45411,132.25619,65.61411Zm3.84319-.097c0,2.14164.019,4.28355-.01163,6.42476-.00914.63917.16317.91073.84936.87992,1.4023-.063,2.81045-.01089,4.21106-.09322a6.82567,6.82567,0,0,0,6.504-6.21666,7.02174,7.02174,0,0,0-5.00806-7.84126c-1.99071-.56277-4.03459-.26753-6.0562-.314-.62138-.0143-.48146.49576-.48324.8524C136.094,61.31166,136.0994,63.41439,136.09938,65.5171Z"/><path class="cls-3" d="M58.673,65.69621c0-2.84238-.00564-5.68476.00217-8.52712.00452-1.6422.62122-2.26242,2.24453-2.26661,2.38138-.00614,4.76451-.05817,7.14384.01218,5.16876.15283,8.37579,4.41836,6.97318,9.27847C74.1562,67.244,71.843,68.64667,68.88984,69.22a27.08215,27.08215,0,0,1-5.48782.19542c-.74-.00772-.93073.223-.901.92473.05271,1.24375.0242,2.49141.01219,3.73727-.0146,1.51559-.75853,2.397-1.96954,2.36145-1.20268-.03529-1.86585-.852-1.869-2.33237C58.66869,71.30309,58.673,68.49964,58.673,65.69621Zm3.84384-3.79214c0,1.26186.00084,2.30948-.00047,3.3571-.00044.35891-.02124.72308.51086.69938,1.89675-.0845,3.82125.25653,5.68668-.28512a3.571,3.571,0,0,0,2.68137-3.86256,3.4577,3.4577,0,0,0-3.036-3.31758,10.77915,10.77915,0,0,0-2.08994-.14213c-1.19758.01682-2.76607-.5052-3.49452.19243C61.97976,59.307,62.63268,60.89606,62.51679,61.90407Z"/><path class="cls-3" d="M191.65313,67.28168c2.01754-1.97967,4.00684-3.93344,5.99884-5.88446a13.38409,13.38409,0,0,1,1.023-.95678,1.75026,1.75026,0,0,1,2.51749-.00176,1.804,1.804,0,0,1-.1465,2.52824c-1.06855,1.07686-2.208,2.08446-3.32948,3.10817-1.147,1.047-1.15673,1.04226-.19466,2.30151,1.25258,1.63953,2.51811,3.26927,3.76406,4.91377.81744,1.0789.79394,2.16518-.0295,2.78171a1.98269,1.98269,0,0,1-2.85518-.59786q-2.00423-2.5836-3.93586-5.22279c-.3918-.536-.57817-.681-1.218-.17388a4.19281,4.19281,0,0,0-1.80782,4.06732,1.8571,1.8571,0,0,1-1.85472,2.297c-1.17775-.00445-1.86322-.84031-1.86462-2.32193q-.00848-8.98945-.0004-17.97894c.00119-1.50181.657-2.33825,1.82149-2.36573,1.21277-.0286,1.93033.84861,1.93154,2.37577.00268,3.34673-.00337,6.69348.00744,10.04017A1.53036,1.53036,0,0,0,191.65313,67.28168Z"/><path class="cls-3" d="M85.61008,69.56107c-1.48356.00107-2.96852.03959-4.45016-.01378-.85021-.03063-.88843.33124-.67871.97914.89184,2.75525,4.26276,3.87838,7.09667,2.34653.34118-.18442.65071-.42718.97449-.64353.90291-.60332,1.77574-.557,2.26307.19027a1.594,1.594,0,0,1-.40634,2.27948A8.61531,8.61531,0,0,1,84.32022,76.643a8.05367,8.05367,0,0,1-7.82578-7.41469,8.32189,8.32189,0,0,1,6.10431-9.26521,7.6793,7.6793,0,0,1,9.514,7.4695,1.83757,1.83757,0,0,1-2.05222,2.118C88.57814,69.59267,87.09365,69.56,85.61008,69.56107Zm-5.29944-2.50718c2.48939,0,4.97456-.01568,7.4593.01026.68.0071.63877-.29716.52939-.79382A3.98583,3.98583,0,0,0,84.099,62.87226C82.04056,62.99876,80.51323,64.664,80.31064,67.05389Z"/><path class="cls-3" d="M104.71872,74.52936A7.1542,7.1542,0,0,1,96.909,76.09967a4.93721,4.93721,0,0,1,.20338-9.23222,11.67431,11.67431,0,0,1,6.80762-.12708c.94868.23968.97132-.09118.86894-.80046-.23352-1.61786-1.47789-2.6507-3.406-2.76966a10.28437,10.28437,0,0,0-3.80349.52c-1.16726.37473-2.0855.04687-2.3703-.799-.33465-.99389.13131-1.77995,1.33237-2.21012a13.71064,13.71064,0,0,1,5.75895-.77457c4.02138.32146,6.06733,2.48592,6.19951,6.62223.08332,2.60728.034,5.21952.00881,7.82919A1.87415,1.87415,0,0,1,106.7453,76.439C105.65683,76.50613,105.004,75.9155,104.71872,74.52936Zm-3.27894-5.84094a5.40422,5.40422,0,0,0-2.80852.688,2.31039,2.31039,0,0,0-.21855,3.84021c1.76861,1.35706,5.26371.513,6.19488-1.49612.78333-1.69011.38354-2.47648-1.43777-2.79487C102.59684,68.82546,102.01666,68.76633,101.43978,68.68842Z"/><path class="cls-3" d="M162.59285,69.562c-1.52115,0-3.04265.01911-4.56328-.00887-.66113-.01216-.78851.169-.5908.81809a4.72556,4.72556,0,0,0,6.56367,2.75936,11.63221,11.63221,0,0,0,1.69344-1.0179,1.44411,1.44411,0,0,1,2.08686.26,1.4635,1.4635,0,0,1-.15912,2.10717,7.92692,7.92692,0,0,1-4.59032,2.10055,8.13381,8.13381,0,0,1-9.33078-6.23514c-1.05013-4.392,1.18556-8.82185,5.13156-10.16789a7.62916,7.62916,0,0,1,10.21984,7.38683c-.01757,1.32208-.56315,1.93917-1.89807,1.98195-1.51956.04869-3.04189.01126-4.563.01126Zm-1.4269-2.50773c1.08746,0,2.17934-.06048,3.26108.018.97.07036.99583-.36988.80466-1.09583a3.95552,3.95552,0,0,0-4.087-3.1065,4.30171,4.30171,0,0,0-3.82443,3.50876c-.08747.51331.05227.69736.58352.68355C158.99049,67.034,160.07847,67.05381,161.166,67.05431Z"/><path class="cls-3" d="M178.89437,76.64691a8.43149,8.43149,0,1,1,5.38227-15.18356,1.8524,1.8524,0,0,1,.66209,2.62324c-.61489.86264-1.70873.92959-2.78465.17045-2.40324-1.69566-4.94577-1.53843-6.60342.40833a5.61036,5.61036,0,0,0,.19545,7.26838,4.80322,4.80322,0,0,0,6.01139.64148,9.5311,9.5311,0,0,0,.85222-.6146,1.62558,1.62558,0,1,1,2.12506,2.45777A7.931,7.931,0,0,1,178.89437,76.64691Z"/><path class="cls-3" d="M116.17308,62.679a8.7714,8.7714,0,0,1,1.54106-1.87106,3.59726,3.59726,0,0,1,1.98314-.9133,1.7466,1.7466,0,0,1,2.07144,1.43413,1.72036,1.72036,0,0,1-1.38385,2.20351c-3.03477.52134-4.41367,3.04559-4.4373,5.85091-.01408,1.67228.03242,3.34616-.02577,5.01664a1.90026,1.90026,0,0,1-1.93589,2.0397A1.83421,1.83421,0,0,1,112.13,74.56709q-.06731-6.35844-.0043-12.71795a1.88018,1.88018,0,0,1,1.79311-1.95764,1.98548,1.98548,0,0,1,2.00283,1.87112C115.96952,62.0453,115.81838,62.3801,116.17308,62.679Z"/><path class="cls-3" d="M203.07286,55.11782c.15609-.4052.22926-.584.294-.7657.11288-.31692.12963-.77408.62806-.66.40977.09378.29594.49928.28482.78988a4.59354,4.59354,0,0,1-.11617,1.64026c-.34735-.08915-.62426-1.08808-.95224-.0918-.41817-.40084-1.26883-.015-1.28815-.12694a5.51006,5.51006,0,0,1-.00207-2.06257c.07207-.33368.53958-.22192.715.11505A11.27623,11.27623,0,0,1,203.07286,55.11782Z"/><path class="cls-3" d="M199.54419,53.80122h1.96818a1.3832,1.3832,0,0,0-.68209,1.56378c.02585.26051.14157.71573-.33952.68724-.35888-.02124-.25274-.41111-.26927-.663C200.184,54.81927,200.44845,54.1074,199.54419,53.80122Z"/><path class="cls-3" d="M33.88839,76.61139a5.23925,5.23925,0,0,1-3.76263-1.54053,1.65212,1.65212,0,0,1,2.11649-2.5274,2.38648,2.38648,0,0,0,3.27451-.0123,1.51231,1.51231,0,0,1,2.19989.25756,1.5714,1.5714,0,0,1-.11025,2.30653A5.29123,5.29123,0,0,1,33.88839,76.61139Z"/><path class="cls-3" d="M34.531,66.54029a2.11,2.11,0,1,1,4.21469.211,2.05832,2.05832,0,0,1-2.2612,1.98034A2.10118,2.10118,0,0,1,34.531,66.54029Z"/><path class="cls-3" d="M31.4116,68.73407a2.056,2.056,0,0,1-2.0683-2.05918,2.12109,2.12109,0,0,1,2.12939-2.14441,2.149,2.149,0,0,1,2.08845,2.0848A2.10344,2.10344,0,0,1,31.4116,68.73407Z"/></svg>