<svg id="Layer_1" data-name="Layer 1" xmlns="http://www.w3.org/2000/svg" viewBox="0 0 215 127"><defs><style>.cls-1{fill:transparent;}.cls-2{fill:#1a237e;}.cls-3{fill:#172d72;}.cls-4{fill:#10a6fa;}.cls-5{fill:#3351ff;}</style></defs><title>kubernetes.io-logos2</title><rect class="cls-1" x="-4.74781" y="-4.12296" width="223.25536" height="134.51136"/><path class="cls-2" d="M37.10629,49.8563l-21.556-6.14854a2.32671,2.32671,0,0,0-2.96549,2.23761V85.67778a2.32882,2.32882,0,0,0,2.32242,2.328,2.34709,2.34709,0,0,0,.54415-.06435l21.55614-5.13762h.00012a2.31961,2.31961,0,0,0,1.78747-2.26369V52.09439A2.33746,2.33746,0,0,0,37.10629,49.8563Z"/><path class="cls-3" d="M153.704,69.18841h-.008l-.05617.08906a9.8204,9.8204,0,0,1-3.36007,3.20787,8.99162,8.99162,0,0,1-4.59992,1.33028,9.18343,9.18343,0,0,1-6.96149-3.17641A10.73277,10.73277,0,0,1,135.93129,63.05a10.56554,10.56554,0,0,1,2.87657-7.19837,9.31614,9.31614,0,0,1,14.802,1.42571l.05637.08757h.0541l2.2873-1.41418a12.68144,12.68144,0,0,0-3.77833-4.01627,11.79162,11.79162,0,0,0-6.54776-1.98039,11.48418,11.48418,0,0,0-8.74292,3.725A13.14057,13.14057,0,0,0,133.27,63.17767a13.73041,13.73041,0,0,0,3.63437,9.52778,11.41872,11.41872,0,0,0,8.6544,3.92759c.04148,0,.08315-.00021.12475-.00063a11.973,11.973,0,0,0,10.3151-6.02531Z"/><polygon class="cls-3" points="170.788 50.285 167.681 50.285 156.131 76.137 159.817 76.137 163.386 67.544 163.392 67.544 164.653 64.859 164.648 64.859 169.297 53.948 173.854 64.859 167.313 64.859 166.121 67.544 174.915 67.544 178.517 76.137 181.766 76.137 170.788 50.285"/><path class="cls-3" d="M198.66156,52.65016a9.26362,9.26362,0,0,0-6.41458-2.33247h-8.3653V76.13651H186.93V66.02369h.00075V63.30585H186.93V53.10174h5.44916a6.05209,6.05209,0,0,1,3.97382,1.37851,4.43489,4.43489,0,0,1,1.806,3.4215,4.53924,4.53924,0,0,1-1.61977,3.93662,5.73177,5.73177,0,0,1-3.99487,1.46748h-3.15645v2.71784H193.04a8.16929,8.16929,0,0,0,5.6887-2.16806,7.1,7.1,0,0,0,2.44523-5.368A7.30676,7.30676,0,0,0,198.66156,52.65016Z"/><path class="cls-4" d="M51.79014,48.44325a2.33792,2.33792,0,0,0-1.68623-2.23235L22.66667,38.35125a2.32707,2.32707,0,0,0-2.968,2.2369v30.149a2.32848,2.32848,0,0,0,2.3223,2.3278,2.3421,2.3421,0,0,0,.54942-.06555l27.46821-6.6119a2.31961,2.31961,0,0,0,1.78239-2.267Z"/><path class="cls-5" d="M37.10629,49.8563,19.69867,44.891v25.8461a2.32848,2.32848,0,0,0,2.3223,2.3278,2.3421,2.3421,0,0,0,.54942-.06555L38.79508,69.0939V52.09439A2.33746,2.33746,0,0,0,37.10629,49.8563Z"/><rect class="cls-2" x="85.15301" y="50.79427" width="3.04719" height="3.04719"/><rect class="cls-2" x="85.15301" y="57.62199" width="3.04719" height="18.55402"/><path class="cls-2" d="M131.05244,74.31986v-7.967a10.13143,10.13143,0,0,0-10.19062-10.08615,9.59233,9.59233,0,0,0-6.81493,3.07035,9.83188,9.83188,0,0,0-2.76544,6.98019,10.02667,10.02667,0,0,0,3.00052,7.24833,9.309,9.309,0,0,0,7.15662,2.86854,9.49975,9.49975,0,0,0,6.73066-3.01977V74.6786m0,0a5.80025,5.80025,0,0,1-1.986,4.38139,6.64244,6.64244,0,0,1-4.65272,1.89407,6.80987,6.80987,0,0,1-4.14535-1.3833,6.35366,6.35366,0,0,1-2.19729-2.58174l-2.33331,1.34714a8.95056,8.95056,0,0,0,2.436,2.945,10.01087,10.01087,0,0,0,5.93453,2.093q.21807.00859.43392.00849a10.01393,10.01393,0,0,0,6.376-2.26668,7.48089,7.48089,0,0,0,3.01743-6.074v-.7222m-2.94919-7.77467a7.15858,7.15858,0,0,1-2.05924,4.95338A6.29606,6.29606,0,0,1,121.2662,73.551a6.68629,6.68629,0,0,1-4.94657-2.05594,6.90735,6.90735,0,0,1-2.12205-4.98282,7.01857,7.01857,0,0,1,1.93033-5.04913,6.6733,6.6733,0,0,1,4.78429-2.31366c.124-.006.24635-.00893.36783-.00893a6.25462,6.25462,0,0,1,4.7642,2.12788A6.97973,6.97973,0,0,1,128.10325,66.54519Z"/><path class="cls-2" d="M79.72761,52.65016A9.26359,9.26359,0,0,0,73.313,50.31769h-8.3653V76.13651h3.04835V66.02369h.00075V63.30585h-.00075V53.10174h5.44917a6.05211,6.05211,0,0,1,3.97382,1.37851,4.43492,4.43492,0,0,1,1.806,3.4215,4.53927,4.53927,0,0,1-1.61977,3.93662,5.73182,5.73182,0,0,1-3.99488,1.46748H70.45394v2.71784h3.65214a8.16926,8.16926,0,0,0,5.68869-2.16806,7.1,7.1,0,0,0,2.44523-5.368A7.3067,7.3067,0,0,0,79.72761,52.65016Z"/><path class="cls-2" d="M100.16589,56.48686a8.23659,8.23659,0,0,0-6.10754,2.49853,8.5458,8.5458,0,0,0-2.42971,6.20353V76.09816h2.94019V64.92532a5.33734,5.33734,0,0,1,1.6541-3.943,5.40682,5.40682,0,0,1,3.943-1.65422,5.26391,5.26391,0,0,1,3.87691,1.65422,5.35592,5.35592,0,0,1,1.68721,3.943V76.09816h2.94019V65.18892a8.54585,8.54585,0,0,0-2.42988-6.20353A8.19692,8.19692,0,0,0,100.16589,56.48686Z"/></svg>