<svg id="Layer_1" data-name="Layer 1" xmlns="http://www.w3.org/2000/svg" viewBox="0 0 215 127"><defs><style>.cls-1{fill:transparent;}.cls-2{fill:#fff;}.cls-3{fill:#e60019;}</style></defs><title>kubernetes.io-logos</title><rect class="cls-1" x="-3.35417" y="-4.36563" width="223.25536" height="134.51136"/><path class="cls-2" d="M161.62125,64.02487A54.12125,54.12125,0,1,1,107.5,9.90362,54.12125,54.12125,0,0,1,161.62125,64.02487Z"/><path class="cls-3" d="M107.5,9.90362A54.13832,54.13832,0,0,0,87.76673,114.44909c-.49-4.27669-.89069-10.86887.17849-15.54628.97993-4.23162,6.32534-26.90466,6.32534-26.90466a19.71223,19.71223,0,0,1-1.60376-8.0179c0-7.52794,4.36505-13.14064,9.7997-13.14064,4.63278,0,6.85993,3.4748,6.85993,7.61717,0,4.63278-2.94022,11.58151-4.49891,18.04027-1.29184,5.39,2.7171,9.80015,8.01789,9.80015,9.62166,0,17.01573-10.15625,17.01573-24.76677,0-12.96259-9.30975-22.005-22.62843-22.005-15.4124,0-24.45486,11.53689-24.45486,23.47493a21.12584,21.12584,0,0,0,4.009,12.33876,1.61123,1.61123,0,0,1,.35654,1.55913c-.40117,1.69256-1.33646,5.39-1.51451,6.14685-.22267.98036-.80188,1.203-1.82643.71307-6.77068-3.16289-11.0023-13.00677-11.0023-20.98049,0-17.06034,12.38338-32.74,35.76862-32.74,18.75334,0,33.36387,13.36331,33.36387,31.27015,0,18.6641-11.75955,33.67535-28.06264,33.67535-5.47928,0-10.6462-2.851-12.38382-6.2361L98.101,101.62035c-1.2026,4.72158-4.49892,10.60158-6.72606,14.20937A54.16963,54.16963,0,1,0,107.5,9.90362Z"/></svg>