<svg id="Layer_1" data-name="Layer 1" xmlns="http://www.w3.org/2000/svg" viewBox="0 0 215 127"><defs><style>.cls-1{fill:transparent;}.cls-2{fill:#0d3e66;}</style></defs><title>kubernetes.io-logos2</title><rect class="cls-1" x="-3.35417" y="-4.36563" width="223.25536" height="134.51136"/><path class="cls-2" d="M101.223,64.40689A19.12774,19.12774,0,1,1,82.09679,45.31077,19.04037,19.04037,0,0,1,101.223,64.40689ZM82.13983,51.43111A12.98147,12.98147,0,1,0,95.11778,64.4027,12.96522,12.96522,0,0,0,82.13983,51.43111Z"/><path class="cls-2" d="M126.26212,67.7127c.87786-2.59667,1.56151-5.19288,2.16751-7.80946.49524-2.13832.99166-4.27652,1.45885-6.421.083-.38115.21927-.52034.61364-.51682,1.88949.01683,3.77967.03033,5.6686-.00621.58945-.01141.53579.22892.41887.62793-1.29117,4.40624-2.63,8.79743-4.08933,13.15179-.96134,2.8684-1.99107,5.71038-3.13519,8.51188a.78919.78919,0,0,1-.87748.59989q-1.92168-.05712-3.846.00071c-.48159.015-.65862-.16664-.79488-.59177-1.25792-3.92447-2.58839-7.82633-3.65465-11.80989-.045-.16828-.11592-.32969-.22482-.63435-.5065,1.79425-.94964,3.45447-1.44537,5.09891-.74332,2.46581-1.53086,4.91834-2.28075,7.38222a.64441.64441,0,0,1-.74461.55328c-1.28135-.034-2.56507-.03927-3.846.0015a.83.83,0,0,1-.92684-.62673c-2.01667-4.99091-3.65445-10.11112-5.24849-15.24591-.66408-2.13919-1.26734-4.29714-1.92552-6.43822-.1393-.45316-.06454-.58136.41892-.57606q2.83413.03105,5.66875-.00005c.43114-.00448.61221.10716.71393.56147.99811,4.45843,1.98474,8.92027,3.20964,13.32424a1.45125,1.45125,0,0,0,.404.91226c.68526-2.52819,1.37583-5.007,2.02624-7.49634q.86633-3.31563,1.65279-6.6518c.11836-.4975.31168-.68.84844-.65692,1.16762.05012,2.3391.02794,3.50856.00867.38112-.00627.53166.10853.62392.50048,1.0725,4.55652,2.14343,9.1139,3.43886,13.61448C126.12479,67.293,126.19577,67.50216,126.26212,67.7127Z"/><path class="cls-2" d="M18.57315,60.98126c0-4.71112.011-9.42229-.01459-14.13326-.003-.56115.14833-.78671.70662-.86682a47.64515,47.64515,0,0,1,12.28926-.40545,16.79328,16.79328,0,0,1,5.2972,1.45743,7.98248,7.98248,0,0,1,4.7193,6.8598,13.26945,13.26945,0,0,1-.30865,4.86975c-.89733,3.31749-3.3001,5.05339-6.40728,6.02415a27.38513,27.38513,0,0,1-8.60256.95447c-.98663-.0122-.86531-.12582-.86735.84734-.006,2.84909-.01651,5.69834.01053,8.54719.00514.54119-.10629.73005-.69.71684q-2.697-.061-5.39622-.00031c-.58945.01311-.75411-.13708-.75078-.73786C18.58481,70.40355,18.57315,65.69237,18.57315,60.98126Zm6.81011-5.43914c0,1.30171.01384,2.60365-.00807,3.905-.007.41331.1286.5495.54016.5362.809-.02613,1.621.02372,2.429-.0148a11.69384,11.69384,0,0,0,4.14788-.7795,3.08942,3.08942,0,0,0,1.90765-2.04938c.78194-2.97109-.17942-5.23877-3.47644-5.81139a21.84237,21.84237,0,0,0-5.10895-.13539c-.43968.027-.43488.268-.43355.57884C25.38634,53.02847,25.3832,54.2853,25.38326,55.54212Z"/><path class="cls-2" d="M188.194,66.54491q-3.33969.00007-6.67936.00058c-.74527.00049-.78979.03888-.563.75694a4.97881,4.97881,0,0,0,4.405,3.4464,15.56708,15.56708,0,0,0,7.50094-.761c.58973-.19918.66579-.00807.73835.47368.19686,1.30649.40775,2.61166.65449,3.90951a.69564.69564,0,0,1-.555.93515,24.22358,24.22358,0,0,1-8.57466,1.0991,12.65375,12.65375,0,0,1-4.078-.80715,9.78941,9.78941,0,0,1-6.43719-7.29243,14.50764,14.50764,0,0,1,1.0513-10.27226A10.66223,10.66223,0,0,1,186.0993,52.3836a10.075,10.075,0,0,1,6.65282,2.841,10.441,10.441,0,0,1,2.73247,5.94653,26.36177,26.36177,0,0,1,.13505,4.83382c-.0116.439-.18539.55309-.61147.54935C192.73691,66.53429,190.46539,66.54486,188.194,66.54491Zm-3.07577-4.41437c1.25931,0,2.51863.004,3.77789-.00375.22461-.00138.50295.08694.526-.32238a4.25234,4.25234,0,0,0-3.05345-3.99856,4.33216,4.33216,0,0,0-5.479,3.83518c-.06048.42389.07971.49892.45066.49486C182.59948,62.12211,183.85887,62.13063,185.11818,62.13054Z"/><path class="cls-2" d="M160.687,76.41272a19.64754,19.64754,0,0,1-6.86211-1.07308c-.56851-.18463-.70585-.411-.56425-.98918.31415-1.28275.57037-2.58084.8084-3.8803.09225-.50365.21275-.642.756-.44074a17.18367,17.18367,0,0,0,7.26654,1.13558,6.879,6.879,0,0,0,1.06445-.15544,1.38761,1.38761,0,0,0,1.15566-1.08793,1.45415,1.45415,0,0,0-.579-1.54661,10.25031,10.25031,0,0,0-2.51112-1.28271A38.77646,38.77646,0,0,1,157.3827,65.462a6.86719,6.86719,0,0,1-2.66513-9.70014,7.39789,7.39789,0,0,1,5.27115-3.17021,20.141,20.141,0,0,1,9.25155.73948c.41713.12314.53565.31284.438.72242-.31159,1.30731-.62168,2.61553-.89343,3.93141-.09085.43991-.22087.54625-.67148.39754a15.30433,15.30433,0,0,0-4.95825-.84494,5.61441,5.61441,0,0,0-1.98388.326,1.51067,1.51067,0,0,0-.3269,2.72164,13.21755,13.21755,0,0,0,2.73028,1.29843,26.3756,26.3756,0,0,1,4.20911,1.9501c2.52957,1.51478,3.21428,3.85631,2.96338,6.585a5.88038,5.88038,0,0,1-4.20123,5.17327A14.97849,14.97849,0,0,1,160.687,76.41272Z"/><path class="cls-2" d="M46.17367,65.01888c0-3.36682.01115-6.73371-.0112-10.10039a.85305.85305,0,0,1,.69976-1.00048,27.95086,27.95086,0,0,1,8.80686-1.43315,23.3059,23.3059,0,0,1,4.60267.60365c.57819.13063.82228.30191.64911.97883-.34377,1.3437-.58636,2.71436-.83576,4.08024-.08584.47012-.3035.51069-.70407.40657a13.7337,13.7337,0,0,0-6.069-.37352c-.51295.09647-.703.26742-.70094.81248.02015,5.3644.00052,10.72895.02749,16.09329.00321.63658-.1914.77972-.79169.765-1.61893-.03961-3.24037-.04457-4.85893.00189-.63732.01831-.83806-.133-.83083-.80148C46.1933,71.70785,46.17367,68.36326,46.17367,65.01888Z"/><path class="cls-2" d="M147.602,64.48456c.00008,3.52214-.01843,7.04446.01647,10.56625.0066.66566-.18961.82015-.82882.80267-1.68527-.0461-3.37284-.02961-5.05905-.00624-.44641.00619-.61993-.08141-.61881-.57863q.02447-10.86921.00218-21.7385c-.00078-.44146.12721-.57191.56725-.56635,1.75371.02214,3.50833.03153,5.2616-.00421.55257-.01126.67122.18114.66869.68944C147.59358,57.26078,147.602,60.87269,147.602,64.48456Z"/><path class="cls-2" d="M140.5681,46.079a3.55318,3.55318,0,0,1,3.7449-3.77564,3.77883,3.77883,0,1,1,.07,7.556A3.57835,3.57835,0,0,1,140.5681,46.079Z"/><path class="cls-2" d="M74.63285,64.82715a7.63631,7.63631,0,0,1,7.03611-8.0411c.31232-.01143.40527.06834.43915.39542a3.88333,3.88333,0,0,0,6.01933,3.09717c.34716-.19371.4859-.12606.68385.17354,2.89555,4.38245-.15691,10.87716-5.40553,11.487a7.60782,7.60782,0,0,1-8.63258-6.04794C74.69832,65.54256,74.67833,65.18214,74.63285,64.82715Z"/></svg>