<svg id="Layer_1" data-name="Layer 1" xmlns="http://www.w3.org/2000/svg" viewBox="0 0 215 127"><defs><style>.cls-1{fill:transparent;}.cls-2{fill:none;}.cls-3{fill:#0011f6;stroke:#0011f6;}.cls-3,.cls-4{stroke-linecap:round;stroke-linejoin:round;stroke-width:0.06931px;fill-rule:evenodd;}.cls-4{fill:#fe7d02;stroke:#fe7d02;}</style></defs><title>kubernetes.io-logos2</title><rect class="cls-1" x="-3.35417" y="-4.36563" width="223.25536" height="134.51136"/><path class="cls-2" d="M12.29864,3.67745h191.175v117.0947H12.29864Z"/><path class="cls-3" d="M167.117,73.73114h2.63439l.27719.06931.13861.0693.13861.20838.06929.2079v2.63344l-.1386.347-.13861.1386-.13861.0693H166.909l-.1386-.0693-.13861-.1386-.13861-.34651V74.286l.0693-.2079.13861-.20839.1386-.0693.2772-.0693Z"/><path class="cls-4" d="M75.41125,53.55979H80.541l.48511.13908.2079.34651.0693.2079v3.1888l-.0693.2772-.1386.2079-.0693.0693-.27721.1386-.2079.0693h-3.7432l-1.386.13861-1.10929.3465-1.10882.55441-.90139.76279-.693,1.03951c-1.74351,3.84262-1.28565,10.88646,3.95063,11.784l1.386.06931H80.541l.2079.0693.27721.1386.0693.0693.1386.27721.0693.2079V76.92l-.0693.2079-.2079.34651-.48511.1386h-5.1297l-1.80183-.1386-1.5944-.4158-1.5944-.693-1.31719-.90139L67.92531,74.286c-4.74735-5.44371-4.018-15.67014,2.49484-19.47786l1.59488-.693,1.59392-.347,1.8023-.20791Z"/><path class="cls-3" d="M180.35677,59.03648h3.95063l.347.1386.2772.27721V62.2941l-.2772.27721-.347.0693h-2.84182l-1.17812.1386-1.04.3465-.90091.62419-.693.83161-.48558.97021-.34651,1.1786-.06929,1.4558.06929,1.24741.2079,1.10882.34651.9707.48512.90139.693.693.83209.4851.97021.27721,1.1786.1386h2.98089l.13861.13859.13861.06978.1386.2079v2.84182l-.2772.2079-.1386.1386c-4.85106.13621-8.68556.42536-11.15985-4.43622l-.62418-1.4558-.34651-1.59392c-.63327-4.20442.8861-8.89681,5.12922-10.53613l1.386-.41581,1.45627-.1386Z"/><path class="cls-4" d="M153.73948,57.37278l-1.17859.1386-.97022.41581-.90138.5544a8.0571,8.0571,0,0,0-2.426,6.16922l.0693,1.386.06929,1.2479c.48273,2.30127.85121,4.25268,3.119,5.40691l1.04.3465,1.17811.1386,1.04-.1386,1.03951-.3465c1.972-1.24073,2.7185-3.25571,2.98041-5.47621l.13861-1.17811.06978-1.1786c-.065-2.17748-.5028-5.1536-2.42649-6.51572l-.83161-.55441-.97021-.27721-1.04-.1386Zm.13861-4.64412,1.94042.2079,1.733.4158c9.74371,3.17686,9.6247,23.04328-2.07952,24.3992l-1.87159.0693-1.733-.0693c-11.64255-1.06485-12.2978-21.30646-1.80182-24.39919l1.87113-.48511,1.94091-.1386Zm-96.281-6.58551h4.08971l.27721.0693.3465.27721.0693.41581v4.02088l-.0693.48511-.3465.2079-.27721.0693H57.59708l-.2772-.0693-.20791-.1386-.1386-.0693-.0693-.2772-.06978-.20791V46.90594l.06978-.2079.0693-.2079.1386-.1386.20791-.13861Zm0,7.41664h4.08971l.27721.06978.1386.0693.2079.1386v.20791l.0693.2079V76.91994l-.0693.2079v.20791l-.2079.13859-.1386.06931-.27721.0693H57.59708l-.48511-.1386-.2079-.34651-.06978-.2079V54.2528l.06978-.2079.2079-.34651Zm-14.07144,0h4.159l.4158.13908.27721.34651.06978.2079v1.04h.2772l.0693-.0693.0693-.0693.34651-.2079.76231-.55441.97021-.48558,1.10929-.2079,1.04-.13861h.90092l.2079.0693.3465.34651.13861.4158v2.9809l-.0693.2772-.13861.20791-.06929.1386-.27721.0693-.2079.0693h-.1386l-.27721.0693-.4851.1386-.693.1386-1.04.41581c-2.17079,1.06293-2.752,3.69589-2.84181,5.892V76.91947l-.0693.20838-.27721.34651-.4158.1386h-4.1595l-.4851-.1386-.20791-.34651-.0693-.2079V54.2528l.0693-.2079.20791-.34651Zm62.31589,0h4.22832c.89613.13908.65143.87941.693,1.59488l.06931.1386h.2772l.0693-.0693.34651-.2772.76279-.55441,1.03951-.48559,1.10882-.2079,1.04-.1386h.83162l.20838.0693.2772.1386.06931.2079.13859.2079.06931.20791v2.98089l-.06931.27721-.13859.2079-.06931.1386-.2772.0693-.20838.0693h-.1386l-.27721.0693-.4851.1386-.76232.1386c-2.53928.70353-3.423,2.88006-3.7432,5.26831l-.06931,1.03952v3.88181l-.0693,8.24872-.1386.41581-.1386.13859-.4158.1386h-4.22831l-.27721-.0693-.1386-.0693-.20838-.1386v-.2079l-.0693-.2079V54.2528l.0693-.2079V53.837l.2079-.13861.1386-.0693.27721-.06929Zm-12.477,12.26962-1.04.0693-1.10882.2079c-2.30748.65717-4.2957,2.55793-3.8818,5.12923l.2772.62418.34651.55441.55441.34651.693.2772.76278.1386h.90139l1.03952-.0693.90091-.34651.83161-.55441,1.24789-1.386V66.52242l-.0693-.34651-.1386-.1386-.1386-.0693-.3465-.06931-.06931-.0693h-.76231Zm-8.318-12.26914h7.76314l1.3865.0693,1.17859.27721a6.7129,6.7129,0,0,1,4.78273,5.61481l.2079,1.66322.1386,1.94091v7.83339l.0693.83162.2079.6237.27721.4158.2772.27721.2772.0693.27721.06931h.06978l.2079.0693.2079.1386.1386.0693.1386.2772.0693.20839v2.91064l-.0693.20838-.1386.2772-.1386.1386-.2079.1386a8.34712,8.34712,0,0,1-4.9911-.90091l-.76231-.6237-.55441-.55441h-.2079l-.1386.20742h-.1386l-.1386.1386c-11.40359,7.23789-20.06621-8.48626-6.932-13.79375l1.6637-.41581,1.733-.1386,2.35671-.0693h.41581l.2079-.1386.1386-.20791v-.48558l-.06931-.1386-.2772-.83161-.34651-.55441-.48511-.41581-.4851-.2772-.48559-.13861-.4158-.06978-.2079-.0693H85.04648l-.2079-.0693-.2079-.1386-.1386-.0693-.1386-.2079-.06978-.2772v-3.1195l.0693-.27721.1386-.2079.1386-.0693.20838-.1386.20791-.0693Z"/><path class="cls-4" d="M128.85422,57.51138l-1.24741.1386-1.04.3465c-4.49023,2.21333-4.6164,12.48278-.20791,14.76445l.9014.27721,1.10881.13859,1.24742-.13859c2.05322-.17684,3.51571-2.12922,4.09019-3.95111l.2079-.97022.27721-1.9409c.043-2.67215-.1061-6.03731-2.426-7.83292l-.83161-.41581-.90139-.2772Zm5.75341-11.36822h4.57482l.41581.2772.06929.41581V71.02793l.06978.83162.2079.55441.34651.41628.34651.27721.2772.0693.2079.0693h.06929l.2079.06931.34651.2079.13861.48558v2.91064l-.13861.48559-.1386.1386-.20791.1386-.2079.0693h-1.24741l-.76279-.0693-.83161-.1386-1.04-.34651-.90091-.4158-.76231-.62371-.55441-.48558-.13861-.06931h-.20838l-.0693.06931-.6237.3465-.83162.41581-1.04.4158-1.17859.48559c-8.17895,2.047-13.57534-4.137-13.44725-11.99145l.0693-1.733.2772-1.733c1.36356-7.02855,7.9113-10.97392,14.62585-8.11012l.62371.3465.4158.27721h.347l.0693-.1386V54.184l.06931-.0693V46.698l.2079-.3465.1386-.13861.2079-.06978Z"/><path class="cls-3" d="M188.11992,53.35236h3.5353l.20791.0693.1386.13861.0693.3465v7.69432h.1386l.13861-.13861v-.0693a7.04918,7.04918,0,0,1,7.83292-1.733l1.03951.55441.76279.76231.693.83161.34651,1.1093.3465,1.10881.0693,1.2479V77.12784l-.0693.20791-.06929.13859-.2079.1386-.20791.06931h-3.18831l-.2079-.06931-.347-.3465V65.0666l-.2079-.693-.2772-.62371-.41581-.48558-.5544-.48511-.7628-.2079-.97021-.1386c-2.49674-.00812-3.55107,2.07616-3.88181,4.22832V77.12784l-.0693.1386V77.405l-.1386.06931-.20791.1386h-3.3274l-.2079-.06931-.2772-.2079-.06929-.2079V53.76815l.1386-.2079.2079-.2079ZM21.06736,73.17673h1.17811V75.672H21.06736V73.17673Zm9.28823-1.10881h1.10882V75.672H30.35559Zm-10.46683-.1386h1.17859v1.24741H19.88828V71.92932ZM18.71064,70.8205h1.17812v1.10882H18.71064Zm12.75425-1.04H32.643v2.28741H31.46489Zm-13.86354-1.3172h1.10882V70.82H17.60135Zm-1.17859-1.17859h1.17859v1.17859H16.42276ZM32.643,66.1759h1.1786v3.60461H32.643v-3.6046ZM15.24464,64.99684h1.17812v2.28741H15.24464Zm1.17812-1.17812h2.28789v1.17812H16.42276ZM33.8216,61.18481h1.17811v4.99062H33.8216Zm-3.466-3.1888h1.10882v2.01021H33.8216v1.17859H31.46489v3.812H30.35512V57.996Zm-10.46683,0h1.17859v9.28824H19.88828V66.17543H18.71017V64.99684h1.17811V57.996Zm6.93153-1.17859h3.5353V57.996H27.99888v5.82271H26.82029Zm-5.75293,0h3.46552v7.0013H23.35476V57.996h-2.2874Zm3.46552-1.10882h2.28741v1.10882H24.53288Z"/><path class="cls-4" d="M12.33352,57.30348h1.386V74.00883a2.87428,2.87428,0,0,0,2.9116,2.91064H33.5444v1.387H16.56184a4.21568,4.21568,0,0,1-4.22832-4.22831Zm4.29762-4.22832H33.61369l1.10882.13861.97021.4158.90139.693.693.83161.41581.97069.1386,1.1786V74.00883H36.52529V57.37278a2.88054,2.88054,0,0,0-2.98042-2.9809H16.63114Z"/></svg>
