<svg id="Layer_1" data-name="Layer 1" xmlns="http://www.w3.org/2000/svg" viewBox="0 0 215 127"><defs><style>.cls-1{fill:transparent;}</style></defs><title>kubernetes.io-logos2</title><rect class="cls-1" x="-3.35417" y="-4.36563" width="223.25536" height="134.51136"/><path d="M78.7837,40.58449a127.07152,127.07152,0,0,1,4.77722,12.6033q4.52443,12.92355,8.91651,25.89268c.49794,1.47446,1.30679,1.85809,2.79391,1.85618q49.71056-.06363,99.42114.001c1.00545.00144,2.8626-.85178,2.92019.98986.06657,2.1282-1.928,1.133-2.94019,1.13484q-51.41795.09252-102.83611.05649c-3.344.00027-3.35735.00667-4.45258-3.14555q-4.29761-12.3691-8.5725-24.746a1.4883,1.4883,0,0,0-.7015-1.05833c-.97869.9407-1.1834,2.29374-1.60928,3.48371-2.76218,7.7179-5.496,15.44667-8.13,23.20858a2.9402,2.9402,0,0,1-3.32545,2.31833c-15.33117-.07857-30.66291-.04863-45.99447-.0536q-.70251-.00022-1.40488-.037a.93513.93513,0,0,1-.975-1.02965.97833.97833,0,0,1,1.05512-1.15669c.60214-.01554,1.20474-.01811,1.80713-.01794,14.39438.00413,28.78888-.017,43.183.05144A2.56023,2.56023,0,0,0,65.60279,78.939q6.35242-17.898,12.32132-35.92519C78.12877,42.39161,78.3603,41.77819,78.7837,40.58449Z"/><path d="M98.94033,55.4277c0,2.47326-.00053,4.71366.00012,6.95407.00139,4.86546-.02821,9.73126.02542,14.59616.015,1.36419-.24586,2.04114-1.86305,2.03723-1.62585-.00394-1.64077-.78635-1.63647-1.99266.03116-8.73087.04326-17.46215-.02081-26.1927-.0109-1.4856.41926-1.99252,1.93436-1.929,5.7277.24,4.16023-1.01728,6.524,4.15966,1.71637,3.759,3.33954,7.56023,5.00472,11.34242a3.2354,3.2354,0,0,0,1.13022,1.7517c1.81273-2.78562,2.80706-5.8949,4.11551-8.85173.97119-2.19469,1.91711-4.4032,2.78008-6.64154a2.45122,2.45122,0,0,1,2.71325-1.759c4.46735.052,4.46774-.01725,4.46838,4.42154.00113,7.86458-.03317,15.72948.03514,23.59349.0134,1.5427-.39,2.12061-2.02183,2.07809-4.25689-.11093-3.483.25329-3.50988-3.53923-.04624-6.52274-.0128-13.046-.0128-19.60061-.983-.018-.91961.75536-1.11267,1.22829-2.54443,6.23272-5.053,12.48-7.60169,18.71093-.20631.50436-.17846,1.36495-.954,1.34213-.61636-.01814-.61078-.78681-.82376-1.2429-2.90688-6.22493-5.43924-12.60758-8.039-18.96189A2.10448,2.10448,0,0,0,98.94033,55.4277Z"/><path d="M28.59654,79.21479a28.77851,28.77851,0,0,1-7.73987-1.06823,5.00384,5.00384,0,0,1-1.30451-.4861,1.44773,1.44773,0,0,1-.67926-1.72367c.24539-.59917.95754-.21863,1.45134-.133,3.08986.536,6.152,1.3263,9.337.79208,2.7539-.46193,4.16626-1.77523,4.55333-4.29643.5323-3.46709-.43261-5.75482-2.9556-6.98016-2.32-1.12676-4.8929-1.34714-7.34337-2.00543-4.35309-1.16941-6.32209-3.28954-6.29375-6.86927A8.0813,8.0813,0,0,1,24.33367,48.983a29.76011,29.76011,0,0,1,12.74216.64,1.62577,1.62577,0,0,1,1.309,1.34213c.22863,1.03124.32742,1.75317-1.18843,1.26566a22.29251,22.29251,0,0,0-8.73545-.90014c-2.879.23927-4.6394,1.62887-4.90071,3.59879-.27728,2.09032.87237,3.24777,2.54856,4.06135a52.23688,52.23688,0,0,0,7.62635,2.48454c5.36042,1.65046,6.902,3.66039,6.56047,8.70645-.35245,5.20769-3.03158,8.16738-8.09416,8.85105C31.01342,79.1932,29.79889,79.15929,28.59654,79.21479Z"/><path d="M152.36443,63.81027c0-4.26376.0451-8.52827-.02486-12.7909-.024-1.46222.26024-2.15549,1.96879-2.12189,5.35241.10526,10.70825.03489,16.06275.04089.79455.00089,1.71008-.13111,1.69358,1.11039-.01591,1.19663-.87469,1.125-1.70114,1.12439-3.68123-.0025-7.363.03728-11.04344-.01359-1.27581-.01763-1.8098.38726-1.76667,1.72161.08174,2.52911.07448,5.06349.01567,7.59365-.02818,1.21287.41043,1.65,1.63454,1.62181,2.80952-.06462,5.62167-.03623,8.43248-.01267.80078.00671,1.9236-.371,1.95537,1.01364.03515,1.53064-1.18952,1.12844-2.04389,1.13873-2.60987.03145-5.222.06008-7.83-.01641-1.383-.04055-1.90487.43692-1.868,1.84166q.11532,4.39387-.01033,8.79261c-.044,1.4594.57534,1.81252,1.91224,1.78677,3.47918-.067,6.96053-.03954,10.44083-.01876.80583.00481,1.83808-.30689,1.881,1.10938.04168,1.37771-.91394,1.23161-1.775,1.23224-5.4212.004-10.84279-.03878-16.26331.02027-1.37511.015-1.70979-.54772-1.69776-1.78316.04351-4.46318.01712-8.927.01712-13.39065Z"/><path d="M195.3035,52.4764a15.51155,15.51155,0,0,0-7.58531-1.29683c-4.23717.46433-6.01637,1.97716-7.13067,6.11138a29.8199,29.8199,0,0,0-.89546,10.49581c.60446,6.6395,6.02576,10.26593,12.61437,8.583.51756-.13221,1.02421-.31126,1.546-.42113.55035-.11589,1.298-1.03,1.601.10122a1.46283,1.46283,0,0,1-1.04665,1.89772c-1.35817.34511-2.71832.71766-4.10085.925a20.21684,20.21684,0,0,1-7.968-.26283,9.43788,9.43788,0,0,1-7.01659-5.97562,21.83769,21.83769,0,0,1,.78814-18.37764c1.78206-3.47322,4.581-5.44438,8.664-5.38682,2.73906.03861,5.4842-.15326,8.18586.48379C194.98176,49.83035,195.08335,49.947,195.3035,52.4764Z"/><path d="M140.83,65.0703c0,4.06462-.0331,8.12966.01926,12.19361.01669,1.296-.44838,1.74978-1.75657,1.71819-4.77292-.11529-3.93086.54087-3.95208-3.87-.03525-7.33106-.04974-14.66276.01877-21.99334.014-1.49782-.46439-2.04614-1.94591-1.96693-1.60251.08568-3.213.02339-4.81993.02807-.806.00234-1.48436-.12611-1.46942-1.16887.01536-1.07206.73194-1.08413,1.52068-1.08368q9.74169.00554,19.48339-.015c.83354-.002,1.48038.1494,1.47008,1.16532-.01067,1.05207-.73686,1.10873-1.52641,1.10385-1.3391-.00826-2.67828-.00114-4.01744-.00054-2.79167.00126-2.79252.00125-2.79311,2.69244q-.00123,5.59837-.00021,11.19675Z"/><path d="M43.68214,63.93821c-.00276-4.26552.0648-8.53261-.03557-12.79579-.04092-1.73813.47679-2.52215,2.281-2.20788a3.27169,3.27169,0,0,0,1.00155-.01257c1.73453-.24523,2.30855.42241,2.28679,2.21168-.094,7.73012.017,15.46276-.08315,23.19273-.02446,1.88749.57552,2.39248,2.41056,2.32484,3.74462-.138,7.49788-.0419,11.24759-.04573.8555-.00087,1.6484.04586,1.63628,1.21764-.01256,1.21235-.861,1.13418-1.68568,1.13363-5.758-.00384-11.51638-.03736-17.27383.01973-1.40162.01389-1.84424-.42473-1.81544-1.84254C43.74156,72.73695,43.68491,68.337,43.68214,63.93821Z"/></svg>