<svg id="Layer_1" data-name="Layer 1" xmlns="http://www.w3.org/2000/svg" xmlns:xlink="http://www.w3.org/1999/xlink" viewBox="0 0 215 127"><defs><style>.cls-1{fill:none;}.cls-2{fill:transparent;}.cls-3{clip-path:url(#clip-path);}.cls-4{fill:#31acdf;}.cls-5{fill:#f9a535;}</style><clipPath id="clip-path"><rect class="cls-1" x="14.02376" y="15.2778" width="190.82607" height="92.95815"/></clipPath></defs><title>kubernetes.io-logos2</title><rect class="cls-2" x="-3.35417" y="-4.36563" width="223.25536" height="134.51136"/><g class="cls-3"><g class="cls-3"><path class="cls-4" d="M14.02376,77.77641l7.036-4.89415c2.651,3.77172,6.62813,5.5057,11.52228,5.5057,5.19963,0,7.54517-1.734,7.54517-4.58808,0-3.46681-3.15959-3.97654-10.40043-6.01658C23.40532,66.05047,17.08268,63.09338,17.08268,54.63c0-8.56519,6.83294-12.64413,15.29631-12.64413a19.43628,19.43628,0,0,1,14.88726,6.42389L41.24909,54.324a11.556,11.556,0,0,0-8.8701-4.18076c-3.87528,0-6.01716,1.42791-6.01716,3.97711,0,3.26257,2.651,3.97653,9.38156,5.70993,6.72938,1.73341,14.07089,4.38443,14.07089,13.45934,0,7.34267-4.48567,13.35752-16.62066,13.35752C23.40532,86.64709,16.8796,82.36507,14.02376,77.77641Z"/></g><g class="cls-3"><path class="cls-4" d="M57.51278,19.61594h10.2986V85.73005H57.51278Z"/></g><g class="cls-3"><path class="cls-5" d="M75.51045,25.33167a6.83208,6.83208,0,1,1,6.83121,6.83121A6.74493,6.74493,0,0,1,75.51045,25.33167Z"/></g><g class="cls-3"><path class="cls-4" d="M96.87367,42.9035h10.298l-.20482,7.95364a15.49847,15.49847,0,0,1,14.4788-8.87125c9.484,0,16.01026,6.73,16.01026,18.35407V85.73005h-10.2986V61.15574c0-6.11783-2.85583-9.68646-8.87126-9.68646-6.73053,0-11.11438,4.07835-11.11438,11.012v23.2488h-10.298Z"/></g><g class="cls-3"><path class="cls-5" d="M92.64719,18.56063a11.23125,11.23125,0,0,1,2.16908,7.16273A12.15071,12.15071,0,0,1,93.05162,32.204a7.15587,7.15587,0,0,0-.40443-13.64332Z"/></g><g class="cls-3"><path class="cls-5" d="M99.10291,16.472a14.67058,14.67058,0,0,1,2.83269,9.3561,15.86537,15.86537,0,0,1-2.305,8.4651,9.34676,9.34676,0,0,0-.52766-17.8212Z"/></g><g class="cls-3"><path class="cls-5" d="M107.15318,15.2778c2.13666,2.73029,3.21224,6.22776,3.21224,10.60987a17.99014,17.99014,0,0,1-2.614,9.59911,10.59913,10.59913,0,0,0-.59824-20.209Z"/></g><g class="cls-3"><path class="cls-4" d="M166.47656,77.57275c-7.44391,0-12.13325-5.30262-12.13325-13.35809,0-7.74941,4.68934-13.052,12.13325-13.052,7.54576,0,12.44107,5.30262,12.44107,13.052C178.91763,72.27013,174.02232,77.57275,166.47656,77.57275Zm2.83849,30.66321c12.13673-.24416,19.59569-7.41268,19.59569-21.89436V42.9035H178.6104l.30723,7.95364c-2.75285-5.20021-7.75-8.87125-15.29457-8.87125-10.91132,0-19.885,9.27915-19.885,22.22877,0,12.95019,8.97366,22.43243,20.088,22.43243,7.13728,0,12.23567-3.46623,14.78428-8.25913V85.8313c0,8.711-3.09363,13.54092-9.06449,13.54092H149.73036V108.236Z"/></g><g class="cls-3"><path class="cls-4" d="M77.142,42.9035H87.54245V85.73005H77.142Z"/></g><g class="cls-3"><path class="cls-4" d="M22.17123,107.75227H20.84745v-6.96486H18.46489V99.65167h6.0889v1.13574H22.17123Z"/></g><g class="cls-3"><path class="cls-4" d="M36.97112,107.75227H32.3894v-8.1006h4.58172v1.119H33.71318v2.20552h3.05313v1.108H33.71318v2.5434h3.25794Z"/></g><g class="cls-3"><path class="cls-4" d="M45.21405,107.75227v-8.1006h1.32436v6.96486h3.42977v1.13574Z"/></g><g class="cls-3"><path class="cls-4" d="M62.46536,107.75227H57.88364v-8.1006h4.58172v1.119H59.20742v2.20552h3.05313v1.108H59.20742v2.5434h3.25794Z"/></g><g class="cls-3"><path class="cls-4" d="M75.71294,99.65167h1.37412l-2.83675,8.1006H72.85364l-2.82576-8.1006H71.391l1.69,5.03648q.13365.36017.28293.928.14926.56758.19324.84472.0729-.42091.22217-.9749.14928-.55456.24358-.82042Z"/></g><g class="cls-3"><path class="cls-4" d="M84.84167,107.75227v-8.1006H86.166v8.1006Z"/></g><g class="cls-3"><path class="cls-4" d="M99.586,105.55254a2.03869,2.03869,0,0,1-.78107,1.69522,3.40027,3.40027,0,0,1-2.15576.615,5.14871,5.14871,0,0,1-2.24949-.4264v-1.252a6.13765,6.13765,0,0,0,1.17738.41021,5.03667,5.03667,0,0,0,1.16063.14928,1.84658,1.84658,0,0,0,1.16119-.29912.976.976,0,0,0,.37376-.80364,1.00646,1.00646,0,0,0-.34309-.77008,5.17009,5.17009,0,0,0-1.41866-.74809,3.75928,3.75928,0,0,1-1.56273-1.02466,2.17311,2.17311,0,0,1-.45418-1.38568,1.93962,1.93962,0,0,1,.72032-1.59513,2.9857,2.9857,0,0,1,1.9336-.582,5.67507,5.67507,0,0,1,2.316.50972l-.42062,1.0802a5.0706,5.0706,0,0,0-1.929-.45418,1.478,1.478,0,0,0-.97432.27945.917.917,0,0,0-.33268.74,1.04219,1.04219,0,0,0,.13249.54039,1.35646,1.35646,0,0,0,.438.42351,7.34485,7.34485,0,0,0,1.097.52651,5.98782,5.98782,0,0,1,1.30758.69255,2.03509,2.03509,0,0,1,.60982.7261A2.17843,2.17843,0,0,1,99.586,105.55254Z"/></g><g class="cls-3"><path class="cls-4" d="M107.70572,107.75227v-8.1006h1.32434v8.1006Z"/></g><g class="cls-3"><path class="cls-4" d="M118.72348,103.69069a3.63363,3.63363,0,0,0,.604,2.26858,2.45682,2.45682,0,0,0,3.571.00868,4.59964,4.59964,0,0,0,.0052-4.53775,2.10307,2.10307,0,0,0-1.77505-.77007,2.14906,2.14906,0,0,0-1.79821.77007A3.59494,3.59494,0,0,0,118.72348,103.69069Zm6.18378,0a4.43181,4.43181,0,0,1-.98878,3.07511,4.15767,4.15767,0,0,1-5.6191.00811,4.46188,4.46188,0,0,1-.983-3.09421,4.39145,4.39145,0,0,1,.98878-3.0809,3.64656,3.64656,0,0,1,2.82344-1.07442,3.56648,3.56648,0,0,1,2.79219,1.09177A4.42233,4.42233,0,0,1,124.90726,103.69069Z"/></g><g class="cls-3"><path class="cls-4" d="M139.91487,107.75227h-1.62348l-3.984-6.45514h-.044l.02777.35987q.07724,1.031.07695,1.88442v4.21085h-1.20228v-8.1006h1.6067l3.97306,6.42158h.033q-.01128-.12844-.044-.928-.033-.801-.03356-1.24913V99.65167h1.21385Z"/></g><g class="cls-3"><path class="cls-4" d="M201.36856,48.63311l-1.57486-4.38153h-.06307l.04744,1.01077v3.37076h-.93266v-5.6515h1.46552l1.53611,4.38153,1.59166-4.38153h1.41114v5.6515h-.99571V45.341l.04686-1.07441h-.06249l-1.65356,4.36649Zm-4.70263,0h-.96448V43.81244h-1.63852v-.83083h4.25714v.83083h-1.65414Z"/></g></g></svg>