<svg xmlns="http://www.w3.org/2000/svg" viewBox="0 0 363.3 92.9" enable-background="new 0 0 363.3 92.9"><style type="text/css">.st0{fill:#B71318;}</style><path d="M244.7 7.4c-31 0-37.4 11.6-37.4 28.4 0 16.7 6.3 28.3 37.4 28.3 31.1 0 37.3-11.6 37.3-28.3 0-16.9-6.1-28.4-37.3-28.4zm0 51.1c-22.1 0-24.3-8.2-24.3-22.8 0-14.5 2.2-22.7 24.3-22.7 22.2 0 24.3 8.2 24.3 22.7 0 14.6-2.1 22.8-24.3 22.8zM188.4 47.5c0-14.1-11.1-15.9-28.3-17.4-15.9-1.6-22.8-.8-22.8-8.6 0-6.6 6.4-7.8 20.8-7.8 10.4 0 20.3 1.4 24.7 2h.5c.6 0 1.1-.2 1.2-.9l.4-3c0-.2.1-.4.1-.6 0-.6-.3-1.1-1.4-1.3-5.6-1-15.2-2.1-25.9-2.1-26.9 0-31.6 6.4-31.6 15.4 0 14.2 12.8 15.4 30.8 17.3C173.4 42.1 177 42 177 49c0 7.2-6.2 8.7-21.8 8.7-9.9 0-22.6-2-27.1-2.7h-.4c-.6 0-1.1.2-1.2.9l-.5 3.5c-.1.2-.1.4-.1.6 0 .6.3 1 1.4 1.3 1.8.4 17.9 2.5 26.4 2.5 21.9-.1 34.7-2.1 34.7-16.3zM302.3 61.2c1.8.4 17.9 2.5 26.4 2.5 21.9 0 34.6-2 34.6-16.3 0-14.1-11.1-15.9-28.3-17.4-15.9-1.6-22.8-.8-22.8-8.6 0-6.6 6.4-7.8 20.8-7.8 10.4 0 20.3 1.4 24.7 2h.5c.6 0 1.1-.2 1.2-.9l.4-3c0-.2.1-.4.1-.6 0-.6-.3-1.1-1.4-1.3-5.6-1-15.2-2.1-25.9-2.1-26.9 0-31.6 6.4-31.6 15.4 0 14.2 12.8 15.4 30.8 17.3 16.5 1.7 20.1 1.6 20.1 8.6 0 7.2-6.2 8.7-21.8 8.7-9.9 0-22.6-2-27.1-2.7h-.4c-.6 0-1.1.2-1.2.9l-.5 3.5c-.1.2-.1.4-.1.6.1.5.4.9 1.5 1.2zM128.2 79.9h-1.3c-.6 0-.7.2-.7.7v11.3c0 .5.2.7.7.7h1.3c.6 0 .7-.2.7-.7V80.6c.1-.5-.1-.7-.7-.7zM151.5 79.9h-.5c-.5 0-.6.1-.6.7v10.2c0 .5-.2.5-.5.5-.4 0-.4-.1-.7-.5l-7.4-10.3c-.3-.5-.8-.7-1.3-.7h-2.9c-.7 0-1.3.6-1.3 1.3v10.6c0 .6.1.7.6.7h.5c.5 0 .6-.1.6-.7V81.6c0-.5.2-.5.5-.5.4 0 .4.1.7.5l7.4 10.3c.3.5.8.7 1.3.7h2.9c.7 0 1.3-.6 1.3-1.3V80.6c0-.6-.1-.7-.6-.7zM172.3 79.9h-14.8c-.6 0-.7.1-.7.6v.2c0 .5.1.6.7.6h5.5c.3 0 .5 0 .5.5v10.1c0 .5.2.7.7.7h1.4c.6 0 .7-.2.7-.7V81.8c0-.5.2-.5.5-.5h5.5c.6 0 .7-.1.7-.6v-.3c0-.4-.1-.5-.7-.5zM189.1 79.9h-11.4c-.7 0-1.3.6-1.3 1.3v10c0 .7.6 1.3 1.3 1.3h11.4c.6 0 .7-.1.7-.6v-.2c0-.5-.1-.6-.7-.6h-9.3c-.3 0-.5 0-.5-.5v-3.8c0-.5.2-.5.5-.5h6.7c.6 0 .7-.1.7-.6v-.2c0-.5-.1-.5-.7-.5h-6.7c-.3 0-.5 0-.5-.5v-2.9c0-.5.2-.5.5-.5h9.3c.6 0 .7-.1.7-.6v-.2c.1-.3-.1-.4-.7-.4zM206.5 87.1c-.5-.1-.7-.1-.7-.5s.2-.4.7-.5c1.9-.4 3-1.1 3-2.9 0-2.7-2.3-3.3-5.5-3.3h-8.2c-.7 0-1.3.6-1.3 1.3v10.7c0 .5.2.7.7.7h1.3c.6 0 .7-.2.7-.7v-4.1c0-.5.2-.5.5-.5l4.6.1c2.7.1 4.2.6 4.3 2.2l.1 2.3c0 .5.3.7.8.7h1.3c.5 0 .8-.1.8-.6v-.1l-.1-2c0-2.2-1.6-2.5-3-2.8zm-4.3-1.1l-4.3.1c-.4 0-.5 0-.5-.5v-4c0-.5.2-.5.5-.5h5.3c2.5 0 3.2.8 3.2 2.4 0 2.1-1.6 2.5-4.2 2.5zM231.7 79.9h-.5c-.5 0-.6.1-.6.7v10.2c0 .5-.2.5-.5.5-.4 0-.4-.1-.7-.5L222 80.6c-.3-.5-.8-.7-1.3-.7h-2.9c-.7 0-1.3.6-1.3 1.3v10.6c0 .6.1.7.6.7h.5c.5 0 .6-.1.6-.7V81.6c0-.5.2-.5.5-.5.4 0 .4.1.7.5l7.4 10.3c.3.5.8.7 1.3.7h2.9c.7 0 1.3-.6 1.3-1.3V80.6c0-.6-.1-.7-.6-.7zM248.2 80.7c-.3-.5-.7-.8-1.3-.8h-2.8c-.6 0-1 .3-1.3.8l-6.6 11.1c-.1.2-.1.3-.1.4 0 .2.2.3.5.3h1c.5 0 .5-.2.7-.5l1.5-2.7c.2-.4.3-.4.7-.4h9c.4 0 .5 0 .8.4l1.5 2.7c.2.3.3.5.8.5h1.8c.5 0 .6-.2.6-.4 0-.1 0-.2-.1-.3l-6.7-11.1zm.5 6.9h-7.6c-.3 0-.4-.3-.3-.5l3.3-5.6c.2-.4.3-.4.8-.4.4 0 .6 0 .8.4l3.3 5.6c.2.3 0 .5-.3.5zM271.6 79.9h-14.8c-.6 0-.7.1-.7.6v.2c0 .5.1.6.7.6h5.5c.3 0 .5 0 .5.5v10.1c0 .5.2.7.7.7h1.4c.6 0 .7-.2.7-.7V81.8c0-.5.2-.5.5-.5h5.5c.6 0 .7-.1.7-.6v-.3c.1-.4 0-.5-.7-.5zM278.7 79.9h-1.3c-.6 0-.7.2-.7.7v11.3c0 .5.2.7.7.7h1.3c.6 0 .7-.2.7-.7V80.6c0-.5-.2-.7-.7-.7zM294.2 79.6c-7.3 0-8.7 2.7-8.7 6.6 0 3.9 1.5 6.6 8.7 6.6 7.3 0 8.7-2.7 8.7-6.6.1-3.9-1.4-6.6-8.7-6.6zm0 11.9c-5.2 0-5.7-1.9-5.7-5.3s.5-5.3 5.7-5.3 5.7 1.9 5.7 5.3-.5 5.3-5.7 5.3zM323.1 79.9h-.5c-.5 0-.6.1-.6.7v10.2c0 .5-.2.5-.5.5-.4 0-.4-.1-.7-.5l-7.4-10.3c-.3-.5-.8-.7-1.3-.7h-2.9c-.7 0-1.3.6-1.3 1.3v10.6c0 .6.1.7.6.7h.5c.5 0 .6-.1.6-.7V81.6c0-.5.2-.5.5-.5.4 0 .4.1.7.5l7.4 10.3c.3.5.8.7 1.3.7h2.9c.7 0 1.3-.6 1.3-1.3V80.6c0-.6-.1-.7-.6-.7zM339.6 80.7c-.3-.5-.7-.8-1.3-.8h-2.8c-.6 0-1 .3-1.3.8l-6.6 11.1c-.1.2-.1.3-.1.4 0 .2.2.3.5.3h1c.5 0 .5-.2.7-.5l1.5-2.7c.2-.4.3-.4.8-.4h9c.4 0 .5 0 .8.4l1.5 2.7c.2.3.3.5.8.5h1.7c.5 0 .6-.2.6-.4 0-.1 0-.2-.1-.3l-6.7-11.1zm.5 6.9h-7.6c-.3 0-.4-.3-.3-.5l3.3-5.6c.2-.4.3-.4.8-.4.4 0 .6 0 .8.4l3.3 5.6c.1.3 0 .5-.3.5zM362.4 91.1H354c-.3 0-.5 0-.5-.5v-10c0-.5-.2-.7-.7-.7h-1.3c-.6 0-.7.2-.7.7v10.6c0 .7.6 1.3 1.3 1.3h10.5c.6 0 .7-.1.7-.6v-.3c-.2-.4-.3-.5-.9-.5z"/><path class="st0" d="M31.5 10l-2.7-6.6s0-.1-.1-.1h-.1c-2.5 1.1-4.9 2.3-7.2 3.8l-.1.1v.1l4 5.9c0 .1.1.1.2.1 1.8-1.2 3.7-2.2 5.8-3 .2-.1.2-.2.2-.3zM21.2 16.3l-4.6-5.4-.1-.1h-.1c-2.1 1.8-4 3.7-5.7 5.8v.1s0 .1.1.1l5.6 4.4h.2c1.4-1.7 2.9-3.2 4.6-4.7v-.2zM43.3 7.2L42.8.1s0-.1-.1-.1h-.1c-2.7.2-5.4.7-8 1.3 0 0-.1 0-.1.1v.1l1.9 6.8c0 .1.1.1.2.1 2.1-.5 4.2-.9 6.5-1.1.2.1.2 0 .2-.1zM80.1 77.7h.2c7.6-8.2 12.3-19.2 12.4-31.2.1-8.9-2.4-17.3-6.8-24.4l-.1-.1h-.1l-6 3.8c-.1 0-.1.1 0 .2 3.6 5.9 5.6 12.9 5.6 20.4-.1 10.2-4 19.3-10.3 26.2-.1.1-.1.2 0 .2l5.1 4.9zM0 45.8C-.1 58.3 4.8 69.6 12.8 78h.2l5.1-4.9c.1-.1.1-.2 0-.2-6.7-7.1-10.7-16.5-10.7-27C7.5 38.6 9.5 31.8 13 26v-.2c-1.9-1.2-4.2-2.6-6-3.8h-.1s-.1 0-.1.1C2.5 28.9.1 37.1 0 45.8zM17.8 82.7s0 .1.1.1c7.7 6 17.5 9.7 28 9.8 11 .1 21.1-3.6 29.1-9.9l.1-.1v-.1l-4.8-5.3c-.1-.1-.2-.1-.2 0-6.7 5.1-15 8.2-24.1 8.1-8.7-.1-16.7-3-23.1-7.9h-.2l-4.8 5.3c-.1-.1-.1-.1-.1 0zM61.2 10l2.7-6.6s0-.1.1-.1h.1c2.5 1.1 4.9 2.3 7.2 3.8l.1.1v.1l-4 5.9c0 .1-.1.1-.2.1-1.8-1.2-3.7-2.2-5.8-3-.2-.1-.3-.2-.2-.3zM71.6 16.3l4.6-5.4.1-.1h.1c2.1 1.8 4 3.7 5.7 5.8v.1s0 .1-.1.1l-5.6 4.4h-.2c-1.4-1.7-2.9-3.2-4.6-4.7-.1-.1-.1-.1 0-.2zM49.3 7.2l.5-7.1s0-.1.1-.1h.1c2.7.2 5.4.7 8 1.3 0 0 .1 0 .1.1v.1l-1.9 6.8c0 .1-.1.1-.2.1-2.1-.5-4.2-.9-6.5-1.1-.2.1-.2 0-.2-.1z"/></svg>