<svg id="Layer_1" data-name="Layer 1" xmlns="http://www.w3.org/2000/svg" viewBox="0 0 215 127"><defs><style>.cls-1{fill:transparent;}.cls-2{fill:#00b26b;}</style></defs><title>kubernetes.io-logos</title><rect class="cls-1" x="-4.51349" y="-3.42399" width="223.25536" height="134.51136"/><path class="cls-2" d="M37.16766,33.86511A29.96657,29.96657,0,1,0,67.13423,63.83168v-.00045A29.96655,29.96655,0,0,0,37.16766,33.86511Zm13.743,43.22242a1.86642,1.86642,0,0,1-2.56484.62342l-.00322-.002c-7.037-4.301-15.89419-5.27224-26.32516-2.88952a1.8672,1.8672,0,1,1-.83157-3.64064h0c11.41492-2.60958,21.20664-1.48662,29.10526,3.34007a1.868,1.868,0,0,1,.61994,2.56795Zm3.66686-8.16a2.33759,2.33759,0,0,1-3.21365.76938c-8.053-4.95016-20.33308-6.38416-29.86048-3.49215a2.336,2.336,0,1,1-1.36027-4.46953l.00243-.00074c10.88377-3.30265,24.4138-1.70306,33.66333,3.98111a2.33646,2.33646,0,0,1,.76864,3.212Zm.31631-8.4965c-9.65954-5.7365-25.59264-6.264-34.81387-3.46517a2.8027,2.8027,0,1,1-1.63219-5.36251l.005-.00152c10.58527-3.21322,28.18176-2.59251,39.302,4.00855a2.80285,2.80285,0,0,1-2.861,4.82065Z"/><path class="cls-2" d="M88.72968,61.52943c-5.17382-1.234-6.09525-2.1-6.09525-3.91927,0-1.71923,1.61864-2.87581,4.02548-2.87581A11.76249,11.76249,0,0,1,93.732,57.42143a.33862.33862,0,0,0,.25578.06234.33383.33383,0,0,0,.22365-.13818l2.52648-3.56125a.33943.33943,0,0,0-.06451-.46085A15.28468,15.28468,0,0,0,86.73653,49.881c-5.58664,0-9.48867,3.35244-9.48867,8.14938,0,5.14406,3.366,6.96526,9.18309,8.37128,4.951,1.14037,5.78674,2.09569,5.78674,3.80389,0,1.89268-1.68964,3.06931-4.40888,3.06931-3.02,0-5.48348-1.01751-8.23923-3.40373a.35559.35559,0,0,0-.24869-.081.33687.33687,0,0,0-.2325.1196l-2.83266,3.371a.33636.33636,0,0,0,.03359.47,16.88747,16.88747,0,0,0,11.40491,4.37438c6.02006,0,9.91-3.28941,9.91-8.38037C97.60423,65.44205,95.03354,63.06245,88.72968,61.52943Z"/><path class="cls-2" d="M111.22388,56.42664a8.11792,8.11792,0,0,0-6.51457,3.13352V57.18985a.33943.33943,0,0,0-.33859-.33945H99.73794a.33923.33923,0,0,0-.33856.33945V83.52756a.33916.33916,0,0,0,.33856.33946h4.63278a.33936.33936,0,0,0,.33859-.33946V75.214a8.32181,8.32181,0,0,0,6.51457,2.94878c4.84848,0,9.75648-3.73228,9.75648-10.86684C120.98037,60.15981,116.07237,56.42664,111.22388,56.42664Zm4.37,10.86931c0,3.633-2.238,6.16832-5.44228,6.16832-3.168,0-5.55775-2.65055-5.55775-6.16832,0-3.51746,2.38976-6.16829,5.55775-6.16829C113.30425,61.12766,115.59383,63.72118,115.59383,67.296Z"/><path class="cls-2" d="M133.56131,56.42664a10.92474,10.92474,0,0,0-11.13356,10.71185q-.00228.11748-.002.235a11.11786,11.11786,0,1,0,11.13557-10.94683Zm0,17.07566a5.89229,5.89229,0,0,1-5.825-6.20635c0-3.55282,2.41717-6.13117,5.74843-6.13117a5.91028,5.91028,0,0,1,5.86332,6.20869C139.348,70.92569,136.91435,73.5023,133.56131,73.5023Z"/><path class="cls-2" d="M157.99119,56.85038h-5.09808V51.63795a.33888.33888,0,0,0-.33828-.33931h-4.63221a.34.34,0,0,0-.33976.33931v5.21243h-2.22769a.33862.33862,0,0,0-.33741.33945v3.98158a.33864.33864,0,0,0,.33741.33946h2.22769V71.81353c0,4.16341,2.07212,6.27442,6.15916,6.27442a8.45041,8.45041,0,0,0,4.33989-1.08.33769.33769,0,0,0,.1712-.2938V72.92268a.33968.33968,0,0,0-.4909-.30411,5.83887,5.83887,0,0,1-2.71948.65624c-1.48632,0-2.14962-.67479-2.14962-2.1873V61.51087h5.09808a.33878.33878,0,0,0,.338-.33946V57.18983A.33874.33874,0,0,0,157.99119,56.85038Z"/><path class="cls-2" d="M175.75327,56.87056v-.64017c0-1.88338.72194-2.72319,2.34173-2.72319a7.8201,7.8201,0,0,1,2.61049.48176.33869.33869,0,0,0,.44554-.32266v-3.904a.3388.3388,0,0,0-.23958-.32517,12.715,12.715,0,0,0-3.85075-.5534c-4.27917,0-6.54079,2.4098-6.54079,6.966v.98051H168.2943a.34059.34059,0,0,0-.34.33931v4.00191a.3407.3407,0,0,0,.34.33946h2.22561V77.40226a.33861.33861,0,0,0,.33771.33946h4.63279a.33994.33994,0,0,0,.33946-.33946V61.51087h4.32546l6.62622,15.88724c-.75228,1.66933-1.4919,2.00139-2.50174,2.00139a5.34284,5.34284,0,0,1-2.55448-.72457.34763.34763,0,0,0-.2699-.02535.342.342,0,0,0-.20038.183l-1.5703,3.445a.33661.33661,0,0,0,.14589.43818,9.75551,9.75551,0,0,0,4.94781,1.26676c3.42083,0,5.31171-1.59356,6.97865-5.88042l8.03741-20.769a.33855.33855,0,0,0-.31441-.46248h-4.82287a.34029.34029,0,0,0-.3209.22748l-4.94074,14.11233L183.984,57.08875a.338.338,0,0,0-.31647-.21819Z"/><path class="cls-2" d="M160.82324,56.85038h4.6328a.33946.33946,0,0,1,.33946.33946V77.40225a.33945.33945,0,0,1-.33945.33945h-4.6328a.33946.33946,0,0,1-.33946-.33946V57.18983A.33946.33946,0,0,1,160.82324,56.85038Z"/><path class="cls-2" d="M163.16322,47.6471a3.32256,3.32256,0,1,0,3.32239,3.32272v-.00149A3.323,3.323,0,0,0,163.16322,47.6471Z"/><path class="cls-2" d="M203.74983,63.34886a3.24762,3.24762,0,1,1,.0618,0Q203.78073,63.34916,203.74983,63.34886Zm.01709-6.21385a2.944,2.944,0,1,0,2.91744,2.97025q.00017-.01782.00011-.03564a2.91546,2.91546,0,0,0-2.89621-2.93455Zm.72285,3.26994.9223,1.29124h-.77765l-.83006-1.18427h-.71371v1.18427h-.65093V58.2739h1.52609c.795,0,1.31806.40681,1.31806,1.0916A1.0208,1.0208,0,0,1,204.48977,60.405Zm-.55017-1.54407h-.849v1.08247h.849c.42372,0,.67652-.2073.67652-.5416C204.61617,59.04962,204.36334,58.86088,203.9396,58.86088Z"/></svg>