<svg id="SvgjsSvg1001" width="223.25536" height="134.51135" xmlns="http://www.w3.org/2000/svg" version="1.1" xmlns:xlink="http://www.w3.org/1999/xlink" xmlns:svgjs="http://svgjs.com/svgjs"><defs id="SvgjsDefs1002"></defs><g id="SvgjsG1008"><svg xmlns="http://www.w3.org/2000/svg" width="223.25536" height="134.51135" viewBox="0 0 215 127"><rect width="100%" height="100%" fill="transparent" class="colortransparent svgShape"></rect><rect width="230" height="140" x="-115" y="-70" fill="#ffffff" rx="0" ry="0" transform="translate(115 70)" vector-effect="non-scaling-stroke" visibility="hidden" class="colorfff svgShape"></rect><g transform="matrix(.6 0 0 .6 115 70)"><path d="M 46.09 107.84 L 136.2 17.89 C 141.07 13.04 146.84 9.2 153.19 6.58 C 159.54 3.95 166.35 2.6 173.22 2.6 C 180.1 2.6 186.9 3.95 193.26 6.58 C 199.61 9.2 205.38 13.04 210.25 17.89 L 217.26 24.92 L 203.21 38.94 L 196.2 31.94 C 193.18 28.95 189.61 26.57 185.67 24.95 C 181.74 23.33 177.53 22.5 173.27 22.5 C 169.02 22.5 164.8 23.33 160.87 24.95 C 156.94 26.57 153.36 28.95 150.34 31.94 L 60.17 121.87 L 46.09 107.84 Z" transform="matrix(.18 0 0 .18 -143.972 -20.633)" vector-effect="non-scaling-stroke"></path><path d="M 90.34 151.61 C 80.56 161.59 67.19 167.26 53.2 167.33 C 39.21 167.41 25.77 161.9 15.88 152.02 C 5.99 142.14 0.48 128.73 0.56 114.76 C 0.64 100.8 6.32 87.45 16.33 77.69 L 94.15 0 L 108.2 14.02 L 30.38 91.71 C 24.28 97.79 20.86 106.04 20.86 114.64 C 20.85 123.24 24.27 131.48 30.36 137.57 C 36.45 143.65 44.71 147.07 53.32 147.07 C 61.94 147.08 70.2 143.66 76.3 137.58 L 166.5 47.53 L 180.55 61.56 L 90.34 151.61 Z M 281.68 94.65 C 284.3 100.99 285.66 107.79 285.66 114.65 C 285.66 121.51 284.3 128.31 281.68 134.65 C 279.05 140.99 275.2 146.75 270.34 151.61 L 192.52 229.3 L 178.44 215.27 L 256.17 137.58 C 257.69 136.09 259.06 134.46 260.26 132.69 C 261.46 130.93 262.47 129.05 263.29 127.09 C 264.12 125.12 264.74 123.08 265.16 120.99 C 265.57 118.9 265.78 116.78 265.77 114.65 C 265.77 108.24 263.86 101.98 260.29 96.65 C 256.73 91.32 251.66 87.16 245.73 84.71 C 239.8 82.26 233.27 81.61 226.97 82.86 C 220.67 84.1 214.89 87.19 210.34 91.71 L 120.14 181.76 L 106.09 167.74 L 196.3 77.69 C 201.16 72.85 206.94 69 213.29 66.38 C 219.64 63.76 226.45 62.42 233.32 62.42 C 240.19 62.42 247 63.76 253.35 66.38 C 259.7 69 265.48 72.85 270.34 77.69 C 275.2 82.55 279.05 88.31 281.68 94.65 Z" transform="matrix(.18 0 0 .18 -143.98 -20.617)" vector-effect="non-scaling-stroke"></path><path d="M 240.55 121.39 L 150.34 211.47 C 145.48 216.32 139.7 220.16 133.35 222.78 C 127 225.4 120.19 226.75 113.32 226.75 C 106.45 226.75 99.64 225.4 93.29 222.78 C 86.94 220.16 81.16 216.32 76.3 211.47 L 69.29 204.44 L 83.34 190.42 L 90.34 197.45 C 93.36 200.45 96.95 202.84 100.89 204.46 C 104.83 206.09 109.05 206.93 113.32 206.93 C 117.59 206.93 121.81 206.09 125.75 204.46 C 129.69 202.84 133.28 200.45 136.3 197.45 L 226.5 107.43 L 240.55 121.39 Z" transform="matrix(.18 0 0 .18 -143.986 -20.636)" vector-effect="non-scaling-stroke"></path><path fill-rule="evenodd" d="M 368.04 138.86 C 368.27 140.18 368.62 141.48 369.09 142.73 C 369.56 143.99 370.15 145.2 370.85 146.34 C 371.54 147.49 372.35 148.57 373.24 149.56 C 374.14 150.56 375.13 151.47 376.2 152.28 C 377.43 153.13 378.73 153.87 380.08 154.51 C 381.43 155.15 382.83 155.68 384.27 156.09 C 385.7 156.49 387.17 156.79 388.65 156.96 C 390.14 157.13 391.64 157.18 393.13 157.1 C 394.55 157.19 395.97 157.16 397.38 157 C 398.8 156.84 400.19 156.55 401.55 156.15 C 402.92 155.74 404.24 155.22 405.51 154.58 C 406.78 153.94 407.99 153.19 409.13 152.34 C 410.04 151.58 410.86 150.73 411.58 149.78 C 412.3 148.84 412.91 147.81 413.4 146.73 C 413.88 145.65 414.24 144.52 414.47 143.35 C 414.7 142.19 414.8 141.01 414.76 139.82 C 414.78 139.27 414.76 138.71 414.7 138.16 C 414.64 137.61 414.55 137.07 414.43 136.53 C 414.3 135.99 414.14 135.46 413.94 134.94 C 413.75 134.42 413.52 133.92 413.26 133.43 C 412.99 132.99 412.71 132.56 412.4 132.15 C 412.09 131.74 411.75 131.34 411.4 130.97 C 411.04 130.6 410.67 130.25 410.27 129.91 C 409.88 129.58 409.46 129.28 409.03 128.99 C 408.52 128.65 407.99 128.33 407.45 128.02 C 406.92 127.72 406.37 127.43 405.81 127.16 C 405.26 126.9 404.69 126.65 404.12 126.42 C 403.55 126.19 402.96 125.99 402.38 125.8 L 393.48 123.11 L 385 120.81 C 383.83 120.5 382.66 120.17 381.5 119.8 C 380.34 119.44 379.19 119.04 378.05 118.62 C 376.91 118.21 375.78 117.76 374.66 117.29 C 373.54 116.82 372.43 116.32 371.34 115.8 C 370.4 115.35 369.47 114.88 368.57 114.36 C 367.66 113.85 366.78 113.31 365.91 112.73 C 365.05 112.15 364.2 111.54 363.39 110.91 C 362.57 110.27 361.77 109.6 361 108.9 C 360.31 108.26 359.66 107.59 359.05 106.89 C 358.43 106.18 357.86 105.45 357.32 104.68 C 356.78 103.92 356.28 103.13 355.83 102.31 C 355.38 101.49 354.97 100.65 354.6 99.79 C 354.21 98.85 353.87 97.88 353.58 96.9 C 353.29 95.92 353.05 94.93 352.86 93.92 C 352.67 92.91 352.54 91.9 352.45 90.88 C 352.37 89.86 352.34 88.84 352.36 87.82 C 352.35 86.68 352.4 85.55 352.52 84.42 C 352.63 83.3 352.81 82.18 353.06 81.07 C 353.3 79.97 353.6 78.87 353.97 77.8 C 354.33 76.73 354.76 75.68 355.24 74.65 C 355.71 73.66 356.23 72.69 356.81 71.75 C 357.38 70.81 358.01 69.91 358.69 69.05 C 359.37 68.18 360.1 67.36 360.88 66.57 C 361.66 65.79 362.48 65.06 363.34 64.37 C 364.28 63.61 365.27 62.9 366.28 62.24 C 367.3 61.57 368.34 60.96 369.42 60.39 C 370.49 59.83 371.59 59.31 372.71 58.85 C 373.83 58.39 374.98 57.98 376.14 57.63 C 377.49 57.2 378.87 56.82 380.26 56.51 C 381.64 56.19 383.04 55.92 384.45 55.72 C 385.86 55.51 387.28 55.36 388.7 55.27 C 390.12 55.18 391.54 55.15 392.97 55.17 C 404.72 55.17 414.03 57.94 420.9 63.47 C 422.6 64.84 424.16 66.37 425.55 68.04 C 426.95 69.72 428.17 71.52 429.21 73.44 C 430.24 75.35 431.09 77.37 431.72 79.45 C 432.36 81.53 432.79 83.67 433 85.83 L 413.8 87.4 C 413.56 86.31 413.23 85.24 412.81 84.21 C 412.39 83.18 411.88 82.19 411.29 81.24 C 410.7 80.3 410.02 79.41 409.27 78.59 C 408.52 77.76 407.7 77 406.82 76.32 C 405.76 75.6 404.63 74.98 403.46 74.44 C 402.29 73.91 401.08 73.48 399.84 73.14 C 398.6 72.8 397.33 72.57 396.05 72.44 C 394.77 72.31 393.48 72.28 392.2 72.35 C 390.99 72.28 389.78 72.32 388.57 72.45 C 387.37 72.59 386.18 72.83 385.02 73.18 C 383.85 73.52 382.72 73.96 381.64 74.5 C 380.55 75.03 379.51 75.66 378.54 76.38 C 377.75 76.99 377.04 77.69 376.42 78.47 C 375.79 79.24 375.26 80.09 374.84 80.99 C 374.41 81.88 374.09 82.83 373.88 83.8 C 373.68 84.77 373.58 85.77 373.61 86.76 C 373.59 87.29 373.6 87.82 373.66 88.35 C 373.71 88.87 373.79 89.39 373.92 89.91 C 374.04 90.42 374.19 90.93 374.38 91.42 C 374.57 91.92 374.79 92.4 375.05 92.86 C 375.3 93.29 375.58 93.71 375.89 94.1 C 376.19 94.5 376.52 94.88 376.87 95.24 C 377.21 95.6 377.58 95.94 377.97 96.26 C 378.35 96.58 378.76 96.87 379.18 97.14 C 379.69 97.48 380.21 97.79 380.75 98.09 C 381.28 98.39 381.82 98.68 382.37 98.95 C 382.92 99.21 383.48 99.46 384.05 99.69 C 384.61 99.93 385.19 100.14 385.77 100.34 C 388.36 101.3 391.3 102.32 394.57 103.37 L 402.7 105.9 C 407.75 107.49 412.33 109.15 416.42 110.88 C 417.36 111.28 418.29 111.71 419.2 112.18 C 420.1 112.65 420.99 113.15 421.86 113.68 C 422.73 114.22 423.58 114.79 424.41 115.38 C 425.24 115.98 426.04 116.61 426.82 117.27 C 427.53 117.86 428.19 118.49 428.83 119.16 C 429.46 119.83 430.05 120.53 430.61 121.26 C 431.16 121.99 431.67 122.76 432.14 123.55 C 432.61 124.34 433.04 125.15 433.42 125.99 C 433.83 126.98 434.18 127.99 434.49 129.01 C 434.79 130.04 435.04 131.08 435.23 132.13 C 435.43 133.18 435.56 134.24 435.65 135.31 C 435.73 136.37 435.75 137.44 435.72 138.51 C 435.73 139.76 435.68 141.01 435.55 142.25 C 435.42 143.49 435.22 144.73 434.95 145.94 C 434.68 147.16 434.34 148.37 433.94 149.55 C 433.53 150.73 433.06 151.89 432.52 153.01 C 432 154.1 431.42 155.15 430.79 156.17 C 430.15 157.19 429.45 158.17 428.71 159.11 C 427.96 160.05 427.16 160.94 426.31 161.79 C 425.46 162.64 424.56 163.45 423.62 164.19 C 422.61 164.99 421.57 165.74 420.49 166.45 C 419.41 167.15 418.29 167.8 417.15 168.4 C 416.01 169 414.85 169.55 413.66 170.04 C 412.47 170.53 411.25 170.97 410.02 171.35 C 408.62 171.79 407.2 172.17 405.77 172.49 C 404.33 172.81 402.89 173.08 401.44 173.29 C 399.98 173.51 398.52 173.66 397.05 173.76 C 395.59 173.85 394.12 173.89 392.65 173.87 C 390.06 173.97 387.48 173.86 384.91 173.56 C 382.34 173.26 379.8 172.75 377.31 172.05 C 374.82 171.35 372.39 170.46 370.04 169.39 C 367.69 168.31 365.43 167.06 363.27 165.63 C 361.25 164.17 359.39 162.5 357.71 160.66 C 356.04 158.81 354.56 156.79 353.3 154.64 C 352.05 152.49 351.02 150.21 350.24 147.84 C 349.45 145.47 348.92 143.03 348.65 140.56 L 368.04 138.86 Z M 522.69 55.7 C 524.69 55.87 526.68 56.14 528.65 56.51 C 530.63 56.87 532.58 57.33 534.51 57.89 C 536.44 58.44 538.34 59.09 540.2 59.83 C 541.9 60.51 543.57 61.28 545.18 62.14 C 546.8 63 548.38 63.94 549.9 64.97 C 551.41 65.99 552.88 67.1 554.28 68.28 C 555.68 69.46 557.01 70.71 558.28 72.03 C 559.55 73.38 560.75 74.8 561.88 76.27 C 563.01 77.74 564.07 79.26 565.04 80.84 C 566.01 82.42 566.91 84.04 567.72 85.71 C 568.53 87.37 569.26 89.08 569.9 90.82 C 570.6 92.73 571.21 94.67 571.74 96.64 C 572.26 98.61 572.7 100.6 573.05 102.61 C 573.39 104.62 573.65 106.64 573.81 108.67 C 573.97 110.7 574.05 112.74 574.02 114.78 C 574.05 116.85 573.98 118.92 573.81 120.99 C 573.64 123.06 573.37 125.12 573 127.16 C 572.64 129.2 572.17 131.22 571.61 133.22 C 571.05 135.22 570.39 137.18 569.64 139.12 C 568.94 140.88 568.15 142.59 567.27 144.27 C 566.4 145.95 565.43 147.58 564.39 149.15 C 563.34 150.73 562.22 152.25 561.02 153.71 C 559.82 155.17 558.54 156.57 557.19 157.9 L 572.42 175.69 L 572.42 181.22 L 553.22 181.22 L 542.57 168.22 C 541.6 168.68 540.63 169.12 539.64 169.52 C 538.65 169.93 537.66 170.32 536.65 170.68 C 535.64 171.03 534.62 171.36 533.6 171.67 C 532.58 171.97 531.54 172.25 530.5 172.5 C 529.38 172.74 528.25 172.95 527.12 173.13 C 525.99 173.31 524.85 173.45 523.71 173.57 C 522.57 173.69 521.43 173.78 520.28 173.83 C 519.13 173.89 517.99 173.91 516.84 173.91 C 514.81 173.92 512.78 173.83 510.76 173.64 C 508.74 173.45 506.73 173.17 504.74 172.78 C 502.75 172.4 500.78 171.91 498.83 171.33 C 496.89 170.75 494.97 170.07 493.1 169.31 C 491.4 168.62 489.75 167.85 488.14 166.99 C 486.53 166.12 484.97 165.18 483.46 164.15 C 481.95 163.12 480.5 162.02 479.11 160.83 C 477.72 159.65 476.4 158.39 475.14 157.07 C 473.89 155.73 472.7 154.32 471.59 152.86 C 470.48 151.39 469.44 149.88 468.48 148.31 C 467.52 146.74 466.64 145.12 465.85 143.47 C 465.05 141.81 464.34 140.11 463.72 138.38 C 463.03 136.49 462.43 134.57 461.91 132.62 C 461.4 130.67 460.97 128.7 460.63 126.71 C 460.29 124.73 460.03 122.73 459.87 120.72 C 459.71 118.71 459.64 116.7 459.66 114.68 C 459.64 112.65 459.71 110.62 459.87 108.6 C 460.03 106.58 460.28 104.57 460.62 102.57 C 460.96 100.57 461.39 98.59 461.91 96.62 C 462.43 94.66 463.03 92.73 463.72 90.82 C 464.35 89.08 465.06 87.38 465.86 85.72 C 466.66 84.06 467.55 82.44 468.52 80.87 C 469.48 79.3 470.53 77.77 471.65 76.31 C 472.78 74.85 473.97 73.44 475.24 72.1 C 476.5 70.78 477.84 69.52 479.23 68.34 C 480.63 67.15 482.08 66.04 483.6 65.01 C 485.11 63.98 486.68 63.03 488.29 62.17 C 489.9 61.3 491.56 60.52 493.26 59.83 C 495.11 59.08 497 58.43 498.92 57.87 C 500.84 57.31 502.78 56.84 504.75 56.48 C 506.71 56.11 508.7 55.85 510.69 55.68 C 512.68 55.52 514.68 55.45 516.68 55.49 C 518.69 55.46 520.69 55.53 522.69 55.7 Z M 512.58 72.77 C 511.27 72.89 509.97 73.09 508.68 73.36 C 507.39 73.63 506.12 73.97 504.87 74.37 C 503.62 74.78 502.39 75.26 501.19 75.8 C 500.09 76.31 499.02 76.88 497.98 77.51 C 496.95 78.13 495.95 78.82 494.99 79.56 C 494.03 80.29 493.11 81.09 492.24 81.93 C 491.36 82.77 490.54 83.66 489.77 84.59 C 488.96 85.57 488.21 86.58 487.5 87.64 C 486.8 88.69 486.14 89.77 485.54 90.89 C 484.94 92 484.39 93.14 483.9 94.31 C 483.41 95.48 482.98 96.67 482.6 97.88 C 482.18 99.23 481.82 100.59 481.51 101.96 C 481.2 103.34 480.94 104.73 480.74 106.12 C 480.53 107.52 480.38 108.92 480.29 110.33 C 480.19 111.73 480.15 113.14 480.17 114.55 C 480.15 115.97 480.2 117.4 480.3 118.82 C 480.39 120.23 480.55 121.65 480.76 123.05 C 480.97 124.46 481.24 125.86 481.56 127.24 C 481.89 128.63 482.26 130 482.7 131.36 C 483.08 132.58 483.53 133.78 484.02 134.96 C 484.52 136.13 485.08 137.29 485.68 138.42 C 486.29 139.54 486.95 140.64 487.66 141.71 C 488.36 142.78 489.12 143.81 489.93 144.8 C 490.7 145.75 491.52 146.65 492.39 147.5 C 493.26 148.35 494.18 149.16 495.14 149.91 C 496.1 150.66 497.1 151.36 498.14 152 C 499.18 152.64 500.25 153.23 501.35 153.75 C 502.55 154.3 503.77 154.78 505.02 155.19 C 506.28 155.6 507.55 155.94 508.84 156.21 C 510.12 156.48 511.43 156.67 512.74 156.8 C 514.05 156.92 515.36 156.97 516.68 156.94 C 518 156.96 519.31 156.9 520.62 156.77 C 521.93 156.64 523.23 156.44 524.52 156.17 C 525.8 155.91 527.08 155.57 528.33 155.16 C 529.58 154.76 530.81 154.29 532.01 153.75 C 533.11 153.25 534.18 152.69 535.21 152.08 C 536.25 151.46 537.25 150.79 538.21 150.06 C 539.17 149.33 540.09 148.55 540.96 147.72 C 541.83 146.89 542.66 146.01 543.43 145.09 C 544.25 144.11 545.01 143.09 545.73 142.04 C 546.44 140.98 547.1 139.89 547.71 138.77 C 548.31 137.65 548.87 136.5 549.36 135.33 C 549.85 134.15 550.29 132.96 550.66 131.74 C 551.1 130.35 551.48 128.95 551.81 127.53 C 552.14 126.11 552.41 124.68 552.62 123.25 C 552.84 121.81 552.99 120.36 553.09 118.91 C 553.19 117.46 553.24 116.01 553.22 114.55 C 553.24 113.12 553.19 111.69 553.09 110.26 C 552.99 108.83 552.83 107.4 552.62 105.99 C 552.4 104.57 552.13 103.16 551.81 101.77 C 551.48 100.37 551.1 98.99 550.66 97.62 C 550.28 96.41 549.84 95.22 549.35 94.05 C 548.85 92.89 548.3 91.74 547.69 90.63 C 547.09 89.51 546.43 88.43 545.71 87.38 C 545 86.33 544.24 85.31 543.43 84.33 C 542.65 83.41 541.82 82.53 540.94 81.7 C 540.06 80.87 539.13 80.09 538.17 79.36 C 537.2 78.63 536.2 77.95 535.16 77.33 C 534.12 76.71 533.05 76.15 531.94 75.64 C 530.73 75.12 529.5 74.65 528.24 74.26 C 526.98 73.86 525.69 73.54 524.4 73.28 C 523.1 73.03 521.79 72.84 520.48 72.73 C 519.16 72.62 517.84 72.58 516.52 72.61 C 515.2 72.59 513.89 72.64 512.58 72.77 Z M 654.76 157.49 C 656.51 157.21 658.23 156.75 659.88 156.1 C 661.54 155.45 663.12 154.62 664.59 153.63 C 666.06 152.64 667.42 151.49 668.65 150.2 C 673.19 145.2 675.46 137.51 675.46 127.14 L 675.46 57.69 L 695.4 57.69 L 695.4 127.78 C 695.44 129.57 695.4 131.36 695.29 133.15 C 695.17 134.94 694.98 136.72 694.71 138.49 C 694.44 140.26 694.1 142.02 693.68 143.76 C 693.26 145.5 692.77 147.23 692.2 148.93 C 691.74 150.28 691.21 151.61 690.59 152.91 C 689.98 154.2 689.29 155.46 688.53 156.68 C 687.76 157.89 686.93 159.06 686.03 160.18 C 685.13 161.3 684.17 162.36 683.14 163.36 C 682.13 164.32 681.06 165.22 679.93 166.06 C 678.81 166.89 677.64 167.65 676.42 168.35 C 675.21 169.04 673.95 169.66 672.66 170.21 C 671.38 170.75 670.06 171.22 668.71 171.61 C 665.59 172.47 662.41 173.12 659.2 173.55 C 655.99 173.99 652.75 174.21 649.51 174.21 C 646.27 174.21 643.03 173.99 639.82 173.55 C 636.61 173.12 633.44 172.47 630.31 171.61 C 628.97 171.22 627.66 170.75 626.37 170.21 C 625.09 169.66 623.84 169.04 622.63 168.35 C 621.42 167.65 620.26 166.89 619.14 166.05 C 618.02 165.22 616.95 164.32 615.94 163.36 C 614.92 162.36 613.96 161.29 613.06 160.17 C 612.16 159.06 611.33 157.89 610.57 156.67 C 609.81 155.46 609.12 154.2 608.5 152.91 C 607.89 151.61 607.35 150.28 606.89 148.93 C 606.32 147.23 605.83 145.5 605.41 143.76 C 604.99 142.02 604.64 140.26 604.38 138.49 C 604.11 136.72 603.92 134.94 603.8 133.15 C 603.69 131.36 603.65 129.57 603.69 127.78 L 603.69 57.69 L 623.69 57.69 L 623.69 127.14 C 623.69 137.49 625.97 145.18 630.54 150.2 C 631.74 151.47 633.08 152.61 634.53 153.59 C 635.98 154.57 637.54 155.39 639.16 156.04 C 640.79 156.69 642.49 157.16 644.21 157.45 C 645.94 157.73 647.7 157.83 649.45 157.74 C 651.22 157.85 653 157.77 654.76 157.49 Z M 715.37 166.11 L 755.85 57.82 L 785.86 57.82 L 825.9 166.11 L 825.9 171.54 L 806.22 171.54 L 794.76 139.02 L 745.38 139.02 L 733.8 171.54 L 715.24 171.54 L 715.37 166.11 Z M 751.4 122.03 L 789.06 122.03 L 782.86 103.95 C 780.42 96.89 778.47 91.17 776.97 86.67 C 775.46 82.16 774.18 78.33 773 74.94 L 768.1 74.94 L 766.18 80.34 C 765.54 82.13 764.84 84.14 764.04 86.35 C 763.24 88.55 762.38 91.11 761.42 93.98 C 760.46 96.86 759.3 100.15 757.93 103.95 L 751.4 122.03 Z M 937.7 171.54 L 918.5 171.54 L 883.72 126.82 L 870.92 126.82 L 870.92 171.54 L 851.21 171.54 L 851.21 57.69 L 888.23 57.69 C 889.62 57.69 891 57.71 892.39 57.76 C 893.77 57.81 895.16 57.88 896.54 57.98 C 897.92 58.08 899.3 58.2 900.68 58.35 C 902.06 58.5 903.44 58.67 904.81 58.87 C 906.08 59.06 907.34 59.31 908.58 59.64 C 909.82 59.96 911.04 60.36 912.24 60.82 C 913.44 61.28 914.61 61.81 915.74 62.4 C 916.88 63 917.98 63.65 919.05 64.37 C 928.05 70.29 932.55 79.21 932.55 91.14 C 932.57 92.29 932.54 93.44 932.45 94.59 C 932.37 95.74 932.23 96.89 932.03 98.02 C 931.83 99.16 931.58 100.28 931.28 101.39 C 930.98 102.51 930.62 103.6 930.22 104.68 C 929.87 105.59 929.48 106.48 929.05 107.35 C 928.62 108.22 928.15 109.07 927.64 109.9 C 927.12 110.72 926.57 111.52 925.98 112.29 C 925.39 113.07 924.77 113.81 924.1 114.52 C 923.47 115.19 922.81 115.83 922.13 116.44 C 921.44 117.06 920.73 117.64 919.99 118.19 C 919.25 118.74 918.49 119.26 917.71 119.75 C 916.93 120.23 916.13 120.68 915.3 121.1 C 914.48 121.52 913.64 121.92 912.8 122.29 C 911.95 122.66 911.09 123 910.22 123.32 C 909.35 123.64 908.47 123.93 907.59 124.19 C 906.7 124.46 905.81 124.69 904.9 124.9 L 937.7 166.11 L 937.7 171.54 Z M 870.86 109.7 L 888.17 109.7 C 889.73 109.78 891.29 109.75 892.85 109.62 C 894.4 109.48 895.95 109.24 897.47 108.89 C 898.99 108.54 900.49 108.08 901.94 107.52 C 903.4 106.96 904.82 106.3 906.18 105.54 C 907.29 104.81 908.28 103.93 909.15 102.93 C 910.02 101.94 910.76 100.83 911.33 99.64 C 911.91 98.44 912.33 97.18 912.57 95.88 C 912.81 94.58 912.88 93.25 912.78 91.94 C 912.91 90.63 912.85 89.31 912.61 88.02 C 912.37 86.72 911.95 85.47 911.37 84.29 C 910.78 83.12 910.02 82.03 909.13 81.07 C 908.24 80.1 907.21 79.26 906.09 78.58 C 904.71 77.9 903.28 77.3 901.82 76.79 C 900.37 76.29 898.88 75.88 897.37 75.56 C 895.86 75.24 894.33 75.02 892.79 74.89 C 891.25 74.77 889.71 74.74 888.17 74.81 L 870.86 74.81 L 870.86 109.7 Z M 963.11 57.69 L 1036.97 57.69 L 1036.97 75.13 L 982.57 75.13 L 982.57 104.94 L 1033.06 104.94 L 1033.06 122.06 L 982.66 122.06 L 982.66 154 L 1038.09 154 L 1038.09 171.54 L 963.11 171.54 L 963.11 57.69 Z M 1082.25 138.86 C 1082.48 140.18 1082.83 141.48 1083.3 142.73 C 1083.77 143.99 1084.36 145.2 1085.05 146.34 C 1085.75 147.49 1086.55 148.57 1087.45 149.56 C 1088.35 150.56 1089.34 151.47 1090.41 152.28 C 1091.64 153.13 1092.93 153.87 1094.29 154.51 C 1095.64 155.15 1097.04 155.67 1098.47 156.08 C 1099.91 156.49 1101.38 156.78 1102.86 156.95 C 1104.35 157.13 1105.84 157.17 1107.34 157.1 C 1108.75 157.19 1110.18 157.16 1111.59 157 C 1113 156.84 1114.4 156.55 1115.76 156.15 C 1117.12 155.74 1118.45 155.22 1119.72 154.58 C 1120.99 153.94 1122.2 153.19 1123.34 152.34 C 1124.25 151.58 1125.07 150.73 1125.79 149.78 C 1126.51 148.84 1127.12 147.81 1127.6 146.73 C 1128.09 145.65 1128.45 144.52 1128.68 143.35 C 1128.91 142.19 1129.01 141.01 1128.97 139.82 C 1128.98 139.27 1128.96 138.71 1128.91 138.16 C 1128.85 137.61 1128.76 137.07 1128.63 136.53 C 1128.51 135.99 1128.35 135.46 1128.15 134.94 C 1127.95 134.42 1127.73 133.92 1127.46 133.43 C 1127.2 132.99 1126.92 132.56 1126.6 132.15 C 1126.29 131.74 1125.96 131.34 1125.61 130.97 C 1125.25 130.6 1124.87 130.25 1124.48 129.91 C 1124.08 129.58 1123.67 129.28 1123.24 128.99 C 1122.73 128.65 1122.2 128.33 1121.66 128.02 C 1121.13 127.72 1120.58 127.43 1120.02 127.16 C 1119.47 126.9 1118.9 126.65 1118.33 126.42 C 1117.75 126.19 1117.17 125.99 1116.58 125.8 L 1107.69 123.11 L 1099.11 120.75 C 1097.94 120.44 1096.77 120.1 1095.61 119.74 C 1094.45 119.37 1093.3 118.98 1092.16 118.56 C 1091.02 118.14 1089.89 117.7 1088.77 117.23 C 1087.65 116.75 1086.54 116.26 1085.45 115.73 C 1084.51 115.29 1083.58 114.81 1082.68 114.3 C 1081.77 113.79 1080.89 113.24 1080.02 112.67 C 1079.16 112.09 1078.32 111.48 1077.5 110.84 C 1076.68 110.2 1075.88 109.53 1075.11 108.83 C 1074.43 108.2 1073.77 107.53 1073.16 106.82 C 1072.54 106.12 1071.97 105.38 1071.43 104.62 C 1070.89 103.86 1070.4 103.06 1069.94 102.25 C 1069.49 101.43 1069.08 100.59 1068.71 99.73 C 1067.92 97.73 1067.34 95.65 1066.96 93.52 C 1066.59 91.4 1066.43 89.25 1066.48 87.1 C 1066.54 84.94 1066.81 82.8 1067.29 80.7 C 1067.77 78.6 1068.46 76.55 1069.35 74.59 C 1069.82 73.59 1070.35 72.63 1070.92 71.69 C 1071.5 70.75 1072.13 69.85 1072.81 68.99 C 1073.49 68.12 1074.22 67.3 1075 66.51 C 1075.77 65.73 1076.59 64.99 1077.45 64.3 C 1078.4 63.55 1079.38 62.84 1080.39 62.17 C 1081.41 61.51 1082.45 60.89 1083.53 60.33 C 1084.6 59.76 1085.7 59.25 1086.82 58.79 C 1087.94 58.32 1089.09 57.92 1090.25 57.56 C 1091.61 57.13 1092.98 56.76 1094.37 56.44 C 1095.76 56.12 1097.16 55.86 1098.56 55.65 C 1099.97 55.45 1101.39 55.3 1102.81 55.21 C 1104.23 55.12 1105.66 55.08 1107.08 55.1 C 1118.83 55.1 1128.16 57.87 1135.05 63.41 C 1136.74 64.78 1138.3 66.31 1139.69 67.98 C 1141.08 69.65 1142.3 71.46 1143.34 73.38 C 1144.37 75.29 1145.21 77.3 1145.84 79.39 C 1146.48 81.47 1146.9 83.61 1147.11 85.77 L 1127.91 87.34 C 1127.68 86.25 1127.36 85.18 1126.94 84.15 C 1126.52 83.12 1126.02 82.13 1125.43 81.19 C 1124.84 80.24 1124.17 79.35 1123.43 78.53 C 1122.69 77.7 1121.87 76.94 1121 76.25 C 1119.93 75.54 1118.81 74.91 1117.64 74.38 C 1116.47 73.85 1115.25 73.41 1114.01 73.07 C 1112.77 72.74 1111.51 72.5 1110.23 72.37 C 1108.95 72.24 1107.66 72.21 1106.38 72.29 C 1105.17 72.22 1103.95 72.25 1102.75 72.39 C 1101.54 72.53 1100.35 72.77 1099.19 73.11 C 1098.03 73.45 1096.9 73.9 1095.81 74.43 C 1094.73 74.97 1093.69 75.6 1092.71 76.32 C 1091.93 76.93 1091.22 77.63 1090.6 78.41 C 1089.98 79.18 1089.45 80.03 1089.03 80.93 C 1088.61 81.83 1088.29 82.77 1088.09 83.74 C 1087.88 84.71 1087.79 85.7 1087.82 86.7 C 1087.79 87.23 1087.81 87.75 1087.86 88.28 C 1087.91 88.81 1087.99 89.33 1088.11 89.84 C 1088.23 90.36 1088.38 90.86 1088.57 91.36 C 1088.75 91.85 1088.97 92.33 1089.22 92.8 C 1089.48 93.23 1089.76 93.64 1090.06 94.04 C 1090.37 94.44 1090.69 94.82 1091.04 95.18 C 1091.39 95.54 1091.76 95.88 1092.14 96.19 C 1092.53 96.51 1092.93 96.81 1093.35 97.08 C 1093.87 97.41 1094.39 97.73 1094.92 98.03 C 1095.45 98.33 1096 98.62 1096.55 98.88 C 1097.1 99.15 1097.66 99.4 1098.22 99.63 C 1098.79 99.86 1099.36 100.08 1099.94 100.27 C 1102.54 101.23 1105.48 102.25 1108.78 103.31 L 1116.87 105.83 C 1121.95 107.43 1126.53 109.09 1130.6 110.82 C 1131.54 111.21 1132.46 111.65 1133.37 112.12 C 1134.28 112.58 1135.17 113.09 1136.04 113.62 C 1136.91 114.16 1137.76 114.72 1138.59 115.32 C 1139.41 115.92 1140.22 116.55 1141 117.2 C 1141.7 117.8 1142.37 118.43 1143 119.1 C 1143.63 119.76 1144.23 120.47 1144.78 121.2 C 1145.34 121.93 1145.85 122.69 1146.32 123.48 C 1146.79 124.27 1147.21 125.09 1147.59 125.92 C 1148 126.91 1148.36 127.92 1148.66 128.95 C 1148.97 129.97 1149.22 131.01 1149.41 132.06 C 1149.6 133.12 1149.74 134.18 1149.82 135.24 C 1149.9 136.31 1149.93 137.38 1149.9 138.45 C 1149.91 139.7 1149.85 140.94 1149.72 142.19 C 1149.59 143.43 1149.39 144.66 1149.13 145.88 C 1148.86 147.1 1148.52 148.3 1148.11 149.48 C 1147.71 150.67 1147.23 151.82 1146.7 152.95 C 1146.18 154.03 1145.6 155.09 1144.97 156.11 C 1144.33 157.13 1143.64 158.11 1142.89 159.05 C 1142.14 159.99 1141.34 160.89 1140.49 161.73 C 1139.64 162.58 1138.74 163.38 1137.8 164.13 C 1136.79 164.92 1135.74 165.67 1134.66 166.36 C 1133.58 167.06 1132.47 167.7 1131.33 168.3 C 1130.19 168.89 1129.02 169.44 1127.83 169.92 C 1126.64 170.41 1125.43 170.84 1124.2 171.22 C 1122.79 171.66 1121.37 172.04 1119.94 172.36 C 1118.5 172.69 1117.05 172.96 1115.6 173.17 C 1114.14 173.38 1112.67 173.53 1111.21 173.63 C 1109.74 173.73 1108.26 173.76 1106.79 173.75 C 1104.21 173.84 1101.62 173.74 1099.05 173.43 C 1096.49 173.12 1093.95 172.62 1091.46 171.92 C 1088.97 171.22 1086.54 170.33 1084.19 169.26 C 1081.84 168.18 1079.57 166.93 1077.42 165.5 C 1075.41 164.05 1073.56 162.39 1071.89 160.55 C 1070.22 158.71 1068.76 156.7 1067.51 154.56 C 1066.26 152.42 1065.23 150.15 1064.45 147.8 C 1063.67 145.45 1063.13 143.02 1062.86 140.56 L 1082.25 138.86 Z M 1178.31 57.69 L 1219.91 57.69 C 1221.56 57.65 1223.2 57.67 1224.84 57.77 C 1226.49 57.86 1228.12 58.02 1229.75 58.25 C 1231.38 58.48 1233 58.77 1234.6 59.13 C 1236.21 59.49 1237.8 59.92 1239.37 60.41 C 1240.56 60.77 1241.73 61.21 1242.87 61.71 C 1244.01 62.21 1245.12 62.77 1246.2 63.4 C 1247.27 64.02 1248.31 64.71 1249.31 65.45 C 1250.31 66.2 1251.26 67 1252.17 67.85 C 1252.96 68.62 1253.71 69.44 1254.41 70.31 C 1255.11 71.17 1255.75 72.08 1256.34 73.02 C 1256.92 73.96 1257.45 74.93 1257.92 75.94 C 1258.39 76.94 1258.8 77.98 1259.14 79.03 C 1259.51 80.15 1259.83 81.28 1260.1 82.42 C 1260.38 83.56 1260.6 84.71 1260.78 85.88 C 1260.96 87.04 1261.1 88.2 1261.18 89.37 C 1261.26 90.55 1261.3 91.72 1261.29 92.89 C 1261.32 94.22 1261.28 95.54 1261.18 96.86 C 1261.07 98.17 1260.89 99.48 1260.64 100.78 C 1260.39 102.08 1260.08 103.36 1259.69 104.63 C 1259.31 105.89 1258.86 107.14 1258.34 108.36 C 1257.88 109.42 1257.35 110.45 1256.75 111.45 C 1256.16 112.44 1255.5 113.4 1254.79 114.32 C 1254.07 115.23 1253.3 116.1 1252.48 116.92 C 1251.66 117.74 1250.78 118.51 1249.86 119.22 C 1248.86 119.96 1247.81 120.66 1246.74 121.3 C 1245.66 121.94 1244.56 122.53 1243.42 123.07 C 1242.29 123.61 1241.13 124.09 1239.95 124.51 C 1238.77 124.93 1237.58 125.3 1236.36 125.61 C 1234.9 125.98 1233.42 126.31 1231.94 126.58 C 1230.45 126.86 1228.96 127.09 1227.45 127.27 C 1225.95 127.45 1224.45 127.58 1222.94 127.66 C 1221.43 127.74 1219.92 127.77 1218.41 127.75 L 1198.25 127.75 L 1198.25 171.54 L 1178.38 171.54 L 1178.31 57.69 Z M 1198.18 110.66 L 1217.22 110.66 C 1218.03 110.66 1218.83 110.65 1219.64 110.61 C 1220.44 110.58 1221.24 110.53 1222.05 110.46 C 1222.85 110.39 1223.65 110.29 1224.44 110.18 C 1225.24 110.07 1226.03 109.94 1226.82 109.79 C 1227.5 109.67 1228.16 109.51 1228.82 109.33 C 1229.48 109.14 1230.13 108.93 1230.76 108.68 C 1231.4 108.44 1232.03 108.17 1232.64 107.87 C 1233.26 107.57 1233.86 107.24 1234.44 106.89 C 1234.98 106.55 1235.49 106.18 1235.98 105.78 C 1236.46 105.38 1236.92 104.94 1237.35 104.48 C 1237.78 104.01 1238.18 103.52 1238.54 103.01 C 1238.91 102.49 1239.24 101.95 1239.53 101.39 C 1239.85 100.73 1240.13 100.06 1240.37 99.37 C 1240.61 98.67 1240.8 97.97 1240.96 97.25 C 1241.11 96.54 1241.22 95.81 1241.29 95.09 C 1241.35 94.36 1241.37 93.63 1241.35 92.89 C 1241.38 92.15 1241.35 91.4 1241.29 90.65 C 1241.22 89.9 1241.11 89.16 1240.96 88.43 C 1240.81 87.69 1240.61 86.97 1240.37 86.26 C 1240.13 85.55 1239.85 84.85 1239.53 84.17 C 1239.24 83.61 1238.92 83.06 1238.57 82.54 C 1238.21 82.01 1237.82 81.51 1237.39 81.04 C 1236.97 80.57 1236.51 80.13 1236.03 79.72 C 1235.55 79.3 1235.04 78.93 1234.5 78.58 C 1233.93 78.23 1233.34 77.9 1232.73 77.6 C 1232.13 77.3 1231.51 77.02 1230.88 76.78 C 1230.25 76.53 1229.61 76.32 1228.96 76.14 C 1228.31 75.95 1227.65 75.8 1226.98 75.68 C 1226.19 75.53 1225.4 75.39 1224.6 75.28 C 1223.81 75.17 1223.01 75.08 1222.21 75.01 C 1221.4 74.94 1220.6 74.88 1219.8 74.85 C 1218.99 74.82 1218.19 74.81 1217.38 74.81 L 1198.02 74.81 L 1198.18 110.66 Z M 1266.79 166.11 L 1307.3 57.82 L 1337.32 57.82 L 1377.32 166.11 L 1377.32 171.54 L 1357.8 171.54 L 1346.38 139.02 L 1296.81 139.02 L 1285.38 171.54 L 1266.79 171.54 L 1266.79 166.11 Z M 1302.86 122.03 L 1340.49 122.03 L 1334.28 103.95 C 1331.85 96.89 1329.9 91.17 1328.42 86.67 L 1324.46 74.94 L 1319.4 74.94 L 1317.48 80.34 C 1316.84 82.13 1316.14 84.14 1315.34 86.35 C 1314.54 88.55 1313.67 91.11 1312.71 93.98 C 1311.75 96.86 1310.6 100.15 1309.22 103.95 L 1302.86 122.03 Z M 1498.34 141.42 C 1497.89 142.53 1497.41 143.63 1496.89 144.71 C 1496.36 145.79 1495.81 146.86 1495.22 147.9 C 1494.63 148.95 1494.01 149.98 1493.36 150.98 C 1492.7 151.99 1492.02 152.98 1491.3 153.94 C 1490.56 154.93 1489.78 155.89 1488.97 156.81 C 1488.15 157.74 1487.3 158.63 1486.41 159.5 C 1485.52 160.36 1484.6 161.18 1483.65 161.97 C 1482.7 162.76 1481.72 163.51 1480.71 164.23 C 1479.62 164.99 1478.49 165.72 1477.34 166.39 C 1476.19 167.07 1475.01 167.7 1473.81 168.28 C 1472.61 168.87 1471.38 169.4 1470.13 169.89 C 1468.89 170.37 1467.62 170.81 1466.34 171.19 C 1464.87 171.63 1463.39 172.01 1461.89 172.34 C 1460.39 172.67 1458.87 172.94 1457.35 173.15 C 1455.83 173.37 1454.3 173.52 1452.77 173.62 C 1451.24 173.72 1449.7 173.76 1448.17 173.75 C 1446.19 173.78 1444.21 173.7 1442.24 173.53 C 1440.26 173.36 1438.3 173.09 1436.36 172.71 C 1434.41 172.34 1432.49 171.87 1430.59 171.3 C 1428.69 170.73 1426.83 170.07 1425 169.31 C 1423.33 168.61 1421.69 167.82 1420.1 166.96 C 1418.51 166.09 1416.96 165.14 1415.47 164.11 C 1413.98 163.08 1412.55 161.97 1411.17 160.79 C 1409.8 159.61 1408.48 158.36 1407.24 157.04 C 1405.99 155.69 1404.81 154.28 1403.7 152.81 C 1402.6 151.35 1401.56 149.82 1400.61 148.25 C 1399.66 146.68 1398.78 145.06 1397.99 143.41 C 1397.2 141.75 1396.5 140.05 1395.88 138.32 C 1395.2 136.44 1394.61 134.52 1394.1 132.59 C 1393.59 130.65 1393.17 128.7 1392.84 126.72 C 1392.5 124.75 1392.25 122.77 1392.09 120.77 C 1391.93 118.78 1391.86 116.78 1391.88 114.78 C 1391.86 112.78 1391.93 110.78 1392.09 108.78 C 1392.25 106.79 1392.5 104.8 1392.83 102.83 C 1393.17 100.86 1393.59 98.9 1394.1 96.96 C 1394.61 95.03 1395.2 93.12 1395.88 91.23 C 1396.5 89.5 1397.21 87.79 1398 86.13 C 1398.79 84.46 1399.67 82.84 1400.63 81.26 C 1401.59 79.68 1402.63 78.16 1403.74 76.68 C 1404.86 75.21 1406.05 73.8 1407.3 72.45 C 1408.56 71.12 1409.87 69.85 1411.26 68.66 C 1412.64 67.46 1414.08 66.34 1415.58 65.29 C 1417.08 64.25 1418.63 63.28 1420.23 62.39 C 1421.83 61.51 1423.48 60.71 1425.16 59.99 C 1426.99 59.22 1428.87 58.55 1430.77 57.97 C 1432.67 57.39 1434.61 56.91 1436.56 56.54 C 1438.51 56.16 1440.48 55.88 1442.46 55.71 C 1444.45 55.53 1446.43 55.46 1448.42 55.49 C 1451.18 55.39 1453.94 55.5 1456.68 55.83 C 1459.41 56.15 1462.12 56.69 1464.78 57.42 C 1467.44 58.16 1470.03 59.1 1472.54 60.24 C 1475.06 61.38 1477.48 62.7 1479.78 64.21 C 1481.83 65.6 1483.77 67.16 1485.58 68.86 C 1487.38 70.55 1489.05 72.39 1490.57 74.35 C 1492.09 76.31 1493.44 78.39 1494.63 80.56 C 1495.82 82.74 1496.84 85 1497.67 87.34 L 1477.48 91.3 C 1476.86 89.92 1476.14 88.59 1475.33 87.31 C 1474.53 86.04 1473.63 84.81 1472.66 83.66 C 1471.69 82.5 1470.64 81.41 1469.52 80.4 C 1468.4 79.38 1467.21 78.45 1465.96 77.59 C 1464.64 76.74 1463.26 75.99 1461.83 75.35 C 1460.4 74.7 1458.92 74.17 1457.41 73.75 C 1455.9 73.32 1454.36 73.02 1452.8 72.83 C 1451.24 72.64 1449.67 72.56 1448.1 72.61 C 1446.81 72.58 1445.52 72.63 1444.24 72.75 C 1442.95 72.87 1441.68 73.07 1440.41 73.33 C 1439.15 73.6 1437.91 73.94 1436.68 74.36 C 1435.46 74.77 1434.26 75.25 1433.1 75.8 C 1432.02 76.33 1430.98 76.92 1429.97 77.56 C 1428.96 78.2 1427.98 78.9 1427.05 79.65 C 1426.12 80.39 1425.22 81.19 1424.38 82.04 C 1423.53 82.89 1422.74 83.78 1421.99 84.72 C 1421.21 85.71 1420.47 86.75 1419.79 87.82 C 1419.1 88.88 1418.47 89.98 1417.89 91.11 C 1417.31 92.24 1416.78 93.39 1416.32 94.57 C 1415.85 95.75 1415.43 96.95 1415.08 98.17 C 1414.67 99.51 1414.32 100.86 1414.01 102.23 C 1413.71 103.6 1413.45 104.98 1413.25 106.36 C 1413.05 107.75 1412.9 109.15 1412.81 110.54 C 1412.71 111.94 1412.67 113.34 1412.68 114.74 C 1412.67 116.15 1412.71 117.57 1412.81 118.97 C 1412.91 120.38 1413.06 121.78 1413.26 123.18 C 1413.47 124.57 1413.73 125.96 1414.04 127.33 C 1414.36 128.71 1414.72 130.07 1415.14 131.42 C 1415.52 132.62 1415.95 133.81 1416.44 134.98 C 1416.93 136.14 1417.47 137.28 1418.07 138.39 C 1418.67 139.5 1419.32 140.58 1420.03 141.63 C 1420.73 142.68 1421.48 143.7 1422.28 144.68 C 1423.06 145.59 1423.89 146.47 1424.76 147.29 C 1425.64 148.12 1426.56 148.9 1427.52 149.63 C 1428.48 150.36 1429.48 151.03 1430.51 151.65 C 1431.54 152.27 1432.61 152.83 1433.7 153.33 C 1434.9 153.88 1436.12 154.36 1437.36 154.77 C 1438.61 155.18 1439.87 155.52 1441.16 155.79 C 1442.44 156.05 1443.74 156.25 1445.04 156.37 C 1446.35 156.5 1447.66 156.55 1448.97 156.53 C 1450.59 156.59 1452.21 156.53 1453.82 156.33 C 1455.43 156.13 1457.03 155.8 1458.58 155.34 C 1460.14 154.88 1461.65 154.3 1463.12 153.59 C 1464.58 152.89 1465.98 152.06 1467.3 151.13 C 1468.48 150.27 1469.6 149.34 1470.67 148.35 C 1471.73 147.36 1472.74 146.31 1473.68 145.21 C 1474.62 144.1 1475.5 142.94 1476.3 141.73 C 1477.11 140.52 1477.85 139.26 1478.5 137.97 L 1498.34 141.42 Z M 1525.19 57.69 L 1599.05 57.69 L 1599.05 75.13 L 1544.65 75.13 L 1544.65 104.94 L 1595.24 104.94 L 1595.24 122.06 L 1544.74 122.06 L 1544.74 154 L 1600.17 154 L 1600.17 171.54 L 1525.19 171.54 L 1525.19 57.69 Z" transform="matrix(.18 0 0 .18 -144.014 -20.629)" vector-effect="non-scaling-stroke"></path></g></svg></g></svg>