<svg version="1.2" xmlns="http://www.w3.org/2000/svg" viewBox="0 0 1558 365" width="223.25536" height="134.51135">
	<title>theredip-svg</title>
	<style>
		.s0 { fill: #000000 } 
	</style>
	<path id="Layer" fill-rule="evenodd" class="s0" d="m645.4 281.9c2.1 41.4 2.7 68.3 10 82.5h-70.8c-4.3-11.9-5.8-44.5-7.8-81.9c-1.5-29.5-11.3-42-34.6-42h-16v123.9h-68.1v-311.4h69.3c79.2 0 122.8 13.9 124.4 84c1.4 53.8-23.6 71.5-60.6 78.3c41.1 8.1 51.6 13.9 54.2 66.6zm-61.2-136.7c0-25.9-10.3-39.5-45.6-39.5h-12.4v82h12.4c33.5 0 45.6-6.3 45.6-42.5zm-584-92.2h177.9v52.7h-55.5v258.7h-68.4v-258.7h-54zm338.4 0h73.7v311.4h-73.7v-130.6h-61.6v130.6h-68.4v-311.4h68.4v128.1h61.6zm417.8 258.7h84v52.7h-152.4v-311.4h152.2v52.7h-83.8v72.9h64.5v52.5h-64.5zm321.5-106.3v6.6c0 96.6-30.7 152.4-131.8 152.4h-68v-311.4h68c102.4 0 131.8 47.9 131.8 152.4zm-66.2 1.1c0-67.2-9.2-99.7-51.3-99.7h-13.9v203.9h13.9c42.1 0 51.3-38.1 51.3-104.2zm546-101.8c0 69.1-36.6 105-118.2 105h-10.7v101.9h-68.7v-311.4h79.4c80.3 0 118.2 37.5 118.2 104.5zm-66.6 0.5c0-39.2-17-52.7-52.8-52.7h-9.5v104.5h9.5c35.9 0 52.8-12.6 52.8-51.8zm-242.1-105h70.7v199.3c0 78.5-19.5 116.8-101.4 116.8c-81.9 0-101.4-38.3-101.4-116.8v-199.3h70.7v207.4c0 35.2 4.4 52.3 30.7 52.3c26 0 30.7-17.1 30.7-52.3z" />
</svg>