<svg id="SvgjsSvg1001" width="223.25536" height="134.51135"  xmlns="http://www.w3.org/2000/svg" version="1.1" xmlns:xlink="http://www.w3.org/1999/xlink" xmlns:svgjs="http://svgjs.com/svgjs"><defs id="SvgjsDefs1002"></defs><g id="SvgjsG1008"><svg xmlns="http://www.w3.org/2000/svg" width="223.25536" height="134.51135" viewBox="0 0 215 127"><rect width="230" height="140" x="-115" y="-70" fill="#ffffff" rx="0" ry="0" transform="translate(115 70)" vector-effect="non-scaling-stroke" visibility="hidden" class="colorfff svgShape"></rect><g transform="matrix(3.11 0 0 3.11 115 70)"><g clip-path="url(#a)" transform="translate(8.45 .09)"><clipPath id="a"><rect width="60" height="27.907" x="-30" y="-13.954" rx="0" ry="0" transform="translate(-8.45 -.09)"></rect></clipPath><path d="M 39.1587 17.1949 L 37.7269 17.1949 L 35.5254 10.8906 L 36.8728 10.8906 L 37.5468 12.924 C 37.8596 13.8384 38.1963 14.909 38.4732 15.8235 C 38.7381 14.909 39.0868 13.8504 39.3876 12.936 L 40.0855 10.8906 L 41.3731 10.8906 L 39.1591 17.1949 L 39.1587 17.1949 Z" transform="translate(-38.45 -14.04)" vector-effect="non-scaling-stroke"></path></g><g clip-path="url(#b)" transform="translate(14.34 .09)"><clipPath id="b"><rect width="60" height="27.907" x="-30" y="-13.954" rx="0" ry="0" transform="translate(-14.34 -.09)"></rect></clipPath><path d="M 41.6582 15.9797 L 42.5003 15.3058 C 43.1618 16.0277 43.8478 16.3285 44.5576 16.3285 C 45.2675 16.3285 45.7729 15.9553 45.7729 15.426 C 45.7729 14.9566 45.4242 14.7161 44.7502 14.5839 L 43.8961 14.4033 C 42.5127 14.1145 41.971 13.5732 41.971 12.7191 C 41.971 11.5523 43.0296 10.7461 44.3895 10.7461 C 45.4361 10.7461 46.2183 11.0948 46.8559 11.8411 L 46.0258 12.4667 C 45.4965 11.901 44.9791 11.7568 44.3775 11.7568 C 43.7036 11.7568 43.2346 12.0935 43.2346 12.563 C 43.2346 12.9117 43.4995 13.1162 44.2213 13.2728 L 45.1118 13.4654 C 46.5076 13.7542 47.0249 14.3315 47.0249 15.2703 C 47.0249 16.5334 45.9543 17.3396 44.5705 17.3396 C 43.4276 17.3396 42.4892 16.9066 41.6591 15.9802 L 41.6582 15.9797 Z" transform="translate(-44.34 -14.04)" vector-effect="non-scaling-stroke"></path></g><g clip-path="url(#c)" transform="translate(20.55 .09)"><clipPath id="c"><rect width="60" height="27.907" x="-30" y="-13.954" rx="0" ry="0" transform="translate(-20.55 -.09)"></rect></clipPath><path d="M 50.6783 17.3392 C 48.9577 17.3392 47.7549 15.9553 47.7549 14.0426 C 47.7549 12.1299 48.9581 10.7461 50.6783 10.7461 C 51.9175 10.7461 52.8922 11.3717 53.2889 12.6952 L 51.9894 12.9117 C 51.7848 12.1898 51.3398 11.7448 50.6778 11.7448 C 49.6671 11.7448 49.1498 12.7435 49.1498 14.0426 C 49.1498 15.3417 49.6671 16.3285 50.6778 16.3285 C 51.472 16.3285 51.941 15.7752 52.1819 14.7525 L 53.3488 14.9331 C 53.012 16.4611 52.1096 17.3392 50.6778 17.3392 L 50.6783 17.3392 Z" transform="translate(-50.55 -14.04)" vector-effect="non-scaling-stroke"></path></g><g clip-path="url(#d)" transform="translate(27.08 .09)"><clipPath id="d"><rect width="60" height="27.907" x="-30" y="-13.954" rx="0" ry="0" transform="translate(-27.08 -.09)"></rect></clipPath><path d="M 57.0894 17.3392 C 55.3688 17.3392 54.166 15.9553 54.166 14.0426 C 54.166 12.1299 55.3693 10.7461 57.0894 10.7461 C 58.8096 10.7461 60.0008 12.1175 60.0008 14.0426 C 60.0008 15.9678 58.8096 17.3392 57.0894 17.3392 Z M 57.0894 16.3285 C 58.0881 16.3285 58.6055 15.3297 58.6055 14.0426 C 58.6055 12.7555 58.0881 11.7448 57.0894 11.7448 C 56.0907 11.7448 55.5614 12.7435 55.5614 14.0426 C 55.5614 15.3417 56.0787 16.3285 57.0894 16.3285 Z" transform="translate(-57.08 -14.04)" vector-effect="non-scaling-stroke"></path></g><g clip-path="url(#e)" transform="translate(-16.04)"><clipPath id="e"><rect width="60" height="27.907" x="-30" y="-13.954" rx="0" ry="0" transform="translate(16.04)"></rect></clipPath><path d="M 27.9043 13.51 C 27.6745 6.15649 21.7554 0.237368 14.4018 0.00754255 L 14.4018 0 L 13.9581 0 L 13.5145 0 L 13.5145 0.00754255 C 6.16093 0.237368 0.241805 6.15649 0.0119793 13.51 L 0 13.51 L 0 14.3974 L 0.0119793 14.3974 C 0.0598967 15.9347 0.356274 17.4095 0.862956 18.7832 L 0.850977 18.788 L 1.18995 19.608 L 1.19705 19.6049 C 3.3094 24.3677 8.00974 27.7273 13.5145 27.8994 L 13.5145 27.907 L 13.9568 27.907 C 13.9568 27.907 13.9577 27.907 13.9581 27.907 C 13.9586 27.907 13.959 27.907 13.9595 27.907 L 14.4018 27.907 L 14.4018 27.8994 C 21.7554 27.6696 27.6745 21.7509 27.9043 14.3969 L 27.9119 14.3969 L 27.9119 13.5096 L 27.9043 13.5096 L 27.9043 13.51 Z M 23.905 13.51 C 23.8478 12.4789 23.6335 11.4895 23.2861 10.5653 L 26.1655 9.28576 C 26.6829 10.6363 26.9682 12.0534 27.0165 13.51 L 23.905 13.51 Z M 18.178 23.0979 C 19.1226 22.6556 19.986 22.0695 20.7407 21.368 L 22.8757 23.503 C 21.7824 24.5253 20.5375 25.3434 19.1674 25.9397 L 18.178 23.0979 Z M 8.31898 25.744 C 7.11661 25.1686 6.01673 24.4161 5.03842 23.5008 L 7.17341 21.3658 C 7.85623 22.0012 8.62823 22.542 9.469 22.9671 L 8.31898 25.744 Z M 9.54975 5.13514 C 8.72806 5.54111 7.97025 6.05711 7.29586 6.66406 L 5.03842 4.40662 C 6.01673 3.49131 7.11661 2.73883 8.31898 2.16338 L 9.54975 5.13514 Z M 19.1328 1.95263 C 20.5166 2.54982 21.7736 3.37329 22.8757 4.4044 L 20.6182 6.66184 C 19.8196 5.94353 18.9047 5.35299 17.9047 4.92129 L 19.1328 1.95263 Z M 21.2509 7.28432 L 23.5035 5.03177 C 24.4587 6.05223 25.236 7.20491 25.8204 8.4685 L 22.9373 9.74941 C 22.5003 8.84297 21.9293 8.01285 21.2509 7.28432 Z M 17.4907 5.70882 C 18.4087 6.09704 19.2468 6.62857 19.99 7.29054 L 18.1678 9.11273 C 17.1455 8.22359 15.8389 7.65258 14.4023 7.55453 L 14.4023 5.00648 C 15.4711 5.0575 16.508 5.29309 17.4907 5.70838 L 17.4907 5.70882 Z M 17.8678 17.8652 C 16.8234 18.9096 15.4352 19.4846 13.9581 19.4846 C 12.4811 19.4846 11.0929 18.9096 10.0484 17.8652 C 9.00403 16.8208 8.42902 15.4325 8.42902 13.9555 C 8.42902 12.4785 9.00403 11.0902 10.0484 10.0458 C 11.0929 9.00136 12.4811 8.42635 13.9581 8.42635 C 15.4352 8.42635 16.8234 9.00136 17.8678 10.0458 C 18.9123 11.0902 19.4873 12.4785 19.4873 13.9555 C 19.4873 15.4325 18.9123 16.8208 17.8678 17.8652 Z M 13.5145 7.55453 C 12.0769 7.65258 10.7694 8.22404 9.74674 9.1145 L 7.92455 7.29231 C 8.66772 6.62901 9.50716 6.09704 10.426 5.70838 C 11.4088 5.29265 12.4456 5.05705 13.5145 5.00648 L 13.5145 7.55453 Z M 9.11894 9.74186 C 8.22803 10.7645 7.65568 12.0721 7.55719 13.51 L 4.89999 13.51 C 4.96211 12.4829 5.1946 11.4855 5.59524 10.5392 C 6.00564 9.56883 6.57533 8.68768 7.29098 7.91435 L 9.11894 9.74231 L 9.11894 9.74186 Z M 7.55719 14.3974 C 7.65524 15.8358 8.2267 17.1438 9.11761 18.1669 L 7.17962 20.1049 C 6.51632 19.3617 5.98435 18.5223 5.59568 17.6034 C 5.16487 16.5847 4.92794 15.5075 4.88934 14.3974 L 7.55763 14.3974 L 7.55719 14.3974 Z M 7.80121 20.738 L 9.74497 18.7943 C 10.7681 19.6856 12.0761 20.2579 13.5145 20.356 L 13.5145 23.1357 C 12.4456 23.0846 11.4088 22.849 10.426 22.4338 C 9.45569 22.0233 8.57454 21.4537 7.80121 20.738 Z M 14.4018 20.356 C 15.8393 20.2579 17.1464 19.6865 18.1691 18.7965 L 20.1129 20.7402 C 19.34 21.4545 18.4597 22.0238 17.4903 22.4338 C 16.5075 22.8495 15.4702 23.0851 14.4018 23.1357 L 14.4018 20.356 Z M 18.7969 18.1691 C 19.6892 17.1455 20.2615 15.8367 20.3591 14.3974 L 23.0274 14.3974 C 22.9884 15.5075 22.7519 16.5847 22.3211 17.6034 C 21.9319 18.5232 21.3991 19.363 20.7353 20.1071 L 18.7974 18.1691 L 18.7969 18.1691 Z M 20.3591 13.51 C 20.2606 12.0712 19.6878 10.7628 18.7956 9.73965 L 20.6231 7.91213 C 21.3396 8.68591 21.9102 9.56794 22.3211 10.5392 C 22.7217 11.486 22.9542 12.4829 23.0163 13.51 L 20.3591 13.51 Z M 18.3062 1.62875 L 17.0746 4.60628 C 16.228 4.32765 15.3318 4.15949 14.4018 4.11867 L 14.4018 0.895788 C 15.744 0.940156 17.0524 1.18595 18.3062 1.62919 L 18.3062 1.62875 Z M 13.5145 4.11867 C 12.407 4.16703 11.3467 4.39642 10.3621 4.77754 L 9.13225 1.80755 C 10.5303 1.25118 12.0011 0.94548 13.5145 0.895345 L 13.5145 4.11867 Z M 1.70462 9.40822 L 4.58321 10.6035 L 4.92351 9.78401 L 2.04137 8.58697 C 2.63146 7.27767 3.42698 6.0855 4.4115 5.03398 L 6.66406 7.28654 C 5.1276 8.93747 4.14529 11.1102 4.01175 13.51 L 0.900225 13.51 C 0.946811 12.0974 1.21657 10.722 1.70462 9.40822 Z M 0.900225 14.3974 L 4.00154 14.3974 C 4.03393 15.4001 4.21362 16.3651 4.52109 17.2715 L 1.68421 18.4437 C 1.20903 17.1469 0.946811 15.7901 0.900669 14.3969 L 0.900225 14.3974 Z M 4.84365 18.0986 C 5.27268 19.068 5.85124 19.9562 6.55092 20.7336 L 4.41106 22.8734 C 3.41322 21.8073 2.60972 20.5965 2.01741 19.2663 L 4.84365 18.0986 Z M 9.13225 26.0999 L 10.2783 23.3322 C 11.2863 23.7333 12.3755 23.9738 13.5145 24.0239 L 13.5145 27.0121 C 12.0011 26.9619 10.5303 26.6562 9.13225 26.0999 Z M 14.4018 24.0239 C 15.4356 23.9786 16.4286 23.7759 17.3572 23.4391 L 18.3417 26.2663 C 17.0772 26.717 15.7568 26.9673 14.4018 27.0121 L 14.4018 24.0239 Z M 26.1576 18.6421 L 23.3522 17.4783 L 23.0123 18.2978 L 25.811 19.4584 C 25.2276 20.7141 24.4534 21.8601 23.5035 22.8752 L 21.3636 20.7353 C 22.8859 19.0454 23.8371 16.8314 23.9156 14.3969 L 27.017 14.3969 C 26.9686 15.8606 26.6807 17.2849 26.1584 18.6416 L 26.1576 18.6421 Z" transform="translate(-13.96 -13.95)" vector-effect="non-scaling-stroke"></path></g></g></svg></g></svg>