<?xml version="1.0"?>
<svg xmlns="http://www.w3.org/2000/svg" width="223.25536" height="134.51135" viewBox="-230 -171 460 422">
<defs>
<clipPath id="a"><path d="m178 176v-364l-165.8 165.8-0.01 132.2h-24.38v-132.2l-165.8-165.8v364"/></clipPath>
</defs>
<path d="m192.6 196.8h15.1l22.2 53.4h-14.2l-4-10h-23.1l-4 10h-14.3zm-0.5 33.9h16l-8-20.6zm-41.1-33h13.1v52.5h-13.1zm-62.1 0h19.8c10.7 0 18.9 2.2 24.2 6.5 5.4 4.4 8 10.9 8 19.6 0 8.8-2.6 15.4-7.7 19.7-5.2 4.4-12.9 6.8-23.2 6.7h-21.1zm12.9 42.8h8.2c5.8 0 10-1.5 12.9-4.2s4.3-6.8 4.3-12.4c0-5.5-1.6-9.7-4.7-12.4-2.9-2.8-7.6-4.2-13.8-4.2h-6.9zm-61.6 9.7v-52.5h38.7v9.4h-25.6v11.3h24v9.4h-24v12.8h25.6v9.6zm-55 0h-13.1v-52.5h11.8l16.4 18.9 16.3-18.9h11.8v52.5h-13.2v-32.3l-13.8 16.1h-2.3l-13.9-16.1zm-38.3-52.5h13.2v52.5h-13.2zm-55.6 52.5v-52.5h13v24.9l16.8-24.9h14.7l-18.2 25.1 23.8 27.4h-16.7l-20.4-25.1v25.1zm-25.1-52.5h13.1v52.5h-13.1zm-73.2 53.3-23-53.4h14.4l11.9 29.5 13.6-29.5h10.2l13.5 29.5 11.9-29.5h14.4l-22.9 53.4h-5.7l-16.3-33.2-16.4 33.2z" fill="#484848"/>
<g clip-path="url(#a)">
<circle stroke-width="46" stroke="#069" r="150.5" fill="none"/>
<circle r="104.3" fill="#396"/>
</g>
<circle cy="-113" r="57.3" fill="#900"/>
</svg>