<svg id="Layer_1" data-name="Layer 1" xmlns="http://www.w3.org/2000/svg" viewBox="0 0 215 127"><defs><style>.cls-1{fill:transparent;}.cls-2{fill:#22b9ec;}</style></defs><title>kubernetes.io-logos2</title><rect class="cls-1" x="-3.35417" y="-3.899" width="223.25536" height="134.51136"/><g id="Wink"><path id="W" class="cls-2" d="M12.91,48.96543H27.30572l7.69292,19.15615c.89117-3.32547,6.79187-13.48167,10.18742-20.2225h1.02826c3.54789,6.66467,9.92312,17.30071,10.64443,19.994L64.7421,48.96543H77.80484l-19.23232,42.273H57.37288c-3.97976-7.59162-11.02069-19.34657-11.93927-22.77411-.95819,3.57683-8.26419,15.18249-12.39628,22.77411H31.91386Z"/><path id="i" class="cls-2" d="M81.87981,31.82771,89.72507,26.953l7.84527,4.87472V41.958H81.87981Zm1.33293,17.13772H96.27549V90.1721H83.21274Z"/><path id="n" class="cls-2" d="M106.71045,48.96543h13.06274l-.2285,6.66466c5.0621-11.18293,28.06624-11.64069,28.52477,10.09221V90.1721H135.00672l-.03809-23.15495c.2445-10.39307-15.93045-8.63817-15.15735,1.06635l-.03809,22.0886H106.71045Z"/><path id="k" class="cls-2" d="M156.14323,49.00351H169.206l-.03808,15.005,12.87233-15.0431h14.50993l-14.548,16.833L198.13062,90.1721H182.91614L172.6716,74.63391,169.206,78.29V90.1721H156.14323Z"/></g></svg>