<svg id="Layer_1" data-name="Layer 1" xmlns="http://www.w3.org/2000/svg" viewBox="0 0 215 127"><defs><style>.cls-1{fill:transparent;}.cls-2{fill:#438bca;}.cls-3{fill:#030303;}.cls-4{fill:#fdfdfd;}</style></defs><title>kubernetes.io-logos2</title><rect class="cls-1" x="-4.02201" y="-4.03454" width="223.25536" height="134.51136"/><path class="cls-2" d="M23.18835,77.94422c-.38889-.39147-.93393-.34593-1.40941-.47676-6.66613-1.83419-11.34437-8.36322-10.66135-14.90235A14.4776,14.4776,0,0,1,29.57753,50.22523,26.83033,26.83033,0,0,1,40.00647,56.3468a45.35944,45.35944,0,0,1,6.23086,6.78507c.31727.42431.45584.71686.0704,1.215-3.853,4.98017-8.23457,9.33011-14.06489,12.0347-1.5397.71424-3.20816.97833-4.77957,1.5626ZM33.46693,60.24855a1.55439,1.55439,0,0,0-1.03047-1.6058,1.83124,1.83124,0,0,0-2.06416.45662c-1.716,1.73478-3.46022,3.44211-5.16427,5.18826-.42244.43287-.70868.502-1.13286.01922-.49226-.56025-1.04179-1.07258-1.58476-1.58661a1.859,1.859,0,0,0-2.72555-.13911,1.828,1.828,0,0,0,.21415,2.6244c1.32563,1.34575,2.69335,2.65083,4.00733,4.00749.44618.46068.72905.53422,1.22306.034,2.51659-2.54811,5.06807-5.06224,7.61327-7.58234A1.79456,1.79456,0,0,0,33.46693,60.24855Z"/><path class="cls-3" d="M204.15991,75.11166c-1.50332-.01172-3.00792-.06374-4.50943-.01751a1.75419,1.75419,0,0,1-1.59029-.75989c-1.97343-2.50856-3.984-4.98827-5.98183-7.47788-.19694-.24542-.39275-.492-.59787-.73061-.31237-.36326-.74694-.25583-1.10819-.18681-.45323.0866-.22791.52184-.23006.78863-.02,2.47829-.0374,4.95722.00434,7.435.012.71124-.1589,1.002-.91576.9242-1.28177-.1318-2.93357.53451-3.7556-.265-.7126-.69308-.19033-2.31964-.19249-3.5324-.01374-7.75.00377-15.50015-.02377-23.25011a2.32521,2.32521,0,0,1,.77368-1.85181c1.30874-1.25585,2.55659-2.57435,3.84838-3.88714.40018.34436.23983.71413.24049,1.02393.01225,5.58631-.00087,11.17271.02786,16.7589.00225.43866-.38517,1.08841.29051,1.324.68939.24036,1.14216-.21465,1.58377-.72684,1.98266-2.29951,4.01777-4.55443,5.99514-6.85834a1.73076,1.73076,0,0,1,1.51044-.67342c1.54253.04157,3.087.01179,4.63068.01084v.70814q-4.16766,4.5867-8.3421,9.16729a.56589.56589,0,0,0-.0079.893q4.1873,5.1099,8.35,10.23971Z"/><path class="cls-3" d="M62.34977,66.0802l6.36906-14.80443,6.33343,14.81868c.92456-2.02792,1.81843-3.85944,2.60331-5.736,1.83605-4.38974,5.013-7.115,9.81407-7.64354,5.29562-.583,9.10767,1.319,12.14615,5.88124A11.76974,11.76974,0,0,1,110.461,52.62866a11.5739,11.5739,0,0,1,8.58366,3.63926,11.73741,11.73741,0,0,1-.634,16.35977c-4.127,3.83749-14.01077,4.97139-18.82285-2.91025-4.55062,7.9181-16.49214,7.77316-21.01439.07489l-3.56938,7.145c-2.11306-4.77184-4.16878-9.41418-6.29021-14.2049L62.38577,76.9508,50.60859,53.19035c1.89658,0,3.588.03008,5.27747-.01468.68409-.01812.7398.4893.92182.88185q2.55022,5.5,5.07276,11.01272C62.00317,65.33666,62.12765,65.6022,62.34977,66.0802Zm26.71858-8.95612a6.99263,6.99263,0,1,0,6.87974,6.98481A6.74266,6.74266,0,0,0,89.06835,57.12408Zm21.10219.00026a6.9926,6.9926,0,1,0,6.96664,6.91894A6.75361,6.75361,0,0,0,110.17054,57.12434Z"/><path class="cls-3" d="M154.15731,54.92551c.16411-1.7633.16416-1.77156,1.9411-1.75994.94081.00615,2.16914-.30145,2.74344.16719.60864.49667.1829,1.76508.18571,2.6936.01823,6.01388-.00827,12.028.02969,18.04165.00529.83456-.21716,1.09694-1.0482,1.02511a15.13169,15.13169,0,0,0-2.60729-.00037c-.905.079-1.33541-.18013-1.16227-1.135a3.71252,3.71252,0,0,0,.00456-.60213,11.354,11.354,0,0,1-15.50832-1.79272,12.35232,12.35232,0,0,1,.72462-15.7117A11.2029,11.2029,0,0,1,154.15731,54.92551Zm-6.31075,2.19929c-3.89035.00948-6.639,2.92944-6.62482,7.03768.01407,4.069,2.82346,6.97019,6.72632,6.94609,3.8018-.02347,6.56955-2.96551,6.5735-6.98738C154.52556,60.03665,151.73842,57.11532,147.84656,57.1248Z"/><path class="cls-3" d="M166.76542,55.61139A9.298,9.298,0,0,1,177.88268,53.607a7.57481,7.57481,0,0,1,4.41472,6.41325c.34818,4.788.07282,9.59361.14207,14.39111.0073.5066-.17814.73175-.69147.66627a2.24474,2.24474,0,0,0-.23729-.0014c-1.26006-.02474-2.90538.41958-3.67436-.20384-.8066-.65393-.228-2.35528-.24561-3.59656-.03843-2.71375-.017-5.42843-.00951-8.1427a8.31622,8.31622,0,0,0-.38232-2.78642c-.79349-2.283-2.73515-3.40225-5.45354-3.15638a5.23464,5.23464,0,0,0-4.86287,4.54273,30.30411,30.30411,0,0,0-.13526,3.76778c-.01715,2.87154-.03022,5.7436.01109,8.61465.01107.7694-.20413,1.0324-.99432.97813a26.46866,26.46866,0,0,0-3.08533-.004c-.64044.031-.79447-.19975-.79281-.80563q.02814-10.208-.00052-20.41609c-.00165-.582.18731-.75824.74381-.71427.51131.04039,1.02849.0018,1.54288.01007.787.01263,1.767-.2421,2.30832.12971C167.06059,53.692,166.53787,54.74455,166.76542,55.61139Z"/><path class="cls-3" d="M128.58017,54.65482c3.26807-2.6423,6.75571-2.29748,10.56364-1.37546a15.59573,15.59573,0,0,0-3.12964,3.77712c-.17236.311-.42018.2766-.71051.21834-3.92624-.78781-5.7973,2.00236-6.40667,4.99184-.52241,2.56291-.20937,5.16741-.27145,7.753-.033,1.37387-.03807,2.75023.00786,4.12336.02271.67908-.10539,1.004-.89142.94969-1.25357-.08662-2.89033.39869-3.66944-.22133-.82257-.65458-.24693-2.34894-.25355-3.58528-.02986-5.577.03461-11.155-.04967-16.73085-.01886-1.248.36624-1.5595,1.49617-1.4058a8.16986,8.16986,0,0,0,1.65746.00591C127.958,53.083,128.94424,53.028,128.58017,54.65482Z"/><path class="cls-4" d="M33.46693,60.24855a1.79456,1.79456,0,0,1-.64426,1.41615c-2.5452,2.5201-5.09668,5.03423-7.61327,7.58234-.494.5002-.77688.42666-1.22306-.034-1.314-1.35666-2.6817-2.66174-4.00733-4.00749a1.828,1.828,0,0,1-.21415-2.6244,1.859,1.859,0,0,1,2.72555.13911c.543.514,1.0925,1.02636,1.58476,1.58661.42418.48275.71042.41365,1.13286-.01922,1.704-1.74615,3.44829-3.45348,5.16427-5.18826a1.83124,1.83124,0,0,1,2.06416-.45662A1.55439,1.55439,0,0,1,33.46693,60.24855Z"/></svg>