<svg id="Layer_1" data-name="Layer 1" xmlns="http://www.w3.org/2000/svg" viewBox="0 0 215 127"><defs><style>.cls-1{fill:transparent;}.cls-2{fill:#ff0132;}</style></defs><title>kubernetes.io-logos2</title><rect class="cls-1" x="-3.86833" y="-3.6498" width="223.25536" height="134.51136"/><path class="cls-2" d="M133.96136,70.66026a21.708,21.708,0,0,0-2.6454.88181c0,1.51167-.25194,8.44008-.25194,8.44008-.126,3.14928-1.51165,5.29081-5.16483,6.80244l-1.3857-.37791c1.76358-1.00776,2.64541-2.01555,2.77136-2.77137.37792-1.00776.50387-3.40124.50387-7.68426,0,0,0-3.27527-.126-4.409-.50387-.126-2.77136-.62986-3.5272-.75584V69.77846c1.38571,0,4.66094.126,5.7947.126,1.25971,0,2.77136,0,4.03107-.126v.88181Zm58.82856,2.01555a9.85693,9.85693,0,0,1-1.76359.3779c0,1.13373.126,9.32186.126,11.21143,0,.25195-.252.3779-.62986.126-1.76361-1.76358-7.43231-8.18813-9.32188-10.4556,0,1.51167.126,7.30632.126,8.31412a18.78586,18.78586,0,0,0,2.6454.62986l.126,1.13372h-6.1726V82.87949a9.87439,9.87439,0,0,1,1.76361-.62986c.126-.62985.126-8.692.126-9.32185-.5039,0-1.38567-.126-2.01553-.126V71.4161h4.535c1.63763,1.88956,5.54275,6.17257,7.55828,8.44008,0-1.88957-.126-6.29856-.126-7.0544a15.8,15.8,0,0,1-1.88957-.252l-.126-1.13373c.37792,0,2.51943.126,2.89734.126s2.14151-.126,2.51943-.126ZM159.28159,76.077c0,1.51166-1.38569,2.14152-3.02332,2.39344v1.13373c3.27525-.37789,5.41676-1.6376,5.41676-3.65316v-.126c0-2.26747-1.51165-4.283-5.03885-4.283h-6.80245l.25194,1.25971a12.22013,12.22013,0,0,0,2.14152.126c0,1.51166.25194,7.93617.126,9.82574-.37792.126-1.63763.37791-2.14151.50388l-.126,1.13372h7.81021v-.88181a24.10678,24.10678,0,0,0-2.64539-.50387c0-.3779-.126-9.44784-.126-9.95171a15.27025,15.27025,0,0,1,2.51943.126,2.66465,2.66465,0,0,1,1.76359,2.77138M66.94467,46.97764c-.8818.126-4.66093.88181-5.92065,1.13373-1.38568.37792-14.23474,10.45561-15.11654,12.84909-.126.75584,0,9.57383,0,9.57383l7.30633.50387-.252,2.39344c-1.00777-.126-7.81021,0-12.09325,0-2.14151,0-8.692.252-10.95949.126l.25194-2.26747a15.1106,15.1106,0,0,0,4.7869-.50387c1.25972-.37789,2.26749-.88181,2.26749-2.14152V61.08645c-.50385-1.3857-11.2114-14.8646-13.98279-17.00612-.75583-.252-6.17258-.88182-7.43229-1.13374l.25194-2.26747H40.6167l-.37791,2.14152c-1.13373.252-6.29857.3779-7.68426.75584,3.52719,5.16483,9.06993,11.96727,10.83354,14.48669,1.00777-1.38569,10.45561-8.06214,10.70755-10.0777-1.3857-.252-5.79469-.88181-6.5505-.88181l-.37792-2.26747H68.33037l-1.3857,2.14153Zm52.40405,19.65153c-3.90513-.252-10.70755-.126-14.61268,0l.25194-2.01556c.62986,0,3.77914-.50387,4.535-.62985v-7.0544c-1.88957,0-12.7231.252-14.36071.62985v6.29856s4.66093.50388,5.6687.62986l-.25193,2.14154c-4.15706-.252-12.59713-.252-16.62821,0l.25195-2.26747c1.25971,0,4.66093-.3779,5.41676-.50387.126-1.51167.126-4.0311.126-6.55052V54.158c0-1.13373,0-4.157-.126-5.29081-.8818,0-4.78691-.3779-5.79469-.3779l.25194-2.01555c3.5272.252,14.23475.252,17.1321,0l-.25194,1.88957c-.88179,0-4.66093.62985-5.79468.62985v5.54273H109.523V46.34779c-1.00777-.126-3.65316-.62986-4.78691-.75584l.25194-1.88957c2.39344.126,11.96727.126,14.48669,0l-.126,2.01555c-.75584,0-3.5272.50387-4.535.62986V64.23571s4.03108.50388,4.91287.62986l-.37789,1.7636Zm72.43345,2.14152-2.64541.126.50388-4.535,2.6454.126,2.51943-.126-.50388,4.409Zm3.0233-8.06215h-3.90512V40.42716h8.818l-.75582,3.02331Z"/><path class="cls-2" d="M136.10286,64.48768H134.0873c-3.27526-.126-9.57382-1.88957-9.57382-7.55827V56.4255c0-5.54272,6.29856-7.43229,9.57382-7.55828h2.01556c3.27525.126,9.57381,1.88957,9.57381,7.55828v.50387c0,5.54272-6.29856,7.43229-9.57381,7.55827m15.11655-7.93617c0-6.42455-6.1726-10.32966-15.62042-10.58157h-1.00777c-9.95172.252-15.49447,4.157-15.49447,10.58157v.252c0,6.04661,6.04663,10.32966,15.49447,10.58157H135.599c9.44784-.252,15.49447-4.283,15.62043-10.58157v-.252m20.40736,5.79469h-2.77136c-3.5272-.252-9.95173-2.39344-10.0777-8.44009.126-6.0466,6.5505-8.06214,10.0777-8.31411h2.77136c3.52718.252,9.95172,2.26747,10.0777,8.31411,0,6.0466-6.55052,8.3141-10.0777,8.44009m16.25028-8.4401h0c-.25194-6.80243-6.67648-11.21143-17.13208-11.46338h-.75583c-10.45562.25195-17.00612,4.283-17.13209,11.33741v.252c.25194,7.05441,6.67648,11.21143,17.13209,11.4634h.75583c10.32964-.252,16.88014-4.409,17.13208-11.58938h0M66.94467,60.96046c.37792-.88181,3.40123-7.43229,3.40123-7.43229l2.89733,7.43229Zm15.62042,8.566c-1.13373-1.76358-5.16483-11.96726-7.0544-16.50224l3.40123-.50387.37791-1.76359H74.125c-1.88956,0-9.95171,0-10.70755-.126l-.126,1.76358,4.03108,1.00776s-5.92065,11.84128-7.18036,13.47893c-1.00777.252-3.65316.88182-4.66094,1.00776l-.25194,2.14152c.75584-.126,11.21142,0,12.21921,0l.25194-2.01555L64.0473,67.133s1.63762-3.40124,1.88957-3.77914c1.13372-.252,7.93618-.3779,7.93618-.3779l2.39344,6.55052a37.4619,37.4619,0,0,1-4.03108.50387l-.25194,2.14153H86.974l.252-1.88957c-.8818.126-3.65316-.62986-4.66094-.75584m92.337,13.227c-1.38567-2.89733-3.65318-8.44009-4.283-9.95172l1.63764-.25195.126-1.13374-6.67648.25195v.88182l1.7636.252c-1.13375,2.51943-4.15706,8.944-4.66094,9.6998-.50388.126-1.00777.3779-1.51165.50387l-.126,1.00776c1.51165-.126,4.91288,0,5.41677,0v-.88181l-1.63763-.50387s1.00777-2.51943,1.38568-3.27527h4.66094l1.25972,3.27527s-1.13376.25195-2.01556.3779l-.126.88181h6.80244l.126-1.00776a4.90059,4.90059,0,0,1-2.14149-.126Zm-8.18813-4.283c.25194-.62986,2.01554-4.7869,2.01554-4.7869l1.88957,4.7869Zm-19.90345,4.283c-.88179-1.76359-3.14928-7.30632-4.283-9.95172l1.7636-.3779V71.41613l-6.80245.252v.88181l1.7636.252c-1.13374,2.51942-4.15706,8.944-4.66093,9.69979a7.10071,7.10071,0,0,1-1.51165.50388l-.126,1.00776h5.41676v-.88181l-1.63763-.50388s1.00778-2.51942,1.38569-3.27526h4.66093l1.25971,3.27526s-1.13374.252-2.01554.37791l-.126.88181H148.7l.126-1.00776a4.49365,4.49365,0,0,1-2.01554-.126Zm-8.18813-4.283c.25194-.62986,2.01554-4.7869,2.01554-4.7869l1.88957,4.7869Z"/></svg>
