<svg id="Layer_1" data-name="Layer 1" xmlns="http://www.w3.org/2000/svg" viewBox="0 0 215 127"><defs><style>.cls-1{fill:transparent;}.cls-2{fill:#57595b;}.cls-3{fill:#c1d730;}</style></defs><title>kubernetes.io-logos2</title><rect class="cls-1" x="-3.39559" y="-3.75568" width="223.25536" height="134.51136"/><path class="cls-2" d="M199.735,69.682q-10.15685.0163-20.31369.0325c-1.24692.002-1.24692.0013-1.11144,1.2452.35569,3.26619,2.03284,5.246,4.96521,5.86133,3.61978.75955,6.945-.41475,8.43459-3.0384a.894.894,0,0,1,.93275-.51346c1.91588.01272,3.83263.03646,5.74747-.00973.76392-.01842.78734.20726.55849.83944-1.90929,5.27422-5.70609,8.16337-11.22851,8.80714a16.95094,16.95094,0,0,1-10.99709-1.97642c-4.24358-2.54366-6.22461-6.50691-6.6937-11.27768a15.49561,15.49561,0,0,1,2.769-11.15521c3.61009-4.8407,8.626-6.61639,14.46868-5.90957,6.73893.81524,11.02461,5.30986,12.26238,12.44029.03123.18-.0485.40911.20588.4987Zm-14.943-5.05975h5.84084a.88655.88655,0,0,0,.09893-.00072c.29587-.03344.67787.128.65139-.4503a6.31542,6.31542,0,0,0-4.77423-5.52137,10.15576,10.15576,0,0,0-2.76079-.06981,6.16728,6.16728,0,0,0-5.54484,5.2051c-.10362.66666.07851.86209.7471.84959C180.96368,64.59894,182.87808,64.62212,184.792,64.62222Z"/><path class="cls-3" d="M50.38452,25.9464c1.50449.30007,3.03481.50713,4.50943.91475,13.08148,3.616,20.87913,12.22487,23.90319,25.30763.07125.30828.388.711-.215.87342-.69376.18686-.6592-.37491-.73893-.75108a27.26711,27.26711,0,0,0-7.28982-13.5782A31.91385,31.91385,0,0,0,49.71952,28.891,30.25483,30.25483,0,0,0,26.6727,36.41392c-.71763.61678-1.48745.42084-2.24982.42966-.64431.00745-1.69773.24386-1.84753-.17916-.21787-.61524.70385-1.04833,1.1796-1.49913a33.52973,33.52973,0,0,1,18.89033-8.98994c.21155-.02959.48027.05571.599-.229Z"/><path class="cls-2" d="M79.04485,57.66751c.3057-.26895.249-.55457.30229-.80533A2.92718,2.92718,0,0,1,82.706,54.36624a8.4133,8.4133,0,0,0,3.14664-.17682c.73917-.21735.81029.0305.80779.66255-.01871,4.71627-.01017,9.43266-.01016,14.149,0,4.02374.04873,8.04825-.01553,12.071-.05083,3.18208-.58456,6.25372-2.92207,8.68166a12.996,12.996,0,0,1-6.851,3.72349,21.75785,21.75785,0,0,1-11.82719-.44264c-3.23055-1.12479-5.77928-3.031-6.79062-6.49179-.54028-1.84883-.5259-1.853,1.40606-1.853,1.9172,0,3.83441-.00345,5.75158.00327.34326.0012.7071-.1.86472.417.77892,2.5551,2.84357,3.29954,5.19723,3.52605,4.32532.41626,7.10891-2.02691,7.27983-6.37028.055-1.39751.00862-2.799.00862-4.50866a9.322,9.322,0,0,1-7.03952,4.34439c-7.06067.9384-12.79045-2.45809-14.28838-9.87472a19.00837,19.00837,0,0,1,.93018-11.53439c3.05825-7.13281,12.00648-9.82151,18.17744-5.47353A11.25913,11.25913,0,0,1,79.04485,57.66751ZM65.21679,67.85336a12.80921,12.80921,0,0,0,.25146,2.4994c.53738,3.21351,2.63643,5.4303,5.49435,5.80926a6.46417,6.46417,0,0,0,6.99722-4.04266,11.08058,11.08058,0,0,0-.52837-9.82357c-2.01161-3.68257-7.49946-4.13106-10.266-.9621C65.62075,63.10313,65.23779,65.24743,65.21679,67.85336Z"/><path class="cls-2" d="M127.11645,69.71457c-3.27108,0-6.54259.02792-9.813-.02007-.79289-.01164-.93124.2427-.86152.9571.32546,3.33493,2.00279,5.49681,4.82221,6.13787,3.75677.85418,7.00136-.27772,8.682-3.07853a.84146.84146,0,0,1,.873-.44023c1.91636.00866,3.83346.03358,5.74883-.01045.77208-.01775.79483.22136.5663.85735-1.90109,5.29052-5.72715,8.14835-11.23965,8.79162a17.08818,17.08818,0,0,1-10.74035-1.846c-4.05842-2.31519-6.12647-5.97616-6.80948-10.465a16.0818,16.0818,0,0,1,1.92-10.96913c2.7361-4.57988,6.916-6.836,12.1716-7.15238,4.5127-.27163,8.51994.96132,11.59151,4.42585,3.10563,3.50295,4.05856,7.73871,3.93944,12.29721-.01705.65247-.47077.51081-.83936.51145Q132.1222,69.71982,127.11645,69.71457Zm-4.11973-5.09239c1.91368,0,3.8279-.02656,5.74073.01367.71915.01513.9224-.182.75173-.89816-.907-3.8064-3.17839-5.477-7.09182-5.17407a6.12354,6.12354,0,0,0-5.90424,5.266c-.11585.61377.01873.81544.6638.80445C119.103,64.60094,121.05005,64.62213,122.99672,64.62218Z"/><path class="cls-2" d="M140.08359,54.04712a10.7346,10.7346,0,0,0,3.65118.29575c2.41857-.04451,2.98.42373,3.55017,2.78439.03832.15865.0676.31948.16094.7651.28432-.37048.45-.631.6584-.85131,3.91535-4.13973,10.19924-4.79045,14.82861-2.78763,3.20613,1.38707,4.40717,4.15916,4.86683,7.39008a41.51061,41.51061,0,0,1,.23158,5.82273c.00574,4.78058-.02555,9.56148.026,14.34152.00981.9094-.27076,1.0922-1.11176,1.06714q-3.02077-.09-6.04574-.0001c-.88045.02668-1.17676-.18242-1.16752-1.12571.05016-5.10981.02791-10.22037.02109-15.33065a11.65471,11.65471,0,0,0-.645-4.17176,3.93975,3.93975,0,0,0-3.40016-2.6422c-4.37921-.6-6.985,1.50483-7.34778,5.91757-.33548,4.08077-.09381,8.17-.15767,12.25486-.02268,1.45032-.02533,2.90176.00725,4.35169.01248.5552-.15555.74484-.72568.73789-2.24661-.02744-4.49387-.02352-6.7406-.00215-.53124.00506-.75474-.11685-.75362-.70844q.02626-13.84717.01662-27.69445A2.47577,2.47577,0,0,1,140.08359,54.04712Z"/><path class="cls-2" d="M68.58775,40.73828c-1.66,2.6841-3.19935,5.1725-4.73811,7.66126q-5.406,8.74362-10.82123,17.48156a3.63064,3.63064,0,0,0-.561,2.03943c.02588,4.64888-.003,9.2981.029,13.94691.00521.75828-.17058,1.0245-.98082,1.00775-2.57644-.05326-5.155-.04238-7.732-.00477-.7002.01021-.96376-.11932-.95725-.90471.04073-4.91246.02091-9.82544.01986-14.73824a2.01012,2.01012,0,0,1,.19517-1.04843c3.822-6.80227,7.15105-13.87751,11.34564-20.47208,1.05253-1.65474,2.04081-3.418,4.07262-4.156a10.56809,10.56809,0,0,1,4.5877-.47821A17.41649,17.41649,0,0,0,68.58775,40.73828Z"/><path class="cls-3" d="M15.82364,35.40613a3.2296,3.2296,0,0,1,1.31118.91691c2.44711,2.20923,5.4061,2.56116,8.51565,2.40862a36.112,36.112,0,0,1,8.68636.35325c5.20188,1.00876,8.13788,4.423,9.70039,9.24942a11.39227,11.39227,0,0,1,.53768,5.93c-.09814.4674-.15827,1.17451-.65665,1.23449-.52751.06348-.51837-.6629-.67717-1.05874A15.65358,15.65358,0,0,0,30.15557,44.163,40.32772,40.32772,0,0,1,22.9883,42.78a15.07065,15.07065,0,0,0,4.36124,1.76276,41.30243,41.30243,0,0,1,7.01619,2.3756c4.37162,2.14015,6.90788,5.78574,8.46678,10.2323A3.43337,3.43337,0,0,1,39.683,61.41409a17.478,17.478,0,0,1-12.04589-5.2152c-4.77784-4.525-7.76405-10.18723-10.20169-16.18583A40.64987,40.64987,0,0,1,15.82364,35.40613Z"/><path class="cls-2" d="M96.79526,59.44912c.7374-.95458,1.32784-1.82942,2.02824-2.60545a10.22154,10.22154,0,0,1,8.7999-3.59616c.705.05692,1.03675.27393,1.00842,1.07923-.066,1.87622-.04928,3.757-.00642,5.63452.016.70241-.07834.99145-.8998.84713a11.15782,11.15782,0,0,0-4.2299.03245c-3.17058.66313-5.18436,2.933-5.70516,6.40337a18.07278,18.07278,0,0,0-.20651,2.75554c.01462,3.9877-.00715,7.97559.01968,11.96316.00437.6496-.10962.92652-.84754.91017-2.21194-.049-4.42593-.03632-6.63853-.00577-.62948.00869-.84531-.1503-.84357-.825q.03537-13.644.01063-27.28809c-.0004-.50253-.01112-.81.68392-.58342a11.454,11.454,0,0,0,3.53793.15991c1.91054.0134,2.5158.48065,2.9067,2.3761C96.59149,57.57109,96.6609,58.45768,96.79526,59.44912Z"/><path class="cls-3" d="M17.167,44.30271c.46532.91153.88823,1.80346,1.37077,2.662.3016.53664-.00286.9614-.15946,1.40719-3.06967,8.73838-2.34425,17.15853,2.46948,25.06382,4.83642,7.94258,12.06212,12.53605,21.1905,14.20334.40251.07352.73175.148.80948-.48976A1.77482,1.77482,0,0,1,44.76028,85.526c2.30857-.10279,4.61907-.16291,6.92887-.23769.39846-.01289.81231-.06859.82895.54485.01057.38964.33147.44065.64871.44133.59489.00127,1.18985.007,1.78467.00083.57293-.00592,1.137.09588,1.15444.78028.0177.69458-.53784.81317-1.1169.80711-.56179-.00589-1.12494.02255-1.68519-.00721-.60639-.03221-.8469.23577-.80993.8203a5.76847,5.76847,0,0,1-.00171.88973c-.05829.63255.19013.9209.8469.873.46022-.03358.925-.00953,1.38761-.0052.59706.00557,1.34-.0647,1.34646.76859.00707.90445-.77632.80523-1.40075.81441-.39651.00583-.79318.00165-1.18978.001-.45461-.00078-.92726-.09775-1.06524.56744-.07918.38173-.47962.28326-.75986.27508-2.34321-.06837-4.68764-.11892-7.02817-.24173a1.83559,1.83559,0,0,1-1.80374-1.43953c-.12632-.50639-.40759-.65667-.896-.72414A32.9361,32.9361,0,0,1,14.1799,64.08587,30.82886,30.82886,0,0,1,16.68334,44.906C16.77679,44.70741,16.81018,44.4579,17.167,44.30271Z"/></svg>