<svg version="1.2" xmlns="http://www.w3.org/2000/svg" viewBox="0 0 1578 312" width="223.25536" height="134.51135">
	<title>Zalando_201x_logo-svg</title>
	<style>
		.s0 { fill: #020203 } 
		.s1 { fill: #ff6900 } 
	</style>
	<path id="path4101" fill-rule="evenodd" class="s0" d="m526.9 258.8h-135.6c-4.5 0-8-3.4-8-7.9v-16.6c-0.1-4 1.2-5.8 3.7-8.9l108-125.6h-105.8c-4.5 0-7.9-3.4-7.9-7.9v-11.7c0-4.6 3.4-8 7.9-8h137c4.6 0 8 3.4 8 8v16.9c0.1 3-1 5.6-3.4 8.3l-108.3 125.8h104.4c4.6 0 8 3.4 8 7.9v11.8c0 4.5-3.4 7.9-8 7.9zm267.4 3.5c-24-0.1-37.2-13.7-37.2-38.3v-208.2c-0.2-4.3 3.2-6.6 6.4-6.9l18.9-4.9h1.3c4 0.1 6.2 3.8 6.2 7.3v212c0.1 10.1 5.8 11.1 12.8 11.3 2.4 0 4.8 0.2 4.8 0.2l0.3-0.1c1.9 0 4.2 1.5 4.8 4.8l0.1 0.3c2.6 12.5 2.6 12.5 2.7 13.5 0.1 1.3-0.3 2.6-1.3 3.7-2.8 3.2-10 5.1-19.7 5.3h-0.1q0 0 0 0zm382.9-3.5h-16.9c-4.5 0-7.9-3.4-7.9-7.9v-127.6c-0.3-21.6-6.8-27.6-30-27.9-26.3 0-52.9 6.5-61.7 8.9v146.6c0 4.6-3.2 7.9-7.6 7.9h-17.3c-4.5 0-7.9-3.4-7.9-7.9v-143.1c-0.3-13.3 1-22.5 19.8-28.6 18.1-6.2 52.6-11.5 75.4-11.5 43.5 0.1 62 15.8 62.1 52.5v130.7c0 4.5-3.4 7.9-8 7.9zm178.8-2.5l-2 0.5c-10.8 2.8-25.5 6.5-51.3 6.5h-0.1c-71.1-0.1-85.1-36-85.2-98 0.1-71 22.6-97.5 83.1-97.6 21.4 0 36.1 2.8 46.7 5.3l-0.1-57.2c-0.1-2.5 1-5.8 7-7l18.9-4.8h1c4.3 0.1 5.9 4 5.9 7.3v215.1c0.3 13.6-1.3 25.2-23.9 29.9zm-8.9-155.7c-6.3-1.6-23.9-5.6-43.8-5.6-36.4 0.3-51.7 10.2-52.1 70.7 0.5 66.4 20.2 70 52.5 70.3v1.4-1.4c20 0 37.2-4.2 43.4-5.9 0 0 0-129.5 0-129.5zm230.4 65.1c-0.1 47.3-6.7 97.5-83.5 97.6-76.9-0.1-83.4-50.4-83.5-97.6 0.1-47.4 6.6-97.9 83.5-98 76.9 0.1 83.4 48.5 83.5 98zm-34.2 0c-0.3-46.1-2.7-70.1-49.3-70.3-46.7 0.2-49 24.2-49.3 70.3 0.3 45.8 2.6 69.8 49.3 70 46.6-0.2 49-24.2 49.3-70zm-549.3-44.5v99c0.3 24.6-6 32.4-30.8 38.2-10.8 2.2-27.4 4.9-45.4 4.9-26.6 0-81.8-0.2-81.8-59.7-0.2-46.9 28-55 62-60.2 22.3-3.6 45-4.2 56.5-4.2 3.1 0 5.2 0.1 6.4 0.1v-16.7c-0.2-11.2-0.2-18-10.7-21.9-6.4-2.7-16-4-30.3-4-23.5 0-44.6 5.3-58.6 8.8l-5.3 1.2c-0.6 0.2-1.2 0.3-2 0.4-2.5 0-5.2-1.5-6.1-4.7l-0.1-0.3-3.2-15.9v-0.9c0.1-3.7 2.8-5.9 5.3-6.7 11.3-4.2 41-10.9 73-10.9 23.4 0 40.3 3.1 51.7 9.3 19.5 10.3 19.4 29.1 19.4 44.2zm-33 45.5c-7.7 0.1-45 0.7-59.9 3.9l-1.2 0.2c-16.7 3.7-29.9 6.7-30.1 31.5 0.1 31.1 23.9 33.9 48.3 34.1v1.4-1.4c15.3 0 29.7-2.2 42.9-6.5 0 0 0-63.2 0-63.2zm-243-45.5v99c0.3 24.6-6 32.4-30.8 38.2-10.8 2.2-27.4 4.9-45.5 4.9-26.5 0-81.7-0.2-81.7-59.7-0.2-46.9 28-55 62-60.2 22.3-3.6 45-4.2 56.5-4.2 3.1 0 5.2 0.1 6.3 0.1v-16.7c-0.1-11.2-0.1-18-10.6-21.9-6.4-2.7-16-4-30.3-4-23.5 0-44.6 5.3-58.6 8.8l-5.3 1.2c-0.6 0.2-1.2 0.3-2 0.4-2.5 0-5.2-1.5-6.2-4.7v-0.3l-3.2-15.9v-0.9c0.1-3.7 2.8-5.9 5.3-6.7 11.3-4.2 41-10.9 73-10.9 23.4 0 40.3 3.1 51.7 9.3 19.5 10.3 19.4 29.1 19.4 44.2zm-33 45.5c-7.7 0.1-45 0.7-59.9 3.9l-1.2 0.2c-16.7 3.7-29.9 6.7-30.1 31.4 0.1 31.2 23.9 34 48.3 34.2v1.4-1.4c15.3 0 29.7-2.2 42.9-6.5 0 0 0-63.2 0-63.2z"/>
	<path id="path4105" class="s1" d="m63.4 311.4c-11.5 0-17.9-2.7-21.3-4.7-4.7-2.7-13.4-9.6-21.2-30.2-12.6-32.9-20-73.1-20.3-120.4v-0.2c0.3-47.3 7.7-87.5 20.3-120.4 7.8-20.6 16.5-27.5 21.2-30.3 3.4-1.9 9.8-4.6 21.3-4.6 4.4 0 9.5 0.4 15.5 1.3 34.8 5.7 73.4 19.4 114.5 42.7l0.1 0.1c40.8 23.9 71.9 50.4 94.2 77.8 13.9 17 15.5 28 15.5 33.5 0 5.5-1.6 16.5-15.5 33.5-22.3 27.3-53.4 53.9-94.2 77.8l-0.1 0.1c-41.1 23.3-79.7 37-114.5 42.7-6 0.9-11.1 1.3-15.5 1.3z"/>
</svg>