<?xml version="1.0" encoding="UTF-8" standalone="no"?>
<!-- Created with Inkscape (http://www.inkscape.org/) -->

<svg
   xmlns:dc="http://purl.org/dc/elements/1.1/"
   xmlns:cc="http://creativecommons.org/ns#"
   xmlns:rdf="http://www.w3.org/1999/02/22-rdf-syntax-ns#"
   xmlns:svg="http://www.w3.org/2000/svg"
   xmlns="http://www.w3.org/2000/svg"
   version="1.1"
   width="752.18677"
   height="576.54852"
   id="svg3365"
   xml:space="preserve"><metadata
     id="metadata3371"><rdf:RDF><cc:Work
         rdf:about=""><dc:format>image/svg+xml</dc:format><dc:type
           rdf:resource="http://purl.org/dc/dcmitype/StillImage" /><dc:title></dc:title></cc:Work></rdf:RDF></metadata><defs
     id="defs3369" /><g
     transform="matrix(1.25,0,0,-1.25,-133.11987,1374.6749)"
     id="g3373"><path
       d="m 403.7547,643.0011 c -13.9646,0 -25.2932,12.801 -25.2932,28.5897 0,6.6438 3.0659,14.9337 7.2088,23.375 l -61.397,0 c 0,139.9754 0,67.9734 0,181.7677 82.1823,0 102.1116,0 160.8094,0 0,-105.044 0,-116.9963 0,-181.7677 l -62.8291,0 c 3.9813,-8.4189 6.7938,-16.6473 6.7938,-23.375 0,-15.7887 -11.3249,-28.5897 -25.2932,-28.5897 m 5e-4,0 0,0 z"
       id="path3375"
       style="fill:#ffffff;fill-opacity:1;fill-rule:nonzero;stroke:#336ee5;stroke-width:9;stroke-linecap:butt;stroke-linejoin:miter;stroke-miterlimit:2.61312604;stroke-opacity:1;stroke-dasharray:none" /><path
       d="m 371.2748,784.3445 c 0,-15.6994 -11.63,-28.4349 -25.9744,-28.4349 -6.0361,0 -13.5678,3.4466 -21.2372,8.1042 l 0,-69.0233 -60.836,0 c 3.7522,7.9138 6.353,15.6002 6.353,21.9438 0,15.7031 -11.6337,28.4341 -25.9744,28.4341 -14.3445,0 -25.9745,-12.7307 -25.9745,-28.4341 0,-6.2677 2.8262,-14.0026 6.7445,-21.9438 l -65.4537,0 0,72.0521 c 9.2645,-6.1151 18.7268,-11.133 26.019,-11.133 14.3444,0 25.9744,12.7355 25.9744,28.4349 0,15.7031 -11.63,28.4349 -25.9744,28.4349 -7.3854,0 -16.7545,-4.5973 -26.019,-10.5716 l 0,73.567 c 103.2503,0 108.4386,0 165.1411,0 l 0,-70.6334 c 7.649,4.4759 15.1245,7.638 21.2372,7.638 14.3444,0 25.9744,-12.7318 25.9744,-28.4349 z"
       id="path3377"
       style="fill:#ffffff;fill-opacity:1;fill-rule:nonzero;stroke:#336ee5;stroke-width:9;stroke-linecap:butt;stroke-linejoin:miter;stroke-miterlimit:2.61312604;stroke-opacity:1;stroke-dasharray:none" /><path
       d="m 535.4297,955.6469 c 0,-15.0908 -11.6444,-27.3285 -26.0067,-27.3285 -6.287,0 -14.1855,3.5935 -22.1843,8.3392 l 0,-66.8829 -61.9177,0 c 4.2874,-8.2944 7.3528,-16.425 7.3528,-23.0499 0,-15.0871 -11.6473,-27.3257 -26.0059,-27.3257 -14.3623,0 -26.0067,12.2389 -26.0067,27.3257 0,6.5407 3.3259,14.7368 7.7731,23.0499 l -66.5419,0 0,64.4168 c -6.4675,-3.469 -12.6958,-5.8728 -17.8373,-5.8728 -14.3622,0 -26.0067,12.238 -26.0067,27.3285 0,15.088 11.6445,27.3257 26.0067,27.3257 5.2036,0 11.3973,-2.1889 17.8373,-5.4901 l 0,66.0248 71.2259,0 c -5.777,-9.9686 -10.5922,-20.2229 -10.5922,-28.0766 0,-15.0908 11.6473,-27.3257 26.0059,-27.3257 14.3631,0 26.0067,12.2352 26.0067,27.3257 0,7.9563 -4.409,18.1004 -10.0641,28.0766 l 62.7647,0 0,-68.3994 c 7.9784,4.5785 15.817,7.8647 22.1842,7.8647 14.3623,0 26.0068,-12.238 26.0068,-27.3257 m -6e-4,-3e-4 0,0 z"
       id="path3379"
       style="fill:#ffffff;fill-opacity:1;fill-rule:nonzero;stroke:#336ee5;stroke-width:9;stroke-linecap:butt;stroke-linejoin:miter;stroke-miterlimit:2.61312604;stroke-opacity:1;stroke-dasharray:none" /><path
       d="m 568.2231,1093.2554 c -14.7554,0 -26.7168,-12.2429 -26.7168,-27.3368 0,-6.3564 3.2386,-14.2832 7.6111,-22.3546 l -64.8494,0 0,-65.6064 c -8.439,4.7877 -16.7666,8.2508 -23.4966,8.2508 -14.7546,0 -26.7168,-12.225 -26.7168,-27.3218 0,-15.0967 11.9624,-27.3367 26.7168,-27.3367 6.6441,0 15.0403,3.7732 23.4966,8.7216 l 0,-70.5101 c 101.6144,0 110.467,0 169.8582,0 l 0,72.9187 c -9.7475,-6.0724 -19.7696,-11.1302 -27.4484,-11.1302 -14.7543,0 -26.7168,12.24 -26.7168,27.3367 0,15.0968 11.9625,27.3218 26.7168,27.3218 7.7791,0 17.6973,-4.6347 27.4484,-10.5789 l 0,67.9345 -66.3621,0 c 4.2043,8.0501 7.1753,15.918 7.1753,22.3546 0,15.0939 -11.9616,27.3368 -26.716,27.3368 m -3e-4,0 0,0 z"
       id="path3381"
       style="fill:#ffffff;fill-opacity:1;fill-rule:nonzero;stroke:#336ee5;stroke-width:9;stroke-linecap:butt;stroke-linejoin:miter;stroke-miterlimit:2.61312604;stroke-opacity:1;stroke-dasharray:none" /><path
       d="m 240.6643,1095.2399 c -14.3623,0 -26.0068,-12.227 -26.0068,-27.3263 0,-6.8683 3.6768,-15.5775 8.4609,-24.3221 l -64.1778,0 0,-65.0761 c -7.8948,4.5074 -15.6368,7.7114 -21.9379,7.7114 -14.3623,0 -26.0068,-12.2408 -26.0068,-27.3402 0,-15.0993 11.6445,-27.3262 26.0068,-27.3262 6.2212,0 14.0255,3.5002 21.9379,8.1757 l 0,-69.971 62.2644,0 c -3.8191,-7.5002 -6.5475,-14.7779 -6.5475,-20.7014 0,-15.0993 11.6445,-27.341 26.0068,-27.341 14.3623,0 26.0058,12.242 26.0058,27.341 0,5.9967 -2.5027,13.2267 -6.1545,20.7014 l 63.7681,0 0,70.2587 c 6.8942,-3.814 13.5633,-6.5004 19.0211,-6.5004 14.3623,0 26.0067,12.2269 26.0067,27.3262 0,15.0993 -11.6444,27.341 -26.0067,27.341 -5.5236,0 -12.1547,-2.478 -19.0211,-6.1208 l 0,61.5217 -65.622,0 c 4.6278,8.7307 8.0084,17.3622 8.0084,24.3221 0,15.0993 -11.6435,27.3263 -26.0058,27.3263 z"
       id="path3383"
       style="fill:#ffffff;fill-opacity:1;fill-rule:nonzero;stroke:#336ee5;stroke-width:9;stroke-linecap:butt;stroke-linejoin:miter;stroke-miterlimit:2.61312604;stroke-opacity:1;stroke-dasharray:none" /><path
       d="m 703.7453,783.3773 c 0,15.1832 -11.9894,27.4961 -26.7775,27.4961 -6.4732,0 -14.6058,-3.6154 -22.8413,-8.3903 l 0,67.2928 -63.7526,0 c 4.4144,8.3452 7.5708,16.526 7.5708,23.1911 0,15.1795 -11.9923,27.4932 -26.7766,27.4932 -14.7878,0 -26.7772,-12.3137 -26.7772,-27.4932 0,-6.5807 3.4239,-14.8272 8.0033,-23.1911 l -68.5139,0 0,-64.8116 c -6.6592,3.4905 -13.0717,5.9088 -18.3657,5.9088 -14.7881,0 -26.7775,-12.3129 -26.7775,-27.4961 0,-15.1804 11.9894,-27.4932 26.7775,-27.4932 5.3577,0 11.7348,2.2022 18.3657,5.5236 l 0,-66.4294 73.3362,0 c -5.9479,10.0298 -10.9057,20.3471 -10.9057,28.2487 0,15.1832 11.9922,27.4932 26.7763,27.4932 14.7889,0 26.7775,-12.31 26.7775,-27.4932 0,-8.0051 -4.5397,-18.2115 -10.3626,-28.2487 l 64.6245,0 0,68.8187 c 8.2148,-4.6066 16.2856,-7.9129 22.8413,-7.9129 14.7881,0 26.7775,12.3128 26.7775,27.4932 m 0,3e-4 0,0 z"
       id="path3385"
       style="fill:#ffffff;fill-opacity:1;fill-rule:nonzero;stroke:#336ee5;stroke-width:9;stroke-linecap:butt;stroke-linejoin:miter;stroke-miterlimit:2.61312604;stroke-opacity:1;stroke-dasharray:none" /></g></svg>