<?xml version="1.0" encoding="UTF-8" standalone="no"?>
<!-- Created with Inkscape (http://www.inkscape.org/) -->

<svg
   xmlns:dc="http://purl.org/dc/elements/1.1/"
   xmlns:cc="http://creativecommons.org/ns#"
   xmlns:rdf="http://www.w3.org/1999/02/22-rdf-syntax-ns#"
   xmlns:svg="http://www.w3.org/2000/svg"
   xmlns="http://www.w3.org/2000/svg"
   version="1.1"
   width="647.5"
   height="508.66415"
   id="svg2985"
   xml:space="preserve"><metadata
     id="metadata2991"><rdf:RDF><cc:Work
         rdf:about=""><dc:format>image/svg+xml</dc:format><dc:type
           rdf:resource="http://purl.org/dc/dcmitype/StillImage" /><dc:title></dc:title></cc:Work></rdf:RDF></metadata><defs
     id="defs2989" /><g
     transform="matrix(1.25,0,0,-1.25,-135.60412,1457.3534)"
     id="g2993"><path
       d="m 594.5003,1101.7947 -82.0032,0 0,-314.3911 82.0032,0 c 12.695,0 22.983,9.9012 22.983,22.1131 l 0,270.1641 c 0,12.2159 -10.288,22.1139 -22.983,22.1139 z M 549.4022,767.9514 c -5.2072,0 -9.3636,3.6193 -11.7226,10.2532 l 53.7244,-0.0377 c -1.6341,-5.9678 -6.514,-10.2155 -11.7088,-10.2155 l -30.293,0 z m -431.9189,311.7294 0,-270.1641 c 0,-12.2119 10.2881,-22.1131 22.983,-22.1131 l 82.0069,0 0,314.3911 -82.0069,0 c -12.6949,0 -22.983,-9.898 -22.983,-22.1139 z m 37.7929,-311.7294 30.2879,0 c 5.2121,0 9.6939,4.2069 11.7287,10.2592 l -53.7497,0.0193 c 2.0318,-6.0625 6.5157,-10.2785 11.7331,-10.2785 z m 102.3531,19.4522 219.708,0 0,314.3911 -219.708,0 0,-314.3911 z m 65.2981,354.723 c 3.0668,0 5.5468,-2.4848 5.5468,-5.5519 0,-3.0659 -2.48,-5.5519 -5.5468,-5.5519 -3.0711,0 -5.5562,2.486 -5.5562,5.5519 0,3.0671 2.4851,5.5519 5.5562,5.5519 z m 101.5869,0.5571 c 3.0719,0 5.5519,-2.486 5.5519,-5.552 0,-3.0671 -2.48,-5.5519 -5.5519,-5.5519 -3.0612,0 -5.552,2.4848 -5.552,5.5519 0,3.066 2.4908,5.552 5.552,5.552 z m -104.2232,-15.7958 c 0.9083,-0.2033 1.8451,-0.3011 2.793,-0.2982 0.1021,0 0.2053,0.01 0.3022,0.01 0.1959,0.01 0.381,0.014 0.576,0.029 0.254,0.015 0.5131,0.044 0.7719,0.073 0.049,0.01 0.0981,0.013 0.1511,0.02 1.0938,0.151 2.188,0.4359 3.247,0.879 15.772,5.542 30.6939,8.3151 45.6058,8.32 14.9111,0 29.8293,-2.778 45.6001,-8.32 1.0602,-0.4431 2.1592,-0.728 3.2519,-0.879 0.0542,-0.01 0.1021,-0.01 0.1522,-0.02 0.2588,-0.029 0.512,-0.058 0.7699,-0.073 0.1871,-0.015 0.3821,-0.021 0.5729,-0.029 0.102,0 0.2052,-0.01 0.3061,-0.01 0.9479,0 1.8859,0.095 2.793,0.2982 2.211,-2.9489 4.019,-12.3676 4.6922,-16.0985 l 4.1426,0 c -0.6438,4.2786 -2.321,14.5182 -4.6157,17.9974 1.1718,0.8719 2.1679,1.9868 2.8911,3.3449 2.7059,5.1072 -0.2631,12.043 -6.8562,14.7849 -18.2849,6.6501 -35.996,9.9712 -53.7001,9.9661 -17.7049,0.01 -35.4197,-3.316 -53.7009,-9.9661 -6.5971,-2.7419 -9.561,-9.6777 -6.8559,-14.7849 0.7228,-1.3581 1.7189,-2.473 2.891,-3.3449 -2.2158,-3.3591 -3.3366,-13.9487 -4.0512,-18.1225 l 4.8175,0 c 0.4821,3.9742 1.0547,13.0255 3.4525,16.2236 z"
       id="path2995"
       style="fill:none;stroke:#336ee5;stroke-width:18;stroke-linecap:butt;stroke-linejoin:miter;stroke-miterlimit:2.61312604;stroke-opacity:1;stroke-dasharray:none" /><path
       d="m 594.5003,1101.7947 -82.0032,0 0,-314.3911 82.0032,0 c 12.695,0 22.983,9.9012 22.983,22.1131 l 0,270.1641 c 0,12.2159 -10.288,22.1139 -22.983,22.1139 z M 549.4022,767.9514 c -5.2072,0 -9.3636,3.6193 -11.7226,10.2532 l 53.7244,-0.0377 c -1.6341,-5.9678 -6.514,-10.2155 -11.7088,-10.2155 l -30.293,0 z m -431.9189,311.7294 0,-270.1641 c 0,-12.2119 10.2881,-22.1131 22.983,-22.1131 l 82.0069,0 0,314.3911 -82.0069,0 c -12.6949,0 -22.983,-9.898 -22.983,-22.1139 z m 37.7929,-311.7294 30.2879,0 c 5.2121,0 9.6939,4.2069 11.7287,10.2592 l -53.7497,0.0193 c 2.0318,-6.0625 6.5157,-10.2785 11.7331,-10.2785 z m 102.3531,19.4522 219.708,0 0,314.3911 -219.708,0 0,-314.3911 z m 65.2981,354.723 c 3.0668,0 5.5468,-2.4848 5.5468,-5.5519 0,-3.0659 -2.48,-5.5519 -5.5468,-5.5519 -3.0711,0 -5.5562,2.486 -5.5562,5.5519 0,3.0671 2.4851,5.5519 5.5562,5.5519 z m 101.5869,0.5571 c 3.0719,0 5.5519,-2.486 5.5519,-5.552 0,-3.0671 -2.48,-5.5519 -5.5519,-5.5519 -3.0612,0 -5.552,2.4848 -5.552,5.5519 0,3.066 2.4908,5.552 5.552,5.552 z m -104.2232,-15.7958 c 0.9083,-0.2033 1.8451,-0.3011 2.793,-0.2982 0.1021,0 0.2053,0.01 0.3022,0.01 0.1959,0.01 0.381,0.014 0.576,0.029 0.254,0.015 0.5131,0.044 0.7719,0.073 0.049,0.01 0.0981,0.013 0.1511,0.02 1.0938,0.151 2.188,0.4359 3.247,0.879 15.772,5.542 30.6939,8.3151 45.6058,8.32 14.9111,0 29.8293,-2.778 45.6001,-8.32 1.0602,-0.4431 2.1592,-0.728 3.2519,-0.879 0.0542,-0.01 0.1021,-0.01 0.1522,-0.02 0.2588,-0.029 0.512,-0.058 0.7699,-0.073 0.1871,-0.015 0.3821,-0.021 0.5729,-0.029 0.102,0 0.2052,-0.01 0.3061,-0.01 0.9479,0 1.8859,0.095 2.793,0.2982 2.211,-2.9489 4.019,-12.3676 4.6922,-16.0985 l 4.1426,0 c -0.6438,4.2786 -2.321,14.5182 -4.6157,17.9974 1.1718,0.8719 2.1679,1.9868 2.8911,3.3449 2.7059,5.1072 -0.2631,12.043 -6.8562,14.7849 -18.2849,6.6501 -35.996,9.9712 -53.7001,9.9661 -17.7049,0.01 -35.4197,-3.316 -53.7009,-9.9661 -6.5971,-2.7419 -9.561,-9.6777 -6.8559,-14.7849 0.7228,-1.3581 1.7189,-2.473 2.891,-3.3449 -2.2158,-3.3591 -3.3366,-13.9487 -4.0512,-18.1225 l 4.8175,0 c 0.4821,3.9742 1.0547,13.0255 3.4525,16.2236"
       id="path2997"
       style="fill:#ffffff;fill-opacity:1;fill-rule:nonzero;stroke:none" /><path
       d="m 222.4732,1101.7947 35.1561,0 0,-314.3911 -35.1561,0 0,314.3911 z"
       id="path2999"
       style="fill:none;stroke:#336ee5;stroke-width:18;stroke-linecap:butt;stroke-linejoin:miter;stroke-miterlimit:2.61312604;stroke-opacity:1;stroke-dasharray:none" /><path
       d="m 222.4732,1101.7947 35.1561,0 0,-314.3911 -35.1561,0 0,314.3911 z"
       id="path3001"
       style="fill:#336ee5;fill-opacity:1;fill-rule:evenodd;stroke:none" /><path
       d="m 477.3373,1101.7947 35.1598,0 0,-314.3911 -35.1598,0 0,314.3911 z"
       id="path3003"
       style="fill:none;stroke:#336ee5;stroke-width:18;stroke-linecap:butt;stroke-linejoin:miter;stroke-miterlimit:2.61312604;stroke-opacity:1;stroke-dasharray:none" /><path
       d="m 477.3373,1101.7947 35.1598,0 0,-314.3911 -35.1598,0 0,314.3911 z"
       id="path3005"
       style="fill:#336ee5;fill-opacity:1;fill-rule:evenodd;stroke:none" /><path
       d="m 322.9226,1142.1266 c -3.066,0 -5.5514,-2.4857 -5.5514,-5.5519 0,-3.0662 2.4854,-5.5519 5.5514,-5.5519 3.0659,0 5.5513,2.4857 5.5513,5.5519 0,3.0662 -2.4854,5.5519 -5.5513,5.5519"
       id="path3007"
       style="fill:#336ee5;fill-opacity:1;fill-rule:evenodd;stroke:none" /><path
       d="m 424.5143,1142.6837 c -3.0663,0 -5.552,-2.4857 -5.552,-5.552 0,-3.0662 2.4857,-5.5519 5.552,-5.5519 3.0662,0 5.5519,2.4857 5.5519,5.5519 0,3.0663 -2.4857,5.552 -5.5519,5.552"
       id="path3009"
       style="fill:#336ee5;fill-opacity:1;fill-rule:evenodd;stroke:none" /></g></svg>