<?xml version="1.0" encoding="UTF-8" standalone="no"?>
<!-- Created with Inkscape (http://www.inkscape.org/) -->

<svg
   xmlns:dc="http://purl.org/dc/elements/1.1/"
   xmlns:cc="http://creativecommons.org/ns#"
   xmlns:rdf="http://www.w3.org/1999/02/22-rdf-syntax-ns#"
   xmlns:svg="http://www.w3.org/2000/svg"
   xmlns="http://www.w3.org/2000/svg"
   version="1.1"
   width="562.78589"
   height="137.83365"
   id="svg2"
   xml:space="preserve"><metadata
     id="metadata8"><rdf:RDF><cc:Work
         rdf:about=""><dc:format>image/svg+xml</dc:format><dc:type
           rdf:resource="http://purl.org/dc/dcmitype/StillImage" /><dc:title></dc:title></cc:Work></rdf:RDF></metadata><defs
     id="defs6" /><g
     transform="matrix(1.25,0,0,-1.25,-169.2546,1414.8444)"
     id="g10"><g
       transform="matrix(0,0.18092,-0.18275,0,0,0)"
       id="g12"><path
         d="m 6196.6587,-1043.6173 -94.2902,-195.4939 -211.9113,-48.3046 -169.9617,135.2607 -0.025,216.9692 169.9297,135.2974 211.9254,-48.257 94.3336,-195.4718 z"
         id="path14"
         style="fill:none;stroke:#ffffff;stroke-width:118.52590179;stroke-linecap:butt;stroke-linejoin:round;stroke-miterlimit:4;stroke-opacity:1;stroke-dasharray:none" /></g><path
       d="m 190.7195,1121.0876 35.7253,-17.0589 8.8274,-38.3386 -24.7184,-30.7491 -39.6502,0 -24.7249,30.7431 8.8189,38.3412 35.7219,17.0665 z"
       id="path16"
       style="fill:#336ee5;fill-opacity:1;fill-rule:nonzero;stroke:none" /><g
       transform="matrix(0,0.18092,-0.18275,0,0,0)"
       id="g18"><path
         d="m 6196.6587,-1043.6173 -94.2902,-195.4939 -211.9113,-48.3046 -169.9617,135.2607 -0.025,216.9692 169.9297,135.2974 211.9254,-48.257 94.3336,-195.4718 z"
         id="path20"
         style="fill:none;stroke:#336ee5;stroke-width:74.74790192;stroke-linecap:butt;stroke-linejoin:round;stroke-miterlimit:4;stroke-opacity:1;stroke-dasharray:none" /></g><g
       transform="scale(0.18275,0.18275)"
       id="g22"><path
         d="m 1013.0746,6022.3961 c 73.5242,16.6963 146.8281,-29.4129 163.7263,-102.9867 16.9013,-73.5707 -29.0033,-146.7473 -102.5275,-163.4423 -73.5273,-16.6918 -146.8312,29.4174 -163.7308,102.9881 -16.8982,73.5738 29.0033,146.7505 102.532,163.4409 z"
         id="path24"
         style="fill:none;stroke:#ffffff;stroke-width:30.78089905;stroke-linecap:butt;stroke-linejoin:round;stroke-miterlimit:4;stroke-opacity:1;stroke-dasharray:none" /></g><path
       d="m 188.4186,1104.8074 2.7471,-0.01 0.1746,-20.1921 -4.066,-0.038 1.1443,20.236 z"
       id="path26"
       style="fill:#ffffff;fill-opacity:1;fill-rule:nonzero;stroke:none" /><g
       transform="scale(0.17178,0.18275)"
       id="g28"><path
         d="m 1096.8024,6045.6095 15.9899,-0.034 1.0191,-110.4911 -23.6699,-0.2094 6.6609,110.7345 z"
         id="path30"
         style="fill:none;stroke:#ffffff;stroke-width:0.41159999;stroke-linecap:butt;stroke-linejoin:miter;stroke-miterlimit:4;stroke-opacity:1;stroke-dasharray:none" /></g><path
       d="m 193.0309,1104.8074 -2.7477,-0.01 -0.17,-20.1921 4.0654,-0.037 -1.1477,20.2354 z"
       id="path32"
       style="fill:#ffffff;fill-opacity:1;fill-rule:nonzero;stroke:none" /><g
       transform="scale(0.17178,0.18275)"
       id="g34"><path
         d="m 1123.6518,6045.6098 -15.9947,-0.034 -0.9893,-110.4911 23.6664,-0.2029 -6.6824,110.7283 z"
         id="path36"
         style="fill:none;stroke:#ffffff;stroke-width:0.41159999;stroke-linecap:butt;stroke-linejoin:miter;stroke-miterlimit:4;stroke-opacity:1;stroke-dasharray:none" /></g><path
       d="m 192.8622,1112.4315 c 0,-1.3119 -0.957,-2.3758 -2.1379,-2.3758 -1.1806,0 -2.1379,1.0639 -2.1379,2.3749 0,1.3122 0.9564,2.3757 2.1379,2.3766 1.1809,0 2.1379,-1.0636 2.1379,-2.3757"
       id="path38"
       style="fill:#ffffff;fill-opacity:1;fill-rule:nonzero;stroke:none" /><g
       transform="matrix(0.16447,2e-5,-2e-5,0.18275,0,0)"
       id="g40"><path
         d="m 1173.5053,6087.183 c -8e-4,-7.1804 -5.8238,-12.9997 -13.0019,-12.9988 -7.1785,8e-4 -12.998,5.8229 -12.9986,12.9971 0,7.1802 5.8204,12.9994 13.0023,13.0031 7.1801,-6e-4 12.9994,-5.8212 12.9982,-13.0014 z"
         id="path42"
         style="fill:none;stroke:#ffffff;stroke-width:0.2744;stroke-linecap:butt;stroke-linejoin:miter;stroke-miterlimit:4;stroke-opacity:1;stroke-dasharray:none" /></g><path
       d="m 188.5873,1112.4629 c 5e-4,-0.1876 -0.009,-0.4583 -0.002,-0.6389 0.0286,-0.7569 0.1942,-1.3368 0.2934,-2.0344 0.18,-1.4919 0.3311,-2.7289 0.2384,-3.8784 -0.0851,-0.5754 -0.4184,-0.8025 -0.6959,-1.0686 l 3.3721,-2.2315 -0.5069,9.8354 -2.6988,0.016 z"
       id="path44"
       style="fill:#ffffff;fill-opacity:1;fill-rule:nonzero;stroke:none" /><g
       transform="matrix(0,-0.17178,0.18275,0,0,0)"
       id="g46"><path
         d="m -6476.0579,1031.9675 c 1.0925,0 2.6683,-0.048 3.7194,-0.012 4.4045,0.1551 7.7839,1.0624 11.8431,1.6053 8.6848,0.9836 15.8877,1.8119 22.5774,1.3045 3.35,-0.4652 4.6718,-2.2896 6.2229,-3.8095 l 12.9884,18.4538 -57.2553,-2.7734 -0.096,-14.7685 z"
         id="path48"
         style="fill:none;stroke:#ffffff;stroke-width:0.26840001;stroke-linecap:butt;stroke-linejoin:miter;stroke-miterlimit:4;stroke-opacity:1;stroke-dasharray:none" /></g><path
       d="m 192.8622,1112.4629 c -6e-4,-0.1876 0.009,-0.4583 0.002,-0.6389 -0.0284,-0.7569 -0.1942,-1.3368 -0.2931,-2.0344 -0.1803,-1.4919 -0.3314,-2.7289 -0.2387,-3.8784 0.085,-0.5754 0.4184,-0.8025 0.6959,-1.0686 l -3.3721,-2.2315 0.5068,9.8354 2.6989,0.016 z"
       id="path50"
       style="fill:#ffffff;fill-opacity:1;fill-rule:nonzero;stroke:none" /><g
       transform="matrix(0,-0.17178,0.18275,0,0,0)"
       id="g52"><path
         d="m -6476.0579,1055.3604 c 1.0925,0 2.6683,0.048 3.7194,0.013 4.4045,-0.1551 7.7839,-1.0627 11.8431,-1.6056 8.6848,-0.985 15.8877,-1.8133 22.5774,-1.3059 3.35,0.4669 4.6718,2.291 6.2229,3.8095 l 12.9884,-18.4538 -57.2553,2.7748 -0.096,14.7685 z"
         id="path54"
         style="fill:none;stroke:#ffffff;stroke-width:0.26840001;stroke-linecap:butt;stroke-linejoin:miter;stroke-miterlimit:4;stroke-opacity:1;stroke-dasharray:none" /></g><g
       transform="scale(0.18275,0.18275)"
       id="g56"><path
         d="m 1073.7275,5865.2637 -30.1062,-14.4286 -30.1014,14.4363 -7.433,32.4408 20.8395,26.0096 33.4099,0 20.8321,-26.0158 -7.4409,-32.4374 z"
         id="path58"
         style="fill:none;stroke:#ffffff;stroke-width:30.34600067;stroke-linecap:butt;stroke-linejoin:miter;stroke-miterlimit:4;stroke-opacity:1;stroke-dasharray:none" /></g><path
       d="m 166.9153,1092.2468 1.7175,2.1436 15.8955,-12.4532 -2.5049,-3.2023 -15.1081,13.5119 z"
       id="path60"
       style="fill:#ffffff;fill-opacity:1;fill-rule:nonzero;stroke:none" /><g
       transform="matrix(0.1071,0.1343,-0.14288,0.11394,0,0)"
       id="g62"><path
         d="m 5577.0313,3012.37 15.9896,-0.035 1.0146,-110.4928 -23.6665,-0.2083 6.6623,110.7357 z"
         id="path64"
         style="fill:none;stroke:#ffffff;stroke-width:0.41159999;stroke-linecap:butt;stroke-linejoin:miter;stroke-miterlimit:4;stroke-opacity:1;stroke-dasharray:none" /></g><path
       d="m 169.7907,1095.853 -1.7076,-2.1523 15.6805,-12.7227 2.5636,3.1558 -16.5365,11.7192 z"
       id="path66"
       style="fill:#ffffff;fill-opacity:1;fill-rule:nonzero;stroke:none" /><g
       transform="matrix(0.1071,0.1343,-0.14288,0.11394,0,0)"
       id="g68"><path
         d="m 5603.881,3012.3717 -15.9925,-0.037 -0.9946,-110.4931 23.6681,-0.201 -6.681,110.7309 z"
         id="path70"
         style="fill:none;stroke:#ffffff;stroke-width:0.41159999;stroke-linecap:butt;stroke-linejoin:miter;stroke-miterlimit:4;stroke-opacity:1;stroke-dasharray:none" /></g><path
       d="m 163.7252,1100.4746 c 1.0258,-0.818 1.2605,-2.2294 0.5247,-3.1532 -0.7368,-0.923 -2.1651,-1.0086 -3.191,-0.1905 -1.0259,0.8181 -1.2606,2.2294 -0.5238,3.1524 0.7358,0.9235 2.1645,1.0086 3.1901,0.1913"
       id="path72"
       style="fill:#ffffff;fill-opacity:1;fill-rule:nonzero;stroke:none" /><g
       transform="matrix(0.10253,0.1286,-0.14289,0.11392,0,0)"
       id="g74"><path
         d="m 5852.363,3053.3992 c 0,-7.181 -5.8201,-12.9999 -13.0023,-13.0013 -7.1801,0 -13.0011,5.8235 -12.9999,13.0033 0,7.1788 5.8212,12.9986 13.0013,12.9949 7.1799,0 12.998,-5.8198 13.0009,-12.9969 z"
         id="path76"
         style="fill:none;stroke:#ffffff;stroke-width:0.2744;stroke-linecap:butt;stroke-linejoin:miter;stroke-miterlimit:4;stroke-opacity:1;stroke-dasharray:none" /></g><path
       d="m 161.0354,1097.1516 c 0.1471,-0.1171 0.352,-0.2928 0.4983,-0.4005 0.6089,-0.4496 1.1659,-0.6818 1.7731,-1.0387 1.2787,-0.7894 2.3403,-1.4428 3.181,-2.2322 0.3969,-0.4247 0.3662,-0.8266 0.4011,-1.2099 l 3.8469,1.245 -8.005,5.7356 -1.6954,-2.0993 z"
       id="path78"
       style="fill:#ffffff;fill-opacity:1;fill-rule:nonzero;stroke:none" /><g
       transform="matrix(0.1343,-0.1071,0.11394,0.14288,0,0)"
       id="g80"><path
         d="m -3249.2313,5243.3223 c 1.0933,0 2.664,-0.052 3.7219,-0.013 4.403,0.1539 7.7794,1.0602 11.8409,1.6067 8.6825,0.9833 15.8867,1.8108 22.5788,1.3017 3.3474,-0.4627 4.6661,-2.2856 6.2166,-3.8075 l 12.9912,18.4521 -57.2539,-2.7749 -0.095,-14.7648 z"
         id="path82"
         style="fill:none;stroke:#ffffff;stroke-width:0.26840001;stroke-linecap:butt;stroke-linejoin:miter;stroke-miterlimit:4;stroke-opacity:1;stroke-dasharray:none" /></g><path
       d="m 163.7002,1100.4939 c 0.1471,-0.1179 0.364,-0.2783 0.5009,-0.3971 0.574,-0.4938 0.9247,-0.9851 1.408,-1.4976 1.0542,-1.0709 1.9272,-1.9601 2.8839,-2.6041 0.5026,-0.2929 0.8873,-0.1732 1.2691,-0.1219 l -0.3583,-4.0278 -7.3735,6.5276 1.6699,2.1209 z"
       id="path84"
       style="fill:#ffffff;fill-opacity:1;fill-rule:nonzero;stroke:none" /><g
       transform="matrix(0.1343,-0.1071,0.11394,0.14288,0,0)"
       id="g86"><path
         d="m -3249.2339,5266.7135 c 1.0976,0 2.668,0.05 3.7202,0.011 4.4071,-0.1545 7.7848,-1.0607 11.8446,-1.6044 8.6862,-0.9839 15.8862,-1.8108 22.578,-1.302 3.3491,0.4632 4.668,2.287 6.2194,3.8072 l 12.9861,-18.4518 -57.2505,2.7689 -0.098,14.771 z"
         id="path88"
         style="fill:none;stroke:#ffffff;stroke-width:0.26840001;stroke-linecap:butt;stroke-linejoin:miter;stroke-miterlimit:4;stroke-opacity:1;stroke-dasharray:none" /></g><path
       d="m 163.3717,1067.5882 -0.6052,2.6799 19.6466,4.6636 0.9414,-3.9555 -19.9828,-3.388 z"
       id="path90"
       style="fill:#ffffff;fill-opacity:1;fill-rule:nonzero;stroke:none" /><g
       transform="matrix(0.03823,-0.16747,0.17816,0.04067,0,0)"
       id="g92"><path
         d="m -5847.3578,2171.5747 -15.9939,0.032 -1.0168,110.4913 23.6687,0.207 -6.658,-110.7301 z"
         id="path94"
         style="fill:none;stroke:#ffffff;stroke-width:0.41159999;stroke-linecap:butt;stroke-linejoin:miter;stroke-miterlimit:4;stroke-opacity:1;stroke-dasharray:none" /></g><path
       d="m 162.3447,1072.0848 0.6179,-2.677 19.7238,4.3273 -0.8685,3.972 -19.4732,-5.6223 z"
       id="path96"
       style="fill:#ffffff;fill-opacity:1;fill-rule:nonzero;stroke:none" /><g
       transform="matrix(0.03823,-0.16747,0.17816,0.04067,0,0)"
       id="g98"><path
         d="m -5874.2073,2171.5679 15.9931,0.04 0.9907,110.4919 -23.6673,0.203 6.6835,-110.7352 z"
         id="path100"
         style="fill:none;stroke:#ffffff;stroke-width:0.41159999;stroke-linecap:butt;stroke-linejoin:miter;stroke-miterlimit:4;stroke-opacity:1;stroke-dasharray:none" /></g><path
       d="m 154.9497,1070.2236 c 1.2787,0.2928 2.5293,-0.4039 2.7921,-1.5554 0.2625,-1.1506 -0.5613,-2.3207 -1.8405,-2.6127 -1.2785,-0.2928 -2.5285,0.4042 -2.7919,1.5557 -0.2625,1.1506 0.5613,2.3204 1.8403,2.6124"
       id="path102"
       style="fill:#ffffff;fill-opacity:1;fill-rule:nonzero;stroke:none" /><g
       transform="matrix(0.03662,-0.16034,0.17816,0.04069,0,0)"
       id="g104"><path
         d="m -6133.9467,2130.5761 c 0,7.1785 5.8181,13 13.0008,12.9983 7.1756,0 12.9951,-5.8181 12.9934,-13 0.01,-7.177 -5.8169,-12.9952 -12.9988,-12.9988 -7.177,0 -12.9963,5.8218 -12.9954,13.0005 z"
         id="path106"
         style="fill:none;stroke:#ffffff;stroke-width:0.2744;stroke-linecap:butt;stroke-linejoin:miter;stroke-miterlimit:4;stroke-opacity:1;stroke-dasharray:none" /></g><path
       d="m 155.8706,1066.049 c 0.1826,0.042 0.4485,0.094 0.6234,0.14 0.7316,0.1962 1.2606,0.4867 1.9179,0.7387 1.4151,0.5077 2.5872,0.9304 3.7284,1.0951 0.5797,0.046 0.8745,-0.2285 1.1965,-0.4405 l 1.425,3.7842 -9.4759,-2.6818 0.5847,-2.6357 z"
       id="path108"
       style="fill:#ffffff;fill-opacity:1;fill-rule:nonzero;stroke:none" /><g
       transform="matrix(0.16747,0.03823,-0.04067,0.17816,0,0)"
       id="g110"><path
         d="m 2265.6285,5497.4356 c 1.0922,0 2.6646,-0.046 3.7191,-0.012 4.4067,0.157 7.7848,1.0615 11.842,1.6055 8.6871,0.9856 15.8868,1.813 22.5785,1.3017 3.3494,-0.4609 4.6676,-2.2825 6.219,-3.8053 l 12.9892,18.4519 -57.2525,-2.7689 -0.095,-14.773 z"
         id="path112"
         style="fill:none;stroke:#ffffff;stroke-width:0.26840001;stroke-linecap:butt;stroke-linejoin:miter;stroke-miterlimit:4;stroke-opacity:1;stroke-dasharray:none" /></g><path
       d="m 154.9191,1070.2165 c 0.1834,0.042 0.4447,0.1108 0.6224,0.1449 0.7447,0.1408 1.3471,0.108 2.0489,0.1663 1.4947,0.1571 2.734,0.2849 3.8339,0.6313 0.5425,0.2104 0.6891,0.5859 0.8867,0.9165 l 2.9259,-2.791 -9.701,-1.6957 -0.6168,2.6277 z"
       id="path114"
       style="fill:#ffffff;fill-opacity:1;fill-rule:nonzero;stroke:none" /><g
       transform="matrix(0.16747,0.03823,-0.04067,0.17816,0,0)"
       id="g116"><path
         d="m 2265.6266,5520.8273 c 1.0955,0 2.6674,0.048 3.7204,0.015 4.4087,-0.1554 7.7848,-1.0642 11.8437,-1.6076 8.6865,-0.9822 15.8857,-1.8093 22.5766,-1.3005 3.3519,0.4629 4.6701,2.2867 6.2195,3.8092 l 12.9914,-18.4544 -57.255,2.7686 -0.097,14.7696 z"
         id="path118"
         style="fill:none;stroke:#ffffff;stroke-width:0.26840001;stroke-linecap:butt;stroke-linejoin:miter;stroke-miterlimit:4;stroke-opacity:1;stroke-dasharray:none" /></g><path
       d="m 180.4028,1049.4193 -2.4729,1.1976 8.6037,18.2682 3.6796,-1.7297 -9.8104,-17.7361 z"
       id="path120"
       style="fill:#ffffff;fill-opacity:1;fill-rule:nonzero;stroke:none" /><g
       transform="matrix(0.15477,-0.07453,0.07929,0.16465,0,0)"
       id="g122"><path
         d="m -1704.3131,5602.1797 -15.9959,0.035 -1.0163,110.4899 23.6696,0.2089 -6.6574,-110.7337 z"
         id="path124"
         style="fill:none;stroke:#ffffff;stroke-width:0.41159999;stroke-linecap:butt;stroke-linejoin:miter;stroke-miterlimit:4;stroke-opacity:1;stroke-dasharray:none" /></g><path
       d="m 176.2466,1051.4203 2.4787,-1.1858 8.9138,18.1182 -3.6471,1.7975 -7.7454,-18.7299 z"
       id="path126"
       style="fill:#ffffff;fill-opacity:1;fill-rule:nonzero;stroke:none" /><g
       transform="matrix(0.15477,-0.07453,0.07929,0.16465,0,0)"
       id="g128"><path
         d="m -1731.1657,5602.1774 15.9936,0.038 0.9913,110.4894 -23.6685,0.2032 6.6836,-110.7309 z"
         id="path130"
         style="fill:none;stroke:#ffffff;stroke-width:0.41159999;stroke-linecap:butt;stroke-linejoin:miter;stroke-miterlimit:4;stroke-opacity:1;stroke-dasharray:none" /></g><path
       d="m 173.0908,1044.4779 c 0.5698,1.1821 1.8933,1.7255 2.9574,1.2135 1.0639,-0.5125 1.465,-1.8859 0.8961,-3.0679 -0.569,-1.1823 -1.8933,-1.7255 -2.9569,-1.2129 -1.0644,0.5116 -1.4655,1.8853 -0.8966,3.0673"
       id="path132"
       style="fill:#ffffff;fill-opacity:1;fill-rule:nonzero;stroke:none" /><g
       transform="matrix(0.14819,-0.07134,0.07926,0.16466,0,0)"
       id="g134"><path
         d="m -1806.2385,5560.6793 c 0,7.1805 5.8215,13.0009 13.0028,13.0031 7.1782,0 12.9977,-5.8221 12.9983,-13.0005 0,-7.1799 -5.8204,-13.0003 -13,-12.9986 -7.1804,0 -13.0005,5.8176 -13.0011,12.996 z"
         id="path136"
         style="fill:none;stroke:#ffffff;stroke-width:0.2744;stroke-linecap:butt;stroke-linejoin:miter;stroke-miterlimit:4;stroke-opacity:1;stroke-dasharray:none" /></g><path
       d="m 176.9292,1042.5957 c 0.0814,0.1692 0.2072,0.4082 0.2792,0.5746 0.3033,0.6936 0.4054,1.2883 0.6183,1.9593 0.4853,1.4227 0.8858,2.6028 1.4683,3.5977 0.326,0.4819 0.7246,0.542 1.0908,0.6614 l -2.0701,3.4733 -3.8107,-9.0808 2.4242,-1.1855 z"
       id="path138"
       style="fill:#ffffff;fill-opacity:1;fill-rule:nonzero;stroke:none" /><g
       transform="matrix(0.07453,0.15477,-0.16465,0.07929,0,0)"
       id="g140"><path
         d="m 5915.2105,1602.9556 c 1.093,5e-4 2.6634,-0.051 3.7187,-0.013 4.4056,0.1519 7.7811,1.0601 11.8386,1.6055 8.6885,0.9839 15.8874,1.8114 22.5786,1.3023 3.3522,-0.4658 4.6717,-2.2873 6.222,-3.8084 l 12.9909,18.4516 -57.2525,-2.7717 -0.096,-14.7668 z"
         id="path142"
         style="fill:none;stroke:#ffffff;stroke-width:0.26840001;stroke-linecap:butt;stroke-linejoin:miter;stroke-miterlimit:4;stroke-opacity:1;stroke-dasharray:none" /></g><path
       d="m 173.0781,1044.4501 c 0.0813,0.1693 0.1905,0.4162 0.2747,0.5766 0.354,0.6698 0.7551,1.1203 1.1471,1.7056 0.8096,1.2663 1.482,2.3151 1.8975,3.3908 0.1735,0.5553 -0.0286,0.9037 -0.1641,1.2648 l 4.0068,0.5468 -4.7237,-8.6411 -2.4383,1.1565 z"
       id="path144"
       style="fill:#ffffff;fill-opacity:1;fill-rule:nonzero;stroke:none" /><g
       transform="matrix(0.07453,0.15477,-0.16465,0.07929,0,0)"
       id="g146"><path
         d="m 5915.2102,1626.3454 c 1.093,5e-4 2.6634,0.049 3.719,0.015 4.4068,-0.1576 7.7814,-1.0642 11.8418,-1.6073 8.6876,-0.9845 15.8853,-1.8102 22.5771,-1.3051 3.3508,0.4632 4.6675,2.2868 6.2209,3.8126 l 12.9861,-18.4566 -57.2525,2.7734 -0.092,14.7677 z"
         id="path148"
         style="fill:none;stroke:#ffffff;stroke-width:0.26840001;stroke-linecap:butt;stroke-linejoin:miter;stroke-miterlimit:4;stroke-opacity:1;stroke-dasharray:none" /></g><path
       d="m 205.2142,1051.4551 -2.4778,-1.1863 -8.9189,18.1168 3.647,1.7983 7.7497,-18.7288 z"
       id="path150"
       style="fill:#ffffff;fill-opacity:1;fill-rule:nonzero;stroke:none" /><g
       transform="matrix(0.15477,0.07454,-0.0793,0.16465,0,0)"
       id="g152"><path
         d="m 3732.2325,4696.5302 -15.9925,0.033 -1.0145,110.4942 23.669,0.2069 -6.662,-110.7343 z"
         id="path154"
         style="fill:none;stroke:#ffffff;stroke-width:0.41159999;stroke-linecap:butt;stroke-linejoin:miter;stroke-miterlimit:4;stroke-opacity:1;stroke-dasharray:none" /></g><path
       d="m 201.0589,1049.4536 2.4726,1.1985 -8.6082,18.2659 -3.6791,-1.7312 9.8147,-17.7332 z"
       id="path156"
       style="fill:#ffffff;fill-opacity:1;fill-rule:nonzero;stroke:none" /><g
       transform="matrix(0.15477,0.07454,-0.0793,0.16465,0,0)"
       id="g158"><path
         d="m 3705.3831,4696.5288 15.9973,0.037 0.9887,110.4928 -23.6687,0.2009 6.6827,-110.7306 z"
         id="path160"
         style="fill:none;stroke:#ffffff;stroke-width:0.41159999;stroke-linecap:butt;stroke-linejoin:miter;stroke-miterlimit:4;stroke-opacity:1;stroke-dasharray:none" /></g><path
       d="m 204.5188,1042.6578 c -0.5697,1.182 -0.1683,2.5563 0.8952,3.0679 1.0636,0.5125 2.3876,-0.03 2.9577,-1.2121 0.5689,-1.182 0.1681,-2.5554 -0.8955,-3.0682 -1.0641,-0.5125 -2.3876,0.031 -2.9574,1.2124"
       id="path162"
       style="fill:#ffffff;fill-opacity:1;fill-rule:nonzero;stroke:none" /><g
       transform="matrix(0.14817,0.07138,-0.07932,0.16464,0,0)"
       id="g164"><path
         d="m 3871.7606,4654.3567 c 8e-4,7.181 5.8243,13.003 13.0011,13.0008 7.1782,5e-4 12.9991,-5.8187 12.9997,-13.0006 0,-7.1784 -5.8195,-12.9982 -12.9994,-12.9982 -7.1819,-6e-4 -12.9974,5.8215 -13.0014,12.998 z"
         id="path166"
         style="fill:none;stroke:#ffffff;stroke-width:0.2744;stroke-linecap:butt;stroke-linejoin:miter;stroke-miterlimit:4;stroke-opacity:1;stroke-dasharray:none" /></g><path
       d="m 208.3836,1044.4844 c -0.0814,0.1698 -0.1899,0.417 -0.2747,0.5775 -0.3543,0.6695 -0.7554,1.1199 -1.1472,1.7053 -0.8095,1.2665 -1.4819,2.3145 -1.8975,3.3911 -0.1735,0.5553 0.0287,0.9037 0.1633,1.2639 l -4.0059,0.5477 4.7233,-8.6411 2.4387,1.1556 z"
       id="path168"
       style="fill:#ffffff;fill-opacity:1;fill-rule:nonzero;stroke:none" /><g
       transform="matrix(0.07454,-0.15477,0.16465,0.0793,0,0)"
       id="g170"><path
         d="m -4951.7391,3507.378 c -1.0975,0 -2.6668,0.053 -3.7224,0.017 -4.4065,-0.1571 -7.7837,-1.0644 -11.8432,-1.6058 -8.6862,-0.9848 -15.8811,-1.8114 -22.5771,-1.304 -3.3491,0.4626 -4.6666,2.2847 -6.2161,3.8075 l -12.992,-18.4507 57.2536,2.7686 0.097,14.7677 z"
         id="path172"
         style="fill:none;stroke:#ffffff;stroke-width:0.26840001;stroke-linecap:butt;stroke-linejoin:miter;stroke-miterlimit:4;stroke-opacity:1;stroke-dasharray:none" /></g><path
       d="m 204.5333,1042.6297 c -0.0822,0.1693 -0.2072,0.4094 -0.2801,0.5746 -0.3027,0.6948 -0.4053,1.2895 -0.6179,1.9605 -0.4856,1.4227 -0.8861,2.6019 -1.4687,3.5977 -0.3262,0.4819 -0.7242,0.5411 -1.0904,0.6602 l 2.0701,3.4738 3.8109,-9.0802 -2.4239,-1.1866 z"
       id="path174"
       style="fill:#ffffff;fill-opacity:1;fill-rule:nonzero;stroke:none" /><g
       transform="matrix(0.07454,-0.15477,0.16465,0.0793,0,0)"
       id="g176"><path
         d="m -4951.7379,3483.9904 c -1.0962,0 -2.6697,-0.048 -3.7205,-0.015 -4.4084,0.1573 -7.7868,1.0636 -11.8437,1.607 -8.6876,0.9856 -15.8839,1.8108 -22.5782,1.3033 -3.3517,-0.4643 -4.6684,-2.2869 -6.2195,-3.8094 l -12.989,18.4538 57.2514,-2.7692 0.1,-14.7702 z"
         id="path178"
         style="fill:none;stroke:#ffffff;stroke-width:0.26840001;stroke-linecap:butt;stroke-linejoin:miter;stroke-miterlimit:4;stroke-opacity:1;stroke-dasharray:none" /></g><path
       d="m 219.1056,1072.1341 -0.6173,-2.677 -19.7252,4.3223 0.868,3.9727 19.4745,-5.618 z"
       id="path180"
       style="fill:#ffffff;fill-opacity:1;fill-rule:nonzero;stroke:none" /><g
       transform="matrix(0.03822,0.16747,-0.17816,0.04066,0,0)"
       id="g182"><path
         d="m 6368.633,136.4414 -15.9914,0.0349 -1.0179,110.4945 23.6696,0.2061 -6.6603,-110.7355 z"
         id="path184"
         style="fill:none;stroke:#ffffff;stroke-width:0.41159999;stroke-linecap:butt;stroke-linejoin:miter;stroke-miterlimit:4;stroke-opacity:1;stroke-dasharray:none" /></g><path
       d="m 218.0798,1067.6373 0.6046,2.6798 -19.6481,4.6588 -0.9408,-3.9555 19.9843,-3.3831 z"
       id="path186"
       style="fill:#ffffff;fill-opacity:1;fill-rule:nonzero;stroke:none" /><g
       transform="matrix(0.03822,0.16747,-0.17816,0.04066,0,0)"
       id="g188"><path
         d="m 6341.7858,136.44 15.9911,0.0369 0.9918,110.4913 -23.6678,0.2033 6.6849,-110.7315 z"
         id="path190"
         style="fill:none;stroke:#ffffff;stroke-width:0.41159999;stroke-linecap:butt;stroke-linejoin:miter;stroke-miterlimit:4;stroke-opacity:1;stroke-dasharray:none" /></g><path
       d="m 225.5496,1066.1054 c -1.2792,0.292 -2.103,1.4613 -1.8402,2.6127 0.2628,1.1514 1.5126,1.8482 2.791,1.5562 1.2793,-0.2911 2.1036,-1.4612 1.8411,-2.6127 -0.2628,-1.1514 -1.5126,-1.8479 -2.7919,-1.5562"
       id="path192"
       style="fill:#ffffff;fill-opacity:1;fill-rule:nonzero;stroke:none" /><g
       transform="matrix(0.03657,0.16035,-0.17817,0.04063,0,0)"
       id="g194"><path
         d="m 6624.6812,93.8699 c 0,7.1801 5.8189,12.9977 12.9999,12.9968 7.1805,6e-4 13.0009,-5.8207 12.9983,-12.9966 0,-7.1795 -5.8178,-13.0025 -12.9991,-12.9999 -7.1805,-6e-4 -13.0006,5.8209 -12.9991,12.9997 z"
         id="path196"
         style="fill:none;stroke:#ffffff;stroke-width:0.2744;stroke-linecap:butt;stroke-linejoin:miter;stroke-miterlimit:4;stroke-opacity:1;stroke-dasharray:none" /></g><path
       d="m 226.5313,1070.2667 c -0.1829,0.041 -0.4442,0.1105 -0.6228,0.144 -0.7438,0.1414 -1.3462,0.1085 -2.048,0.1669 -1.4947,0.1565 -2.7346,0.2844 -3.8347,0.6305 -0.5417,0.2106 -0.6889,0.5862 -0.8867,0.9167 l -2.9251,-2.7921 9.7005,-1.6937 0.6168,2.6277 z"
       id="path198"
       style="fill:#ffffff;fill-opacity:1;fill-rule:nonzero;stroke:none" /><g
       transform="matrix(0.16748,-0.03822,0.04066,0.17817,0,0)"
       id="g200"><path
         d="m -100.5077,5985.5958 c -1.0914,0 -2.6643,0.049 -3.7197,0.011 -4.4061,-0.1513 -7.7822,-1.0601 -11.8411,-1.603 -8.686,-0.985 -15.8899,-1.8127 -22.5805,-1.3053 -3.3472,0.464 -4.6684,2.2887 -6.2178,3.8114 l -12.987,-18.4558 57.2485,2.7726 0.0976,14.7696 z"
         id="path202"
         style="fill:none;stroke:#ffffff;stroke-width:0.26840001;stroke-linecap:butt;stroke-linejoin:miter;stroke-miterlimit:4;stroke-opacity:1;stroke-dasharray:none" /></g><path
       d="m 225.5803,1066.0989 c -0.1834,0.042 -0.4485,0.093 -0.624,0.14 -0.731,0.1956 -1.26,0.4862 -1.9173,0.7382 -1.4148,0.5077 -2.5869,0.9303 -3.7284,1.095 -0.5797,0.046 -0.8751,-0.2285 -1.1965,-0.4402 l -1.4247,3.7839 9.4748,-2.6818 -0.5839,-2.6351 z"
       id="path204"
       style="fill:#ffffff;fill-opacity:1;fill-rule:nonzero;stroke:none" /><g
       transform="matrix(0.16748,-0.03822,0.04066,0.17817,0,0)"
       id="g206"><path
         d="m -100.5077,5962.2049 c -1.0956,0 -2.6652,-0.052 -3.7219,-0.014 -4.4028,0.1551 -7.7792,1.0599 -11.8381,1.6036 -8.687,0.9862 -15.8862,1.8125 -22.5785,1.3028 -3.3494,-0.4606 -4.6721,-2.2844 -6.2206,-3.8052 l -12.9884,18.4524 57.2491,-2.772 0.0984,-14.7674 z"
         id="path208"
         style="fill:none;stroke:#ffffff;stroke-width:0.26840001;stroke-linecap:butt;stroke-linejoin:miter;stroke-miterlimit:4;stroke-opacity:1;stroke-dasharray:none" /></g><path
       d="m 211.6431,1095.893 1.7082,-2.1515 -15.6776,-12.7267 -2.5642,3.1547 16.5336,11.7235 z"
       id="path210"
       style="fill:#ffffff;fill-opacity:1;fill-rule:nonzero;stroke:none" /><g
       transform="matrix(0.10711,-0.1343,0.14287,0.11395,0,0)"
       id="g212"><path
         d="m -4219.3791,4644.5956 15.993,-0.032 1.0131,-110.4936 -23.6625,-0.2061 6.6564,110.7318 z"
         id="path214"
         style="fill:none;stroke:#ffffff;stroke-width:0.41159999;stroke-linecap:butt;stroke-linejoin:miter;stroke-miterlimit:4;stroke-opacity:1;stroke-dasharray:none" /></g><path
       d="m 214.5197,1092.2873 -1.7186,2.1436 -15.8919,-12.4566 2.5056,-3.2014 15.1049,13.5144 z"
       id="path216"
       style="fill:#ffffff;fill-opacity:1;fill-rule:nonzero;stroke:none" /><g
       transform="matrix(0.10711,-0.1343,0.14287,0.11395,0,0)"
       id="g218"><path
         d="m -4192.5257,4644.6018 -15.9973,-0.04 -0.9896,-110.4882 23.665,-0.2044 -6.6781,110.7329 z"
         id="path220"
         style="fill:none;stroke:#ffffff;stroke-width:0.41159999;stroke-linecap:butt;stroke-linejoin:miter;stroke-miterlimit:4;stroke-opacity:1;stroke-dasharray:none" /></g><path
       d="m 220.375,1097.1729 c -1.0259,-0.8178 -2.4545,-0.7331 -3.1904,0.1899 -0.7364,0.9229 -0.5017,2.3352 0.5233,3.1532 1.0258,0.8181 2.4542,0.7331 3.1909,-0.1899 0.7362,-0.9232 0.5018,-2.3349 -0.5238,-3.1532"
       id="path222"
       style="fill:#ffffff;fill-opacity:1;fill-rule:nonzero;stroke:none" /><g
       transform="matrix(0.10257,-0.12857,0.14286,0.11397,0,0)"
       id="g224"><path
         d="m -4379.2058,4686.834 c -3e-4,-7.1787 -5.8215,-12.9999 -12.9986,-12.9979 -7.179,-6e-4 -13.0014,5.8226 -13.0031,12.9988 0,7.1802 5.8215,13 13.0009,13.0005 7.1793,0 13.0022,-5.8192 13.0008,-13.0014 z"
         id="path226"
         style="fill:none;stroke:#ffffff;stroke-width:0.2744;stroke-linecap:butt;stroke-linejoin:miter;stroke-miterlimit:4;stroke-opacity:1;stroke-dasharray:none" /></g><path
       d="m 217.7337,1100.5345 c -0.1471,-0.1171 -0.364,-0.2784 -0.5012,-0.396 -0.574,-0.4941 -0.9244,-0.9859 -1.4068,-1.4979 -1.0554,-1.0715 -1.9276,-1.961 -2.8843,-2.605 -0.5026,-0.2925 -0.8872,-0.1732 -1.2691,-0.1219 l 0.3583,-4.0275 7.3727,6.5282 -1.6696,2.1201 z"
       id="path228"
       style="fill:#ffffff;fill-opacity:1;fill-rule:nonzero;stroke:none" /><g
       transform="matrix(0.1343,0.10711,-0.11395,0.14287,0,0)"
       id="g230"><path
         d="m 4985.5952,3965.326 c -1.0933,0 -2.6668,0.051 -3.7182,0.016 -4.4047,-0.1539 -7.7865,-1.065 -11.8409,-1.607 -8.6896,-0.985 -15.8882,-1.8124 -22.5799,-1.3033 -3.3489,0.4609 -4.6664,2.2841 -6.2192,3.8072 l -12.9867,-18.4533 57.2485,2.7743 0.096,14.7662 z"
         id="path232"
         style="fill:none;stroke:#ffffff;stroke-width:0.26840001;stroke-linecap:butt;stroke-linejoin:miter;stroke-miterlimit:4;stroke-opacity:1;stroke-dasharray:none" /></g><path
       d="m 220.3991,1097.193 c -0.1471,-0.1171 -0.3526,-0.2928 -0.4983,-0.4006 -0.6089,-0.4498 -1.1662,-0.6817 -1.7731,-1.0391 -1.2784,-0.7898 -2.34,-1.4429 -3.1811,-2.2323 -0.3968,-0.4247 -0.3659,-0.8269 -0.4011,-1.2101 l -3.8469,1.2449 8.0045,5.7365 1.696,-2.0993 z"
       id="path234"
       style="fill:#ffffff;fill-opacity:1;fill-rule:nonzero;stroke:none" /><g
       transform="matrix(0.1343,0.10711,-0.11395,0.14287,0,0)"
       id="g236"><path
         d="m 4985.5975,3941.9365 c -1.0933,3e-4 -2.6654,-0.049 -3.7205,-0.014 -4.4053,0.154 -7.7836,1.0656 -11.8429,1.6047 -8.6839,0.9848 -15.887,1.8114 -22.5788,1.3028 -3.3485,-0.4637 -4.6672,-2.2867 -6.2183,-3.8063 l -12.9901,18.4504 57.2505,-2.7686 0.1001,-14.7688 z"
         id="path238"
         style="fill:none;stroke:#ffffff;stroke-width:0.26840001;stroke-linecap:butt;stroke-linejoin:miter;stroke-miterlimit:4;stroke-opacity:1;stroke-dasharray:none" /></g><path
       d="m 187.3672,1086.9849 c -0.0428,-1.0038 -0.8682,-1.8046 -1.8824,-1.8046 -0.4156,0 -0.7988,0.1335 -1.1101,0.3606 l -0.489,-0.233 1.0009,-2.0693 4.3858,2.1152 -0.9958,2.0696 -0.9094,-0.4385 z"
       id="path240"
       style="fill:#ffffff;fill-opacity:1;fill-rule:nonzero;stroke:none" /><path
       d="m 180.2086,1080.3042 c 0.7583,-0.6591 0.8694,-1.8049 0.2379,-2.5971 -0.2591,-0.3249 -0.6027,-0.5412 -0.9746,-0.6432 l -0.1227,-0.5278 2.2422,-0.5074 1.0808,4.7477 -2.2393,0.5119 -0.2243,-0.9841 z"
       id="path242"
       style="fill:#ffffff;fill-opacity:1;fill-rule:nonzero;stroke:none" /><path
       d="m 180.9609,1070.5465 c 0.9874,0.1819 1.9525,-0.4448 2.1782,-1.4335 0.0927,-0.4048 0.0476,-0.809 -0.1049,-1.1628 l 0.3362,-0.4249 1.7952,1.4363 -3.0388,3.8047 -1.796,-1.4312 0.6301,-0.7886 z"
       id="path244"
       style="fill:#ffffff;fill-opacity:1;fill-rule:nonzero;stroke:none" /><path
       d="m 189.059,1065.054 c 0.4733,0.8859 1.5655,1.2493 2.4783,0.8096 0.3742,-0.18 0.6619,-0.4671 0.8441,-0.8067 l 0.5417,0 -0.004,2.2986 -4.87,0 0,-2.2972 1.0095,8e-4 z"
       id="path246"
       style="fill:#ffffff;fill-opacity:1;fill-rule:nonzero;stroke:none" /><path
       d="m 198.3932,1067.9927 c -0.3969,0.9233 -6e-4,2.0033 0.913,2.4432 0.3742,0.1803 0.7775,0.2262 1.1565,0.1562 l 0.3391,0.4226 -1.7989,1.4304 -3.0339,-3.8089 1.7954,-1.4329 0.6288,0.7894 z"
       id="path248"
       style="fill:#ffffff;fill-opacity:1;fill-rule:nonzero;stroke:none" /><path
       d="m 201.9574,1077.1194 c -0.9685,0.2651 -1.5658,1.2478 -1.3405,2.2366 0.0922,0.4048 0.3079,0.7489 0.599,1.002 l -0.1185,0.5284 -2.2402,-0.5145 1.0865,-4.7472 2.2394,0.5103 -0.2257,0.9844 z"
       id="path250"
       style="fill:#ffffff;fill-opacity:1;fill-rule:nonzero;stroke:none" /><path
       d="m 197.0442,1085.5809 c -0.811,-0.5919 -1.9523,-0.4462 -2.5844,0.3466 -0.2588,0.3243 -0.394,0.7076 -0.4104,1.0931 l -0.4868,0.2369 -0.9935,-2.0729 4.388,-2.1101 0.9973,2.0695 -0.9102,0.4369 z"
       id="path252"
       style="fill:#ffffff;fill-opacity:1;fill-rule:nonzero;stroke:none" /><path
       d="m 281.6892,1072.3652 c 0.7671,0.8949 1.5449,1.8431 2.3332,2.8442 0.7883,1.0015 1.5554,2.035 2.3012,3.1003 0.7458,1.0653 1.4595,2.0988 2.1413,3.1003 0.682,1.0014 1.2784,1.9496 1.7898,2.8445 l 9.4603,0 c -0.767,-0.9802 -1.6407,-2.0455 -2.6206,-3.196 -0.9802,-1.1506 -1.9922,-2.3228 -3.0365,-3.5159 -1.044,-1.1931 -2.088,-2.3436 -3.132,-3.4517 -1.044,-1.1078 -1.9922,-2.1305 -2.8445,-3.0682 1.0655,-1.0228 2.2161,-2.2479 3.4517,-3.6754 1.2359,-1.4276 2.4503,-2.9084 3.6437,-4.4425 1.1931,-1.5341 2.2903,-3.0682 3.2918,-4.6023 1.0015,-1.5341 1.8003,-2.8979 2.397,-4.091 l -9.0127,0 c -0.5114,1.0653 -1.1827,2.2692 -2.0138,3.6116 -0.8308,1.3423 -1.7149,2.6632 -2.6526,3.9632 -0.9375,1.2997 -1.8856,2.5353 -2.8443,3.7074 -0.959,1.1718 -1.8431,2.1413 -2.653,2.9083 l 0,-14.1905 -7.9262,0 0,43.0189 7.9262,1.3422 0,-26.2074 z"
       id="path254"
       style="fill:#373535;fill-opacity:1;fill-rule:nonzero;stroke:none" /><path
       d="m 329.694,1055.2343 c -1.4491,-0.3836 -3.2069,-0.7671 -5.2736,-1.1506 -2.0668,-0.3835 -4.3146,-0.5752 -6.7436,-0.5752 -2.4719,0 -4.4958,0.3408 -6.0727,1.0225 -1.5766,0.682 -2.823,1.6515 -3.7392,2.9086 -0.9161,1.2572 -1.5449,2.738 -1.8859,4.4425 -0.3407,1.7045 -0.5113,3.5796 -0.5113,5.625 l 0,16.7474 7.8624,0 0,-15.7246 c 0,-2.77 0.3302,-4.826 0.9907,-6.1685 0.6605,-1.3422 1.9497,-2.0134 3.8673,-2.0134 1.1931,0 2.3862,0.1066 3.5796,0.3194 l 0,23.5871 7.9263,0 0,-29.0202 z"
       id="path256"
       style="fill:#373535;fill-opacity:1;fill-rule:nonzero;stroke:none" /><path
       d="m 355.7095,1069.4248 c 0,2.8125 -0.4581,4.9646 -1.3743,6.4559 -0.9161,1.4916 -2.3119,2.2374 -4.1867,2.2374 -0.8524,0 -1.694,-0.1174 -2.5248,-0.3518 -0.8312,-0.2341 -1.5449,-0.5219 -2.1416,-0.8629 l 0,-16.2997 c 0.5967,-0.1279 1.2251,-0.2132 1.8859,-0.2557 0.6604,-0.043 1.2251,-0.064 1.6937,-0.064 2.0454,0 3.6649,0.6925 4.858,2.0775 1.1931,1.385 1.7898,3.7395 1.7898,7.0634 z m 7.9903,-0.1919 c 0,-2.3862 -0.3198,-4.5491 -0.959,-6.488 -0.6392,-1.9389 -1.5766,-3.59 -2.8125,-4.9538 -1.2359,-1.3637 -2.7485,-2.4182 -4.5383,-3.164 -1.7898,-0.7458 -3.8353,-1.1186 -6.1364,-1.1186 -2.0455,0 -4.1338,0.1491 -6.2643,0.4473 -2.1308,0.2982 -3.9206,0.6818 -5.3694,1.1506 l 0,42.124 7.8622,1.3422 0,-15.0214 c 1.108,0.5114 2.1733,0.8629 3.196,1.0548 1.0228,0.1916 2.0455,0.2877 3.0683,0.2877 1.9604,0 3.6861,-0.373 5.1777,-1.1188 1.4913,-0.7458 2.738,-1.8111 3.7392,-3.1961 1.0015,-1.3847 1.7581,-3.0362 2.2694,-4.9538 0.5114,-1.9176 0.7671,-4.0481 0.7671,-6.3921"
       id="path258"
       style="fill:#373535;fill-opacity:1;fill-rule:nonzero;stroke:none" /><path
       d="m 367.5986,1068.9772 c 0,2.6422 0.405,4.9646 1.2146,6.9676 0.8096,2.0026 1.8751,3.6754 3.1961,5.0176 1.3209,1.3425 2.8338,2.3544 4.5382,3.0364 1.7048,0.6818 3.4518,1.0228 5.2416,1.0228 4.4319,0 7.7984,-1.3105 10.0995,-3.9314 2.3012,-2.6206 3.4518,-6.4451 3.4518,-11.4738 0,-0.5114 -0.0108,-1.044 -0.0321,-1.5979 -0.0212,-0.5542 -0.0532,-1.0015 -0.0958,-1.3425 l -19.4958,0 c 0,-1.9601 0.8096,-3.505 2.429,-4.634 1.6192,-1.1294 3.7074,-1.694 6.2643,-1.694 1.5766,0 3.0787,0.1703 4.5062,0.5113 1.4278,0.341 2.6314,0.6818 3.6116,1.0228 l 1.0868,-6.7119 c -1.3637,-0.4686 -2.8125,-0.8629 -4.3466,-1.1823 -1.5341,-0.3198 -3.2601,-0.4794 -5.1778,-0.4794 -2.5568,0 -4.8472,0.3303 -6.8714,0.9907 -2.0242,0.6605 -3.75,1.6407 -5.1775,2.9404 -1.4275,1.2997 -2.5251,2.9084 -3.2922,4.826 -0.767,1.9176 -1.1505,4.1547 -1.1505,6.7116 z m 20.1353,3.1323 c 0,0.8096 -0.1066,1.5874 -0.3198,2.3329 -0.2131,0.7458 -0.5538,1.417 -1.0227,2.0137 -0.4686,0.5964 -1.0653,1.0761 -1.7898,1.438 -0.7242,0.3623 -1.6191,0.5434 -2.6847,0.5434 -1.0227,0 -1.9069,-0.1703 -2.6526,-0.5113 -0.7458,-0.341 -1.3638,-0.8096 -1.8536,-1.4063 -0.4901,-0.5967 -0.8737,-1.2784 -1.1506,-2.0455 -0.2772,-0.767 -0.4581,-1.5553 -0.5434,-2.3649 l 12.0172,0 z"
       id="path260"
       style="fill:#373535;fill-opacity:1;fill-rule:nonzero;stroke:none" /><path
       d="m 425.5109,1076.2642 c -0.5113,0.1279 -1.1185,0.2557 -1.8218,0.3835 -0.703,0.1279 -1.4168,0.2452 -2.1413,0.3515 -0.7245,0.1066 -1.4275,0.1812 -2.1092,0.224 -0.6821,0.043 -1.2572,0.064 -1.7261,0.064 -1.1077,0 -2.1945,-0.053 -3.2598,-0.1599 -1.0656,-0.1063 -2.1521,-0.309 -3.2601,-0.6072 l 0,-22.3084 -7.9263,0 0,28.0613 c 2.0883,0.7671 4.2296,1.385 6.4242,1.8539 2.1946,0.4685 4.7622,0.703 7.7026,0.703 0.426,0 1.0332,-0.021 1.8215,-0.064 0.7886,-0.043 1.6302,-0.1174 2.5251,-0.2239 0.8949,-0.1066 1.8003,-0.2345 2.7165,-0.3836 0.9161,-0.1491 1.7365,-0.3515 2.461,-0.6072 l -1.4063,-7.287 z"
       id="path262"
       style="fill:#373535;fill-opacity:1;fill-rule:nonzero;stroke:none" /><path
       d="m 433.5647,1083.2956 c 1.4063,0.3835 3.1428,0.7458 5.2098,1.0868 2.0668,0.3407 4.3146,0.5113 6.7436,0.5113 2.3862,0 4.3679,-0.3305 5.9446,-0.991 1.5766,-0.6604 2.8233,-1.5978 3.7394,-2.8125 0.9162,-1.2144 1.5662,-2.6631 1.9497,-4.3466 0.3835,-1.6833 0.5752,-3.5476 0.5752,-5.5931 l 0,-16.939 -7.8622,0 0,15.9163 c 0,2.8125 -0.3198,4.8367 -0.959,6.0726 -0.6392,1.2357 -1.9389,1.8536 -3.899,1.8536 -0.5967,0 -1.1826,-0.021 -1.7578,-0.064 -0.5754,-0.043 -1.1826,-0.1065 -1.8218,-0.1919 l 0,-23.5868 -7.8625,0 0,29.0841 z"
       id="path264"
       style="fill:#373535;fill-opacity:1;fill-rule:nonzero;stroke:none" /><path
       d="m 463.4796,1068.9772 c 0,2.6422 0.4051,4.9646 1.2146,6.9676 0.8096,2.0026 1.8752,3.6754 3.1961,5.0176 1.3209,1.3425 2.8338,2.3544 4.5383,3.0364 1.7047,0.6818 3.4517,1.0228 5.2415,1.0228 4.432,0 7.7984,-1.3105 10.0996,-3.9314 2.3011,-2.6206 3.4517,-6.4451 3.4517,-11.4738 0,-0.5114 -0.0108,-1.044 -0.032,-1.5979 -0.0213,-0.5542 -0.0533,-1.0015 -0.0958,-1.3425 l -19.4959,0 c 0,-1.9601 0.8096,-3.505 2.429,-4.634 1.6192,-1.1294 3.7075,-1.694 6.2643,-1.694 1.5767,0 3.0787,0.1703 4.5063,0.5113 1.4278,0.341 2.6314,0.6818 3.6116,1.0228 l 1.0868,-6.7119 c -1.3638,-0.4686 -2.8126,-0.8629 -4.3467,-1.1823 -1.5341,-0.3198 -3.2601,-0.4794 -5.1777,-0.4794 -2.5569,0 -4.8473,0.3303 -6.8715,0.9907 -2.0242,0.6605 -3.7499,1.6407 -5.1775,2.9404 -1.4275,1.2997 -2.5251,2.9084 -3.2921,4.826 -0.7671,1.9176 -1.1506,4.1547 -1.1506,6.7116 z m 20.1353,3.1323 c 0,0.8096 -0.1066,1.5874 -0.3197,2.3329 -0.2132,0.7458 -0.5539,1.417 -1.0228,2.0137 -0.4685,0.5964 -1.0652,1.0761 -1.7898,1.438 -0.7242,0.3623 -1.6191,0.5434 -2.6846,0.5434 -1.0228,0 -1.9069,-0.1703 -2.6527,-0.5113 -0.7458,-0.341 -1.3638,-0.8096 -1.8536,-1.4063 -0.4901,-0.5967 -0.8736,-1.2784 -1.1506,-2.0455 -0.2772,-0.767 -0.458,-1.5553 -0.5434,-2.3649 l 12.0172,0 z"
       id="path266"
       style="fill:#373535;fill-opacity:1;fill-rule:nonzero;stroke:none" /><path
       d="m 502.5991,1077.7346 -6.8394,0 0,6.5199 6.8394,0 0,7.5424 7.8625,1.2785 0,-8.8209 12.5923,0 0,-6.5199 -12.5923,0 0,-12.1451 c 0,-1.1081 0.1066,-2.0029 0.3194,-2.6847 0.2132,-0.6817 0.5114,-1.2146 0.8949,-1.5982 0.3836,-0.3835 0.8524,-0.6392 1.4063,-0.767 0.5542,-0.1279 1.1718,-0.1916 1.8539,-0.1916 0.7242,0 1.3955,0.021 2.0134,0.064 0.618,0.043 1.2144,0.1174 1.7898,0.224 0.5752,0.1063 1.1718,0.2662 1.7898,0.4793 0.618,0.2132 1.2889,0.4901 2.0135,0.8309 l 1.0868,-6.7757 c -1.4491,-0.5964 -3.0153,-1.0225 -4.6985,-1.2781 -1.6832,-0.2557 -3.3131,-0.3836 -4.8897,-0.3836 -1.8326,0 -3.4518,0.1491 -4.8581,0.4473 -1.4062,0.2982 -2.5996,0.8737 -3.5795,1.7258 -0.9803,0.8524 -1.7261,2.0562 -2.2374,3.6116 -0.5114,1.5554 -0.7671,3.5904 -0.7671,6.1044 l 0,12.337 z"
       id="path268"
       style="fill:#373535;fill-opacity:1;fill-rule:nonzero;stroke:none" /><path
       d="m 527.4003,1068.9772 c 0,2.6422 0.4051,4.9646 1.2146,6.9676 0.8096,2.0026 1.8751,3.6754 3.1961,5.0176 1.3209,1.3425 2.8338,2.3544 4.5383,3.0364 1.7047,0.6818 3.4517,1.0228 5.2415,1.0228 4.432,0 7.7984,-1.3105 10.0996,-3.9314 2.3011,-2.6206 3.4517,-6.4451 3.4517,-11.4738 0,-0.5114 -0.0108,-1.044 -0.032,-1.5979 -0.0213,-0.5542 -0.0533,-1.0015 -0.0958,-1.3425 l -19.4959,0 c 0,-1.9601 0.8096,-3.505 2.429,-4.634 1.6192,-1.1294 3.7075,-1.694 6.2643,-1.694 1.5766,0 3.0787,0.1703 4.5063,0.5113 1.4278,0.341 2.6314,0.6818 3.6116,1.0228 l 1.0868,-6.7119 c -1.3638,-0.4686 -2.8126,-0.8629 -4.3467,-1.1823 -1.5341,-0.3198 -3.2601,-0.4794 -5.1777,-0.4794 -2.5569,0 -4.8473,0.3303 -6.8715,0.9907 -2.0242,0.6605 -3.7499,1.6407 -5.1775,2.9404 -1.4275,1.2997 -2.5251,2.9084 -3.2921,4.826 -0.7671,1.9176 -1.1506,4.1547 -1.1506,6.7116 z m 20.1353,3.1323 c 0,0.8096 -0.1066,1.5874 -0.3197,2.3329 -0.2132,0.7458 -0.5539,1.417 -1.0228,2.0137 -0.4685,0.5964 -1.0652,1.0761 -1.7898,1.438 -0.7242,0.3623 -1.6191,0.5434 -2.6847,0.5434 -1.0227,0 -1.9068,-0.1703 -2.6526,-0.5113 -0.7458,-0.341 -1.3638,-0.8096 -1.8536,-1.4063 -0.4901,-0.5967 -0.8736,-1.2784 -1.1506,-2.0455 -0.2772,-0.767 -0.4581,-1.5553 -0.5434,-2.3649 l 12.0172,0 z"
       id="path270"
       style="fill:#373535;fill-opacity:1;fill-rule:nonzero;stroke:none" /><path
       d="m 571.9533,1060.1561 c 1.9176,0 3.3876,0.1386 4.4104,0.4155 1.0227,0.277 1.5341,0.8416 1.5341,1.694 0,0.5539 -0.1599,1.0227 -0.4793,1.4063 -0.3198,0.3835 -0.7671,0.7137 -1.3425,0.9907 -0.5752,0.2769 -1.2357,0.5434 -1.9814,0.7991 -0.7458,0.2557 -1.5234,0.5113 -2.3332,0.767 -1.1506,0.3407 -2.3225,0.735 -3.5156,1.1826 -1.1931,0.4473 -2.2799,1.012 -3.2601,1.6937 -0.9799,0.6821 -1.7898,1.5449 -2.429,2.5889 -0.6392,1.044 -0.9587,2.3545 -0.9587,3.9311 0,1.2784 0.2449,2.4823 0.735,3.6116 0.4901,1.1294 1.2572,2.1305 2.3012,3.0042 1.044,0.8736 2.3757,1.5554 3.9952,2.0455 1.6191,0.4901 3.5583,0.7353 5.8166,0.7353 1.9605,0 3.782,-0.1494 5.4652,-0.4476 1.6835,-0.2982 3.1428,-0.7246 4.3787,-1.2784 l -1.2143,-6.6479 c -0.7246,0.2132 -1.8539,0.5647 -3.388,1.0548 -1.5341,0.4901 -3.2599,0.735 -5.1775,0.735 -2.003,0 -3.3559,-0.2449 -4.0589,-0.735 -0.7033,-0.4901 -1.0548,-1.0122 -1.0548,-1.5661 0,-0.4689 0.1599,-0.8841 0.4793,-1.2464 0.3198,-0.3623 0.7458,-0.6925 1.2785,-0.9907 0.5326,-0.2985 1.1506,-0.5859 1.8538,-0.8632 0.703,-0.2769 1.4593,-0.5431 2.2692,-0.7988 1.1505,-0.3835 2.3437,-0.8098 3.5796,-1.2784 1.2356,-0.4689 2.3544,-1.0548 3.3556,-1.7578 1.0015,-0.7032 1.8218,-1.5981 2.461,-2.6847 0.6393,-1.0868 0.959,-2.4185 0.959,-3.9951 0,-1.2359 -0.2344,-2.4078 -0.7033,-3.5158 -0.4688,-1.1078 -1.2464,-2.0668 -2.3332,-2.8763 -1.0865,-0.8096 -2.5035,-1.4488 -4.2505,-1.9177 -1.7473,-0.4688 -3.8994,-0.703 -6.4562,-0.703 -2.5994,0 -4.8152,0.2982 -6.6478,0.8946 -1.8323,0.5967 -3.3024,1.1294 -4.4104,1.5982 l 1.2143,6.5838 c 1.4916,-0.5964 3.079,-1.1506 4.7622,-1.662 1.6832,-0.5114 3.3985,-0.767 5.1458,-0.767"
       id="path272"
       style="fill:#373535;fill-opacity:1;fill-rule:nonzero;stroke:none" /><path
       d="m 481.7874,1030.2667 -0.7999,0 0,7.0243 0.862,0 0,-2.5056 c 0.3648,0.4564 0.8291,0.6854 1.3935,0.6854 0.3138,0 0.61,-0.064 0.8895,-0.1899 0.2798,-0.1258 0.5086,-0.3041 0.6903,-0.5315 0.18,-0.229 0.322,-0.5037 0.4235,-0.8274 0.1031,-0.3223 0.1539,-0.6673 0.1539,-1.0335 0,-0.8734 -0.216,-1.5472 -0.6477,-2.0231 -0.4303,-0.476 -0.9488,-0.7132 -1.552,-0.7132 -0.6004,0 -1.0712,0.2503 -1.4131,0.7523 l 0,-0.6378 z m -0.01,2.5824 c 0,-0.61 0.0834,-1.05 0.2486,-1.3215 0.2716,-0.4448 0.6395,-0.6673 1.1024,-0.6673 0.3776,0 0.7033,0.1635 0.978,0.4924 0.2746,0.3271 0.4121,0.8144 0.4121,1.4638 0,0.6638 -0.1326,1.1545 -0.3957,1.47 -0.2633,0.3158 -0.5822,0.4745 -0.9553,0.4745 -0.3778,0 -0.7033,-0.1635 -0.9779,-0.4906 -0.2747,-0.3272 -0.4122,-0.8014 -0.4122,-1.4213"
       id="path274"
       style="fill:#373535;fill-opacity:1;fill-rule:nonzero;stroke:none" /><path
       d="m 486.4107,1028.3074 -0.0963,0.8096 c 0.1896,-0.051 0.3532,-0.077 0.4938,-0.077 0.1913,0 0.3452,0.033 0.4595,0.096 0.1162,0.064 0.2094,0.1523 0.2831,0.2682 0.0556,0.085 0.1423,0.2993 0.2631,0.6412 0.0164,0.049 0.0425,0.1179 0.0771,0.2109 l -1.9298,5.0978 0.9289,0 1.0596,-2.9455 c 0.1357,-0.3744 0.2602,-0.767 0.3679,-1.1792 0.0998,0.3957 0.2177,0.7818 0.3549,1.1597 l 1.0877,2.965 0.862,0 -1.935,-5.1746 c -0.2075,-0.5593 -0.3696,-0.9437 -0.4838,-1.1546 -0.154,-0.2846 -0.3288,-0.4924 -0.5267,-0.6247 -0.1996,-0.1324 -0.4351,-0.1996 -0.7098,-0.1996 -0.167,0 -0.3518,0.036 -0.5562,0.1063"
       id="path276"
       style="fill:#373535;fill-opacity:1;fill-rule:nonzero;stroke:none" /><path
       d="m 574.6192,1043.1507 0.5179,0 c 0.005,-0.01 0.007,-0.013 0.009,-0.019 0.0839,-0.1848 0.1689,-0.3693 0.2472,-0.5547 0.0842,-0.2084 0.159,-0.4193 0.2503,-0.627 0.005,-0.01 0.007,-0.012 0.01,-0.019 0.0658,0.1519 0.1698,0.3965 0.2393,0.549 0.0612,0.1398 0.1236,0.2824 0.1868,0.4235 0.0246,0.055 0.0286,0.066 0.0286,0.084 0,0.048 -0.049,0.048 -0.0918,0.048 l -0.1897,-0.01 0.1897,0.123 0.6959,0 -0.0508,-0.047 c -0.0496,-0.045 -0.0748,-0.077 -0.0748,-0.1667 0,-0.03 0.003,-0.061 0.006,-0.094 0.0131,-0.1358 0.0247,-0.2724 0.0349,-0.4085 0.015,-0.1794 0.0323,-0.36 0.0661,-0.5374 0.0277,-0.1454 0.0583,-0.1973 0.1624,-0.275 -0.1157,-0.022 -0.1945,-0.033 -0.3087,-0.033 -0.0474,0 -0.1287,0 -0.2058,0.056 -0.0896,0.07 -0.1012,0.1803 -0.1174,0.3776 -0.0122,0.1354 -0.0246,0.2681 -0.0362,0.4028 -0.008,0.1281 -0.0131,0.2562 -0.0256,0.384 l -0.002,0.026 -0.0133,-0.028 c -0.0763,-0.165 -0.1452,-0.3339 -0.2192,-0.4983 -0.1698,-0.3949 -0.1828,-0.4201 -0.2182,-0.527 l 0.0246,-0.065 c -0.064,-0.015 -0.3101,-0.097 -0.4014,-0.1316 -0.0705,0.1922 -0.3143,0.8204 -0.5096,1.2495 -0.0187,-0.1825 -0.0369,-0.3639 -0.0542,-0.5462 -0.005,-0.061 -0.0408,-0.4652 -0.0408,-0.502 0,-0.049 0.0113,-0.061 0.095,-0.07 l 0.191,-0.028 -0.1105,-0.067 -0.404,0 0.0576,0.067 c 0.0113,0.015 0.0204,0.028 0.0278,0.048 0.0124,0.035 0.0195,0.096 0.028,0.1814 0.0156,0.1321 0.0321,0.2634 0.0482,0.3949 0.008,0.082 0.0496,0.485 0.0598,0.5783 0.003,0.021 0.005,0.045 0.005,0.067 0,0.056 -0.0207,0.084 -0.0862,0.084 -0.0312,0 -0.1684,0 -0.2021,0 l 0.1822,0.1119 z"
       id="path278"
       style="fill:#373535;fill-opacity:1;fill-rule:evenodd;stroke:none" /><path
       d="m 574.5231,1043.1507 -0.0935,-0.2196 -0.0969,-0.043 c 0.005,0.021 0.0221,0.1006 0.0221,0.11 0,0.049 -0.0573,0.052 -0.1191,0.052 l -0.301,0 c -0.0255,-0.8433 -0.0255,-0.9181 -0.0255,-1.0332 0,-0.06 0,-0.11 0.004,-0.1831 0.008,-0.094 0.038,-0.1131 0.1375,-0.1197 l 0.1817,-0.02 -0.1392,-0.069 -0.7205,0 0.0467,0.069 c 0.0477,0.072 0.055,0.082 0.055,0.1304 0.002,0.048 0,0.271 0,0.3203 0,0.092 0,0.1848 0.002,0.2755 0.007,0.1866 0.0179,0.3717 0.0179,0.5565 0,0.031 -0.003,0.065 -0.003,0.073 l -0.2642,0 c -0.1312,0 -0.1338,-0.01 -0.2052,-0.1156 l -0.1148,-0.043 0.1148,0.263 1.502,0 z"
       id="path280"
       style="fill:#373535;fill-opacity:1;fill-rule:evenodd;stroke:none" /><path
       d="m 569.1127,1039.0487 c 0.5278,0.1939 0.8053,0.3612 0.8053,0.7495 0,1.1086 -1.2475,2.3834 -2.7445,2.3834 -1.1115,0 -3.1887,-0.8584 -3.1887,-3.8532 0,-0.4714 0.055,-0.9703 0.0828,-1.4694 l 5.0451,2.1897 z m 2.6067,-8.2607 c -0.3036,-0.1667 -0.6097,-0.362 -0.9133,-0.5009 -0.917,-0.4155 -1.8601,-0.5267 -2.6907,-0.5267 -0.8878,0 -2.2742,0.056 -3.6884,1.0817 -1.9681,1.3862 -2.8273,3.7707 -2.8273,5.8505 0,4.2973 3.494,6.4048 6.3493,6.4048 0.997,0 2.0248,-0.2491 2.8571,-0.7769 1.3844,-0.9142 1.7456,-2.1062 1.9386,-2.7445 l -6.5152,-2.634 -2.1342,-0.1669 c 0.6928,-3.5201 3.0782,-5.5713 5.7118,-5.5713 1.4143,0 2.4404,0.4975 3.3823,0.9695 l -1.47,-1.3853 z"
       id="path282"
       style="fill:#373535;fill-opacity:1;fill-rule:evenodd;stroke:none" /><path
       d="m 560.9341,1030.1783 -4.9084,0 c 0.6378,0.8305 0.7492,0.9133 0.7492,1.4683 l 0,4.5199 c 0,2.1619 0.0283,5.2398 0.1117,8.1229 0.0272,1.4151 0.138,3.1887 0.1655,4.464 l -2.162,0 2.0795,0.9981 3.9645,0 c -0.8594,-0.4989 -1.1369,-0.6656 -1.2469,-1.6359 -0.2231,-2.1353 -0.2503,-5.5179 -0.2503,-9.4541 l 0,-6.4046 c 0,-1.082 0.1939,-1.2481 1.1097,-1.3311 0.4712,-0.056 0.9423,-0.084 1.4131,-0.1378 l -1.0256,-0.6097 z"
       id="path284"
       style="fill:#373535;fill-opacity:1;fill-rule:evenodd;stroke:none" /><path
       d="m 550.6767,1034.6956 c 0.6361,0.6392 0.6922,1.5256 0.6922,2.025 0,1.9965 -1.1917,5.1015 -3.4937,5.1015 -0.7206,0 -1.4964,-0.3602 -1.9406,-0.9153 -0.4711,-0.5825 -0.6109,-1.3308 -0.6109,-2.0517 0,-1.8572 1.0823,-4.9351 3.466,-4.9351 0.6925,0 1.442,0.3325 1.887,0.7756 z m -0.8048,-5.2668 c -0.2222,0.028 -0.3611,0.028 -0.638,0.028 -0.2498,0 -1.7468,-0.057 -2.9112,-0.4442 -0.6092,-0.2223 -2.3854,-0.8864 -2.3854,-2.8562 0,-1.9673 1.914,-3.3815 4.8804,-3.3815 2.662,0 4.0757,1.2745 4.0757,2.9931 0,1.4142 -0.9136,2.1637 -3.0215,3.6607 z m 1.9681,12.3097 c 0.6381,-0.5258 1.9687,-1.6356 1.9687,-3.7426 0,-2.052 -1.1653,-3.0223 -2.329,-3.9373 -0.3594,-0.3594 -0.7758,-0.7483 -0.7758,-1.3578 0,-0.61 0.4164,-0.9439 0.7194,-1.1931 l 0.9987,-0.7755 c 1.22,-1.027 2.3292,-1.9698 2.3292,-3.8824 0,-2.6064 -2.5231,-5.2412 -7.2921,-5.2412 -4.0204,0 -5.9618,1.9131 -5.9618,3.9651 0,0.9997 0.4997,2.4137 2.1359,3.3837 1.7195,1.0533 4.049,1.192 5.2954,1.2761 -0.3884,0.4987 -0.8314,1.0248 -0.8314,1.8839 0,0.472 0.1383,0.7495 0.2772,1.0812 -0.3056,-0.027 -0.61,-0.055 -0.8873,-0.055 -2.9392,0 -4.6031,2.1912 -4.6031,4.3534 0,1.2742 0.5831,2.6896 1.7747,3.7157 1.5804,1.3031 3.4668,1.5242 4.9629,1.5242 l 5.7116,0 -1.7745,-0.9984 -1.7187,0 z"
       id="path286"
       style="fill:#373535;fill-opacity:1;fill-rule:evenodd;stroke:none" /><path
       d="m 538.1152,1032.0616 c 0.6662,0.8884 0.8317,1.997 0.8317,3.0781 0,2.4401 -1.1647,7.0986 -4.6023,7.0986 -0.915,0 -1.8292,-0.3612 -2.4948,-0.9431 -1.0811,-0.9709 -1.2758,-2.1912 -1.2758,-3.3832 0,-2.7445 1.3594,-7.2629 4.7134,-7.2629 1.0814,0 2.1909,0.5258 2.8278,1.4125 z m -3.4647,-2.2453 c -4.4091,0 -6.7658,3.4387 -6.7658,6.5429 0,3.6326 2.967,6.7382 7.1807,6.7382 4.0766,0 6.6275,-3.1892 6.6275,-6.5437 0,-3.2715 -2.5232,-6.7374 -7.0424,-6.7374"
       id="path288"
       style="fill:#373535;fill-opacity:1;fill-rule:evenodd;stroke:none" /><path
       d="m 523.3652,1032.0616 c 0.6655,0.8884 0.8317,1.997 0.8317,3.0781 0,2.4401 -1.1645,7.0986 -4.6015,7.0986 -0.9159,0 -1.8306,-0.3612 -2.4962,-0.9431 -1.0814,-0.9709 -1.2756,-2.1912 -1.2756,-3.3832 0,-2.7445 1.3592,-7.2629 4.714,-7.2629 1.0811,0 2.1901,0.5258 2.8276,1.4125 z m -3.4654,-2.2453 c -4.409,0 -6.7654,3.4387 -6.7654,6.5429 0,3.6326 2.967,6.7382 7.1815,6.7382 4.0754,0 6.6257,-3.1892 6.6257,-6.5437 0,-3.2715 -2.5225,-6.7374 -7.0418,-6.7374"
       id="path290"
       style="fill:#373535;fill-opacity:1;fill-rule:evenodd;stroke:none" /><path
       d="m 511.3715,1030.7849 -3.7162,-0.8578 c -1.5083,-0.235 -2.8599,-0.4416 -4.2897,-0.4416 -7.1745,0 -9.9037,5.2758 -9.9037,9.409 0,5.0429 3.8736,9.7212 10.5018,9.7212 1.404,0 2.7556,-0.2087 3.977,-0.546 1.9494,-0.5457 2.8593,-1.2212 3.4308,-1.6115 l -2.1572,-2.054 -0.9093,-0.2069 0.6494,1.0403 c -0.8838,0.8569 -2.4959,2.4421 -5.5621,2.4421 -4.1074,0 -7.2012,-3.1193 -7.2012,-7.6686 0,-4.8864 3.5357,-9.4873 9.2016,-9.4873 1.6645,0 2.5214,0.3376 3.3015,0.6497 l 0,4.1854 -3.9249,-0.2078 2.0798,1.1168 5.5108,0 -0.676,-0.6497 c -0.1823,-0.1553 -0.2084,-0.2077 -0.26,-0.4147 -0.0266,-0.2352 -0.0524,-0.9881 -0.0524,-1.2472 l 0,-3.1714 z"
       id="path292"
       style="fill:#373535;fill-opacity:1;fill-rule:evenodd;stroke:none" /></g></svg>