<?xml version="1.0" standalone="no"?>
<!DOCTYPE svg PUBLIC "-//W3C//DTD SVG 1.1//EN" "http://www.w3.org/Graphics/SVG/1.1/DTD/svg11.dtd">
<svg xmlns="http://www.w3.org/2000/svg">
<defs >
<font id="DroidSans" horiz-adv-x="1123" ><font-face
    font-family="Droid Sans"
    units-per-em="2048"
    panose-1="2 11 8 6 3 8 4 2 2 4"
    ascent="1907"
    descent="-492"
    alphabetic="0" />
<glyph unicode=" " glyph-name="space" horiz-adv-x="532" />
<glyph unicode="!" glyph-name="exclam" horiz-adv-x="586" d="M416 485H172L121 1462H467L416 485ZM117 143Q117 190 130 222T168 275T224 304T293 313Q328 313 359 304T415 275T453 223T467 143Q467 98 453 66T415 13T360 -17T293 -27Q256 -27 224 -18T168 13T131
66T117 143Z" />
<glyph unicode="&quot;" glyph-name="quotedbl" horiz-adv-x="967" d="M412 1462L371 934H174L133 1462H412ZM834 1462L793 934H596L555 1462H834Z" />
<glyph unicode="#" glyph-name="numbersign" horiz-adv-x="1323" d="M999 844L952 612H1210V406H913L836 0H616L694 406H500L424 0H209L283 406H45V612H322L369 844H117V1053H406L483 1460H702L625 1053H823L901 1460H1116L1038 1053H1278V844H999ZM539 612H735L782
844H586L539 612Z" />
<glyph unicode="$" glyph-name="dollar" horiz-adv-x="1128" d="M1061 457Q1061 382 1035 318T956 206T825 127T645 86V-119H508V82Q442 84 386 90T281 107T188 133T100 168V432Q142 411 191 392T294 358T401 331T508 317V635Q500 638 491 642Q483 645 475 648T461
653Q370 688 302 726T189 811T121 915T98 1044Q98 1119 126 1180T208 1287T337 1361T508 1399V1556H645V1405Q732 1400 823 1380T1014 1317L913 1083Q848 1109 778 1129T645 1155V862L684 848Q779 813 850 776T968 693T1038 590T1061 457ZM760 451Q760 475 754
493T733 526T698 553T645 580V328Q704 337 732 367T760 451ZM399 1051Q399 1004 425 973T508 920V1153Q454 1147 427 1123T399 1051Z" />
<glyph unicode="%" glyph-name="percent" horiz-adv-x="1804" d="M315 1024Q315 897 337 835T410 772Q459 772 482 834T506 1024Q506 1274 410 1274Q360 1274 338 1213T315 1024ZM758 1026Q758 918 738 832T674 687T565 597T408 565Q323 565 259 596T151 687T85
832T63 1026Q63 1134 83 1219T145 1362T253 1452T408 1483Q494 1483 559 1452T669 1363T735 1219T758 1026ZM1425 1462L614 0H375L1186 1462H1425ZM1298 440Q1298 313 1320 251T1393 188Q1442 188 1465 250T1489 440Q1489 690 1393 690Q1343 690 1321 629T1298
440ZM1741 442Q1741 334 1721 249T1657 104T1548 14T1391 -18Q1306 -18 1242 13T1135 104T1069 248T1047 442Q1047 550 1067 635T1129 778T1236 868T1391 899Q1477 899 1542 868T1652 779T1718 635T1741 442Z" />
<glyph unicode="&amp;" glyph-name="ampersand" horiz-adv-x="1479" d="M1475 0H1098L1001 100Q921 45 825 13T612 -20Q492 -20 395 10T228 94T120 225T82 395Q82 472 100 532T153 642T235 731T344 807Q306 853 280 895T237 979T214 1062T207 1149Q207 1227 237
1288T322 1393T452 1460T618 1483Q704 1483 776 1462T901 1401T984 1301T1014 1165Q1014 1096 992 1039T931 932T842 842T731 766L991 498Q1026 564 1052 637T1098 784H1415Q1400 727 1380 664T1332 538T1270 411T1192 291L1475 0ZM403 424Q403 380 419 345T463
286T530 249T614 236Q674 236 725 251T819 295L510 625Q459 583 431 535T403 424ZM731 1124Q731 1155 721 1176T695 1212T658 1232T616 1239Q594 1239 572 1233T531 1214T501 1178T489 1122Q489 1070 512 1024T575 932Q652 976 691 1020T731 1124Z" />
<glyph unicode="&apos;" glyph-name="quotesingle" horiz-adv-x="545" d="M412 1462L371 934H174L133 1462H412Z" />
<glyph unicode="(" glyph-name="parenleft" horiz-adv-x="694" d="M82 561Q82 686 100 807T155 1043T248 1263T383 1462H633Q492 1269 420 1038T348 563Q348 444 366 326T420 95T509 -124T631 -324H383Q305 -234 249 -131T155 84T100 317T82 561Z" />
<glyph unicode=")" glyph-name="parenright" horiz-adv-x="694" d="M612 561Q612 437 594 317T539 85T446 -131T311 -324H63Q132 -230 185 -124T274 95T328 326T346 563Q346 807 274 1038T61 1462H311Q389 1369 445 1264T539 1044T594 808T612 561Z" />
<glyph unicode="*" glyph-name="asterisk" horiz-adv-x="1116" d="M688 1556L647 1188L1020 1292L1053 1040L713 1016L936 719L709 598L553 911L416 600L180 719L401 1016L63 1042L102 1292L467 1188L426 1556H688Z" />
<glyph unicode="+" glyph-name="plus" horiz-adv-x="1128" d="M455 612H88V831H455V1200H674V831H1040V612H674V248H455V612Z" />
<glyph unicode="," glyph-name="comma" horiz-adv-x="594" d="M459 215Q445 161 426 100T383 -23T334 -146T283 -264H63Q78 -203 92 -137T120 -6T145 122T164 238H444L459 215Z" />
<glyph unicode="-" glyph-name="hyphen" horiz-adv-x="659" d="M61 424V674H598V424H61Z" />
<glyph unicode="." glyph-name="period" horiz-adv-x="584" d="M117 143Q117 190 130 222T168 275T224 304T293 313Q328 313 359 304T415 275T453 223T467 143Q467 98 453 66T415 13T360 -17T293 -27Q256 -27 224 -18T168 13T131 66T117 143Z" />
<glyph unicode="/" glyph-name="slash" horiz-adv-x="846" d="M836 1462L291 0H14L559 1462H836Z" />
<glyph unicode="0" glyph-name="zero" horiz-adv-x="1128" d="M1065 731Q1065 554 1038 415T950 179T794 31T563 -20Q436 -20 342 31T186 179T94 415T63 731Q63 908 90 1048T178 1285T333 1433T563 1485Q689 1485 783 1434T940 1286T1034 1049T1065 731ZM371 731Q371
481 414 355T563 229Q667 229 712 354T758 731Q758 982 713 1108T563 1235Q510 1235 474 1203T414 1108T381 951T371 731Z" />
<glyph unicode="1" glyph-name="one" horiz-adv-x="1128" d="M817 0H508V846Q508 872 508 908T510 984T513 1064T516 1137Q511 1131 499 1119T472 1093T441 1063T410 1036L242 901L92 1087L563 1462H817V0Z" />
<glyph unicode="2" glyph-name="two" horiz-adv-x="1128" d="M1063 0H82V215L426 586Q491 656 544 715T635 830T694 944T715 1069Q715 1143 671 1184T551 1225Q472 1225 399 1186T246 1075L78 1274Q123 1315 172 1352T280 1419T410 1465T569 1483Q674 1483 757
1454T900 1372T990 1242T1022 1071Q1022 985 992 907T910 753T790 603T643 451L467 274V260H1063V0Z" />
<glyph unicode="3" glyph-name="three" horiz-adv-x="1128" d="M1006 1135Q1006 1059 982 999T915 893T815 817T690 770V764Q867 742 958 657T1049 426Q1049 330 1015 249T909 107T729 14T473 -20Q355 -20 251 -1T57 59V322Q102 298 152 280T252 250T350 231T442
225Q528 225 585 241T676 286T724 355T739 444Q739 489 721 525T661 587T552 627T387 641H283V858H385Q477 858 538 874T635 919T687 986T702 1067Q702 1145 654 1189T500 1233Q452 1233 411 1224T334 1200T269 1168T215 1133L59 1339Q101 1370 150 1396T258 1441T383
1472T526 1483Q634 1483 722 1460T874 1392T971 1283T1006 1135Z" />
<glyph unicode="4" glyph-name="four" horiz-adv-x="1128" d="M1085 303H909V0H608V303H4V518L625 1462H909V543H1085V303ZM608 543V791Q608 804 608 828T610 884T612 948T615 1011T618 1063T621 1096H612Q594 1054 572 1007T520 913L276 543H608Z" />
<glyph unicode="5" glyph-name="five" horiz-adv-x="1128" d="M598 934Q692 934 773 905T914 820T1008 681T1042 489Q1042 370 1005 276T896 116T718 15T473 -20Q418 -20 364 -15T261 -1T167 24T86 59V326Q121 306 167 289T262 259T362 239T457 231Q591 231 661
286T731 463Q731 571 663 627T451 684Q425 684 396 681T338 673T283 663T238 651L115 717L170 1462H942V1200H438L414 913Q446 920 488 927T598 934Z" />
<glyph unicode="6" glyph-name="six" horiz-adv-x="1128" d="M76 621Q76 726 87 830T128 1029T208 1207T336 1349T522 1444T776 1479Q797 1479 822 1478T872 1476T922 1471T965 1464V1217Q927 1226 885 1231T799 1237Q664 1237 577 1204T439 1110T367 966T340
780H352Q372 816 400 847T467 901T552 937T659 950Q754 950 830 919T958 829T1039 684T1067 487Q1067 368 1034 274T938 115T788 15T590 -20Q482 -20 388 18T225 136T116 335T76 621ZM584 227Q625 227 658 242T716 289T754 369T768 483Q768 590 724 651T588 713Q542
713 504 695T439 648T398 583T383 510Q383 459 395 409T433 318T496 252T584 227Z" />
<glyph unicode="7" glyph-name="seven" horiz-adv-x="1128" d="M207 0L727 1200H55V1460H1063V1266L530 0H207Z" />
<glyph unicode="8" glyph-name="eight" horiz-adv-x="1128" d="M565 1481Q656 1481 737 1459T879 1393T976 1283T1012 1128Q1012 1062 992 1009T937 912T854 834T750 772Q808 741 863 703T962 618T1031 511T1057 379Q1057 288 1021 214T920 88T765 8T565 -20Q447
-20 355 7T200 84T105 207T72 371Q72 446 94 506T154 614T243 699T352 764Q303 795 260 831T186 912T136 1011T117 1130Q117 1217 153 1282T252 1392T395 1459T565 1481ZM358 389Q358 349 371 316T409 258T473 221T561 207Q666 207 718 256T770 387Q770 429 753
462T708 524T645 577T575 623L553 637Q509 615 473 590T412 534T372 467T358 389ZM563 1255Q530 1255 502 1245T453 1216T420 1169T408 1106Q408 1064 420 1034T454 980T504 938T565 901Q596 917 624 936T673 979T708 1035T721 1106Q721 1141 709 1169T676 1216T626
1245T563 1255Z" />
<glyph unicode="9" glyph-name="nine" horiz-adv-x="1128" d="M1055 838Q1055 733 1044 629T1003 429T923 252T795 109T609 15T354 -20Q333 -20 308 -19T258 -17T208 -13T166 -6V242Q203 232 245 227T332 221Q467 221 554 254T692 348T764 493T791 678H778Q758
642 730 611T664 557T578 521T471 508Q376 508 300 539T172 629T91 774T63 971Q63 1090 96 1184T192 1343T342 1444T541 1479Q649 1479 743 1441T906 1323T1015 1123T1055 838ZM547 1231Q506 1231 472 1216T414 1170T376 1090T362 975Q362 869 407 807T543 745Q589
745 627 763T692 810T733 875T748 948Q748 999 736 1049T698 1140T635 1206T547 1231Z" />
<glyph unicode=":" glyph-name="colon" horiz-adv-x="584" d="M117 143Q117 190 130 222T168 275T224 304T293 313Q328 313 359 304T415 275T453 223T467 143Q467 98 453 66T415 13T360 -17T293 -27Q256 -27 224 -18T168 13T131 66T117 143ZM117 969Q117 1016
130 1048T168 1101T224 1130T293 1139Q328 1139 359 1130T415 1101T453 1049T467 969Q467 924 453 892T415 839T360 809T293 799Q256 799 224 808T168 838T131 891T117 969Z" />
<glyph unicode=";" glyph-name="semicolon" horiz-adv-x="594" d="M444 238L459 215Q445 161 426 100T383 -23T334 -146T283 -264H63Q78 -203 92 -137T120 -6T145 122T164 238H444ZM117 969Q117 1016 130 1048T168 1101T224 1130T293 1139Q328 1139 359 1130T415
1101T453 1049T467 969Q467 924 453 892T415 839T360 809T293 799Q256 799 224 808T168 838T131 891T117 969Z" />
<glyph unicode="&lt;" glyph-name="less" horiz-adv-x="1128" d="M1040 203L88 641V784L1040 1280V1040L397 723L1040 442V203Z" />
<glyph unicode="=" glyph-name="equal" horiz-adv-x="1128" d="M88 807V1024H1040V807H88ZM88 418V637H1040V418H88Z" />
<glyph unicode="&gt;" glyph-name="greater" horiz-adv-x="1128" d="M88 442L731 723L88 1040V1280L1040 784V641L88 203V442Z" />
<glyph unicode="?" glyph-name="question" horiz-adv-x="940" d="M264 485V559Q264 610 274 651T306 730T362 803T444 877Q486 910 515 936T562 987T588 1041T596 1106Q596 1163 558 1200T440 1237Q371 1237 292 1208T127 1137L25 1358Q68 1383 118 1405T223 1445T334
1473T444 1483Q546 1483 628 1459T767 1387T854 1273T885 1120Q885 1057 871 1008T830 916T761 834T664 750Q622 717 596 693T554 646T534 601T528 545V485H264ZM231 143Q231 190 244 222T282 275T338 304T408 313Q443 313 474 304T530 275T568 223T582 143Q582
98 568 66T530 13T475 -17T408 -27Q371 -27 339 -18T282 13T245 66T231 143Z" />
<glyph unicode="@" glyph-name="at" horiz-adv-x="1774" d="M1673 752Q1673 657 1651 564T1582 398T1467 279T1303 233Q1265 233 1232 242T1170 269T1122 310T1090 362H1075Q1056 337 1031 314T975 272T907 244T825 233Q742 233 678 261T569 342T502 468T479 631Q479
734 510 820T599 968T740 1065T926 1100Q971 1100 1019 1095T1111 1082T1195 1064T1262 1044L1241 625Q1239 603 1239 582T1239 555Q1239 513 1245 486T1262 444T1286 422T1315 416Q1350 416 1376 443T1419 516T1445 623T1454 754Q1454 882 1416 982T1311 1151T1150
1256T948 1292Q795 1292 679 1241T484 1099T365 882T324 608Q324 470 359 364T463 185T633 75T866 37Q922 37 981 44T1098 63T1213 92T1321 129V-63Q1227 -105 1113 -129T868 -154Q687 -154 545 -103T304 46T154 283T102 602Q102 726 129 839T207 1050T331 1227T499
1363T706 1450T948 1481Q1106 1481 1239 1431T1468 1286T1619 1056T1673 752ZM711 627Q711 515 749 466T850 416Q892 416 922 435T972 490T1002 575T1016 686L1028 907Q1008 912 981 915T926 918Q867 918 826 893T760 827T723 734T711 627Z" />
<glyph unicode="A" glyph-name="A" horiz-adv-x="1331" d="M1018 0L918 348H414L313 0H0L475 1468H854L1331 0H1018ZM846 608L752 928Q746 946 734 987T709 1077T683 1177T666 1262Q662 1240 656 1210T641 1147T623 1079T606 1015T592 962T582 928L489 608H846Z" />
<glyph unicode="B" glyph-name="B" horiz-adv-x="1315" d="M184 1462H612Q750 1462 854 1443T1028 1380T1133 1266T1169 1092Q1169 1030 1154 976T1110 881T1040 813T944 776V766Q999 754 1046 732T1129 670T1185 570T1206 424Q1206 324 1171 246T1071 113T912
29T700 0H184V1462ZM494 883H655Q713 883 752 893T815 925T849 977T860 1051Q860 1135 808 1171T641 1208H494V883ZM494 637V256H676Q737 256 778 270T845 310T882 373T893 455Q893 496 882 529T845 587T775 624T668 637H494Z" />
<glyph unicode="C" glyph-name="C" horiz-adv-x="1305" d="M805 1225Q716 1225 648 1191T533 1092T462 935T438 727Q438 610 459 519T525 366T639 271T805 238Q894 238 983 258T1178 315V55Q1130 35 1083 21T987 -2T887 -15T776 -20Q607 -20 483 34T278 186T158
422T119 729Q119 895 164 1033T296 1272T511 1427T805 1483Q914 1483 1023 1456T1233 1380L1133 1128Q1051 1167 968 1196T805 1225Z" />
<glyph unicode="D" glyph-name="D" horiz-adv-x="1434" d="M1315 745Q1315 560 1265 421T1119 188T885 47T569 0H184V1462H612Q773 1462 902 1416T1124 1280T1265 1055T1315 745ZM1001 737Q1001 859 977 947T906 1094T792 1180T637 1208H494V256H608Q804 256 902
376T1001 737Z" />
<glyph unicode="E" glyph-name="E" horiz-adv-x="1147" d="M1026 0H184V1462H1026V1208H494V887H989V633H494V256H1026V0Z" />
<glyph unicode="F" glyph-name="F" horiz-adv-x="1124" d="M489 0H184V1462H1022V1208H489V831H985V578H489V0Z" />
<glyph unicode="G" glyph-name="G" horiz-adv-x="1483" d="M739 821H1319V63Q1261 44 1202 29T1080 3T947 -14T799 -20Q635 -20 509 28T296 172T164 408T119 733Q119 905 169 1044T316 1280T556 1430T883 1483Q1000 1483 1112 1458T1317 1393L1214 1145Q1146 1179
1061 1202T881 1225Q779 1225 698 1190T558 1089T469 932T438 727Q438 619 459 530T527 375T645 274T819 238Q885 238 930 244T1016 258V563H739V821Z" />
<glyph unicode="H" glyph-name="H" horiz-adv-x="1485" d="M1300 0H991V631H494V0H184V1462H494V889H991V1462H1300V0Z" />
<glyph unicode="I" glyph-name="I" horiz-adv-x="797" d="M731 0H66V176L244 258V1204L66 1286V1462H731V1286L553 1204V258L731 176V0Z" />
<glyph unicode="J" glyph-name="J" horiz-adv-x="678" d="M-2 -430Q-67 -430 -116 -424T-199 -408V-150Q-162 -158 -122 -164T-33 -170Q13 -170 52 -160T121 -126T167 -60T184 43V1462H494V53Q494 -73 458 -164T356 -314T199 -402T-2 -430Z" />
<glyph unicode="K" glyph-name="K" horiz-adv-x="1298" d="M1298 0H946L610 608L494 522V0H184V1462H494V758L616 965L950 1462H1294L827 803L1298 0Z" />
<glyph unicode="L" glyph-name="L" horiz-adv-x="1096" d="M184 0V1462H494V256H1026V0H184Z" />
<glyph unicode="M" glyph-name="M" horiz-adv-x="1870" d="M772 0L451 1147H442Q448 1055 452 969Q454 932 455 893T458 816T460 743T461 680V0H184V1462H606L922 344H928L1264 1462H1686V0H1397V692Q1397 718 1397 751T1399 821T1401 896T1404 970Q1408 1054
1411 1145H1403L1057 0H772Z" />
<glyph unicode="N" glyph-name="N" horiz-adv-x="1604" d="M1419 0H1026L451 1106H442Q448 1029 452 953Q456 888 458 817T461 688V0H184V1462H575L1149 367H1155Q1152 443 1148 517Q1147 549 1146 582T1143 649T1142 714T1141 770V1462H1419V0Z" />
<glyph unicode="O" glyph-name="O" horiz-adv-x="1548" d="M1430 733Q1430 564 1391 425T1270 187T1066 34T774 -20Q606 -20 483 34T279 187T159 425T119 735Q119 905 158 1043T279 1280T483 1431T776 1485Q944 1485 1067 1432T1270 1280T1390 1043T1430 733ZM438
733Q438 618 458 527T519 372T624 274T774 240Q863 240 926 274T1030 371T1090 526T1110 733Q1110 848 1091 939T1031 1095T927 1193T776 1227Q689 1227 625 1193T520 1095T458 940T438 733Z" />
<glyph unicode="P" glyph-name="P" horiz-adv-x="1225" d="M494 774H555Q686 774 752 826T819 995Q819 1104 760 1156T573 1208H494V774ZM1133 1006Q1133 910 1104 822T1009 667T834 560T565 520H494V0H184V1462H590Q731 1462 833 1431T1002 1341T1101 1198T1133 1006Z" />
<glyph unicode="Q" glyph-name="Q" horiz-adv-x="1548" d="M1430 733Q1430 614 1411 510T1352 319T1253 166T1112 55L1473 -348H1075L807 -18Q800 -18 794 -19Q789 -20 784 -20T774 -20Q606 -20 483 34T279 187T159 425T119 735Q119 905 158 1043T279 1280T483
1431T776 1485Q944 1485 1067 1432T1270 1280T1390 1043T1430 733ZM438 733Q438 618 458 527T519 372T624 274T774 240Q863 240 926 274T1030 371T1090 526T1110 733Q1110 848 1091 939T1031 1095T927 1193T776 1227Q689 1227 625 1193T520 1095T458 940T438 733Z"
/>
<glyph unicode="R" glyph-name="R" horiz-adv-x="1290" d="M494 813H578Q707 813 763 864T819 1016Q819 1120 759 1164T573 1208H494V813ZM494 561V0H184V1462H584Q865 1462 999 1354T1133 1024Q1133 949 1113 888T1060 780T983 697T891 637Q1002 459 1090 319Q1128
259 1163 202T1227 100T1273 28L1290 0H946L629 561H494Z" />
<glyph unicode="S" glyph-name="S" horiz-adv-x="1073" d="M985 406Q985 308 952 230T854 96T696 10T481 -20Q375 -20 277 2T94 68V356Q142 333 191 312T290 273T391 246T492 236Q543 236 579 247T638 279T671 328T682 391Q682 432 665 463T616 522T540 576T440
631Q394 655 337 689T230 773T145 895T111 1067Q111 1165 143 1242T236 1373T381 1455T573 1483Q626 1483 676 1476T776 1456T876 1424T979 1380L879 1139Q834 1160 795 1176T719 1203T647 1219T575 1225Q497 1225 456 1184T414 1073Q414 1036 426 1008T466 954T537
903T643 844Q718 804 781 763T889 671T960 556T985 406Z" />
<glyph unicode="T" glyph-name="T" horiz-adv-x="1124" d="M717 0H408V1204H41V1462H1083V1204H717V0Z" />
<glyph unicode="U" glyph-name="U" horiz-adv-x="1466" d="M1292 1462V516Q1292 402 1258 304T1153 134T976 21T727 -20Q592 -20 489 18T316 128T210 298T174 520V1462H483V543Q483 462 499 405T546 311T625 257T735 240Q866 240 924 316T983 545V1462H1292Z" />
<glyph unicode="V" glyph-name="V" horiz-adv-x="1249" d="M936 1462H1249L793 0H455L0 1462H313L561 582Q566 565 574 525T592 437T611 341T625 260Q630 293 639 341T658 436T677 524T692 582L936 1462Z" />
<glyph unicode="W" glyph-name="W" horiz-adv-x="1898" d="M1546 0H1194L1014 721Q1010 736 1005 763T992 824T978 895T965 967T955 1031T948 1079Q946 1061 942 1032T931 968T919 896T906 825T893 763T883 719L705 0H352L0 1462H305L471 664Q474 648 479 618T492
549T506 469T521 387T534 313T543 256Q546 278 551 312T563 384T576 464T590 540T601 603T610 643L813 1462H1085L1288 643Q1291 631 1296 604T1308 541T1322 464T1335 385T1347 312T1356 256Q1359 278 1364 312T1377 387T1391 469T1406 549T1418 617T1427 664L1593
1462H1898L1546 0Z" />
<glyph unicode="X" glyph-name="X" horiz-adv-x="1284" d="M1284 0H930L631 553L332 0H0L444 754L31 1462H373L647 936L915 1462H1249L831 737L1284 0Z" />
<glyph unicode="Y" glyph-name="Y" horiz-adv-x="1196" d="M598 860L862 1462H1196L752 569V0H444V559L0 1462H336L598 860Z" />
<glyph unicode="Z" glyph-name="Z" horiz-adv-x="1104" d="M1055 0H49V201L668 1206H68V1462H1036V1262L418 256H1055V0Z" />
<glyph unicode="[" glyph-name="bracketleft" horiz-adv-x="678" d="M627 -324H143V1462H627V1251H403V-113H627V-324Z" />
<glyph unicode="\" glyph-name="backslash" horiz-adv-x="846" d="M289 1462L834 0H557L12 1462H289Z" />
<glyph unicode="]" glyph-name="bracketright" horiz-adv-x="678" d="M51 -113H274V1251H51V1462H535V-324H51V-113Z" />
<glyph unicode="^" glyph-name="asciicircum" horiz-adv-x="1090" d="M8 520L446 1470H590L1085 520H846L524 1163Q455 1002 384 839T244 520H8Z" />
<glyph unicode="_" glyph-name="underscore" horiz-adv-x="842" d="M846 -324H-4V-184H846V-324Z" />
<glyph unicode="`" glyph-name="grave" horiz-adv-x="1182" d="M645 1241Q611 1269 564 1310T470 1396T386 1480T332 1548V1569H674Q690 1535 711 1495T756 1414T803 1335T848 1268V1241H645Z" />
<glyph unicode="a" glyph-name="a" horiz-adv-x="1176" d="M809 0L750 152H741Q708 107 675 75T603 21T516 -10T403 -20Q335 -20 277 1T177 66T110 176T86 334Q86 512 200 596T541 690L719 696V780Q719 849 679 882T567 915Q495 915 427 894T289 838L190 1040Q274
1087 376 1114T590 1141Q799 1141 910 1043T1022 745V0H809ZM719 518L618 514Q557 512 515 498T448 461T411 405T399 332Q399 262 433 233T522 203Q564 203 600 217T662 260T704 330T719 426V518Z" />
<glyph unicode="b" glyph-name="b" horiz-adv-x="1245" d="M756 1139Q842 1139 913 1102T1035 992T1114 811T1143 561Q1143 417 1115 309T1034 127T909 17T748 -20Q692 -20 649 -8T571 24T512 69T465 123H444L393 0H160V1556H465V1194Q465 1161 463 1123T459 1051Q456
1012 453 973H465Q486 1008 513 1038T575 1090T656 1126T756 1139ZM653 895Q602 895 567 877T509 821T477 728T465 596V563Q465 482 474 419T506 314T564 249T655 227Q746 227 788 313T831 565Q831 730 789 812T653 895Z" />
<glyph unicode="c" glyph-name="c" horiz-adv-x="1022" d="M625 -20Q505 -20 409 13T244 115T139 293T102 553Q102 720 139 832T245 1013T410 1110T625 1139Q711 1139 796 1118T956 1059L868 827Q802 856 741 874T625 893Q514 893 464 809T414 555Q414 387 464
307T621 227Q708 227 779 249T924 307V53Q887 35 852 21T782 -2T708 -15T625 -20Z" />
<glyph unicode="d" glyph-name="d" horiz-adv-x="1245" d="M489 -20Q403 -20 332 17T210 126T131 307T102 557Q102 701 130 809T211 991T337 1102T498 1139Q552 1139 597 1127T678 1092T742 1040T793 975H803Q797 1014 792 1054Q787 1088 784 1126T780 1198V1556H1085V0H852L793
145H780Q759 111 732 81T670 28T590 -7T489 -20ZM600 223Q654 223 692 241T753 297T788 391T801 522V555Q801 636 791 699T758 804T696 869T598 891Q502 891 457 805T412 553Q412 388 457 306T600 223Z" />
<glyph unicode="e" glyph-name="e" horiz-adv-x="1190" d="M612 922Q531 922 478 865T416 686H805Q804 737 792 780T756 854T696 904T612 922ZM651 -20Q531 -20 430 15T256 120T143 298T102 551Q102 698 139 808T242 991T402 1102T610 1139Q721 1139 810 1106T962
1007T1058 848T1092 631V483H410Q412 419 430 368T482 281T563 226T672 207Q723 207 768 212T857 229T942 256T1028 295V59Q988 38 948 24T862 -1T765 -15T651 -20Z" />
<glyph unicode="f" glyph-name="f" horiz-adv-x="793" d="M741 889H514V0H209V889H41V1036L209 1118V1200Q209 1307 235 1377T309 1490T425 1549T578 1567Q670 1567 733 1553T840 1520L768 1296Q737 1307 703 1316T623 1325Q563 1325 539 1287T514 1188V1118H741V889Z" />
<glyph unicode="g" glyph-name="g" horiz-adv-x="1130" d="M1085 1116V950L922 899Q942 865 950 829T958 750Q958 665 931 595T851 474T718 397T532 369Q509 369 482 371T442 377Q422 360 411 342T399 297Q399 276 412 264T446 244T495 234T553 231H727Q808 231
872 213T980 156T1049 60T1073 -80Q1073 -175 1035 -251T922 -381T734 -463T475 -492Q361 -492 276 -471T134 -409T49 -311T20 -182Q20 -121 41 -76T97 1T176 53T268 84Q247 93 227 109T190 146T163 192T152 246Q152 278 161 304T189 352T234 395T295 436Q207 474
156 558T104 756Q104 846 132 917T214 1037T348 1113T532 1139Q552 1139 577 1137T626 1131T672 1123T705 1116H1085ZM285 -158Q285 -183 295 -206T330 -248T393 -276T489 -287Q645 -287 724 -243T803 -125Q803 -62 754 -41T602 -20H461Q434 -20 403 -26T346 -49T303
-91T285 -158ZM395 752Q395 661 429 611T532 561Q604 561 636 611T668 752Q668 842 637 895T532 948Q395 948 395 752Z" />
<glyph unicode="h" glyph-name="h" horiz-adv-x="1284" d="M1130 0H825V653Q825 774 788 834T672 895Q613 895 573 871T509 800T475 684T465 526V0H160V1556H465V1239Q465 1197 463 1151T458 1065Q454 1019 451 975H467Q516 1062 592 1100T764 1139Q847 1139 914
1116T1030 1042T1104 915T1130 729V0Z" />
<glyph unicode="i" glyph-name="i" horiz-adv-x="625" d="M147 1407Q147 1450 160 1478T195 1524T248 1549T313 1556Q347 1556 377 1549T429 1525T465 1479T479 1407Q479 1365 466 1336T430 1290T377 1265T313 1257Q279 1257 249 1264T196 1289T160 1336T147 1407ZM465
0H160V1118H465V0Z" />
<glyph unicode="j" glyph-name="j" horiz-adv-x="625" d="M102 -492Q54 -492 3 -485T-82 -467V-227Q-51 -237 -24 -241T37 -246Q62 -246 84 -239T123 -212T150 -160T160 -76V1118H465V-121Q465 -198 446 -265T383 -383T270 -463T102 -492ZM147 1407Q147 1450 160
1478T195 1524T248 1549T313 1556Q347 1556 377 1549T429 1525T465 1479T479 1407Q479 1365 466 1336T430 1290T377 1265T313 1257Q279 1257 249 1264T196 1289T160 1336T147 1407Z" />
<glyph unicode="k" glyph-name="k" horiz-adv-x="1208" d="M453 608L565 778L838 1118H1182L778 633L1208 0H856L584 430L465 348V0H160V1556H465V862L449 608H453Z" />
<glyph unicode="l" glyph-name="l" horiz-adv-x="625" d="M465 0H160V1556H465V0Z" />
<glyph unicode="m" glyph-name="m" horiz-adv-x="1929" d="M1120 0H815V653Q815 774 779 834T666 895Q608 895 570 871T508 800T475 684T465 526V0H160V1118H393L434 975H451Q475 1018 508 1049T582 1100T667 1129T758 1139Q873 1139 953 1100T1077 975H1102Q1126
1018 1160 1049T1235 1100T1321 1129T1413 1139Q1593 1139 1684 1042T1776 729V0H1470V653Q1470 774 1434 834T1321 895Q1212 895 1166 809T1120 561V0Z" />
<glyph unicode="n" glyph-name="n" horiz-adv-x="1284" d="M1130 0H825V653Q825 774 789 834T672 895Q612 895 572 871T509 800T475 684T465 526V0H160V1118H393L434 975H451Q475 1018 509 1049T585 1100T672 1129T766 1139Q848 1139 915 1116T1030 1042T1104
915T1130 729V0Z" />
<glyph unicode="o" glyph-name="o" horiz-adv-x="1227" d="M414 561Q414 394 461 310T614 225Q719 225 766 310T813 561Q813 728 766 810T612 893Q507 893 461 811T414 561ZM1124 561Q1124 421 1089 313T987 131T825 19T610 -20Q499 -20 406 18T246 131T140 313T102
561Q102 700 137 808T239 989T401 1101T616 1139Q727 1139 820 1101T980 990T1086 808T1124 561Z" />
<glyph unicode="p" glyph-name="p" horiz-adv-x="1245" d="M748 -20Q693 -20 650 -8T572 24T512 69T465 123H449Q453 88 457 57Q460 31 462 4T465 -39V-492H160V1118H408L451 973H465Q486 1007 513 1037T575 1089T656 1125T756 1139Q843 1139 914 1102T1036 992T1115
811T1143 561Q1143 418 1114 310T1033 128T908 17T748 -20ZM653 895Q602 895 567 877T509 821T477 728T465 596V563Q465 482 474 419T506 314T564 249T655 227Q746 227 788 313T831 565Q831 730 789 812T653 895Z" />
<glyph unicode="q" glyph-name="q" horiz-adv-x="1245" d="M602 219Q657 219 694 237T755 293T789 386T801 518V555Q801 636 792 699T759 804T697 869T600 891Q504 891 459 805T414 553Q414 385 459 302T602 219ZM489 -20Q402 -20 331 17T209 126T130 307T102
557Q102 700 130 808T211 990T337 1101T498 1139Q554 1139 599 1127T680 1092T745 1040T795 975H803L827 1118H1085V-492H780V-23Q780 -4 782 24T787 80Q790 112 793 145H780Q760 111 733 81T671 28T590 -7T489 -20Z" />
<glyph unicode="r" glyph-name="r" horiz-adv-x="889" d="M743 1139Q755 1139 769 1139T797 1137T822 1134T840 1130V844Q832 846 818 848T789 851T758 853T733 854Q674 854 625 839T540 791T485 703T465 569V0H160V1118H391L436 950H451Q475 993 503 1028T565
1087T643 1125T743 1139Z" />
<glyph unicode="s" glyph-name="s" horiz-adv-x="985" d="M905 332Q905 244 873 178T782 68T639 2T451 -20Q396 -20 349 -17T260 -5T179 15T100 45V297Q142 276 188 259T281 230T370 210T451 203Q492 203 521 210T568 231T595 263T604 303Q604 324 598 340T568
375T501 417T381 475Q308 508 255 540T167 613T115 704T98 827Q98 905 128 963T213 1061T345 1119T518 1139Q618 1139 708 1116T893 1047L801 831Q725 867 656 890T518 913Q456 913 429 891T401 831Q401 811 408 796T436 764T495 728T594 680Q665 649 722 619T820
549T883 458T905 332Z" />
<glyph unicode="t" glyph-name="t" horiz-adv-x="848" d="M614 223Q659 223 699 233T782 258V31Q739 9 676 -5T537 -20Q464 -20 401 -3T292 56T220 170T193 350V889H47V1018L215 1120L303 1356H498V1118H770V889H498V350Q498 285 530 254T614 223Z" />
<glyph unicode="u" glyph-name="u" horiz-adv-x="1284" d="M891 0L850 143H834Q809 100 775 70T699 19T612 -10T518 -20Q436 -20 369 3T254 77T180 204T154 389V1118H459V465Q459 344 495 284T612 223Q672 223 712 247T775 318T809 434T819 592V1118H1124V0H891Z" />
<glyph unicode="v" glyph-name="v" horiz-adv-x="1104" d="M395 0L0 1118H319L504 481Q521 424 533 363T549 252H555Q558 305 570 364T600 481L784 1118H1104L709 0H395Z" />
<glyph unicode="w" glyph-name="w" horiz-adv-x="1651" d="M1014 0L928 391Q924 408 918 439T903 510T887 594T869 683Q849 786 825 905H819Q796 786 777 682Q769 638 761 593T744 509T730 437T719 387L629 0H301L0 1118H303L416 623Q425 584 434 530T452 420T468
315T479 236H485Q486 255 489 285T498 351T508 422T519 491T529 547T537 582L659 1118H995L1112 582Q1117 560 1125 514T1141 416T1156 314T1163 236H1169Q1172 261 1179 310T1196 415T1215 528T1235 623L1352 1118H1651L1346 0H1014Z" />
<glyph unicode="x" glyph-name="x" horiz-adv-x="1122" d="M389 571L29 1118H375L561 782L750 1118H1096L731 571L1112 0H766L561 362L356 0H10L389 571Z" />
<glyph unicode="y" glyph-name="y" horiz-adv-x="1104" d="M0 1118H334L514 489Q530 437 537 378T547 272H553Q555 295 558 323T567 380T578 437T592 489L768 1118H1104L662 -143Q600 -320 493 -406T225 -492Q173 -492 135 -487T70 -475V-233Q91 -238 123 -242T190
-246Q238 -246 272 -233T330 -197T372 -140T403 -66L422 -10L0 1118Z" />
<glyph unicode="z" glyph-name="z" horiz-adv-x="936" d="M877 0H55V180L512 885H86V1118H858V920L416 233H877V0Z" />
<glyph unicode="{" glyph-name="braceleft" horiz-adv-x="745" d="M287 367T222 408T31 449V688Q93 688 141 697T223 728T272 784T287 866V1184Q287 1258 306 1310T374 1396T509 1446T725 1462V1237Q685 1236 653 1230T598 1209T563 1166T551 1096V797Q545 610
317 575V563Q432 546 493 491T551 342V43Q551 0 563 -27T597 -69T652 -91T725 -98V-324Q594 -324 509 -308T375 -259T306 -172T287 -45V270Q287 367 222 408Z" />
<glyph unicode="|" glyph-name="bar" horiz-adv-x="1128" d="M455 1550H674V-465H455V1550Z" />
<glyph unicode="}" glyph-name="braceright" horiz-adv-x="745" d="M469 -45Q469 -119 450 -172T382 -258T247 -308T31 -324V-98Q71 -97 103 -91T157 -70T192 -27T205 43V342Q202 436 263 491T438 563V575Q211 610 205 797V1096Q205 1139 193 1166T158 1208T103
1230T31 1237V1462Q162 1462 247 1446T381 1397T450 1311T469 1184V866Q468 818 484 784T533 729T614 698T725 688V449Q600 449 535 408T469 270V-45Z" />
<glyph unicode="~" glyph-name="asciitilde" horiz-adv-x="1128" d="M528 616Q491 632 463 643T411 660T366 669T322 672Q293 672 262 663T201 637T143 598T88 551V782Q139 836 202 863T344 891Q374 891 399 889T453 879T517 860T600 827Q638 811 666 801T719
784T764 775T807 772Q836 772 867 781T928 807T986 845T1040 893V662Q939 553 784 553Q754 553 729 555T675 564T611 583T528 616Z" />
<glyph unicode="&#xa0;" glyph-name="nbspace" horiz-adv-x="532" />
<glyph unicode="&#xa1;" glyph-name="exclamdown" horiz-adv-x="586" d="M168 606H412L463 -369H117L168 606ZM467 948Q467 901 454 869T416 816T360 787T291 778Q256 778 225 787T169 816T131 868T117 948Q117 993 131 1025T169 1078T224 1108T291 1118Q328 1118
360 1109T416 1079T453 1026T467 948Z" />
<glyph unicode="&#xa2;" glyph-name="cent" horiz-adv-x="1128" d="M543 -20V186Q451 199 377 236T251 340T171 506T143 743Q143 884 171 985T251 1155T378 1260T543 1311V1483H721V1319Q759 1318 797 1313T870 1299T937 1281T993 1260L907 1034Q886 1044 860
1053T805 1070T750 1082T698 1087Q632 1087 586 1067T511 1006T468 901T455 750Q455 579 512 500T698 420Q774 420 844 438T965 481V242Q914 213 852 198T721 180V-20H543Z" />
<glyph unicode="&#xa3;" glyph-name="sterling" horiz-adv-x="1128" d="M680 1483Q790 1483 879 1459T1049 1401L956 1171Q885 1200 827 1217T705 1235Q638 1235 601 1197T563 1063V870H897V651H563V508Q563 453 550 413T514 343T466 294T412 260H1090V0H82V248Q124
266 157 287T214 337T250 407T262 506V651H84V870H262V1065Q262 1178 293 1257T380 1387T512 1460T680 1483Z" />
<glyph unicode="&#xa4;" glyph-name="currency" horiz-adv-x="1128" d="M168 723Q168 777 182 826T221 920L92 1047L240 1194L367 1067Q410 1092 461 1106T563 1120Q617 1120 665 1107T760 1065L887 1194L1036 1051L907 922Q932 880 946 829T961 723Q961 667 947
618T907 524L1032 399L887 254L760 379Q716 356 667 342T563 328Q507 328 458 340T365 379L240 256L94 401L221 526Q168 617 168 723ZM375 723Q375 684 390 650T430 590T490 550T563 535Q603 535 638 549T699 589T741 649T756 723Q756 763 741 797T700 857T638
898T563 913Q524 913 490 898T431 858T390 798T375 723Z" />
<glyph unicode="&#xa5;" glyph-name="yen" horiz-adv-x="1128" d="M565 860L809 1462H1122L760 715H954V537H709V399H954V221H709V0H422V221H174V399H422V537H174V715H365L8 1462H324L565 860Z" />
<glyph unicode="&#xa6;" glyph-name="brokenbar" horiz-adv-x="1128" d="M455 1550H674V735H455V1550ZM455 350H674V-465H455V350Z" />
<glyph unicode="&#xa7;" glyph-name="section" horiz-adv-x="995" d="M121 805Q121 849 131 886T160 955T203 1012T254 1055Q191 1095 156 1154T121 1288Q121 1353 150 1406T232 1498T360 1556T526 1577Q628 1577 716 1554T889 1493L807 1303Q739 1335 669 1360T520
1386Q439 1386 402 1363T365 1292Q365 1267 377 1246T415 1206T481 1167T578 1124Q649 1096 707 1062T807 987T872 895T895 782Q895 682 861 621T770 522Q832 482 863 430T895 303Q895 229 864 170T776 68T638 3T455 -20Q345 -20 261 0T106 59V266Q145 246 190
229T281 198T371 176T455 168Q511 168 548 177T607 202T639 239T649 285Q649 310 642 329T612 368T549 408T442 457Q366 489 306 521T205 593T143 685T121 805ZM344 827Q344 764 400 716T575 616L590 610Q605 621 619 635T644 668T661 708T668 756Q668 788 658
815T621 867T550 917T434 967Q416 960 400 947T372 915T352 875T344 827Z" />
<glyph unicode="&#xa8;" glyph-name="dieresis" horiz-adv-x="1182" d="M248 1405Q248 1440 259 1465T288 1507T332 1532T387 1540Q416 1540 441 1532T486 1508T516 1466T528 1405Q528 1371 517 1346T486 1305T442 1280T387 1272Q358 1272 333 1280T289 1304T259
1346T248 1405ZM651 1405Q651 1440 662 1465T692 1507T737 1532T793 1540Q821 1540 846 1532T891 1508T922 1466T934 1405Q934 1371 923 1346T892 1305T847 1280T793 1272Q733 1272 692 1305T651 1405Z" />
<glyph unicode="&#xa9;" glyph-name="copyright" horiz-adv-x="1704" d="M895 1010Q798 1010 745 936T692 731Q692 596 740 524T895 451Q952 451 1018 466T1141 510V319Q1084 292 1025 277T889 262Q782 262 702 296T569 392T488 540T461 733Q461 836 487 921T565
1068T697 1164T881 1198Q964 1198 1041 1176T1186 1120L1112 952Q999 1010 895 1010ZM100 731Q100 835 127 931T202 1110T320 1263T472 1380T652 1456T852 1483Q956 1483 1052 1456T1231 1381T1384 1263T1501 1111T1577 931T1604 731Q1604 627 1577 531T1502 352T1384
200T1232 82T1052 7T852 -20Q748 -20 652 6T473 82T320 199T203 351T127 531T100 731ZM242 731Q242 604 290 493T420 300T614 169T852 121Q979 121 1090 169T1283 299T1414 493T1462 731Q1462 858 1414 969T1284 1162T1090 1293T852 1341Q725 1341 614 1293T421
1163T290 969T242 731Z" />
<glyph unicode="&#xaa;" glyph-name="ordfeminine" horiz-adv-x="743" d="M520 764L489 874Q449 816 393 784T268 752Q218 752 178 765T108 806T63 876T47 975Q47 1035 68 1076T130 1144T230 1184T365 1202L455 1206Q455 1269 426 1296T342 1323Q302 1323 253
1306T152 1262L86 1397Q148 1429 222 1454T387 1479Q455 1479 505 1460T589 1405T638 1319T655 1206V764H520ZM373 1081Q335 1078 312 1068T275 1044T257 1012T252 977Q252 939 271 921T317 903Q349 903 374 914T418 944T445 991T455 1051V1087L373 1081Z" />
<glyph unicode="&#xab;" glyph-name="guillemotleft" horiz-adv-x="1198" d="M82 573L391 1028L610 909L393 561L610 213L391 94L82 547V573ZM588 573L897 1028L1116 909L899 561L1116 213L897 94L588 547V573Z" />
<glyph unicode="&#xac;" glyph-name="logicalnot" horiz-adv-x="1128" d="M1040 248H821V612H88V831H1040V248Z" />
<glyph unicode="&#xad;" glyph-name="uni00AD" horiz-adv-x="659" d="M61 424V674H598V424H61Z" />
<glyph unicode="&#xae;" glyph-name="registered" horiz-adv-x="1704" d="M1157 905Q1157 811 1119 756T1014 672L1251 272H997L819 610H772V272H543V1188H807Q989 1188 1073 1118T1157 905ZM772 778H803Q869 778 897 806T926 901Q926 936 919 959T896 995T857
1014T801 1020H772V778ZM100 731Q100 835 127 931T202 1110T320 1263T472 1380T652 1456T852 1483Q956 1483 1052 1456T1231 1381T1384 1263T1501 1111T1577 931T1604 731Q1604 627 1577 531T1502 352T1384 200T1232 82T1052 7T852 -20Q748 -20 652 6T473 82T320
199T203 351T127 531T100 731ZM242 731Q242 604 290 493T420 300T614 169T852 121Q979 121 1090 169T1283 299T1414 493T1462 731Q1462 858 1414 969T1284 1162T1090 1293T852 1341Q725 1341 614 1293T421 1163T290 969T242 731Z" />
<glyph unicode="&#xaf;" glyph-name="overscore" horiz-adv-x="1024" d="M1030 1556H-6V1757H1030V1556Z" />
<glyph unicode="&#xb0;" glyph-name="degree" horiz-adv-x="877" d="M92 1137Q92 1208 119 1271T193 1381T303 1455T438 1483Q510 1483 573 1456T683 1381T757 1271T784 1137Q784 1065 757 1002T684 893T574 820T438 793Q366 793 303 819T193 892T119 1002T92
1137ZM283 1137Q283 1106 295 1078T328 1029T377 996T438 983Q470 983 498 995T548 1029T581 1078T594 1137Q594 1169 582 1197T548 1247T499 1281T438 1294Q406 1294 378 1282T328 1248T295 1198T283 1137Z" />
<glyph unicode="&#xb1;" glyph-name="plusminus" horiz-adv-x="1128" d="M455 674H88V893H455V1262H674V893H1040V674H674V309H455V674ZM88 0V219H1040V0H88Z" />
<glyph unicode="&#xb2;" glyph-name="twosuperior" horiz-adv-x="776" d="M702 586H55V754L279 973Q325 1018 355 1051T404 1111T430 1161T438 1212Q438 1250 414 1270T350 1290Q310 1290 267 1270T170 1202L47 1354Q112 1411 193 1447T383 1483Q449 1483 503
1467T596 1419T656 1341T678 1233Q678 1187 666 1147T626 1065T557 980T455 881L350 786H702V586Z" />
<glyph unicode="&#xb3;" glyph-name="threesuperior" horiz-adv-x="776" d="M666 1249Q666 1180 626 1130T496 1051V1038Q547 1028 584 1007T645 959T682 898T694 829Q694 708 606 639T332 569Q256 569 190 586T59 639V829Q125 789 191 764T330 739Q404 739 438
766T473 846Q473 867 465 886T438 919T387 943T307 952H195V1112H287Q339 1112 371 1121T421 1145T445 1180T451 1221Q451 1259 426 1284T350 1309Q303 1309 261 1290T162 1231L61 1372Q123 1419 198 1450T377 1481Q439 1481 492 1465T583 1418T644 1345T666 1249Z"
/>
<glyph unicode="&#xb4;" glyph-name="acute" horiz-adv-x="1182" d="M332 1241V1268Q353 1297 377 1335T424 1413T469 1494T506 1569H848V1548Q837 1530 816 1506T768 1453T710 1396T648 1338T587 1285T535 1241H332Z" />
<glyph unicode="&#xb5;" glyph-name="mu" horiz-adv-x="1290" d="M465 465Q465 344 502 284T621 223Q679 223 718 247T781 318T815 434T825 592V1118H1130V0H897L854 150H842Q807 65 755 23T627 -20Q573 -20 528 3T455 70Q457 28 460 -15Q462 -52 463 -94T465
-172V-492H160V1118H465V465Z" />
<glyph unicode="&#xb6;" glyph-name="paragraph" horiz-adv-x="1341" d="M1167 -260H1006V1356H840V-260H678V559Q617 541 532 541Q437 541 360 566T228 651T143 806T113 1042Q113 1189 145 1287T237 1446T380 1531T563 1556H1167V-260Z" />
<glyph unicode="&#xb7;" glyph-name="middot" horiz-adv-x="584" d="M117 723Q117 770 130 802T168 855T224 884T293 893Q328 893 359 884T415 855T453 803T467 723Q467 678 453 646T415 593T360 563T293 553Q256 553 224 562T168 592T131 645T117 723Z" />
<glyph unicode="&#xb8;" glyph-name="cedilla" horiz-adv-x="420" d="M418 -250Q418 -307 403 -352T351 -428T256 -475T109 -492Q64 -492 28 -486T-37 -471V-303Q-22 -307 -4 -310T34 -317T72 -322T106 -324Q135 -324 156 -311T178 -262Q178 -225 141 -197T12
-154L90 0H283L256 -61Q287 -71 316 -88T367 -128T404 -182T418 -250Z" />
<glyph unicode="&#xb9;" glyph-name="onesuperior" horiz-adv-x="776" d="M584 586H346V1032Q346 1052 346 1082T348 1144T351 1201T354 1239Q348 1231 339 1221T319 1199T298 1178T279 1161L201 1100L92 1227L393 1462H584V586Z" />
<glyph unicode="&#xba;" glyph-name="ordmasculine" horiz-adv-x="754" d="M696 1116Q696 1029 674 962T609 848T508 777T375 752Q306 752 248 776T147 847T81 961T57 1116Q57 1203 79 1270T143 1384T244 1455T379 1479Q447 1479 504 1455T605 1385T672 1271T696
1116ZM260 1116Q260 1016 287 966T377 915Q437 915 464 965T492 1116Q492 1216 465 1265T377 1315Q315 1315 288 1266T260 1116Z" />
<glyph unicode="&#xbb;" glyph-name="guillemotright" horiz-adv-x="1198" d="M1118 547L809 94L590 213L807 561L590 909L809 1028L1118 573V547ZM612 547L303 94L84 213L301 561L84 909L303 1028L612 573V547Z" />
<glyph unicode="&#xbc;" glyph-name="onequarter" horiz-adv-x="1804" d="M1370 1462L559 0H320L1131 1462H1370ZM794 586H556V1032Q556 1052 556 1082T558 1144T561 1201T564 1239Q558 1231 549 1221T529 1199T508 1178T489 1161L411 1100L302 1227L603 1462H794V586ZM1682
152H1557V1H1319V152H936V306L1321 883H1557V320H1682V152ZM1319 320V484Q1319 526 1320 572T1325 668Q1320 655 1311 634T1290 590T1268 546T1248 511L1121 320H1319Z" />
<glyph unicode="&#xbd;" glyph-name="onehalf" horiz-adv-x="1804" d="M1370 1462L559 0H320L1131 1462H1370ZM794 586H556V1032Q556 1052 556 1082T558 1144T561 1201T564 1239Q558 1231 549 1221T529 1199T508 1178T489 1161L411 1100L302 1227L603 1462H794V586ZM1716
1H1069V169L1293 388Q1339 433 1369 466T1418 526T1444 576T1452 627Q1452 665 1428 685T1364 705Q1324 705 1281 685T1184 617L1061 769Q1126 826 1207 862T1397 898Q1463 898 1517 882T1610 834T1670 756T1692 648Q1692 602 1680 562T1640 480T1571 395T1469
296L1364 201H1716V1Z" />
<glyph unicode="&#xbe;" glyph-name="threequarters" horiz-adv-x="1804" d="M1441 1462L630 0H391L1202 1462H1441ZM1712 152H1587V1H1349V152H966V306L1351 883H1587V320H1712V152ZM1349 320V484Q1349 526 1350 572T1355 668Q1350 655 1341 634T1320 590T1298
546T1278 511L1151 320H1349ZM697 1249Q697 1180 657 1130T527 1051V1038Q578 1028 615 1007T676 959T713 898T725 829Q725 708 637 639T363 569Q287 569 221 586T90 639V829Q156 789 222 764T361 739Q435 739 469 766T504 846Q504 867 496 886T469 919T418 943T338
952H226V1112H318Q370 1112 402 1121T452 1145T476 1180T482 1221Q482 1259 457 1284T381 1309Q334 1309 292 1290T193 1231L92 1372Q154 1419 229 1450T408 1481Q470 1481 523 1465T614 1418T675 1345T697 1249Z" />
<glyph unicode="&#xbf;" glyph-name="questiondown" horiz-adv-x="940" d="M686 606V532Q686 481 676 440T644 361T588 288T506 215Q464 182 435 156T388 105T362 51T354 -14Q354 -71 393 -108T510 -145Q579 -145 659 -116T823 -45L926 -266Q883 -292 832 -314T727
-354T616 -381T506 -391Q404 -391 323 -367T184 -296T97 -182T66 -29Q66 34 79 83T121 175T190 258T287 342Q328 375 354 399T396 446T416 492T422 547V606H686ZM719 948Q719 901 706 869T668 816T612 787T543 778Q508 778 477 787T421 816T383 868T369 948Q369
993 383 1025T421 1078T476 1108T543 1118Q580 1118 612 1109T668 1079T705 1026T719 948Z" />
<glyph unicode="&#xc0;" glyph-name="Agrave" horiz-adv-x="1331" d="M1018 0L918 348H414L313 0H0L475 1468H854L1331 0H1018ZM846 608L752 928Q746 946 734 987T709 1077T683 1177T666 1262Q662 1240 656 1210T641 1147T623 1079T606 1015T592 962T582 928L489
608H846ZM632 1579Q598 1607 551 1648T457 1734T373 1818T319 1886V1907H661Q677 1873 698 1833T743 1752T790 1673T835 1606V1579H632Z" />
<glyph unicode="&#xc1;" glyph-name="Aacute" horiz-adv-x="1331" d="M1018 0L918 348H414L313 0H0L475 1468H854L1331 0H1018ZM846 608L752 928Q746 946 734 987T709 1077T683 1177T666 1262Q662 1240 656 1210T641 1147T623 1079T606 1015T592 962T582 928L489
608H846ZM494 1579V1606Q515 1635 539 1673T586 1751T631 1832T668 1907H1010V1886Q999 1868 978 1844T930 1791T872 1734T810 1676T749 1623T697 1579H494Z" />
<glyph unicode="&#xc2;" glyph-name="Acircumflex" horiz-adv-x="1331" d="M1018 0L918 348H414L313 0H0L475 1468H854L1331 0H1018ZM846 608L752 928Q746 946 734 987T709 1077T683 1177T666 1262Q662 1240 656 1210T641 1147T623 1079T606 1015T592 962T582
928L489 608H846ZM879 1579Q828 1613 773 1656T666 1755Q612 1699 560 1656T457 1579H254V1606Q280 1635 311 1673T375 1751T438 1832T490 1907H846Q867 1873 897 1833T959 1752T1024 1673T1082 1606V1579H879Z" />
<glyph unicode="&#xc3;" glyph-name="Atilde" horiz-adv-x="1331" d="M1018 0L918 348H414L313 0H0L475 1468H854L1331 0H1018ZM846 608L752 928Q746 946 734 987T709 1077T683 1177T666 1262Q662 1240 656 1210T641 1147T623 1079T606 1015T592 962T582 928L489
608H846ZM504 1684Q473 1684 455 1658T424 1577H275Q281 1657 301 1715T353 1811T430 1867T527 1886Q568 1886 607 1870T684 1835T760 1799T834 1782Q865 1782 883 1808T914 1888H1063Q1057 1809 1037 1751T983 1655T907 1598T811 1579Q771 1579 731 1595T653 1631T578
1667T504 1684Z" />
<glyph unicode="&#xc4;" glyph-name="Adieresis" horiz-adv-x="1331" d="M1018 0L918 348H414L313 0H0L475 1468H854L1331 0H1018ZM846 608L752 928Q746 946 734 987T709 1077T683 1177T666 1262Q662 1240 656 1210T641 1147T623 1079T606 1015T592 962T582 928L489
608H846ZM324 1743Q324 1778 335 1803T364 1845T408 1870T463 1878Q492 1878 517 1870T562 1846T592 1804T604 1743Q604 1709 593 1684T562 1643T518 1618T463 1610Q434 1610 409 1618T365 1642T335 1684T324 1743ZM727 1743Q727 1778 738 1803T768 1845T813 1870T869
1878Q897 1878 922 1870T967 1846T998 1804T1010 1743Q1010 1709 999 1684T968 1643T923 1618T869 1610Q809 1610 768 1643T727 1743Z" />
<glyph unicode="&#xc5;" glyph-name="Aring" horiz-adv-x="1331" d="M1018 0L918 348H414L313 0H0L475 1468H854L1331 0H1018ZM846 608L752 928Q746 946 734 987T709 1077T683 1177T666 1262Q662 1240 656 1210T641 1147T623 1079T606 1015T592 962T582 928L489
608H846ZM918 1567Q918 1511 899 1467T845 1391T764 1344T664 1327Q609 1327 563 1343T485 1390T434 1465T416 1565Q416 1620 434 1664T484 1738T563 1785T664 1802Q717 1802 763 1786T843 1739T898 1665T918 1567ZM760 1565Q760 1610 733 1635T664 1661Q622 1661
595 1636T568 1565Q568 1520 592 1494T664 1468Q706 1468 733 1494T760 1565Z" />
<glyph unicode="&#xc6;" glyph-name="AE" horiz-adv-x="1888" d="M1767 0H926V348H465L315 0H0L655 1462H1767V1208H1235V887H1731V633H1235V256H1767V0ZM578 608H926V1198H829L578 608Z" />
<glyph unicode="&#xc7;" glyph-name="Ccedilla" horiz-adv-x="1305" d="M805 1225Q716 1225 648 1191T533 1092T462 935T438 727Q438 610 459 519T525 366T639 271T805 238Q894 238 983 258T1178 315V55Q1130 35 1083 21T987 -2T887 -15T776 -20Q607 -20 483 34T278
186T158 422T119 729Q119 895 164 1033T296 1272T511 1427T805 1483Q914 1483 1023 1456T1233 1380L1133 1128Q1051 1167 968 1196T805 1225ZM926 -250Q926 -307 911 -352T859 -428T764 -475T617 -492Q572 -492 536 -486T471 -471V-303Q486 -307 504 -310T542 -317T580
-322T614 -324Q643 -324 664 -311T686 -262Q686 -225 649 -197T520 -154L598 0H791L764 -61Q795 -71 824 -88T875 -128T912 -182T926 -250Z" />
<glyph unicode="&#xc8;" glyph-name="Egrave" horiz-adv-x="1147" d="M1026 0H184V1462H1026V1208H494V887H989V633H494V256H1026V0ZM572 1579Q538 1607 491 1648T397 1734T313 1818T259 1886V1907H601Q617 1873 638 1833T683 1752T730 1673T775 1606V1579H572Z" />
<glyph unicode="&#xc9;" glyph-name="Eacute" horiz-adv-x="1147" d="M1026 0H184V1462H1026V1208H494V887H989V633H494V256H1026V0ZM424 1579V1606Q445 1635 469 1673T516 1751T561 1832T598 1907H940V1886Q929 1868 908 1844T860 1791T802 1734T740 1676T679
1623T627 1579H424Z" />
<glyph unicode="&#xca;" glyph-name="Ecircumflex" horiz-adv-x="1147" d="M1026 0H184V1462H1026V1208H494V887H989V633H494V256H1026V0ZM832 1579Q781 1613 726 1656T619 1755Q565 1699 513 1656T410 1579H207V1606Q233 1635 264 1673T328 1751T391 1832T443
1907H799Q820 1873 850 1833T912 1752T977 1673T1035 1606V1579H832Z" />
<glyph unicode="&#xcb;" glyph-name="Edieresis" horiz-adv-x="1147" d="M1026 0H184V1462H1026V1208H494V887H989V633H494V256H1026V0ZM273 1743Q273 1778 284 1803T313 1845T357 1870T412 1878Q441 1878 466 1870T511 1846T541 1804T553 1743Q553 1709 542 1684T511
1643T467 1618T412 1610Q383 1610 358 1618T314 1642T284 1684T273 1743ZM676 1743Q676 1778 687 1803T717 1845T762 1870T818 1878Q846 1878 871 1870T916 1846T947 1804T959 1743Q959 1709 948 1684T917 1643T872 1618T818 1610Q758 1610 717 1643T676 1743Z"
/>
<glyph unicode="&#xcc;" glyph-name="Igrave" horiz-adv-x="797" d="M731 0H66V176L244 258V1204L66 1286V1462H731V1286L553 1204V258L731 176V0ZM355 1579Q321 1607 274 1648T180 1734T96 1818T42 1886V1907H384Q400 1873 421 1833T466 1752T513 1673T558 1606V1579H355Z"
/>
<glyph unicode="&#xcd;" glyph-name="Iacute" horiz-adv-x="797" d="M731 0H66V176L244 258V1204L66 1286V1462H731V1286L553 1204V258L731 176V0ZM237 1579V1606Q258 1635 282 1673T329 1751T374 1832T411 1907H753V1886Q742 1868 721 1844T673 1791T615 1734T553
1676T492 1623T440 1579H237Z" />
<glyph unicode="&#xce;" glyph-name="Icircumflex" horiz-adv-x="797" d="M731 0H66V176L244 258V1204L66 1286V1462H731V1286L553 1204V258L731 176V0ZM609 1579Q558 1613 503 1656T396 1755Q342 1699 290 1656T187 1579H-16V1606Q10 1635 41 1673T105 1751T168
1832T220 1907H576Q597 1873 627 1833T689 1752T754 1673T812 1606V1579H609Z" />
<glyph unicode="&#xcf;" glyph-name="Idieresis" horiz-adv-x="797" d="M731 0H66V176L244 258V1204L66 1286V1462H731V1286L553 1204V258L731 176V0ZM54 1743Q54 1778 65 1803T94 1845T138 1870T193 1878Q222 1878 247 1870T292 1846T322 1804T334 1743Q334 1709
323 1684T292 1643T248 1618T193 1610Q164 1610 139 1618T95 1642T65 1684T54 1743ZM457 1743Q457 1778 468 1803T498 1845T543 1870T599 1878Q627 1878 652 1870T697 1846T728 1804T740 1743Q740 1709 729 1684T698 1643T653 1618T599 1610Q539 1610 498 1643T457
1743Z" />
<glyph unicode="&#xd0;" glyph-name="Eth" horiz-adv-x="1434" d="M47 850H184V1462H612Q773 1462 902 1416T1124 1280T1265 1055T1315 745Q1315 560 1265 421T1119 188T885 47T569 0H184V596H47V850ZM1001 737Q1001 859 977 947T906 1094T792 1180T637 1208H494V850H731V596H494V256H608Q804
256 902 376T1001 737Z" />
<glyph unicode="&#xd1;" glyph-name="Ntilde" horiz-adv-x="1604" d="M1419 0H1026L451 1106H442Q448 1029 452 953Q456 888 458 817T461 688V0H184V1462H575L1149 367H1155Q1152 443 1148 517Q1147 549 1146 582T1143 649T1142 714T1141 770V1462H1419V0ZM623
1684Q592 1684 574 1658T543 1577H394Q400 1657 420 1715T472 1811T549 1867T646 1886Q687 1886 726 1870T803 1835T879 1799T953 1782Q984 1782 1002 1808T1033 1888H1182Q1176 1809 1156 1751T1102 1655T1026 1598T930 1579Q890 1579 850 1595T772 1631T697 1667T623
1684Z" />
<glyph unicode="&#xd2;" glyph-name="Ograve" horiz-adv-x="1548" d="M1430 733Q1430 564 1391 425T1270 187T1066 34T774 -20Q606 -20 483 34T279 187T159 425T119 735Q119 905 158 1043T279 1280T483 1431T776 1485Q944 1485 1067 1432T1270 1280T1390 1043T1430
733ZM438 733Q438 618 458 527T519 372T624 274T774 240Q863 240 926 274T1030 371T1090 526T1110 733Q1110 848 1091 939T1031 1095T927 1193T776 1227Q689 1227 625 1193T520 1095T458 940T438 733ZM729 1579Q695 1607 648 1648T554 1734T470 1818T416 1886V1907H758Q774
1873 795 1833T840 1752T887 1673T932 1606V1579H729Z" />
<glyph unicode="&#xd3;" glyph-name="Oacute" horiz-adv-x="1548" d="M1430 733Q1430 564 1391 425T1270 187T1066 34T774 -20Q606 -20 483 34T279 187T159 425T119 735Q119 905 158 1043T279 1280T483 1431T776 1485Q944 1485 1067 1432T1270 1280T1390 1043T1430
733ZM438 733Q438 618 458 527T519 372T624 274T774 240Q863 240 926 274T1030 371T1090 526T1110 733Q1110 848 1091 939T1031 1095T927 1193T776 1227Q689 1227 625 1193T520 1095T458 940T438 733ZM590 1579V1606Q611 1635 635 1673T682 1751T727 1832T764 1907H1106V1886Q1095
1868 1074 1844T1026 1791T968 1734T906 1676T845 1623T793 1579H590Z" />
<glyph unicode="&#xd4;" glyph-name="Ocircumflex" horiz-adv-x="1548" d="M1430 733Q1430 564 1391 425T1270 187T1066 34T774 -20Q606 -20 483 34T279 187T159 425T119 735Q119 905 158 1043T279 1280T483 1431T776 1485Q944 1485 1067 1432T1270 1280T1390
1043T1430 733ZM438 733Q438 618 458 527T519 372T624 274T774 240Q863 240 926 274T1030 371T1090 526T1110 733Q1110 848 1091 939T1031 1095T927 1193T776 1227Q689 1227 625 1193T520 1095T458 940T438 733ZM975 1579Q924 1613 869 1656T762 1755Q708 1699
656 1656T553 1579H350V1606Q376 1635 407 1673T471 1751T534 1832T586 1907H942Q963 1873 993 1833T1055 1752T1120 1673T1178 1606V1579H975Z" />
<glyph unicode="&#xd5;" glyph-name="Otilde" horiz-adv-x="1548" d="M1430 733Q1430 564 1391 425T1270 187T1066 34T774 -20Q606 -20 483 34T279 187T159 425T119 735Q119 905 158 1043T279 1280T483 1431T776 1485Q944 1485 1067 1432T1270 1280T1390 1043T1430
733ZM438 733Q438 618 458 527T519 372T624 274T774 240Q863 240 926 274T1030 371T1090 526T1110 733Q1110 848 1091 939T1031 1095T927 1193T776 1227Q689 1227 625 1193T520 1095T458 940T438 733ZM612 1684Q581 1684 563 1658T532 1577H383Q389 1657 409 1715T461
1811T538 1867T635 1886Q676 1886 715 1870T792 1835T868 1799T942 1782Q973 1782 991 1808T1022 1888H1171Q1165 1809 1145 1751T1091 1655T1015 1598T919 1579Q879 1579 839 1595T761 1631T686 1667T612 1684Z" />
<glyph unicode="&#xd6;" glyph-name="Odieresis" horiz-adv-x="1548" d="M1430 733Q1430 564 1391 425T1270 187T1066 34T774 -20Q606 -20 483 34T279 187T159 425T119 735Q119 905 158 1043T279 1280T483 1431T776 1485Q944 1485 1067 1432T1270 1280T1390 1043T1430
733ZM438 733Q438 618 458 527T519 372T624 274T774 240Q863 240 926 274T1030 371T1090 526T1110 733Q1110 848 1091 939T1031 1095T927 1193T776 1227Q689 1227 625 1193T520 1095T458 940T438 733ZM428 1743Q428 1778 439 1803T468 1845T512 1870T567 1878Q596
1878 621 1870T666 1846T696 1804T708 1743Q708 1709 697 1684T666 1643T622 1618T567 1610Q538 1610 513 1618T469 1642T439 1684T428 1743ZM831 1743Q831 1778 842 1803T872 1845T917 1870T973 1878Q1001 1878 1026 1870T1071 1846T1102 1804T1114 1743Q1114
1709 1103 1684T1072 1643T1027 1618T973 1610Q913 1610 872 1643T831 1743Z" />
<glyph unicode="&#xd7;" glyph-name="multiply" horiz-adv-x="1128" d="M408 723L109 1024L260 1178L561 879L866 1178L1020 1028L715 723L1016 420L866 268L561 569L260 270L111 422L408 723Z" />
<glyph unicode="&#xd8;" glyph-name="Oslash" horiz-adv-x="1548" d="M1430 733Q1430 564 1391 425T1270 187T1066 34T774 -20Q595 -20 467 41L395 -76L227 18L309 152Q212 252 166 400T119 735Q119 905 158 1043T279 1280T483 1431T776 1485Q867 1485 944 1469T1087
1421L1157 1532L1323 1436L1243 1307Q1337 1208 1383 1063T1430 733ZM438 733Q438 553 485 438L942 1184Q873 1227 776 1227Q689 1227 625 1193T520 1095T458 940T438 733ZM1110 733Q1110 904 1067 1020L612 279Q646 260 686 250T774 240Q863 240 926 274T1030
371T1090 526T1110 733Z" />
<glyph unicode="&#xd9;" glyph-name="Ugrave" horiz-adv-x="1466" d="M1292 1462V516Q1292 402 1258 304T1153 134T976 21T727 -20Q592 -20 489 18T316 128T210 298T174 520V1462H483V543Q483 462 499 405T546 311T625 257T735 240Q866 240 924 316T983 545V1462H1292ZM706
1579Q672 1607 625 1648T531 1734T447 1818T393 1886V1907H735Q751 1873 772 1833T817 1752T864 1673T909 1606V1579H706Z" />
<glyph unicode="&#xda;" glyph-name="Uacute" horiz-adv-x="1466" d="M1292 1462V516Q1292 402 1258 304T1153 134T976 21T727 -20Q592 -20 489 18T316 128T210 298T174 520V1462H483V543Q483 462 499 405T546 311T625 257T735 240Q866 240 924 316T983 545V1462H1292ZM570
1579V1606Q591 1635 615 1673T662 1751T707 1832T744 1907H1086V1886Q1075 1868 1054 1844T1006 1791T948 1734T886 1676T825 1623T773 1579H570Z" />
<glyph unicode="&#xdb;" glyph-name="Ucircumflex" horiz-adv-x="1466" d="M1292 1462V516Q1292 402 1258 304T1153 134T976 21T727 -20Q592 -20 489 18T316 128T210 298T174 520V1462H483V543Q483 462 499 405T546 311T625 257T735 240Q866 240 924 316T983 545V1462H1292ZM942
1579Q891 1613 836 1656T729 1755Q675 1699 623 1656T520 1579H317V1606Q343 1635 374 1673T438 1751T501 1832T553 1907H909Q930 1873 960 1833T1022 1752T1087 1673T1145 1606V1579H942Z" />
<glyph unicode="&#xdc;" glyph-name="Udieresis" horiz-adv-x="1466" d="M1292 1462V516Q1292 402 1258 304T1153 134T976 21T727 -20Q592 -20 489 18T316 128T210 298T174 520V1462H483V543Q483 462 499 405T546 311T625 257T735 240Q866 240 924 316T983 545V1462H1292ZM393
1743Q393 1778 404 1803T433 1845T477 1870T532 1878Q561 1878 586 1870T631 1846T661 1804T673 1743Q673 1709 662 1684T631 1643T587 1618T532 1610Q503 1610 478 1618T434 1642T404 1684T393 1743ZM796 1743Q796 1778 807 1803T837 1845T882 1870T938 1878Q966
1878 991 1870T1036 1846T1067 1804T1079 1743Q1079 1709 1068 1684T1037 1643T992 1618T938 1610Q878 1610 837 1643T796 1743Z" />
<glyph unicode="&#xdd;" glyph-name="Yacute" horiz-adv-x="1196" d="M598 860L862 1462H1196L752 569V0H444V559L0 1462H336L598 860ZM422 1579V1606Q443 1635 467 1673T514 1751T559 1832T596 1907H938V1886Q927 1868 906 1844T858 1791T800 1734T738 1676T677
1623T625 1579H422Z" />
<glyph unicode="&#xde;" glyph-name="Thorn" horiz-adv-x="1225" d="M1133 770Q1133 676 1108 590T1024 438T870 333T633 293H494V0H184V1462H494V1233H655Q779 1233 869 1200T1017 1107T1104 961T1133 770ZM494 543H578Q699 543 759 595T819 770Q819 878 766
929T598 981H494V543Z" />
<glyph unicode="&#xdf;" glyph-name="germandbls" horiz-adv-x="1395" d="M1188 1241Q1188 1177 1167 1129T1114 1042T1045 975T976 922T923 877T901 834Q901 814 913 797T952 760T1020 715T1118 651Q1167 620 1205 588T1269 517T1309 432T1323 326Q1323 154 1206
67T862 -20Q764 -20 692 -6T559 43V285Q583 269 617 254T690 226T768 207T842 199Q922 199 966 229T1010 322Q1010 349 1003 370T976 412T918 457T821 516Q758 552 716 584T647 647T609 713T598 788Q598 841 618 880T670 950T737 1007T805 1059T856 1117T877 1188Q877
1251 827 1290T680 1329Q572 1329 519 1281T465 1128V0H160V1139Q160 1248 197 1328T302 1462T467 1541T680 1567Q795 1567 889 1546T1049 1483T1152 1380T1188 1241Z" />
<glyph unicode="&#xe0;" glyph-name="agrave" horiz-adv-x="1176" d="M809 0L750 152H741Q708 107 675 75T603 21T516 -10T403 -20Q335 -20 277 1T177 66T110 176T86 334Q86 512 200 596T541 690L719 696V780Q719 849 679 882T567 915Q495 915 427 894T289 838L190
1040Q274 1087 376 1114T590 1141Q799 1141 910 1043T1022 745V0H809ZM719 518L618 514Q557 512 515 498T448 461T411 405T399 332Q399 262 433 233T522 203Q564 203 600 217T662 260T704 330T719 426V518ZM808 1241Q774 1269 727 1310T633 1396T549 1480T495 1548V1569H837Q853
1535 874 1495T919 1414T966 1335T1011 1268V1241H808Z" />
<glyph unicode="&#xe1;" glyph-name="aacute" horiz-adv-x="1176" d="M809 0L750 152H741Q708 107 675 75T603 21T516 -10T403 -20Q335 -20 277 1T177 66T110 176T86 334Q86 512 200 596T541 690L719 696V780Q719 849 679 882T567 915Q495 915 427 894T289 838L190
1040Q274 1087 376 1114T590 1141Q799 1141 910 1043T1022 745V0H809ZM719 518L618 514Q557 512 515 498T448 461T411 405T399 332Q399 262 433 233T522 203Q564 203 600 217T662 260T704 330T719 426V518ZM441 1241V1268Q462 1297 486 1335T533 1413T578 1494T615
1569H957V1548Q946 1530 925 1506T877 1453T819 1396T757 1338T696 1285T644 1241H441Z" />
<glyph unicode="&#xe2;" glyph-name="acircumflex" horiz-adv-x="1176" d="M809 0L750 152H741Q708 107 675 75T603 21T516 -10T403 -20Q335 -20 277 1T177 66T110 176T86 334Q86 512 200 596T541 690L719 696V780Q719 849 679 882T567 915Q495 915 427 894T289
838L190 1040Q274 1087 376 1114T590 1141Q799 1141 910 1043T1022 745V0H809ZM719 518L618 514Q557 512 515 498T448 461T411 405T399 332Q399 262 433 233T522 203Q564 203 600 217T662 260T704 330T719 426V518ZM801 1496Q750 1530 695 1573T588 1672Q534 1616
482 1573T379 1496H176V1523Q202 1552 233 1590T297 1668T360 1749T412 1824H768Q789 1790 819 1750T881 1669T946 1590T1004 1523V1496H801Z" />
<glyph unicode="&#xe3;" glyph-name="atilde" horiz-adv-x="1176" d="M809 0L750 152H741Q708 107 675 75T603 21T516 -10T403 -20Q335 -20 277 1T177 66T110 176T86 334Q86 512 200 596T541 690L719 696V780Q719 849 679 882T567 915Q495 915 427 894T289 838L190
1040Q274 1087 376 1114T590 1141Q799 1141 910 1043T1022 745V0H809ZM719 518L618 514Q557 512 515 498T448 461T411 405T399 332Q399 262 433 233T522 203Q564 203 600 217T662 260T704 330T719 426V518ZM681 1346Q650 1346 632 1320T601 1239H452Q458 1319 478
1377T530 1473T607 1529T704 1548Q745 1548 784 1532T861 1497T937 1461T1011 1444Q1042 1444 1060 1470T1091 1550H1240Q1234 1471 1214 1413T1160 1317T1084 1260T988 1241Q948 1241 908 1257T830 1293T755 1329T681 1346Z" />
<glyph unicode="&#xe4;" glyph-name="adieresis" horiz-adv-x="1176" d="M809 0L750 152H741Q708 107 675 75T603 21T516 -10T403 -20Q335 -20 277 1T177 66T110 176T86 334Q86 512 200 596T541 690L719 696V780Q719 849 679 882T567 915Q495 915 427 894T289
838L190 1040Q274 1087 376 1114T590 1141Q799 1141 910 1043T1022 745V0H809ZM719 518L618 514Q557 512 515 498T448 461T411 405T399 332Q399 262 433 233T522 203Q564 203 600 217T662 260T704 330T719 426V518ZM254 1405Q254 1440 265 1465T294 1507T338 1532T393
1540Q422 1540 447 1532T492 1508T522 1466T534 1405Q534 1371 523 1346T492 1305T448 1280T393 1272Q364 1272 339 1280T295 1304T265 1346T254 1405ZM657 1405Q657 1440 668 1465T698 1507T743 1532T799 1540Q827 1540 852 1532T897 1508T928 1466T940 1405Q940
1371 929 1346T898 1305T853 1280T799 1272Q739 1272 698 1305T657 1405Z" />
<glyph unicode="&#xe5;" glyph-name="aring" horiz-adv-x="1176" d="M809 0L750 152H741Q708 107 675 75T603 21T516 -10T403 -20Q335 -20 277 1T177 66T110 176T86 334Q86 512 200 596T541 690L719 696V780Q719 849 679 882T567 915Q495 915 427 894T289 838L190
1040Q274 1087 376 1114T590 1141Q799 1141 910 1043T1022 745V0H809ZM719 518L618 514Q557 512 515 498T448 461T411 405T399 332Q399 262 433 233T522 203Q564 203 600 217T662 260T704 330T719 426V518ZM842 1479Q842 1423 823 1379T769 1303T688 1256T588 1239Q533
1239 487 1255T409 1302T358 1377T340 1477Q340 1532 358 1576T408 1650T487 1697T588 1714Q641 1714 687 1698T767 1651T822 1577T842 1479ZM684 1477Q684 1522 657 1547T588 1573Q546 1573 519 1548T492 1477Q492 1432 516 1406T588 1380Q630 1380 657 1406T684
1477Z" />
<glyph unicode="&#xe6;" glyph-name="ae" horiz-adv-x="1806" d="M1268 -20Q1137 -20 1030 30T854 186Q811 132 769 94T678 30T568 -8T424 -20Q356 -20 295 1T187 66T113 176T86 334Q86 512 200 596T541 690L719 696V780Q719 849 679 882T567 915Q495 915 427
894T289 838L190 1040Q274 1087 376 1114T590 1141Q804 1141 913 1010Q1039 1139 1227 1139Q1338 1139 1427 1106T1579 1007T1674 848T1708 631V483H1026Q1028 419 1046 368T1098 281T1179 226T1288 207Q1382 207 1469 228T1645 295V59Q1605 38 1565 24T1479 -1T1382
-15T1268 -20ZM719 518L618 514Q557 512 515 498T448 461T411 405T399 332Q399 262 433 233T522 203Q564 203 600 217T662 260T704 330T719 426V518ZM1229 922Q1147 922 1094 865T1032 686H1421Q1420 737 1408 780T1373 854T1313 904T1229 922Z" />
<glyph unicode="&#xe7;" glyph-name="ccedilla" horiz-adv-x="1022" d="M625 -20Q505 -20 409 13T244 115T139 293T102 553Q102 720 139 832T245 1013T410 1110T625 1139Q711 1139 796 1118T956 1059L868 827Q802 856 741 874T625 893Q514 893 464 809T414 555Q414
387 464 307T621 227Q708 227 779 249T924 307V53Q887 35 852 21T782 -2T708 -15T625 -20ZM778 -250Q778 -307 763 -352T711 -428T616 -475T469 -492Q424 -492 388 -486T323 -471V-303Q338 -307 356 -310T394 -317T432 -322T466 -324Q495 -324 516 -311T538 -262Q538
-225 501 -197T372 -154L450 0H643L616 -61Q647 -71 676 -88T727 -128T764 -182T778 -250Z" />
<glyph unicode="&#xe8;" glyph-name="egrave" horiz-adv-x="1190" d="M612 922Q531 922 478 865T416 686H805Q804 737 792 780T756 854T696 904T612 922ZM651 -20Q531 -20 430 15T256 120T143 298T102 551Q102 698 139 808T242 991T402 1102T610 1139Q721 1139
810 1106T962 1007T1058 848T1092 631V483H410Q412 419 430 368T482 281T563 226T672 207Q723 207 768 212T857 229T942 256T1028 295V59Q988 38 948 24T862 -1T765 -15T651 -20ZM834 1241Q800 1269 753 1310T659 1396T575 1480T521 1548V1569H863Q879 1535 900
1495T945 1414T992 1335T1037 1268V1241H834Z" />
<glyph unicode="&#xe9;" glyph-name="eacute" horiz-adv-x="1190" d="M612 922Q531 922 478 865T416 686H805Q804 737 792 780T756 854T696 904T612 922ZM651 -20Q531 -20 430 15T256 120T143 298T102 551Q102 698 139 808T242 991T402 1102T610 1139Q721 1139
810 1106T962 1007T1058 848T1092 631V483H410Q412 419 430 368T482 281T563 226T672 207Q723 207 768 212T857 229T942 256T1028 295V59Q988 38 948 24T862 -1T765 -15T651 -20ZM447 1241V1268Q468 1297 492 1335T539 1413T584 1494T621 1569H963V1548Q952 1530
931 1506T883 1453T825 1396T763 1338T702 1285T650 1241H447Z" />
<glyph unicode="&#xea;" glyph-name="ecircumflex" horiz-adv-x="1190" d="M612 922Q531 922 478 865T416 686H805Q804 737 792 780T756 854T696 904T612 922ZM651 -20Q531 -20 430 15T256 120T143 298T102 551Q102 698 139 808T242 991T402 1102T610 1139Q721
1139 810 1106T962 1007T1058 848T1092 631V483H410Q412 419 430 368T482 281T563 226T672 207Q723 207 768 212T857 229T942 256T1028 295V59Q988 38 948 24T862 -1T765 -15T651 -20ZM819 1241Q768 1275 713 1318T606 1417Q552 1361 500 1318T397 1241H194V1268Q220
1297 251 1335T315 1413T378 1494T430 1569H786Q807 1535 837 1495T899 1414T964 1335T1022 1268V1241H819Z" />
<glyph unicode="&#xeb;" glyph-name="edieresis" horiz-adv-x="1190" d="M612 922Q531 922 478 865T416 686H805Q804 737 792 780T756 854T696 904T612 922ZM651 -20Q531 -20 430 15T256 120T143 298T102 551Q102 698 139 808T242 991T402 1102T610 1139Q721 1139
810 1106T962 1007T1058 848T1092 631V483H410Q412 419 430 368T482 281T563 226T672 207Q723 207 768 212T857 229T942 256T1028 295V59Q988 38 948 24T862 -1T765 -15T651 -20ZM266 1405Q266 1440 277 1465T306 1507T350 1532T405 1540Q434 1540 459 1532T504
1508T534 1466T546 1405Q546 1371 535 1346T504 1305T460 1280T405 1272Q376 1272 351 1280T307 1304T277 1346T266 1405ZM669 1405Q669 1440 680 1465T710 1507T755 1532T811 1540Q839 1540 864 1532T909 1508T940 1466T952 1405Q952 1371 941 1346T910 1305T865
1280T811 1272Q751 1272 710 1305T669 1405Z" />
<glyph unicode="&#xec;" glyph-name="igrave" horiz-adv-x="625" d="M465 0H160V1118H465V0ZM269 1241Q235 1269 188 1310T94 1396T10 1480T-44 1548V1569H298Q314 1535 335 1495T380 1414T427 1335T472 1268V1241H269Z" />
<glyph unicode="&#xed;" glyph-name="iacute" horiz-adv-x="625" d="M465 0H160V1118H465V0ZM145 1241V1268Q166 1297 190 1335T237 1413T282 1494T319 1569H661V1548Q650 1530 629 1506T581 1453T523 1396T461 1338T400 1285T348 1241H145Z" />
<glyph unicode="&#xee;" glyph-name="icircumflex" horiz-adv-x="625" d="M465 0H160V1118H465V0ZM521 1241Q470 1275 415 1318T308 1417Q254 1361 202 1318T99 1241H-104V1268Q-78 1297 -47 1335T17 1413T80 1494T132 1569H488Q509 1535 539 1495T601 1414T666
1335T724 1268V1241H521Z" />
<glyph unicode="&#xef;" glyph-name="idieresis" horiz-adv-x="625" d="M465 0H160V1118H465V0ZM-32 1405Q-32 1440 -21 1465T8 1507T52 1532T107 1540Q136 1540 161 1532T206 1508T236 1466T248 1405Q248 1371 237 1346T206 1305T162 1280T107 1272Q78 1272 53
1280T9 1304T-21 1346T-32 1405ZM371 1405Q371 1440 382 1465T412 1507T457 1532T513 1540Q541 1540 566 1532T611 1508T642 1466T654 1405Q654 1371 643 1346T612 1305T567 1280T513 1272Q453 1272 412 1305T371 1405Z" />
<glyph unicode="&#xf0;" glyph-name="eth" horiz-adv-x="1182" d="M457 1309Q423 1330 384 1354T303 1401L399 1571Q472 1537 536 1503T657 1430L883 1569L983 1415L809 1309Q881 1240 935 1162T1024 993T1078 798T1096 573Q1096 431 1060 321T957 135T795 20T582
-20Q471 -20 378 14T218 113T112 272T74 489Q74 611 106 705T197 863T337 961T516 995Q612 995 680 964T780 883L801 885Q773 973 723 1050T606 1184L375 1040L274 1196L457 1309ZM784 532Q784 579 773 622T737 698T675 750T586 770Q478 770 432 700T385 487Q385
424 396 372T432 283T495 226T586 205Q692 205 738 286T784 532Z" />
<glyph unicode="&#xf1;" glyph-name="ntilde" horiz-adv-x="1284" d="M1130 0H825V653Q825 774 789 834T672 895Q612 895 572 871T509 800T475 684T465 526V0H160V1118H393L434 975H451Q475 1018 509 1049T585 1100T672 1129T766 1139Q848 1139 915 1116T1030
1042T1104 915T1130 729V0ZM477 1346Q446 1346 428 1320T397 1239H248Q254 1319 274 1377T326 1473T403 1529T500 1548Q541 1548 580 1532T657 1497T733 1461T807 1444Q838 1444 856 1470T887 1550H1036Q1030 1471 1010 1413T956 1317T880 1260T784 1241Q744 1241
704 1257T626 1293T551 1329T477 1346Z" />
<glyph unicode="&#xf2;" glyph-name="ograve" horiz-adv-x="1227" d="M414 561Q414 394 461 310T614 225Q719 225 766 310T813 561Q813 728 766 810T612 893Q507 893 461 811T414 561ZM1124 561Q1124 421 1089 313T987 131T825 19T610 -20Q499 -20 406 18T246
131T140 313T102 561Q102 700 137 808T239 989T401 1101T616 1139Q727 1139 820 1101T980 990T1086 808T1124 561ZM841 1241Q807 1269 760 1310T666 1396T582 1480T528 1548V1569H870Q886 1535 907 1495T952 1414T999 1335T1044 1268V1241H841Z" />
<glyph unicode="&#xf3;" glyph-name="oacute" horiz-adv-x="1227" d="M414 561Q414 394 461 310T614 225Q719 225 766 310T813 561Q813 728 766 810T612 893Q507 893 461 811T414 561ZM1124 561Q1124 421 1089 313T987 131T825 19T610 -20Q499 -20 406 18T246
131T140 313T102 561Q102 700 137 808T239 989T401 1101T616 1139Q727 1139 820 1101T980 990T1086 808T1124 561ZM434 1241V1268Q455 1297 479 1335T526 1413T571 1494T608 1569H950V1548Q939 1530 918 1506T870 1453T812 1396T750 1338T689 1285T637 1241H434Z"
/>
<glyph unicode="&#xf4;" glyph-name="ocircumflex" horiz-adv-x="1227" d="M414 561Q414 394 461 310T614 225Q719 225 766 310T813 561Q813 728 766 810T612 893Q507 893 461 811T414 561ZM1124 561Q1124 421 1089 313T987 131T825 19T610 -20Q499 -20 406 18T246
131T140 313T102 561Q102 700 137 808T239 989T401 1101T616 1139Q727 1139 820 1101T980 990T1086 808T1124 561ZM821 1241Q770 1275 715 1318T608 1417Q554 1361 502 1318T399 1241H196V1268Q222 1297 253 1335T317 1413T380 1494T432 1569H788Q809 1535 839
1495T901 1414T966 1335T1024 1268V1241H821Z" />
<glyph unicode="&#xf5;" glyph-name="otilde" horiz-adv-x="1227" d="M414 561Q414 394 461 310T614 225Q719 225 766 310T813 561Q813 728 766 810T612 893Q507 893 461 811T414 561ZM1124 561Q1124 421 1089 313T987 131T825 19T610 -20Q499 -20 406 18T246
131T140 313T102 561Q102 700 137 808T239 989T401 1101T616 1139Q727 1139 820 1101T980 990T1086 808T1124 561ZM444 1346Q413 1346 395 1320T364 1239H215Q221 1319 241 1377T293 1473T370 1529T467 1548Q508 1548 547 1532T624 1497T700 1461T774 1444Q805
1444 823 1470T854 1550H1003Q997 1471 977 1413T923 1317T847 1260T751 1241Q711 1241 671 1257T593 1293T518 1329T444 1346Z" />
<glyph unicode="&#xf6;" glyph-name="odieresis" horiz-adv-x="1227" d="M414 561Q414 394 461 310T614 225Q719 225 766 310T813 561Q813 728 766 810T612 893Q507 893 461 811T414 561ZM1124 561Q1124 421 1089 313T987 131T825 19T610 -20Q499 -20 406 18T246
131T140 313T102 561Q102 700 137 808T239 989T401 1101T616 1139Q727 1139 820 1101T980 990T1086 808T1124 561ZM266 1405Q266 1440 277 1465T306 1507T350 1532T405 1540Q434 1540 459 1532T504 1508T534 1466T546 1405Q546 1371 535 1346T504 1305T460 1280T405
1272Q376 1272 351 1280T307 1304T277 1346T266 1405ZM669 1405Q669 1440 680 1465T710 1507T755 1532T811 1540Q839 1540 864 1532T909 1508T940 1466T952 1405Q952 1371 941 1346T910 1305T865 1280T811 1272Q751 1272 710 1305T669 1405Z" />
<glyph unicode="&#xf7;" glyph-name="divide" horiz-adv-x="1128" d="M88 612V831H1040V612H88ZM424 373Q424 415 435 444T465 490T509 516T563 524Q591 524 616 516T660 491T690 444T702 373Q702 333 691 304T660 257T616 230T563 221Q535 221 510 229T465 256T435
304T424 373ZM424 1071Q424 1113 435 1142T465 1189T509 1215T563 1223Q591 1223 616 1215T660 1189T690 1142T702 1071Q702 1031 691 1003T660 956T616 929T563 920Q535 920 510 928T465 955T435 1002T424 1071Z" />
<glyph unicode="&#xf8;" glyph-name="oslash" horiz-adv-x="1227" d="M1124 561Q1124 421 1089 313T987 131T825 19T610 -20Q553 -20 501 -10T401 18L344 -76L182 14L250 125Q181 199 142 308T102 561Q102 700 137 808T239 989T401 1101T616 1139Q678 1139 735
1126T844 1090L893 1169L1053 1073L991 975Q1054 903 1089 799T1124 561ZM414 561Q414 475 426 410L709 868Q669 893 612 893Q507 893 461 811T414 561ZM813 561Q813 625 807 674L539 240Q556 232 574 229T614 225Q719 225 766 310T813 561Z" />
<glyph unicode="&#xf9;" glyph-name="ugrave" horiz-adv-x="1284" d="M891 0L850 143H834Q809 100 775 70T699 19T612 -10T518 -20Q436 -20 369 3T254 77T180 204T154 389V1118H459V465Q459 344 495 284T612 223Q672 223 712 247T775 318T809 434T819 592V1118H1124V0H891ZM839
1241Q805 1269 758 1310T664 1396T580 1480T526 1548V1569H868Q884 1535 905 1495T950 1414T997 1335T1042 1268V1241H839Z" />
<glyph unicode="&#xfa;" glyph-name="uacute" horiz-adv-x="1284" d="M891 0L850 143H834Q809 100 775 70T699 19T612 -10T518 -20Q436 -20 369 3T254 77T180 204T154 389V1118H459V465Q459 344 495 284T612 223Q672 223 712 247T775 318T809 434T819 592V1118H1124V0H891ZM461
1241V1268Q482 1297 506 1335T553 1413T598 1494T635 1569H977V1548Q966 1530 945 1506T897 1453T839 1396T777 1338T716 1285T664 1241H461Z" />
<glyph unicode="&#xfb;" glyph-name="ucircumflex" horiz-adv-x="1284" d="M891 0L850 143H834Q809 100 775 70T699 19T612 -10T518 -20Q436 -20 369 3T254 77T180 204T154 389V1118H459V465Q459 344 495 284T612 223Q672 223 712 247T775 318T809 434T819 592V1118H1124V0H891ZM842
1241Q791 1275 736 1318T629 1417Q575 1361 523 1318T420 1241H217V1268Q243 1297 274 1335T338 1413T401 1494T453 1569H809Q830 1535 860 1495T922 1414T987 1335T1045 1268V1241H842Z" />
<glyph unicode="&#xfc;" glyph-name="udieresis" horiz-adv-x="1284" d="M891 0L850 143H834Q809 100 775 70T699 19T612 -10T518 -20Q436 -20 369 3T254 77T180 204T154 389V1118H459V465Q459 344 495 284T612 223Q672 223 712 247T775 318T809 434T819 592V1118H1124V0H891ZM295
1405Q295 1440 306 1465T335 1507T379 1532T434 1540Q463 1540 488 1532T533 1508T563 1466T575 1405Q575 1371 564 1346T533 1305T489 1280T434 1272Q405 1272 380 1280T336 1304T306 1346T295 1405ZM698 1405Q698 1440 709 1465T739 1507T784 1532T840 1540Q868
1540 893 1532T938 1508T969 1466T981 1405Q981 1371 970 1346T939 1305T894 1280T840 1272Q780 1272 739 1305T698 1405Z" />
<glyph unicode="&#xfd;" glyph-name="yacute" horiz-adv-x="1104" d="M0 1118H334L514 489Q530 437 537 378T547 272H553Q555 295 558 323T567 380T578 437T592 489L768 1118H1104L662 -143Q600 -320 493 -406T225 -492Q173 -492 135 -487T70 -475V-233Q91 -238
123 -242T190 -246Q238 -246 272 -233T330 -197T372 -140T403 -66L422 -10L0 1118ZM393 1241V1268Q414 1297 438 1335T485 1413T530 1494T567 1569H909V1548Q898 1530 877 1506T829 1453T771 1396T709 1338T648 1285T596 1241H393Z" />
<glyph unicode="&#xfe;" glyph-name="thorn" horiz-adv-x="1245" d="M465 973Q485 1008 512 1038T576 1090T656 1126T756 1139Q842 1139 913 1102T1035 992T1114 811T1143 561Q1143 418 1115 310T1036 128T914 17T756 -20Q701 -20 656 -10T576 20T513 64T465 117H451Q454
85 458 55Q461 29 463 3T465 -39V-492H160V1556H465V1165Q465 1141 463 1108T458 1045Q454 1010 451 973H465ZM653 895Q602 895 567 877T509 821T477 728T465 596V563Q465 482 474 419T506 314T564 249T655 227Q746 227 788 313T831 565Q831 730 789 812T653 895Z"
/>
<glyph unicode="&#xff;" glyph-name="ydieresis" horiz-adv-x="1104" d="M0 1118H334L514 489Q530 437 537 378T547 272H553Q555 295 558 323T567 380T578 437T592 489L768 1118H1104L662 -143Q600 -320 493 -406T225 -492Q173 -492 135 -487T70 -475V-233Q91
-238 123 -242T190 -246Q238 -246 272 -233T330 -197T372 -140T403 -66L422 -10L0 1118ZM466 1405Q466 1440 477 1465T506 1507T550 1532T605 1540Q634 1540 659 1532T704 1508T734 1466T746 1405Q746 1371 735 1346T704 1305T660 1280T605 1272Q576 1272 551 1280T507
1304T477 1346T466 1405ZM869 1405Q869 1440 880 1465T910 1507T955 1532T1011 1540Q1039 1540 1064 1532T1109 1508T1140 1466T1152 1405Q1152 1371 1141 1346T1110 1305T1065 1280T1011 1272Q951 1272 910 1305T869 1405Z" />
<glyph unicode="&#x2013;" glyph-name="endash" horiz-adv-x="1024" d="M82 436V666H942V436H82Z" />
<glyph unicode="&#x2014;" glyph-name="emdash" horiz-adv-x="2048" d="M82 436V666H1966V436H82Z" />
<glyph unicode="&#x2018;" glyph-name="quoteleft" horiz-adv-x="440" d="M37 961L23 983Q37 1037 56 1098T99 1221T148 1344T199 1462H418Q403 1401 389 1335T361 1204T336 1076T317 961H37Z" />
<glyph unicode="&#x2019;" glyph-name="quoteright" horiz-adv-x="440" d="M403 1462L418 1440Q404 1385 385 1325T342 1202T293 1078T242 961H23Q37 1021 51 1087T79 1219T104 1347T123 1462H403Z" />
<glyph unicode="&#x201a;" glyph-name="quotesinglbase" horiz-adv-x="594" d="M459 215Q445 161 426 100T383 -23T334 -146T283 -264H63Q78 -203 92 -137T120 -6T145 122T164 238H444L459 215Z" />
<glyph unicode="&#x201c;" glyph-name="quotedblleft" horiz-adv-x="907" d="M489 983Q503 1037 523 1098T566 1221T615 1344T666 1462H885Q870 1401 856 1335T828 1204T803 1076T784 961H504L489 983ZM23 983Q37 1037 56 1098T99 1221T148 1344T199 1462H418Q403
1401 389 1335T361 1204T336 1076T317 961H37L23 983Z" />
<glyph unicode="&#x201d;" glyph-name="quotedblright" horiz-adv-x="907" d="M418 1440Q404 1385 385 1325T342 1202T293 1078T242 961H23Q37 1021 51 1087T79 1219T104 1347T123 1462H403L418 1440ZM885 1440Q871 1385 852 1325T809 1202T760 1078T709 961H489Q504
1021 518 1087T546 1219T571 1347T590 1462H870L885 1440Z" />
<glyph unicode="&#x201e;" glyph-name="quotedblbase" horiz-adv-x="1061" d="M459 215Q445 161 426 100T383 -23T334 -146T283 -264H63Q78 -203 92 -137T120 -6T145 122T164 238H444L459 215ZM926 215Q912 161 893 100T850 -23T801 -146T750 -264H530Q545 -203
559 -137T587 -6T612 122T631 238H911L926 215Z" />
<glyph unicode="&#x2022;" glyph-name="bullet" horiz-adv-x="770" d="M98 748Q98 834 120 894T180 992T271 1047T385 1065Q444 1065 496 1048T588 992T649 894T672 748Q672 663 650 603T588 505T497 448T385 430Q324 430 272 448T181 504T120 603T98 748Z" />
<glyph unicode="&#x2039;" glyph-name="guilsinglleft" horiz-adv-x="692" d="M82 573L391 1028L610 909L393 561L610 213L391 94L82 547V573Z" />
<glyph unicode="&#x203a;" glyph-name="guilsinglright" horiz-adv-x="692" d="M610 547L301 94L82 213L299 561L82 909L301 1028L610 573V547Z" />
</font>
</defs>
</svg>
