<?xml version="1.0" encoding="UTF-8" standalone="no"?>
<!-- Created with Inkscape (http://www.inkscape.org/) -->

<svg
   xmlns:dc="http://purl.org/dc/elements/1.1/"
   xmlns:cc="http://creativecommons.org/ns#"
   xmlns:rdf="http://www.w3.org/1999/02/22-rdf-syntax-ns#"
   xmlns:svg="http://www.w3.org/2000/svg"
   xmlns="http://www.w3.org/2000/svg"
   xmlns:sodipodi="http://sodipodi.sourceforge.net/DTD/sodipodi-0.dtd"
   xmlns:inkscape="http://www.inkscape.org/namespaces/inkscape"
   width="738.63452"
   height="126.65"
   id="svg2"
   version="1.1"
   inkscape:version="0.48.4 r9939"
   sodipodi:docname="name_white.svg"
   inkscape:export-filename="/home/thockin/src/kubernetes/kubernetes.png"
   inkscape:export-xdpi="250.55"
   inkscape:export-ydpi="250.55">
  <defs
     id="defs4" />
  <sodipodi:namedview
     id="base"
     pagecolor="#ffffff"
     bordercolor="#666666"
     borderopacity="1.0"
     inkscape:pageopacity="0.0"
     inkscape:pageshadow="2"
     inkscape:zoom="0.75130096"
     inkscape:cx="306.01712"
     inkscape:cy="-127.6824"
     inkscape:document-units="px"
     inkscape:current-layer="text4373"
     showgrid="false"
     inkscape:window-width="1519"
     inkscape:window-height="822"
     inkscape:window-x="73"
     inkscape:window-y="25"
     inkscape:window-maximized="0"
     inkscape:snap-global="false"
     fit-margin-top="10"
     fit-margin-left="10"
     fit-margin-right="10"
     fit-margin-bottom="10" />
  <metadata
     id="metadata7">
    <rdf:RDF>
      <cc:Work
         rdf:about="">
        <dc:format>image/svg+xml</dc:format>
        <dc:type
           rdf:resource="http://purl.org/dc/dcmitype/StillImage" />
        <dc:title />
      </cc:Work>
    </rdf:RDF>
  </metadata>
  <g
     inkscape:label="Layer 1"
     inkscape:groupmode="layer"
     id="layer1"
     transform="translate(-6.1051208,-305.36552)">
    <g
       style="font-size:40px;font-style:normal;font-weight:normal;line-height:125%;letter-spacing:0px;word-spacing:0px;fill:#ffffff;fill-opacity:1;stroke:none;font-family:Sans"
       id="text4373">
      <path
         d="m 36.220121,374.76552 c 1.979968,-2.15995 4.004966,-4.40995 6.075,-6.75 2.159962,-2.33995 4.22996,-4.63494 6.21,-6.885 1.979956,-2.33994 3.824954,-4.54494 5.535,-6.615 1.799951,-2.06993 3.329949,-3.86993 4.59,-5.4 l 23.895,0 c -4.770071,5.49006 -9.450067,10.75506 -14.04,15.795 -4.500057,4.95005 -9.450053,10.08004 -14.85,15.39 2.69995,2.43004 5.489947,5.35503 8.37,8.775 2.879942,3.33003 5.669939,6.79502 8.37,10.395 2.699933,3.60002 5.174931,7.20001 7.425,10.8 2.249926,3.60001 4.139925,6.885 5.67,9.855 l -23.085,0 c -1.440052,-2.34 -3.105051,-4.905 -4.995,-7.695 -1.800047,-2.87999 -3.735045,-5.71499 -5.805,-8.505 -2.070041,-2.87998 -4.275039,-5.62498 -6.615,-8.235 -2.250034,-2.60997 -4.500032,-4.81497 -6.75,-6.615 l 0,31.05 -20.115,0 0,-101.52 20.115,-3.24 0,59.4"
         style="font-size:135px;font-variant:normal;font-weight:bold;font-stretch:normal;fill:#ffffff;font-family:Ubuntu;-inkscape-font-specification:Ubuntu Bold"
         id="path2985" />
      <path
         d="m 153.44864,417.69552 c -3.42007,0.99 -7.83007,1.89 -13.23,2.7 -5.40005,0.9 -11.07005,1.35 -17.01,1.35 -6.03004,0 -11.07003,-0.81 -15.12,-2.43 -3.96002,-1.62 -7.11002,-3.87 -9.450004,-6.75 -2.340012,-2.96999 -4.005011,-6.47999 -4.995,-10.53 -0.990009,-4.04998 -1.485008,-8.50497 -1.485,-13.365 l 0,-39.555 20.115004,0 0,37.125 c -3e-5,6.48003 0.85497,11.16002 2.565,14.04 1.70996,2.88002 4.90496,4.32001 9.585,4.32 1.43995,10e-6 2.96995,-0.045 4.59,-0.135 1.61995,-0.17999 3.05995,-0.35999 4.32,-0.54 l 0,-54.81 20.115,0 0,68.58"
         style="font-size:135px;font-variant:normal;font-weight:bold;font-stretch:normal;fill:#ffffff;font-family:Ubuntu;-inkscape-font-specification:Ubuntu Bold"
         id="path2987" />
      <path
         d="m 217.95754,384.08052 c -5e-5,-12.95995 -4.77005,-19.43995 -14.31,-19.44 -2.07004,5e-5 -4.14003,0.27005 -6.21,0.81 -1.98003,0.54005 -3.60003,1.21505 -4.86,2.025 l 0,36.585 c 0.98997,0.18001 2.24997,0.36001 3.78,0.54 1.52997,0.09 3.19497,0.13501 4.995,0.135 5.48996,10e-6 9.62995,-1.88998 12.42,-5.67 2.78995,-3.77998 4.18495,-8.77497 4.185,-14.985 m 20.52,0.54 c -7e-5,5.67003 -0.85507,10.80002 -2.565,15.39 -1.62007,4.59001 -4.00507,8.50501 -7.155,11.745 -3.15006,3.24 -7.02006,5.76 -11.61,7.56 -4.59005,1.71 -9.81004,2.565 -15.66,2.565 -2.43003,0 -4.99503,-0.135 -7.695,-0.405 -2.61003,-0.18 -5.22002,-0.45 -7.83,-0.81 -2.52002,-0.36 -4.95002,-0.765 -7.29,-1.215 -2.34001,-0.54 -4.41001,-1.08 -6.21,-1.62 l 0,-99.225 20.115,-3.24 0,35.37 c 2.24997,-0.98993 4.58997,-1.75493 7.02,-2.295 2.42996,-0.53993 5.03996,-0.80993 7.83,-0.81 5.03995,7e-5 9.49495,0.90007 13.365,2.7 3.86994,1.71007 7.10994,4.18506 9.72,7.425 2.60993,3.24006 4.58993,7.15505 5.94,11.745 1.34993,4.50004 2.02493,9.54004 2.025,15.12"
         style="font-size:135px;font-variant:normal;font-weight:bold;font-stretch:normal;fill:#ffffff;font-family:Ubuntu;-inkscape-font-specification:Ubuntu Bold"
         id="path2989" />
      <path
         d="m 250.56215,385.16052 c 0,-6.29996 0.945,-11.78995 2.835,-16.47 1.97999,-4.76994 4.54499,-8.72994 7.695,-11.88 3.14998,-3.14993 6.74998,-5.53493 10.8,-7.155 4.13997,-1.61993 8.36997,-2.42993 12.69,-2.43 10.07995,7e-5 18.04494,3.10507 23.895,9.315 5.84993,6.12006 8.77493,15.16505 8.775,27.135 -7e-5,1.17003 -0.0451,2.47503 -0.135,3.915 -0.0901,1.35003 -0.18007,2.56503 -0.27,3.645 l -45.63,0 c 0.44997,4.14002 2.38497,7.42502 5.805,9.855 3.41997,2.43002 8.00996,3.64501 13.77,3.645 3.68995,10e-6 7.28995,-0.31499 10.8,-0.945 3.59994,-0.71998 6.52494,-1.57498 8.775,-2.565 l 2.7,16.335 c -1.08007,0.54 -2.52006,1.08 -4.32,1.62 -1.80006,0.54 -3.82506,0.99 -6.075,1.35 -2.16005,0.45 -4.50005,0.81 -7.02,1.08 -2.52005,0.27 -5.04004,0.405 -7.56,0.405 -6.39004,0 -11.97003,-0.945 -16.74,-2.835 -4.68002,-1.89 -8.59502,-4.455 -11.745,-7.695 -3.06001,-3.32999 -5.35501,-7.24499 -6.885,-11.745 -1.44,-4.49998 -2.16,-9.35997 -2.16,-14.58 m 47.25,-7.695 c -0.09,-1.70996 -0.40505,-3.37496 -0.945,-4.995 -0.45005,-1.61995 -1.21505,-3.05995 -2.295,-4.32 -0.99005,-1.25995 -2.29505,-2.29495 -3.915,-3.105 -1.53004,-0.80995 -3.46504,-1.21494 -5.805,-1.215 -2.25004,6e-5 -4.18503,0.40505 -5.805,1.215 -1.62003,0.72005 -2.97003,1.71005 -4.05,2.97 -1.08003,1.26005 -1.93503,2.74505 -2.565,4.455 -0.54003,1.62004 -0.94502,3.28504 -1.215,4.995 l 26.595,0"
         style="font-size:135px;font-variant:normal;font-weight:bold;font-stretch:normal;fill:#ffffff;font-family:Ubuntu;-inkscape-font-specification:Ubuntu Bold"
         id="path2991" />
      <path
         d="m 375.57004,366.93552 c -1.80005,-0.44995 -3.91505,-0.89995 -6.345,-1.35 -2.43004,-0.53995 -5.04004,-0.80995 -7.83,-0.81 -1.26003,5e-5 -2.79003,0.13505 -4.59,0.405 -1.71003,0.18005 -3.01503,0.40505 -3.915,0.675 l 0,54.27 -20.115,0 0,-67.23 c 3.59999,-1.25993 7.82999,-2.42993 12.69,-3.51 4.94998,-1.16993 10.43997,-1.75493 16.47,-1.755 1.07996,7e-5 2.38496,0.0901 3.915,0.27 1.52996,0.0901 3.05996,0.27007 4.59,0.54 1.52995,0.18007 3.05995,0.45007 4.59,0.81 1.52995,0.27007 2.83495,0.63007 3.915,1.08 l -3.375,16.605"
         style="font-size:135px;font-variant:normal;font-weight:bold;font-stretch:normal;fill:#ffffff;font-family:Ubuntu;-inkscape-font-specification:Ubuntu Bold"
         id="path2993" />
      <path
         d="m 389.72817,351.54552 c 3.41998,-0.98993 7.82998,-1.88993 13.23,-2.7 5.39997,-0.89993 11.06996,-1.34993 17.01,-1.35 6.02995,7e-5 11.02495,0.81007 14.985,2.43 4.04994,1.53007 7.24494,3.73507 9.585,6.615 2.33993,2.88006 4.00493,6.30006 4.995,10.26 0.98993,3.96005 1.48493,8.37004 1.485,13.23 l 0,40.095 -20.115,0 0,-37.665 c -5e-5,-6.47996 -0.85505,-11.06995 -2.565,-13.77 -1.71005,-2.69995 -4.90505,-4.04995 -9.585,-4.05 -1.44004,5e-5 -2.97004,0.0901 -4.59,0.27 -1.62003,0.09 -3.06003,0.22505 -4.32,0.405 l 0,54.81 -20.115,0 0,-68.58"
         style="font-size:135px;font-variant:normal;font-weight:bold;font-stretch:normal;fill:#ffffff;font-family:Ubuntu;-inkscape-font-specification:Ubuntu Bold"
         id="path2995" />
      <path
         d="m 465.98207,385.16052 c 0,-6.29996 0.945,-11.78995 2.835,-16.47 1.97999,-4.76994 4.54499,-8.72994 7.695,-11.88 3.14998,-3.14993 6.74998,-5.53493 10.8,-7.155 4.13997,-1.61993 8.36997,-2.42993 12.69,-2.43 10.07995,7e-5 18.04495,3.10507 23.895,9.315 5.84993,6.12006 8.77493,15.16505 8.775,27.135 -7e-5,1.17003 -0.0451,2.47503 -0.135,3.915 -0.0901,1.35003 -0.18007,2.56503 -0.27,3.645 l -45.63,0 c 0.44998,4.14002 2.38497,7.42502 5.805,9.855 3.41997,2.43002 8.00996,3.64501 13.77,3.645 3.68995,10e-6 7.28995,-0.31499 10.8,-0.945 3.59994,-0.71998 6.52494,-1.57498 8.775,-2.565 l 2.7,16.335 c -1.08006,0.54 -2.52006,1.08 -4.32,1.62 -1.80006,0.54 -3.82506,0.99 -6.075,1.35 -2.16005,0.45 -4.50005,0.81 -7.02,1.08 -2.52004,0.27 -5.04004,0.405 -7.56,0.405 -6.39003,0 -11.97003,-0.945 -16.74,-2.835 -4.68002,-1.89 -8.59501,-4.455 -11.745,-7.695 -3.06001,-3.32999 -5.35501,-7.24499 -6.885,-11.745 -1.44,-4.49998 -2.16,-9.35997 -2.16,-14.58 m 47.25,-7.695 c -0.0901,-1.70996 -0.40505,-3.37496 -0.945,-4.995 -0.45005,-1.61995 -1.21505,-3.05995 -2.295,-4.32 -0.99005,-1.25995 -2.29504,-2.29495 -3.915,-3.105 -1.53004,-0.80995 -3.46504,-1.21494 -5.805,-1.215 -2.25003,6e-5 -4.18503,0.40505 -5.805,1.215 -1.62003,0.72005 -2.97003,1.71005 -4.05,2.97 -1.08003,1.26005 -1.93502,2.74505 -2.565,4.455 -0.54002,1.62004 -0.94502,3.28504 -1.215,4.995 l 26.595,0"
         style="font-size:135px;font-variant:normal;font-weight:bold;font-stretch:normal;fill:#ffffff;font-family:Ubuntu;-inkscape-font-specification:Ubuntu Bold"
         id="path2997" />
      <path
         d="m 547.51996,331.43052 20.115,-3.24 0,20.925 24.165,0 0,16.74 -24.165,0 0,24.975 c -2e-5,4.23002 0.71997,7.60502 2.16,10.125 1.52997,2.52002 4.54497,3.78001 9.045,3.78 2.15996,10e-6 4.36496,-0.17999 6.615,-0.54 2.33996,-0.44998 4.45495,-1.03498 6.345,-1.755 l 2.835,15.66 c -2.43005,0.99 -5.13005,1.845 -8.1,2.565 -2.97004,0.72 -6.61504,1.08 -10.935,1.08 -5.49003,0 -10.03502,-0.72 -13.635,-2.16 -3.60002,-1.53 -6.48001,-3.6 -8.64,-6.21 -2.16001,-2.69999 -3.69001,-5.93999 -4.59,-9.72 -0.81,-3.77998 -1.215,-7.96498 -1.215,-12.555 l 0,-59.67"
         style="font-size:135px;font-variant:normal;font-weight:bold;font-stretch:normal;fill:#ffffff;font-family:Ubuntu;-inkscape-font-specification:Ubuntu Bold"
         id="path2999" />
      <path
         d="m 602.03676,385.16052 c 0,-6.29996 0.94499,-11.78995 2.835,-16.47 1.97999,-4.76994 4.54499,-8.72994 7.695,-11.88 3.14998,-3.14993 6.74998,-5.53493 10.8,-7.155 4.13997,-1.61993 8.36997,-2.42993 12.69,-2.43 10.07995,7e-5 18.04494,3.10507 23.895,9.315 5.84993,6.12006 8.77493,15.16505 8.775,27.135 -7e-5,1.17003 -0.0451,2.47503 -0.135,3.915 -0.0901,1.35003 -0.18007,2.56503 -0.27,3.645 l -45.63,0 c 0.44997,4.14002 2.38497,7.42502 5.805,9.855 3.41997,2.43002 8.00996,3.64501 13.77,3.645 3.68995,10e-6 7.28995,-0.31499 10.8,-0.945 3.59994,-0.71998 6.52494,-1.57498 8.775,-2.565 l 2.7,16.335 c -1.08007,0.54 -2.52006,1.08 -4.32,1.62 -1.80006,0.54 -3.82506,0.99 -6.075,1.35 -2.16005,0.45 -4.50005,0.81 -7.02,1.08 -2.52005,0.27 -5.04004,0.405 -7.56,0.405 -6.39004,0 -11.97003,-0.945 -16.74,-2.835 -4.68002,-1.89 -8.59502,-4.455 -11.745,-7.695 -3.06001,-3.32999 -5.35501,-7.24499 -6.885,-11.745 -1.44001,-4.49998 -2.16,-9.35997 -2.16,-14.58 m 47.25,-7.695 c -0.09,-1.70996 -0.40505,-3.37496 -0.945,-4.995 -0.45005,-1.61995 -1.21505,-3.05995 -2.295,-4.32 -0.99005,-1.25995 -2.29505,-2.29495 -3.915,-3.105 -1.53004,-0.80995 -3.46504,-1.21494 -5.805,-1.215 -2.25004,6e-5 -4.18503,0.40505 -5.805,1.215 -1.62003,0.72005 -2.97003,1.71005 -4.05,2.97 -1.08003,1.26005 -1.93503,2.74505 -2.565,4.455 -0.54003,1.62004 -0.94503,3.28504 -1.215,4.995 l 26.595,0"
         style="font-size:135px;font-variant:normal;font-weight:bold;font-stretch:normal;fill:#ffffff;font-family:Ubuntu;-inkscape-font-specification:Ubuntu Bold"
         id="path3001" />
      <path
         d="m 704.63465,405.68052 c 3.68997,10e-6 6.29997,-0.35999 7.83,-1.08 1.52996,-0.71998 2.29496,-2.11498 2.295,-4.185 -4e-5,-1.61998 -0.99004,-3.01498 -2.97,-4.185 -1.98003,-1.25998 -4.99503,-2.65497 -9.045,-4.185 -3.15002,-1.16997 -6.03002,-2.38497 -8.64,-3.645 -2.52001,-1.25997 -4.68001,-2.74497 -6.48,-4.455 -1.80001,-1.79996 -3.19501,-3.91496 -4.185,-6.345 -0.99001,-2.42996 -1.48501,-5.35495 -1.485,-8.775 -10e-6,-6.65994 2.47499,-11.92494 7.425,-15.795 4.94998,-3.86993 11.74498,-5.80493 20.385,-5.805 4.31996,7e-5 8.45996,0.40507 12.42,1.215 3.95995,0.72007 7.10995,1.53007 9.45,2.43 l -3.51,15.66 c -2.34005,-0.80995 -4.90505,-1.52995 -7.695,-2.16 -2.70004,-0.62994 -5.76004,-0.94494 -9.18,-0.945 -6.30003,6e-5 -9.45002,1.75505 -9.45,5.265 -2e-5,0.81005 0.13497,1.53005 0.405,2.16 0.26997,0.63005 0.80997,1.26005 1.62,1.89 0.80997,0.54005 1.88997,1.17005 3.24,1.89 1.43997,0.63004 3.23997,1.35004 5.4,2.16 4.40996,1.62004 8.05496,3.24004 10.935,4.86 2.87995,1.53004 5.12995,3.24003 6.75,5.13 1.70995,1.80003 2.87994,3.82503 3.51,6.075 0.71994,2.25002 1.07994,4.86002 1.08,7.83 -6e-5,7.02001 -2.65506,12.33001 -7.965,15.93 -5.22004,3.6 -12.64504,5.4 -22.275,5.4 -6.30002,0 -11.56502,-0.54 -15.795,-1.62 -4.14001,-1.08 -7.02,-1.98 -8.64,-2.7 l 3.375,-16.335 c 3.41999,1.35002 6.92999,2.43002 10.53,3.24 3.59998,0.72001 7.15498,1.08001 10.665,1.08"
         style="font-size:135px;font-variant:normal;font-weight:bold;font-stretch:normal;fill:#ffffff;font-family:Ubuntu;-inkscape-font-specification:Ubuntu Bold"
         id="path3003" />
    </g>
  </g>
</svg>
