<?xml version="1.0" encoding="UTF-8"?><!DOCTYPE svg PUBLIC "-//W3C//DTD SVG 1.1//EN" "http://www.w3.org/Graphics/SVG/1.1/DTD/svg11.dtd"><svg xmlns="http://www.w3.org/2000/svg" xmlns:xlink="http://www.w3.org/1999/xlink" version="1.1" width="24" height="24" viewBox="0 0 24.00 24.00"><path d="M7.73,10L15.73,18H6A4,4 0 0,1 2,14A4,4 0 0,1 6,10M3,5.27L5.75,8C2.56,8.15 0,10.77 0,14A6,6 0 0,0 6,20H17.73L19.73,22L21,20.73L4.27,4M19.35,10.03C18.67,6.59 15.64,4 12,4C10.5,4 9.15,4.43 8,5.17L9.45,6.63C10.21,6.23 11.08,6 12,6A5.5,5.5 0 0,1 17.5,11.5V12H19A3,3 0 0,1 22,15C22,16.13 21.36,17.11 20.44,17.62L21.89,19.07C23.16,18.16 24,16.68 24,15C24,12.36 21.95,10.22 19.35,10.03Z" /></svg>