<?xml version="1.0" encoding="utf-8"?>
<!-- Generator: Adobe Illustrator 18.0.0, SVG Export Plug-In . SVG Version: 6.00 Build 0)  -->
<!DOCTYPE svg PUBLIC "-//W3C//DTD SVG 1.1//EN" "http://www.w3.org/Graphics/SVG/1.1/DTD/svg11.dtd">
<svg version="1.1" id="Layer_1" xmlns="http://www.w3.org/2000/svg" xmlns:xlink="http://www.w3.org/1999/xlink" x="0px" y="0px"
	 viewBox="-73.5 -77 170 170" enable-background="new -73.5 -77 170 170" xml:space="preserve">
<g>
	<path fill="#326DE6" d="M86.5,33.1L54.3,72.6c-2.9,3.7-6.9,5.7-11.4,5.7h-51c-4.5,0-8.6-2.4-11.4-5.7l-32.2-39.6
		c-2.4-3.3-3.7-8.2-2.4-12.6l11-49.3c0.8-4.1,4.1-8.2,8.2-9.8l46.1-22c1.6-0.8,4.1-1.6,6.1-1.6c2,0,4.5,0.8,6.5,1.6l46.1,22
		c4.1,1.6,7.3,5.7,8.2,9.8l11,49.3C90.6,24.9,89,29.8,86.5,33.1z"/>
	<path fill="#FFFFFF" d="M92.3,21L80.8-30.6c-0.9-4.3-4.3-8.5-8.5-10.2L24-63.9c-2.1-0.9-4.7-1.7-6.8-1.7c-2.1,0-4.7,0.8-6.4,1.7
		l-48.2,23c-4.3,1.7-7.7,6-8.5,10.2L-57.5,21c-1.3,4.7,0,9.8,2.6,13.2l29.5,36.2l3.7,4.6h0l0.5,0.6c3,3.4,7.3,6,12,6h53.3
		c4.7,0,9-2.1,12-6l33.7-41.4C92.3,30.8,94,25.7,92.3,21z M84.6,30.4L51.3,71.8c-1.7,2.6-4.3,3.4-7.3,3.4H-9.3
		c-2.6,0-5.5-1.3-7.3-3.4l-2.6-3.2l-5.7-7.1l-25-31.1c-1.7-2.1-2.1-5.1-1.7-7.7l12-52c0.4-2.6,2.6-4.7,4.7-6l48.2-23
		c1.3-0.4,2.6-0.4,3.8-0.4c1.3,0,2.6,0,3.8,0.9l48.2,23c2.6,1.3,4.3,3.4,5.1,6l12,51.6C86.8,25.3,86.3,28.3,84.6,30.4z"/>
</g>
<g>
	<path fill="#FFFFFF" d="M-2.4,6.2l14.3,25.7c-7.1,0.2-14.2,0.5-21.4,0.8c-2.4,0.1-2.8-0.6-2.6-2.8C-11,13.7-9.9-2.4-8.9-18.6
		c0.2-2.4,0.7-3.3,3.4-2.8c7.1,1.2,14.1,2.5,21.2,3.7L-2.4,6.2z"/>
	<path fill="#FFFFFF" d="M60.4,30.3c0,0-25.2,0.9-37.3,1.3c-2.1,0.1-4.2,0.1-6.3,0.2L2.8,6.6l17.8-23.5c10.7,1.8,21.5,3.6,32.2,5.5
		c3.2,0.5,10.4,1.8,10.4,1.8l-17,18.9L60.4,30.3z"/>
	<path fill="#FFFFFF" d="M-12.6-22.5l-6.5,91l-0.3,4.2l0,0.1c-0.1,1.2-1.1,2.1-2.3,2.2h0l-3.7-4.6l0.3-4.7l0.3-4.3l6-84.4
		c0.1-1.3,1.2-2.2,2.5-2.1l1.6,0.1C-13.5-24.9-12.6-23.8-12.6-22.5z"/>
	<g>
		<path fill="none" d="M16.8,31.8c-1.6,0-3.3,0.1-4.9,0.1"/>
	</g>
</g>
</svg>
