<?xml version="1.0" encoding="UTF-8"?><!DOCTYPE svg PUBLIC "-//W3C//DTD SVG 1.1//EN" "http://www.w3.org/Graphics/SVG/1.1/DTD/svg11.dtd"><svg xmlns="http://www.w3.org/2000/svg" xmlns:xlink="http://www.w3.org/1999/xlink" version="1.1" width="24" height="24" viewBox="0 0 24.00 24.00"><path d="M17.25,12C17.25,12.23 17.23,12.46 17.2,12.68L18.68,13.84C18.81,13.95 18.85,14.13 18.76,14.29L17.36,16.71C17.27,16.86 17.09,16.92 16.93,16.86L15.19,16.16C14.83,16.44 14.43,16.67 14,16.85L13.75,18.7C13.72,18.87 13.57,19 13.4,19H10.6C10.43,19 10.28,18.87 10.25,18.7L10,16.85C9.56,16.67 9.17,16.44 8.81,16.16L7.07,16.86C6.91,16.92 6.73,16.86 6.64,16.71L5.24,14.29C5.15,14.13 5.19,13.95 5.32,13.84L6.8,12.68C6.77,12.46 6.75,12.23 6.75,12C6.75,11.77 6.77,11.54 6.8,11.32L5.32,10.16C5.19,10.05 5.15,9.86 5.24,9.71L6.64,7.29C6.73,7.13 6.91,7.07 7.07,7.13L8.81,7.84C9.17,7.56 9.56,7.32 10,7.15L10.25,5.29C10.28,5.13 10.43,5 10.6,5H13.4C13.57,5 13.72,5.13 13.75,5.29L14,7.15C14.43,7.32 14.83,7.56 15.19,7.84L16.93,7.13C17.09,7.07 17.27,7.13 17.36,7.29L18.76,9.71C18.85,9.86 18.81,10.05 18.68,10.16L17.2,11.32C17.23,11.54 17.25,11.77 17.25,12M19,3H5C3.89,3 3,3.89 3,5V19A2,2 0 0,0 5,21H19A2,2 0 0,0 21,19V5C21,3.89 20.1,3 19,3M12,10C10.89,10 10,10.89 10,12A2,2 0 0,0 12,14A2,2 0 0,0 14,12C14,10.89 13.1,10 12,10Z" /></svg>