<?xml version="1.0" encoding="utf-8"?>
<!-- Generator: Adobe Illustrator 18.0.0, SVG Export Plug-In . SVG Version: 6.00 Build 0)  -->
<!DOCTYPE svg PUBLIC "-//W3C//DTD SVG 1.1//EN" "http://www.w3.org/Graphics/SVG/1.1/DTD/svg11.dtd">
<svg version="1.1" id="Layer_1" xmlns="http://www.w3.org/2000/svg" xmlns:xlink="http://www.w3.org/1999/xlink" x="0px" y="0px"
	 viewBox="0 0 370 190" enable-background="new 0 0 370 190" xml:space="preserve">
<path fill="#326DE6" d="M144,185.5h-17.3c-1.4,0-2.4-1.1-2.4-2.4v-17.3c0-1.4,1.1-2.4,2.4-2.4H144c1.4,0,2.4,1.1,2.4,2.4v17.3
	C146.5,184.4,145.4,185.5,144,185.5z"/>
<path fill="#09C1D1" d="M144,159.7h-17.3c-1.4,0-2.4-1.1-2.4-2.4V140c0-1.4,1.1-2.4,2.4-2.4H144c1.4,0,2.4,1.1,2.4,2.4v17.3
	C146.5,158.6,145.4,159.7,144,159.7z"/>
<path fill="#C9E9EC" d="M144,133.9h-17.3c-1.4,0-2.4-1.1-2.4-2.4v-17.3c0-1.4,1.1-2.4,2.4-2.4H144c1.4,0,2.4,1.1,2.4,2.4v17.3
	C146.5,132.8,145.4,133.9,144,133.9z"/>
<path fill="#326DE6" d="M144,108.1h-17.3c-1.4,0-2.4-1.1-2.4-2.4V88.3c0-1.4,1.1-2.4,2.4-2.4H144c1.4,0,2.4,1.1,2.4,2.4v17.3
	C146.5,107,145.4,108.1,144,108.1z"/>
<path fill="#326DE6" d="M144,82.2h-17.3c-1.4,0-2.4-1.1-2.4-2.4V62.5c0-1.4,1.1-2.4,2.4-2.4H144c1.4,0,2.4,1.1,2.4,2.4v17.3
	C146.5,81.1,145.4,82.2,144,82.2z"/>
<path fill="#C9E9EC" d="M170.2,185.5h-17.3c-1.4,0-2.4-1.1-2.4-2.4v-17.3c0-1.4,1.1-2.4,2.4-2.4h17.3c1.4,0,2.4,1.1,2.4,2.4v17.3
	C172.6,184.4,171.5,185.5,170.2,185.5z"/>
<path fill="#326DE6" d="M170.2,159.7h-17.3c-1.4,0-2.4-1.1-2.4-2.4V140c0-1.4,1.1-2.4,2.4-2.4h17.3c1.4,0,2.4,1.1,2.4,2.4v17.3
	C172.6,158.6,171.5,159.7,170.2,159.7z"/>
<path fill="#09C1D1" d="M170.2,133.9h-17.3c-1.4,0-2.4-1.1-2.4-2.4v-17.3c0-1.4,1.1-2.4,2.4-2.4h17.3c1.4,0,2.4,1.1,2.4,2.4v17.3
	C172.6,132.8,171.5,133.9,170.2,133.9z"/>
<path fill="#09C1D1" d="M170.2,108.1h-17.3c-1.4,0-2.4-1.1-2.4-2.4V88.3c0-1.4,1.1-2.4,2.4-2.4h17.3c1.4,0,2.4,1.1,2.4,2.4v17.3
	C172.6,107,171.5,108.1,170.2,108.1z"/>
<path fill="#C9E9EC" d="M170.2,82.2h-17.3c-1.4,0-2.4-1.1-2.4-2.4V62.5c0-1.4,1.1-2.4,2.4-2.4h17.3c1.4,0,2.4,1.1,2.4,2.4v17.3
	C172.6,81.1,171.5,82.2,170.2,82.2z"/>
<path fill="#326DE6" d="M196.3,185.5H179c-1.4,0-2.4-1.1-2.4-2.4v-17.3c0-1.4,1.1-2.4,2.4-2.4h17.3c1.4,0,2.4,1.1,2.4,2.4v17.3
	C198.7,184.4,197.7,185.5,196.3,185.5z"/>
<path fill="#09C1D1" d="M196.3,159.7H179c-1.4,0-2.4-1.1-2.4-2.4V140c0-1.4,1.1-2.4,2.4-2.4h17.3c1.4,0,2.4,1.1,2.4,2.4v17.3
	C198.7,158.6,197.7,159.7,196.3,159.7z"/>
<path fill="#326DE6" d="M196.3,133.9H179c-1.4,0-2.4-1.1-2.4-2.4v-17.3c0-1.4,1.1-2.4,2.4-2.4h17.3c1.4,0,2.4,1.1,2.4,2.4v17.3
	C198.7,132.8,197.7,133.9,196.3,133.9z"/>
<path fill="#C9E9EC" d="M196.3,108.1H179c-1.4,0-2.4-1.1-2.4-2.4V88.3c0-1.4,1.1-2.4,2.4-2.4h17.3c1.4,0,2.4,1.1,2.4,2.4v17.3
	C198.7,107,197.7,108.1,196.3,108.1z"/>
<path fill="#09C1D1" d="M196.3,82.2H179c-1.4,0-2.4-1.1-2.4-2.4V62.5c0-1.4,1.1-2.4,2.4-2.4h17.3c1.4,0,2.4,1.1,2.4,2.4v17.3
	C198.7,81.1,197.7,82.2,196.3,82.2z"/>
<path fill="#09C1D1" d="M222.4,185.5h-17.3c-1.4,0-2.4-1.1-2.4-2.4v-17.3c0-1.4,1.1-2.4,2.4-2.4h17.3c1.4,0,2.4,1.1,2.4,2.4v17.3
	C224.9,184.4,223.8,185.5,222.4,185.5z"/>
<path fill="#C9E9EC" d="M222.4,159.7h-17.3c-1.4,0-2.4-1.1-2.4-2.4V140c0-1.4,1.1-2.4,2.4-2.4h17.3c1.4,0,2.4,1.1,2.4,2.4v17.3
	C224.9,158.6,223.8,159.7,222.4,159.7z"/>
<path fill="#09C1D1" d="M222.4,133.9h-17.3c-1.4,0-2.4-1.1-2.4-2.4v-17.3c0-1.4,1.1-2.4,2.4-2.4h17.3c1.4,0,2.4,1.1,2.4,2.4v17.3
	C224.9,132.8,223.8,133.9,222.4,133.9z"/>
<path fill="#C9E9EC" d="M248.6,185.5h-17.3c-1.4,0-2.4-1.1-2.4-2.4v-17.3c0-1.4,1.1-2.4,2.4-2.4h17.3c1.4,0,2.4,1.1,2.4,2.4v17.3
	C251,184.4,249.9,185.5,248.6,185.5z"/>
<path fill="#09C1D1" d="M248.6,159.7h-17.3c-1.4,0-2.4-1.1-2.4-2.4V140c0-1.4,1.1-2.4,2.4-2.4h17.3c1.4,0,2.4,1.1,2.4,2.4v17.3
	C251,158.6,249.9,159.7,248.6,159.7z"/>
<path fill="#326DE6" d="M248.6,53.5h-17.3c-1.4,0-2.4-1.1-2.4-2.4V33.8c0-1.4,1.1-2.4,2.4-2.4h17.3c1.4,0,2.4,1.1,2.4,2.4v17.3
	C251,52.4,249.9,53.5,248.6,53.5z"/>
<g>
	<path fill="#C9E9EC" d="M237.5,27.4c0,0-0.4-0.2-0.5-0.7c-0.1-0.2,0-0.5,0-0.8c0-0.3,0-0.6,0-1c0-1.5,0-3.4,0.1-5.4
		c0.1-2,0.2-3.9,0.3-5.4c0.1-1.5,0.2-2.4,0.2-2.4s0.1,1,0.2,2.4c0.1,1.5,0.2,3.4,0.3,5.4c0.1,2,0.1,3.9,0.1,5.4c0,0.4,0,0.7,0,1
		c0,0.3,0,0.6,0,0.8C237.9,27.2,237.5,27.4,237.5,27.4z"/>
</g>
<g>
	<path fill="#C9E9EC" d="M241.7,27.4c0,0-0.6-0.4-0.7-1.1c0-0.3,0-0.8,0-1.2c0-0.5,0-1,0-1.6c0-2.3,0-5.4,0.1-8.5
		c0.1-3.1,0.2-6.2,0.3-8.5c0.1-2.3,0.2-3.9,0.2-3.9s0.1,1.6,0.2,3.9c0.1,2.3,0.3,5.4,0.3,8.5c0.1,3.1,0.1,6.2,0.1,8.5
		c0,0.6,0,1.1,0,1.6c0,0.5,0,0.9,0,1.2C242.2,27,241.7,27.4,241.7,27.4z"/>
</g>
</svg>
