<?xml version="1.0" encoding="utf-8"?>
<!-- Generator: Adobe Illustrator 18.0.0, SVG Export Plug-In . SVG Version: 6.00 Build 0)  -->
<!DOCTYPE svg PUBLIC "-//W3C//DTD SVG 1.1//EN" "http://www.w3.org/Graphics/SVG/1.1/DTD/svg11.dtd">
<svg version="1.1" id="Layer_1" xmlns="http://www.w3.org/2000/svg" xmlns:xlink="http://www.w3.org/1999/xlink" x="0px" y="0px"
	 viewBox="0 0 370 190" enable-background="new 0 0 370 190" xml:space="preserve">
<path id="left" fill="#326DE6" d="M130.2,78.7v105.7h-10.6c-8.8,0-15.8-7.1-15.8-15.9v-74c0-8.8,7.1-15.8,15.8-15.8H130.2z"/>
<rect id="middle" x="135.5" y="78.7" fill="#09C1D1" width="95.1" height="105.7"/>
<path id="right" fill="#326DE6" d="M235.9,78.7h10.6c8.8,0,15.9,7.1,15.9,15.8v74c0,8.8-7.1,15.9-15.9,15.9h-10.6V78.7z"/>
<path id="handle" fill="#326DE6" d="M159.3,77.4v-7.9c0-6.6,5.3-11.9,11.9-11.9H195c6.6,0,11.9,5.3,11.9,11.9v7.9h-7.9v-7.9
	c0-2.2-1.8-4-4-4h-23.8c-2.2,0-4,1.8-4,4v7.9H159.3z"/>
<g>
	<defs>
		<rect id="middle_1_" x="135.5" y="78.7" width="95.1" height="105.7"/>
	</defs>
	<clipPath id="middle_2_">
		<use xlink:href="#middle_1_"  overflow="visible"/>
	</clipPath>
	<path clip-path="url(#middle_2_)" fill="none" stroke="#C9E9EC" stroke-width="1.3208" stroke-miterlimit="10" d="M107.1,41.9
		l-6.5-11.3l6.5-11.3h13.1l6.5,11.3l-6.5,11.3H107.1z M120.1,64.6l6.5-11.3l-6.5-11.3h-13.1l-6.5,11.3l6.5,11.3H120.1z M120.1,87.2
		l6.5-11.3l-6.5-11.3h-13.1l-6.5,11.3l6.5,11.3H120.1z M120.1,109.8l6.5-11.3l-6.5-11.3h-13.1l-6.5,11.3l6.5,11.3H120.1z
		 M120.1,132.4l6.5-11.3l-6.5-11.3h-13.1l-6.5,11.3l6.5,11.3H120.1z M120.1,155.1l6.5-11.3l-6.5-11.3h-13.1l-6.5,11.3l6.5,11.3
		H120.1z M120.1,177.7l6.5-11.3l-6.5-11.3h-13.1l-6.5,11.3l6.5,11.3H120.1z M139.8,53.2l6.5-11.3l-6.5-11.3h-13.1l-6.5,11.3
		l6.5,11.3H139.8z M139.8,75.9l6.5-11.3l-6.5-11.3h-13.1l-6.5,11.3l6.5,11.3H139.8z M139.8,98.5l6.5-11.3l-6.5-11.3h-13.1l-6.5,11.3
		l6.5,11.3H139.8z M139.8,121.1l6.5-11.3l-6.5-11.3h-13.1l-6.5,11.3l6.5,11.3H139.8z M139.8,143.7l6.5-11.3l-6.5-11.3h-13.1
		l-6.5,11.3l6.5,11.3H139.8z M139.8,166.4l6.5-11.3l-6.5-11.3h-13.1l-6.5,11.3l6.5,11.3H139.8z M139.8,189l6.5-11.3l-6.5-11.3h-13.1
		l-6.5,11.3l6.5,11.3H139.8z M159.3,41.9l6.5-11.3l-6.5-11.3h-13.1l-6.5,11.3l6.5,11.3H159.3z M159.3,64.6l6.5-11.3l-6.5-11.3h-13.1
		l-6.5,11.3l6.5,11.3H159.3z M159.3,87.2l6.5-11.3l-6.5-11.3h-13.1l-6.5,11.3l6.5,11.3H159.3z M159.3,109.8l6.5-11.3l-6.5-11.3
		h-13.1l-6.5,11.3l6.5,11.3H159.3z M159.3,132.4l6.5-11.3l-6.5-11.3h-13.1l-6.5,11.3l6.5,11.3H159.3z M159.3,155.1l6.5-11.3
		l-6.5-11.3h-13.1l-6.5,11.3l6.5,11.3H159.3z M159.3,177.7l6.5-11.3l-6.5-11.3h-13.1l-6.5,11.3l6.5,11.3H159.3z M179,53.2l6.5-11.3
		L179,30.6h-13.1l-6.5,11.3l6.5,11.3H179z M179,75.9l6.5-11.3L179,53.2h-13.1l-6.5,11.3l6.5,11.3H179z M179,98.5l6.5-11.3L179,75.9
		h-13.1l-6.5,11.3l6.5,11.3H179z M179,121.1l6.5-11.3L179,98.5h-13.1l-6.5,11.3l6.5,11.3H179z M179,143.7l6.5-11.3l-6.5-11.3h-13.1
		l-6.5,11.3l6.5,11.3H179z M179,166.4l6.5-11.3l-6.5-11.3h-13.1l-6.5,11.3l6.5,11.3H179z M179,189l6.5-11.3l-6.5-11.3h-13.1
		l-6.5,11.3l6.5,11.3H179z M198.6,41.9l6.5-11.3l-6.5-11.3h-13.1L179,30.6l6.5,11.3H198.6z M198.6,64.6l6.5-11.3l-6.5-11.3h-13.1
		L179,53.2l6.5,11.3H198.6z M198.6,87.2l6.5-11.3l-6.5-11.3h-13.1L179,75.9l6.5,11.3H198.6z M198.6,109.8l6.5-11.3l-6.5-11.3h-13.1
		L179,98.5l6.5,11.3H198.6z M198.6,132.4l6.5-11.3l-6.5-11.3h-13.1l-6.5,11.3l6.5,11.3H198.6z M198.6,155.1l6.5-11.3l-6.5-11.3
		h-13.1l-6.5,11.3l6.5,11.3H198.6z M198.6,177.7l6.5-11.3l-6.5-11.3h-13.1l-6.5,11.3l6.5,11.3H198.6z M218.3,53.2l6.5-11.3
		l-6.5-11.3h-13.1l-6.5,11.3l6.5,11.3H218.3z M218.3,75.9l6.5-11.3l-6.5-11.3h-13.1l-6.5,11.3l6.5,11.3H218.3z M218.3,98.5l6.5-11.3
		l-6.5-11.3h-13.1l-6.5,11.3l6.5,11.3H218.3z M218.3,121.1l6.5-11.3l-6.5-11.3h-13.1l-6.5,11.3l6.5,11.3H218.3z M218.3,143.7
		l6.5-11.3l-6.5-11.3h-13.1l-6.5,11.3l6.5,11.3H218.3z M218.3,166.4l6.5-11.3l-6.5-11.3h-13.1l-6.5,11.3l6.5,11.3H218.3z M218.3,189
		l6.5-11.3l-6.5-11.3h-13.1l-6.5,11.3l6.5,11.3H218.3z M237.8,41.9l6.5-11.3l-6.5-11.3h-13.1l-6.5,11.3l6.5,11.3H237.8z M237.8,64.6
		l6.5-11.3l-6.5-11.3h-13.1l-6.5,11.3l6.5,11.3H237.8z M237.8,87.2l6.5-11.3l-6.5-11.3h-13.1l-6.5,11.3l6.5,11.3H237.8z
		 M237.8,109.8l6.5-11.3l-6.5-11.3h-13.1l-6.5,11.3l6.5,11.3H237.8z M237.8,132.4l6.5-11.3l-6.5-11.3h-13.1l-6.5,11.3l6.5,11.3
		H237.8z M237.8,155.1l6.5-11.3l-6.5-11.3h-13.1l-6.5,11.3l6.5,11.3H237.8z M237.8,177.7l6.5-11.3l-6.5-11.3h-13.1l-6.5,11.3
		l6.5,11.3H237.8z M257.5,53.2l6.5-11.3l-6.5-11.3h-13.1l-6.5,11.3l6.5,11.3H257.5z M257.5,75.9l6.5-11.3l-6.5-11.3h-13.1l-6.5,11.3
		l6.5,11.3H257.5z M257.5,98.5l6.5-11.3l-6.5-11.3h-13.1l-6.5,11.3l6.5,11.3H257.5z M257.5,121.1l6.5-11.3l-6.5-11.3h-13.1
		l-6.5,11.3l6.5,11.3H257.5z M257.5,143.7l6.5-11.3l-6.5-11.3h-13.1l-6.5,11.3l6.5,11.3H257.5z M257.5,166.4l6.5-11.3l-6.5-11.3
		h-13.1l-6.5,11.3l6.5,11.3H257.5z M257.5,189l6.5-11.3l-6.5-11.3h-13.1l-6.5,11.3l6.5,11.3H257.5z"/>
</g>
</svg>
