<?xml version="1.0" encoding="UTF-8" standalone="no"?>
<svg width="140px" height="139px" viewBox="0 0 140 139" version="1.1" xmlns="http://www.w3.org/2000/svg" xmlns:xlink="http://www.w3.org/1999/xlink">
  <path d="M69.564453,0.890625 C67.679438,0.97633863 65.83265,1.45183502 64.140625,2.2871094 L64.150425,2.2714844 L19.492222,24.177734 C15.776058,26.000423 13.087287,29.410414 12.181675,33.449219 L1.1484375,82.683594 C0.25354487,86.675977 1.1961448,90.859257 3.7167969,94.082031 L34.617188,133.57031 C37.204703,136.87615 41.169115,138.80794 45.367188,138.80859 L94.929688,138.81459 C99.128112,138.81501 103.09331,136.88391 105.68164,133.57826 L136.58984,94.097796 C139.11186,90.875671 140.05591,86.692328 139.16211,82.699359 L128.13867,33.462891 C127.23402,29.423742 124.54596,26.013013 120.83008,24.189453 L76.177734,2.2734375 C74.123956,1.26576975 71.849913,0.79027587 69.564453,0.890625 L69.564453,0.890625 Z" fill="#FFFFFF"></path>
  <path d="M69.785156,5.9277344 C68.596708,5.9813144 67.432255,6.2805743 66.365234,6.8066406 L66.371134,6.7988306 L21.712931,28.705081 C19.369578,29.854918 17.674286,32.00564 17.103556,34.552737 L6.0683594,83.785156 C5.504042,86.303482 6.0990134,88.942143 7.6894531,90.974609 L38.587891,130.46289 C40.219821,132.54737 42.719874,133.76535 45.367188,133.76562 L94.931641,133.77162 C97.578956,133.77135 100.079009,132.55338 101.71094,130.46889 L132.61914,90.990374 C134.20958,88.957907 134.80455,86.319246 134.24023,83.800921 L123.2168,34.564453 C122.6465,32.017743 120.95198,29.867093 118.60938,28.716797 L73.957031,6.8007812 C72.661541,6.1647578 71.22697,5.8645457 69.785156,5.9277344 L69.785156,5.9277344 Z" fill="#336EE5"></path>
  <path d="M70.158203,22.609375 C68.693809,22.609375 67.509033,23.95463 67.490234,25.621094 L67.486328,25.621094 C67.487016,25.861935 67.475646,26.208085 67.484375,26.439453 C67.519875,27.411433 67.725984,28.156904 67.849609,29.052734 C68.074983,30.968571 68.264312,32.557063 68.148438,34.033203 C68.042186,34.772109 67.626171,35.064535 67.279297,35.40625 L67.345703,35.451172 L67.275391,35.451172 L67.275391,35.455078 L67.208984,36.648438 C58.699449,37.421316 50.808823,41.403848 45.007812,47.625 L44.009766,46.898438 L43.964844,46.955078 L43.972656,46.871094 C43.495282,46.936971 43.014968,47.090461 42.386719,46.714844 C41.190848,45.887846 40.100492,44.745117 38.78125,43.369141 C38.178242,42.711651 37.740935,42.081769 37.023438,41.447266 C36.866687,41.309245 36.631678,41.126067 36.451172,40.980469 C36.443613,40.974161 36.437316,40.967191 36.429688,40.960938 C35.147441,39.910367 33.360321,40.0198 32.439453,41.205078 C31.527048,42.380511 31.812064,44.16996 33.066406,45.224609 L33.064453,45.228516 C33.248323,45.378891 33.50537,45.605709 33.6875,45.744141 C34.448628,46.321756 35.145669,46.619167 35.904297,47.078125 C37.502293,48.092354 38.829491,48.929643 39.880859,49.943359 C40.376858,50.488741 40.338814,51.005958 40.382812,51.498047 L40.457031,51.472656 L40.414062,51.529297 L41.300781,52.34375 C38.981079,55.873171 37.23995,59.878341 36.261719,64.253906 C35.291509,68.592614 35.15021,72.93213 35.71875,77.101562 L34.681641,77.408203 L34.697266,77.474609 L34.640625,77.419922 C34.393376,77.844336 34.208378,78.327212 33.53125,78.597656 C32.156134,79.042104 30.606646,79.207233 28.738281,79.408203 C27.861034,79.483198 27.107482,79.439514 26.177734,79.621094 C25.967973,79.661512 25.672514,79.741581 25.447266,79.794922 C25.443964,79.795686 25.440802,79.7961 25.4375,79.796875 C25.434011,79.797691 25.431218,79.799955 25.427734,79.800781 C25.419505,79.802709 25.408389,79.804799 25.400391,79.806641 L25.400391,79.808594 C23.823377,80.19742 22.811243,81.68559 23.136719,83.152344 C23.462521,84.618785 25.002575,85.507142 26.587891,85.15625 L26.587891,85.158203 C26.599278,85.155524 26.615088,85.153125 26.626953,85.150391 C26.631045,85.149431 26.634588,85.147459 26.638672,85.146484 C26.864586,85.094713 27.164032,85.034947 27.369141,84.978516 C28.282888,84.727334 28.943998,84.354858 29.765625,84.03125 C31.534121,83.379283 32.998915,82.836501 34.425781,82.625 C35.150409,82.56593 35.520136,82.917596 35.921875,83.189453 L35.949219,83.113281 L35.964844,83.183594 L37.03125,82.998047 C39.605936,91.246292 45.067458,98.389215 52.492188,102.85938 L52.046875,103.96289 L52.111328,103.99414 L52.029297,104.00586 C52.197542,104.46842 52.451249,104.91582 52.234375,105.62891 C51.714876,107.01143 50.8732,108.35796 49.861328,109.98438 C49.371579,110.73613 48.870608,111.3141 48.427734,112.17383 C48.330344,112.36321 48.209485,112.64157 48.111328,112.85547 C48.107725,112.863 48.103166,112.86938 48.099609,112.87695 C48.095681,112.88534 48.093699,112.89394 48.089844,112.90234 C48.087972,112.90637 48.085834,112.91205 48.083984,112.91602 L48.085938,112.91602 C47.40097,114.42514 47.900428,116.16537 49.21875,116.81836 C50.548871,117.47649 52.203768,116.77883 52.916016,115.26172 C52.91995,115.25333 52.921921,115.24473 52.925781,115.23633 C53.02742,115.02423 53.164417,114.75327 53.248047,114.55859 C53.626421,113.66636 53.753782,112.90269 54.019531,112.04102 C54.626529,110.21405 55.127221,108.70063 55.855469,107.42188 C56.263218,106.80303 56.761002,106.72716 57.21875,106.57422 L57.175781,106.50195 L57.240234,106.5332 L57.820312,105.45703 C59.279187,106.01887 60.786912,106.49484 62.349609,106.85938 C69.289342,108.47785 76.223872,107.82482 82.423828,105.39453 L83.060547,106.57812 L83.123047,106.54688 L83.082031,106.61719 C83.539779,106.77051 84.037813,106.84797 84.445312,107.4668 C85.173436,108.74441 85.674627,110.25896 86.28125,112.08594 C86.547374,112.94761 86.67361,113.71282 87.052734,114.60352 C87.135308,114.79955 87.272056,115.06752 87.373047,115.2793 C87.376902,115.2877 87.378886,115.2963 87.382812,115.30469 C88.09406,116.82295 89.750582,117.52154 91.080078,116.86328 C92.399875,116.21158 92.900929,114.47045 92.214844,112.96094 L92.216797,112.95898 C92.212007,112.94874 92.20611,112.9345 92.201172,112.92383 C92.200152,112.92165 92.198289,112.92014 92.197266,112.91797 C92.097824,112.70281 91.972439,112.41327 91.873047,112.21875 C91.430548,111.35862 90.929451,110.78092 90.439453,110.0293 C89.427455,108.40317 88.58578,107.0552 88.066406,105.67383 C87.849532,104.96074 88.102109,104.51449 88.271484,104.05078 L88.191406,104.03906 L88.255859,104.00781 L87.751953,102.75391 C94.885105,98.433344 100.514721,91.548722 103.20703,83.046875 L104.34961,83.246094 L104.36523,83.177734 L104.39258,83.253906 C104.79508,82.981665 105.16405,82.62843 105.88867,82.6875 C107.31516,82.899001 108.77997,83.441782 110.54883,84.09375 C111.37046,84.417358 112.03081,84.791017 112.94531,85.042969 C113.15137,85.098644 113.45395,85.160732 113.67969,85.212891 C113.68234,85.21352 113.68484,85.21422 113.6875,85.214844 C113.69016,85.21547 113.69265,85.216178 113.69531,85.216797 C113.70411,85.218846 113.71609,85.220642 113.72461,85.222656 L113.72461,85.220703 C115.30963,85.574117 116.85106,84.68396 117.17773,83.216797 C117.5032,81.75119 116.49071,80.262994 114.91406,79.873047 L114.91406,79.871094 C114.90306,79.868505 114.88838,79.864067 114.87695,79.861328 C114.87365,79.860551 114.87049,79.860141 114.86719,79.859375 C114.64143,79.805066 114.34542,79.726689 114.13672,79.685547 C113.20586,79.504737 112.45342,79.545569 111.57617,79.470703 C109.7078,79.268962 108.15808,79.104989 106.7832,78.660156 C106.10509,78.389969 105.92278,77.908918 105.67578,77.484375 L105.61719,77.541016 L105.63281,77.472656 L104.54883,77.150391 C105.81818,68.221389 103.69598,59.45007 99.085938,52.347656 L99.919922,51.580078 L99.876953,51.525391 L99.953125,51.550781 C99.99675,51.058563 99.957001,50.541477 100.453125,49.996094 C101.504,48.982379 102.83132,48.144575 104.42969,47.130859 C105.18869,46.672543 105.88537,46.374233 106.64648,45.796875 C106.8146,45.669733 107.03986,45.470697 107.21875,45.322266 C107.22551,45.316815 107.2335,45.314108 107.24023,45.308594 C108.52261,44.258023 108.81553,42.445045 107.89453,41.259766 C106.98249,40.083783 105.21899,39.970689 103.93945,40.992188 L103.9375,40.990234 C103.75362,41.141636 103.48363,41.347442 103.3125,41.5 C102.59501,42.134118 102.15686,42.765696 101.55273,43.423828 C100.234996,44.799034 99.143138,45.940579 97.947266,46.767578 C97.319018,47.143708 96.838576,46.989705 96.361328,46.923828 L96.369141,47.003906 L96.326172,46.949219 L95.417969,47.611328 C90.871424,42.674999 84.900337,39.013547 77.949219,37.392578 C76.33103,37.015067 74.713896,36.769878 73.105469,36.632812 L73.041016,35.455078 L73.041016,35.451172 L72.970703,35.451172 L73.037109,35.40625 C72.690235,35.064535 72.274344,34.772109 72.167969,34.033203 C72.052094,32.557063 72.239845,30.968571 72.464844,29.052734 C72.588844,28.156904 72.796281,27.411433 72.832031,26.439453 C72.84076,26.208085 72.829514,25.861935 72.830078,25.621094 L72.826172,25.621094 C72.80646,23.955428 71.622757,22.610521 70.158203,22.609375 L70.158203,22.609375 Z M73.501953,43.830078 C74.442204,43.947675 75.386211,44.113788 76.330078,44.333984 C81.549591,45.551151 86.083352,48.217305 89.625,51.828125 L78.119141,60.203125 L78.095703,60.191406 C77.706579,60.483038 77.226529,60.654297 76.707031,60.654297 C75.439284,60.654297 74.408969,59.62693 74.355469,58.337891 L74.298828,58.310547 L73.501953,43.830078 L73.501953,43.830078 Z M66.8125,43.837891 L66.013672,58.285156 L66.001953,58.291016 C65.981453,58.78606 65.81178,59.278861 65.488281,59.695312 C64.698158,60.713394 63.27156,60.900719 62.257812,60.140625 L62.216797,60.160156 L50.775391,51.826172 C55.08706,47.449717 60.722164,44.609096 66.8125,43.837891 L66.8125,43.837891 Z M46.615234,57.228516 L57.050781,66.820312 L57.044922,66.847656 C57.408796,67.172676 57.677719,67.614939 57.792969,68.134766 C58.074593,69.404543 57.32781,70.665429 56.117188,71.005859 L56.105469,71.058594 L42.640625,75.048828 C42.352667,72.040886 42.518719,68.93035 43.216797,65.808594 C43.915022,62.685476 45.081605,59.808054 46.615234,57.228516 L46.615234,57.228516 Z M93.769531,57.232422 C96.851248,62.438943 98.312826,68.673365 97.626953,75.097656 L84.234375,71.125 L84.224609,71.078125 C83.759736,70.947141 83.329733,70.669176 83.005859,70.251953 C82.216486,69.234642 82.354861,67.762405 83.302734,66.916016 L83.291016,66.859375 L93.769531,57.232422 L93.769531,57.232422 Z M68.058594,67.533203 L72.259766,67.533203 L74.945312,70.976562 L73.974609,75.330078 L70.160156,77.208984 L66.345703,75.332031 L65.375,70.976562 L68.058594,67.533203 L68.058594,67.533203 Z M58.345703,79.349609 C58.70919,79.339282 59.08083,79.416193 59.431641,79.589844 C59.554043,79.650391 59.664377,79.724576 59.771484,79.802734 L59.771484,79.925781 L60.085938,80.080078 C60.738857,80.764053 60.958553,81.803391 60.572266,82.726562 L60.589844,82.75 L55.193359,96.148438 C50.016365,92.739684 46.1366,87.648057 44.101562,81.767578 L57.960938,79.357422 L57.986328,79.388672 C58.104765,79.366199 58.224541,79.353052 58.345703,79.349609 L58.345703,79.349609 Z M81.904297,79.40625 C82.055953,79.404147 82.209001,79.418067 82.363281,79.447266 L82.384766,79.419922 L96.111328,81.810547 C93.985653,87.866972 90.034121,92.797189 85.068359,96.089844 L79.732422,82.832031 L79.771484,82.78125 C79.58086,82.326915 79.52475,81.806936 79.640625,81.287109 C79.887484,80.176167 80.842701,79.420971 81.904297,79.40625 L81.904297,79.40625 Z M70.025391,85.224609 C70.918397,85.170809 71.796516,85.646772 72.240234,86.5 L72.240234,86.494141 L72.246094,86.494141 L79.035156,99.101562 C74.341871,100.754225 69.160794,101.12885 63.96875,99.917969 C63.033715,99.69985 62.119901,99.435009 61.230469,99.126953 L68.035156,86.496094 L68.087891,86.496094 C68.31564,86.059993 68.674829,85.692087 69.142578,85.460938 C69.427827,85.319776 69.727722,85.242543 70.025391,85.224609 L70.025391,85.224609 Z" fill="#FFFFFF"></path>
</svg>