<?xml version="1.0" encoding="utf-8"?>
<!-- Generator: Adobe Illustrator 18.0.0, SVG Export Plug-In . SVG Version: 6.00 Build 0)  -->
<!DOCTYPE svg PUBLIC "-//W3C//DTD SVG 1.1//EN" "http://www.w3.org/Graphics/SVG/1.1/DTD/svg11.dtd">
<svg version="1.1" id="Layer_1" xmlns="http://www.w3.org/2000/svg" xmlns:xlink="http://www.w3.org/1999/xlink" x="0px" y="0px" viewBox="0 0 19 32" enable-background="new 0 0 19 32" xml:space="preserve"><g><path fill="#FFFFFF" d="M8.7,1c0.1,0,0.1,0,0.2,0.1c0.5,0.8,4.1,6.6,6,9.6c1,1.6,2,3.2,3.1,4.9c0.1,0.1,0.1,0.3,0,0.5 c-2.8,4.5-8.5,13.5-9.1,14.5c0,0.1-0.1,0.1-0.2,0.1c-0.8,0-6,0-7.4,0c-0.1,0-0.2-0.2-0.2-0.3c1-1.6,6.2-9.9,8.9-14.2 c0.1-0.2,0.1-0.3,0-0.5C7.3,11.2,2.1,2.9,1.1,1.3C1,1.2,1.1,1,1.3,1L8.7,1z"/></g></svg>
