<?xml version="1.0" encoding="utf-8"?>
<!-- Generator: Adobe Illustrator 18.0.0, SVG Export Plug-In . SVG Version: 6.00 Build 0)  -->
<!DOCTYPE svg PUBLIC "-//W3C//DTD SVG 1.1//EN" "http://www.w3.org/Graphics/SVG/1.1/DTD/svg11.dtd">
<svg version="1.1"
	 id="Layer_1" xmlns:svg="http://www.w3.org/2000/svg" xmlns:dc="http://purl.org/dc/elements/1.1/" xmlns:sodipodi="http://sodipodi.sourceforge.net/DTD/sodipodi-0.dtd" xmlns:rdf="http://www.w3.org/1999/02/22-rdf-syntax-ns#" xmlns:cc="http://creativecommons.org/ns#" xmlns:inkscape="http://www.inkscape.org/namespaces/inkscape"
	 xmlns="http://www.w3.org/2000/svg" xmlns:xlink="http://www.w3.org/1999/xlink" x="0px" y="0px" viewBox="247.2 243.5 21.3 25"
	 enable-background="new 247.2 243.5 21.3 25" xml:space="preserve">
<g id="g4140">
	<path id="path12727-1" fill="#09C1D1" d="M257.9,243.6c-0.5,0-1.1,0-1.5,0.1c-4.7,0.6-8.4,4.3-9.1,9c-0.4,2.4,0.1,5,1.4,7.1
		c0.8,1.4,2,2.6,3.3,3.4c1.6,1,3.3,1.6,5.3,1.7l0.5,0v1.7c0,0.9,0,1.7,0,1.7c0.1,0.1,0.2,0,0.7-0.2c2.1-1.1,4.1-2.5,5.7-4.1
		c2.4-2.4,3.7-5.1,4.2-8.3c0.1-0.7,0.1-2.4,0-3.1c-0.8-4.7-4.4-8.4-9.1-9C258.9,243.7,258.4,243.6,257.9,243.6z M252.8,251.2h3.5
		c0.3,0,0.6,0.3,0.6,0.6v4c0,0,0,0.1,0,0.1c0,0.7-0.1,0.9-0.3,1.3c-0.4,0.9-1.4,1.6-2.4,1.8c-0.2,0-0.2,0-0.3-0.1
		c-0.1-0.1-0.1-0.2-0.1-0.7c0-0.7,0-0.7,0.5-0.8c0.3-0.1,0.6-0.3,0.7-0.4c0.2-0.2,0.3-0.6,0.3-0.8v-0.2c-0.8,0-1.7,0-2.5,0
		c-0.3,0-0.6-0.3-0.6-0.6v-3.5C252.2,251.5,252.5,251.2,252.8,251.2L252.8,251.2z M259.4,251.2h3.5c0.3,0,0.6,0.3,0.6,0.6v4
		c0,0,0,0.1,0,0.1c0,0.7-0.1,0.9-0.3,1.3c-0.4,0.9-1.4,1.6-2.4,1.8c-0.2,0-0.2,0-0.3-0.1c-0.1-0.1-0.1-0.2-0.1-0.7
		c0-0.7,0-0.7,0.5-0.8c0.3-0.1,0.6-0.3,0.7-0.4c0.2-0.2,0.3-0.6,0.3-0.8v-0.2c-0.8,0-1.7,0-2.5,0c-0.3,0-0.6-0.3-0.6-0.6v-3.5
		C258.8,251.5,259.1,251.2,259.4,251.2L259.4,251.2z"/>
</g>
</svg>
