<svg xmlns="http://www.w3.org/2000/svg" xmlns:xlink="http://www.w3.org/1999/xlink" version="1.1" id="Layer_1" x="0" y="0" viewBox="0 0 568 232" enable-background="new 0 0 568 232" xml:space="preserve">
  <path fill="#326DE6" d="M252.7 149.3c-3.6 0-7-1.6-9.3-4.5l-35-43.5c-2.3-2.9-3.2-6.6-2.3-10.2l12.5-54.3c0.8-3.6 3.2-6.5 6.5-8.1l50.6-24.2c1.6-0.8 3.4-1.2 5.2-1.2s3.6 0.4 5.2 1.2l50.6 24.1c3.3 1.6 5.7 4.5 6.5 8.1l12.5 54.3c0.8 3.6 0 7.3-2.3 10.2l-35 43.5c-2.3 2.8-5.7 4.5-9.3 4.5L252.7 149.3z"/>
  <path fill="#FFFFFF" d="M280.8 5.8c1.4 0 2.8 0.3 4.1 0.9l50.6 24.1c2.6 1.3 4.6 3.7 5.2 6.5l12.5 54.3c0.7 2.9 0 5.9-1.9 8.2l-35 43.5c-1.8 2.3-4.6 3.6-7.5 3.6l-56.1 0c-2.9 0-5.7-1.3-7.5-3.6l-35-43.5c-1.8-2.3-2.5-5.3-1.9-8.2l12.5-54.3c0.7-2.9 2.6-5.3 5.2-6.5l50.6-24.2C277.9 6.1 279.4 5.8 280.8 5.8M280.8 1.1L280.8 1.1c-2.1 0-4.2 0.5-6.2 1.4l-50.6 24.2c-4 1.9-6.8 5.4-7.8 9.7l-12.5 54.3c-1 4.3 0 8.7 2.8 12.2l35 43.5c2.7 3.4 6.8 5.3 11.1 5.3l56.1 0c4.3 0 8.4-1.9 11.1-5.3l35-43.5c2.8-3.4 3.8-7.9 2.8-12.2l-12.5-54.3c-1-4.3-3.8-7.8-7.8-9.7L286.9 2.5C285 1.6 282.9 1.1 280.8 1.1L280.8 1.1z"/>
  <path fill="#FFFFFF" d="M331.5 87.3L331.5 87.3 331.5 87.3C331.5 87.3 331.5 87.3 331.5 87.3 331.4 87.3 331.4 87.3 331.5 87.3c-0.1 0-0.1 0-0.1 0 -0.1 0-0.2 0-0.2-0.1 -0.2 0-0.4-0.1-0.6-0.1 -0.7-0.1-1.3-0.2-1.9-0.2 -0.3 0-0.6 0-1-0.1l-0.1 0c-2.1-0.2-3.8-0.4-5.4-0.9 -0.7-0.3-0.9-0.7-1.1-1.1 0-0.1-0.1-0.1-0.1-0.2l0 0 0 0 0 0 0 0 0 0 -1.3-0.4c0.6-4.6 0.4-9.4-0.7-14.1 -1.1-4.7-3-9.1-5.6-13.1l1-0.9 0 0 0 0 0 0 0 0 0 0 0 0c0-0.1 0-0.1 0-0.2 0-0.5 0.1-1 0.5-1.5 1.2-1.1 2.7-2 4.5-3.1l0 0c0.3-0.2 0.6-0.3 0.9-0.5 0.6-0.3 1.1-0.6 1.7-1 0.1-0.1 0.3-0.2 0.5-0.4 0.1-0.1 0.2-0.1 0.2-0.2l0 0 0 0c1.4-1.2 1.7-3.2 0.7-4.5 -0.5-0.7-1.4-1.1-2.3-1.1 -0.8 0-1.5 0.3-2.2 0.8l0 0 0 0c0 0 0 0 0 0 0 0 0 0 0 0 0 0 0 0 0 0 -0.1 0.1-0.1 0.1-0.2 0.2 -0.2 0.1-0.3 0.3-0.5 0.4 -0.5 0.5-0.9 0.9-1.3 1.4 -0.2 0.2-0.4 0.5-0.7 0.7l0 0c-1.4 1.5-2.7 2.7-4 3.6 -0.3 0.2-0.6 0.3-0.9 0.3 -0.2 0-0.4 0-0.6-0.1 -0.1 0-0.1 0-0.2 0l0 0 0 0 0 0 0 0 0 0 -1.2 0.8c-1.3-1.4-2.7-2.6-4.1-3.8 -6-4.7-13.3-7.6-20.9-8.3l-0.1-1.3 0 0 0 0 0 0 0 0 0 0c-0.1-0.1-0.1-0.1-0.2-0.2 -0.3-0.3-0.7-0.6-0.8-1.3 -0.1-1.6 0.1-3.4 0.3-5.4l0-0.1c0-0.3 0.1-0.7 0.2-1 0.1-0.6 0.2-1.2 0.3-1.9 0-0.2 0-0.4 0-0.6 0-0.1 0-0.2 0-0.3 0 0 0 0 0 0 0 0 0 0 0 0 0 0 0 0 0 0v0l0 0c0-1.8-1.4-3.3-3.1-3.3 -0.8 0-1.6 0.4-2.2 1 -0.6 0.6-0.9 1.4-0.9 2.3l0 0v0c0 0 0 0 0 0 0 0 0 0 0 0 0 0 0 0 0 0 0 0.1 0 0.2 0 0.2 0 0.2 0 0.4 0 0.6 0 0.7 0.1 1.3 0.3 1.9 0.1 0.3 0.1 0.6 0.2 1l0 0.1c0.2 2 0.5 3.8 0.3 5.4 -0.1 0.7-0.5 1-0.8 1.3 -0.1 0.1-0.1 0.1-0.2 0.2l0 0 0 0 0 0 0 0 0 0 -0.1 1.3c-1.8 0.2-3.6 0.4-5.4 0.8 -7.7 1.7-14.5 5.6-19.8 11.2l-1-0.7 0 0 0 0 0 0 0 0 0 0 0 0c-0.1 0-0.1 0-0.2 0 -0.2 0-0.4 0.1-0.6 0.1 -0.3 0-0.6-0.1-0.9-0.3 -1.3-0.9-2.6-2.2-4-3.7l0 0c-0.2-0.2-0.4-0.5-0.7-0.7 -0.4-0.5-0.8-0.9-1.3-1.4 -0.1-0.1-0.3-0.2-0.5-0.4 -0.1-0.1-0.2-0.1-0.2-0.2l0 0 0 0c-0.6-0.5-1.4-0.8-2.2-0.8 -0.9 0-1.8 0.4-2.3 1.1 -1 1.3-0.7 3.3 0.7 4.5l0 0 0 0c0 0 0 0 0 0 0 0 0 0 0 0 0.1 0 0.1 0.1 0.2 0.1 0.2 0.1 0.3 0.3 0.5 0.4 0.6 0.4 1.1 0.7 1.7 1 0.3 0.1 0.6 0.3 0.9 0.5l0 0c1.8 1.1 3.3 2 4.5 3.1 0.5 0.5 0.5 1 0.5 1.5 0 0.1 0 0.1 0 0.2l0 0 0 0 0 0 0 0 0 0 1 0.9c-0.2 0.3-0.4 0.5-0.5 0.8 -5 7.9-6.9 17.2-5.6 26.4l-1.3 0.4 0 0 0 0 0 0 0 0 0 0 0 0c0 0.1-0.1 0.1-0.1 0.2 -0.2 0.4-0.5 0.8-1.1 1.1 -1.5 0.5-3.3 0.7-5.4 0.9l-0.1 0c-0.3 0-0.7 0-1 0.1 -0.6 0-1.2 0.1-1.9 0.2 -0.2 0-0.4 0.1-0.6 0.1 -0.1 0-0.2 0-0.3 0.1 0 0 0 0 0 0 0 0 0 0 0 0 0 0 0 0 0 0l0 0 0 0c-1.8 0.4-2.9 2.1-2.6 3.7 0.3 1.4 1.6 2.3 3.2 2.3 0.3 0 0.5 0 0.8-0.1l0 0 0 0c0 0 0 0 0 0 0 0 0 0 0 0 0 0 0 0 0 0 0.1 0 0.2 0 0.2-0.1 0.2 0 0.4-0.1 0.6-0.1 0.7-0.2 1.2-0.4 1.8-0.7 0.3-0.1 0.6-0.3 0.9-0.4l0.1 0c1.9-0.7 3.6-1.3 5.2-1.5 0.1 0 0.1 0 0.2 0 0.6 0 1 0.3 1.3 0.5 0.1 0 0.1 0.1 0.2 0.1l0 0 0 0 0 0 0 0 0 0 1.4-0.2c2.4 7.4 7 14 13.1 18.8 1.4 1.1 2.8 2 4.3 2.9l-0.6 1.3 0 0 0 0 0 0 0 0 0 0c0 0.1 0.1 0.1 0.1 0.2 0.2 0.4 0.4 0.9 0.2 1.6 -0.6 1.5-1.5 3-2.6 4.7l0 0.1c-0.2 0.3-0.4 0.5-0.6 0.8 -0.4 0.5-0.7 1-1.1 1.6 -0.1 0.1-0.2 0.3-0.3 0.5 0 0.1-0.1 0.2-0.1 0.2 0 0 0 0 0 0 0 0 0 0 0 0 0 0 0 0 0 0l0 0 0 0c-0.8 1.7-0.2 3.6 1.3 4.3 0.4 0.2 0.8 0.3 1.2 0.3 1.2 0 2.4-0.8 3-1.9l0 0 0 0c0 0 0 0 0 0 0 0 0 0 0 0 0 0 0 0 0 0 0-0.1 0.1-0.2 0.1-0.2 0.1-0.2 0.2-0.4 0.3-0.5 0.3-0.7 0.4-1.2 0.6-1.8 0.1-0.3 0.2-0.6 0.3-0.9l0 0c0.7-2 1.2-3.6 2.1-5 0.4-0.6 0.9-0.7 1.3-0.9 0.1 0 0.1 0 0.2-0.1l0 0 0 0 0 0 0 0 0 0 0.7-1.3c4.4 1.7 9.2 2.6 14 2.6 2.9 0 5.9-0.3 8.7-1 1.8-0.4 3.5-0.9 5.2-1.5l0.6 1.1 0 0 0 0 0 0 0 0 0 0 0 0c0.1 0 0.1 0 0.2 0.1 0.5 0.1 0.9 0.3 1.3 0.9 0.8 1.4 1.4 3.1 2.1 5l0 0.1c0.1 0.3 0.2 0.6 0.3 0.9 0.2 0.6 0.3 1.2 0.6 1.8 0.1 0.2 0.2 0.3 0.3 0.5 0 0.1 0.1 0.2 0.1 0.2 0 0 0 0 0 0 0 0 0 0 0 0 0 0 0 0 0 0l0 0 0 0c0.6 1.2 1.8 1.9 3 1.9 0.4 0 0.8-0.1 1.2-0.3 0.7-0.4 1.3-1 1.5-1.8 0.2-0.8 0.2-1.7-0.2-2.5l0 0 0 0c0 0 0 0 0 0 0 0 0 0 0 0 0 0 0 0 0 0 0-0.1-0.1-0.1-0.1-0.2 -0.1-0.2-0.2-0.4-0.3-0.5 -0.3-0.6-0.7-1.1-1.1-1.6 -0.2-0.3-0.4-0.5-0.6-0.8l0-0.1c-1.1-1.7-2.1-3.2-2.6-4.7 -0.2-0.7 0-1.1 0.1-1.6 0-0.1 0.1-0.1 0.1-0.2l0 0 0 0 0 0 0 0 0 0 -0.5-1.2c5.3-3.1 9.8-7.5 13.2-12.9 1.8-2.8 3.2-5.9 4.2-9l1.2 0.2 0 0 0 0 0 0 0 0 0 0 0 0c0.1 0 0.1-0.1 0.2-0.1 0.4-0.2 0.7-0.5 1.3-0.5 0.1 0 0.1 0 0.2 0 1.6 0.2 3.3 0.8 5.2 1.5l0.1 0c0.3 0.1 0.6 0.3 0.9 0.4 0.6 0.3 1.1 0.5 1.8 0.7 0.2 0 0.4 0.1 0.6 0.1 0.1 0 0.2 0 0.3 0.1l0 0 0 0c0.3 0.1 0.5 0.1 0.8 0.1 1.5 0 2.8-1 3.2-2.3C334.4 89.4 333.3 87.8 331.5 87.3zM285.2 82.4l-4.4 2.1 -4.4-2.1 -1.1-4.7 3-3.8 4.9 0 3 3.8L285.2 82.4zM311.3 72c0.8 3.4 1 6.8 0.7 10.1l-15.3-4.4 0 0c-1.4-0.4-2.2-1.8-1.9-3.2 0.1-0.4 0.3-0.8 0.6-1.1l12.1-10.9C309.2 65.3 310.5 68.5 311.3 72zM302.7 56.5l-13.1 9.3c-1.1 0.7-2.6 0.5-3.5-0.6 -0.3-0.3-0.4-0.7-0.5-1.1l-0.9-16.3C291.6 48.6 297.9 51.7 302.7 56.5zM273.7 48.3c1.1-0.2 2.1-0.4 3.2-0.6L276 63.7l0 0c-0.1 1.4-1.2 2.6-2.7 2.6 -0.4 0-0.9-0.1-1.2-0.3l-13.3-9.5C262.9 52.4 268 49.6 273.7 48.3zM254 62.5l11.9 10.6 0 0c1.1 0.9 1.2 2.6 0.3 3.7 -0.3 0.4-0.7 0.7-1.2 0.8l-15.5 4.5C248.9 75.3 250.4 68.4 254 62.5zM251.3 89.6l15.9-2.7c1.3-0.1 2.5 0.8 2.8 2.1 0.1 0.6 0.1 1.1-0.1 1.6l0 0 -6.1 14.7C258.2 101.7 253.7 96.2 251.3 89.6zM287.8 109.5c-2.3 0.5-4.6 0.8-7 0.8 -3.5 0-6.9-0.6-10.1-1.6l7.9-14.3c0.8-0.9 2.1-1.3 3.2-0.7 0.5 0.3 0.9 0.7 1.2 1.1h0l7.7 13.9C289.8 109 288.8 109.2 287.8 109.5zM307.3 95.6c-2.5 4-5.8 7.2-9.6 9.7l-6.3-15.1c-0.3-1.2 0.2-2.5 1.4-3.1 0.4-0.2 0.9-0.3 1.4-0.3l16 2.7C309.6 91.7 308.6 93.7 307.3 95.6z"/>
  <path fill="#FFFFFF" d="M156.7 209.1c0.7-0.8 1.3-1.6 2-2.5 0.7-0.9 1.4-1.8 2-2.7 0.6-0.9 1.3-1.8 1.9-2.7 0.6-0.9 1.1-1.7 1.6-2.5h8.2c-0.7 0.9-1.4 1.8-2.3 2.8 -0.9 1-1.7 2-2.6 3.1 -0.9 1-1.8 2-2.7 3 -0.9 1-1.7 1.9-2.5 2.7 0.9 0.9 1.9 2 3 3.2 1.1 1.2 2.1 2.5 3.2 3.9 1 1.3 2 2.7 2.9 4 0.9 1.3 1.6 2.5 2.1 3.6h-7.9c-0.4-0.9-1-2-1.8-3.1 -0.7-1.2-1.5-2.3-2.3-3.5 -0.8-1.1-1.6-2.2-2.5-3.2 -0.8-1-1.6-1.9-2.3-2.5v12.4h-6.9v-37.5l6.9-1.2V209.1L156.7 209.1zM198.5 224v-25.3h-6.9v20.6c-1 0.2-2.1 0.3-3.1 0.3 -1.7 0-2.8-0.6-3.4-1.8 -0.6-1.2-0.9-3-0.9-5.4v-13.7h-6.9v14.6c0 1.8 0.1 3.4 0.4 4.9 0.3 1.5 0.8 2.8 1.6 3.9 0.8 1.1 1.9 1.9 3.3 2.5 1.4 0.6 3.1 0.9 5.3 0.9 2.1 0 4.1-0.2 5.9-0.5C195.7 224.7 197.3 224.3 198.5 224L198.5 224zM221.2 211.6c0 2.9-0.5 4.9-1.6 6.2s-2.5 1.8-4.2 1.8c-0.4 0-0.9 0-1.5-0.1 -0.6 0-1.1-0.1-1.6-0.2v-14.2c0.5-0.3 1.1-0.5 1.9-0.8 0.7-0.2 1.5-0.3 2.2-0.3 1.6 0 2.9 0.7 3.6 2C220.8 207.3 221.2 209.2 221.2 211.6L221.2 211.6zM228.2 211.8c0-2-0.2-3.9-0.7-5.6 -0.4-1.7-1.1-3.1-2-4.3 -0.9-1.2-2-2.1-3.3-2.8 -1.3-0.6-2.8-1-4.5-1 -0.9 0-1.8 0.1-2.7 0.3 -0.9 0.2-1.8 0.5-2.8 0.9v-13.1l-6.9 1.2v36.7c1.3 0.4 2.8 0.7 4.7 1 1.9 0.3 3.7 0.4 5.5 0.4 2 0 3.8-0.3 5.3-1 1.6-0.6 2.9-1.6 4-2.8 1.1-1.2 1.9-2.6 2.5-4.3C227.9 215.8 228.2 213.9 228.2 211.8M231.6 212c0 2.2 0.3 4.2 1 5.8 0.7 1.7 1.6 3.1 2.9 4.2 1.2 1.1 2.7 2 4.5 2.6 1.8 0.6 3.8 0.9 6 0.9 1.7 0 3.2-0.1 4.5-0.4 1.3-0.3 2.6-0.6 3.8-1l-0.9-5.8c-0.9 0.3-1.9 0.6-3.1 0.9 -1.2 0.3-2.6 0.4-3.9 0.4 -2.2 0-4-0.5-5.5-1.5 -1.4-1-2.1-2.3-2.1-4h17c0-0.3 0.1-0.7 0.1-1.2 0-0.5 0-0.9 0-1.4 0-4.4-1-7.7-3-10 -2-2.3-4.9-3.4-8.8-3.4 -1.6 0-3.1 0.3-4.6 0.9 -1.5 0.6-2.8 1.5-4 2.6 -1.2 1.2-2.1 2.6-2.8 4.4C231.9 207.7 231.6 209.7 231.6 212L231.6 212zM249.1 209.3h-10.5c0.1-0.7 0.2-1.4 0.5-2.1 0.2-0.7 0.6-1.3 1-1.8 0.4-0.5 1-0.9 1.6-1.2 0.6-0.3 1.4-0.4 2.3-0.4 0.9 0 1.7 0.2 2.3 0.5 0.6 0.3 1.2 0.7 1.6 1.3 0.4 0.5 0.7 1.1 0.9 1.8C249 207.9 249.1 208.6 249.1 209.3L249.1 209.3zM282 205.7l1.2-6.4c-0.6-0.2-1.3-0.4-2.1-0.5 -0.8-0.1-1.6-0.2-2.4-0.3 -0.8-0.1-1.5-0.2-2.2-0.2 -0.7 0-1.2-0.1-1.6-0.1 -2.6 0-4.8 0.2-6.7 0.6 -1.9 0.4-3.8 0.9-5.6 1.6v24.5h6.9v-19.4c1-0.3 1.9-0.4 2.8-0.5 0.9-0.1 1.9-0.1 2.8-0.1 0.4 0 0.9 0 1.5 0.1 0.6 0 1.2 0.1 1.8 0.2 0.6 0.1 1.3 0.2 1.9 0.3C281.1 205.5 281.6 205.6 282 205.7L282 205.7zM289.1 224.9h6.9v-20.6c0.6-0.1 1.1-0.1 1.6-0.2 0.5 0 1-0.1 1.5-0.1 1.7 0 2.8 0.5 3.4 1.6 0.6 1.1 0.8 2.8 0.8 5.3v13.9h6.9v-14.8c0-1.8-0.2-3.4-0.5-4.9 -0.3-1.5-0.9-2.7-1.7-3.8 -0.8-1.1-1.9-1.9-3.3-2.5 -1.4-0.6-3.1-0.9-5.2-0.9 -2.1 0-4.1 0.1-5.9 0.4 -1.8 0.3-3.3 0.6-4.5 0.9V224.9zM315.1 212c0 2.2 0.3 4.2 1 5.8 0.7 1.7 1.6 3.1 2.9 4.2 1.2 1.1 2.7 2 4.5 2.6 1.8 0.6 3.8 0.9 6 0.9 1.7 0 3.2-0.1 4.5-0.4 1.3-0.3 2.6-0.6 3.8-1l-0.9-5.8c-0.9 0.3-1.9 0.6-3.1 0.9 -1.2 0.3-2.6 0.4-3.9 0.4 -2.2 0-4-0.5-5.5-1.5 -1.4-1-2.1-2.3-2.1-4h17c0-0.3 0.1-0.7 0.1-1.2 0-0.5 0-0.9 0-1.4 0-4.4-1-7.7-3-10 -2-2.3-4.9-3.4-8.8-3.4 -1.6 0-3.1 0.3-4.6 0.9 -1.5 0.6-2.8 1.5-4 2.6 -1.2 1.2-2.1 2.6-2.8 4.4C315.5 207.7 315.1 209.7 315.1 212L315.1 212zM322.2 209.3c0.1-0.7 0.2-1.4 0.5-2.1 0.2-0.7 0.6-1.3 1-1.8 0.4-0.5 1-0.9 1.6-1.2 0.7-0.3 1.4-0.4 2.3-0.4 0.9 0 1.7 0.2 2.3 0.5 0.6 0.3 1.2 0.7 1.6 1.3 0.4 0.5 0.7 1.1 0.9 1.8 0.2 0.6 0.3 1.3 0.3 2H322.2zM349.2 204.4v10.8c0 2.2 0.2 4 0.7 5.3 0.4 1.4 1.1 2.4 2 3.1 0.9 0.7 1.9 1.2 3.1 1.5 1.2 0.3 2.6 0.4 4.2 0.4 1.4 0 2.8-0.1 4.3-0.3 1.5-0.2 2.8-0.6 4.1-1.1l-0.9-5.9c-0.6 0.3-1.2 0.5-1.8 0.7 -0.5 0.2-1.1 0.3-1.6 0.4 -0.5 0.1-1 0.2-1.6 0.2 -0.5 0-1.1 0.1-1.8 0.1 -0.6 0-1.1-0.1-1.6-0.2 -0.5-0.1-0.9-0.3-1.2-0.7 -0.3-0.3-0.6-0.8-0.8-1.4 -0.2-0.6-0.3-1.4-0.3-2.3v-10.6h11v-5.7h-11V191l-6.9 1.1v6.6h-6v5.7L349.2 204.4 349.2 204.4zM370.8 212c0 2.2 0.3 4.2 1 5.8 0.7 1.7 1.6 3.1 2.9 4.2 1.2 1.1 2.7 2 4.5 2.6 1.8 0.6 3.8 0.9 6 0.9 1.7 0 3.2-0.1 4.5-0.4 1.3-0.3 2.6-0.6 3.8-1l-0.9-5.8c-0.9 0.3-1.9 0.6-3.1 0.9 -1.2 0.3-2.6 0.4-3.9 0.4 -2.2 0-4-0.5-5.5-1.5 -1.4-1-2.1-2.3-2.1-4h17c0-0.3 0.1-0.7 0.1-1.2 0-0.5 0-0.9 0-1.4 0-4.4-1-7.7-3-10 -2-2.3-4.9-3.4-8.8-3.4 -1.6 0-3.1 0.3-4.6 0.9 -1.5 0.6-2.8 1.5-4 2.6 -1.2 1.2-2.1 2.6-2.8 4.4C371.2 207.7 370.8 209.7 370.8 212L370.8 212zM388.4 209.3h-10.5c0.1-0.7 0.2-1.4 0.5-2.1 0.2-0.7 0.6-1.3 1-1.8 0.4-0.5 1-0.9 1.6-1.2 0.6-0.3 1.4-0.4 2.3-0.4 0.9 0 1.7 0.2 2.3 0.5 0.6 0.3 1.2 0.7 1.6 1.3 0.4 0.5 0.7 1.1 0.9 1.8C388.3 207.9 388.4 208.6 388.4 209.3L388.4 209.3zM409.7 219.7c-1.5 0-3-0.2-4.5-0.7 -1.5-0.4-2.9-0.9-4.2-1.4l-1.1 5.7c1 0.4 2.2 0.9 3.8 1.4 1.6 0.5 3.5 0.8 5.8 0.8 2.2 0 4.1-0.2 5.6-0.6 1.5-0.4 2.8-1 3.7-1.7 0.9-0.7 1.6-1.5 2-2.5 0.4-1 0.6-2 0.6-3.1 0-1.4-0.3-2.5-0.8-3.5 -0.6-0.9-1.3-1.7-2.1-2.3 -0.9-0.6-1.8-1.1-2.9-1.5 -1.1-0.4-2.1-0.8-3.1-1.1 -0.7-0.2-1.4-0.5-2-0.7 -0.6-0.2-1.2-0.5-1.6-0.8 -0.5-0.3-0.8-0.5-1.1-0.9 -0.3-0.3-0.4-0.7-0.4-1.1 0-0.5 0.3-0.9 0.9-1.4 0.6-0.4 1.8-0.6 3.5-0.6 1.7 0 3.2 0.2 4.5 0.6s2.3 0.7 3 0.9l1.1-5.8c-1.1-0.5-2.3-0.9-3.8-1.1 -1.5-0.3-3.1-0.4-4.8-0.4 -2 0-3.7 0.2-5.1 0.6 -1.4 0.4-2.6 1-3.5 1.8 -0.9 0.8-1.6 1.6-2 2.6 -0.4 1-0.6 2-0.6 3.1 0 1.4 0.3 2.5 0.8 3.4 0.6 0.9 1.3 1.7 2.1 2.3 0.9 0.6 1.8 1.1 2.8 1.5 1 0.4 2.1 0.7 3.1 1 0.7 0.2 1.4 0.4 2 0.7 0.6 0.2 1.2 0.5 1.7 0.7 0.5 0.2 0.9 0.5 1.2 0.9 0.3 0.3 0.4 0.7 0.4 1.2 0 0.7-0.4 1.2-1.3 1.5C412.6 219.6 411.3 219.7 409.7 219.7"/>
  <path fill="#09C1D1" d="M433.2 223.2h-0.8v-7.2h0.9v2.6c0.4-0.5 0.8-0.7 1.4-0.7 0.3 0 0.6 0.1 0.9 0.2 0.3 0.1 0.5 0.3 0.7 0.5 0.2 0.2 0.3 0.5 0.4 0.8 0.1 0.3 0.2 0.7 0.2 1.1 0 0.9-0.2 1.6-0.7 2.1 -0.4 0.5-1 0.7-1.6 0.7 -0.6 0-1.1-0.3-1.4-0.8V223.2zM433.2 220.6c0 0.6 0.1 1.1 0.3 1.3 0.3 0.5 0.7 0.7 1.1 0.7 0.4 0 0.7-0.2 1-0.5 0.3-0.3 0.4-0.8 0.4-1.5 0-0.7-0.1-1.2-0.4-1.5 -0.3-0.3-0.6-0.5-1-0.5 -0.4 0-0.7 0.2-1 0.5C433.3 219.5 433.2 219.9 433.2 220.6M437.9 225.2c0.2 0.1 0.4 0.1 0.6 0.1 0.3 0 0.5-0.1 0.7-0.2 0.2-0.1 0.4-0.3 0.5-0.6 0.1-0.2 0.3-0.6 0.5-1.2l2-5.3h-0.9l-1.1 3c-0.1 0.4-0.3 0.8-0.4 1.2 -0.1-0.4-0.2-0.8-0.4-1.2l-1.1-3h-0.9l2 5.2c0 0.1-0.1 0.2-0.1 0.2 -0.1 0.3-0.2 0.6-0.3 0.7 -0.1 0.1-0.2 0.2-0.3 0.3 -0.1 0.1-0.3 0.1-0.5 0.1 -0.1 0-0.3 0-0.5-0.1L437.9 225.2M527.7 210.1l-0.2 0.1c0 0 0.2 0 0.2 0 0.1 0 0.1 0 0.1 0.1 0 0 0 0 0 0.1 0 0.1-0.1 0.5-0.1 0.6 0 0.1 0 0.3 0 0.4 0 0.1 0 0.1 0 0.2 0 0 0 0 0 0l-0.1 0.1h0.4l0.1-0.1 -0.2 0c-0.1 0-0.1 0-0.1-0.1 0 0 0-0.4 0-0.5 0-0.2 0-0.4 0.1-0.6 0.2 0.4 0.4 1.1 0.5 1.3 0.1 0 0.3-0.1 0.4-0.1l0-0.1c0-0.1 0-0.1 0.2-0.5 0.1-0.2 0.1-0.3 0.2-0.5l0 0 0 0c0 0.1 0 0.3 0 0.4 0 0.1 0 0.3 0 0.4 0 0.2 0 0.3 0.1 0.4 0.1 0.1 0.2 0.1 0.2 0.1 0.1 0 0.2 0 0.3 0 -0.1-0.1-0.1-0.1-0.2-0.3 0-0.2-0.1-0.4-0.1-0.5 0-0.1 0-0.3 0-0.4 0 0 0-0.1 0-0.1 0-0.1 0-0.1 0.1-0.2l0.1 0h-0.7l-0.2 0.1 0.2 0c0 0 0.1 0 0.1 0 0 0 0 0 0 0.1 -0.1 0.1-0.1 0.3-0.2 0.4 -0.1 0.2-0.2 0.4-0.2 0.6 0 0 0 0 0 0 -0.1-0.2-0.2-0.4-0.3-0.6 -0.1-0.2-0.2-0.4-0.3-0.6 0 0 0 0 0 0L527.7 210.1 527.7 210.1zM527.6 210.1h-1.5l-0.1 0.3 0.1 0c0.1-0.1 0.1-0.1 0.2-0.1h0.3c0 0 0 0 0 0.1 0 0.2 0 0.4 0 0.6 0 0.1 0 0.2 0 0.3 0 0.1 0 0.3 0 0.3 0 0 0 0.1-0.1 0.1l0 0.1h0.7l0.1-0.1 -0.2 0c-0.1 0-0.1 0-0.1-0.1 0-0.1 0-0.1 0-0.2 0-0.1 0-0.2 0-1.1h0.3c0.1 0 0.1 0 0.1 0.1 0 0 0 0.1 0 0.1l0.1 0L527.6 210.1 527.6 210.1zM522.1 214.3c0.5-0.2 0.8-0.4 0.8-0.8 0-1.1-1.3-2.4-2.8-2.4 -1.1 0-3.2 0.9-3.2 3.9 0 0.5 0.1 1 0.1 1.5L522.1 214.3 522.1 214.3zM524.8 222.7c-0.3 0.2-0.6 0.4-0.9 0.5 -0.9 0.4-1.9 0.5-2.7 0.5 -0.9 0-2.3-0.1-3.8-1.1 -2-1.4-2.9-3.8-2.9-6 0-4.4 3.6-6.5 6.5-6.5 1 0 2.1 0.3 2.9 0.8 1.4 0.9 1.8 2.1 2 2.8l-6.6 2.7 -2.2 0.2c0.7 3.6 3.1 5.7 5.8 5.7 1.4 0 2.5-0.5 3.4-1L524.8 222.7 524.8 222.7zM513.8 223.3l1-0.6c-0.5-0.1-1-0.1-1.4-0.1 -0.9-0.1-1.1-0.3-1.1-1.4v-6.5c0-4 0-7.5 0.3-9.6 0.1-1 0.4-1.2 1.3-1.7h-4l-2.1 1h2.2c0 1.3-0.1 3.1-0.2 4.5 -0.1 2.9-0.1 6.1-0.1 8.3v4.6c0 0.6-0.1 0.6-0.8 1.5H513.8L513.8 223.3zM503.3 218.7c0.6-0.7 0.7-1.6 0.7-2.1 0-2-1.2-5.2-3.6-5.2 -0.7 0-1.5 0.4-2 0.9 -0.5 0.6-0.6 1.4-0.6 2.1 0 1.9 1.1 5 3.5 5C502.1 219.5 502.9 219.1 503.3 218.7zM502.5 224.1c-0.2 0-0.4 0-0.6 0 -0.3 0-1.8 0.1-3 0.5 -0.6 0.2-2.4 0.9-2.4 2.9 0 2 1.9 3.4 5 3.4 2.7 0 4.2-1.3 4.2-3C505.6 226.3 504.7 225.6 502.5 224.1L502.5 224.1zM504.5 211.5c0.6 0.5 2 1.7 2 3.8 0 2.1-1.2 3.1-2.4 4 -0.4 0.4-0.8 0.8-0.8 1.4 0 0.6 0.4 1 0.7 1.2l1 0.8c1.2 1 2.4 2 2.4 4 0 2.7-2.6 5.3-7.4 5.3 -4.1 0-6.1-1.9-6.1-4 0-1 0.5-2.5 2.2-3.4 1.8-1.1 4.1-1.2 5.4-1.3 -0.4-0.5-0.8-1-0.8-1.9 0-0.5 0.1-0.8 0.3-1.1 -0.3 0-0.6 0.1-0.9 0.1 -3 0-4.7-2.2-4.7-4.4 0-1.3 0.6-2.7 1.8-3.8 1.6-1.3 3.5-1.6 5.1-1.6h5.8l-1.8 1L504.5 211.5 504.5 211.5zM490.5 221.4c0.7-0.9 0.8-2 0.8-3.1 0-2.5-1.2-7.2-4.7-7.2 -0.9 0-1.9 0.4-2.5 1 -1.1 1-1.3 2.2-1.3 3.4 0 2.8 1.4 7.4 4.8 7.4C488.8 222.8 489.9 222.3 490.5 221.4zM487 223.7c-4.5 0-6.9-3.5-6.9-6.7 0-3.7 3-6.9 7.3-6.9 4.2 0 6.8 3.2 6.8 6.7C494.2 220.1 491.6 223.7 487 223.7M475.5 221.4c0.7-0.9 0.8-2 0.8-3.1 0-2.5-1.2-7.2-4.7-7.2 -0.9 0-1.9 0.4-2.5 1 -1.1 1-1.3 2.2-1.3 3.4 0 2.8 1.4 7.4 4.8 7.4C473.7 222.8 474.9 222.3 475.5 221.4zM472 223.7c-4.5 0-6.9-3.5-6.9-6.7 0-3.7 3-6.9 7.3-6.9 4.2 0 6.7 3.2 6.7 6.7C479.2 220.1 476.6 223.7 472 223.7M463.3 222.7v-3.2c0-0.3 0-1 0.1-1.3 0.1-0.2 0.1-0.3 0.3-0.4l0.7-0.7h-5.6l-2.1 1.1 4-0.2v4.3c-0.8 0.3-1.7 0.7-3.4 0.7 -5.8 0-9.4-4.7-9.4-9.7 0-4.6 3.2-7.8 7.3-7.8 3.1 0 4.8 1.6 5.7 2.5l-0.7 1.1 0.9-0.2 2.2-2.1c-0.6-0.4-1.5-1.1-3.5-1.6 -1.2-0.3-2.6-0.6-4.1-0.6 -6.8 0-10.7 4.8-10.7 9.9 0 4.2 2.8 9.6 10.1 9.6 1.5 0 2.8-0.2 4.4-0.4L463.3 222.7 463.3 222.7z"/>
</svg>
