<?xml version="1.0" encoding="utf-8"?>
<!-- Generator: Adobe Illustrator 18.0.0, SVG Export Plug-In . SVG Version: 6.00 Build 0)  -->
<!DOCTYPE svg PUBLIC "-//W3C//DTD SVG 1.1//EN" "http://www.w3.org/Graphics/SVG/1.1/DTD/svg11.dtd">
<svg version="1.1" id="Layer_1" xmlns="http://www.w3.org/2000/svg" xmlns:xlink="http://www.w3.org/1999/xlink" x="0px" y="0px"
	 viewBox="-124 -12.3 271 40.6" enable-background="new -124 -12.3 271 40.6" xml:space="preserve">
<path fill="#326DE6" d="M-84,15l-8.9,10.9c-0.8,1-1.9,1.6-3.2,1.6h-14.1c-1.2,0-2.4-0.7-3.2-1.6l-8.9-10.9c-0.7-0.9-1-2.3-0.7-3.5
	l3-13.6c0.2-1.1,1.1-2.3,2.3-2.7l12.7-6.1c0.5-0.2,1.1-0.5,1.7-0.5c0.6,0,1.2,0.2,1.8,0.5l12.7,6.1c1.1,0.5,2,1.6,2.3,2.7l3,13.6
	C-82.9,12.7-83.3,14.1-84,15z"/>
<path fill="#FFFFFF" d="M-82.4,11.7l-3.2-14.3c-0.2-1.2-1.2-2.4-2.4-2.8l-13.3-6.4c-0.6-0.2-1.3-0.5-1.9-0.5c-0.6,0-1.3,0.2-1.8,0.5
	l-13.3,6.4c-1.2,0.5-2.1,1.6-2.4,2.8l-3.2,14.3c-0.4,1.3,0,2.7,0.7,3.7l9.3,11.4c0.8,0.9,2,1.6,3.3,1.6h14.7c1.3,0,2.5-0.6,3.3-1.6
	l9.3-11.4C-82.4,14.4-81.9,12.9-82.4,11.7z M-84.5,14.2l-9.2,11.4c-0.5,0.7-1.2,0.9-2,0.9h-14.7c-0.7,0-1.5-0.4-2-0.9l-9.2-11.4
	c-0.5-0.6-0.6-1.4-0.5-2.1l3.3-14.4c0.1-0.7,0.7-1.3,1.3-1.6l13.3-6.4c0.4-0.1,0.7-0.1,1.1-0.1c0.4,0,0.7,0,1.1,0.2l13.3,6.4
	c0.7,0.4,1.2,0.9,1.4,1.6l3.3,14.3C-83.9,12.8-84.1,13.7-84.5,14.2z"/>
<path fill="#FFFFFF" d="M-89.8,11L-89.8,11L-89.8,11L-89.8,11C-89.8,11-89.9,11-89.8,11C-89.9,11-89.9,11-89.8,11
	C-89.9,10.9-89.9,10.9-89.8,11c-0.2,0-0.2-0.1-0.3-0.1c-0.2,0-0.4,0-0.5-0.1c-0.1,0-0.2,0-0.3,0l0,0c-0.5-0.1-1-0.1-1.4-0.3
	c-0.2-0.1-0.3-0.2-0.3-0.3c0,0,0,0,0-0.1l0,0l0,0l0,0l0,0l0,0l-0.4-0.1c0.2-1.2,0.1-2.4-0.2-3.7s-0.8-2.3-1.4-3.4l0.3-0.3l0,0l0,0
	l0,0l0,0l0,0l0,0c0,0,0,0,0-0.1s0-0.3,0.2-0.4c0.3-0.3,0.7-0.5,1.2-0.8l0,0c0.1,0,0.2-0.1,0.2-0.1c0.2-0.1,0.3-0.2,0.5-0.3l0.1-0.1
	c0,0,0,0,0.1-0.1l0,0l0,0c0.4-0.3,0.5-0.8,0.2-1.2c-0.2-0.2-0.4-0.3-0.6-0.3c-0.2,0-0.4,0.1-0.5,0.2l0,0l0,0l0,0l0,0l0,0
	c0,0,0,0-0.1,0l-0.1,0.1c-0.2,0.1-0.3,0.3-0.4,0.4c-0.1,0.1-0.1,0.1-0.2,0.2l0,0c-0.4,0.4-0.7,0.7-1.1,1c-0.1,0.1-0.2,0.1-0.3,0.1
	s-0.1,0-0.2,0c0,0,0,0-0.1,0l0,0l0,0l0,0l0,0l0,0l-0.3,0.2c-0.4-0.4-0.7-0.7-1.1-1c-1.5-1.3-3.5-2-5.5-2.2V-2l0,0l0,0l0,0l0,0l0,0
	l0,0c-0.1-0.1-0.2-0.2-0.2-0.4c0-0.5,0-0.9,0.1-1.4l0,0c0-0.1,0-0.2,0-0.3c0.1-0.1,0.1-0.2,0.1-0.4c0,0,0-0.1,0-0.2v-0.1l0,0l0,0
	l0,0l0,0l0,0c0-0.5-0.4-0.9-0.8-0.9c-0.2,0-0.5,0.1-0.5,0.3c-0.2,0.2-0.3,0.4-0.3,0.6l0,0l0,0l0,0l0,0l0,0c0,0,0,0,0,0.1
	c0,0.1,0,0.1,0,0.2c0,0.2,0,0.4,0.1,0.5c0,0.1,0,0.2,0,0.3l0,0c0.1,0.5,0.1,1,0.1,1.4c0,0.2-0.1,0.3-0.2,0.4l0,0l0,0l0,0l0,0l0,0
	l0,0v0.4c-0.5,0-1,0.1-1.4,0.2c-2,0.5-3.8,1.4-5.1,3l-0.3-0.2l0,0l0,0l0,0l0,0l0,0l0,0c0,0,0,0-0.1,0s-0.1,0-0.2,0
	c-0.1,0-0.2,0-0.3-0.1c-0.4-0.3-0.7-0.5-1.1-1l0,0c-0.1-0.1-0.1-0.1-0.2-0.2c-0.1-0.1-0.2-0.3-0.4-0.4l-0.1-0.1c0,0,0,0-0.1-0.1l0,0
	l0,0c-0.2-0.1-0.4-0.2-0.5-0.2c-0.3,0-0.5,0.1-0.6,0.3c-0.3,0.4-0.2,0.9,0.2,1.2l0,0l0,0l0,0l0,0l0,0l0.1,0.1
	c0.2,0.1,0.3,0.2,0.5,0.3c0.1,0,0.2,0.1,0.3,0.1l0,0c0.5,0.3,0.9,0.5,1.2,0.8c0.1,0.1,0.1,0.3,0.2,0.4c0,0,0,0,0,0.1l0,0l0,0l0,0
	l0,0l0,0l0.3,0.3c-0.1,0.1-0.1,0.2-0.2,0.2c-1.4,2.1-1.8,4.5-1.4,7l-0.4,0.2l0,0l0,0l0,0l0,0l0,0l0,0c0,0,0,0,0,0.1
	c-0.1,0.1-0.1,0.2-0.3,0.3c-0.4,0.1-0.9,0.2-1.4,0.3l0,0c-0.1,0-0.2,0-0.3,0c-0.2,0-0.4,0-0.5,0.1c0,0-0.1,0-0.2,0h-0.1l0,0l0,0l0,0
	l0,0l0,0c-0.5,0.1-0.7,0.5-0.6,1c0.1,0.4,0.5,0.6,0.8,0.6c0.1,0,0.1,0,0.2,0l0,0l0,0l0,0l0,0l0,0c0,0,0,0,0.1,0s0.1,0,0.2,0
	c0.2-0.1,0.4-0.1,0.5-0.2c0.1,0,0.2-0.1,0.3-0.1l0,0c0.5-0.2,0.9-0.4,1.4-0.4c0,0,0,0,0.1,0c0.2,0,0.3,0.1,0.4,0.1c0,0,0,0,0.1,0
	l0,0l0,0l0,0l0,0l0,0l0.4-0.1c0.6,1.9,1.8,3.7,3.4,5c0.4,0.3,0.7,0.5,1.1,0.8l-0.2,0.4l0,0l0,0l0,0l0,0l0,0c0,0,0,0,0,0.1
	c0.1,0.1,0.1,0.3,0,0.5c-0.2,0.4-0.4,0.8-0.7,1.3l0,0c-0.1,0.1-0.1,0.2-0.2,0.2c-0.1,0.1-0.2,0.3-0.3,0.5c0,0,0,0.1-0.1,0.2
	c0,0,0,0,0,0.1l0,0l0,0l0,0l0,0l0,0c-0.2,0.5-0.1,0.9,0.4,1.2c0.1,0.1,0.2,0.1,0.4,0.1c0.4,0,0.6-0.2,0.8-0.5l0,0l0,0l0,0l0,0l0,0
	c0,0,0,0,0-0.1s0.1-0.1,0.1-0.2c0.1-0.2,0.1-0.4,0.2-0.5c0-0.1,0-0.2,0.1-0.3l0,0c0.2-0.5,0.4-1,0.5-1.4c0.1-0.2,0.2-0.2,0.4-0.2
	c0,0,0,0,0.1,0l0,0l0,0l0,0l0,0l0,0l0.2-0.4c1.2,0.5,2.4,0.7,3.7,0.7c0.7,0,1.5-0.1,2.3-0.3c0.5-0.1,0.9-0.3,1.4-0.4l0.2,0.3l0,0
	l0,0l0,0l0,0l0,0l0,0c0,0,0,0,0.1,0s0.3,0.1,0.4,0.2c0.2,0.4,0.4,0.8,0.5,1.4l0,0c0,0.1,0.1,0.2,0.1,0.3c0,0.2,0.1,0.3,0.2,0.5
	c0,0,0,0.1,0.1,0.2c0,0,0,0,0,0.1l0,0l0,0l0,0l0,0l0,0c0.2,0.3,0.5,0.5,0.8,0.5c0.1,0,0.2,0,0.4-0.1s0.4-0.3,0.4-0.5
	c0.1-0.2,0-0.5-0.1-0.6l0,0l0,0l0,0l0,0l0,0c0,0,0,0,0-0.1s-0.1-0.1-0.1-0.2c-0.1-0.2-0.2-0.3-0.3-0.5c-0.1-0.1-0.1-0.2-0.2-0.2l0,0
	c-0.3-0.5-0.5-0.8-0.7-1.3c-0.1-0.2,0-0.3,0-0.5c0,0,0,0,0-0.1l0,0l0,0l0,0l0,0l0,0l-0.1-0.5c1.4-0.8,2.6-2,3.4-3.3
	c0.5-0.7,0.8-1.5,1.1-2.3l0.4,0.1l0,0l0,0l0,0l0,0l0,0l0,0c0,0,0,0,0.1,0c0.1-0.1,0.2-0.1,0.4-0.1l0,0c0.5,0.1,0.9,0.2,1.4,0.4l0,0
	c0.1,0,0.2,0.1,0.3,0.1c0.2,0.1,0.3,0.1,0.5,0.2c0,0,0.1,0,0.2,0h0.1l0,0l0,0c0.1,0,0.1,0,0.2,0c0.4,0,0.7-0.3,0.8-0.6
	C-89,11.5-89.3,11.1-89.8,11z M-102,9.6l-1.2,0.5l-1.2-0.5l-0.3-1.2l0.8-1h1.3l0.8,1L-102,9.6z M-95.1,6.9c0.2,0.9,0.3,1.8,0.2,2.6
	L-99,8.4l0,0c-0.4-0.1-0.5-0.5-0.5-0.8c0-0.1,0.1-0.2,0.2-0.3l3.2-2.9C-95.6,5.2-95.3,6-95.1,6.9z M-97.4,2.9l-3.4,2.4
	c-0.3,0.2-0.7,0.1-0.9-0.2c-0.1-0.1-0.1-0.2-0.1-0.3l-0.3-4.2C-100.2,0.8-98.6,1.6-97.4,2.9z M-104.9,0.7c0.3-0.1,0.5-0.1,0.8-0.2
	l-0.3,4.2l0,0c0,0.4-0.4,0.6-0.7,0.6c-0.1,0-0.3,0-0.4-0.1l-3.5-2.4C-107.8,1.8-106.5,1-104.9,0.7z M-110.2,4.4l3.2,2.8l0,0
	c0.3,0.3,0.4,0.6,0.1,1c-0.1,0.1-0.2,0.2-0.3,0.2l-4.1,1.2C-111.5,7.8-111.1,6-110.2,4.4z M-110.8,11.5l4.2-0.7
	c0.4,0,0.6,0.2,0.7,0.5c0,0.2,0,0.3,0,0.5l0,0l-1.6,3.9C-109,14.7-110.2,13.2-110.8,11.5z M-101.2,16.8c-0.6,0.2-1.2,0.2-1.8,0.2
	c-0.9,0-1.8-0.2-2.6-0.5l2.1-3.8c0.2-0.3,0.5-0.4,0.8-0.2c0.2,0.1,0.3,0.2,0.3,0.3l0,0l2,3.6C-100.7,16.7-101,16.7-101.2,16.8z
	 M-96.2,13.1c-0.6,1.1-1.5,1.9-2.5,2.5l-1.6-4c-0.1-0.4,0.1-0.6,0.4-0.8c0.1-0.1,0.3-0.1,0.4-0.1l4.2,0.7
	C-95.5,12.1-95.8,12.6-96.2,13.1z"/>
<path id="path254" fill="#FFFFFF" d="M-65.4,9c0.3-0.4,0.6-0.7,1-1.2c0.4-0.5,0.6-0.8,0.9-1.3s0.6-0.9,0.9-1.3
	c0.3-0.5,0.5-0.8,0.7-1.2h3.9c-0.3,0.4-0.6,0.8-1.1,1.4c-0.4,0.5-0.8,1-1.3,1.4c-0.5,0.5-0.9,1-1.3,1.4c-0.5,0.5-0.8,0.9-1.2,1.3
	c0.5,0.5,0.9,0.9,1.4,1.5c0.5,0.6,1,1.2,1.5,1.8c0.5,0.6,0.9,1.3,1.4,1.9c0.5,0.6,0.7,1.2,1,1.7h-3.7c-0.2-0.5-0.5-0.9-0.8-1.4
	c-0.4-0.5-0.7-1.1-1.1-1.6c-0.4-0.5-0.8-1.1-1.2-1.5c-0.4-0.5-0.7-0.9-1.1-1.2v5.9h-3.3V-1.2l3.3-0.5L-65.4,9L-65.4,9z"/>
<path id="path256" fill="#FFFFFF" d="M-45.6,16c-0.6,0.2-1.4,0.3-2.2,0.5c-0.8,0.2-1.8,0.3-2.8,0.3c-1,0-1.8-0.2-2.5-0.5
	c-0.6-0.3-1.2-0.7-1.5-1.2c-0.4-0.5-0.6-1.1-0.8-1.8c-0.2-0.7-0.2-1.4-0.2-2.3V4.1h3.3v6.5c0,1.2,0.2,2,0.5,2.5
	c0.3,0.5,0.8,0.8,1.6,0.8c0.5,0,1,0,1.4-0.1V4.1h3.3V16L-45.6,16z"/>
<path id="path258" fill="#FFFFFF" d="M-34.9,10.3c0-1.2-0.2-2.1-0.5-2.6c-0.4-0.6-1-0.9-1.7-0.9c-0.4,0-0.7,0.1-1,0.2
	c-0.4,0.1-0.6,0.2-0.9,0.4v6.6c0.3,0.1,0.5,0.1,0.8,0.1c0.3,0,0.5,0,0.7,0c0.8,0,1.5-0.3,2-0.8C-35.1,12.5-34.9,11.6-34.9,10.3
	L-34.9,10.3z M-31.6,10.3c0,1-0.1,1.9-0.4,2.7c-0.3,0.8-0.6,1.4-1.2,2.1c-0.5,0.5-1.2,1-1.9,1.3c-0.7,0.3-1.5,0.5-2.5,0.5
	c-0.8,0-1.7-0.1-2.6-0.2s-1.6-0.3-2.2-0.5V-1.2l3.3-0.5v6.1c0.5-0.2,0.9-0.4,1.4-0.5c0.5-0.1,0.8-0.1,1.3-0.1c0.8,0,1.5,0.2,2.2,0.5
	c0.6,0.3,1.1,0.7,1.5,1.4c0.5,0.5,0.7,1.3,0.9,2.1C-31.7,8.5-31.6,9.4-31.6,10.3"/>
<path id="path260" fill="#FFFFFF" d="M-30,10.4c0-1.1,0.2-2.1,0.5-2.9c0.4-0.8,0.8-1.5,1.4-2.1c0.5-0.5,1.2-1,1.9-1.3
	c0.7-0.3,1.4-0.5,2.2-0.5c1.8,0,3.3,0.5,4.2,1.6c0.9,1.1,1.4,2.6,1.4,4.7c0,0.2,0,0.5,0,0.6c0,0.3,0,0.5,0,0.5h-8
	c0,0.8,0.4,1.4,1,1.9c0.6,0.5,1.5,0.7,2.6,0.7c0.6,0,1.3-0.1,1.9-0.2c0.6-0.2,1.1-0.3,1.4-0.5L-19,16c-0.5,0.2-1.2,0.4-1.8,0.5
	c-0.6,0.1-1.4,0.2-2.2,0.2c-1.1,0-2-0.2-2.8-0.5c-0.8-0.3-1.5-0.6-2.2-1.2c-0.5-0.5-1-1.2-1.4-2C-29.9,12.3-30,11.4-30,10.4
	L-30,10.4z M-21.7,9.1c0-0.4,0-0.6-0.1-1c-0.1-0.3-0.3-0.5-0.5-0.8C-22.5,7-22.7,6.8-23,6.6c-0.3-0.2-0.6-0.2-1.1-0.2
	c-0.5,0-0.8,0.1-1.1,0.2c-0.3,0.2-0.5,0.4-0.7,0.5c-0.2,0.3-0.4,0.5-0.5,0.8c-0.1,0.3-0.2,0.6-0.2,1L-21.7,9.1L-21.7,9.1z"/>
<path id="path262" fill="#FFFFFF" d="M-6.2,7.4c-0.2-0.1-0.5-0.1-0.7-0.2C-7.2,7.1-7.5,7.1-7.8,7c-0.3,0-0.5-0.1-0.9-0.1
	c-0.3,0-0.5,0-0.7,0c-0.5,0-0.9,0-1.4,0.1c-0.5,0-0.9,0.1-1.4,0.3v9.2h-3.3V4.9c0.9-0.3,1.7-0.5,2.6-0.7c0.9-0.2,2-0.3,3.2-0.3
	c0.2,0,0.5,0,0.7,0c0.4,0,0.6,0.1,1,0.1c0.4,0,0.7,0.1,1.1,0.2c0.4,0.1,0.7,0.2,1,0.3L-6.2,7.4L-6.2,7.4z"/>
<path id="path264" fill="#FFFFFF" d="M-2.9,4.5C-2.3,4.3-1.6,4.2-0.7,4c0.8-0.2,1.8-0.2,2.8-0.2S3.9,4,4.5,4.3s1.2,0.6,1.5,1.2
	C6.4,6,6.7,6.6,6.9,7.3s0.3,1.4,0.3,2.3v7H3.9V10c0-1.2-0.1-2-0.4-2.5C3.3,6.9,2.7,6.7,1.9,6.7c-0.3,0-0.5,0-0.7,0s-0.5,0-0.7,0.1
	v9.7h-3.3L-2.9,4.5L-2.9,4.5z"/>
<path id="path266" fill="#FFFFFF" d="M9.4,10.4c0-1.1,0.2-2.1,0.5-2.9c0.4-0.8,0.8-1.5,1.4-2.1c0.5-0.5,1.2-1,1.9-1.3
	s1.4-0.5,2.2-0.5c1.8,0,3.3,0.5,4.2,1.6C20.4,6.5,21,8,21,10.1c0,0.2,0,0.5,0,0.6c0,0.3,0,0.5,0,0.5h-8c0,0.8,0.4,1.4,1,1.9
	c0.6,0.5,1.5,0.7,2.6,0.7c0.6,0,1.3-0.1,1.9-0.2c0.6-0.2,1.1-0.3,1.4-0.5l0.5,2.8c-0.5,0.2-1.2,0.4-1.8,0.5
	c-0.6,0.1-1.4,0.2-2.2,0.2c-1.1,0-2-0.2-2.8-0.5c-0.8-0.3-1.5-0.6-2.2-1.2c-0.5-0.5-1-1.2-1.4-2C9.6,12.3,9.4,11.4,9.4,10.4
	L9.4,10.4z M17.7,9.1c0-0.4,0-0.6-0.1-1c-0.1-0.3-0.3-0.5-0.5-0.8C17,7,16.7,6.8,16.5,6.6c-0.3-0.2-0.6-0.2-1.1-0.2
	s-0.8,0.1-1.1,0.2C14,6.8,13.8,7,13.6,7.2c-0.2,0.3-0.4,0.5-0.5,0.8c-0.1,0.3-0.2,0.6-0.2,1L17.7,9.1L17.7,9.1z"/>
<path id="path268" fill="#FFFFFF" d="M25.5,6.8h-2.8V4.1h2.8V1l3.3-0.5v3.6h5.1v2.7h-5.1v5c0,0.5,0,0.8,0.1,1.1
	c0.1,0.3,0.2,0.5,0.4,0.6c0.2,0.2,0.4,0.3,0.5,0.3c0.3,0.1,0.5,0.1,0.7,0.1c0.3,0,0.5,0,0.8,0c0.3,0,0.5-0.1,0.7-0.1
	c0.3,0,0.5-0.1,0.7-0.2c0.3-0.1,0.5-0.2,0.8-0.4L34,16c-0.6,0.3-1.3,0.5-1.9,0.5c-0.7,0.1-1.4,0.2-2,0.2c-0.7,0-1.4-0.1-2-0.2
	c-0.5-0.1-1.1-0.4-1.4-0.7c-0.4-0.4-0.7-0.8-0.9-1.4c-0.2-0.6-0.3-1.4-0.3-2.5V6.8L25.5,6.8z"/>
<path id="path270" fill="#FFFFFF" d="M35.7,10.4c0-1.1,0.2-2.1,0.5-2.9c0.4-0.8,0.8-1.5,1.4-2.1c0.5-0.5,1.2-1,1.9-1.3
	c0.7-0.3,1.4-0.5,2.2-0.5c1.8,0,3.3,0.5,4.2,1.6c0.9,1.1,1.4,2.6,1.4,4.7c0,0.2,0,0.5,0,0.6c0,0.3,0,0.5,0,0.5h-8
	c0,0.8,0.4,1.4,1,1.9c0.6,0.5,1.5,0.7,2.6,0.7c0.6,0,1.3-0.1,1.9-0.2c0.6-0.2,1.1-0.3,1.4-0.5l0.5,2.8c-0.5,0.2-1.2,0.4-1.8,0.5
	c-0.6,0.1-1.4,0.2-2.2,0.2c-1.1,0-2-0.2-2.8-0.5c-0.8-0.3-1.5-0.6-2.2-1.2c-0.5-0.5-1-1.2-1.4-2C35.9,12.3,35.7,11.4,35.7,10.4
	L35.7,10.4z M44,9.1c0-0.4,0-0.6-0.1-1c-0.1-0.3-0.3-0.5-0.5-0.8C43.3,7,43,6.8,42.8,6.6c-0.3-0.2-0.6-0.2-1.1-0.2
	c-0.5,0-0.8,0.1-1.1,0.2C40.3,6.8,40,7,39.9,7.2c-0.2,0.3-0.4,0.5-0.5,0.8c-0.1,0.3-0.2,0.6-0.2,1L44,9.1L44,9.1z"/>
<path id="path272" fill="#FFFFFF" d="M54,14.1c0.8,0,1.4-0.1,1.8-0.2s0.6-0.4,0.6-0.7c0-0.3-0.1-0.5-0.2-0.5
	c-0.1-0.2-0.3-0.3-0.5-0.5c-0.3-0.1-0.5-0.2-0.8-0.4c-0.3-0.1-0.6-0.2-1-0.3c-0.5-0.2-1-0.3-1.4-0.5c-0.5-0.2-0.9-0.5-1.4-0.7
	c-0.4-0.3-0.7-0.6-1-1.1c-0.3-0.5-0.4-1-0.4-1.6c0-0.5,0.1-1,0.3-1.4s0.5-0.9,0.9-1.3c0.4-0.4,1-0.6,1.6-0.8C53.2,3.9,54,3.8,55,3.8
	c0.8,0,1.5,0.1,2.3,0.2c0.7,0.1,1.3,0.3,1.8,0.5l-0.5,2.7c-0.3-0.1-0.7-0.3-1.4-0.5c-0.6-0.2-1.4-0.3-2.2-0.3
	c-0.8,0-1.4,0.1-1.6,0.3c-0.3,0.2-0.5,0.5-0.5,0.6S53,7.8,53.1,8c0.1,0.2,0.3,0.3,0.5,0.5c0.2,0.1,0.5,0.3,0.7,0.4
	C54.6,8.9,55,9,55.2,9.2c0.5,0.2,1,0.4,1.4,0.5c0.5,0.2,1,0.5,1.4,0.7c0.5,0.3,0.7,0.6,1,1.1c0.3,0.5,0.4,1,0.4,1.6
	c0,0.5-0.1,1-0.3,1.4c-0.2,0.5-0.5,0.8-1,1.2c-0.5,0.4-1,0.6-1.7,0.8c-0.7,0.2-1.6,0.3-2.6,0.3c-1.1,0-2-0.1-2.7-0.4
	c-0.7-0.3-1.4-0.5-1.8-0.6l0.5-2.7c0.6,0.3,1.3,0.5,2,0.7C52.6,14,53.3,14.1,54,14.1"/>
</svg>
