<?xml version="1.0" standalone="no"?>
<!DOCTYPE svg PUBLIC "-//W3C//DTD SVG 1.1//EN" "http://www.w3.org/Graphics/SVG/1.1/DTD/svg11.dtd" >
<svg xmlns="http://www.w3.org/2000/svg">
<metadata>
This is a custom SVG font generated by IcoMoon.
<iconset grid="16"></iconset>
</metadata>
<defs>
<font id="tinymce-small" horiz-adv-x="512" >
<font-face units-per-em="512" ascent="480" descent="-32" />
<missing-glyph horiz-adv-x="512" />
<glyph class="hidden" unicode="&#xf000;" d="M0,480L 512 -32L0 -32 z" horiz-adv-x="0" />
<glyph unicode="&#xe020;" d="M 352,64l0,18.502 c 75.674,30.814, 128,96.91, 128,173.498c0,106.039-100.288,192-224,192S 32,362.039, 32,256
	c0-76.588, 52.327-142.684, 128-173.498L 160,64 L 64,64 l-32,48l0-112 l 160,0 L 192,111.406 c-50.45,25.681-85.333,80.77-85.333,144.594
	c0,88.366, 66.859,160, 149.333,160c 82.474,0, 149.333-71.634, 149.333-160c0-63.824-34.883-118.913-85.333-144.594L 320,0 l 160,0 L 480,112 l-32-48
	L 352,64 z" />
<glyph unicode="&#xe013;" d="M 128,448l0-448 l 128,128l 128-128L 384,448 L 128,448 z M 352,85.255l-96,96l-96-96L 160,416 l 192,0 L 352,85.255 z" />
<glyph unicode="&#xe012;" d="M 463.637,364.892l-66.745,66.744C 386.34,442.188, 372.276,448, 357.293,448s-29.047-5.812-39.598-16.363l-82.746-82.745
		c-21.834-21.834-21.834-57.362,0-79.196l 1.373-1.373l 33.941,33.941l-1.373,1.373c-3.066,3.066-3.066,8.247,0,11.313l 82.746,82.746
		C 353.641,399.7, 356.040,400, 357.292,400s 3.651-0.299, 5.656-2.305l 66.745-66.744c 3.066-3.067, 3.066-8.249, 0.001-11.314l-82.747-82.747
		c-2.004-2.004-4.403-2.304-5.655-2.304s-3.651,0.3-5.656,2.306l-1.373,1.373l-33.94-33.942l 1.371-1.371
		c 10.553-10.554, 24.615-16.364, 39.6-16.364s 29.047,5.812, 39.598,16.363l 82.747,82.746C 485.47,307.53, 485.47,343.057, 463.637,364.892
		zM 275.678,179.678l-33.941-33.941l 1.373-1.373c 2.004-2.004, 2.305-4.403, 2.305-5.655c0-1.253-0.299-3.651-2.303-5.657
		l-82.747-82.745c-2.005-2.005-4.405-2.305-5.657-2.305s-3.652,0.3-5.657,2.305L 82.305,117.050C 80.3,119.055, 80,121.455, 80,122.707
		s 0.299,3.65, 2.305,5.656l 82.745,82.744c 2.005,2.006, 4.405,2.306, 5.657,2.306s 3.652-0.3, 5.657-2.306l 1.373-1.371l 33.941,33.94
		l-1.373,1.373c-10.552,10.552-24.615,16.363-39.598,16.363s-29.046-5.812-39.598-16.363l-82.744-82.743
		C 37.812,151.754, 32,137.689, 32,122.707s 5.812-29.047, 16.363-39.599l 66.745-66.745C 125.661,5.812, 139.724,0, 154.707,0
		s 29.046,5.812, 39.598,16.363l 82.747,82.746c 10.552,10.552, 16.361,24.615, 16.361,39.598s-5.812,29.047-16.363,39.598
		L 275.678,179.678zM 400,61c-4.862,0-9.725,1.854-13.435,5.565l-64,63.999c-7.422,7.42-7.422,19.449,0,26.869
			c 7.42,7.422, 19.448,7.422, 26.868,0l 64-64c 7.422-7.42, 7.422-19.448,0-26.868C 409.725,62.854, 404.862,61, 400,61zM 304,0c-8.837,0-16,7.163-16,16l0,64 c0,8.837, 7.163,16, 16,16s 16-7.163, 16-16l0-64 C 320,7.163, 312.837,0, 304,0zM 464,160l-64,0 c-8.837,0-16,7.163-16,16s 7.163,16, 16,16l 64,0 c 8.837,0, 16-7.163, 16-16S 472.837,160, 464,160zM 112,387c 4.862,0, 9.725-1.854, 13.435-5.565l 64-64c 7.421-7.42, 7.421-19.449,0-26.869c-7.42-7.422-19.449-7.422-26.869,0
			l-64,64c-7.421,7.42-7.421,19.449,0,26.869C 102.275,385.146, 107.138,387, 112,387zM 208,448c 8.837,0, 16-7.163, 16-16l0-64 c0-8.837-7.163-16-16-16s-16,7.163-16,16L 192,432 C 192,440.837, 199.163,448, 208,448zM 48,288l 64,0 c 8.837,0, 16-7.163, 16-16s-7.163-16-16-16L 48,256 c-8.837,0-16,7.163-16,16S 39.163,288, 48,288z" />
<glyph unicode="&#xe011;" d="M 463.637,364.892l-66.745,66.744C 386.34,442.188, 372.276,448, 357.293,448s-29.047-5.812-39.598-16.363l-82.746-82.745
		c-21.834-21.834-21.834-57.362,0-79.196l 1.373-1.373l 33.941,33.941l-1.373,1.373c-3.066,3.066-3.066,8.247,0,11.313l 82.746,82.746
		C 353.641,399.7, 356.040,400, 357.292,400s 3.651-0.299, 5.656-2.305l 66.745-66.744c 3.066-3.067, 3.066-8.249, 0.001-11.314l-82.747-82.747
		c-2.004-2.004-4.403-2.304-5.655-2.304s-3.651,0.3-5.656,2.306l-1.373,1.373l-33.94-33.942l 1.371-1.371
		c 10.553-10.554, 24.615-16.364, 39.6-16.364s 29.047,5.812, 39.598,16.363l 82.747,82.746C 485.47,307.53, 485.47,343.057, 463.637,364.892
		zM 275.678,179.678l-33.941-33.941l 1.373-1.373c 2.004-2.004, 2.305-4.403, 2.305-5.655c0-1.253-0.299-3.651-2.303-5.657
		l-82.747-82.745c-2.005-2.005-4.405-2.305-5.657-2.305s-3.652,0.3-5.657,2.305L 82.305,117.050C 80.3,119.055, 80,121.455, 80,122.707
		s 0.299,3.65, 2.305,5.656l 82.745,82.744c 2.005,2.006, 4.405,2.306, 5.657,2.306s 3.652-0.3, 5.657-2.306l 1.373-1.371l 33.941,33.94
		l-1.373,1.373c-10.552,10.552-24.615,16.363-39.598,16.363s-29.046-5.812-39.598-16.363l-82.744-82.743
		C 37.812,151.754, 32,137.689, 32,122.707s 5.812-29.047, 16.363-39.599l 66.745-66.745C 125.661,5.812, 139.724,0, 154.707,0
		s 29.046,5.812, 39.598,16.363l 82.747,82.746c 10.552,10.552, 16.361,24.615, 16.361,39.598s-5.812,29.047-16.363,39.598
		L 275.678,179.678zM 176,125c-4.862,0-9.725,1.855-13.435,5.564c-7.42,7.42-7.42,19.449,0,26.869l 160,160c 7.42,7.42, 19.448,7.42, 26.868,0
		c 7.422-7.42, 7.422-19.45,0-26.87l-160-160C 185.725,126.855, 180.862,125, 176,125z" />
<glyph unicode="&#xe010;" d="M 288,339.337L 288,448 l 168.001-168L 288,112L 288,223.048 C 92.547,227.633, 130.5,99.5, 160,0C 16,160, 53.954,345.437, 288,339.337z" />
<glyph unicode="&#xe00f;" d="M 352,0c 29.5,99.5, 67.453,227.633-128,223.048L 224,112 L 55.999,280L 224,448l0-108.663 C 458.046,345.437, 496,160, 352,0z" />
<glyph unicode="&#xe00e;" d="M 128.214,267.637c 52.9,0, 95.786-45.585, 95.786-101.819C 224,109.586, 181.114,64, 128.214,64
	c-52.901,0-95.786,45.585-95.786,101.818L 32,180.364C 32,292.829, 117.77,384, 223.572,384l0-58.182 c-36.55,0-70.913-15.13-96.758-42.602
	c-4.977-5.289-9.517-10.917-13.612-16.828C 118.094,267.208, 123.105,267.637, 128.214,267.637zM 384.214,267.637c 52.9,0, 95.786-45.585, 95.786-101.819C 480,109.586, 437.114,64, 384.214,64
	c-52.901,0-95.786,45.585-95.786,101.818L 288,180.364C 288,292.829, 373.77,384, 479.572,384l0-58.182 c-36.55,0-70.913-15.13-96.758-42.602
	c-4.978-5.289-9.518-10.917-13.612-16.828C 374.094,267.208, 379.105,267.637, 384.214,267.637z" />
<glyph unicode="&#xe00c;" d="M 32,384L 480,384L 480,320L 32,320zM 192,192L 480,192L 480,128L 192,128zM 192,288L 480,288L 480,224L 192,224zM 32,96L 480,96L 480,32L 32,32zM 32,288L 144,208L 32,128 z" />
<glyph unicode="&#xe00d;" d="M 32,384L 480,384L 480,320L 32,320zM 32,192L 320,192L 320,128L 32,128zM 32,288L 320,288L 320,224L 32,224zM 32,96L 480,96L 480,32L 32,32zM 480,288L 368,208L 480,128 z" />
<glyph unicode="&#xe00b;" d="M 192,416L 480,416L 480,352L 192,352zM 192,256L 480,256L 480,192L 192,192zM 192,96L 480,96L 480,32L 192,32zM 160,215L 160,288L 128,288L 128,448L 64,448L 64,416L 96,416L 96,288L 64,288L 64,256L 128,256L 128,231L 64,201L 64,128L 128,128L 128,96L 64,96L 64,64L 128,64L 128,32L 64,32L 64,0L 160,0L 160,160L 96,160L 96,185 	z" />
<glyph unicode="&#xe00a;" d="M 192,416L 480,416L 480,352L 192,352zM 192,256L 480,256L 480,192L 192,192zM 192,96L 480,96L 480,32L 192,32zM 64,384A32,32 2700 1 1 128,384A32,32 2700 1 1 64,384zM 64,224A32,32 2700 1 1 128,224A32,32 2700 1 1 64,224zM 64,64A32,32 2700 1 1 128,64A32,32 2700 1 1 64,64z" />
<glyph unicode="&#xe009;" d="M 444,288l-28,0 L 416,416 l 32,0 L 448,448 L 288,448 l0-32 l 32,0 l0-128 L 192,288 L 192,416 l 32,0 L 224,448 L 64,448 l0-32 l 32,0 l0-128 L 68,288 c-19.8,0-36-16.2-36-36l0-216 c0-19.8, 16.2-36, 36-36l 120,0 
	c 19.8,0, 36,16.2, 36,36L 224,192 l 64,0 l0-156 c0-19.8, 16.2-36, 36-36l 120,0 c 19.8,0, 36,16.2, 36,36L 480,252 C 480,271.8, 463.8,288, 444,288z M 174,32L 82,32 
	c-9.9,0-18,7.2-18,16s 8.1,16, 18,16l 92,0 c 9.9,0, 18-7.2, 18-16S 183.9,32, 174,32z M 272,224l-32,0 c-8.8,0-16,7.2-16,16s 7.2,16, 16,16l 32,0 
	c 8.8,0, 16-7.2, 16-16S 280.8,224, 272,224z M 430,32l-92,0 c-9.9,0-18,7.2-18,16s 8.1,16, 18,16l 92,0 c 9.9,0, 18-7.2, 18-16S 439.9,32, 430,32z" />
<glyph unicode="&#xe008;" d="M 352,288l0,80 c0,8.8-7.2,16-16,16l-80,0 L 256,416 c0,17.6-14.4,32-32,32l-64,0 c-17.602,0-32-14.4-32-32l0-32 L 48,384 c-8.801,0-16-7.2-16-16l0-256 
	c0-8.8, 7.199-16, 16-16l 112,0 l0-96 l 192,0 l 96,96L 448,288 L 352,288 z M 160,415.943c 0.017,0.019, 0.036,0.039, 0.057,0.057l 63.884,0 
	c 0.021-0.018, 0.041-0.038, 0.059-0.057L 224,384 l-64,0 L 160,415.943 L 160,415.943z M 96,320l0,32 l 192,0 l0-32 L 96,320 z M 352,45.255L 352,96 l 50.745,0 L 352,45.255z
	 M 416,128l-96,0 l0-96 L 192,32 L 192,256 l 224,0 L 416,128 z" />
<glyph unicode="&#xe031;" d="M 416,320l-96,0 l0,32 l-96,96L 32,448 l0-352 l 192,0 l0-96 l 288,0 L 512,224 L 416,320z M 416,274.745L 466.745,224L 416,224 L 416,274.745 z M 224,402.745L 274.745,352
	L 224,352 L 224,402.745 z M 64,416l 128,0 l0-96 l 96,0 l0-192 L 64,128 L 64,416 z M 480,32L 256,32 l0,64 l 64,0 L 320,288 l 64,0 l0-96 l 96,0 L 480,32 z" />
<glyph unicode="&#xe007;" d="M 432.204,144.934c-23.235,23.235-53.469,34.002-80.541,31.403L 320,208l 96,96c0,0, 64,64,0,128L 256,272L 96,432
		c-64-64,0-128,0-128l 96-96l-31.663-31.663c-27.072,2.599-57.305-8.169-80.54-31.403c-37.49-37.49-42.556-93.209-11.313-124.45
		c 31.241-31.241, 86.96-26.177, 124.45,11.313c 23.235,23.234, 34.001,53.469, 31.403,80.54L 256,144l 31.664-31.664
		c-2.598-27.072, 8.168-57.305, 31.403-80.539c 37.489-37.49, 93.209-42.556, 124.449-11.313
		C 474.76,51.725, 469.694,107.443, 432.204,144.934z M 176.562,100.711c-1.106-12.166-7.51-24.913-17.57-34.973
		C 147.886,54.631, 133.452,48, 120.383,48c-5.262,0-12.649,1.114-17.958,6.424c-10.703,10.702-8.688,36.566, 11.313,56.568
		c 11.106,11.107, 25.54,17.738, 38.609,17.738c 5.262,0, 12.649-1.114, 17.958-6.424C 176.861,115.751, 177.040,105.962, 176.562,100.711z
		 M 256,176c-17.673,0-32,14.327-32,32s 14.327,32, 32,32s 32-14.327, 32-32S 273.673,176, 256,176z M 409.576,54.424
		c-5.31-5.31-12.696-6.424-17.958-6.424c-13.069,0-27.503,6.631-38.609,17.738c-10.061,10.060-16.464,22.807-17.569,34.973
		c-0.479,5.251-0.3,15.040, 6.257,21.596c 5.309,5.311, 12.695,6.424, 17.958,6.424c 13.068,0, 27.503-6.631, 38.608-17.737
		C 418.265,90.99, 420.279,65.126, 409.576,54.424z" />
<glyph unicode="&#xe006;" d="M 32,384L 480,384L 480,320L 32,320zM 32,192L 480,192L 480,128L 32,128zM 32,288L 480,288L 480,224L 32,224zM 32,96L 480,96L 480,32L 32,32z" />
<glyph unicode="&#xe004;" d="M 32,384L 480,384L 480,320L 32,320zM 32,192L 480,192L 480,128L 32,128zM 128,288L 384,288L 384,224L 128,224zM 128,96L 384,96L 384,32L 128,32z" />
<glyph unicode="&#xe005;" d="M 32,384L 480,384L 480,320L 32,320zM 32,192L 480,192L 480,128L 32,128zM 192,288L 480,288L 480,224L 192,224zM 192,96L 480,96L 480,32L 192,32z" />
<glyph unicode="&#xe003;" d="M 32,384L 480,384L 480,320L 32,320zM 32,192L 480,192L 480,128L 32,128zM 32,288L 320,288L 320,224L 32,224zM 32,96L 320,96L 320,32L 32,32z" />
<glyph unicode="&#xe02d;" d="M 480,224l-4.571,0 L 347.062,224 c-25.039,17.71-57.215,27.43-91.062,27.43c-44.603,0-82.286,25.121-82.286,54.856
	c0,29.735, 37.683,54.857, 82.286,54.857c 37.529,0, 70.154-17.788, 79.56-41.143l 56.508,0 c-3.965,25.322-18.79,48.984-42.029,66.413
	C 324.599,405.493, 291.201,416, 256,416c-35.202,0-68.598-10.507-94.037-29.587c-27.394-20.545-43.106-49.751-43.106-80.127
	s 15.712-59.582, 43.106-80.127c 0.978-0.733, 1.971-1.449, 2.973-2.158L 36.571,224.001 L 32,224.001 l0-32 l 256.266,0 c 29.104-8.553, 50.021-28.135, 50.021-50.286
	c0-29.734-37.684-54.855-82.286-54.855c-37.53,0-70.154,17.787-79.559,41.143l-56.508,0 c 3.965-25.32, 18.791-48.984, 42.030-66.413
	C 187.402,42.508, 220.798,32, 256,32c 35.201,0, 68.599,10.508, 94.037,29.587c 27.395,20.545, 43.104,49.751, 43.104,80.127
	c0,17.649-5.327,34.896-15.147,50.286L 480,192 L 480,224 z" />
<glyph unicode="&#xe02c;" d="M 96,64l 288,0 l0-32 L 96,32 L 96,64 zM 320,416l0-192 c0-15.656-7.35-30.812-20.695-42.676C 283.834,167.573, 262.771,160, 240,160c-22.772,0-43.834,7.573-59.304,21.324
	C 167.35,193.188, 160,208.344, 160,224L 160,416 L 96,416 l0-192 c0-70.691, 64.471-128, 144-128c 79.529,0, 144,57.309, 144,128L 384,416 L 320,416 z" />
<glyph unicode="&#xe02b;" d="M 416,416l0-32 l-72,0 L 216,64l 72,0 l0-32 L 64,32 l0,32 l 72,0 L 264,384l-72,0 L 192,416 L 416,416 z" />
<glyph unicode="&#xe02a;" d="M 312.721,232.909C 336.758,251.984, 352,280.337, 352,312c0,57.438-50.145,104-112,104L 128,416 l0-384 l 144,0 
	c 61.856,0, 112,46.562, 112,104C 384,180.098, 354.441,217.781, 312.721,232.909z M 192,328c0,13.255, 10.745,24, 24,24l 33.602,0 
	C 270.809,352, 288,330.51, 288,304s-17.191-48-38.398-48L 192,256 L 192,328 z M 273.6,96L 216,96 c-13.255,0-24,10.745-24,24l0,72 l 81.6,0 
	c 21.209,0, 38.4-21.49, 38.4-48S 294.809,96, 273.6,96z" />
<glyph unicode="&#xe001;" d="M 425.373,358.627l-66.746,66.745C 346.183,437.818, 321.6,448, 304,448L 96,448 c-17.6,0-32-14.4-32-32l0-384 c0-17.6, 14.4-32, 32-32l 320,0 
	c 17.6,0, 32,14.4, 32,32L 448,304 C 448,321.6, 437.817,346.182, 425.373,358.627z M 402.745,336.001c 3.396-3.398, 6.896-9.581, 9.447-16.001L 320,320 
	L 320,412.193 c 6.42-2.55, 12.602-6.050, 16-9.448L 402.745,336.001z M 415.942,32L 96.057,32 c-0.020,0.017-0.041,0.038-0.057,0.058L 96,415.943 
	c 0.017,0.020, 0.038,0.041, 0.057,0.057L 288,416 l0-128 l 128,0 l0-255.942 C 415.983,32.038, 415.962,32.017, 415.942,32z" />
<glyph unicode="&#xe000;" d="M 480,40L 480,335.969 L 368.031,448L 72,448 c-22.091,0-40-17.908-40-40l0-368 c0-22.092, 17.909-40, 40-40l 368,0 
	C 462.092,0, 480,17.908, 480,40z M 288,384l 32,0 l0-96 l-32,0 L 288,384 z M 352,64L 160,64 L 160,191.941 c 0.017,0.021, 0.038,0.041, 0.058,0.059l 191.885,0 
	c 0.020-0.018, 0.041-0.038, 0.058-0.059L 352,64L 352,64z M 416,64l-32,0 L 384,192 c0,17.6-14.4,32-32,32L 160,224 c-17.6,0-32-14.4-32-32l0-128 L 96,64 L 96,384 
	l 32,0 l0-96 c0-17.6, 14.4-32, 32-32l 160,0 c 17.6,0, 32,14.4, 32,32l0,85.505 l 64-64.036L 416,64 z" />
<glyph unicode="&#xe01b;" d="M 32,384l0-352 l 448,0 L 480,384 L 32,384 z M 192,160l0,64 l 128,0 l0-64 L 192,160 z M 320,128l0-64 L 192,64 l0,64 L 320,128 z M 320,320l0-64 L 192,256 l0,64 L 320,320 z M 160,320l0-64 L 64,256 l0,64 L 160,320 
	z M 64,224l 96,0 l0-64 L 64,160 L 64,224 z M 352,224l 96,0 l0-64 l-96,0 L 352,224 z M 352,256l0,64 l 96,0 l0-64 L 352,256 z M 64,128l 96,0 l0-64 L 64,64 L 64,128 z M 352,64l0,64 l 96,0 l0-64 L 352,64 z" />
<glyph unicode="&#xe021;" d="M 256,410c 49.683,0, 96.391-19.347, 131.521-54.478S 442,273.683, 442,224s-19.348-96.391-54.479-131.521S 305.683,38, 256,38
	s-96.391,19.348-131.522,54.479S 70,174.317, 70,224s 19.347,96.391, 54.478,131.522S 206.317,410, 256,410 M 256,448
	C 132.288,448, 32,347.712, 32,224s 100.288-224, 224-224s 224,100.288, 224,224S 379.712,448, 256,448L 256,448zM 160,288A32,32 2700 1 1 224,288A32,32 2700 1 1 160,288zM 288,288A32,32 2700 1 1 352,288A32,32 2700 1 1 288,288zM 256,152c-50.92,0-96.28,18.437-125.583,47.164C 141.98,140.36, 193.806,96, 256,96c 62.194,0, 114.020,44.36, 125.584,103.164
	C 352.28,170.437, 306.92,152, 256,152z" />
<glyph unicode="&#xe023;" d="M 240,288L 144,384L 208,448L 32,448L 32,272L 96,336L 192,240 zM 320,240L 416,336L 480,272L 480,448L 304,448L 368,384L 272,288 zM 272,160L 368,64L 304,0L 480,0L 480,176L 416,112L 320,208 zM 192,208L 96,112L 32,176L 32,0L 208,0L 144,64L 240,160 z" />
<glyph unicode="&#xe01c;" d="M 32,256L 480,256L 480,192L 32,192z" />
<glyph unicode="&#xe01d;" d="M 32,96l 256,0 l0-64 L 32,32 L 32,96 z M 384,384L 273.721,384 l-91.883-256l-66.144,0 l 91.881,256L 96,384 L 96,448 l 288,0 L 384,384 z M 464.887,32L 400,96.887
	L 335.113,32L 304,63.113L 368.887,128L 304,192.887L 335.113,224L 400,159.113L 464.887,224L 496,192.887L 431.113,128L 496,63.113
	L 464.887,32z" />
<glyph unicode="&#xe022;" d="M 128,416l 256,0 l0-64 L 128,352 L 128,416 z M 448,320L 64,320 c-17.6,0-32-14.4-32-32l0-128 c0-17.6, 14.398-32, 32-32l 64,0 l0-96 l 256,0 l0,96 l 64,0 
	c 17.6,0, 32,14.4, 32,32L 480,288 C 480,305.6, 465.6,320, 448,320z M 352,64L 160,64 L 160,192 l 192,0 L 352,64 z M 455.2,272c0-12.813-10.387-23.2-23.199-23.2
	S 408.8,259.187, 408.8,272s 10.389,23.2, 23.201,23.2C 444.814,295.2, 455.2,284.813, 455.2,272z" />
<glyph unicode="&#xe02e;" d="M 192,416c-61.856,0-112-50.144-112-112s 50.144-112, 112-112l0-160 l 64,0 L 256,352 l 32,0 l0-320 l 64,0 L 352,352 l 64,0 L 416,416 L 192,416 z" />
<glyph unicode="&#xe02f;" d="M 224,416c-61.856,0-112-50.144-112-112s 50.144-112, 112-112l0-160 l 64,0 L 288,352 l 32,0 l0-320 l 64,0 L 384,352 l 64,0 L 448,416 L 224,416 zM 32,32L 144,128L 32,224 z" />
<glyph unicode="&#xe030;" d="M 160,416C 98.144,416, 48,365.856, 48,304s 50.144-112, 112-112l0-160 l 64,0 L 224,352 l 32,0 l0-320 l 64,0 L 320,352 l 64,0 L 384,416 L 160,416 zM 480,224L 368,128L 480,32 z" />
<glyph unicode="&#xe026;" d="M 256,288L 320,288L 320,256L 256,256zM 256,96L 320,96L 320,64L 256,64zM 288,192L 352,192L 352,160L 288,160zM 384,192L 384,96L 352,96L 352,64L 416,64L 416,192 	zM 192,192L 256,192L 256,160L 192,160zM 160,96L 224,96L 224,64L 160,64zM 160,288L 224,288L 224,256L 160,256zM 96,384L 96,256L 128,256L 128,352L 160,352L 160,384 	zM 352,256L 416,256L 416,384L 384,384L 384,288L 352,288 	zM 32,448l0-448 l 448,0 L 480,448 L 32,448 z M 448,32L 64,32 L 64,416 l 384,0 L 448,32 zM 96,192L 96,64L 128,64L 128,160L 160,160L 160,192 	zM 288,384L 352,384L 352,352L 288,352zM 192,384L 256,384L 256,352L 192,352z" />
<glyph unicode="&#xe027;" d="M 408,448l 8-192L 96,256 l 8,192l 16,0 l 8-160l 256,0 l 8,160L 408,448 z M 104,0l-8,160l 320,0 l-8-160l-16,0 l-8,128L 128,128 l-8-128L 104,0 zM 32,224L 96,224L 96,192L 32,192zM 128,224L 192,224L 192,192L 128,192zM 224,224L 288,224L 288,192L 224,192zM 320,224L 384,224L 384,192L 320,192zM 416,224L 480,224L 480,192L 416,192z" />
<glyph unicode="&#xe024;" d="M 480,416L 480,448 l-96,0 c-17.601,0-32-14.4-32-32l0-160 c0-7.928, 2.929-15.201, 7.748-20.807L 208,105l-71,74l-41-35l 112-144l 208,224l 64,0 
		l0,32 l-96,0 L 384,416 L 480,416 zM 128,224l 32,0 L 160,416 c0,17.6-14.4,32-32,32L 64,448 c-17.6,0-32-14.4-32-32l0-192 l 32,0 l0,96 l 64,0 L 128,224 z M 64,352L 64,416 l 64,0 l0-64 L 64,352 zM 320,256l0,48 c0,17.6-4.4,32-22,32c 17.6,0, 22,14.4, 22,32L 320,416 c0,17.6-14.4,32-32,32l-96,0 l0-224 l 96,0 C 305.6,224, 320,238.4, 320,256z
		 M 224,416l 64,0 l0-64 l-64,0 L 224,416 z M 224,320l 64,0 l0-64 l-64,0 L 224,320 z" />
<glyph unicode="&#xe025;" d="M 224,224l-64,0 l0,64 l 64,0 l0,64 l 64,0 l0-64 l 64,0 l0-64 l-64,0 l0-64 l-64,0 L 224,224 z M 480,192l0-160 L 32,32 L 32,192 l 64,0 l0-96 l 320,0 l0,96 L 480,192 z" />
<glyph unicode="&#xe017;" d="M 208,128L 112,224L 208,320L 176,352L 48,224L 176,96 zM 336,352L 304,320L 400,224L 304,128L 336,96L 464,224 z" />
<glyph unicode="&#xe016;" d="M 224,128l 64,0 l0-64 l-64,0 L 224,128 z M 352,352c 17.673,0, 32-14.327, 32-32l0-83 l-114-77l-46,0 l0,32 l 96,64l0,32 L 160,288 l0,64 L 352,352 z M 256,448
	c-59.833,0-116.083-23.3-158.392-65.608C 55.301,340.083, 32,283.833, 32,224c0-59.832, 23.301-116.084, 65.608-158.392
	C 139.917,23.3, 196.167,0, 256,0c 59.832,0, 116.084,23.3, 158.392,65.608C 456.7,107.916, 480,164.168, 480,224
	c0,59.833-23.3,116.083-65.608,158.392C 372.084,424.7, 315.832,448, 256,448z" />
<glyph unicode="&#xe014;" d="M 448,416L 64,416 c-17.6,0-32-14.4-32-32l0-320 c0-17.6, 14.4-32, 32-32l 384,0 c 17.6,0, 32,14.4, 32,32L 480,384 C 480,401.6, 465.6,416, 448,416z
		 M 448,64.058c-0.006-0.007-0.015-0.014-0.021-0.021L 352,224l-80-64L 160,304L 64.016,64.042c-0.005,0.005-0.011,0.011-0.016,0.016
		L 64,383.943 c 0.017,0.020, 0.038,0.041, 0.057,0.057l 383.885,0 c 0.020-0.017, 0.041-0.038, 0.058-0.058L 448,64.058 zM 320,304A48,48 2700 1 1 416,304A48,48 2700 1 1 320,304z" />
<glyph unicode="&#xe015;" d="M 448,416L 64,416 c-17.6,0-32-14.4-32-32l0-320 c0-17.6, 14.4-32, 32-32l 384,0 c 17.6,0, 32,14.4, 32,32L 480,384 C 480,401.6, 465.6,416, 448,416z
	 M 128,64L 64,64 l0,64 l 64,0 L 128,64 z M 128,192L 64,192 l0,64 l 64,0 L 128,192 z M 128,320L 64,320 L 64,384 l 64,0 L 128,320 z M 352,64L 160,64 L 160,384 l 192,0 L 352,64 z M 448,64l-64,0 l0,64 l 64,0 L 448,64 z
	 M 448,192l-64,0 l0,64 l 64,0 L 448,192 z M 448,320l-64,0 L 384,384 l 64,0 L 448,320 zM 192,320L 192,128L 336,224 z" />
<glyph unicode="&#xe018;" d="M 38.899,327.688l 40.707-25.441C 105.007,342.804, 144,373.974, 190.21,389.37l-15.183,45.547
		C 118.153,415.968, 70.163,377.604, 38.899,327.688zM 336.973,434.917L 321.79,389.37c 46.211-15.396, 85.202-46.566, 110.604-87.124l 40.706,25.441
		C 441.837,377.604, 393.847,415.968, 336.973,434.917zM 303.987,127.996c-2.404,0-4.846,0.545-7.143,1.693L 224,166.111L 224,272 c0,8.836, 7.164,16, 16,16s 16-7.164, 16-16l0-86.111 
		l 55.155-27.578c 7.903-3.951, 11.107-13.562, 7.155-21.466C 315.508,131.238, 309.856,127.997, 303.987,127.996zM 256,384C 149.961,384, 64,298.039, 64,192c0-106.039, 85.961-192, 192-192c 106.039,0, 192,85.961, 192,192
	C 448,298.039, 362.039,384, 256,384z M 256,48c-79.529,0-144,64.471-144,144c0,79.529, 64.471,144, 144,144c 79.529,0, 144-64.471, 144-144
	C 400,112.471, 335.529,48, 256,48z" />
<glyph unicode="&#xe019;" d="M 32,252.127c 22.659,24.96, 48.581,46.18, 76.636,62.562C 153.802,341.061, 204.759,355, 256,355
		c 51.24,0, 102.198-13.939, 147.363-40.312c 28.056-16.382, 53.978-37.602, 76.637-62.562l0,58.716 
		c-16.505,14.059-34.062,26.57-52.434,37.297C 375.063,378.796, 315.737,395, 256,395s-119.064-16.204-171.567-46.86
		C 66.062,337.413, 48.505,324.901, 32,310.842L 32,252.127 zM 256,320c-91.598,0-172.919-50.278-224-128c 51.081-77.724, 132.402-128, 224-128c 91.598,0, 172.919,50.276, 224,128
	C 428.919,269.722, 347.598,320, 256,320z M 256,224c0-17.673-14.327-32-32-32s-32,14.327-32,32c0,17.674, 14.327,32, 32,32
	S 256,241.674, 256,224z M 364.033,131.669C 330.316,111.982, 293.969,102, 256,102s-74.316,9.982-108.033,29.669
	C 122.19,146.721, 98.659,167.324, 78.91,192c 19.749,24.675, 43.28,45.279, 69.058,60.33c 6.638,3.876, 13.379,7.37, 20.213,10.491
	C 162.925,250.95, 160,237.817, 160,224c0-53.020, 42.981-96, 96-96c 53.020,0, 96,42.98, 96,96c0,13.817-2.925,26.95-8.18,38.821
	c 6.834-3.122, 13.575-6.615, 20.213-10.491c 25.777-15.051, 49.308-35.655, 69.058-60.33
	C 413.342,167.324, 389.811,146.721, 364.033,131.669z" />
<glyph unicode="&#xe01a;" d="M 325.584,338.083C 313.278,379.064, 311.146,384, 272,384l-32,0 c-39.809,0-41.332-5.076-54.209-48c0-0.001,0-0.001-0.001-0.002
	L 113.791,96l 56.818,0 l 28.8,96l 113.183,0 l 28.8-96l 56.815,0 L 325.584,338.083z M 218.609,256l 19.2,68c 5.043,16.809, 18.19,15, 18.19,15
	s 13.147,1.809, 18.19-15l 0.002,0 l 19.2-68L 218.609,256 z" />
<glyph unicode="&#xe028;" d="M 288,448 C 411.712,448 512,347.712 512,224 C 512,100.288 411.712,0 288,0 L 288,48 C 335.012,48 379.209,66.307 412.451,99.549 C 445.693,132.791 464,176.988 464,224 C 464,271.011 445.693,315.209 412.451,348.451 C 379.209,381.693 335.012,400 288,400 C 240.989,400 196.791,381.693 163.549,348.451 C 137.979,322.882 121.258,290.828 114.896,256 L 208,256 L 96,128 L -16,256 L 66.285,256 C 81.815,364.551 175.154,448 288,448 ZM 384,256 L 384,192 L 256,192 L 256,352 L 320,352 L 320,256 Z" />
<glyph unicode="&#xe002;" d="M 512,183.771l0,80.458 l-79.572,7.957c-4.093,15.021-10.044,29.274-17.605,42.49l 52.298,63.919L 410.595,435.12l-63.918-52.298
	c-13.217,7.562-27.471,13.513-42.491,17.604L 296.229,480l-80.458,0 l-7.957-79.573c-15.021-4.093-29.274-10.043-42.49-17.604
	L 101.405,435.12L 44.88,378.595l 52.298-63.918c-7.562-13.216-13.513-27.47-17.605-42.49L0,264.229l0-80.458 l 79.573-7.957
	c 4.093-15.021, 10.043-29.274, 17.605-42.491L 44.88,69.405l 56.524-56.524l 63.919,52.298c 13.216-7.562, 27.47-13.514, 42.49-17.605
	L 215.771-32l 80.458,0 l 7.957,79.572c 15.021,4.093, 29.274,10.044, 42.491,17.605l 63.918-52.298l 56.524,56.524l-52.298,63.918
	c 7.562,13.217, 13.514,27.471, 17.605,42.49L 512,183.771z M 352,192l-64-64l-64,0 l-64,64l0,64 l 64,64l 64,0 l 64-64L 352,192 z" />
<glyph unicode="&#xe01f;" d="M 384,377 L 384,352 L 448,352 L 448,320 L 352,320 L 352,393 L 416,423 L 416,448 L 352,448 L 352,480 L 448,480 L 448,407 ZM 338,352L 270,352L 176,258L 82,352L 14,352L 142,224L 14,96L 82,96L 176,190L 270,96L 338,96L 210,224 z" />
<glyph unicode="&#xe01e;" d="M 384,25 L 384,0 L 448,0 L 448-32 L 352-32 L 352,41 L 416,71 L 416,96 L 352,96 L 352,128 L 448,128 L 448,55 ZM 338,352L 270,352L 176,258L 82,352L 14,352L 142,224L 14,96L 82,96L 176,190L 270,96L 338,96L 210,224 z" />
<glyph unicode="&#xe035;" d="M 352,288l0,80 c0,8.8-7.2,16-16,16l-80,0 L 256,416 c0,17.6-14.4,32-32,32l-64,0 c-17.602,0-32-14.4-32-32l0-32 L 48,384 c-8.801,0-16-7.2-16-16
		l0-256 c0-8.8, 7.199-16, 16-16l 112,0 l0-96 l 288,0 L 448,288 L 352,288 z M 160,415.943c 0.017,0.019, 0.036,0.039, 0.057,0.057l 63.884,0 
		c 0.021-0.018, 0.041-0.038, 0.059-0.057L 224,384 l-64,0 L 160,415.943 z M 96,320l0,32 l 192,0 l0-32 L 96,320 z M 416,32L 192,32 L 192,256 l 224,0 L 416,32 zM 224,224L 224,160L 240,160L 256,192L 288,192L 288,96L 264,96L 264,64L 344,64L 344,96L 320,96L 320,192L 352,192L 368,160L 384,160L 384,224 	z" data-tags="pastetext" />
<glyph unicode="&#xe032;" d="M 384,352L 416,352L 416,320L 384,320zM 320,288L 352,288L 352,256L 320,256zM 320,224L 352,224L 352,192L 320,192zM 320,160L 352,160L 352,128L 320,128zM 256,224L 288,224L 288,192L 256,192zM 256,160L 288,160L 288,128L 256,128zM 192,160L 224,160L 224,128L 192,128zM 384,288L 416,288L 416,256L 384,256zM 384,224L 416,224L 416,192L 384,192zM 384,160L 416,160L 416,128L 384,128zM 384,96L 416,96L 416,64L 384,64zM 320,96L 352,96L 352,64L 320,64zM 256,96L 288,96L 288,64L 256,64zM 192,96L 224,96L 224,64L 192,64zM 128,96L 160,96L 160,64L 128,64z" data-tags="resize, dots" />
<glyph unicode="&#xe034;" d="M 464,416L 256,416L 240,448L 64,448L 32,384L 480,384 zM 420.17,128L 464,128 l 16,224L 32,352 l 32-320l 178.040,0 C 189.599,50.888, 152,101.133, 152,160c0,74.991, 61.009,136, 136,136
	c 74.99,0, 136-61.009, 136-136C 424,149.161, 422.689,138.425, 420.17,128zM 437.498,55.125l-67.248,55.346C 378.977,124.932, 384,141.878, 384,160c0,53.020-42.98,96-96,96s-96-42.98-96-96
	s 42.98-96, 96-96c 18.122,0, 35.069,5.023, 49.529,13.75l 55.346-67.248c 11.481-13.339, 31.059-14.070, 43.503-1.626l 2.746,2.746
	C 451.568,24.066, 450.837,43.644, 437.498,55.125z M 288,98c-34.242,0-62,27.758-62,62s 27.758,62, 62,62s 62-27.758, 62-62
	S 322.242,98, 288,98z" data-tags="browse" />
<glyph unicode="&#x20;" horiz-adv-x="256" />
</font>
</defs>
</svg>
