<?xml version="1.0" encoding="UTF-8" standalone="no"?>
<!-- Created with Inkscape (http://www.inkscape.org/) -->

<svg
   xmlns:dc="http://purl.org/dc/elements/1.1/"
   xmlns:cc="http://creativecommons.org/ns#"
   xmlns:rdf="http://www.w3.org/1999/02/22-rdf-syntax-ns#"
   xmlns:svg="http://www.w3.org/2000/svg"
   xmlns="http://www.w3.org/2000/svg"
   version="1.1"
   width="40.723625"
   height="39.718452"
   id="svg2"
   xml:space="preserve"><metadata
     id="metadata8"><rdf:RDF><cc:Work
         rdf:about=""><dc:format>image/svg+xml</dc:format><dc:type
           rdf:resource="http://purl.org/dc/dcmitype/StillImage" /><dc:title></dc:title></cc:Work></rdf:RDF></metadata><defs
     id="defs6" /><g
     transform="matrix(1.25,0,0,-1.25,-307.69225,921.75975)"
     id="g10"><path
       d="m 262.4417,737.4078 c -8.994,0 -16.2879,-7.2929 -16.2879,-16.2898 0,-7.1969 4.667,-13.3022 11.1399,-15.4571 0.815,-0.1491 1.112,0.3541 1.112,0.7861 0,0.3861 -0.0139,1.4111 -0.0221,2.77 -4.5309,-0.9839 -5.487,2.1841 -5.487,2.1841 -0.741,1.8819 -1.8088,2.3828 -1.8088,2.3828 -1.4791,1.01 0.112,0.9901 0.112,0.9901 1.635,-0.115 2.495,-1.6789 2.495,-1.6789 1.4531,-2.4891 3.8129,-1.7702 4.741,-1.353 0.1479,1.0519 0.5689,1.77 1.0341,2.177 -3.617,0.4119 -7.4203,1.8088 -7.4203,8.051 0,1.779 0.6353,3.2318 1.6773,4.371 -0.1681,0.4119 -0.7271,2.0679 0.1598,4.3109 0,0 1.3669,0.438 4.4791,-1.669 1.2988,0.3608 2.6929,0.5408 4.0779,0.5479 1.3841,-0.007 2.7771,-0.1871 4.0779,-0.5479 3.1102,2.107 4.4751,1.669 4.4751,1.669 0.8889,-2.243 0.3299,-3.899 0.163,-4.3109 1.044,-1.1392 1.6741,-2.592 1.6741,-4.371 0,-6.2581 -3.8092,-7.6351 -7.437,-8.0382 0.584,-0.5029 1.105,-1.497 1.105,-3.0169 0,-2.177 -0.0202,-3.934 -0.0202,-4.468 0,-0.436 0.2943,-0.9431 1.12,-0.7841 6.4681,2.1592 11.1311,8.2602 11.1311,15.4551 0,8.9969 -7.2938,16.2898 -16.291,16.2898"
       id="path12"
       style="fill:#ffffff;fill-opacity:1;fill-rule:evenodd;stroke:none" /></g></svg>