<?xml version="1.0" encoding="UTF-8" standalone="no"?>
<!-- Created with Inkscape (http://www.inkscape.org/) -->

<svg
   xmlns:dc="http://purl.org/dc/elements/1.1/"
   xmlns:cc="http://creativecommons.org/ns#"
   xmlns:rdf="http://www.w3.org/1999/02/22-rdf-syntax-ns#"
   xmlns:svg="http://www.w3.org/2000/svg"
   xmlns="http://www.w3.org/2000/svg"
   version="1.1"
   width="564.10626"
   height="496.81152"
   id="svg3319"
   xml:space="preserve"><metadata
     id="metadata3325"><rdf:RDF><cc:Work
         rdf:about=""><dc:format>image/svg+xml</dc:format><dc:type
           rdf:resource="http://purl.org/dc/dcmitype/StillImage" /><dc:title></dc:title></cc:Work></rdf:RDF></metadata><defs
     id="defs3323" /><g
     transform="matrix(1.25,0,0,-1.25,-168.41781,1397.6355)"
     id="g3327"><path
       d="m 572.3186,1100.8641 c 0,0 18.508,-39.6938 -66.5895,-101.516 l 2.4004,-1.9358 c -0.9428,-0.5975 -1.8479,-1.1619 -2.7184,-1.6971 2.6725,-2.2515 4.1102,-3.5938 4.1102,-3.5938 68.7419,-53.3984 66.7908,-128.1738 9.3921,-182.5939 -13.3303,16.8341 -48.1465,-45.0978 -89.4019,-59.3071 -8.3756,15.0633 -45.243,-7.4675 -85.6959,-17.5612 -12.7735,13.0014 -73.5506,-7.3595 -140.5304,4.0754 -20.0781,3.4263 -38.8775,10.5846 -56.5509,18.5599 50.0613,3.3236 69.0885,14.9558 89.3157,33.0686 20.2227,18.1217 19.9899,41.588 6.2892,41.5506 14.8159,14.7053 20.6232,57.1277 -0.8109,63.9139 12.1867,6.8343 54.4266,60.1588 16.8213,70.622 38.7437,48.0992 62.8688,56.3551 87.2039,68.55 61.403,30.7735 127.4732,-11.9846 153.0224,-31.7719 2.3777,-2.1282 1.3215,-1.4045 5.1749,-0.2843 34.0918,27.9879 83.0254,75.4189 55.3836,98.1564 -7.8239,14.6642 13.1842,1.7643 13.1842,1.7643 z"
       id="path3329"
       style="fill:none;stroke:#336ee5;stroke-width:24.00009918;stroke-linecap:round;stroke-linejoin:round;stroke-miterlimit:2.61312604;stroke-opacity:1;stroke-dasharray:none" /><path
       d="m 572.3186,1100.8641 c 0,0 18.508,-39.6938 -66.5895,-101.516 l 2.4004,-1.9358 c -0.9428,-0.5975 -1.8479,-1.1619 -2.7184,-1.6971 2.6725,-2.2515 4.1102,-3.5938 4.1102,-3.5938 68.7419,-53.3984 66.7908,-128.1738 9.3921,-182.5939 -13.3303,16.8341 -48.1465,-45.0978 -89.4019,-59.3071 -8.3756,15.0633 -45.243,-7.4675 -85.6959,-17.5612 -12.7735,13.0014 -73.5506,-7.3595 -140.5304,4.0754 -20.0781,3.4263 -38.8775,10.5846 -56.5509,18.5599 50.0613,3.3236 69.0885,14.9558 89.3157,33.0686 20.2227,18.1217 19.9899,41.588 6.2892,41.5506 14.8159,14.7053 20.6232,57.1277 -0.8109,63.9139 12.1867,6.8343 54.4266,60.1588 16.8213,70.622 38.7437,48.0992 62.8688,56.3551 87.2039,68.55 61.403,30.7735 127.4732,-11.9846 153.0224,-31.7719 2.3777,-2.1282 1.3215,-1.4045 5.1749,-0.2843 34.0918,27.9879 83.0254,75.4189 55.3836,98.1564 -7.8239,14.6642 13.1842,1.7643 13.1842,1.7643"
       id="path3331"
       style="fill:#373535;fill-opacity:1;fill-rule:evenodd;stroke:none" /><path
       d="m 509.5213,992.1214 c 0,0 -85.769,80.0694 -163.9678,40.8782 -24.3351,-12.1949 -48.4602,-20.4508 -87.2039,-68.55 37.6053,-10.4632 -4.6346,-63.7877 -16.8213,-70.622 21.4341,-6.7862 15.6268,-49.2086 0.8109,-63.9139 13.7007,0.0374 13.9335,-23.4289 -6.2892,-41.5506 -20.2272,-18.1128 -39.2544,-29.745 -89.3157,-33.0686 17.6734,-7.9753 36.4728,-15.1336 56.5509,-18.5599 66.9798,-11.4349 127.7569,8.926 140.5304,-4.0754 40.4529,10.0937 77.3203,32.6245 85.6959,17.5612 41.2554,14.2093 76.0716,76.1412 89.4019,59.3071 57.3987,54.4201 59.3498,129.1955 -9.3921,182.5939 z m 2.0291,-170.4027 0,0 z"
       id="path3333"
       style="fill:none;stroke:#ffffff;stroke-width:5.72970009;stroke-linecap:round;stroke-linejoin:round;stroke-miterlimit:2.61312604;stroke-opacity:1;stroke-dasharray:none" /><path
       d="m 509.5213,992.1214 c 0,0 -85.769,80.0694 -163.9678,40.8782 -24.3351,-12.1949 -48.4602,-20.4508 -87.2039,-68.55 37.6053,-10.4632 -4.6346,-63.7877 -16.8213,-70.622 21.4341,-6.7862 15.6268,-49.2086 0.8109,-63.9139 13.7007,0.0374 13.9335,-23.4289 -6.2892,-41.5506 -20.2272,-18.1128 -39.2544,-29.745 -89.3157,-33.0686 17.6734,-7.9753 36.4728,-15.1336 56.5509,-18.5599 66.9798,-11.4349 127.7569,8.926 140.5304,-4.0754 40.4529,10.0937 77.3203,32.6245 85.6959,17.5612 41.2554,14.2093 76.0716,76.1412 89.4019,59.3071 57.3987,54.4201 59.3498,129.1955 -9.3921,182.5939 z m 2.0291,-170.4027 0,0 z"
       id="path3335"
       style="fill:#ffffff;fill-opacity:1;fill-rule:nonzero;stroke:none" /><path
       d="m 490.9774,990.7778 c 32.2537,24.8936 99.5315,82.5143 68.157,108.322 -7.8239,14.6642 13.1842,1.7643 13.1842,1.7643 0,0 20.1836,-43.2873 -78.5154,-109.8584 -5.8456,-3.9401 -5.0012,-1.9922 -2.8258,-0.2279 z m 78.2628,106.3724 c 0,0 -12.4288,12.4208 -5.8155,0.022 29.0548,-37.5129 -72.7178,-107.1732 -72.7178,-107.1732 100.1665,67.7591 78.5333,107.1505 78.5333,107.1505 m 0,3e-4 0,0 z"
       id="path3337"
       style="fill:none;stroke:#ffffff;stroke-width:5.72970009;stroke-linecap:round;stroke-linejoin:round;stroke-miterlimit:2.61312604;stroke-opacity:1;stroke-dasharray:none" /><path
       d="m 490.9774,990.7778 c 32.2537,24.8936 99.5315,82.5143 68.157,108.322 -7.8239,14.6642 13.1842,1.7643 13.1842,1.7643 0,0 20.1836,-43.2873 -78.5154,-109.8584 -5.8456,-3.9401 -5.0012,-1.9922 -2.8258,-0.2279 z m 78.2628,106.3724 c 0,0 -12.4288,12.4208 -5.8155,0.022 29.0548,-37.5129 -72.7178,-107.1732 -72.7178,-107.1732 100.1665,67.7591 78.5333,107.1505 78.5333,107.1505 m 0,3e-4 0,0 z"
       id="path3339"
       style="fill:#ffffff;fill-opacity:1;fill-rule:nonzero;stroke:none" /><path
       d="m 501.3573,1002.8735 c 0,0 -26.5043,-15.3688 -43.8254,-29.802 -17.3208,-14.4332 -75.7122,-106.7428 -75.7122,-106.7428 28.8269,18.7219 39.0081,56.878 70.9846,89.2054 31.9765,32.3277 32.6716,27.5219 55.3252,41.8782 l -6.7722,5.4612 z"
       id="path3341"
       style="fill:#336ee5;fill-opacity:1;fill-rule:evenodd;stroke:none" /></g></svg>