<svg version="1.1" xmlns="http://www.w3.org/2000/svg" xmlns:xlink="http://www.w3.org/1999/xlink" width="470.75" height="523"><style xmlns="http://www.w3.org/1999/xhtml"></style><defs/><g transform="translate(0,0)"><g><rect fill="#FFFFFF" stroke="none" x="0" y="0" width="470.75" height="523"/></g><g transform="translate(0.5,0.5) matrix(1,0,0,1,220,408)"><g><g transform="translate(0,0) scale(1.925,0.7)"><g><path fill="#ffffff" stroke="none" d="M 0 0 L 100 0 Q 100 0 100 0 L 100 100 Q 100 100 100 100 L 0 100 Q 0 100 0 100 L 0 0 Q 0 0 0 0 Z"/><g transform="scale(0.5194805194805194,1.4285714285714286)"><path fill="none" stroke="none" d="M 0 0 L 192.5 0 Q 192.5 0 192.5 0 L 192.5 70 Q 192.5 70 192.5 70 L 0 70 Q 0 70 0 70 L 0 0 Q 0 0 0 0 Z"/><path fill="none" stroke="#000000" d="M 0 0 M 0 0 L 192.5 0 Q 192.5 0 192.5 0 L 192.5 70 Q 192.5 70 192.5 70 L 0 70 Q 0 70 0 70 L 0 0 Q 0 0 0 0 Z" stroke-miterlimit="10"/></g></g></g></g></g><g transform="translate(0,0) matrix(1,0,0,1,12.5,10)"><g><g transform="translate(0,0) scale(4,3.3)"><g><path fill="#ffffff" stroke="none" d="M 0 0 L 100 0 Q 100 0 100 0 L 100 100 Q 100 100 100 100 L 0 100 Q 0 100 0 100 L 0 0 Q 0 0 0 0 Z"/><g transform="scale(0.25,0.30303030303030304)"><path fill="none" stroke="none" d="M 0 0 L 400 0 Q 400 0 400 0 L 400 330 Q 400 330 400 330 L 0 330 Q 0 330 0 330 L 0 0 Q 0 0 0 0 Z"/><path fill="none" stroke="#6d9eeb" d="M 0 0 M 0 0 L 400 0 Q 400 0 400 0 L 400 330 Q 400 330 400 330 L 0 330 Q 0 330 0 330 L 0 0 Q 0 0 0 0 Z" stroke-miterlimit="10" stroke-width="2"/></g></g></g></g></g><g transform="translate(0,0) matrix(1,0,0,1,50,173)"><g><g transform="translate(0,0) scale(0.9,0.4)"><g><path fill="none" stroke="none" d="M 10 0 L 90 0 Q 100 0 100 10 L 100 90 Q 100 100 90 100 L 10 100 Q 0 100 0 90 L 0 10 Q 0 0 10 0 Z"/><g transform="scale(1.1111111111111112,2.5)"><path fill="#1155cc" stroke="none" d="M 10 0 L 80 0 Q 90 0 90 10 L 90 30 Q 90 40 80 40 L 10 40 Q 0 40 0 30 L 0 10 Q 0 0 10 0 Z"/><path fill="none" stroke="#1155cc" d="M 10 0 M 10 0 L 80 0 Q 90 0 90 10 L 90 30 Q 90 40 80 40 L 10 40 Q 0 40 0 30 L 0 10 Q 0 0 10 0 Z" stroke-miterlimit="10" stroke-width="2"/></g></g></g></g></g><g transform="matrix(1,0,0,1,60,186)"><g><g><rect fill="rgb(0,0,0)" stroke="none" x="0" y="0" width="70" height="14" fill-opacity="0"/></g></g><g><g><rect fill="rgb(0,0,0)" stroke="none" x="0" y="0" width="70" height="14" fill-opacity="0"/></g></g><g><g><rect fill="rgb(0,0,0)" stroke="none" x="18.5" y="0" width="34" height="14" fill-opacity="0"/></g></g><g><g><rect fill="rgb(0,0,0)" stroke="none" x="18.5" y="0" width="34" height="14" fill-opacity="0"/></g><text fill="rgb(255, 255, 255)" stroke="none" font-family="Arial" font-size="12px" font-style="normal" font-weight="bold" text-decoration="" line-height="14px" x="19" y="11">p</text><text fill="rgb(255, 255, 255)" stroke="none" font-family="Arial" font-size="12px" font-style="normal" font-weight="bold" text-decoration="" line-height="14px" x="26" y="11">r</text><text fill="rgb(255, 255, 255)" stroke="none" font-family="Arial" font-size="12px" font-style="normal" font-weight="bold" text-decoration="" line-height="14px" x="31" y="11">o</text><text fill="rgb(255, 255, 255)" stroke="none" font-family="Arial" font-size="12px" font-style="normal" font-weight="bold" text-decoration="" line-height="14px" x="38" y="11">x</text><text fill="rgb(255, 255, 255)" stroke="none" font-family="Arial" font-size="12px" font-style="normal" font-weight="bold" text-decoration="" line-height="14px" x="45" y="11">y</text></g></g><g transform="translate(0,0) matrix(1,0,0,1,50,33)"><g><g transform="translate(0,0) scale(0.9,0.4)"><g><path fill="none" stroke="none" d="M 10 0 L 90 0 Q 100 0 100 10 L 100 90 Q 100 100 90 100 L 10 100 Q 0 100 0 90 L 0 10 Q 0 0 10 0 Z"/><g transform="scale(1.1111111111111112,2.5)"><path fill="#6d9eeb" stroke="none" d="M 10 0 L 80 0 Q 90 0 90 10 L 90 30 Q 90 40 80 40 L 10 40 Q 0 40 0 30 L 0 10 Q 0 0 10 0 Z"/><path fill="none" stroke="#6d9eeb" d="M 10 0 M 10 0 L 80 0 Q 90 0 90 10 L 90 30 Q 90 40 80 40 L 10 40 Q 0 40 0 30 L 0 10 Q 0 0 10 0 Z" stroke-miterlimit="10" stroke-width="2"/></g></g></g></g></g><g transform="matrix(1,0,0,1,60,39)"><g><g><rect fill="rgb(0,0,0)" stroke="none" x="0" y="0" width="70" height="28" fill-opacity="0"/></g></g><g><g><rect fill="rgb(0,0,0)" stroke="none" x="0" y="0" width="70" height="14" fill-opacity="0"/></g></g><g><g><rect fill="rgb(0,0,0)" stroke="none" x="13.5" y="0" width="44" height="14" fill-opacity="0"/></g></g><g><g><rect fill="rgb(0,0,0)" stroke="none" x="13.5" y="0" width="44" height="14" fill-opacity="0"/></g><text fill="rgb(0, 0, 0)" stroke="none" font-family="Arial" font-size="12px" font-style="normal" font-weight="bold" text-decoration="" line-height="14px" x="14" y="11">m</text><text fill="rgb(0, 0, 0)" stroke="none" font-family="Arial" font-size="12px" font-style="normal" font-weight="bold" text-decoration="" line-height="14px" x="25" y="11">e</text><text fill="rgb(0, 0, 0)" stroke="none" font-family="Arial" font-size="12px" font-style="normal" font-weight="bold" text-decoration="" line-height="14px" x="32" y="11">s</text><text fill="rgb(0, 0, 0)" stroke="none" font-family="Arial" font-size="12px" font-style="normal" font-weight="bold" text-decoration="" line-height="14px" x="39" y="11">o</text><text fill="rgb(0, 0, 0)" stroke="none" font-family="Arial" font-size="12px" font-style="normal" font-weight="bold" text-decoration="" line-height="14px" x="46" y="11">s</text><text fill="rgb(0, 0, 0)" stroke="none" font-family="Arial" font-size="12px" font-style="normal" font-weight="bold" text-decoration="" line-height="14px" x="53" y="11">-</text></g><g><g><rect fill="rgb(0,0,0)" stroke="none" x="0" y="14" width="70" height="14" fill-opacity="0"/></g></g><g><g><rect fill="rgb(0,0,0)" stroke="none" x="19.5" y="14" width="32" height="14" fill-opacity="0"/></g></g><g><g><rect fill="rgb(0,0,0)" stroke="none" x="19.5" y="14" width="32" height="14" fill-opacity="0"/></g><text fill="rgb(0, 0, 0)" stroke="none" font-family="Arial" font-size="12px" font-style="normal" font-weight="bold" text-decoration="" line-height="14px" x="20" y="25">s</text><text fill="rgb(0, 0, 0)" stroke="none" font-family="Arial" font-size="12px" font-style="normal" font-weight="bold" text-decoration="" line-height="14px" x="27" y="25">l</text><text fill="rgb(0, 0, 0)" stroke="none" font-family="Arial" font-size="12px" font-style="normal" font-weight="bold" text-decoration="" line-height="14px" x="30" y="25">a</text><text fill="rgb(0, 0, 0)" stroke="none" font-family="Arial" font-size="12px" font-style="normal" font-weight="bold" text-decoration="" line-height="14px" x="37" y="25">v</text><text fill="rgb(0, 0, 0)" stroke="none" font-family="Arial" font-size="12px" font-style="normal" font-weight="bold" text-decoration="" line-height="14px" x="44" y="25">e</text></g></g><g transform="translate(0,0) matrix(1,0,0,1,165,33)"><g><g transform="translate(0,0) scale(0.9,0.4)"><g><path fill="none" stroke="none" d="M 10 0 L 90 0 Q 100 0 100 10 L 100 90 Q 100 100 90 100 L 10 100 Q 0 100 0 90 L 0 10 Q 0 0 10 0 Z"/><g transform="scale(1.1111111111111112,2.5)"><path fill="#b7b7b7" stroke="none" d="M 10 0 L 80 0 Q 90 0 90 10 L 90 30 Q 90 40 80 40 L 10 40 Q 0 40 0 30 L 0 10 Q 0 0 10 0 Z"/><path fill="none" stroke="#b7b7b7" d="M 10 0 M 10 0 L 80 0 Q 90 0 90 10 L 90 30 Q 90 40 80 40 L 10 40 Q 0 40 0 30 L 0 10 Q 0 0 10 0 Z" stroke-miterlimit="10" stroke-width="2"/></g></g></g></g></g><g transform="matrix(1,0,0,1,175,46)"><g><g><rect fill="rgb(0,0,0)" stroke="none" x="0" y="0" width="70" height="14" fill-opacity="0"/></g></g><g><g><rect fill="rgb(0,0,0)" stroke="none" x="0" y="0" width="70" height="14" fill-opacity="0"/></g></g><g><g><rect fill="rgb(0,0,0)" stroke="none" x="15" y="0" width="40" height="14" fill-opacity="0"/></g></g><g><g><rect fill="rgb(0,0,0)" stroke="none" x="15" y="0" width="40" height="14" fill-opacity="0"/></g><text fill="rgb(0, 0, 0)" stroke="none" font-family="Arial" font-size="12px" font-style="normal" font-weight="bold" text-decoration="" line-height="14px" x="15" y="11">d</text><text fill="rgb(0, 0, 0)" stroke="none" font-family="Arial" font-size="12px" font-style="normal" font-weight="bold" text-decoration="" line-height="14px" x="22" y="11">o</text><text fill="rgb(0, 0, 0)" stroke="none" font-family="Arial" font-size="12px" font-style="normal" font-weight="bold" text-decoration="" line-height="14px" x="29" y="11">c</text><text fill="rgb(0, 0, 0)" stroke="none" font-family="Arial" font-size="12px" font-style="normal" font-weight="bold" text-decoration="" line-height="14px" x="36" y="11">k</text><text fill="rgb(0, 0, 0)" stroke="none" font-family="Arial" font-size="12px" font-style="normal" font-weight="bold" text-decoration="" line-height="14px" x="43" y="11">e</text><text fill="rgb(0, 0, 0)" stroke="none" font-family="Arial" font-size="12px" font-style="normal" font-weight="bold" text-decoration="" line-height="14px" x="50" y="11">r</text></g></g><g transform="translate(0,0) matrix(1,0,0,1,50,263)"><g><g transform="translate(0,0) scale(0.9,0.4)"><g><path fill="none" stroke="none" d="M 10 0 L 90 0 Q 100 0 100 10 L 100 90 Q 100 100 90 100 L 10 100 Q 0 100 0 90 L 0 10 Q 0 0 10 0 Z"/><g transform="scale(1.1111111111111112,2.5)"><path fill="#b7b7b7" stroke="none" d="M 10 0 L 80 0 Q 90 0 90 10 L 90 30 Q 90 40 80 40 L 10 40 Q 0 40 0 30 L 0 10 Q 0 0 10 0 Z"/><path fill="none" stroke="#b7b7b7" d="M 10 0 M 10 0 L 80 0 Q 90 0 90 10 L 90 30 Q 90 40 80 40 L 10 40 Q 0 40 0 30 L 0 10 Q 0 0 10 0 Z" stroke-miterlimit="10" stroke-width="2"/></g></g></g></g></g><g transform="matrix(1,0,0,1,60,276)"><g><g><rect fill="rgb(0,0,0)" stroke="none" x="0" y="0" width="70" height="14" fill-opacity="0"/></g></g><g><g><rect fill="rgb(0,0,0)" stroke="none" x="0" y="0" width="70" height="14" fill-opacity="0"/></g></g><g><g><rect fill="rgb(0,0,0)" stroke="none" x="12.5" y="0" width="46" height="14" fill-opacity="0"/></g></g><g><g><rect fill="rgb(0,0,0)" stroke="none" x="12.5" y="0" width="46" height="14" fill-opacity="0"/></g><text fill="rgb(0, 0, 0)" stroke="none" font-family="Arial" font-size="12px" font-style="normal" font-weight="bold" text-decoration="" line-height="14px" x="13" y="11">i</text><text fill="rgb(0, 0, 0)" stroke="none" font-family="Arial" font-size="12px" font-style="normal" font-weight="bold" text-decoration="" line-height="14px" x="16" y="11">p</text><text fill="rgb(0, 0, 0)" stroke="none" font-family="Arial" font-size="12px" font-style="normal" font-weight="bold" text-decoration="" line-height="14px" x="23" y="11">t</text><text fill="rgb(0, 0, 0)" stroke="none" font-family="Arial" font-size="12px" font-style="normal" font-weight="bold" text-decoration="" line-height="14px" x="27" y="11">a</text><text fill="rgb(0, 0, 0)" stroke="none" font-family="Arial" font-size="12px" font-style="normal" font-weight="bold" text-decoration="" line-height="14px" x="34" y="11">b</text><text fill="rgb(0, 0, 0)" stroke="none" font-family="Arial" font-size="12px" font-style="normal" font-weight="bold" text-decoration="" line-height="14px" x="41" y="11">l</text><text fill="rgb(0, 0, 0)" stroke="none" font-family="Arial" font-size="12px" font-style="normal" font-weight="bold" text-decoration="" line-height="14px" x="44" y="11">e</text><text fill="rgb(0, 0, 0)" stroke="none" font-family="Arial" font-size="12px" font-style="normal" font-weight="bold" text-decoration="" line-height="14px" x="51" y="11">s</text></g></g><g transform="translate(0,0) matrix(1,0,0,1,294.5,90.5)"><g><g transform="translate(0,0) scale(1,2.3)"><g><path fill="#ffffff" stroke="none" d="M 0 0 L 100 0 Q 100 0 100 0 L 100 100 Q 100 100 100 100 L 0 100 Q 0 100 0 100 L 0 0 Q 0 0 0 0 Z"/><g transform="scale(1,0.4347826086956522)"><path fill="none" stroke="none" d="M 0 0 L 100 0 Q 100 0 100 0 L 100 229.99999999999997 Q 100 229.99999999999997 100 229.99999999999997 L 0 229.99999999999997 Q 0 229.99999999999997 0 229.99999999999997 L 0 0 Q 0 0 0 0 Z"/><path fill="none" stroke="#1155cc" d="M 0 0 M 0 0 L 8 0 M 8 0 M 10 0 L 18 0 M 18 0 M 20 0 L 28 0 M 28 0 M 30 0 L 38 0 M 38 0 M 40 0 L 48 0 M 48 0 M 50 0 L 58 0 M 58 0 M 60 0 L 68 0 M 68 0 M 70 0 L 78 0 M 78 0 M 80 0 L 88 0 M 88 0 M 90 0 L 98 0 M 98 0 M 100 0 L 100 0 Q 100 0 100 0 L 100 8 M 100 8 M 100 10 L 100 18 M 100 18 M 100 20 L 100 28 M 100 28 M 100 30 L 100 38 M 100 38 M 100 40 L 100 48 M 100 48 M 100 50 L 100 58 M 100 58 M 100 60 L 100 68 M 100 68 M 100 70 L 100 78 M 100 78 M 100 80 L 100 88 M 100 88 M 100 90 L 100 98 M 100 98 M 100 100 L 100 108 M 100 108 M 100 110 L 100 118 M 100 118 M 100 120 L 100 128 M 100 128 M 100 130 L 100 138 M 100 138 M 100 140 L 100 148 M 100 148 M 100 150 L 100 158 M 100 158 M 100 160 L 100 168 M 100 168 M 100 170 L 100 178 M 100 178 M 100 180 L 100 188 M 100 188 M 100 190 L 100 198 M 100 198 M 100 200 L 100 208 M 100 208 M 100 210 L 100 218 M 100 218 M 100 220 L 100 228 M 100 228 M 99.99999999999997 229.99999999999997 L 91.99999999999997 229.99999999999997 M 91.99999999999997 229.99999999999997 M 89.99999999999997 229.99999999999997 L 81.99999999999997 229.99999999999997 M 81.99999999999997 229.99999999999997 M 79.99999999999997 229.99999999999997 L 71.99999999999997 229.99999999999997 M 71.99999999999997 229.99999999999997 M 69.99999999999997 229.99999999999997 L 61.99999999999997 229.99999999999997 M 61.99999999999997 229.99999999999997 M 59.99999999999997 229.99999999999997 L 51.99999999999997 229.99999999999997 M 51.99999999999997 229.99999999999997 M 49.99999999999997 229.99999999999997 L 41.99999999999997 229.99999999999997 M 41.99999999999997 229.99999999999997 M 39.99999999999997 229.99999999999997 L 31.99999999999997 229.99999999999997 M 31.99999999999997 229.99999999999997 M 29.99999999999997 229.99999999999997 L 21.99999999999997 229.99999999999997 M 21.99999999999997 229.99999999999997 M 19.99999999999997 229.99999999999997 L 11.999999999999972 229.99999999999997 M 11.999999999999972 229.99999999999997 M 9.999999999999972 229.99999999999997 L 1.9999999999999716 229.99999999999997 M 1.9999999999999716 229.99999999999997 M 0 229.99999999999994 L 0 221.99999999999994 M 0 221.99999999999994 M 0 219.99999999999994 L 0 211.99999999999994 M 0 211.99999999999994 M 0 209.99999999999994 L 0 201.99999999999994 M 0 201.99999999999994 M 0 199.99999999999994 L 0 191.99999999999994 M 0 191.99999999999994 M 0 189.99999999999994 L 0 181.99999999999994 M 0 181.99999999999994 M 0 179.99999999999994 L 0 171.99999999999994 M 0 171.99999999999994 M 0 169.99999999999994 L 0 161.99999999999994 M 0 161.99999999999994 M 0 159.99999999999994 L 0 151.99999999999994 M 0 151.99999999999994 M 0 149.99999999999994 L 0 141.99999999999994 M 0 141.99999999999994 M 0 139.99999999999994 L 0 131.99999999999994 M 0 131.99999999999994 M 0 129.99999999999994 L 0 121.99999999999994 M 0 121.99999999999994 M 0 119.99999999999994 L 0 111.99999999999994 M 0 111.99999999999994 M 0 109.99999999999994 L 0 101.99999999999994 M 0 101.99999999999994 M 0 99.99999999999994 L 0 91.99999999999994 M 0 91.99999999999994 M 0 89.99999999999994 L 0 81.99999999999994 M 0 81.99999999999994 M 0 79.99999999999994 L 0 71.99999999999994 M 0 71.99999999999994 M 0 69.99999999999994 L 0 61.99999999999994 M 0 61.99999999999994 M 0 59.99999999999994 L 0 51.99999999999994 M 0 51.99999999999994 M 0 49.99999999999994 L 0 41.99999999999994 M 0 41.99999999999994 M 0 39.99999999999994 L 0 31.999999999999943 M 0 31.999999999999943 M 0 29.999999999999943 L 0 21.999999999999943 M 0 21.999999999999943 M 0 19.999999999999943 L 0 11.999999999999943 M 0 11.999999999999943 M 0 9.999999999999943 L 0 1.9999999999999432 M 0 1.9999999999999432 Z" stroke-miterlimit="10" stroke-width="2"/></g></g></g></g></g><g transform="translate(0,0) matrix(1,0,0,1,279.7857142857142,353)"><g><g transform="translate(0,0) scale(1.3,0.4)"><g><path fill="#ffffff" stroke="none" d="M 0 0 L 100 0 Q 100 0 100 0 L 100 100 Q 100 100 100 100 L 0 100 Q 0 100 0 100 L 0 0 Q 0 0 0 0 Z"/><g transform="scale(0.7692307692307692,2.5)"><path fill="none" stroke="none" d="M 0 0 L 130 0 Q 130 0 130 0 L 130 40 Q 130 40 130 40 L 0 40 Q 0 40 0 40 L 0 0 Q 0 0 0 0 Z"/><path fill="none" stroke="#ffffff" d="M 0 0 M 0 0 L 130 0 Q 130 0 130 0 L 130 40 Q 130 40 130 40 L 0 40 Q 0 40 0 40 L 0 0 Q 0 0 0 0 Z" stroke-miterlimit="10" stroke-width="2"/></g></g></g></g></g><g transform="matrix(1,0,0,1,290,361)"><g><g><rect fill="rgb(0,0,0)" stroke="none" x="0" y="0" width="109" height="24" fill-opacity="0"/></g></g><g><g><rect fill="rgb(0,0,0)" stroke="none" x="0" y="0" width="109" height="12" fill-opacity="0"/></g></g><g><g><rect fill="rgb(0,0,0)" stroke="none" x="2.796875" y="0" width="107" height="12" fill-opacity="0"/></g></g><g><g><rect fill="rgb(0,0,0)" stroke="none" x="2.796875" y="0" width="107" height="12" fill-opacity="0"/></g><text fill="rgb(0, 0, 0)" stroke="none" font-family="Arial" font-size="11px" font-style="normal" font-weight="normal" text-decoration="" line-height="12px" x="3" y="10">kubelet</text><text fill="rgb(0, 0, 0)" stroke="none" font-family="Arial" font-size="11px" font-style="normal" font-weight="normal" text-decoration="" line-height="12px" x="37" y="10">-</text><text fill="rgb(0, 0, 0)" stroke="none" font-family="Arial" font-size="11px" font-style="normal" font-weight="normal" text-decoration="" line-height="12px" x="41" y="10">managed</text><text fill="rgb(0, 0, 0)" stroke="none" font-family="Arial" font-size="11px" font-style="normal" font-weight="normal" text-decoration="" line-height="12px" x="88" y="10">pod</text><text fill="rgb(0, 0, 0)" stroke="none" font-family="Arial" font-size="11px" font-style="normal" font-weight="normal" text-decoration="" line-height="12px" x="106" y="10">,</text></g><g><g><rect fill="rgb(0,0,0)" stroke="none" x="0" y="12" width="109" height="12" fill-opacity="0"/></g></g><g><g><rect fill="rgb(0,0,0)" stroke="none" x="9.796875" y="12" width="100" height="12" fill-opacity="0"/></g></g><g><g><rect fill="rgb(0,0,0)" stroke="none" x="9.796875" y="12" width="100" height="12" fill-opacity="0"/></g><text fill="rgb(0, 0, 0)" stroke="none" font-family="Arial" font-size="11px" font-style="normal" font-weight="normal" text-decoration="" line-height="12px" x="10" y="22">network</text><text fill="rgb(0, 0, 0)" stroke="none" font-family="Arial" font-size="11px" font-style="normal" font-weight="normal" text-decoration="" line-height="12px" x="53" y="22">namespace</text></g></g><g transform="matrix(1,0,0,1,340.5,316.5)"><g transform="translate(0,0)"><g transform="translate(-446,-15) translate(105.5,-301.5) matrix(1,0,0,1,0,0)"><g><path fill="none" stroke="#000000" d="M 344.5 353.0012558627057 M 344.5 353.0012558627057 Q 344.5 352.4953497605237 344.5 352.00125586270576 M 344.5 352.00125586270576 M 344.5 351.0012558627058 Q 344.5 350.4947332986559 344.5 350.0012558627059 M 344.5 350.0012558627059 M 344.5000000000001 349.001255862706 Q 344.5000000000001 348.4939731196911 344.5000000000001 348.001255862706 M 344.5000000000001 348.001255862706 M 344.5000000000001 347.00125586270605 Q 344.5000000000001 346.4930123192226 344.5000000000001 346.00125586270605 M 344.5000000000001 346.00125586270605 M 344.5000000000001 345.001255862706 Q 344.5000000000001 344.49175937099835 344.5000000000001 344.001255862706 M 344.5000000000001 344.001255862706 M 344.5000000000001 343.001255862706 Q 344.50000000000006 342.49005705698806 344.50000000000006 342.00125586270593 M 344.50000000000006 342.00125586270593 M 344.50000000000006 341.00125586270593 Q 344.50000000000006 340.4876105893588 344.50000000000006 340.00125586270593 M 344.50000000000006 340.00125586270593 M 344.5 339.00125586270593 Q 344.5 338.4837947707464 344.5 338.00125586270593 M 344.5 338.00125586270593 M 344.5 337.00125586270593 Q 344.5 336.8745249844193 344.5 336.7506279313528 Q 344.5 336.3880747923632 344.5 336.0012558626953 M 344.5 336.0012558626953 M 344.5 335.0012558626945 Q 344.5 334.51757847750287 344.5 334.0012558626944 M 344.5 334.0012558626944 M 344.5 333.0012558626944 Q 344.5 332.51419611878146 344.5 332.0012558626944 M 344.5 332.0012558626944 M 344.5 331.00125586269434 Q 344.5 330.51197545774914 344.5 330.0012558626944 M 344.5 330.0012558626944 M 344.5 329.0012558626944 Q 344.5 328.51040554722704 344.5 328.0012558626944 M 344.5 328.0012558626944 M 344.5 327.0012558626944 Q 344.5 326.50923683220105 344.5 326.0012558626944 M 344.5 326.0012558626944 M 344.5 325.00125586269434 Q 344.5 324.50833291957946 344.5 324.00125586269434 M 344.5 324.00125586269434 M 344.5 323.0012558626943 Q 344.5 322.507612957654 344.5 322.0012558626943 M 344.5 322.0012558626943 M 344.5 321.0012558626943 Q 344.5 320.75209445033704 344.5 320.5" stroke-miterlimit="10"/></g></g></g></g><g transform="matrix(1,0,0,1,17,321)"><g><g><rect fill="rgb(0,0,0)" stroke="none" x="0" y="0" width="76" height="14" fill-opacity="0"/></g></g><g><g><rect fill="rgb(0,0,0)" stroke="none" x="0" y="0" width="76" height="14" fill-opacity="0"/></g></g><g><g><rect fill="rgb(0,0,0)" stroke="none" x="3" y="0" width="41" height="14" fill-opacity="0"/></g></g><g><g><rect fill="rgb(0,0,0)" stroke="none" x="3" y="0" width="41" height="14" fill-opacity="0"/></g><text fill="rgb(0, 0, 0)" stroke="none" font-family="Arial" font-size="12px" font-style="normal" font-weight="bold" text-decoration="" line-height="14px" x="3" y="11">SLAVE</text></g><g><g><rect fill="rgb(0,0,0)" stroke="none" x="44" y="0" width="32" height="14" fill-opacity="0"/></g></g><g><g><rect fill="rgb(0,0,0)" stroke="none" x="44" y="0" width="32" height="14" fill-opacity="0"/></g><text fill="rgb(0, 0, 0)" stroke="none" font-family="Arial" font-size="12px" font-style="normal" font-weight="bold" text-decoration="" line-height="14px" x="44" y="11">HOST</text></g></g><g transform="matrix(1,0,0,1,240,429.5)"><g transform="translate(0,0)"><g transform="translate(-244.5,-436) translate(4.5,6.5) matrix(1,0,0,1,0,0)"><g><path fill="none" stroke="#000000" d="M 244.5 434 L 253 434 Q 261.5 434 261.5 434 L 261.5 434 Q 261.5 434 270 434 L 278.5 434" stroke-miterlimit="10" stroke-width="2"/></g></g></g></g><g transform="matrix(1,0,0,1,285,428)"><g><g><rect fill="rgb(0,0,0)" stroke="none" x="0" y="0" width="126" height="12" fill-opacity="0"/></g></g><g><g><rect fill="rgb(0,0,0)" stroke="none" x="0" y="0" width="126" height="12" fill-opacity="0"/></g></g><g><g><rect fill="rgb(0,0,0)" stroke="none" x="0" y="0" width="70" height="12" fill-opacity="0"/></g></g><g><g><rect fill="rgb(0,0,0)" stroke="none" x="0" y="0" width="70" height="12" fill-opacity="0"/></g><text fill="rgb(0, 0, 0)" stroke="none" font-family="Arial" font-size="11px" font-style="normal" font-weight="normal" text-decoration="" line-height="12px" x="0" y="10">socket</text><text fill="rgb(0, 0, 0)" stroke="none" font-family="Arial" font-size="11px" font-style="normal" font-weight="normal" text-decoration="" line-height="12px" x="35" y="10">listener</text></g></g><g transform="matrix(1,0,0,1,240,449.5)"><g transform="translate(0,0)"><g transform="translate(-244.5,-456) translate(4.5,6.5) matrix(1,0,0,1,0,0)"><g><path fill="none" stroke="#000000" d="M 244.5 454 M 244.5 454 L 246.5 454 M 246.5 454 M 248.5 454 L 250.5 454 M 250.5 454 M 252.5 454 L 253 454 Q 253.78637568925726 454 254.49999999914334 454 M 254.49999999914334 454 M 256.499999992082 454 Q 257.62701664544807 454 258.49999999182353 454 M 258.49999999182353 454 M 260.49999999182353 454 Q 261.5 454 261.5 454 L 261.5 454 Q 261.5 454 262.4999999918319 454 M 262.4999999918319 454 M 264.4999999918319 454 Q 265.3729833377715 454 266.49999999183194 454 M 266.49999999183194 454 M 268.49999999183194 454 Q 269.2136243057704 454 270 454 L 270.49999999183194 454 M 270.49999999183194 454 M 272.49999999183194 454 L 274.49999999183194 454 M 274.49999999183194 454 M 276.49999999183194 454 L 278.49999999183194 454 M 278.49999999183194 454" stroke-miterlimit="10" stroke-width="2"/></g></g></g></g><g transform="matrix(1,0,0,1,285,448)"><g><g><rect fill="rgb(0,0,0)" stroke="none" x="0" y="0" width="126" height="12" fill-opacity="0"/></g></g><g><g><rect fill="rgb(0,0,0)" stroke="none" x="0" y="0" width="126" height="12" fill-opacity="0"/></g></g><g><g><rect fill="rgb(0,0,0)" stroke="none" x="0" y="0" width="108" height="12" fill-opacity="0"/></g></g><g><g><rect fill="rgb(0,0,0)" stroke="none" x="0" y="0" width="108" height="12" fill-opacity="0"/></g><text fill="rgb(0, 0, 0)" stroke="none" font-family="Arial" font-size="11px" font-style="normal" font-weight="normal" text-decoration="" line-height="12px" x="0" y="10">forwarded</text><text fill="rgb(0, 0, 0)" stroke="none" font-family="Arial" font-size="11px" font-style="normal" font-weight="normal" text-decoration="" line-height="12px" x="55" y="10">connection</text></g></g><g transform="translate(0,0) matrix(1,0,0,1,304.5,264.5)"><g><g transform="translate(0,0) scale(0.8,0.4)"><g><path fill="none" stroke="none" d="M 10 0 L 90 0 Q 100 0 100 10 L 100 90 Q 100 100 90 100 L 10 100 Q 0 100 0 90 L 0 10 Q 0 0 10 0 Z"/><g transform="scale(1.25,2.5)"><path fill="#ffffff" stroke="none" d="M 10 0 L 70 0 Q 80 0 80 10 L 80 30 Q 80 40 70 40 L 10 40 Q 0 40 0 30 L 0 10 Q 0 0 10 0 Z"/><path fill="none" stroke="#ff9900" d="M 10 0 M 10 0 L 70 0 Q 80 0 80 10 L 80 30 Q 80 40 70 40 L 10 40 Q 0 40 0 30 L 0 10 Q 0 0 10 0 Z" stroke-miterlimit="10" stroke-width="2"/></g></g></g></g></g><g transform="matrix(1,0,0,1,314,267)"><g><g><rect fill="rgb(0,0,0)" stroke="none" x="0" y="0" width="60" height="36" fill-opacity="0"/></g></g><g><g><rect fill="rgb(0,0,0)" stroke="none" x="0" y="0" width="60" height="12" fill-opacity="0"/></g></g><g><g><rect fill="rgb(0,0,0)" stroke="none" x="12.21875" y="0" width="37" height="12" fill-opacity="0"/></g><text fill="rgb(0, 0, 0)" stroke="none" font-family="Arial" font-size="11px" font-style="normal" font-weight="bold" text-decoration="" line-height="12px" x="12" y="10">&lt;</text><text fill="rgb(0, 0, 0)" stroke="none" font-family="Arial" font-size="11px" font-style="normal" font-weight="bold" text-decoration="" line-height="12px" x="18" y="10">v</text><text fill="rgb(0, 0, 0)" stroke="none" font-family="Arial" font-size="11px" font-style="normal" font-weight="bold" text-decoration="" line-height="12px" x="24" y="10">e</text><text fill="rgb(0, 0, 0)" stroke="none" font-family="Arial" font-size="11px" font-style="normal" font-weight="bold" text-decoration="" line-height="12px" x="31" y="10">t</text><text fill="rgb(0, 0, 0)" stroke="none" font-family="Arial" font-size="11px" font-style="normal" font-weight="bold" text-decoration="" line-height="12px" x="35" y="10">h</text><text fill="rgb(0, 0, 0)" stroke="none" font-family="Arial" font-size="11px" font-style="normal" font-weight="bold" text-decoration="" line-height="12px" x="42" y="10">&gt;</text></g><g><g><rect fill="rgb(0,0,0)" stroke="none" x="0" y="12" width="60" height="12" fill-opacity="0"/></g></g><g><g><rect fill="rgb(0,0,0)" stroke="none" x="1.71875" y="12" width="58" height="12" fill-opacity="0"/></g><text fill="rgb(0, 0, 0)" stroke="none" font-family="Arial" font-size="11px" font-style="normal" font-weight="bold" text-decoration="" line-height="12px" x="2" y="22">1</text><text fill="rgb(0, 0, 0)" stroke="none" font-family="Arial" font-size="11px" font-style="normal" font-weight="bold" text-decoration="" line-height="12px" x="8" y="22">7</text><text fill="rgb(0, 0, 0)" stroke="none" font-family="Arial" font-size="11px" font-style="normal" font-weight="bold" text-decoration="" line-height="12px" x="14" y="22">2</text><text fill="rgb(0, 0, 0)" stroke="none" font-family="Arial" font-size="11px" font-style="normal" font-weight="bold" text-decoration="" line-height="12px" x="20" y="22">.</text><text fill="rgb(0, 0, 0)" stroke="none" font-family="Arial" font-size="11px" font-style="normal" font-weight="bold" text-decoration="" line-height="12px" x="23" y="22">1</text><text fill="rgb(0, 0, 0)" stroke="none" font-family="Arial" font-size="11px" font-style="normal" font-weight="bold" text-decoration="" line-height="12px" x="29" y="22">7</text><text fill="rgb(0, 0, 0)" stroke="none" font-family="Arial" font-size="11px" font-style="normal" font-weight="bold" text-decoration="" line-height="12px" x="35" y="22">.</text><text fill="rgb(0, 0, 0)" stroke="none" font-family="Arial" font-size="11px" font-style="normal" font-weight="bold" text-decoration="" line-height="12px" x="38" y="22">4</text><text fill="rgb(0, 0, 0)" stroke="none" font-family="Arial" font-size="11px" font-style="normal" font-weight="bold" text-decoration="" line-height="12px" x="44" y="22">2</text><text fill="rgb(0, 0, 0)" stroke="none" font-family="Arial" font-size="11px" font-style="normal" font-weight="bold" text-decoration="" line-height="12px" x="50" y="22">.</text><text fill="rgb(0, 0, 0)" stroke="none" font-family="Arial" font-size="11px" font-style="normal" font-weight="bold" text-decoration="" line-height="12px" x="53" y="22">x</text></g><g><g><rect fill="rgb(0,0,0)" stroke="none" x="0" y="24" width="60" height="12" fill-opacity="0"/></g></g><g><g><rect fill="rgb(0,0,0)" stroke="none" x="18.21875" y="24" width="25" height="12" fill-opacity="0"/></g><text fill="rgb(0, 0, 0)" stroke="none" font-family="Arial" font-size="11px" font-style="normal" font-weight="bold" text-decoration="" line-height="12px" x="18" y="34">e</text><text fill="rgb(0, 0, 0)" stroke="none" font-family="Arial" font-size="11px" font-style="normal" font-weight="bold" text-decoration="" line-height="12px" x="25" y="34">t</text><text fill="rgb(0, 0, 0)" stroke="none" font-family="Arial" font-size="11px" font-style="normal" font-weight="bold" text-decoration="" line-height="12px" x="29" y="34">h</text><text fill="rgb(0, 0, 0)" stroke="none" font-family="Arial" font-size="11px" font-style="normal" font-weight="bold" text-decoration="" line-height="12px" x="36" y="34">0</text></g></g><g transform="translate(0,0) matrix(1,0,0,1,304.7857142857142,33)"><g><g transform="translate(0,0) scale(0.8,0.4)"><g><path fill="none" stroke="none" d="M 10 0 L 90 0 Q 100 0 100 10 L 100 90 Q 100 100 90 100 L 10 100 Q 0 100 0 90 L 0 10 Q 0 0 10 0 Z"/><g transform="scale(1.25,2.5)"><path fill="#ffffff" stroke="none" d="M 10 0 L 70 0 Q 80 0 80 10 L 80 30 Q 80 40 70 40 L 10 40 Q 0 40 0 30 L 0 10 Q 0 0 10 0 Z"/><path fill="none" stroke="#ff9900" d="M 10 0 M 10 0 L 70 0 Q 80 0 80 10 L 80 30 Q 80 40 70 40 L 10 40 Q 0 40 0 30 L 0 10 Q 0 0 10 0 Z" stroke-miterlimit="10" stroke-width="2"/></g></g></g></g></g><g transform="matrix(1,0,0,1,315,35)"><g><g><rect fill="rgb(0,0,0)" stroke="none" x="0" y="0" width="60" height="36" fill-opacity="0"/></g></g><g><g><rect fill="rgb(0,0,0)" stroke="none" x="0" y="0" width="60" height="12" fill-opacity="0"/></g></g><g><g><rect fill="rgb(0,0,0)" stroke="none" x="6.21875" y="0" width="49" height="12" fill-opacity="0"/></g><text fill="rgb(0, 0, 0)" stroke="none" font-family="Arial" font-size="11px" font-style="normal" font-weight="bold" text-decoration="" line-height="12px" x="6" y="10">&lt;</text><text fill="rgb(0, 0, 0)" stroke="none" font-family="Arial" font-size="11px" font-style="normal" font-weight="bold" text-decoration="" line-height="12px" x="12" y="10">b</text><text fill="rgb(0, 0, 0)" stroke="none" font-family="Arial" font-size="11px" font-style="normal" font-weight="bold" text-decoration="" line-height="12px" x="19" y="10">r</text><text fill="rgb(0, 0, 0)" stroke="none" font-family="Arial" font-size="11px" font-style="normal" font-weight="bold" text-decoration="" line-height="12px" x="24" y="10">i</text><text fill="rgb(0, 0, 0)" stroke="none" font-family="Arial" font-size="11px" font-style="normal" font-weight="bold" text-decoration="" line-height="12px" x="27" y="10">d</text><text fill="rgb(0, 0, 0)" stroke="none" font-family="Arial" font-size="11px" font-style="normal" font-weight="bold" text-decoration="" line-height="12px" x="34" y="10">g</text><text fill="rgb(0, 0, 0)" stroke="none" font-family="Arial" font-size="11px" font-style="normal" font-weight="bold" text-decoration="" line-height="12px" x="41" y="10">e</text><text fill="rgb(0, 0, 0)" stroke="none" font-family="Arial" font-size="11px" font-style="normal" font-weight="bold" text-decoration="" line-height="12px" x="48" y="10">&gt;</text></g><g><g><rect fill="rgb(0,0,0)" stroke="none" x="0" y="12" width="60" height="12" fill-opacity="0"/></g></g><g><g><rect fill="rgb(0,0,0)" stroke="none" x="1.71875" y="12" width="58" height="12" fill-opacity="0"/></g><text fill="rgb(0, 0, 0)" stroke="none" font-family="Arial" font-size="11px" font-style="normal" font-weight="bold" text-decoration="" line-height="12px" x="2" y="22">1</text><text fill="rgb(0, 0, 0)" stroke="none" font-family="Arial" font-size="11px" font-style="normal" font-weight="bold" text-decoration="" line-height="12px" x="8" y="22">7</text><text fill="rgb(0, 0, 0)" stroke="none" font-family="Arial" font-size="11px" font-style="normal" font-weight="bold" text-decoration="" line-height="12px" x="14" y="22">2</text><text fill="rgb(0, 0, 0)" stroke="none" font-family="Arial" font-size="11px" font-style="normal" font-weight="bold" text-decoration="" line-height="12px" x="20" y="22">.</text><text fill="rgb(0, 0, 0)" stroke="none" font-family="Arial" font-size="11px" font-style="normal" font-weight="bold" text-decoration="" line-height="12px" x="23" y="22">1</text><text fill="rgb(0, 0, 0)" stroke="none" font-family="Arial" font-size="11px" font-style="normal" font-weight="bold" text-decoration="" line-height="12px" x="29" y="22">7</text><text fill="rgb(0, 0, 0)" stroke="none" font-family="Arial" font-size="11px" font-style="normal" font-weight="bold" text-decoration="" line-height="12px" x="35" y="22">.</text><text fill="rgb(0, 0, 0)" stroke="none" font-family="Arial" font-size="11px" font-style="normal" font-weight="bold" text-decoration="" line-height="12px" x="38" y="22">4</text><text fill="rgb(0, 0, 0)" stroke="none" font-family="Arial" font-size="11px" font-style="normal" font-weight="bold" text-decoration="" line-height="12px" x="44" y="22">2</text><text fill="rgb(0, 0, 0)" stroke="none" font-family="Arial" font-size="11px" font-style="normal" font-weight="bold" text-decoration="" line-height="12px" x="50" y="22">.</text><text fill="rgb(0, 0, 0)" stroke="none" font-family="Arial" font-size="11px" font-style="normal" font-weight="bold" text-decoration="" line-height="12px" x="53" y="22">1</text></g><g><g><rect fill="rgb(0,0,0)" stroke="none" x="0" y="24" width="60" height="12" fill-opacity="0"/></g></g><g><g><rect fill="rgb(0,0,0)" stroke="none" x="7.71875" y="24" width="46" height="12" fill-opacity="0"/></g><text fill="rgb(0, 0, 0)" stroke="none" font-family="Arial" font-size="11px" font-style="normal" font-weight="bold" text-decoration="" line-height="12px" x="8" y="34">d</text><text fill="rgb(0, 0, 0)" stroke="none" font-family="Arial" font-size="11px" font-style="normal" font-weight="bold" text-decoration="" line-height="12px" x="15" y="34">o</text><text fill="rgb(0, 0, 0)" stroke="none" font-family="Arial" font-size="11px" font-style="normal" font-weight="bold" text-decoration="" line-height="12px" x="22" y="34">c</text><text fill="rgb(0, 0, 0)" stroke="none" font-family="Arial" font-size="11px" font-style="normal" font-weight="bold" text-decoration="" line-height="12px" x="28" y="34">k</text><text fill="rgb(0, 0, 0)" stroke="none" font-family="Arial" font-size="11px" font-style="normal" font-weight="bold" text-decoration="" line-height="12px" x="35" y="34">e</text><text fill="rgb(0, 0, 0)" stroke="none" font-family="Arial" font-size="11px" font-style="normal" font-weight="bold" text-decoration="" line-height="12px" x="42" y="34">r</text><text fill="rgb(0, 0, 0)" stroke="none" font-family="Arial" font-size="11px" font-style="normal" font-weight="bold" text-decoration="" line-height="12px" x="47" y="34">0</text></g></g><g transform="matrix(1,0,0,1,202,284)"><g><g><rect fill="rgb(0,0,0)" stroke="none" x="0" y="0" width="91" height="28" fill-opacity="0"/></g></g><g><g><rect fill="rgb(0,0,0)" stroke="none" x="0" y="0" width="91" height="14" fill-opacity="0"/></g></g><g><g><rect fill="rgb(0,0,0)" stroke="none" x="0" y="0" width="75" height="14" fill-opacity="0"/></g></g><g><g><rect fill="rgb(0,0,0)" stroke="none" x="0" y="0" width="75" height="14" fill-opacity="0"/></g><text fill="rgb(0, 0, 0)" stroke="none" font-family="Arial" font-size="12px" font-style="normal" font-weight="bold" text-decoration="" line-height="14px" x="0" y="11">10</text><text fill="rgb(0, 0, 0)" stroke="none" font-family="Arial" font-size="12px" font-style="normal" font-weight="bold" text-decoration="" line-height="14px" x="14" y="11">.</text><text fill="rgb(0, 0, 0)" stroke="none" font-family="Arial" font-size="12px" font-style="normal" font-weight="bold" text-decoration="" line-height="14px" x="17" y="11">10</text><text fill="rgb(0, 0, 0)" stroke="none" font-family="Arial" font-size="12px" font-style="normal" font-weight="bold" text-decoration="" line-height="14px" x="31" y="11">.</text><text fill="rgb(0, 0, 0)" stroke="none" font-family="Arial" font-size="12px" font-style="normal" font-weight="bold" text-decoration="" line-height="14px" x="34" y="11">10</text><text fill="rgb(0, 0, 0)" stroke="none" font-family="Arial" font-size="12px" font-style="normal" font-weight="bold" text-decoration="" line-height="14px" x="48" y="11">.</text><text fill="rgb(0, 0, 0)" stroke="none" font-family="Arial" font-size="12px" font-style="normal" font-weight="bold" text-decoration="" line-height="14px" x="51" y="11">2</text><text fill="rgb(0, 0, 0)" stroke="none" font-family="Arial" font-size="12px" font-style="normal" font-weight="bold" text-decoration="" line-height="14px" x="58" y="11">:</text><text fill="rgb(0, 0, 0)" stroke="none" font-family="Arial" font-size="12px" font-style="normal" font-weight="bold" text-decoration="" line-height="14px" x="61" y="11">80</text></g></g><g transform="translate(0,0) matrix(1,0,0,1,184,284.5)"><g><g transform="translate(0,0) scale(0.12,0.12)"><g><path fill="#ffffff" stroke="none" d="M 100 50 A 50 50 0 1 0 99.99997500000208 50.04999999166668 Z"/><g transform="scale(8.333333333333334,8.333333333333334)"><path fill="none" stroke="#999999" d="M 6 0 M 6 0 C 9.3137082 0 12 2.6862918000000002 12 6 C 12 9.3137082 9.3137082 12 6 12 C 2.6862918000000002 12 0 9.3137082 0 6 C 0 2.6862918000000002 2.6862918000000002 0 6 0 Z" stroke-miterlimit="10" stroke-width="2"/></g></g></g></g></g><g transform="matrix(1,0,0,1,135.49301099382512,286)"><g transform="translate(0,0)"><g transform="translate(-182,-84) translate(46.50698900617488,-202) matrix(1,0,0,1,0,0)"><g><path fill="none" stroke="#000000" d="M 184 290.5 L 176.6655018323042 290.5 Q 169.33100366460837 290.5 161.99650549691256 290.5 L 161.99650549691256 290.5 Q 154.66200732921675 290.5 147.32750916152094 290.5 L 139.99301099382512 290.5" stroke-miterlimit="10" stroke-width="2"/></g></g></g></g><g transform="matrix(1,0,0,1,203,195)"><g><g><rect fill="rgb(0,0,0)" stroke="none" x="0" y="0" width="91" height="14" fill-opacity="0"/></g></g><g><g><rect fill="rgb(0,0,0)" stroke="none" x="0" y="0" width="91" height="14" fill-opacity="0"/></g></g><g><g><rect fill="rgb(0,0,0)" stroke="none" x="0" y="0" width="77" height="14" fill-opacity="0"/></g></g><g><g><rect fill="rgb(0,0,0)" stroke="none" x="0" y="0" width="77" height="14" fill-opacity="0"/></g><text fill="rgb(0, 0, 0)" stroke="none" font-family="Arial" font-size="12px" font-style="normal" font-weight="bold" text-decoration="" line-height="14px" x="0" y="11">&lt;</text><text fill="rgb(0, 0, 0)" stroke="none" font-family="Arial" font-size="12px" font-style="normal" font-weight="bold" text-decoration="" line-height="14px" x="7" y="11">host</text><text fill="rgb(0, 0, 0)" stroke="none" font-family="Arial" font-size="12px" font-style="normal" font-weight="bold" text-decoration="" line-height="14px" x="32" y="11">&gt;:</text><text fill="rgb(0, 0, 0)" stroke="none" font-family="Arial" font-size="12px" font-style="normal" font-weight="bold" text-decoration="" line-height="14px" x="42" y="11">49153</text></g></g><g transform="translate(0,0) matrix(1,0,0,1,185,195.5)"><g><g transform="translate(0,0) scale(0.12,0.12)"><g><path fill="#ffffff" stroke="none" d="M 100 50 A 50 50 0 1 0 99.99997500000208 50.04999999166668 Z"/><g transform="scale(8.333333333333334,8.333333333333334)"><path fill="none" stroke="#1155cc" d="M 6 0 M 6 0 C 9.3137082 0 12 2.6862918000000002 12 6 C 12 9.3137082 9.3137082 12 6 12 C 2.6862918000000002 12 0 9.3137082 0 6 C 0 2.6862918000000002 2.6862918000000002 0 6 0 Z" stroke-miterlimit="10" stroke-width="2"/></g></g></g></g></g><g transform="matrix(1,0,0,1,135.5,203)"><g transform="translate(0,0)"><g transform="translate(-192,-84) translate(56.5,-119) matrix(1,0,0,1,0,0)"><g><path fill="none" stroke="#000000" d="M 140 274.7157287525381 M 140 274.7157287525381 L 142 274.7157287525381 M 142 274.7157287525381 M 144 274.7157287525381 L 146 274.7157287525381 M 146 274.7157287525381 M 148 274.7157287525381 L 150 274.7157287525381 M 150 274.7157287525381 M 152 274.7157287525381 L 154 274.7157287525381 M 154 274.7157287525381 M 156 274.7157287525381 L 158 274.7157287525381 M 158 274.7157287525381 M 160 274.7157287525381 L 162 274.7157287525381 M 162 274.7157287525381 M 164 274.7157287525381 L 166 274.7157287525381 M 166 274.7157287525381 M 168 274.7157287525381 L 170 274.7157287525381 M 170 274.7157287525381 M 172 274.7157287525381 L 174 274.7157287525381 M 174 274.7157287525381 M 176 274.7157287525381 L 178 274.7157287525381 M 178 274.7157287525381 M 180 274.7157287525381 L 181 274.7157287525381 Q 181.51292054779188 274.7157287525381 181.99953234674905 274.6894200037034 M 181.99953234674905 274.6894200037034 M 183.98381747684311 274.45207740906494 Q 185.01951144718393 274.2513087108905 185.90232142446155 273.8976560196529 M 185.90232142446155 273.8976560196529 M 187.6522260595003 272.93994503066494 Q 188.4676909115711 272.3460328669166 189.08452140637 271.5534863458963 M 189.08452140637 271.5534863458963 M 190.09278812764026 269.8325084882724 Q 190.46967794469882 268.9581023488355 190.6899936046832 267.9271220523244 M 190.6899936046832 267.9271220523244 M 190.95956381737875 265.9470815873448 Q 191 265.3516232612521 191 264.7157287525381 L 191 263.94798115394684 M 191 263.94798115394684 M 191 261.94798115394684 L 191 259.94798115394684 M 191 259.94798115394684 M 191 257.94798115394684 L 191 255.94798115394684 M 191 255.94798115394684 M 191 253.94798115394684 L 191 251.94798115394684 M 191 251.94798115394684 M 191 249.94798115394684 L 191 247.94798115394684 M 191 247.94798115394684 M 191 245.94798115394684 L 191 243.94798115394684 M 191 243.94798115394684 M 191 241.94798115394684 L 191 239.94798115394684 M 191 239.94798115394684 M 191 237.94798115394684 L 191 235.94798115394684 M 191 235.94798115394684 M 191 233.94798115394684 L 191 231.94798115394684 M 191 231.94798115394684 M 191 229.94798115394684 L 191 227.94798115394684 M 191 227.94798115394684 M 191 225.94798115394684 L 191 223.94798115394684 M 191 223.94798115394684 M 191 221.94798115394684 L 191 219.94798115394684 M 191 219.94798115394684 M 191 217.94798115394684 L 191 215.94798115394684 M 191 215.94798115394684 M 191 213.94798115394684 L 191 211.94798115394684 M 191 211.94798115394684 M 191 209.94798115394684 L 191 207.94798115394684 M 191 207.94798115394684" stroke-miterlimit="10" stroke-width="2"/></g></g></g></g><g transform="matrix(1,0,0,1,135.5,196.7842712474619)"><g transform="translate(0,0)"><g transform="translate(-288,-438) translate(152.5,241.2157287525381) matrix(1,0,0,1,0,0)"><g><path fill="none" stroke="#000000" d="M 185.0005170958587 201.2842712474619 L 177.50043091321558 201.2842712474619 Q 170.00034473057246 201.2842712474619 162.50025854792935 201.2842712474619 L 162.50025854792935 201.2842712474619 Q 155.00017236528623 201.2842712474619 147.50008618264312 201.2842712474619 L 140 201.2842712474619" stroke-miterlimit="10" stroke-width="2"/></g></g></g></g><g transform="matrix(1,0,0,1,203,137)"><g><g><rect fill="rgb(0,0,0)" stroke="none" x="0" y="0" width="91" height="14" fill-opacity="0"/></g></g><g><g><rect fill="rgb(0,0,0)" stroke="none" x="0" y="0" width="91" height="14" fill-opacity="0"/></g></g><g><g><rect fill="rgb(0,0,0)" stroke="none" x="0" y="0" width="77" height="14" fill-opacity="0"/></g></g><g><g><rect fill="rgb(0,0,0)" stroke="none" x="0" y="0" width="77" height="14" fill-opacity="0"/></g><text fill="rgb(0, 0, 0)" stroke="none" font-family="Arial" font-size="12px" font-style="normal" font-weight="bold" text-decoration="" line-height="14px" x="0" y="11">&lt;</text><text fill="rgb(0, 0, 0)" stroke="none" font-family="Arial" font-size="12px" font-style="normal" font-weight="bold" text-decoration="" line-height="14px" x="7" y="11">host</text><text fill="rgb(0, 0, 0)" stroke="none" font-family="Arial" font-size="12px" font-style="normal" font-weight="bold" text-decoration="" line-height="14px" x="32" y="11">&gt;:</text><text fill="rgb(0, 0, 0)" stroke="none" font-family="Arial" font-size="12px" font-style="normal" font-weight="bold" text-decoration="" line-height="14px" x="42" y="11">31000</text></g></g><g transform="translate(0,0) matrix(1,0,0,1,185,137.5)"><g><g transform="translate(0,0) scale(0.12,0.12)"><g><path fill="#ffffff" stroke="none" d="M 100 50 A 50 50 0 1 0 99.99997500000208 50.04999999166668 Z"/><g transform="scale(8.333333333333334,8.333333333333334)"><path fill="none" stroke="#6d9eeb" d="M 6 0 M 6 0 C 9.3137082 0 12 2.6862918000000002 12 6 C 12 9.3137082 9.3137082 12 6 12 C 2.6862918000000002 12 0 9.3137082 0 6 C 0 2.6862918000000002 2.6862918000000002 0 6 0 Z" stroke-miterlimit="10" stroke-width="2"/></g></g></g></g></g><g transform="matrix(1,0,0,1,186.86038969321072,68.5)"><g transform="translate(0,0)"><g transform="translate(-202,-104) translate(15.13961030678928,35.5) matrix(1,0,0,1,0,0)"><g><path fill="none" stroke="#000000" d="M 191.36038969321072 137.50100681951386 L 191.36038969321072 126.00067121300924 Q 191.36038969321072 116.00067121300924 191.36038969321072 106.00067121300924 L 191.36038969321072 104.50033560650462 Q 191.36038969321072 94.50033560650462 191.36038969321072 84.50033560650462 L 191.36038969321072 73" stroke-miterlimit="10" stroke-width="2"/></g></g></g></g><g transform="matrix(1,0,0,1,356,112)"><g><g><rect fill="rgb(0,0,0)" stroke="none" x="0" y="0" width="91" height="14" fill-opacity="0"/></g></g><g><g><rect fill="rgb(0,0,0)" stroke="none" x="0" y="0" width="91" height="14" fill-opacity="0"/></g></g><g><g><rect fill="rgb(0,0,0)" stroke="none" x="0" y="0" width="31" height="14" fill-opacity="0"/></g></g><g><g><rect fill="rgb(0,0,0)" stroke="none" x="0" y="0" width="31" height="14" fill-opacity="0"/></g><text fill="rgb(0, 0, 0)" stroke="none" font-family="Arial" font-size="12px" font-style="normal" font-weight="bold" text-decoration="" line-height="14px" x="0" y="11">:</text><text fill="rgb(0, 0, 0)" stroke="none" font-family="Arial" font-size="12px" font-style="normal" font-weight="bold" text-decoration="" line-height="14px" x="3" y="11">8080</text></g></g><g transform="translate(0,0) matrix(1,0,0,1,338.25,112)"><g><g transform="translate(0,0) scale(0.12,0.12)"><g><path fill="#ffffff" stroke="none" d="M 100 50 A 50 50 0 1 0 99.99997500000208 50.04999999166668 Z"/><g transform="scale(8.333333333333334,8.333333333333334)"><path fill="none" stroke="#38761d" d="M 6 0 M 6 0 C 9.3137082 0 12 2.6862918000000002 12 6 C 12 9.3137082 9.3137082 12 6 12 C 2.6862918000000002 12 0 9.3137082 0 6 C 0 2.6862918000000002 2.6862918000000002 0 6 0 Z" stroke-miterlimit="10" stroke-width="2"/></g></g></g></g></g><g transform="matrix(1,0,0,1,339.75,119.5)"><g transform="translate(0,0)"><g transform="translate(-106.5,-79.5) translate(-233.25,-40) matrix(1,0,0,1,0,0)"><g><path fill="none" stroke="#000000" d="M 344.25 124 L 344.25 135.25 Q 344.25 145.25 344.375 145.25 L 344.375 145.25 Q 344.50000000000006 145.25 344.50000000000006 155.25 L 344.50000000000006 166.5" stroke-miterlimit="10" stroke-width="2"/></g></g></g></g><g transform="translate(0,0) matrix(1,0,0,1,310.2142857142858,138.5)"><g><g transform="translate(0,0) scale(0.6857142857142858,0.56)"><g><g transform="scale(1.458333333333333,1.7857142857142856)"><path fill="#38761d" stroke="none" d="M 17.142857142857146 0 L 51.42857142857144 0 L 68.57142857142858 28.000000000000004 L 51.42857142857144 56.00000000000001 L 17.142857142857146 56.00000000000001 L 0 28.000000000000004 L 17.142857142857146 0 Z"/><path fill="none" stroke="#ffffff" d="M 17.142857142857146 0 M 17.142857142857146 0 L 51.42857142857144 0 L 68.57142857142858 28.000000000000004 L 51.42857142857144 56.00000000000001 L 17.142857142857146 56.00000000000001 L 0 28.000000000000004 L 17.142857142857146 0 Z" stroke-miterlimit="10" stroke-width="2"/></g></g></g></g></g><g transform="matrix(1,0,0,1,320,160)"><g><g><rect fill="rgb(0,0,0)" stroke="none" x="0" y="0" width="49" height="14" fill-opacity="0"/></g></g><g><g><rect fill="rgb(0,0,0)" stroke="none" x="0" y="0" width="49" height="14" fill-opacity="0"/></g></g><g><g><rect fill="rgb(0,0,0)" stroke="none" x="2.5703125" y="0" width="45" height="14" fill-opacity="0"/></g></g><g><g><rect fill="rgb(0,0,0)" stroke="none" x="2.5703125" y="0" width="45" height="14" fill-opacity="0"/></g><text fill="rgb(255, 255, 255)" stroke="none" font-family="Arial" font-size="12px" font-style="normal" font-weight="bold" text-decoration="" line-height="14px" x="3" y="11">w</text><text fill="rgb(255, 255, 255)" stroke="none" font-family="Arial" font-size="12px" font-style="normal" font-weight="bold" text-decoration="" line-height="14px" x="12" y="11">e</text><text fill="rgb(255, 255, 255)" stroke="none" font-family="Arial" font-size="12px" font-style="normal" font-weight="bold" text-decoration="" line-height="14px" x="19" y="11">b</text><text fill="rgb(255, 255, 255)" stroke="none" font-family="Arial" font-size="12px" font-style="normal" font-weight="bold" text-decoration="" line-height="14px" x="26" y="11">a</text><text fill="rgb(255, 255, 255)" stroke="none" font-family="Arial" font-size="12px" font-style="normal" font-weight="bold" text-decoration="" line-height="14px" x="33" y="11">p</text><text fill="rgb(255, 255, 255)" stroke="none" font-family="Arial" font-size="12px" font-style="normal" font-weight="bold" text-decoration="" line-height="14px" x="40" y="11">p</text></g></g><g transform="translate(0,0) matrix(1,0,0,1,310.2142857142858,194.5)"><g><g transform="translate(0,0) scale(0.6857142857142858,0.56)"><g><g transform="scale(1.458333333333333,1.7857142857142856)"><path fill="#1155cc" stroke="none" d="M 17.142857142857146 0 L 51.42857142857144 0 L 68.57142857142858 28.000000000000004 L 51.42857142857144 56.00000000000001 L 17.142857142857146 56.00000000000001 L 0 28.000000000000004 L 17.142857142857146 0 Z"/><path fill="none" stroke="#ffffff" d="M 17.142857142857146 0 M 17.142857142857146 0 L 51.42857142857144 0 L 68.57142857142858 28.000000000000004 L 51.42857142857144 56.00000000000001 L 17.142857142857146 56.00000000000001 L 0 28.000000000000004 L 17.142857142857146 0 Z" stroke-miterlimit="10" stroke-width="2"/></g></g></g></g></g><g transform="matrix(1,0,0,1,320,216)"><g><g><rect fill="rgb(0,0,0)" stroke="none" x="0" y="0" width="49" height="14" fill-opacity="0"/></g></g><g><g><rect fill="rgb(0,0,0)" stroke="none" x="0" y="0" width="49" height="14" fill-opacity="0"/></g></g><g><g><rect fill="rgb(0,0,0)" stroke="none" x="7.0703125" y="0" width="36" height="14" fill-opacity="0"/></g></g><g><g><rect fill="rgb(0,0,0)" stroke="none" x="7.0703125" y="0" width="36" height="14" fill-opacity="0"/></g></g><g><g><rect fill="rgb(0,0,0)" stroke="none" x="7.0703125" y="0" width="36" height="14" fill-opacity="0"/></g><text fill="rgb(255, 255, 255)" stroke="none" font-family="Arial" font-size="12px" font-style="normal" font-weight="bold" text-decoration="" line-height="14px" x="7" y="11">p</text><text fill="rgb(255, 255, 255)" stroke="none" font-family="Arial" font-size="12px" font-style="normal" font-weight="bold" text-decoration="" line-height="14px" x="14" y="11">a</text><text fill="rgb(255, 255, 255)" stroke="none" font-family="Arial" font-size="12px" font-style="normal" font-weight="bold" text-decoration="" line-height="14px" x="21" y="11">u</text><text fill="rgb(255, 255, 255)" stroke="none" font-family="Arial" font-size="12px" font-style="normal" font-weight="bold" text-decoration="" line-height="14px" x="28" y="11">s</text><text fill="rgb(255, 255, 255)" stroke="none" font-family="Arial" font-size="12px" font-style="normal" font-weight="bold" text-decoration="" line-height="14px" x="35" y="11">e</text></g></g><g transform="matrix(1,0,0,1,224.13961030678928,68.5)"><g transform="translate(0,0)"><g transform="translate(-543,-176) translate(318.8603896932107,107.5) matrix(1,0,0,1,0,0)"><g><path fill="none" stroke="#000000" d="M 338.25 118 M 338.25 118 L 336.25 118 M 336.25 118 M 334.25 118 L 332.25 118 M 332.25 118 M 330.25 118 L 328.25 118 M 328.25 118 M 326.25 118 L 324.25 118 M 324.25 118 M 322.25 118 L 320.25 118 M 320.25 118 M 318.25 118 L 316.25 118 M 316.25 118 M 314.25 118 L 312.25 118 M 312.25 118 M 310.25 118 L 308.25 118 M 308.25 118 M 306.25 118 L 304.25 118 M 304.25 118 M 302.25 118 L 300.25 118 M 300.25 118 M 298.25 118 L 296.25 118 M 296.25 118 M 294.25 118 L 292.25 118 M 292.25 118 M 290.25 118 L 288.25 118 M 288.25 118 M 286.25 118 L 284.25 118 M 284.25 118 M 282.25 118 L 280.25 118 M 280.25 118 M 278.25 118 L 276.25 118 M 276.25 118 M 274.25 118 L 272.25 118 M 272.25 118 M 270.25 118 L 268.25 118 M 268.25 118 M 266.25 118 L 264.25 118 M 264.25 118 M 262.25 118 L 260.25 118 M 260.25 118 M 258.25 118 L 256.25 118 M 256.25 118 M 254.25 118 L 252.25 118 M 252.25 118 M 250.25 118 L 248.25 118 M 248.25 118 M 246.25 118 L 244.25 118 M 244.25 118 M 242.25 118 L 240.25 118 M 240.25 118 M 238.25002575781102 117.99612983469521 Q 237.1959941152419 117.97497803499114 236.2575644161266 117.83822429183323 M 236.2575644161266 117.83822429183323 M 234.31089791381447 117.39030275657875 Q 233.31559168976403 117.06396073496241 232.494960874241 116.56294330481866 M 232.494960874241 116.56294330481866 M 230.95001382171907 115.30292788460027 Q 230.28271952759104 114.58195360377698 229.80815419708276 113.66825035933394 M 229.80815419708276 113.66825035933394 M 229.09285473951144 111.80466318826797 Q 228.8453518765388 110.88960976771526 228.73300272480262 109.83940263592615 M 228.73300272480262 109.83940263592615 M 228.63961030678928 107.84264209461321 L 228.63961030678928 105.84264209461321 M 228.63961030678928 105.84264209461321 M 228.63961030678928 103.84264209461321 L 228.63961030678928 101.84264209461321 M 228.63961030678928 101.84264209461321 M 228.63961030678928 99.84264209461321 L 228.63961030678928 97.84264209461321 M 228.63961030678928 97.84264209461321 M 228.63961030678928 95.84264209461321 L 228.63961030678928 93.84264209461321 M 228.63961030678928 93.84264209461321 M 228.63961030678928 91.84264209461321 L 228.63961030678928 89.84264209461321 M 228.63961030678928 89.84264209461321 M 228.63961030678928 87.84264209461321 L 228.63961030678928 85.84264209461321 M 228.63961030678928 85.84264209461321 M 228.63961030678928 83.84264209461321 L 228.63961030678928 81.84264209461321 M 228.63961030678928 81.84264209461321 M 228.63961030678928 79.84264209461321 L 228.63961030678928 77.84264209461321 M 228.63961030678928 77.84264209461321 M 228.63961030678928 75.84264209461321 L 228.63961030678928 73.84264209461321 M 228.63961030678928 73.84264209461321" stroke-miterlimit="10" stroke-width="2"/></g></g></g></g><g transform="matrix(1,0,0,1,142,276)"><g><g><rect fill="rgb(0,0,0)" stroke="none" x="0" y="0" width="40" height="12" fill-opacity="0"/></g></g><g><g><rect fill="rgb(0,0,0)" stroke="none" x="0" y="0" width="40" height="12" fill-opacity="0"/></g></g><g><g><rect fill="rgb(0,0,0)" stroke="none" x="12.5" y="0" width="16" height="12" fill-opacity="0"/></g></g><g><g><rect fill="rgb(0,0,0)" stroke="none" x="12.5" y="0" width="16" height="12" fill-opacity="0"/></g><text fill="rgb(0, 0, 0)" stroke="none" font-family="Arial" font-size="11px" font-style="normal" font-weight="normal" text-decoration="" line-height="12px" x="13" y="10">n</text><text fill="rgb(0, 0, 0)" stroke="none" font-family="Arial" font-size="11px" font-style="normal" font-weight="normal" text-decoration="" line-height="12px" x="19" y="10">a</text><text fill="rgb(0, 0, 0)" stroke="none" font-family="Arial" font-size="11px" font-style="normal" font-weight="normal" text-decoration="" line-height="12px" x="25" y="10">t</text></g></g><g transform="matrix(1,0,0,1,135.5,145)"><g transform="translate(0,0)"><g transform="translate(-202,-94) translate(66.5,-51) matrix(1,0,0,1,0,0)"><g><path fill="none" stroke="#000000" d="M 140 184.7157287525381 M 140 184.7157287525381 L 142 184.7157287525381 M 142 184.7157287525381 M 144 184.7157287525381 L 146 184.7157287525381 M 146 184.7157287525381 M 148 184.7157287525381 L 150 184.7157287525381 M 150 184.7157287525381 M 152 184.7157287525381 L 154 184.7157287525381 M 154 184.7157287525381 M 156 184.7157287525381 L 158 184.7157287525381 M 158 184.7157287525381 M 160 184.7157287525381 L 162 184.7157287525381 M 162 184.7157287525381 M 164 184.7157287525381 L 166 184.7157287525381 M 166 184.7157287525381 M 168 184.7157287525381 L 170 184.7157287525381 M 170 184.7157287525381 M 172 184.7157287525381 L 174 184.7157287525381 M 174 184.7157287525381 M 176 184.7157287525381 L 178 184.7157287525381 M 178 184.7157287525381 M 180 184.7157287525381 L 181 184.7157287525381 Q 181.51292054779188 184.7157287525381 181.99953234674905 184.6894200037034 M 181.99953234674905 184.6894200037034 M 183.9838174768431 184.45207740906494 Q 185.0195114471839 184.25130871089053 185.90232142446152 183.8976560196529 M 185.90232142446152 183.8976560196529 M 187.65222605950026 182.93994503066492 Q 188.4676909115711 182.34603286691657 189.08452140637002 181.55348634589632 M 189.08452140637002 181.55348634589632 M 190.0927881276403 179.83250848827245 Q 190.46967794469884 178.95810234883555 190.6899936046832 177.92712205232448 M 190.6899936046832 177.92712205232448 M 190.95956381737875 175.9470815873449 Q 191 175.35162326125214 191 174.7157287525381 L 191 173.94798115394696 M 191 173.94798115394696 M 191 171.94798115394696 L 191 169.94798115394696 M 191 169.94798115394696 M 191 167.94798115394696 L 191 165.94798115394696 M 191 165.94798115394696 M 191 163.94798115394696 L 191 161.94798115394696 M 191 161.94798115394696 M 191 159.94798115394696 L 191 157.94798115394696 M 191 157.94798115394696 M 191 155.94798115394696 L 191 153.94798115394696 M 191 153.94798115394696 M 191 151.94798115394696 L 191 149.94798115394696 M 191 149.94798115394696" stroke-miterlimit="10" stroke-width="2"/></g></g></g></g><g transform="translate(0,0) matrix(1,0,0,1,10,353)"><g><g transform="translate(0,0) scale(1.52,1.5)"><g><path fill="#ffffff" stroke="none" d="M 0 0 L 100 0 Q 100 0 100 0 L 100 100 Q 100 100 100 100 L 0 100 Q 0 100 0 100 L 0 0 Q 0 0 0 0 Z"/><g transform="scale(0.6578947368421053,0.6666666666666666)"><path fill="none" stroke="none" d="M 0 0 L 152 0 Q 152 0 152 0 L 152 150 Q 152 150 152 150 L 0 150 Q 0 150 0 150 L 0 0 Q 0 0 0 0 Z"/><path fill="none" stroke="#ffffff" d="M 0 0 M 0 0 L 152 0 Q 152 0 152 0 L 152 150 Q 152 150 152 150 L 0 150 Q 0 150 0 150 L 0 0 Q 0 0 0 0 Z" stroke-miterlimit="10" stroke-width="2"/></g></g></g></g></g><g transform="matrix(1,0,0,1,21,356)"><g><g><rect fill="rgb(0,0,0)" stroke="none" x="0" y="0" width="130" height="144" fill-opacity="0"/></g></g><g><g><rect fill="rgb(0,0,0)" stroke="none" x="0" y="0" width="130" height="24" fill-opacity="0"/></g></g><g><g><rect fill="rgb(0,0,0)" stroke="none" x="27.90625" y="0" width="103" height="24" fill-opacity="0"/></g><text fill="rgb(0, 0, 0)" stroke="none" font-family="Arial" font-size="11px" font-style="normal" font-weight="normal" text-decoration="" line-height="12px" x="28" y="10">kubernetes</text><text fill="rgb(0, 0, 0)" stroke="none" font-family="Arial" font-size="11px" font-style="normal" font-weight="normal" text-decoration="" line-height="12px" x="82" y="10">-</text><text fill="rgb(0, 0, 0)" stroke="none" font-family="Arial" font-size="11px" font-style="normal" font-weight="normal" text-decoration="" line-height="12px" x="86" y="10">managed</text><text fill="rgb(0, 0, 0)" stroke="none" font-family="Arial" font-size="11px" font-style="normal" font-weight="normal" text-decoration="" line-height="12px" x="64" y="22">service</text><text fill="rgb(0, 0, 0)" stroke="none" font-family="Arial" font-size="11px" font-style="normal" font-weight="normal" text-decoration="" line-height="12px" x="103" y="22">portal</text></g><g><g><rect fill="rgb(0,0,0)" stroke="none" x="0" y="24" width="130" height="12" fill-opacity="0"/></g></g><g><g><rect fill="rgb(0,0,0)" stroke="none" x="126.90625" y="24" width="4" height="12" fill-opacity="0"/></g></g><g><g><rect fill="rgb(0,0,0)" stroke="none" x="0" y="36" width="130" height="24" fill-opacity="0"/></g></g><g><g><rect fill="rgb(0,0,0)" stroke="none" x="1.90625" y="36" width="129" height="24" fill-opacity="0"/></g><text fill="rgb(0, 0, 0)" stroke="none" font-family="Arial" font-size="11px" font-style="normal" font-weight="normal" text-decoration="" line-height="12px" x="2" y="46">:</text><text fill="rgb(0, 0, 0)" stroke="none" font-family="Arial" font-size="11px" font-style="normal" font-weight="normal" text-decoration="" line-height="12px" x="5" y="46">80</text><text fill="rgb(0, 0, 0)" stroke="none" font-family="Arial" font-size="11px" font-style="normal" font-weight="normal" text-decoration="" line-height="12px" x="20" y="46">is</text><text fill="rgb(0, 0, 0)" stroke="none" font-family="Arial" font-size="11px" font-style="normal" font-weight="normal" text-decoration="" line-height="12px" x="31" y="46">the</text><text fill="rgb(0, 0, 0)" stroke="none" font-family="Arial" font-size="11px" font-style="normal" font-weight="normal" text-decoration="" line-height="12px" x="49" y="46">declared</text><text fill="rgb(0, 0, 0)" stroke="none" font-family="Arial" font-size="11px" font-style="normal" font-weight="normal" text-decoration="" line-height="12px" x="94" y="46">service</text><text fill="rgb(0, 0, 0)" stroke="none" font-family="Arial" font-size="11px" font-style="normal" font-weight="normal" text-decoration="" line-height="12px" x="110.90625" y="58">port</text></g><g><g><rect fill="rgb(0,0,0)" stroke="none" x="0" y="60" width="130" height="12" fill-opacity="0"/></g></g><g><g><rect fill="rgb(0,0,0)" stroke="none" x="126.90625" y="60" width="4" height="12" fill-opacity="0"/></g></g><g><g><rect fill="rgb(0,0,0)" stroke="none" x="0" y="72" width="130" height="24" fill-opacity="0"/></g></g><g><g><rect fill="rgb(0,0,0)" stroke="none" x="7.90625" y="72" width="123" height="24" fill-opacity="0"/></g><text fill="rgb(0, 0, 0)" stroke="none" font-family="Arial" font-size="11px" font-style="normal" font-weight="normal" text-decoration="" line-height="12px" x="8" y="82">10</text><text fill="rgb(0, 0, 0)" stroke="none" font-family="Arial" font-size="11px" font-style="normal" font-weight="normal" text-decoration="" line-height="12px" x="20" y="82">.</text><text fill="rgb(0, 0, 0)" stroke="none" font-family="Arial" font-size="11px" font-style="normal" font-weight="normal" text-decoration="" line-height="12px" x="23" y="82">10</text><text fill="rgb(0, 0, 0)" stroke="none" font-family="Arial" font-size="11px" font-style="normal" font-weight="normal" text-decoration="" line-height="12px" x="35" y="82">.</text><text fill="rgb(0, 0, 0)" stroke="none" font-family="Arial" font-size="11px" font-style="normal" font-weight="normal" text-decoration="" line-height="12px" x="38" y="82">10</text><text fill="rgb(0, 0, 0)" stroke="none" font-family="Arial" font-size="11px" font-style="normal" font-weight="normal" text-decoration="" line-height="12px" x="50" y="82">.</text><text fill="rgb(0, 0, 0)" stroke="none" font-family="Arial" font-size="11px" font-style="normal" font-weight="normal" text-decoration="" line-height="12px" x="53" y="82">2</text><text fill="rgb(0, 0, 0)" stroke="none" font-family="Arial" font-size="11px" font-style="normal" font-weight="normal" text-decoration="" line-height="12px" x="62" y="82">allocated</text><text fill="rgb(0, 0, 0)" stroke="none" font-family="Arial" font-size="11px" font-style="normal" font-weight="normal" text-decoration="" line-height="12px" x="108" y="82">from</text><text fill="rgb(0, 0, 0)" stroke="none" font-family="Arial" font-size="11px" font-style="normal" font-weight="normal" text-decoration="" line-height="12px" x="48" y="94">portal_net</text><text fill="rgb(0, 0, 0)" stroke="none" font-family="Arial" font-size="11px" font-style="normal" font-weight="normal" text-decoration="" line-height="12px" x="99" y="94">range</text><text fill="rgb(0, 0, 0)" stroke="none" font-family="Arial" font-size="11px" font-style="normal" font-weight="normal" text-decoration="" line-height="12px" x="127" y="94">,</text></g><g><g><rect fill="rgb(0,0,0)" stroke="none" x="0" y="96" width="130" height="12" fill-opacity="0"/></g></g><g><g><rect fill="rgb(0,0,0)" stroke="none" x="17.90625" y="96" width="113" height="12" fill-opacity="0"/></g><text fill="rgb(0, 0, 0)" stroke="none" font-family="Arial" font-size="11px" font-style="normal" font-weight="normal" text-decoration="" line-height="12px" x="18" y="106">not</text><text fill="rgb(0, 0, 0)" stroke="none" font-family="Arial" font-size="11px" font-style="normal" font-weight="normal" text-decoration="" line-height="12px" x="36" y="106">assigned</text><text fill="rgb(0, 0, 0)" stroke="none" font-family="Arial" font-size="11px" font-style="normal" font-weight="normal" text-decoration="" line-height="12px" x="83" y="106">to</text><text fill="rgb(0, 0, 0)" stroke="none" font-family="Arial" font-size="11px" font-style="normal" font-weight="normal" text-decoration="" line-height="12px" x="95" y="106">any</text><text fill="rgb(0, 0, 0)" stroke="none" font-family="Arial" font-size="11px" font-style="normal" font-weight="normal" text-decoration="" line-height="12px" x="116" y="106">nic</text></g><g><g><rect fill="rgb(0,0,0)" stroke="none" x="0" y="108" width="130" height="12" fill-opacity="0"/></g></g><g><g><rect fill="rgb(0,0,0)" stroke="none" x="126.90625" y="108" width="4" height="12" fill-opacity="0"/></g></g><g><g><rect fill="rgb(0,0,0)" stroke="none" x="0" y="120" width="130" height="12" fill-opacity="0"/></g></g><g><g><rect fill="rgb(0,0,0)" stroke="none" x="6.90625" y="120" width="124" height="12" fill-opacity="0"/></g><text fill="rgb(0, 0, 0)" stroke="none" font-family="Arial" font-size="11px" font-style="normal" font-weight="normal" text-decoration="" line-height="12px" x="7" y="130">${</text><text fill="rgb(0, 0, 0)" stroke="none" font-family="Arial" font-size="11px" font-style="normal" font-weight="normal" text-decoration="" line-height="12px" x="17" y="130">name</text><text fill="rgb(0, 0, 0)" stroke="none" font-family="Arial" font-size="11px" font-style="normal" font-weight="normal" text-decoration="" line-height="12px" x="43" y="130">}</text><text fill="rgb(0, 0, 0)" stroke="none" font-family="Arial" font-size="11px" font-style="normal" font-weight="normal" text-decoration="" line-height="12px" x="47" y="130">_SERVICE_HOST</text></g><g><g><rect fill="rgb(0,0,0)" stroke="none" x="0" y="132" width="130" height="12" fill-opacity="0"/></g></g><g><g><rect fill="rgb(0,0,0)" stroke="none" x="7.90625" y="132" width="123" height="12" fill-opacity="0"/></g><text fill="rgb(0, 0, 0)" stroke="none" font-family="Arial" font-size="11px" font-style="normal" font-weight="normal" text-decoration="" line-height="12px" x="8" y="142">${</text><text fill="rgb(0, 0, 0)" stroke="none" font-family="Arial" font-size="11px" font-style="normal" font-weight="normal" text-decoration="" line-height="12px" x="18" y="142">name</text><text fill="rgb(0, 0, 0)" stroke="none" font-family="Arial" font-size="11px" font-style="normal" font-weight="normal" text-decoration="" line-height="12px" x="44" y="142">}</text><text fill="rgb(0, 0, 0)" stroke="none" font-family="Arial" font-size="11px" font-style="normal" font-weight="normal" text-decoration="" line-height="12px" x="48" y="142">_SERVICE_PORT</text></g></g><g transform="matrix(1,0,0,1,113.48023074035524,292.5)"><g transform="translate(0,0)"><g transform="translate(-456,5) translate(342.51976925964476,-297.5) matrix(1,0,0,1,0,0)"><g><path fill="none" stroke="#000000" d="M 117.48023074035524 353 M 117.48023074035524 353 Q 117.48023074035524 352.4955407080713 117.49179297464947 352.0000895286103 M 117.49179297464947 352.0000895286103 M 117.52731304648935 351.0007458172593 Q 117.55149017908252 350.49684766093145 117.5880824584351 350.0026221193825 M 117.5880824584351 350.0026221193825 M 117.67544294931997 349.0064767158439 Q 117.72644719683545 348.5046396520984 117.79077762552788 348.01318498813407 M 117.79077762552788 348.01318498813407 M 117.93549843482681 347.0237514243212 Q 118.01612459050165 346.5259739530887 118.11102932789409 346.0393208948994 M 118.11102932789409 346.0393208948994 M 118.31878451144561 345.0611882981814 Q 118.43184154189656 344.570059049062 118.56014135411662 344.090805419222 M 118.56014135411662 344.090805419222 M 118.83640779451572 343.12978360334733 Q 118.98450943305616 342.6485367737659 119.14878454634393 342.17989066440947 M 119.14878454634393 342.17989066440947 M 119.49832300581357 341.2430403962411 Q 119.68359707510784 340.7755308214867 119.8858805157477 340.32127321224243 M 119.8858805157477 340.32127321224243 M 120.31207545416588 339.41672687667904 Q 120.53582126102397 338.9672754046882 120.77724536282615 338.5315970551789 M 120.77724536282615 338.5315970551789 M 121.28141183720322 337.6680884812981 Q 121.54377926444158 337.24116918906657 121.82425597537934 336.828358801751 M 121.82425597537934 336.828358801751 M 122.40510768440677 336.0144584216835 Q 122.70490444960207 335.6142553422544 123.02295103127858 335.22827065653667 M 123.02295103127858 335.22827065653667 M 123.67644621649633 334.4714569467724 Q 124.01116578577933 334.10139064195704 124.36396690669531 333.745411636063 M 124.36396690669531 333.745411636063 M 125.08364994416318 333.05122984508745 Q 125.44973838162761 332.71359381813784 125.83345319749532 332.38969046560175 M 125.83345319749532 332.38969046560175 M 126.61121675356384 331.76125456027995 Q 127.0045001740771 331.4570675359175 127.4147228220327 331.1660778280973 M 127.4147228220327 331.1660778280973 M 128.2417505016795 330.60403456342743 Q 128.65789068245218 330.3331236466376 129.09012270284362 330.07474984831555 M 129.09012270284362 330.07474984831555 M 129.95774376602682 329.5776365754401 Q 130.39260770625768 329.33888146169176 130.84262744284987 329.11193419707416 M 130.84262744284987 329.11193419707416 M 131.74291577694012 328.67674667138175 Q 132.19280736065383 328.4683841126121 132.65688999160562 328.2710777689565 M 132.65688999160562 328.2710777689565 M 133.58297477846466 327.8938625807328 Q 134.0447354114868 327.71377044254035 134.5197374449625 327.5439946516455 M 134.5197374449625 327.5439946516455 M 135.46588328959885 327.2203486155199 Q 135.93689828489272 327.06626843676173 136.4202483970351 326.92179852164685 M 136.4202483970351 326.92179852164685 M 137.38179083227445 326.64723223838723 Q 137.85994193187486 326.516922203012 138.3495809989006 326.39556241894275 M 138.3495809989006 326.39556241894275 M 139.32279173168925 326.16573454540895 Q 139.80638672591502 326.0570627230319 140.3006885286754 325.9567325527089 M 140.3006885286754 325.9567325527089 M 141.28262019454647 325.7675824925211 Q 141.77031878409596 325.67857592533403 142.26801006428295 325.59735464244636 M 142.26801006428295 325.59735464244636 M 143.25634789935611 325.4451644066134 Q 143.74709359809287 325.374028718952 144.24718249384193 325.31017229647 M 144.24718249384193 325.31017229647 M 145.24011498994562 325.19158322790184 Q 145.73307690807388 325.1367041447203 146.23479287757135 325.0886453245844 M 146.23479287757135 325.0886453245844 M 147.23090463732672 325.00064837801455 Q 147.72542973154378 324.96058307820186 148.22817497800537 324.92692208174753 M 148.22817497800537 324.92692208174753 M 149.22636061605084 324.8668341303772 Q 149.72193547956644 324.8402975621597 150.22524654419726 324.81978825199167 M 150.22524654419726 324.81978825199167 M 151.2246427382563 324.7852222254348 Q 151.7208634659799 324.7710715105018 152.22438125404756 324.76260591996527 M 152.22438125404756 324.76260591996527 M 153.22431367017555 324.75143938416625 Q 153.4812907696667 324.75 153.74011537017762 324.75 Q 153.983025716678 324.75 154.22430877072998 324.7487321798694 M 154.22430877072998 324.7487321798694 M 155.22424509221057 324.73791972363665 Q 155.72776372880412 324.7296362647995 156.22399191208993 324.7156728290941 M 156.22399191208993 324.7156728290941 M 157.22340138784566 324.6814924683083 Q 157.7267182715298 324.66118177563067 158.22230622981814 324.63484949340136 M 158.22230622981814 324.63484949340136 M 159.220517154241 324.57518272735865 Q 159.72327463755525 324.54173889239587 160.2178199917608 324.501897004883 M 160.2178199917608 324.501897004883 M 161.21397240727202 324.41436118985223 Q 161.71570889407164 324.36654038080485 162.20870018317507 324.3119062065899 M 162.20870018317507 324.3119062065899 M 163.20169301510515 324.19382313579314 Q 163.70181310591218 324.13022811712585 164.19259976735856 324.05936144323596 M 164.19259976735856 324.05936144323596 M 165.18102313546635 323.9077274310223 Q 165.6787593674727 323.8267936809022 166.1665136667828 323.7380830279721 M 166.1665136667828 323.7380830279721 M 167.14856309812208 323.549545068452 Q 167.64292754319425 323.4495313858338 168.12659698446421 323.34118524820366 M 168.12659698446421 323.34118524820366 M 169.09996661725924 323.1120309917466 Q 169.58969099253343 322.99101936803896 170.06794026825418 322.86106751835723 M 170.06794026825418 322.86106751835723 M 171.02969384910847 322.5872414509579 Q 171.51315812120959 322.4431536374019 171.98430115291853 322.2894663713206 M 171.98430115291853 322.2894663713206 M 172.93072394582148 321.96663078011227 Q 173.40587646944772 321.79727231212854 173.8678023090604 321.61760896239474 M 173.8678023090604 321.61760896239474 M 174.79424579612436 321.2412752748245 Q 175.25852389362714 321.04442098701185 175.70862616341822 320.83652234158626 M 175.70862616341822 320.83652234158626 M 176.60937264676198 320.402283548875 Q 177.0596421257173 320.17581981111323 177.49477096948573 319.93756003625987 M 177.49477096948573 319.93756003625987 M 178.362967446389 319.4414520724054 Q 178.79551232269893 319.18358616013796 179.21197964064848 318.9131942559012 M 179.21197964064848 318.9131942559012 M 180.03971497291502 318.35219340251956 Q 180.45032013005704 318.06172420338714 180.8439984026156 317.75806730400785 M 180.8439984026156 317.75806730400785 M 181.62260974168925 317.13068185063116 Q 182.00677859323278 316.8072953798273 182.37333029886983 316.4701834276288 M 182.37333029886983 316.4701834276288 M 183.09399743291826 315.77702318655065 Q 183.447319130973 315.4215382265758 183.78256434829905 315.0519699184106 M 183.78256434829905 315.0519699184106 M 184.43716131456134 314.2961089263704 Q 184.75578228244845 313.9105763133241 185.05615369701974 313.51082551159806 M 185.05615369701974 313.51082551159806 M 185.63819199333386 312.69777330293084 Q 185.9192777338199 312.285357588736 186.1822496111135 311.8588294017518 M 186.1822496111135 311.8588294017518 M 186.6876453560609 310.9960398334663 Q 186.92969089700864 310.5606898122813 187.15404930895286 310.11155978601766 M 187.15404930895286 310.11155978601766 M 187.58147261306692 309.20759339493975 Q 187.7843686832612 308.75359608355745 187.9702433149046 308.2863374051308 M 187.9702433149046 308.2863374051308 M 188.32097153083157 307.3499320675302 Q 188.48583343234063 306.88148258483244 188.63450773068018 306.4004213744857 M 188.63450773068018 306.4004213744857 M 188.91189786972146 305.43972346851797 Q 189.04074718389668 304.96061092113354 189.15433860517618 304.46961098142265 M 189.15433860517618 304.46961098142265 M 189.36313509053954 303.49170028636223 Q 189.4585459720372 303.00514238670644 189.5396630273671 302.5074481970883 M 189.5396630273671 302.5074481970883 M 189.68533590156625 301.51815448410355 Q 189.75012729412714 301.02675851516307 189.80157771588495 300.52496862387466 M 189.80157771588495 300.52496862387466 M 189.8898010795935 299.52889937519456 Q 189.9268102131619 299.034704448825 189.9513902234464 298.5308260185956 M 189.9513902234464 298.5308260185956 M 189.98768834712743 297.53151035054015 Q 189.99962610301012 297.03606866894455 189.99998864498858 296.53160876249433 M 189.99998864498858 296.53160876249433" stroke-miterlimit="10"/></g></g></g></g><g transform="translate(0,0) matrix(1,0,0,1,15,223)"><g><g transform="translate(0,0) scale(1.3,0.275)"><g><path fill="#ffffff" stroke="none" d="M 0 0 L 100 0 Q 100 0 100 0 L 100 100 Q 100 100 100 100 L 0 100 Q 0 100 0 100 L 0 0 Q 0 0 0 0 Z"/><g transform="scale(0.7692307692307692,3.6363636363636362)"><path fill="none" stroke="none" d="M 0 0 L 130 0 Q 130 0 130 0 L 130 27.500000000000004 Q 130 27.500000000000004 130 27.500000000000004 L 0 27.500000000000004 Q 0 27.500000000000004 0 27.500000000000004 L 0 0 Q 0 0 0 0 Z"/><path fill="none" stroke="#ffffff" d="M 0 0 M 0 0 L 130 0 Q 130 0 130 0 L 130 27.500000000000004 Q 130 27.500000000000004 130 27.500000000000004 L 0 27.500000000000004 Q 0 27.500000000000004 0 27.500000000000004 L 0 0 Q 0 0 0 0 Z" stroke-miterlimit="10" stroke-width="2"/></g></g></g></g></g><g transform="matrix(1,0,0,1,26,231)"><g><g><rect fill="rgb(0,0,0)" stroke="none" x="0" y="0" width="109" height="12" fill-opacity="0"/></g></g><g><g><rect fill="rgb(0,0,0)" stroke="none" x="0" y="0" width="109" height="12" fill-opacity="0"/></g></g><g><g><rect fill="rgb(0,0,0)" stroke="none" x="5.796875" y="0" width="104" height="12" fill-opacity="0"/></g><text fill="rgb(0, 0, 0)" stroke="none" font-family="Arial" font-size="11px" font-style="normal" font-weight="normal" text-decoration="" line-height="12px" x="6" y="10">ephemeral</text><text fill="rgb(0, 0, 0)" stroke="none" font-family="Arial" font-size="11px" font-style="normal" font-weight="normal" text-decoration="" line-height="12px" x="59" y="10">proxy</text><text fill="rgb(0, 0, 0)" stroke="none" font-family="Arial" font-size="11px" font-style="normal" font-weight="normal" text-decoration="" line-height="12px" x="90" y="10">port</text></g></g><g transform="matrix(1,0,0,1,141,203.5)"><g transform="translate(0,0)"><g transform="translate(-466,-5) translate(325,-198.5) matrix(1,0,0,1,0,0)"><g><path fill="none" stroke="#000000" d="M 145 236.75 M 145 236.75 Q 145.50274321040766 236.75 145.99999183960637 236.74650616303563 M 145.99999183960637 236.74650616303563 M 146.99993306282886 236.7358687768702 Q 147.50272336916655 236.72868365524923 147.99976827305954 236.7178452070738 M 147.99976827305954 236.7178452070738 M 148.99943635941725 236.69218046378228 Q 149.50216180856356 236.67730657147317 149.99886988900542 236.65860641754222 M 149.99886988900542 236.65860641754222 M 150.99799442788907 236.61684096182634 Q 151.50051756533162 236.59372113782547 151.996727781708 236.56658711945101 M 151.996727781708 236.56658711945101 M 152.9949791456365 236.50753209032825 Q 153.49713105979058 236.47554860498164 153.992648152039 236.43934623831458 M 153.992648152039 236.43934623831458 M 154.98962380264297 236.3616820154277 Q 155.4911966311058 236.3201485714849 155.98578327034159 236.2741728224358 M 155.98578327034159 236.2741728224358 M 156.98099055383832 236.17643180585281 Q 157.4817280233348 236.12458454608256 157.975094966251 236.06805059278028 M 157.975094966251 236.06805059278028 M 158.96792943650343 235.94859796692694 Q 159.46751488910695 235.88558549503264 159.95930859986981 235.8176184916418 M 159.95930859986981 235.8176184916418 M 160.94902665142737 235.67463108907526 Q 161.44706786426337 235.5995036183118 161.93685493348792 235.51912758883887 M 161.93685493348792 235.51912758883887 M 162.9225392254114 235.35057126500124 Q 163.4185491620497 235.26226919689336 163.905796701717 235.16839538723326 M 163.905796701717 235.16839538723326 M 164.88631252232832 234.97200182073655 Q 165.37968497468444 234.8693443710253 165.86373601745592 234.7607597206543 M 165.86373601745592 234.7607597206543 M 166.83767642950534 234.53400438042357 Q 167.32765535456366 234.41567937833906 167.80769817615493 234.291036310463 M 167.80769817615493 234.291036310463 M 168.77331560326556 234.03112064419804 Q 169.25895690687366 233.89567742648038 169.7339872047393 233.75348699315472 M 169.7339872047393 233.75348699315472 M 170.68910930037165 233.45732990202362 Q 171.16923402414233 233.30317841624932 171.63800918408614 233.14181008825904 M 171.63800918408614 233.14181008825904 M 172.57993778608264 232.80605668851774 Q 173.0530763916414 232.63147761250957 173.5140619361806 232.44917077487483 M 173.5140619361806 232.44917077487483 M 174.43945637509975 232.07023044495782 Q 174.90378555291994 231.8734033268449 175.35509573871556 231.66829782793377 M 175.35509573871556 231.66829782793377 M 176.25984684006065 231.24242837648643 Q 176.71312366238618 231.0214872262178 177.15246169619112 230.7916828245529 M 177.15246169619112 230.7916828245529 M 178.03157189042338 230.31514216949105 Q 178.47107591805036 230.0682696852266 178.89568501865395 229.81192597019185 M 178.89568501865395 229.81192597019185 M 179.7431841284213 229.2812141218766 Q 180.1656865623521 229.00678483455494 180.5723311987748 228.7222720564265 M 180.5723311987748 228.7222720564265 M 181.38127579481727 228.13447901092502 Q 181.78306457211647 227.83125481195736 182.16807001951454 227.51735860430256 M 182.16807001951454 227.51735860430256 M 182.9306907271499 226.87061047922774 Q 183.30768674664478 226.5379756981726 183.66706961067501 226.19414124761008 M 183.66706961067501 226.19414124761008 M 184.37513120026097 225.48809249929093 Q 184.72312435670733 225.1262895858489 185.05283802104688 224.7528632997085 M 185.05283802104688 224.7528632997085 M 185.69824121835566 223.98912453188285 Q 186.0132456119922 223.599424103042 186.30953399607475 223.19782273334343 M 186.30953399607475 223.19782273334343 M 186.88510440832286 222.38017178777804 Q 187.1637804923094 221.96490222893212 187.4235835920231 221.5376319137823 M 187.4235835920231 221.5376319137823 M 187.92388558550843 220.67187670639902 Q 188.16392617344383 220.2342688239754 188.38523550626567 219.7847503065068 M 188.38523550626567 219.7847503065068 M 188.80718398884255 218.87821784668606 Q 189.0075496794905 218.4220861932827 189.18960721761468 217.95431294289412 M 189.18960721761468 217.95431294289412 M 189.5326933619624 217.01508606798774 Q 189.6936314777592 216.54443385069334 189.83691747064947 216.06255718568121 M 189.83691747064947 216.06255718568121 M 190.10300771945825 215.0986751831084 Q 190.2258715025073 214.61733093371046 190.3319062564637 214.12528561690036 M 190.3319062564637 214.12528561690036 M 190.52472778929751 213.1441072795922 Q 190.61167665336689 212.65546961955405 190.68271862283416 212.15671724936132 M 190.68271862283416 212.15671724936132 M 190.80721823000084 211.1645434860005 Q 190.86089386620415 210.67145504308598 190.899624759853 210.16886369322108 M 190.899624759853 210.16886369322108 M 190.96136525856105 209.1708090484931 Q 190.984611767923 208.675537335027 190.99387086136375 208.17137144948055 M 190.99387086136375 208.17137144948055" stroke-miterlimit="10"/></g></g></g></g><g transform="translate(0,0) matrix(1,0,0,1,15,92)"><g><g transform="translate(0,0) scale(1.47,0.545)"><g><path fill="#ffffff" stroke="none" d="M 0 0 L 100 0 Q 100 0 100 0 L 100 100 Q 100 100 100 100 L 0 100 Q 0 100 0 100 L 0 0 Q 0 0 0 0 Z"/><g transform="scale(0.6802721088435374,1.8348623853211008)"><path fill="none" stroke="none" d="M 0 0 L 147 0 Q 147 0 147 0 L 147 54.50000000000001 Q 147 54.50000000000001 147 54.50000000000001 L 0 54.50000000000001 Q 0 54.50000000000001 0 54.50000000000001 L 0 0 Q 0 0 0 0 Z"/><path fill="none" stroke="#ffffff" d="M 0 0 M 0 0 L 147 0 Q 147 0 147 0 L 147 54.50000000000001 Q 147 54.50000000000001 147 54.50000000000001 L 0 54.50000000000001 Q 0 54.50000000000001 0 54.50000000000001 L 0 0 Q 0 0 0 0 Z" stroke-miterlimit="10" stroke-width="2"/></g></g></g></g></g><g transform="matrix(1,0,0,1,26,95)"><g><g><rect fill="rgb(0,0,0)" stroke="none" x="0" y="0" width="125" height="48" fill-opacity="0"/></g></g><g><g><rect fill="rgb(0,0,0)" stroke="none" x="0" y="0" width="125" height="36" fill-opacity="0"/></g></g><g><g><rect fill="rgb(0,0,0)" stroke="none" x="0.109375" y="0" width="126" height="36" fill-opacity="0"/></g><text fill="rgb(0, 0, 0)" stroke="none" font-family="Arial" font-size="11px" font-style="normal" font-weight="normal" text-decoration="" line-height="12px" x="21" y="10">mesos</text><text fill="rgb(0, 0, 0)" stroke="none" font-family="Arial" font-size="11px" font-style="normal" font-weight="normal" text-decoration="" line-height="12px" x="53" y="10">-</text><text fill="rgb(0, 0, 0)" stroke="none" font-family="Arial" font-size="11px" font-style="normal" font-weight="normal" text-decoration="" line-height="12px" x="57" y="10">managed</text><text fill="rgb(0, 0, 0)" stroke="none" font-family="Arial" font-size="11px" font-style="normal" font-weight="normal" text-decoration="" line-height="12px" x="104" y="10">host</text><text fill="rgb(0, 0, 0)" stroke="none" font-family="Arial" font-size="11px" font-style="normal" font-weight="normal" text-decoration="" line-height="12px" x="0" y="22">port</text><text fill="rgb(0, 0, 0)" stroke="none" font-family="Arial" font-size="11px" font-style="normal" font-weight="normal" text-decoration="" line-height="12px" x="22" y="22">resource</text><text fill="rgb(0, 0, 0)" stroke="none" font-family="Arial" font-size="11px" font-style="normal" font-weight="normal" text-decoration="" line-height="12px" x="66" y="22">,</text><text fill="rgb(0, 0, 0)" stroke="none" font-family="Arial" font-size="11px" font-style="normal" font-weight="normal" text-decoration="" line-height="12px" x="72" y="22">declared</text><text fill="rgb(0, 0, 0)" stroke="none" font-family="Arial" font-size="11px" font-style="normal" font-weight="normal" text-decoration="" line-height="12px" x="117" y="22">in</text><text fill="rgb(0, 0, 0)" stroke="none" font-family="Arial" font-size="11px" font-style="normal" font-weight="normal" text-decoration="" line-height="12px" x="4" y="34">pod</text><text fill="rgb(0, 0, 0)" stroke="none" font-family="Arial" font-size="11px" font-style="normal" font-weight="normal" text-decoration="" line-height="12px" x="25" y="34">container</text><text fill="rgb(0, 0, 0)" stroke="none" font-family="Arial" font-size="11px" font-style="normal" font-weight="normal" text-decoration="" line-height="12px" x="73" y="34">ports</text><text fill="rgb(0, 0, 0)" stroke="none" font-family="Arial" font-size="11px" font-style="normal" font-weight="normal" text-decoration="" line-height="12px" x="101" y="34">spec</text></g><g><g><rect fill="rgb(0,0,0)" stroke="none" x="0" y="36" width="125" height="12" fill-opacity="0"/></g></g><g><g><rect fill="rgb(0,0,0)" stroke="none" x="77.109375" y="36" width="49" height="12" fill-opacity="0"/></g><text fill="rgb(0, 0, 0)" stroke="none" font-family="Arial" font-size="11px" font-style="normal" font-weight="normal" text-decoration="" line-height="12px" x="77" y="46">"</text><text fill="rgb(0, 0, 0)" stroke="none" font-family="Arial" font-size="11px" font-style="normal" font-weight="normal" text-decoration="" line-height="12px" x="81" y="46">hostPort</text><text fill="rgb(0, 0, 0)" stroke="none" font-family="Arial" font-size="11px" font-style="normal" font-weight="normal" text-decoration="" line-height="12px" x="121" y="46">"</text></g></g><g transform="matrix(1,0,0,1,158,115.25)"><g transform="translate(0,0)"><g transform="translate(-466,-5) translate(308,-110.25) matrix(1,0,0,1,0,0)"><g><path fill="none" stroke="#000000" d="M 162 119.25 M 162 119.25 Q 162.51116699399128 119.25000000000001 162.99961297096118 119.27395585490302 M 162.99961297096118 119.27395585490302 M 163.9965646431354 119.3502801012019 Q 164.50545113285412 119.40395607643566 164.98708795445873 119.48636268000709 M 164.98708795445873 119.48636268000709 M 165.96581272935111 119.69042894718405 Q 166.46187981024767 119.8135839571682 166.92528476848793 119.9711762051704 M 166.92528476848793 119.9711762051704 M 167.8555632445394 120.33699182187621 Q 168.31888244255146 120.54576518248686 168.74417044479557 120.79463665167889 M 168.74417044479557 120.79463665167889 M 169.57678539007605 121.34750005855776 Q 169.97842996755492 121.64905317380774 170.3389556202087 121.99395993805811 M 170.3389556202087 121.99395993805811 M 171.01856181030521 122.72673063348633 Q 171.33327197658375 123.10923510553599 171.60806880181258 123.53382212195328 M 171.60806880181258 123.53382212195328 M 172.10548725676787 124.40079902235593 Q 172.32725286193062 124.8384341780524 172.5137516802735 125.3132527937655 M 172.5137516802735 125.3132527937655 M 172.83913433718092 126.25852670390418 Q 172.9791840661279 126.72683408040142 173.08955465197272 127.22643359690855 M 173.08955465197272 127.22643359690855 M 173.27329864858388 128.2092356320045 Q 173.34812323380527 128.69223292470474 173.39825136918824 129.2012688656042 M 173.39825136918824 129.2012688656042 M 173.471532271302 130.19848181268048 Q 173.49580882624377 130.68733623860587 173.49938295261833 131.1980182250858 M 173.49938295261833 131.1980182250858 M 173.51371058965347 132.19786315998192 Q 173.53103331681166 132.70855678036168 173.5702425480357 133.19617441275895 M 173.5702425480357 133.19617441275895 M 173.67613584245336 134.19043458390402 Q 173.74406900878841 134.69755914437243 173.83820306089453 135.1770588578866 M 173.83820306089453 135.1770588578866 M 174.06408390573824 136.15100614516865 Q 174.19730374905825 136.64475142831304 174.36198615756345 137.1053242242513 M 174.36198615756345 137.1053242242513 M 174.74007801553162 138.03072100344272 Q 174.95424223036923 138.4925480821296 175.20539307858195 138.9153783843231 M 175.20539307858195 138.9153783843231 M 175.7622502962071 139.7453643471262 Q 176.06600418180392 140.14718047901272 176.41054330817178 140.50599478095583 M 176.41054330817178 140.50599478095583 M 177.14467647357006 141.1841186401851 Q 177.5290427031619 141.49872379835767 177.9539440528178 141.7705908408106 M 177.9539440528178 141.7705908408106 M 178.82442274879566 142.26178180907732 Q 179.26475234274264 142.47981979069448 179.74149718026683 142.65946343940956 M 179.74149718026683 142.65946343940956 M 180.69190773122182 142.96941353019076 Q 181.1629255946278 143.1007802523576 181.66479171637346 143.19962218040544 M 181.66479171637346 143.19962218040544 M 182.65185002531456 143.35879271154033 Q 183.1366018264339 143.42062075369327 183.64702978134056 143.45537719891828 M 183.64702978134056 143.45537719891828 M 184.6460496606075 143.49708342836595 Q 184.82164171385875 143.5 185 143.5" stroke-miterlimit="10"/></g></g></g></g><g transform="translate(0,0) matrix(1,0,0,1,210,160)"><g><g transform="translate(0,0) scale(0.7435714285714289,0.22)"><g><path fill="rgb(255,255,255)" stroke="none" d="M 0 0 L 100 0 Q 100 0 100 0 L 100 100 Q 100 100 100 100 L 0 100 Q 0 100 0 100 L 0 0 Q 0 0 0 0 Z" fill-opacity="0.008"/><g transform="scale(1.3448607108549466,4.545454545454546)"><path fill="none" stroke="none" d="M 0 0 L 74.35714285714289 0 Q 74.35714285714289 0 74.35714285714289 0 L 74.35714285714289 22 Q 74.35714285714289 22 74.35714285714289 22 L 0 22 Q 0 22 0 22 L 0 0 Q 0 0 0 0 Z"/><path fill="none" stroke="rgb(0,0,0)" d="M 0 0 M 0 0 L 74.35714285714289 0 Q 74.35714285714289 0 74.35714285714289 0 L 74.35714285714289 22 Q 74.35714285714289 22 74.35714285714289 22 L 0 22 Q 0 22 0 22 L 0 0 Q 0 0 0 0 Z" stroke-opacity="0" stroke-miterlimit="10" stroke-width="0"/></g></g></g></g></g><g transform="matrix(1,0,0,1,219,159)"><g><g><rect fill="rgb(0,0,0)" stroke="none" x="0" y="0" width="55" height="24" fill-opacity="0"/></g></g><g><g><rect fill="rgb(0,0,0)" stroke="none" x="0" y="0" width="55" height="24" fill-opacity="0"/></g></g><g><g><rect fill="rgb(0,0,0)" stroke="none" x="10.375" y="0" width="46" height="24" fill-opacity="0"/></g><text fill="rgb(0, 0, 0)" stroke="none" font-family="Arial" font-size="11px" font-style="normal" font-weight="normal" text-decoration="" line-height="12px" x="10.375" y="10">container</text><text fill="rgb(0, 0, 0)" stroke="none" font-family="Arial" font-size="11px" font-style="normal" font-weight="normal" text-decoration="" line-height="12px" x="36.375" y="22">port</text></g></g><g transform="matrix(1,0,0,1,280.3571428571429,114)"><g transform="translate(0,0)"><g transform="translate(-466,-5) translate(185.6428571428571,-109) matrix(1,0,0,1,0,0)"><g><path fill="none" stroke="#000000" d="M 284.3571428571429 171 M 284.3571428571429 171 Q 284.861840319412 170.99999999999997 285.3570849694932 170.99070379503848 M 285.3570849694932 170.99070379503848 M 286.3566594134544 170.96210217114003 Q 286.8611498219657 170.94260264705957 287.3554381432557 170.91307005642088 M 287.3554381432557 170.91307005642088 M 288.3529175221911 170.84240608728564 Q 288.85623077645477 170.8010458630125 289.34850625232 170.74883072611956 M 289.34850625232 170.74883072611956 M 290.3415117315186 170.63098586926 Q 290.842300259033 170.56509409172418 291.33112483105276 170.48743656869206 M 291.33112483105276 170.48743656869206 M 292.3164032038176 170.31667565031165 Q 292.8128176185925 170.22328571732038 293.296253411791 170.1171321829909 M 293.296253411791 170.1171321829909 M 294.26941241855434 169.88718491830926 Q 294.75895534313327 169.7631013535812 295.2344293445053 169.6251819491984 M 295.2344293445053 169.6251819491984 M 296.18964883604843 169.32946787721508 Q 296.6690257251917 169.17142015465026 297.13319794457186 168.99841966208646 M 297.13319794457186 168.99841966208646 M 298.06297900250564 168.63049196428278 Q 298.52799091535604 168.43541239239372 298.9766715288103 168.22427208604216 M 298.9766715288103 168.22427208604216 M 299.8717465390632 167.7785434944901 Q 300.3173044071014 167.5439884367418 300.7454965600687 167.292355366293 M 300.7454965600687 167.292355366293 M 301.595083912878 166.76509374793798 Q 302.0154466073768 166.48977067388125 302.41760823866775 166.19654807841928 M 302.41760823866775 166.19654807841928 M 303.21019177371795 165.58696545256254 Q 303.59949794950984 165.27123311380794 303.9700777952674 164.93708468905538 M 303.9700777952674 164.93708468905538 M 304.69473456119806 164.24814348501374 Q 305.0477742527696 163.89427250248207 305.3819547976674 163.52185481772116 M 305.3819547976674 163.52185481772116 M 306.0299401674525 162.76035289022474 Q 306.34293941761405 162.3723677846999 306.63736161417614 161.96611339650994 M 306.63736161417614 161.96611339650994 M 307.20338982368486 161.14185656251695 Q 307.4745056154197 160.72496494255677 307.7276944518117 160.29044336783934 M 307.7276944518117 160.29044336783934 M 308.21041510188314 159.4147752048721 Q 308.4397656031908 158.97460228347745 308.65211028684985 158.5177052842893 M 308.65211028684985 158.5177052842893 M 309.0536922368335 157.6019671059631 Q 309.2429870409122 157.14387591108536 309.41635542414895 156.67012215256977 M 309.41635542414895 156.67012215256977 M 309.7415054936274 155.72452630704896 Q 309.8934936731927 155.25319118119248 310.03069348421946 154.76731268958957 M 310.03069348421946 154.76731268958957 M 310.28555832862514 153.80038768834777 Q 310.40350079345683 153.31963117607057 310.50777896947795 152.8254367548505 M 310.50777896947795 152.8254367548505 M 310.69903619505226 151.8439368085535 Q 310.78630940520014 151.35674990727466 310.86098349326676 150.85717261688475 M 310.86098349326676 150.85717261688475 M 310.9952257861365 149.86625511505912 Q 311.0550732194848 149.3749093887555 311.10330474268085 148.87214019613907 M 311.10330474268085 148.87214019613907 M 311.18668938293354 147.87564698210937 Q 311.2220915331516 147.38183358907577 311.24677080259517 146.87747496405444 M 311.24677080259517 146.87747496405444 M 311.2848600118746 145.8782196784045 Q 311.2984837145582 145.3831807414806 311.30218805742965 144.8783867813882 M 311.30218805742965 144.8783867813882 M 311.3073220478483 143.87840529094896 Q 311.31345008857267 143.37361471570298 311.3295905780016 142.87867071028973 M 311.3295905780016 142.87867071028973 M 311.372912399378 141.87962915293926 Q 311.40031183430034 141.37539440928313 311.4385378992125 140.88180692798946 M 311.4385378992125 140.88180692798946 M 311.5277976296033 139.88582349837802 Q 311.57908442432495 139.38334653584076 311.64210194141856 138.8924059497117 M 311.64210194141856 138.8924059497117 M 311.78293814883716 137.9024050414613 Q 311.86103896307407 137.4033519705117 311.95186435105927 136.91681266194936 M 311.95186435105927 136.91681266194936 M 312.15049886272544 135.93678029462527 Q 312.2586022030411 135.4434240973967 312.3805040480646 134.9636378014183 M 312.3805040480646 134.9636378014183 M 312.6435632558846 133.9989114264114 Q 312.7849928166956 133.5142854761836 312.9413495735264 133.04433941919194 M 312.9413495735264 133.04433941919194 M 313.2754853392699 132.10188309655817 Q 313.4534573150569 131.62990859972734 313.64749187044924 131.1737305695197 M 313.64749187044924 131.1737305695197 M 314.05872976994226 130.2622898827322 Q 314.27596638938485 129.80780664081766 314.5103315157877 129.3701681333823 M 314.5103315157877 129.3701681333823 M 315.0031297695011 128.5001334933062 Q 315.26134690372334 128.06873377467883 315.53758675370284 127.6550581847352 M 315.53758675370284 127.6550581847352 M 316.11373175415 126.83784248588071 Q 316.413106978046 126.43542064938033 316.731114746102 126.0513226667788 M 316.731114746102 126.0513226667788 M 317.3887837679156 125.29816894928858 Q 317.72760500706215 124.93019926105099 318.08529162439027 124.58078240331136 M 318.08529162439027 124.58078240331136 M 318.81873391623816 123.90120125903876 Q 319.193433809602 123.5719276485316 319.5868159350956 123.26102675669937 M 319.5868159350956 123.26102675669937 M 320.3869417140349 122.66137622620785 Q 320.7925716749783 122.37321474663192 321.21631558042077 122.10286711307093 M 321.21631558042077 122.10286711307093 M 322.07204561039714 121.58563116806958 Q 322.50301840366353 121.33901138763372 322.9512394667776 121.10935412042116 M 322.9512394667776 121.10935412042116 M 323.85108565490594 120.67333366406835 Q 324.30190238175214 120.46697624506345 324.76891639816006 120.27654777086283 M 324.76891639816006 120.27654777086283 M 325.70225131208525 119.91772596679263 Q 326.1680044734919 119.74916381050787 326.64882332210846 119.59541774422938 M 326.64882332210846 119.59541774422938 M 327.606589640756 119.30805416796477 Q 328.08319385761274 119.17417621329845 328.57373117425317 119.05400052508607 M 328.57373117425317 119.05400052508607 M 329.54864367970094 118.83159931548835 Q 330.03285823305686 118.72908265825168 330.52992358417634 118.6392038962312 M 330.52992358417634 118.6392038962312 M 331.5163508089256 118.4752037067142 Q 332.0056873431831 118.40079789408226 332.5068703553175 118.33804229561152 M 332.5068703553175 118.33804229561152 M 333.5005738842934 118.2262294406449 Q 333.9931623097109 118.17691388517545 334.496682092069 118.1383485839803 M 334.496682092069 118.1383485839803 M 335.4945283571833 118.0730606647823 Q 335.9889828901554 118.0461134441031 336.4935438974558 118.02910526113314 M 336.4935438974558 118.02910526113314 M 337.49324451354676 118.00529978383963 Q 337.86892772381714 118 338.25 118" stroke-miterlimit="10"/></g></g></g></g></g></svg>