<?xml version="1.0" encoding="utf-8"?>
<!-- Generator: Adobe Illustrator 18.0.0, SVG Export Plug-In . SVG Version: 6.00 Build 0)  -->
<!DOCTYPE svg PUBLIC "-//W3C//DTD SVG 1.1//EN" "http://www.w3.org/Graphics/SVG/1.1/DTD/svg11.dtd">
<svg version="1.1" id="Layer_1" xmlns="http://www.w3.org/2000/svg" xmlns:xlink="http://www.w3.org/1999/xlink" x="0px" y="0px"
	 viewBox="0 0 20 20" enable-background="new 0 0 20 20" xml:space="preserve">
<path fill="#7D7D7D" d="M19.4,3H18V0.7c0-0.3-0.2-0.5-0.5-0.5H2.6C2.3,0.2,2,0.4,2,0.7V3H0.6C0.3,3,0.1,3.2,0.1,3.5v15.7
	c0,0.3,0.2,0.5,0.5,0.5h7.5c0.3,0,0.5-0.2,0.5-0.5v-6.6h2.6v6.6c0,0.3,0.2,0.5,0.5,0.5h7.5c0.3,0,0.5-0.2,0.5-0.5V3.5
	C19.9,3.2,19.7,3,19.4,3z M5.2,15.9H2.4v-2.8h2.8V15.9z M5.2,10.5H2.4V7.7h2.8V10.5z M11.4,10.5H8.6V7.7h2.8V10.5z M11.4,5.3H8.6
	V2.5h2.8V5.3z M17.7,15.9h-2.8v-2.8h2.8V15.9z M17.7,10.5h-2.8V7.7h2.8V10.5z"/>
</svg>
