<svg xmlns="http://www.w3.org/2000/svg" xmlns:xlink="http://www.w3.org/1999/xlink" version="1.1" id="Layer_1" x="0" y="0" viewBox="0 0 46 46" enable-background="new 0 0 46 46" xml:space="preserve">
  <path fill="#09C1D1" d="M43 46H3c-1.6 0-3-1.3-3-3V3c0-1.6 1.4-3 3-3h40c1.7 0 3 1.4 3 3v40C46 44.7 44.7 46 43 46z"/>
  <path fill="#FFFFFF" d="M40.4 21.5h-4.7v-4.7c0-0.4-0.3-0.6-0.6-0.6h-1.3c-0.4 0-0.6 0.3-0.6 0.6v4.7h-4.7c-0.4 0-0.6 0.3-0.6 0.6v1.3c0 0.4 0.3 0.6 0.6 0.6h4.7v4.7c0 0.4 0.3 0.6 0.6 0.6h1.3c0.4 0 0.6-0.3 0.6-0.6v-4.7h4.7c0.4 0 0.6-0.3 0.6-0.6v-1.3C41 21.8 40.7 21.5 40.4 21.5z"/>
  <path fill="#FFFFFF" d="M24.7 25.6c-1-0.7-1.9-1.7-1.9-2 0-0.6 0.1-0.8 1.3-1.8 1.7-1.3 2.6-3 2.6-4.8 0-1.6-0.5-3.1-1.3-4.1H26c0.1 0 0.3 0 0.4-0.1l1.8-1.3c0.2-0.2 0.3-0.5 0.2-0.7 -0.1-0.3-0.3-0.4-0.6-0.4h-8.2c-0.9 0-1.8 0.2-2.7 0.5 -3 1-5.1 3.6-5.1 6.2 0 3.7 2.9 6.5 6.7 6.6 -0.1 0.3-0.1 0.6-0.1 0.9 0 0.6 0.1 1.1 0.4 1.6 0 0-0.1 0-0.1 0 -3.7 0-7 1.8-8.2 4.5 -0.3 0.7-0.5 1.4-0.5 2.1 0 0.7 0.2 1.3 0.5 1.9 0.8 1.4 2.5 2.5 4.8 3.1 1.2 0.3 2.4 0.4 3.8 0.4 1.2 0 2.3-0.2 3.4-0.5 3.2-0.9 5.3-3.3 5.3-6.1C27.8 28.8 27 27.2 24.7 25.6zM14.4 31.7c0-1.9 2.4-3.6 5.2-3.6h0.1c0.6 0 1.2 0.1 1.8 0.3 0.2 0.1 0.4 0.3 0.6 0.4 1.3 0.9 2.1 1.5 2.4 2.4 0.1 0.2 0.1 0.5 0.1 0.7 0 2.4-1.8 3.6-5.3 3.6C16.4 35.4 14.4 33.8 14.4 31.7zM16.9 13.5c0.4-0.5 1-0.8 1.6-0.8l0.1 0c1.8 0.1 3.5 2.1 3.9 4.5 0.2 1.4-0.1 2.6-0.8 3.4 -0.4 0.5-1 0.8-1.7 0.8 0 0 0 0 0 0h0c-1.8-0.1-3.5-2.1-3.9-4.6C15.9 15.4 16.2 14.2 16.9 13.5z"/>
</svg>
