<svg xmlns="http://www.w3.org/2000/svg" xmlns:xlink="http://www.w3.org/1999/xlink" version="1.1" id="Layer_1" x="0" y="0" viewBox="0 0 46 46" enable-background="new 0 0 46 46" xml:space="preserve">
  <path fill="#09C1D1" d="M43 46H3c-1.6 0-3-1.3-3-3V3c0-1.6 1.4-3 3-3h40c1.7 0 3 1.4 3 3v40C46 44.7 44.7 46 43 46z"/>
  <path fill="#FFFFFF" d="M15.5 30.9h11v2.3h-11V30.9zM32.1 9.1l1.9 10.8 -2.3 0.4L29.7 9.5 32.1 9.1zM26.6 30.2l-11-1 0.2-2.3 11 1L26.6 30.2zM16.9 21.9l10.6 2.9 -0.6 2.3 -10.6-2.9L16.9 21.9zM27.7 24.1l-9.5-5.6 1.2-2 9.5 5.6L27.7 24.1zM29.3 21.8l-6.2-9.1 1.9-1.3 6.2 9.1L29.3 21.8zM28.4 25.4v9.7H13.9v-9.7h-1.9v11.4h0 0.5 17.6v0 -0.5V25.4H28.4z"/>
</svg>
