<svg xmlns="http://www.w3.org/2000/svg" xmlns:xlink="http://www.w3.org/1999/xlink" version="1.1" id="Layer_1" x="0" y="0" viewBox="0 0 46 46" enable-background="new 0 0 46 46" xml:space="preserve">
  <path fill="#09C1D1" d="M43 46H3c-1.6 0-3-1.3-3-3V3c0-1.6 1.4-3 3-3h40c1.7 0 3 1.4 3 3v40C46 44.7 44.7 46 43 46z"/>
  <path fill="#FFFFFF" d="M40.8 14.2c-1.2 0.5-2.5 0.9-3.9 1.1 1.4-0.8 2.5-2.2 3-3.7 -1.3 0.8-2.7 1.3-4.3 1.6 -1.2-1.3-3-2.1-4.9-2.1C27 11 24 14 24 17.7c0 0.5 0.1 1 0.2 1.5 -5.6-0.3-10.6-3-13.9-7 -0.6 1-0.9 2.1-0.9 3.4 0 2.3 1.2 4.4 3 5.6 -1.1 0-2.1-0.3-3-0.8 0 0 0 0.1 0 0.1 0 3.3 2.3 6 5.4 6.6 -0.6 0.2-1.2 0.2-1.8 0.2 -0.4 0-0.9 0-1.3-0.1 0.9 2.7 3.3 4.6 6.3 4.7 -2.3 1.8-5.2 2.9-8.4 2.9 -0.5 0-1.1 0-1.6-0.1 3 1.9 6.5 3 10.3 3 12.4 0 19.1-10.3 19.1-19.1 0-0.3 0-0.6 0-0.9C38.8 16.7 39.9 15.5 40.8 14.2z"/>
</svg>
