<?xml version="1.0" standalone="no"?>
<!DOCTYPE svg PUBLIC "-//W3C//DTD SVG 1.1//EN" "http://www.w3.org/Graphics/SVG/1.1/DTD/svg11.dtd" >
<svg xmlns="http://www.w3.org/2000/svg">
<metadata></metadata>
<defs>
<font id="open_sans_hebrewlight" horiz-adv-x="1169" >
<font-face units-per-em="2048" ascent="1638" descent="-410" />
<missing-glyph horiz-adv-x="532" />
<glyph unicode="&#xd;" horiz-adv-x="682" />
<glyph unicode=" "  horiz-adv-x="532" />
<glyph unicode="&#x09;" horiz-adv-x="532" />
<glyph unicode="&#xa0;" horiz-adv-x="532" />
<glyph unicode="!" horiz-adv-x="492" d="M276 377h-61l-29 1085h119zM244 176q82 0 82 -98t-82 -98q-80 0 -80 98t80 98z" />
<glyph unicode="&#x22;" horiz-adv-x="723" d="M227 934h-61l-33 528h127zM557 934h-61l-33 528h127z" />
<glyph unicode="#" horiz-adv-x="1323" d="M1268 1008v-80h-301l-76 -398h303v-79h-320l-86 -451h-90l88 451h-360l-86 -451h-88l86 451h-283v79h299l76 398h-297v80h311l86 454h91l-89 -454h365l87 454h87l-89 -454h286zM518 928l-78 -398h363l78 398h-363z" />
<glyph unicode="$" d="M618 1554v-190q197 -9 350 -72l-32 -90q-141 62 -318 72v-486q214 -66 293 -144t79 -207t-98 -213.5t-274 -106.5v-236h-81v232q-85 1 -196.5 22t-176.5 51v103q72 -35 177 -60.5t196 -25.5v508q-140 42 -212.5 87t-104.5 105t-32 146q0 124 94 208.5t255 104.5v192h81z M297 1049q0 -86 56.5 -141t183.5 -93v453q-116 -15 -178 -74t-62 -145zM811 284q70 62 70 153t-62.5 147t-200.5 96v-471q123 13 193 75z" />
<glyph unicode="%" horiz-adv-x="1653" d="M185 1366q72 117 211.5 117t215.5 -120t76 -341t-75 -339t-212 -118t-212.5 121t-75.5 342t72 338zM469 0h-96l811 1462h96zM540.5 1302q-49.5 93 -144 93t-140 -92t-45.5 -278.5t45.5 -279t140.5 -92.5q193 0 193 373q0 183 -49.5 276zM1038.5 778.5 q73.5 116.5 211.5 116.5t214 -119.5t76 -341.5t-74 -339.5t-212.5 -117.5t-213.5 120.5t-75 342.5t73.5 338.5zM1249 807q-95 0 -140.5 -91t-45.5 -278t45.5 -278.5t140.5 -91.5q193 0 193 369.5t-193 369.5z" />
<glyph unicode="&#x26;" horiz-adv-x="1460" d="M396 893q-130 139 -130 281.5t95 226.5q96 84 254 84t248.5 -81t90.5 -224q0 -105 -70 -194q-73 -88 -253 -193l452 -457q119 141 179 358h96q-63 -245 -209 -426l266 -268h-135l-193 197q-92 -91 -164 -132q-146 -85 -354 -85t-327 103.5t-119 287.5q0 138 73 234.5 t275 205.5zM786 1336q-62 59 -172 59t-175.5 -58t-65.5 -161q0 -79 40 -146.5t152 -173.5q160 86 221.5 159.5t61.5 167.5t-62 153zM342 622q-115 -96 -115 -243t92 -228t259 -81q129 0 234.5 43t209.5 147l-483 485q-134 -71 -197 -123z" />
<glyph unicode="'" horiz-adv-x="393" d="M227 934h-61l-33 528h127z" />
<glyph unicode="(" horiz-adv-x="557" d="M190 563q0 -484 304 -887h-111q-147 171 -224 397.5t-77 489.5t77.5 494t223.5 405h113q-146 -179 -226 -410t-80 -489z" />
<glyph unicode=")" horiz-adv-x="557" d="M174 1462q148 -177 224.5 -408.5t76.5 -493.5t-77 -488.5t-224 -395.5h-111q304 403 304 887q0 259 -79.5 489t-226.5 410h113z" />
<glyph unicode="*" horiz-adv-x="1128" d="M594 1151l404 104l22 -131l-395 -39l247 -340l-124 -71l-191 379l-180 -379l-125 71l242 340l-390 39l19 131l401 -104l-39 405h146z" />
<glyph unicode="+" d="M625 764h434v-82h-434v-432h-82v432h-432v82h432v434h82v-434z" />
<glyph unicode="," horiz-adv-x="440" d="M295 238l12 -21q-75 -264 -174 -481h-65q77 277 110 502h117z" />
<glyph unicode="-" horiz-adv-x="659" d="M567 512h-475v82h475v-82z" />
<glyph unicode="." horiz-adv-x="487" d="M242 176q82 0 82 -98t-82 -98q-80 0 -80 98t80 98z" />
<glyph unicode="/" horiz-adv-x="698" d="M129 0h-104l544 1462h105z" />
<glyph unicode="0" d="M230 1300.5q115 184.5 349 184.5t355 -191t121 -566.5t-117 -561.5t-351 -186t-353 191t-119 568t115 561.5zM582 1395q-186 0 -272.5 -165t-86.5 -499.5t89 -497.5t273 -163t271.5 165.5t87.5 497t-88 497t-274 165.5z" />
<glyph unicode="1" d="M682 0h-98v1065q0 145 12 301q-20 -20 -31 -29l-309 -243l-57 71l397 297h86v-1462z" />
<glyph unicode="2" d="M553 1483q191 0 300.5 -102t109.5 -281q0 -144 -74 -280t-268 -335l-375 -386v-4h782v-95h-915v88l389 406q164 170 230.5 260.5t97 172t30.5 171.5q0 130 -85.5 212.5t-223.5 82.5q-184 0 -350 -133l-54 69q182 154 406 154z" />
<glyph unicode="3" d="M93 162q186 -94 395.5 -94t321.5 88.5t112 253.5q0 146 -114 223.5t-333 77.5h-158v96h160q181 0 288 86.5t107 234.5q0 122 -86.5 195.5t-226.5 73.5q-110 0 -198 -30t-203 -105l-49 67q88 72 206.5 113t241.5 41q201 0 311 -95.5t110 -269.5q0 -137 -85.5 -230 t-228.5 -118v-6q176 -22 268 -112t92 -242q0 -206 -140 -318t-401 -112q-221 0 -390 83v99z" />
<glyph unicode="4" d="M889 459h252v-86h-252v-373h-94v373h-752v67l725 1030h121v-1011zM795 459v418q0 294 14 507h-8q-17 -33 -123 -188l-516 -737h633z" />
<glyph unicode="5" d="M948 1366h-610l-45 -516q159 29 244 29q234 0 368.5 -113.5t134.5 -310.5q0 -224 -140 -349.5t-381 -125.5t-376 83v103q104 -53 190 -75.5t181 -22.5q192 0 308 101.5t116 269.5t-113 261t-307 93q-130 0 -272 -39l-60 39l58 669h704v-96z" />
<glyph unicode="6" d="M623 903q205 0 320.5 -117.5t115.5 -331.5t-121.5 -344t-327.5 -130q-222 0 -351 169q-128 170 -128 474q0 424 167.5 643t465.5 219h8q92 0 172 -23v-88q-73 27 -176 27q-247 0 -384.5 -178t-154.5 -518h13q75 97 173 147.5t208 50.5zM609 821q-91 0 -178.5 -45.5 t-139 -118.5t-51.5 -147v-6q0 -112 50 -214.5t134.5 -162t185.5 -59.5q165 0 255.5 103t90.5 294q0 167 -90 261.5t-245 94.5h-12z" />
<glyph unicode="7" d="M109 1366v96h946v-73l-604 -1389h-117l602 1366h-827z" />
<glyph unicode="8" d="M994 1135q0 -114 -70.5 -199.5t-227.5 -157.5q193 -80 270.5 -174t77.5 -227q0 -181 -126.5 -289t-344 -108t-335 101.5t-117.5 293.5q0 263 340 399q-162 77 -227.5 160.5t-65.5 202.5v10q0 148 117 244t290 96h7q186 0 299 -94.5t113 -257.5zM590 815 q164 63 234.5 139.5t70.5 189.5t-84 183t-228.5 70t-229.5 -69.5t-85 -190.5q0 -71 30.5 -123.5t89 -95.5t202.5 -103zM561 733q-183 -70 -260.5 -156.5t-77.5 -220.5t93.5 -210t260 -76t266 80.5t99.5 212t-79 207.5q-77 77 -302 163z" />
<glyph unicode="9" d="M199 92q95 -29 196 -29q248 0 387.5 179t155.5 520h-12q-72 -95 -173 -147t-212 -52q-204 0 -317 112.5t-113 325t124 348.5t324 136h10q210 0 338.5 -171t128.5 -463v-8.5v-5.5q0 -425 -166 -641t-471 -216h-8q-102 0 -192 26v86zM559 1397q-157 0 -251.5 -106.5 t-94.5 -285.5t86.5 -269.5t249.5 -90.5q101 0 188 44.5t139 119t52 152.5q0 116 -47 219q-46 103 -130 160t-192 57z" />
<glyph unicode=":" horiz-adv-x="487" d="M242 1069q82 0 82 -99q0 -50 -22 -74t-59 -24t-59 24t-22 74q0 99 80 99zM242 176q82 0 82 -98t-82 -98q-80 0 -80 98t80 98z" />
<glyph unicode=";" horiz-adv-x="487" d="M242 1069q82 0 82 -99q0 -50 -22 -74t-59 -24t-59 24t-22 74q0 99 80 99zM76 -264q80 292 110 502h117l12 -21q-75 -264 -174 -481h-65z" />
<glyph unicode="&#x3c;" d="M1059 1122l-823 -405l823 -355v-96l-948 416v61l948 474v-95z" />
<glyph unicode="=" d="M1059 885h-948v82h948v-82zM1059 477h-948v82h948v-82z" />
<glyph unicode="&#x3e;" d="M1059 743v-61l-948 -416v96l823 355l-823 405v95z" />
<glyph unicode="?" horiz-adv-x="862" d="M395 1483q183 0 288 -98.5t105 -270.5q0 -62 -22 -132q-8 -26 -30.5 -57.5t-34.5 -47.5t-49 -49q-49 -46 -113.5 -99.5t-98 -96.5t-49.5 -94t-16 -147v-14h-82v37q0 124 37 201t139 167l91 79q72 61 103 121t31 138q0 127 -83 202t-223.5 75t-294.5 -74l-36 80 q106 47 181.5 63.5t156.5 16.5zM340 176q82 0 82 -98t-82 -98q-80 0 -80 98t80 98z" />
<glyph unicode="@" horiz-adv-x="1815" d="M852 -197q-349 0 -544 200.5t-195 557.5q0 256 109 461t307.5 317.5t446.5 112.5q215 0 381.5 -89t254.5 -255q90 -166 90 -389t-90.5 -360.5t-245.5 -137.5q-89 0 -144.5 54t-64.5 147h-4q-42 -99 -123 -150t-190 -51q-148 0 -229 96.5t-81 270.5q0 202 121 330.5 t314 128.5q136 0 286 -41l-22 -464v-30q0 -106 35.5 -157.5t115.5 -51.5q103 0 168.5 116.5t65.5 307.5t-79.5 337t-225.5 223q-145 79 -335 79q-230 0 -405 -99.5t-269.5 -280.5t-94.5 -419q0 -322 166.5 -497.5t474.5 -175.5q83 0 184.5 18t235.5 70v-99 q-204 -80 -414 -80zM958 967q-149 0 -237 -102t-88 -275q0 -145 55.5 -216t173.5 -71q255 0 273 346l16 291q-80 27 -193 27z" />
<glyph unicode="A" horiz-adv-x="1229" d="M1229 0h-115l-203 516h-594l-204 -516h-113l588 1468h65zM877 608l-199 527q-24 58 -60 172q-26 -92 -59 -174l-205 -525h523z" />
<glyph unicode="B" horiz-adv-x="1284" d="M207 1462h401q268 0 396.5 -91.5t128.5 -278.5q0 -128 -78 -212t-226 -108v-6q175 -26 257.5 -110.5t82.5 -235.5q0 -201 -133.5 -310.5t-380.5 -109.5h-448v1462zM309 1372v-561h322q205 0 299 68t94 213.5t-104 212.5t-316 67h-295zM309 721v-631h344q406 0 406 330 q0 301 -428 301h-322z" />
<glyph unicode="C" horiz-adv-x="1272" d="M790 -20q-308 0 -485 199.5t-177 555.5v15q0 211 84.5 379.5t242 261t356.5 92.5h13q212 0 383 -80l-41 -92q-162 80 -336 80q-275 0 -433 -176t-158 -485.5t149 -482.5t426 -173q182 0 338 47v-90q-145 -51 -362 -51z" />
<glyph unicode="D" horiz-adv-x="1446" d="M207 1462h395q350 0 532.5 -183t182.5 -542.5t-192.5 -548t-567.5 -188.5h-350v1462zM309 1372v-1282h242q655 0 655 651q0 313 -159.5 472t-468.5 159h-269z" />
<glyph unicode="E" horiz-adv-x="1130" d="M1006 1368h-697v-553h658v-94h-658v-628h697v-93h-799v1462h799v-94z" />
<glyph unicode="F" horiz-adv-x="1028" d="M1008 1368h-699v-620h659v-95h-659v-653h-102v1462h801v-94z" />
<glyph unicode="G" horiz-adv-x="1481" d="M1321 737v-667q-208 -90 -477 -90q-346 0 -531 195q-184 196 -184 554q0 223 91 395t261.5 266.5t401.5 94.5t420 -88l-41 -92q-189 88 -394 88q-289 0 -458.5 -178.5t-169.5 -481.5q0 -329 160.5 -496t473.5 -167q202 0 343 57v514h-435v96h539z" />
<glyph unicode="H" horiz-adv-x="1473" d="M1266 0h-103v719h-854v-719h-102v1462h102v-649h854v649h103v-1462z" />
<glyph unicode="I" horiz-adv-x="516" d="M309 0h-102v1462h102v-1462z" />
<glyph unicode="J" horiz-adv-x="506" d="M309 1462v-1462q0 -369 -342 -369q-93 0 -151 27v88q80 -20 149 -20q242 0 242 265v1471h102z" />
<glyph unicode="K" horiz-adv-x="1190" d="M309 0h-102v1462h102v-760l162 162l573 598h130l-599 -618l615 -844h-125l-561 772l-195 -172v-600z" />
<glyph unicode="L" horiz-adv-x="1051" d="M309 95h697v-95h-799v1462h102v-1367z" />
<glyph unicode="M" horiz-adv-x="1767" d="M1561 0h-103v1108q0 116 12 240h-8l-547 -1348h-65l-545 1350h-8q8 -133 8 -254v-1096h-98v1462h158l518 -1286h6l518 1286h154v-1462z" />
<glyph unicode="N" horiz-adv-x="1477" d="M1270 0h-103l-866 1298h-8q12 -232 12 -350v-948h-98v1462h102l865 -1296h6q-9 180 -9 342v954h99v-1462z" />
<glyph unicode="O" horiz-adv-x="1565" d="M303 182q-174 202 -174 552.5t175.5 550.5t481 200t478 -202t172.5 -550.5t-174 -550.5t-479.5 -202t-479.5 202zM1185.5 1217.5q-139.5 168.5 -400.5 168.5t-403 -170t-142 -483t140 -485t402.5 -172t402.5 170t140 486.5t-139.5 485z" />
<glyph unicode="P" horiz-adv-x="1198" d="M207 1462h358q522 0 522 -420q0 -212 -144.5 -325t-407.5 -113h-226v-604h-102v1462zM309 1370v-678h201q248 0 357 81q109 82 109 258t-103.5 257.5t-321.5 81.5h-242z" />
<glyph unicode="Q" horiz-adv-x="1565" d="M782 -20q-305 0 -479 202t-174 552.5t175.5 550.5t481 200t478 -202t172.5 -550q0 -293 -126 -487q-126 -192 -349 -246l333 -348h-166l-282 330l-33 -2h-31zM1185.5 1217.5q-139.5 168.5 -400.5 168.5t-403 -170t-142 -483t140 -485t402.5 -172t402.5 170t140 486.5 t-139.5 485z" />
<glyph unicode="R" horiz-adv-x="1217" d="M207 1462h348q271 0 401.5 -100t130.5 -303q0 -149 -78.5 -249t-234.5 -144l397 -666h-122l-377 637h-363v-637h-102v1462zM309 1370v-645h279q187 0 287.5 83t100.5 247t-99.5 239.5t-325.5 75.5h-242z" />
<glyph unicode="S" horiz-adv-x="1116" d="M514 74q181 0 286 82t105 217q0 82 -34.5 137t-113.5 99.5t-233 97.5q-224 77 -310 166q-85 89 -85 245.5t128 260.5q130 104 333.5 104t383.5 -78l-36 -88q-180 76 -345 76t-261 -75t-96 -204q0 -79 29 -134q30 -51 97 -93q69 -41 230 -99q169 -58 256 -114 t126.5 -126.5t39.5 -170.5q0 -182 -134.5 -289.5t-357.5 -107.5q-267 0 -411 59v102q153 -67 403 -67z" />
<glyph unicode="T" horiz-adv-x="1073" d="M1063 1366h-475v-1366h-103v1366h-476v96h1054v-96z" />
<glyph unicode="U" horiz-adv-x="1473" d="M1282 1462v-946q0 -251 -145.5 -393.5t-404 -142.5t-400.5 142t-142 398v942h103v-946q0 -210 117 -329q117 -117 328 -117t327 115q115 115 115 321v956h102z" />
<glyph unicode="V" horiz-adv-x="1182" d="M635 0h-90l-545 1462h109l368 -995q85 -228 113 -338q18 68 79 233l402 1100h111z" />
<glyph unicode="W" horiz-adv-x="1827" d="M1372 0h-84l-321 1128q-41 140 -60 228q-18 -95 -43 -190.5t-325 -1165.5h-86l-402 1462h107l256 -942q70 -267 86 -358q24 134 102 413l250 887h113l293 -1018q49 -168 73 -284q13 72 33 153q21 81 309 1149h103z" />
<glyph unicode="X" horiz-adv-x="1102" d="M612 764l490 -764h-118l-431 682l-440 -682h-113l492 762l-447 700h115l395 -626l401 626h109z" />
<glyph unicode="Y" horiz-adv-x="1081" d="M594 0h-105v557l-489 905h117l426 -800l427 800h111l-487 -897v-565z" />
<glyph unicode="Z" horiz-adv-x="1180" d="M1098 95v-95h-1016v76l856 1290h-817v96h954v-76l-858 -1291h881z" />
<glyph unicode="[" horiz-adv-x="653" d="M602 1368h-330v-1597h330v-95h-428v1786h428v-94z" />
<glyph unicode="\" horiz-adv-x="698" d="M674 0h-103l-546 1462h102z" />
<glyph unicode="]" horiz-adv-x="653" d="M479 -324h-428v95h330v1597h-330v94h428v-1786z" />
<glyph unicode="^" d="M1081 561h-101l-394 791l-398 -791h-100l465 912h68z" />
<glyph unicode="_" horiz-adv-x="842" d="M846 -266h-850v82h850v-82z" />
<glyph unicode="`" horiz-adv-x="1182" d="M393 1569h142q26 -48 99 -142.5t142 -169.5v-16h-69q-94 77 -187 169.5t-127 141.5v17z" />
<glyph unicode="a" horiz-adv-x="1085" d="M205 1022q179 84 356.5 84t265.5 -93.5t88 -289.5v-723h-73l-25 172h-8q-83 -106 -168.5 -149t-204.5 -43q-160 0 -249.5 81.5t-89.5 234t133 240.5t384 93l207 6v72q0 158 -64 235.5t-207 77.5t-308 -84zM203 285q0 -102 62.5 -158.5t176.5 -56.5q174 0 274.5 100 t100.5 276v107l-190 -8q-229 -11 -326.5 -71.5t-97.5 -188.5z" />
<glyph unicode="b" horiz-adv-x="1219" d="M281 1556v-391q0 -97 -4 -162l-3 -85h7q62 98 149.5 144t210.5 46q227 0 343 -143t116 -417t-123 -421q-120 -147 -340 -147q-116 0 -209 48t-147 136h-9l-28 -164h-62v1556h99zM281 545v-17q0 -246 86.5 -353t266 -107t270 123.5t90.5 355.5q0 471 -355 471 q-191 0 -274.5 -110t-83.5 -363z" />
<glyph unicode="c" horiz-adv-x="972" d="M616 -20q-233 0 -365 147t-132 413t136.5 417t375.5 151q142 0 270 -49l-27 -89q-141 48 -245 48q-199 0 -302.5 -123t-103.5 -350t103 -351t288 -124q146 0 275 53v-92q-103 -51 -273 -51z" />
<glyph unicode="d" horiz-adv-x="1219" d="M1036 0h-66l-24 166h-8q-124 -186 -352.5 -186t-347.5 140.5t-119 415t118 423.5t343 149q120 0 205.5 -44t152.5 -146h6q-6 126 -6 247v391h98v-1556zM938 528v17q0 253 -85 363t-267.5 110t-272.5 -124.5t-90 -363.5q0 -462 359 -462q184 0 270 107t86 353z" />
<glyph unicode="e" horiz-adv-x="1124" d="M621 -20q-236 0 -370 146q-132 146 -132 407t127.5 418t345.5 157q192 0 303 -134.5t111 -363.5v-80h-783q2 -224 104.5 -342t293.5 -118q95 0 167 14t175 55v-90q-91 -40 -169.5 -54.5t-172.5 -14.5zM901 618q0 189 -83 295.5t-233.5 106.5t-245 -104t-110.5 -298h672z " />
<glyph unicode="f" horiz-adv-x="614" d="M231 1180q0 202 74 294.5t240 92.5q90 0 180 -27l-23 -86q-78 25 -159 25q-115 0 -164 -68.5t-49 -222.5v-101h256v-86h-256v-1001h-99v1001h-202v58l202 37v84z" />
<glyph unicode="g" horiz-adv-x="1071" d="M457 150h190q178 0 271.5 -71.5t93.5 -211.5q0 -172 -139.5 -265.5t-397.5 -93.5q-204 0 -317 79t-113 220q0 110 68.5 184.5t189.5 101.5q-50 22 -79 61t-29 88q0 110 139 192q-95 39 -148 122.5t-53 191.5q0 164 103.5 262t279.5 98q108 0 166 -21h348v-69l-225 -14 q90 -112 90 -246q0 -158 -104 -255t-281 -97q-74 0 -104 6q-121 -63 -121 -162q0 -52 40 -76t132 -24zM721.5 959.5q-73.5 70.5 -206.5 70.5t-207.5 -75t-74.5 -204t76 -199q77 -69 209 -69t204.5 69t72.5 203t-73.5 204.5zM627 51h-178q-299 0 -299 -235q0 -224 333 -224 q428 0 428 273q0 98 -67 142t-217 44z" />
<glyph unicode="h" horiz-adv-x="1208" d="M668 1108q370 0 370 -397v-711h-98v705q0 163 -68.5 238t-214.5 75q-193 0 -284.5 -98t-91.5 -320v-600h-99v1556h99v-495l-5 -139h7q60 97 153 141.5t232 44.5z" />
<glyph unicode="i" horiz-adv-x="463" d="M231 1485q31 0 48.5 -25t17.5 -70.5t-17.5 -71.5t-48.5 -26q-63 0 -63 96.5t63 96.5zM281 0h-99v1087h99v-1087z" />
<glyph unicode="j" horiz-adv-x="463" d="M231 1485q31 0 48.5 -25t17.5 -70.5t-17.5 -71.5t-48.5 -26q-63 0 -63 96.5t63 96.5zM281 1087v-1298q0 -135 -63.5 -208t-180.5 -73q-81 0 -134 25v86q69 -20 128 -20q151 0 151 176v1312h99z" />
<glyph unicode="k" horiz-adv-x="990" d="M281 0h-99v1556h99v-780l-7 -299h5l555 610h120l-428 -464l464 -623h-118l-413 549l-178 -162v-387z" />
<glyph unicode="l" horiz-adv-x="463" d="M281 0h-99v1556h99v-1556z" />
<glyph unicode="m" horiz-adv-x="1808" d="M1282 1108q180 0 268 -96.5t88 -300.5v-711h-98v713q0 158 -61.5 231.5t-190.5 73.5q-168 0 -247.5 -92t-79.5 -289v-637h-101v743q0 275 -252 275q-171 0 -249 -99.5t-78 -318.5v-600h-99v1087h82l21 -149h6q45 80 127.5 125t183.5 45q257 0 330 -193h4q53 93 142.5 143 t203.5 50z" />
<glyph unicode="n" horiz-adv-x="1208" d="M668 1108q370 0 370 -397v-711h-98v705q0 163 -68.5 238t-214.5 75q-193 0 -284.5 -98t-91.5 -320v-600h-99v1087h84l19 -149h6q107 170 377 170z" />
<glyph unicode="o" horiz-adv-x="1200" d="M118 545q0 265 129 414t353.5 149t352 -151t127.5 -414.5t-129 -413t-356 -149.5h-11q-207 0 -336.5 153t-129.5 397v15zM877 195q98 125 98 350.5t-99.5 349t-279 123.5t-277 -123.5t-97.5 -348t98 -351.5q99 -125 279 -125t278 125z" />
<glyph unicode="p" horiz-adv-x="1219" d="M649 1108q220 0 335.5 -144.5t115.5 -416t-121.5 -419.5t-331.5 -148q-250 0 -366 188h-7l3 -84q4 -65 4 -162v-414h-99v1579h84l19 -155h6q113 176 358 176zM281 573v-32q0 -255 85 -364t279 -109q167 0 258 124t91 347q0 479 -345 479q-189 0 -278.5 -104.5 t-89.5 -340.5z" />
<glyph unicode="q" horiz-adv-x="1219" d="M569 -20q-215 0 -332.5 143t-117.5 414t118 421t338 150q236 0 353 -174h6l18 153h84v-1579h-98v414q0 122 6 248h-6q-118 -190 -369 -190zM938 543v12q0 245 -85 354q-86 109 -266.5 109t-272 -124t-91.5 -358t89 -351t259 -117q198 0 282.5 109t84.5 366z" />
<glyph unicode="r" horiz-adv-x="797" d="M610 1108q66 0 148 -14l-19 -96q-67 18 -141 18q-139 0 -228 -118.5t-89 -297.5v-600h-99v1087h84l10 -196h7q69 122 143 168q76 49 184 49z" />
<glyph unicode="s" horiz-adv-x="954" d="M84 154q160 -82 332 -82t257 52.5t85 139.5t-67 142.5t-223 111t-224 99.5t-100.5 98t-32.5 129q0 121 102 193q104 71 283.5 71t337.5 -66l-37 -90q-164 66 -297 66t-211 -44t-78 -125.5t60.5 -132.5t221.5 -108.5t229 -101.5q134 -84 134 -226.5t-111 -221 t-322.5 -78.5t-338.5 67v107z" />
<glyph unicode="t" horiz-adv-x="686" d="M287 1087h319v-86h-319v-688q0 -125 44 -185t139 -60t163 16v-80q-72 -24 -166 -24q-144 0 -212.5 77t-68.5 242v702h-161v58l161 45l50 246h51v-263z" />
<glyph unicode="u" horiz-adv-x="1208" d="M1026 0h-84l-18 150h-6q-107 -170 -377 -170q-371 0 -371 397v710h98v-704q0 -163 68.5 -238t214.5 -75q193 0 285 98t92 319v600h98v-1087z" />
<glyph unicode="v" horiz-adv-x="940" d="M520 0h-100l-420 1087h102l281 -739q57 -146 84 -249h6q39 134 84 251l281 737h102z" />
<glyph unicode="w" horiz-adv-x="1481" d="M1155 0h-104l-238 727q-24 78 -59 217h-6l-21 -74l-45 -145l-242 -725h-98l-311 1087h106l174 -630q58 -221 80 -344h6q58 231 86 311l224 663h90l213 -661q71 -232 88 -311h6q7 61 80 348l166 624h100z" />
<glyph unicode="x" horiz-adv-x="1020" d="M565 559l400 -559h-115l-342 485l-344 -485h-109l394 559l-379 528h114l324 -458l321 458h109z" />
<glyph unicode="y" horiz-adv-x="940" d="M131 -492q-57 0 -127 21v86q57 -16 125 -16q100 0 160 99q33 52 73 160l54 142l-416 1087h102l230 -610q102 -273 133 -380h6q36 112 137 386l230 604h102l-487 -1263q-58 -153 -99 -208q-80 -108 -223 -108z" />
<glyph unicode="z" horiz-adv-x="944" d="M858 88v-88h-776v63l645 935h-598v89h727v-63l-649 -936h651z" />
<glyph unicode="{" horiz-adv-x="723" d="M389 1157v-305q0 -129 -43.5 -193.5t-142.5 -85.5v-8q97 -20 141.5 -84t44.5 -186v-322q0 -104 60.5 -153.5t201.5 -52.5v-91q-195 0 -278 75q-82 75 -82 231v337q0 204 -230 209v80q121 2 175.5 50.5t54.5 148.5v350q0 299 360 305v-90q-137 -5 -199.5 -57.5 t-62.5 -157.5z" />
<glyph unicode="|" horiz-adv-x="1108" d="M600 -506h-92v2067h92v-2067z" />
<glyph unicode="}" horiz-adv-x="723" d="M72 1462q175 0 267.5 -78t92.5 -227v-350q0 -100 55 -148.5t175 -50.5v-80q-230 -5 -230 -209v-337q0 -155 -82.5 -230.5t-277.5 -75.5v91q139 2 200.5 52t61.5 154v322q0 122 44.5 186t141.5 84v8q-98 21 -142 85t-44 194v305q0 104 -62.5 157t-199.5 58v90z" />
<glyph unicode="~" d="M344 829q59 0 114.5 -14t155.5 -57q125 -58 220 -58q55 0 108 30t117 95v-96q-113 -113 -231 -113t-273 72q-124 57 -221 57q-50 0 -109 -31t-114 -89v94q108 110 233 110z" />
<glyph unicode="&#xa1;" horiz-adv-x="492" d="M246 1108q82 0 82 -98.5t-82 -98.5q-36 0 -58 24t-22 75q0 98 80 98zM305 -375h-119l29 1086h61z" />
<glyph unicode="&#xa2;" d="M684 1317h14q133 0 274 -55l-30 -84q-134 51 -237 51q-188 0 -289 -123t-101 -353.5t100 -354.5t281 -124q132 0 267 58v-92q-110 -56 -267 -56h-12v-204h-82v210q-186 30 -289 175q-102 145 -102 379t103 383t288 182v174h82v-166z" />
<glyph unicode="&#xa3;" d="M311 758v297q0 204 98 315t276.5 111t334.5 -68l-36 -86q-156 66 -295.5 66t-208 -81.5t-68.5 -252.5v-301h411v-82h-411v-256q0 -118 -35.5 -197.5t-112.5 -127.5h809v-95h-995v84q110 21 171.5 110t61.5 224v258h-212v82h212z" />
<glyph unicode="&#xa5;" d="M974 674v-82h-337v-205h337v-82h-337v-305h-105v305h-337v82h337v205h-337v82h278l-430 788h117l426 -796l428 796h110l-432 -788h282z" />
<glyph unicode="&#xa6;" horiz-adv-x="1108" d="M600 797h-92v764h92v-764zM600 -506h-92v764h92v-764z" />
<glyph unicode="&#xa7;" horiz-adv-x="1057" d="M129 158q181 -78 337 -78t241.5 49.5t85.5 140.5q-3 60 -35 100q-33 41 -269 132q-200 74 -272 141q-72 69 -72 170q0 83 50.5 152.5t138.5 107.5q-87 48 -125.5 103t-38.5 135q0 117 101 183.5t277 66.5t335 -64l-35 -80q-86 32 -155 46t-148 14q-132 0 -204.5 -44 t-72.5 -120q0 -55 24.5 -88t82.5 -63.5t192 -76.5q190 -64 263 -132.5t73 -170.5q0 -174 -186 -274q89 -43 130.5 -97.5t41.5 -134.5q0 -134 -112.5 -207t-301.5 -73t-346 67v95zM295 952.5q-49 -56.5 -49 -125t31 -106.5t104 -74t252 -100q82 41 126 98t44 119.5t-31 102 t-110 78.5q-79 37 -236 87q-82 -23 -131 -79.5z" />
<glyph unicode="&#xa8;" horiz-adv-x="1182" d="M399 1475q64 0 64 -86t-63.5 -86t-63.5 86q0 45 15 65.5t48 20.5zM780 1475q64 0 64 -86t-63.5 -86t-63.5 86q0 45 15 65.5t48 20.5z" />
<glyph unicode="&#xa9;" horiz-adv-x="1704" d="M470 83q-175 103 -273 276.5t-98 371t101 374.5t276 277.5t375.5 100.5t376 -100.5t276 -276.5t100.5 -374.5t-98 -372t-272.5 -276.5t-381.5 -103t-382 103zM1425 1056q-86 152 -239.5 243.5t-331 91.5t-331.5 -89.5t-242 -243t-88 -330t88 -327.5t240.5 -240t330.5 -89 t329.5 88.5t240.5 240.5t89 327.5t-86 327.5zM879 279q-187 0 -288.5 115.5t-101.5 326t111 336t297 125.5q120 0 227 -52l-37 -83q-98 45 -190 45q-142 0 -222.5 -95t-80.5 -264q0 -364 295 -364q85 0 198 43v-88q-102 -45 -208 -45z" />
<glyph unicode="&#xab;" horiz-adv-x="885" d="M453 893l-254 -363l254 -362l-62 -43l-309 391v27l309 393zM813 893l-254 -363l254 -362l-61 -43l-310 391v27l310 393z" />
<glyph unicode="&#xac;" d="M1038 270h-82v412h-845v82h927v-494z" />
<glyph unicode="&#xad;" horiz-adv-x="659" d="M567 512h-475v82h475v-82z" />
<glyph unicode="&#xae;" horiz-adv-x="1704" d="M470 83q-175 103 -273 276.5t-98 371t101 374.5t276 277.5t375.5 100.5t376 -100.5t276 -276.5t100.5 -374.5t-98 -372t-272.5 -276.5t-381.5 -103t-382 103zM1425 1056q-86 152 -239.5 243.5t-331 91.5t-331.5 -89.5t-242 -243t-88 -330t88 -327.5t240.5 -240t330.5 -89 t329.5 88.5t240.5 240.5t89 327.5t-86 327.5zM608 1171h211q146 0 223.5 -63t77.5 -190q0 -79 -38.5 -139.5t-111.5 -94.5l238 -393h-121l-210 360h-168v-360h-101v880zM709 1085v-354h112q92 0 143.5 47t51.5 135q0 172 -197 172h-110z" />
<glyph unicode="&#xaf;" horiz-adv-x="1024" d="M1030 1556h-1036v82h1036v-82z" />
<glyph unicode="&#xb0;" horiz-adv-x="877" d="M438 1483q126 0 212.5 -83.5t86.5 -215.5t-87 -217q-87 -82 -213.5 -82t-213.5 82q-84 84 -84 216.5t86.5 216t212.5 83.5zM288 1337q-59 -65 -59 -155t60.5 -152.5t147.5 -62.5t148.5 62t61.5 154.5t-60 155t-149.5 62.5t-149.5 -64z" />
<glyph unicode="&#xb1;" d="M625 764h434v-82h-434v-432h-82v432h-432v82h432v434h82v-434zM1059 0h-948v83h948v-83z" />
<glyph unicode="&#xb2;" horiz-adv-x="688" d="M348 1483q124 0 194 -63.5t70 -174.5q0 -88 -53 -175q-26 -42 -68 -89t-309 -307h447v-88h-576v78l242 237q125 121 172 193.5t47 146t-46 115t-124 41.5q-108 0 -217 -82l-49 65q118 103 270 103z" />
<glyph unicode="&#xb3;" horiz-adv-x="688" d="M344 1483q126 0 199 -60t73 -163q0 -77 -43.5 -131t-117.5 -76q186 -45 186 -211q0 -130 -88.5 -201.5t-240 -71.5t-271.5 60v88q138 -62 259 -62t181 48.5t60 134t-59 124.5t-179 39h-131v84h135q104 0 157.5 43t53.5 115.5t-47 113t-127 40.5q-127 0 -247 -78l-46 70 q130 94 293 94z" />
<glyph unicode="&#xb4;" horiz-adv-x="1182" d="M776 1569v-17q-36 -52 -123 -138.5t-190 -172.5h-70v16q72 78 143.5 170.5t98.5 141.5h141z" />
<glyph unicode="&#xb6;" horiz-adv-x="1341" d="M1106 -260h-100v1722h-228v-1722h-100v819q-64 -18 -146 -18q-215 0 -317 124t-102 381t109.5 383.5t340.5 126.5h543v-1816z" />
<glyph unicode="&#xb7;" horiz-adv-x="487" d="M242 819q82 0 82 -98t-82 -98q-80 0 -80 98t80 98z" />
<glyph unicode="&#xb8;" horiz-adv-x="420" d="M393 -291q0 -99 -67 -150t-189 -51q-67 0 -94 11v88q29 -10 99.5 -10t111.5 28t41 80q0 94 -193 121l93 174h96l-66 -117q168 -37 168 -174z" />
<glyph unicode="&#xb9;" horiz-adv-x="688" d="M442 586h-98v547q0 99 12 233q-28 -25 -233 -145l-47 77l274 164h92v-876z" />
<glyph unicode="&#xbb;" horiz-adv-x="885" d="M442 545v-27l-309 -393l-61 43l254 362l-254 363l61 43zM803 545v-27l-309 -393l-62 43l254 362l-254 363l62 43z" />
<glyph unicode="&#xbc;" horiz-adv-x="1516" d="M425 586h-98v547q0 99 12 233q-28 -25 -233 -145l-47 77l274 164h92v-876zM337 0h-94l811 1462h94zM1263 320h129v-78h-129v-242h-90v242h-413v60l407 581h96v-563zM1173 320v221q0 125 8 232q-7 -15 -26 -42.5t-291 -410.5h309z" />
<glyph unicode="&#xbd;" horiz-adv-x="1516" d="M377 586h-98v547q0 99 12 233q-28 -25 -233 -145l-47 77l274 164h92v-876zM262 0h-94l810 1462h95zM1122 898q124 0 194 -63.5t70 -174.5q0 -130 -122 -265q-38 -43 -308 -306h447v-89h-576v79l242 237q128 125 173.5 195.5t45.5 144t-46 115t-124 41.5q-110 0 -217 -82 l-49 65q118 103 270 103z" />
<glyph unicode="&#xbe;" horiz-adv-x="1516" d="M344 1483q126 0 199 -60t73 -163q0 -77 -43.5 -131t-117.5 -76q186 -45 186 -211q0 -130 -88.5 -201.5t-240 -71.5t-271.5 60v88q138 -62 259 -62t181 48.5t60 134t-59 124.5t-179 39h-131v84h135q104 0 157.5 43t53.5 115.5t-47 113t-127 40.5q-127 0 -247 -78l-46 70 q130 94 293 94zM489 0h-94l811 1462h94zM1366 320h129v-78h-129v-242h-90v242h-413v60l407 581h96v-563zM1276 320v221q0 125 8 232q-7 -15 -26 -42.5t-291 -410.5h309z" />
<glyph unicode="&#xbf;" horiz-adv-x="862" d="M520 1108q82 0 82 -98.5t-82 -98.5q-36 0 -58 24t-22 75q0 98 80 98zM569 711v-37q0 -126 -39.5 -205t-136.5 -164l-90 -79q-73 -61 -104 -120.5t-31 -138.5q0 -124 82 -200t214.5 -76t239.5 46l64 27l37 -79q-109 -47 -183 -63.5t-155 -16.5q-184 0 -289 99 q-104 99 -104 269q0 68 19.5 122t58.5 104q40 49 172 159q119 98 148 192q15 49 15 146v15h82z" />
<glyph unicode="&#xc0;" horiz-adv-x="1229" d="M337 1907h142q26 -48 99 -142.5t142 -169.5v-16h-69q-94 77 -187 169.5t-127 141.5v17zM1229 0h-115l-203 516h-594l-204 -516h-113l588 1468h65zM877 608l-199 527q-24 58 -60 172q-26 -92 -59 -174l-205 -525h523z" />
<glyph unicode="&#xc1;" horiz-adv-x="1229" d="M887 1907v-17q-36 -52 -123 -138.5t-190 -172.5h-70v16q72 78 143.5 170.5t98.5 141.5h141zM1229 0h-115l-203 516h-594l-204 -516h-113l588 1468h65zM877 608l-199 527q-24 58 -60 172q-26 -92 -59 -174l-205 -525h523z" />
<glyph unicode="&#xc2;" horiz-adv-x="1229" d="M910 1579h-70q-124 102 -221 207q-106 -112 -221 -207h-70v16q62 67 131.5 156t110.5 156h98q67 -119 242 -312v-16zM1229 0h-115l-203 516h-594l-204 -516h-113l588 1468h65zM877 608l-199 527q-24 58 -60 172q-26 -92 -59 -174l-205 -525h523z" />
<glyph unicode="&#xc3;" horiz-adv-x="1229" d="M784 1581q-38 0 -77 19.5t-82.5 56t-59.5 47.5q-45 33 -86.5 33t-71 -35.5t-47.5 -120.5h-73q10 111 63 174.5t137 63.5q30 0 61.5 -13t52 -27.5t53 -41t48.5 -39.5q47 -35 82 -35q93 0 125 156h76q-16 -115 -68.5 -176.5t-132.5 -61.5zM1229 0h-115l-203 516h-594 l-204 -516h-113l588 1468h65zM877 608l-199 527q-24 58 -60 172q-26 -92 -59 -174l-205 -525h523z" />
<glyph unicode="&#xc4;" horiz-adv-x="1229" d="M430 1813q64 0 64 -86t-63.5 -86t-63.5 86q0 45 15 65.5t48 20.5zM811 1813q64 0 64 -86t-63.5 -86t-63.5 86q0 45 15 65.5t48 20.5zM1229 0h-115l-203 516h-594l-204 -516h-113l588 1468h65zM877 608l-199 527q-24 58 -60 172q-26 -92 -59 -174l-205 -525h523z" />
<glyph unicode="&#xc5;" horiz-adv-x="1229" d="M445 1474q-43 55 -43 142.5t60 146t156.5 58.5t157 -59t60.5 -145.5t-42.5 -141.5t-115.5 -72l551 -1403h-115l-203 516h-594l-204 -516h-113l562 1403q-74 16 -117 71zM519.5 1711q-37.5 -38 -37.5 -102.5t37 -102t100 -37.5t100 37.5t37 102t-38.5 102.5t-99.5 38 t-98.5 -38zM877 608l-199 527q-24 58 -60 172q-26 -92 -59 -174l-205 -525h523z" />
<glyph unicode="&#xc6;" horiz-adv-x="1653" d="M1528 1368h-615v-553h576v-94h-576v-627h615v-94h-717v516h-475l-227 -516h-111l653 1462h877v-94zM811 608v760h-100l-334 -760h434z" />
<glyph unicode="&#xc7;" horiz-adv-x="1272" d="M831 1391q-275 0 -433 -176t-158 -486t149.5 -482.5t425.5 -172.5q182 0 338 47v-90q-143 -50 -355 -51l-55 -97q168 -37 168 -174q0 -99 -67 -150t-189 -51q-67 0 -94 11v88q29 -10 99.5 -10t111.5 28t41 80q0 94 -193 121l85 158q-271 28 -423.5 224.5t-152.5 526.5 q0 223 84.5 393t243 262.5t369.5 92.5t382 -80l-41 -92q-162 80 -336 80z" />
<glyph unicode="&#xc8;" horiz-adv-x="1130" d="M314 1907h142q26 -48 99 -142.5t142 -169.5v-16h-69q-94 77 -187 169.5t-127 141.5v17zM1006 1368h-697v-553h658v-94h-658v-627h697v-94h-799v1462h799v-94z" />
<glyph unicode="&#xc9;" horiz-adv-x="1130" d="M846 1907v-17q-36 -52 -123 -138.5t-190 -172.5h-70v16q72 78 143.5 170.5t98.5 141.5h141zM1006 1368h-697v-553h658v-94h-658v-627h697v-94h-799v1462h799v-94z" />
<glyph unicode="&#xca;" horiz-adv-x="1130" d="M897 1579h-70q-124 102 -221 207q-106 -112 -221 -207h-70v16q62 67 131.5 156t110.5 156h98q67 -119 242 -312v-16zM1006 1368h-697v-553h658v-94h-658v-627h697v-94h-799v1462h799v-94z" />
<glyph unicode="&#xcb;" horiz-adv-x="1130" d="M417 1813q64 0 64 -86t-63.5 -86t-63.5 86q0 45 15 65.5t48 20.5zM798 1813q64 0 64 -86t-63.5 -86t-63.5 86q0 45 15 65.5t48 20.5zM1006 1368h-697v-553h658v-94h-658v-627h697v-94h-799v1462h799v-94z" />
<glyph unicode="&#xcc;" horiz-adv-x="516" d="M-63 1907h142q26 -48 99 -142.5t142 -169.5v-16h-69q-94 77 -187 169.5t-127 141.5v17zM309 0h-102v1462h102v-1462z" />
<glyph unicode="&#xcd;" horiz-adv-x="516" d="M574 1907v-17q-36 -52 -123 -138.5t-190 -172.5h-70v16q72 78 143.5 170.5t98.5 141.5h141zM309 0h-102v1462h102v-1462z" />
<glyph unicode="&#xce;" horiz-adv-x="516" d="M550 1579h-70q-124 102 -221 207q-106 -112 -221 -207h-70v16q62 67 131.5 156t110.5 156h98q67 -119 242 -312v-16zM309 0h-102v1462h102v-1462z" />
<glyph unicode="&#xcf;" horiz-adv-x="516" d="M68 1813q64 0 64 -86t-63.5 -86t-63.5 86q0 45 15 65.5t48 20.5zM449 1813q64 0 64 -86t-63.5 -86t-63.5 86q0 45 15 65.5t48 20.5zM309 0h-102v1462h102v-1462z" />
<glyph unicode="&#xd0;" horiz-adv-x="1466" d="M207 1462h395q350 0 532.5 -183t182.5 -542.5t-192.5 -548t-567.5 -188.5h-350v678h-160v94h160v690zM309 1372v-600h406v-94h-406v-588h242q655 0 655 651q0 313 -159 472t-469 159h-269z" />
<glyph unicode="&#xd1;" horiz-adv-x="1477" d="M897 1581q-38 0 -77 19.5t-82.5 56t-59.5 47.5q-45 33 -86.5 33t-71 -35.5t-47.5 -120.5h-73q10 111 63 174.5t137 63.5q30 0 61.5 -13t52 -27.5t53 -41t49.5 -39.5q46 -35 81 -35q93 0 125 156h76q-16 -115 -68.5 -176.5t-132.5 -61.5zM1270 0h-103l-866 1298h-8 q12 -232 12 -350v-948h-98v1462h102l865 -1296h6q-9 180 -9 342v954h99v-1462z" />
<glyph unicode="&#xd2;" horiz-adv-x="1565" d="M502 1907h142q26 -48 99 -142.5t142 -169.5v-16h-69q-94 77 -187 169.5t-127 141.5v17zM304.5 1284.5q175.5 200.5 480 200.5t478 -201t173.5 -550.5t-174.5 -551.5t-479.5 -202t-479 202t-174 552t175.5 550.5zM1185.5 1217.5q-139.5 168.5 -401 168.5t-403 -170 t-141.5 -484t140.5 -485t403 -171t402 169.5t139.5 486.5t-139.5 485.5z" />
<glyph unicode="&#xd3;" horiz-adv-x="1565" d="M1069 1907v-17q-36 -52 -123 -138.5t-190 -172.5h-70v16q72 78 143.5 170.5t98.5 141.5h141zM304.5 1284.5q175.5 200.5 480 200.5t478 -201t173.5 -550.5t-174.5 -551.5t-479.5 -202t-479 202t-174 552t175.5 550.5zM1185.5 1217.5q-139.5 168.5 -401 168.5t-403 -170 t-141.5 -484t140.5 -485t403 -171t402 169.5t139.5 486.5t-139.5 485.5z" />
<glyph unicode="&#xd4;" horiz-adv-x="1565" d="M1074 1579h-70q-124 102 -221 207q-106 -112 -221 -207h-70v16q62 67 131.5 156t110.5 156h98q67 -119 242 -312v-16zM304.5 1284.5q175.5 200.5 480 200.5t478 -201t173.5 -550.5t-174.5 -551.5t-479.5 -202t-479 202t-174 552t175.5 550.5zM1185.5 1217.5 q-139.5 168.5 -401 168.5t-403 -170t-141.5 -484t140.5 -485t403 -171t402 169.5t139.5 486.5t-139.5 485.5z" />
<glyph unicode="&#xd5;" horiz-adv-x="1565" d="M940 1581q-38 0 -77 19.5t-82.5 56t-59.5 47.5q-45 33 -86.5 33t-71 -35.5t-47.5 -120.5h-73q10 111 63 174.5t137 63.5q30 0 61.5 -13t52 -27.5t53 -41t48.5 -39.5q47 -35 82 -35q93 0 125 156h76q-16 -115 -68.5 -176.5t-132.5 -61.5zM304.5 1284.5 q175.5 200.5 480 200.5t478 -201t173.5 -550.5t-174.5 -551.5t-479.5 -202t-479 202t-174 552t175.5 550.5zM1185.5 1217.5q-139.5 168.5 -401 168.5t-403 -170t-141.5 -484t140.5 -485t403 -171t402 169.5t139.5 486.5t-139.5 485.5z" />
<glyph unicode="&#xd6;" horiz-adv-x="1565" d="M592 1813q64 0 64 -86t-63.5 -86t-63.5 86q0 45 15 65.5t48 20.5zM973 1813q64 0 64 -86t-63.5 -86t-63.5 86q0 45 15 65.5t48 20.5zM304.5 1284.5q175.5 200.5 480 200.5t478 -201t173.5 -550.5t-174.5 -551.5t-479.5 -202t-479 202t-174 552t175.5 550.5z M1185.5 1217.5q-139.5 168.5 -401 168.5t-403 -170t-141.5 -484t140.5 -485t403 -171t402 169.5t139.5 486.5t-139.5 485.5z" />
<glyph unicode="&#xd7;" d="M1051 1130l-408 -407l406 -408l-59 -57l-406 408l-406 -408l-57 57l405 408l-407 407l57 58l408 -408l408 408z" />
<glyph unicode="&#xd8;" horiz-adv-x="1565" d="M1245 1303q191 -208 191 -563.5t-174.5 -557.5t-479.5 -202q-236 0 -395 120l-86 -120l-74 59l90 127q-188 200 -188 559t175.5 559.5t479.5 200.5q232 0 392 -121l108 152l72 -60zM784 1386q-261 0 -402.5 -170t-141.5 -483t139 -483l739 1034q-133 102 -334 102z M782 76q264 0 403.5 169.5t139.5 486.5t-139 487l-742 -1037q133 -106 338 -106z" />
<glyph unicode="&#xd9;" horiz-adv-x="1473" d="M450 1907h142q26 -48 99 -142.5t142 -169.5v-16h-69q-94 77 -187 169.5t-127 141.5v17zM1282 1462v-946q0 -252 -146 -394t-403.5 -142t-400 142.5t-142.5 397.5v942h103v-946q0 -211 117.5 -328.5t328.5 -117.5t326 115t115 321v956h102z" />
<glyph unicode="&#xda;" horiz-adv-x="1473" d="M1016 1907v-17q-36 -52 -123 -138.5t-190 -172.5h-70v16q72 78 143.5 170.5t98.5 141.5h141zM1282 1462v-946q0 -252 -146 -394t-403.5 -142t-400 142.5t-142.5 397.5v942h103v-946q0 -211 117.5 -328.5t328.5 -117.5t326 115t115 321v956h102z" />
<glyph unicode="&#xdb;" horiz-adv-x="1473" d="M1026 1579h-70q-124 102 -221 207q-106 -112 -221 -207h-70v16q62 67 131.5 156t110.5 156h98q67 -119 242 -312v-16zM1282 1462v-946q0 -252 -146 -394t-403.5 -142t-400 142.5t-142.5 397.5v942h103v-946q0 -211 117.5 -328.5t328.5 -117.5t326 115t115 321v956h102z " />
<glyph unicode="&#xdc;" horiz-adv-x="1473" d="M544 1813q64 0 64 -86t-63.5 -86t-63.5 86q0 45 15 65.5t48 20.5zM925 1813q64 0 64 -86t-63.5 -86t-63.5 86q0 45 15 65.5t48 20.5zM1282 1462v-946q0 -252 -146 -394t-403.5 -142t-400 142.5t-142.5 397.5v942h103v-946q0 -211 117.5 -328.5t328.5 -117.5t326 115 t115 321v956h102z" />
<glyph unicode="&#xdd;" horiz-adv-x="1081" d="M817 1907v-17q-36 -52 -123 -138.5t-190 -172.5h-70v16q72 78 143.5 170.5t98.5 141.5h141zM594 0h-105v557l-489 905h117l426 -800l428 800h110l-487 -897v-565z" />
<glyph unicode="&#xde;" horiz-adv-x="1198" d="M309 1198h256q522 0 522 -420q0 -212 -143.5 -325t-408.5 -113h-226v-340h-102v1462h102v-264zM309 1106v-678h201q247 0 357 81.5t110 257.5t-104 257.5t-322 81.5h-242z" />
<glyph unicode="&#xdf;" horiz-adv-x="1194" d="M182 0v1206q0 173 103.5 267t292 94t286 -72.5t97.5 -211t-139 -249.5q-83 -66 -111.5 -102t-28.5 -76t14 -64q27 -48 142 -129t162 -130.5t69.5 -103.5t22.5 -122q0 -156 -87.5 -241.5t-246.5 -85.5q-195 0 -301 67v107q65 -38 148.5 -62t152.5 -24q114 0 174.5 55 t60.5 160q0 85 -40 145.5t-159 142t-165.5 141.5t-46.5 144q0 60 32 110t107 107.5t107 106.5t32 106q0 93 -70 143t-208.5 50t-219.5 -69.5t-81 -195.5v-1214h-99z" />
<glyph unicode="&#xe0;" horiz-adv-x="1085" d="M255 1569h142q26 -48 99 -142.5t142 -169.5v-16h-69q-94 77 -187 169.5t-127 141.5v17zM205 1022q179 84 356.5 84t265.5 -93.5t88 -289.5v-723h-73l-25 172h-8q-81 -104 -167.5 -148t-205.5 -44q-159 0 -248.5 82t-89.5 227q0 159 132.5 247t383.5 93l207 6v72 q0 158 -64 235.5t-208.5 77.5t-306.5 -84zM203 285q0 -102 62.5 -158.5t176.5 -56.5q175 0 275 100t100 276v107l-190 -8q-228 -11 -326 -71.5t-98 -188.5z" />
<glyph unicode="&#xe1;" horiz-adv-x="1085" d="M805 1569v-17q-36 -52 -123 -138.5t-190 -172.5h-70v16q72 78 143.5 170.5t98.5 141.5h141zM205 1022q179 84 356.5 84t265.5 -93.5t88 -289.5v-723h-73l-25 172h-8q-81 -104 -167.5 -148t-205.5 -44q-159 0 -248.5 82t-89.5 227q0 159 132.5 247t383.5 93l207 6v72 q0 158 -64 235.5t-208.5 77.5t-306.5 -84zM203 285q0 -102 62.5 -158.5t176.5 -56.5q175 0 275 100t100 276v107l-190 -8q-228 -11 -326 -71.5t-98 -188.5z" />
<glyph unicode="&#xe2;" horiz-adv-x="1085" d="M833 1241h-70q-124 102 -221 207q-106 -112 -221 -207h-70v16q62 67 131.5 156t110.5 156h98q67 -119 242 -312v-16zM205 1022q179 84 356.5 84t265.5 -93.5t88 -289.5v-723h-73l-25 172h-8q-81 -104 -167.5 -148t-205.5 -44q-159 0 -248.5 82t-89.5 227q0 159 132.5 247 t383.5 93l207 6v72q0 158 -64 235.5t-208.5 77.5t-306.5 -84zM203 285q0 -102 62.5 -158.5t176.5 -56.5q175 0 275 100t100 276v107l-190 -8q-228 -11 -326 -71.5t-98 -188.5z" />
<glyph unicode="&#xe3;" horiz-adv-x="1085" d="M697 1243q-38 0 -77 19.5t-82.5 56t-59.5 47.5q-45 33 -86.5 33t-71 -35.5t-47.5 -120.5h-73q10 111 63 174.5t137 63.5q30 0 61.5 -13t52 -27.5t53 -41t49.5 -39.5q46 -35 81 -35q93 0 125 156h76q-16 -115 -68.5 -176.5t-132.5 -61.5zM205 1022q179 84 356.5 84 t265.5 -93.5t88 -289.5v-723h-73l-25 172h-8q-81 -104 -167.5 -148t-205.5 -44q-159 0 -248.5 82t-89.5 227q0 159 132.5 247t383.5 93l207 6v72q0 158 -64 235.5t-208.5 77.5t-306.5 -84zM203 285q0 -102 62.5 -158.5t176.5 -56.5q175 0 275 100t100 276v107l-190 -8 q-228 -11 -326 -71.5t-98 -188.5z" />
<glyph unicode="&#xe4;" horiz-adv-x="1085" d="M345 1475q64 0 64 -86t-63.5 -86t-63.5 86q0 45 15 65.5t48 20.5zM726 1475q64 0 64 -86t-63.5 -86t-63.5 86q0 45 15 65.5t48 20.5zM205 1022q179 84 356.5 84t265.5 -93.5t88 -289.5v-723h-73l-25 172h-8q-81 -104 -167.5 -148t-205.5 -44q-159 0 -248.5 82t-89.5 227 q0 159 132.5 247t383.5 93l207 6v72q0 158 -64 235.5t-208.5 77.5t-306.5 -84zM203 285q0 -102 62.5 -158.5t176.5 -56.5q175 0 275 100t100 276v107l-190 -8q-228 -11 -326 -71.5t-98 -188.5z" />
<glyph unicode="&#xe5;" horiz-adv-x="1085" d="M385 1608.5q60 58.5 156.5 58.5t157 -59t60.5 -153.5t-60 -153t-157 -58.5t-157 58.5t-60 153.5t60 153.5zM640.5 1557q-38.5 38 -99.5 38t-98.5 -38t-37.5 -102.5t37 -102t100 -37.5t100 37.5t37 102t-38.5 102.5zM205 1022q179 84 356.5 84t265.5 -93.5t88 -289.5v-723 h-73l-25 172h-8q-81 -104 -167.5 -148t-205.5 -44q-159 0 -248.5 82t-89.5 227q0 159 132.5 247t383.5 93l207 6v72q0 158 -64 235.5t-208.5 77.5t-306.5 -84zM203 285q0 -102 62.5 -158.5t176.5 -56.5q175 0 275 100t100 276v107l-190 -8q-228 -11 -326 -71.5t-98 -188.5z " />
<glyph unicode="&#xe6;" horiz-adv-x="1731" d="M545 1106q261 0 325 -211q111 213 347 213q183 0 289 -134.5t106 -363.5v-80h-715q0 -460 348 -460q90 0 155 13t169 56v-90q-89 -40 -161.5 -54.5t-164.5 -14.5q-295 0 -397 256q-69 -133 -168.5 -194.5t-253 -61.5t-240 82t-86.5 232.5t126.5 238.5t375.5 96l201 6v72 q0 158 -62.5 235.5t-203.5 77.5t-299 -84l-37 86q172 84 346 84zM1507 618q0 188 -77.5 295t-212.5 107q-284 0 -314 -402h604zM203 285q0 -102 61 -158.5t170 -56.5q169 0 266 100t97 276v107l-187 -8q-219 -11 -313 -71.5t-94 -188.5z" />
<glyph unicode="&#xe7;" horiz-adv-x="973" d="M629 1018q-199 0 -302.5 -123t-103.5 -349.5t103 -351t288 -124.5q146 0 275 53v-92q-103 -51 -273 -51h-6l-55 -97q168 -37 168 -174q0 -99 -67 -150t-189 -51q-67 0 -94 11v88q29 -10 99.5 -10t111.5 28t41 80q0 94 -193 121l86 161q-190 30 -294.5 173.5t-104.5 376.5 q0 269 136.5 420t375.5 151q142 0 270 -49l-27 -88q-143 47 -245 47z" />
<glyph unicode="&#xe8;" horiz-adv-x="1124" d="M302 1569h142q26 -48 99 -142.5t142 -169.5v-16h-69q-94 77 -187 169.5t-127 141.5v17zM621 -20q-237 0 -369.5 146t-132.5 408t128.5 418t344.5 156q192 0 303 -134t111 -364v-80h-783q2 -224 104.5 -342t293.5 -118q96 0 166.5 13.5t175.5 55.5v-90q-90 -39 -167.5 -54 t-174.5 -15zM901 618q0 189 -82 295.5t-233.5 106.5t-246 -104t-110.5 -298h672z" />
<glyph unicode="&#xe9;" horiz-adv-x="1124" d="M835 1569v-17q-36 -52 -123 -138.5t-190 -172.5h-70v16q72 78 143.5 170.5t98.5 141.5h141zM621 -20q-237 0 -369.5 146t-132.5 408t128.5 418t344.5 156q192 0 303 -134t111 -364v-80h-783q2 -224 104.5 -342t293.5 -118q96 0 166.5 13.5t175.5 55.5v-90 q-90 -39 -167.5 -54t-174.5 -15zM901 618q0 189 -82 295.5t-233.5 106.5t-246 -104t-110.5 -298h672z" />
<glyph unicode="&#xea;" horiz-adv-x="1124" d="M872 1241h-70q-124 102 -221 207q-106 -112 -221 -207h-70v16q62 67 131.5 156t110.5 156h98q67 -119 242 -312v-16zM621 -20q-237 0 -369.5 146t-132.5 408t128.5 418t344.5 156q192 0 303 -134t111 -364v-80h-783q2 -224 104.5 -342t293.5 -118q96 0 166.5 13.5 t175.5 55.5v-90q-90 -39 -167.5 -54t-174.5 -15zM901 618q0 189 -82 295.5t-233.5 106.5t-246 -104t-110.5 -298h672z" />
<glyph unicode="&#xeb;" horiz-adv-x="1124" d="M394 1475q64 0 64 -86t-63.5 -86t-63.5 86q0 45 15 65.5t48 20.5zM775 1475q64 0 64 -86t-63.5 -86t-63.5 86q0 45 15 65.5t48 20.5zM621 -20q-237 0 -369.5 146t-132.5 408t128.5 418t344.5 156q192 0 303 -134t111 -364v-80h-783q2 -224 104.5 -342t293.5 -118 q96 0 166.5 13.5t175.5 55.5v-90q-90 -39 -167.5 -54t-174.5 -15zM901 618q0 189 -82 295.5t-233.5 106.5t-246 -104t-110.5 -298h672z" />
<glyph unicode="&#xec;" horiz-adv-x="463" d="M-34 1569h142q26 -48 99 -142.5t142 -169.5v-16h-69q-94 77 -187 169.5t-127 141.5v17zM281 0h-99v1087h99v-1087z" />
<glyph unicode="&#xed;" horiz-adv-x="463" d="M490 1569v-17q-36 -52 -123 -138.5t-190 -172.5h-70v16q72 78 143.5 170.5t98.5 141.5h141zM281 0h-99v1087h99v-1087z" />
<glyph unicode="&#xee;" horiz-adv-x="463" d="M524 1241h-70q-124 102 -221 207q-106 -112 -221 -207h-70v16q62 67 131.5 156t110.5 156h98q67 -119 242 -312v-16zM281 0h-99v1087h99v-1087z" />
<glyph unicode="&#xef;" horiz-adv-x="463" d="M42 1475q64 0 64 -86t-63.5 -86t-63.5 86q0 45 15 65.5t48 20.5zM423 1475q64 0 64 -86t-63.5 -86t-63.5 86q0 45 15 65.5t48 20.5zM281 0h-99v1087h99v-1087z" />
<glyph unicode="&#xf0;" horiz-adv-x="1174" d="M1055 559q0 -276 -124 -427.5t-344 -151.5t-345 130.5t-125 359t126 358.5t343 130q105 0 185 -32t151 -97l4 2q-65 271 -269 459l-270 -157l-49 77l244 146q-85 61 -199 119l45 81q150 -70 248 -145l225 137l49 -84l-202 -121q152 -149 229.5 -350.5t77.5 -433.5z M853 785.5q-97 82.5 -275 82.5q-357 0 -357 -405q0 -187 95 -290t271.5 -103t269.5 123.5t93 363.5q0 146 -97 228.5z" />
<glyph unicode="&#xf1;" horiz-adv-x="1208" d="M779 1243q-38 0 -77 19.5t-82.5 56t-59.5 47.5q-45 33 -86.5 33t-71 -35.5t-47.5 -120.5h-73q10 111 63 174.5t137 63.5q30 0 61.5 -13t52 -27.5t53 -41t49.5 -39.5q46 -35 81 -35q93 0 125 156h76q-16 -115 -68.5 -176.5t-132.5 -61.5zM668 1108q370 0 370 -397v-711 h-98v705q0 163 -68.5 238t-214.5 75q-196 0 -286 -99t-90 -319v-600h-99v1087h84l19 -149h6q107 170 377 170z" />
<glyph unicode="&#xf2;" horiz-adv-x="1200" d="M335 1569h142q26 -48 99 -142.5t142 -169.5v-16h-69q-94 77 -187 169.5t-127 141.5v17zM247.5 959q128.5 149 353.5 149t352.5 -150.5t127.5 -414.5t-128.5 -413.5t-356.5 -149.5q-144 0 -252.5 69t-166.5 197.5t-58 298.5q0 265 128.5 414zM598 1018 q-180 0 -277.5 -123.5t-97.5 -349t98.5 -350.5t278.5 -125t278.5 125t98.5 350t-99.5 349t-279.5 124z" />
<glyph unicode="&#xf3;" horiz-adv-x="1200" d="M882 1569v-17q-36 -52 -123 -138.5t-190 -172.5h-70v16q72 78 143.5 170.5t98.5 141.5h141zM247.5 959q128.5 149 353.5 149t352.5 -150.5t127.5 -414.5t-128.5 -413.5t-356.5 -149.5q-144 0 -252.5 69t-166.5 197.5t-58 298.5q0 265 128.5 414zM598 1018 q-180 0 -277.5 -123.5t-97.5 -349t98.5 -350.5t278.5 -125t278.5 125t98.5 350t-99.5 349t-279.5 124z" />
<glyph unicode="&#xf4;" horiz-adv-x="1200" d="M891 1241h-70q-124 102 -221 207q-106 -112 -221 -207h-70v16q62 67 131.5 156t110.5 156h98q67 -119 242 -312v-16zM247.5 959q128.5 149 353.5 149t352.5 -150.5t127.5 -414.5t-128.5 -413.5t-356.5 -149.5q-144 0 -252.5 69t-166.5 197.5t-58 298.5q0 265 128.5 414z M598 1018q-180 0 -277.5 -123.5t-97.5 -349t98.5 -350.5t278.5 -125t278.5 125t98.5 350t-99.5 349t-279.5 124z" />
<glyph unicode="&#xf5;" horiz-adv-x="1200" d="M761 1243q-38 0 -77 19.5t-82.5 56t-59.5 47.5q-45 33 -86.5 33t-71 -35.5t-47.5 -120.5h-73q10 111 63 174.5t137 63.5q30 0 61.5 -13t52 -27.5t53 -41t49.5 -39.5q46 -35 81 -35q93 0 125 156h76q-16 -115 -68.5 -176.5t-132.5 -61.5zM247.5 959q128.5 149 353.5 149 t352.5 -150.5t127.5 -414.5t-128.5 -413.5t-356.5 -149.5q-144 0 -252.5 69t-166.5 197.5t-58 298.5q0 265 128.5 414zM598 1018q-180 0 -277.5 -123.5t-97.5 -349t98.5 -350.5t278.5 -125t278.5 125t98.5 350t-99.5 349t-279.5 124z" />
<glyph unicode="&#xf6;" horiz-adv-x="1200" d="M409 1475q64 0 64 -86t-63.5 -86t-63.5 86q0 45 15 65.5t48 20.5zM790 1475q64 0 64 -86t-63.5 -86t-63.5 86q0 45 15 65.5t48 20.5zM247.5 959q128.5 149 353.5 149t352.5 -150.5t127.5 -414.5t-128.5 -413.5t-356.5 -149.5q-144 0 -252.5 69t-166.5 197.5t-58 298.5 q0 265 128.5 414zM598 1018q-180 0 -277.5 -123.5t-97.5 -349t98.5 -350.5t278.5 -125t278.5 125t98.5 350t-99.5 349t-279.5 124z" />
<glyph unicode="&#xf7;" d="M584 1174q82 0 82 -99q0 -50 -22.5 -74.5t-59 -24.5t-58.5 25t-22 74q0 99 80 99zM1059 682h-948v82h948v-82zM584 469q82 0 82 -98.5t-82 -98.5q-36 0 -58 24t-22 75q0 98 80 98z" />
<glyph unicode="&#xf8;" horiz-adv-x="1200" d="M969 936q112 -146 112 -401.5t-128.5 -405t-356.5 -149.5q-172 0 -291 98l-86 -113l-72 58l93 120q-121 152 -121 409.5t128.5 406.5t354.5 149q179 0 301 -104l96 124l74 -55zM598 1018q-180 0 -277.5 -123.5t-97.5 -337t78 -334.5l543 705q-98 90 -246 90zM600 70 q180 0 278.5 125t98.5 350q0 191 -72 309l-543 -702q94 -82 238 -82z" />
<glyph unicode="&#xf9;" horiz-adv-x="1208" d="M304 1569h142q26 -48 99 -142.5t142 -169.5v-16h-69q-94 77 -187 169.5t-127 141.5v17zM1026 0h-84l-18 150h-6q-107 -170 -377 -170q-371 0 -371 397v710h98v-704q0 -163 68.5 -238t214.5 -75q196 0 286.5 98.5t90.5 318.5v600h98v-1087z" />
<glyph unicode="&#xfa;" horiz-adv-x="1208" d="M878 1569v-17q-36 -52 -123 -138.5t-190 -172.5h-70v16q72 78 143.5 170.5t98.5 141.5h141zM1026 0h-84l-18 150h-6q-107 -170 -377 -170q-371 0 -371 397v710h98v-704q0 -163 68.5 -238t214.5 -75q196 0 286.5 98.5t90.5 318.5v600h98v-1087z" />
<glyph unicode="&#xfb;" horiz-adv-x="1208" d="M895 1241h-70q-124 102 -221 207q-106 -112 -221 -207h-70v16q62 67 131.5 156t110.5 156h98q67 -119 242 -312v-16zM1026 0h-84l-18 150h-6q-107 -170 -377 -170q-371 0 -371 397v710h98v-704q0 -163 68.5 -238t214.5 -75q196 0 286.5 98.5t90.5 318.5v600h98v-1087z " />
<glyph unicode="&#xfc;" horiz-adv-x="1208" d="M413 1475q64 0 64 -86t-63.5 -86t-63.5 86q0 45 15 65.5t48 20.5zM794 1475q64 0 64 -86t-63.5 -86t-63.5 86q0 45 15 65.5t48 20.5zM1026 0h-84l-18 150h-6q-107 -170 -377 -170q-371 0 -371 397v710h98v-704q0 -163 68.5 -238t214.5 -75q196 0 286.5 98.5t90.5 318.5 v600h98v-1087z" />
<glyph unicode="&#xfd;" horiz-adv-x="940" d="M744 1569v-17q-36 -52 -123 -138.5t-190 -172.5h-70v16q72 78 143.5 170.5t98.5 141.5h141zM131 -492q-57 0 -127 21v86q57 -16 125 -16q100 0 161 99q39 61 126 302l-416 1087h102l230 -610q101 -271 133 -379h6q37 113 137 385l230 604h102l-487 -1263 q-58 -153 -99 -208q-80 -108 -223 -108z" />
<glyph unicode="&#xfe;" horiz-adv-x="1219" d="M649 1108q220 0 335.5 -144.5t115.5 -415.5t-121 -419.5t-332 -148.5q-250 0 -366 188h-7l3 -84q4 -65 4 -162v-414h-99v2048h99v-391l-7 -247h7q114 190 368 190zM281 559v-18q0 -254 85 -363.5t279 -109.5q167 0 258.5 124t91.5 347q0 479 -348 479q-194 0 -280 -106 t-86 -353z" />
<glyph unicode="&#xff;" horiz-adv-x="940" d="M277 1475q64 0 64 -86t-63.5 -86t-63.5 86q0 45 15 65.5t48 20.5zM658 1475q64 0 64 -86t-63.5 -86t-63.5 86q0 45 15 65.5t48 20.5zM131 -492q-57 0 -127 21v86q57 -16 125 -16q100 0 161 99q39 61 126 302l-416 1087h102l230 -610q101 -271 133 -379h6q37 113 137 385 l230 604h102l-487 -1263q-58 -153 -99 -208q-80 -108 -223 -108z" />
<glyph unicode="&#x131;" horiz-adv-x="463" d="M281 0h-99v1087h99v-1087z" />
<glyph unicode="&#x152;" horiz-adv-x="1839" d="M1714 0h-756q-74 -16 -176 -16q-305 0 -479 200t-174 549t174.5 547.5t480.5 198.5q75 0 183 -17h747v-94h-655v-553h616v-94h-616v-627h655v-94zM784 1380q-262 0 -403 -167.5t-141 -481t140.5 -482.5t401.5 -169q110 0 174 18v1266q-60 16 -172 16z" />
<glyph unicode="&#x153;" horiz-adv-x="1942" d="M1438 -20q-157 0 -267 67.5t-165 198.5q-61 -132 -161 -199t-246.5 -67t-255 69t-166.5 197.5t-58 298.5q0 265 128.5 414t354.5 149q293 0 408 -279q110 279 399 279q192 0 303 -134t111 -364v-80h-762q2 -228 99.5 -344t277.5 -116q96 0 166.5 13.5t175.5 55.5v-90 q-90 -39 -167.5 -54t-174.5 -15zM1718 618q0 189 -82 295.5t-231.5 106.5t-237 -103t-102.5 -299h653zM862.5 894q-93.5 124 -269 124t-273 -123.5t-97.5 -349t98.5 -350.5t275.5 -125t268 122t91 350t-93.5 352z" />
<glyph unicode="&#x160;" horiz-adv-x="1116" d="M859 1907v-17q-170 -188 -242 -311h-98q-79 132 -242 311v17h70q116 -96 221 -207q106 112 221 207h70zM514 74q179 0 285 82t106 217q0 82 -34.5 137t-113.5 99.5t-233 97.5q-223 77 -309 166t-86 246t128.5 260.5t332.5 103.5t385 -78l-37 -88q-180 76 -345 76 t-261 -75t-96 -204q0 -80 29.5 -132t96.5 -94t233 -100.5t253 -113.5t126.5 -125.5t39.5 -171.5q0 -182 -134 -289.5t-358 -107.5q-267 0 -411 59v102q156 -67 403 -67z" />
<glyph unicode="&#x161;" horiz-adv-x="954" d="M759 1569v-17q-170 -188 -242 -311h-98q-79 132 -242 311v17h70q116 -96 221 -207q106 112 221 207h70zM84 154q163 -82 333.5 -82t255.5 52.5t85 138.5t-65.5 142t-223.5 112.5t-225.5 100t-100 97.5t-32.5 129q0 123 103 193.5t282.5 70.5t337.5 -66l-37 -90 q-161 66 -295.5 66t-212.5 -44t-78 -125.5t60.5 -132.5t220.5 -108.5t228 -100t102 -97t34 -127.5q0 -146 -111 -224.5t-322.5 -78.5t-338.5 67v107z" />
<glyph unicode="&#x178;" horiz-adv-x="1081" d="M351 1813q64 0 64 -86t-63.5 -86t-63.5 86q0 45 15 65.5t48 20.5zM732 1813q64 0 64 -86t-63.5 -86t-63.5 86q0 45 15 65.5t48 20.5zM594 0h-105v557l-489 905h117l426 -800l428 800h110l-487 -897v-565z" />
<glyph unicode="&#x17d;" horiz-adv-x="1180" d="M891 1907v-17q-170 -188 -242 -311h-98q-79 132 -242 311v17h70q116 -96 221 -207q106 112 221 207h70zM1098 96v-96h-1016v76l856 1290h-817v96h954v-76l-858 -1290h881z" />
<glyph unicode="&#x17e;" horiz-adv-x="944" d="M780 1569v-17q-170 -188 -242 -311h-98q-79 132 -242 311v17h70q116 -96 221 -207q106 112 221 207h70zM858 88v-88h-776v63l645 936h-598v88h727v-63l-649 -936h651z" />
<glyph unicode="&#x192;" d="M510 1096q0 201 76.5 294t240.5 93q84 0 183 -31l-26 -86q-89 29 -159 29q-115 0 -166 -68t-51 -223v-162h281v-88h-281v-1028q0 -155 -71 -236.5t-207 -81.5q-86 0 -140 19v90q78 -18 144 -18q176 0 176 217v1038h-207v59l207 37v146z" />
<glyph unicode="&#x2c6;" horiz-adv-x="1182" d="M881 1241h-70q-124 102 -221 207q-106 -112 -221 -207h-70v16q62 67 131.5 156t110.5 156h98q67 -119 242 -312v-16z" />
<glyph unicode="&#x2c7;" horiz-adv-x="1182" d="M881 1569v-17q-170 -188 -242 -311h-98q-79 132 -242 311v17h70q116 -96 221 -207q106 112 221 207h70z" />
<glyph unicode="&#x2d8;" horiz-adv-x="1182" d="M864 1487q-30 -246 -280 -246t-273 246h82q14 -86 60.5 -124t134.5 -38t134.5 38t61.5 124h80z" />
<glyph unicode="&#x2d9;" horiz-adv-x="483" d="M242 1485q31 0 48 -25t17 -70.5t-17 -71.5t-48 -26q-64 0 -64 96.5t64 96.5z" />
<glyph unicode="&#x2da;" horiz-adv-x="1182" d="M431 1608.5q60 58.5 156.5 58.5t157 -59t60.5 -153.5t-60 -153t-157 -58.5t-157 58.5t-60 153.5t60 153.5zM686.5 1557q-38.5 38 -99.5 38t-98.5 -38t-37.5 -102.5t37 -102t100 -37.5t100 37.5t37 102t-38.5 102.5z" />
<glyph unicode="&#x2db;" horiz-adv-x="356" d="M162 -248q0 -110 106 -110q49 0 82 12v-84q-39 -16 -104 -16q-85 0 -134 48t-49 126q0 154 152 272h90q-75 -66 -109 -122.5t-34 -125.5z" />
<glyph unicode="&#x2dc;" horiz-adv-x="1182" d="M780 1243q-38 0 -77 19.5t-82.5 56t-59.5 47.5q-45 33 -86.5 33t-71 -35.5t-47.5 -120.5h-73q10 111 63 174.5t137 63.5q30 0 61.5 -13t52 -27.5t53 -41t48.5 -39.5q47 -35 82 -35q93 0 125 156h76q-16 -115 -68.5 -176.5t-132.5 -61.5z" />
<glyph unicode="&#x2dd;" horiz-adv-x="1182" d="M582 1569v-17q-132 -199 -254 -311h-70v16q30 31 65 87t123 225h136zM920 1569v-17q-132 -199 -254 -311h-70v16q30 31 65 87t123 225h136z" />
<glyph unicode="&#x301;" horiz-adv-x="0" d="M-325 1569v-17q-36 -52 -123 -138.5t-190 -172.5h-70v16q72 78 143.5 170.5t98.5 141.5h141z" />
<glyph unicode="&#x303;" horiz-adv-x="0" d="M-446 1243q-38 0 -77 19.5t-82.5 56t-59.5 47.5q-45 33 -86.5 33t-71 -35.5t-47.5 -120.5h-73q10 111 63 174.5t137 63.5q30 0 61.5 -13t52 -27.5t53 -41t48.5 -39.5q47 -35 82 -35q93 0 125 156h76q-16 -115 -68.5 -176.5t-132.5 -61.5z" />
<glyph unicode="&#x3bc;" horiz-adv-x="1221" d="M1038 0h-84l-18 150h-6q-49 -77 -149 -123.5t-218 -46.5q-187 0 -287 112q5 -102 5 -170v-414h-99v1579h99v-704q0 -163 68.5 -238t213.5 -75q193 0 285 98t92 319v600h98v-1087z" />
<glyph unicode="&#x5b0;" horiz-adv-x="0" d="M626 -80q64 0 64 -75t-64 -75q-61 0 -61 75t61 75zM626 -343q64 0 64 -75.5t-64 -75.5q-61 0 -61 75.5t61 75.5z" />
<glyph unicode="&#x5b1;" horiz-adv-x="0" d="M384 -80q63 0 63 -75t-63 -75q-61 0 -61 75t61 75zM671 -80q63 0 63 -75t-63 -75q-61 0 -61 75t61 75zM925 -80q64 0 64 -75t-64 -75q-60 0 -60 75t60 75zM526 -343q64 0 64 -75.5t-64 -75.5q-61 0 -61 75.5t61 75.5zM925 -343q64 0 64 -75.5t-64 -75.5q-60 0 -60 75.5 t60 75.5z" />
<glyph unicode="&#x5b2;" horiz-adv-x="0" d="M866 -80q64 0 64 -75t-64 -75q-61 0 -61 75t61 75zM713 -190h-356v71h356v-71zM866 -343q64 0 64 -75.5t-64 -75.5q-61 0 -61 75.5t61 75.5z" />
<glyph unicode="&#x5b3;" horiz-adv-x="0" d="M866 -80q64 0 64 -75t-64 -75q-61 0 -61 75t61 75zM713 -190h-142v-202h-72v202h-142v71h356v-71zM866 -343q64 0 64 -75.5t-64 -75.5q-61 0 -61 75.5t61 75.5z" />
<glyph unicode="&#x5b4;" horiz-adv-x="0" d="M626 -80q64 0 64 -75t-64 -75q-61 0 -61 75t61 75z" />
<glyph unicode="&#x5b5;" horiz-adv-x="0" d="M483 -80q63 0 63 -75t-63 -75q-61 0 -61 75t61 75zM770 -80q63 0 63 -75t-63 -75q-61 0 -61 75t61 75z" />
<glyph unicode="&#x5b6;" horiz-adv-x="0" d="M484 -80q63 0 63 -75t-63 -75q-61 0 -61 75t61 75zM771 -80q63 0 63 -75t-63 -75q-61 0 -61 75t61 75zM626 -343q64 0 64 -75.5t-64 -75.5q-61 0 -61 75.5t61 75.5z" />
<glyph unicode="&#x5b7;" horiz-adv-x="0" d="M805 -183h-357v72h357v-72z" />
<glyph unicode="&#x5b8;" horiz-adv-x="0" d="M805 -183h-143v-201h-71v201h-143v72h357v-72z" />
<glyph unicode="&#x5b9;" horiz-adv-x="0" d="M626 1360q64 0 64 -75t-64 -75q-61 0 -61 75t61 75z" />
<glyph unicode="&#x5ba;" horiz-adv-x="0" d="M583 1360q64 0 64 -75t-64 -75q-60 0 -60 75t60 75z" />
<glyph unicode="&#x5bb;" horiz-adv-x="0" d="M484 -80q63 0 63 -75t-63 -75q-61 0 -61 75t61 75zM626 -211q64 0 64 -75.5t-64 -75.5q-61 0 -61 75.5t61 75.5zM771 -343q63 0 63 -75.5t-63 -75.5q-61 0 -61 75.5t61 75.5z" />
<glyph unicode="&#x5bc;" horiz-adv-x="0" d="M626 639q64 0 64 -75t-64 -75q-61 0 -61 75t61 75z" />
<glyph unicode="&#x5bd;" horiz-adv-x="1256" d="M672 -443h-89v306h89v-306z" />
<glyph unicode="&#x5be;" horiz-adv-x="659" d="M567 1208h-475v82h475v-82z" />
<glyph unicode="&#x5c1;" horiz-adv-x="0" d="M579 1360q64 0 64 -75t-64 -75q-61 0 -61 75t61 75z" />
<glyph unicode="&#x5c2;" horiz-adv-x="0" d="M626 1360q64 0 64 -75t-64 -75q-61 0 -61 75t61 75z" />
<glyph unicode="&#x5c7;" horiz-adv-x="0" d="M374 -129h-108v-117h-71v117h-108v72h287v-72z" />
<glyph unicode="&#x5d0;" horiz-adv-x="1141" d="M1013 1290v-472q0 -184 -61 -282q-25 -39 -70.5 -73t-107.5 -50l250 -413h-110l-483 799q-45 0 -88 -25q-71 -40 -102 -118.5t-31 -207.5v-448h-98v449q0 170 43 259q19 40 47 77q58 76 178 99l-246 406h109l480 -793q33 6 59 20q73 40 103 107.5t30 194.5v471h98z" />
<glyph unicode="&#x5d1;" horiz-adv-x="1016" d="M72 1300q156 10 259 10t168.5 -8.5t128.5 -33t104.5 -64t67 -105t25.5 -153.5v-858h151v-88h-903v88h650v858q0 134 -71 200q-57 55 -182 68q-50 6 -134 6t-264 -11v91z" />
<glyph unicode="&#x5d2;" horiz-adv-x="770" d="M356 1310q127 0 185.5 -79.5t58.5 -215.5v-1015h-87l-10 213h-7q-50 -83 -84 -119q-94 -98 -242 -98q-56 0 -131 11l18 94q55 -13 122 -13q137 0 228 115.5t91 307.5v504q0 91 -26 143q-30 62 -124 62q-60 0 -148 -17v92q75 15 156 15z" />
<glyph unicode="&#x5d3;" horiz-adv-x="989" d="M949 1290v-77q-35 -13 -61.5 -25.5t-57 -35.5t-50.5 -52q-45 -68 -45 -172v-928h-102v928q0 59 14.5 109t35.5 79q43 60 77 78l14 8h-729v88h904z" />
<glyph unicode="&#x5d4;" horiz-adv-x="1256" d="M182 1290q292 20 402.5 20t176 -8.5t128.5 -33t104.5 -64t67 -105t25.5 -153.5v-946h-103v946q0 134 -70 200q-57 55 -182 68q-50 6 -154.5 6t-394.5 -22v92zM284 0h-102v813h102v-813z" />
<glyph unicode="&#x5d5;" horiz-adv-x="466" d="M284 0h-102v1290h102v-1290z" />
<glyph unicode="&#x5d6;" horiz-adv-x="466" d="M435 1290v-77q-61 -48 -106.5 -156.5t-45.5 -241.5v-815h-102v815q0 79 17 150t43 119q46 83 85 118h-289v88h398z" />
<glyph unicode="&#x5d7;" horiz-adv-x="1256" d="M182 0v1290q8 0 91 6q194 14 308 14t179.5 -8.5t128.5 -33t104.5 -64t67 -105t25.5 -153.5v-946h-103v946q0 134 -70 200q-57 55 -182 68q-50 6 -153 6t-294 -15v-1205h-102z" />
<glyph unicode="&#x5d8;" horiz-adv-x="1258" d="M655 1310q230 0 357 -163t127 -502t-127 -502t-357.5 -163t-357.5 163t-127 502v645h103v-645q0 -328 119 -467q42 -50 108.5 -79t153.5 -29t153.5 29t108.5 78.5t68 124t36.5 157.5t10.5 186t-10.5 185.5t-36.5 157t-68 124.5t-108.5 79t-153.5 29q-45 0 -92 -10v92 q46 8 93 8z" />
<glyph unicode="&#x5d9;" horiz-adv-x="442" d="M170 482v808h102v-694l-93 -114h-9z" />
<glyph unicode="&#x5da;" horiz-adv-x="968" d="M317.5 1309q94.5 0 183 -35t143.5 -91.5t91 -135.5q64 -140 64 -330v-1209h-104v1209q0 236 -97 369.5t-299 133.5q-96 0 -169 -21q-25 -7 -59.5 -19t-41.5 -14v95q40 18 117 33t171.5 15z" />
<glyph unicode="&#x5db;" horiz-adv-x="961" d="M194.5 1295.5q70.5 13.5 165.5 13.5t183.5 -35t143.5 -91.5t91 -135.5q64 -140 64 -330v-181q0 -145 -48 -274q-34 -90 -103 -160q-74 -76 -193 -106q-63 -16 -137.5 -16t-146.5 9t-107 18l-35 9v108q41 -20 125 -37t157 -17t130 19.5t95.5 51t68 74.5t46 86t26.5 89 q18 78 18 146v181q0 236 -97 369.5t-299 133.5q-112 0 -228 -40l-42 -14v95q11 5 31.5 13t91 21.5z" />
<glyph unicode="&#x5dc;" horiz-adv-x="930" d="M147 1296h701v-114l-192 -675l-91 -507h-104l89 494l203 706h-708v369h102v-273z" />
<glyph unicode="&#x5dd;" horiz-adv-x="1246" d="M172 0v1290q8 0 91 6q194 14 308 14t179.5 -8.5t128.5 -33t104.5 -64t67 -105t25.5 -153.5v-946h-904zM973 88v858q0 134 -70 200q-57 55 -182 68q-50 6 -153 6t-294 -15v-1117h699z" />
<glyph unicode="&#x5de;" horiz-adv-x="1200" d="M664 1310q179 0 272.5 -114t93.5 -310v-886h-385v88h284v798q0 154 -72.5 244t-192.5 90q-83 0 -151 -20t-106.5 -48.5t-65 -57t-35.5 -48.5l-10 -20l-97 -1026h-102l96 1005q4 71 -9 119q-4 16 -6 25t-8.5 27t-8.5 24q-4 14 -19 51l-17 45h109q37 -86 49 -141h13 q13 20 50.5 50.5t76.5 50.5t104 37t137 17z" />
<glyph unicode="&#x5df;" horiz-adv-x="462" d="M282 905v-1397h-102v1397q0 190 -66 385h103q7 -22 18 -59.5t29 -139.5t18 -186z" />
<glyph unicode="&#x5e0;" horiz-adv-x="884" d="M448 1310q130 0 198 -81.5t68 -213.5v-682q0 -68 -10 -151t-20 -132l-9 -50h-546v88h456q27 127 27 245v682q0 92 -40.5 148.5t-124 56.5t-171.5 -17v92q75 15 172 15z" />
<glyph unicode="&#x5e1;" horiz-adv-x="1207" d="M306 1211l-167 -7v92q271 14 464 14q229 0 357 -162t128 -500.5t-127.5 -503t-357.5 -164.5t-357 164t-127 504q0 400 187 563zM724.5 1203q-54.5 17 -112.5 17q-105 0 -174 -4l-23 -2q-98 -94 -143.5 -230t-45.5 -336q0 -332 115 -469q42 -50 108 -79.5t153 -29.5 t153.5 29.5t108.5 79.5t68 125q47 136 47 344q0 216 -47 344q-41 109 -114 165q-39 29 -93.5 46z" />
<glyph unicode="&#x5e2;" horiz-adv-x="1161" d="M1106 1290l-56 -555q-27 -274 -204 -479q-86 -101 -215 -170.5t-295.5 -94t-280.5 -40.5v88l284 42q60 9 123 29l-311 1180h99l151 -584l137 -566q172 78 286 232.5t135 362.5l55 555h92z" />
<glyph unicode="&#x5e3;" horiz-adv-x="1222" d="M466 441q-159 0 -263 116.5t-104 301.5q0 109 41 197t109 142q139 112 319 112q230 0 357 -163t127 -502v-1137h-102v1137q0 329 -119 467q-43 50 -110 79t-151 29t-150.5 -23.5t-108.5 -61t-71 -85.5q-52 -90 -52 -191q0 -150 68.5 -233t216.5 -104l14 -2l-16 -79h-5z " />
<glyph unicode="&#x5e4;" horiz-adv-x="1190" d="M485 441q-159 0 -262.5 116.5t-103.5 301.5q0 109 41 197t108 142q139 112 319 112q230 0 357 -163t127 -502t-127 -502t-357 -163q-173 0 -287 15l-38 5v89q165 -19 324 -19q87 0 153.5 29t108.5 78.5t68 124t36.5 157.5t10.5 186t-10.5 185.5t-36.5 157t-68 124.5 t-108.5 79t-150.5 29t-150.5 -23.5t-108.5 -61t-70 -85.5q-53 -90 -53 -191q0 -149 79 -244t206 -95h14l-16 -79h-5z" />
<glyph unicode="&#x5e5;" horiz-adv-x="898" d="M800 1290v-389q0 -181 -76 -285q-30 -40 -81.5 -74.5t-120.5 -52.5l-151 -41v-940h-102v1042l-269 740h102l269 -746l150 42q81 23 129.5 106.5t48.5 208.5v389h101z" />
<glyph unicode="&#x5e6;" horiz-adv-x="1074" d="M970 0h-888v88h767l-329 492l-434 710h108l385 -640l55 -82q199 185 228 468l25 254h90l-24 -254q-15 -157 -84 -298.5t-184 -245.5l285 -429v-63z" />
<glyph unicode="&#x5e7;" horiz-adv-x="1174" d="M783 17v-17h-100v17q0 39 9 84l14 73q11 53 40 159t34.5 127t20 71t17.5 62l172 609h-808v88h910v-88l-172 -609q-12 -41 -28.5 -101t-29.5 -106t-20.5 -76t-18 -71t-16.5 -69.5t-12 -59.5q-12 -62 -12 -93zM285 -492h-102v1251h102v-1251z" />
<glyph unicode="&#x5e8;" horiz-adv-x="993" d="M45 1300q168 10 278 10t175.5 -8.5t128.5 -33t104.5 -64t67 -105t25.5 -153.5v-946h-102v946q0 134 -70 200q-58 55 -183 68q-50 6 -116 6q-112 0 -263 -8l-45 -3v91z" />
<glyph unicode="&#x5e9;" horiz-adv-x="1369" d="M553 0h-372l-109 1290h95l65 -778q85 21 141 47t103 65t77 94q64 119 83 318l25 254h91l-25 -254q-14 -144 -43 -242t-85 -173.5t-141.5 -121t-213.5 -72.5l-4 -1l28 -339h285q155 0 289.5 84.5t221 233t104.5 330.5l54 555h92l-55 -555q-23 -229 -140 -411 q-61 -95 -141 -167t-190 -114.5t-235 -42.5z" />
<glyph unicode="&#x5ea;" horiz-adv-x="1232" d="M110 1290q292 20 426.5 20t200 -8.5t128.5 -33t104.5 -64t67 -105t25.5 -153.5v-946h-102v946q0 134 -70 200q-58 55 -183 68q-50 6 -133 6t-216 -7v-905q0 -308 -266 -308q-22 0 -67 9v84q29 -3 67 -3q77 0 120.5 53.5t43.5 164.5v900l-146 -10v92z" />
<glyph unicode="&#x5f3;" horiz-adv-x="297" d="M256 1290l12 -20q-75 -267 -175 -481h-64q33 110 64 254.5t46 246.5h117z" />
<glyph unicode="&#x5f4;" horiz-adv-x="614" d="M256 1290l12 -20q-75 -267 -175 -481h-64q33 110 64 254.5t46 246.5h117zM573 1290l13 -20q-38 -133 -88 -268t-86 -213h-66q30 96 63 248.5t48 252.5h116z" />
<glyph unicode="&#x2013;" horiz-adv-x="1024" d="M942 512h-860v82h860v-82z" />
<glyph unicode="&#x2014;" horiz-adv-x="2048" d="M1966 512h-1884v82h1884v-82z" />
<glyph unicode="&#x2018;" horiz-adv-x="297" d="M203 1462h65q-32 -106 -66 -260t-44 -241h-117l-12 19q30 107 79.5 247.5t94.5 234.5z" />
<glyph unicode="&#x2019;" horiz-adv-x="297" d="M256 1462l12 -20q-75 -267 -175 -481h-64q33 110 64 254.5t46 246.5h117z" />
<glyph unicode="&#x201a;" horiz-adv-x="451" d="M295 238l12 -20q-75 -264 -174 -481h-65q32 107 64 254.5t46 246.5h117z" />
<glyph unicode="&#x201c;" horiz-adv-x="614" d="M203 1462h65q-32 -106 -66 -260t-44 -241h-117l-12 19q30 107 79.5 247.5t94.5 234.5zM520 1462h66q-30 -98 -63 -248.5t-48 -252.5h-117l-12 19q37 131 85.5 262.5t88.5 219.5z" />
<glyph unicode="&#x201d;" horiz-adv-x="614" d="M256 1462l12 -20q-75 -267 -175 -481h-64q33 110 64 254.5t46 246.5h117zM573 1462l13 -20q-38 -133 -88 -268t-86 -213h-66q30 96 63 248.5t48 252.5h116z" />
<glyph unicode="&#x201e;" horiz-adv-x="768" d="M295 238l12 -20q-75 -264 -174 -481h-65q32 107 64 254.5t46 246.5h117zM612 238l13 -20q-38 -133 -88 -268t-86 -213h-66q30 97 63 248t48 253h116z" />
<glyph unicode="&#x2020;" horiz-adv-x="1006" d="M524 1139l359 28v-112l-359 20l27 -1075h-117l27 1075l-338 -20v112l338 -28l-27 417h117z" />
<glyph unicode="&#x2021;" horiz-adv-x="1006" d="M524 1143l359 24v-112l-359 24l17 -293l-17 -325l359 24v-112l-359 24l27 -397h-117l27 397l-338 -24v112l338 -24l-17 325l17 293l-338 -24v112l338 -24l-27 413h117z" />
<glyph unicode="&#x2022;" horiz-adv-x="770" d="M271 882q40 46 113.5 46t114 -47t40.5 -132.5t-41 -133.5t-113 -48t-113 47.5t-41 134.5t40 133z" />
<glyph unicode="&#x2026;" horiz-adv-x="1466" d="M242 176q82 0 82 -98t-82 -98q-80 0 -80 98t80 98zM731 176q82 0 82 -98t-82 -98q-80 0 -80 98t80 98zM1221 176q82 0 82 -98t-82 -98q-80 0 -80 98t80 98z" />
<glyph unicode="&#x2030;" horiz-adv-x="2331" d="M185 1366q72 117 211.5 117t215.5 -120t76 -341t-75 -339t-212 -118t-212.5 121t-75.5 342t72 338zM469 0h-96l811 1462h96zM540.5 1302q-49.5 93 -144 93t-140 -92t-45.5 -278.5t45.5 -279t140.5 -92.5q193 0 193 373q0 183 -49.5 276zM1038.5 778.5 q73.5 116.5 211.5 116.5t214 -119.5t76 -341.5t-74 -339.5t-212.5 -117.5t-213.5 120.5t-75 342.5t73.5 338.5zM1715 779q73 116 212 116t215 -119.5t76 -341.5t-74 -339.5t-211.5 -117.5t-214.5 119q-76 122 -76 344.5t73 338.5zM1249 807q-95 0 -140.5 -91t-45.5 -278 t45.5 -278.5t140.5 -91.5q193 0 193 369.5t-193 369.5zM1927 807q-95 0 -140.5 -91t-45.5 -278t45.5 -278.5t140.5 -91.5q193 0 193 369.5t-193 369.5z" />
<glyph unicode="&#x2039;" horiz-adv-x="524" d="M453 893l-254 -363l254 -362l-62 -43l-309 391v27l309 393z" />
<glyph unicode="&#x203a;" horiz-adv-x="524" d="M442 545v-27l-309 -393l-61 43l254 362l-254 363l61 43z" />
<glyph unicode="&#x20aa;" horiz-adv-x="1597" d="M170 1290h415q93 0 159.5 -8.5t125.5 -32t95 -63.5q77 -86 77 -257v-665h-102v665q0 134 -58 200q-48 54 -172 67q-50 6 -125 6h-313v-1202h-102v1290zM1427 1290v-639q0 -309 -169.5 -480t-463.5 -171h-255v1026h102v-938h153q254 0 392.5 143.5t138.5 419.5v639h102z " />
<glyph unicode="&#x20ac;" d="M74 907h184q39 272 183 425t362 153q169 0 309 -74l-39 -86q-134 72 -270 72q-174 0 -288 -125.5t-155 -364.5h502v-82h-510l-4 -104v-24q0 -67 4 -87h449v-82h-443q30 -218 147 -339q118 -121 302 -121q146 0 287 65v-94q-143 -59 -291 -59q-228 0 -367.5 140 t-181.5 408h-180v82h172q-4 33 -4 113l4 102h-172v82z" />
<glyph unicode="&#x2122;" horiz-adv-x="1485" d="M532 1384h-219v-643h-86v643h-218v78h523v-78zM1303 741h-86v398l4 207h-7l-228 -605h-73l-221 609h-6l4 -201v-408h-82v721h125l221 -606l224 606h125v-721z" />
<glyph unicode="&#x25fc;" horiz-adv-x="1085" d="M0 1085h1085v-1085h-1085v1085z" />
<glyph unicode="&#xfb2a;" horiz-adv-x="1369" d="M1298 1548q64 0 64 -75t-64 -75q-61 0 -61 75t61 75zM553 0h-372l-109 1290h95l65 -778q85 21 141 47t103 65t77 94q64 119 83 318l25 254h91l-25 -254q-14 -144 -43 -242t-85 -173.5t-141.5 -121t-213.5 -72.5l-4 -1l28 -339h285q155 0 289.5 84.5t221 233t104.5 330.5 l54 555h92l-55 -555q-23 -229 -140 -411q-61 -95 -141 -167t-190 -114.5t-235 -42.5z" />
<glyph unicode="&#xfb2b;" horiz-adv-x="1369" d="M100 1548q64 0 64 -75t-64 -75q-61 0 -61 75t61 75zM553 0h-372l-109 1290h95l65 -778q85 21 141 47t103 65t77 94q64 119 83 318l25 254h91l-25 -254q-14 -144 -43 -242t-85 -173.5t-141.5 -121t-213.5 -72.5l-4 -1l28 -339h285q155 0 289.5 84.5t221 233t104.5 330.5 l54 555h92l-55 -555q-23 -229 -140 -411q-61 -95 -141 -167t-190 -114.5t-235 -42.5z" />
<glyph unicode="&#xfb2c;" horiz-adv-x="1369" d="M1298 1548q64 0 64 -75t-64 -75q-61 0 -61 75t61 75zM553 0h-372l-109 1290h95l65 -778q85 21 141 47t103 65t77 94q64 119 83 318l25 254h91l-25 -254q-14 -144 -43 -242t-85 -173.5t-141.5 -121t-213.5 -72.5l-4 -1l28 -339h285q155 0 289.5 84.5t221 233t104.5 330.5 l54 555h92l-55 -555q-23 -229 -140 -411q-61 -95 -141 -167t-190 -114.5t-235 -42.5zM759 526q64 0 64 -75t-64 -75q-61 0 -61 75t61 75z" />
<glyph unicode="&#xfb2d;" horiz-adv-x="1369" d="M100 1548q64 0 64 -75t-64 -75q-61 0 -61 75t61 75zM553 0h-372l-109 1290h95l65 -778q85 21 141 47t103 65t77 94q64 119 83 318l25 254h91l-25 -254q-14 -144 -43 -242t-85 -173.5t-141.5 -121t-213.5 -72.5l-4 -1l28 -339h285q155 0 289.5 84.5t221 233t104.5 330.5 l54 555h92l-55 -555q-23 -229 -140 -411q-61 -95 -141 -167t-190 -114.5t-235 -42.5zM759 526q64 0 64 -75t-64 -75q-61 0 -61 75t61 75z" />
<glyph unicode="&#xfb2e;" horiz-adv-x="1141" d="M1013 1290v-472q0 -184 -61 -282q-25 -39 -70.5 -73t-107.5 -50l250 -413h-110l-483 799q-45 0 -88 -25q-71 -40 -102 -118.5t-31 -207.5v-448h-98v449q0 170 43 259q19 40 47 77q58 76 178 99l-246 406h109l480 -793q33 6 59 20q73 40 103 107.5t30 194.5v471h98z M748 -216h-357v72h357v-72z" />
<glyph unicode="&#xfb2f;" horiz-adv-x="1141" d="M1013 1290v-472q0 -184 -61 -282q-25 -39 -70.5 -73t-107.5 -50l250 -413h-110l-483 799q-45 0 -88 -25q-71 -40 -102 -118.5t-31 -207.5v-448h-98v449q0 170 43 259q19 40 47 77q58 76 178 99l-246 406h109l480 -793q33 6 59 20q73 40 103 107.5t30 194.5v471h98z M748 -216h-143v-201h-71v201h-143v72h357v-72z" />
<glyph unicode="&#xfb30;" horiz-adv-x="1141" d="M1013 1290v-472q0 -184 -61 -282q-25 -39 -70.5 -73t-107.5 -50l250 -413h-110l-483 799q-45 0 -88 -25q-71 -40 -102 -118.5t-31 -207.5v-448h-98v449q0 170 43 259q19 40 47 77q58 76 178 99l-246 406h109l480 -793q33 6 59 20q73 40 103 107.5t30 194.5v471h98z M431 448q64 0 64 -75t-64 -75q-61 0 -61 75t61 75z" />
<glyph unicode="&#xfb31;" horiz-adv-x="1016" d="M72 1300q156 10 259 10t168.5 -8.5t128.5 -33t104.5 -64t67 -105t25.5 -153.5v-858h151v-88h-903v88h650v858q0 134 -71 200q-57 55 -182 68q-50 6 -134 6t-264 -11v91zM369 741q64 0 64 -75t-64 -75q-61 0 -61 75t61 75z" />
<glyph unicode="&#xfb32;" horiz-adv-x="770" d="M356 1310q127 0 185.5 -79.5t58.5 -215.5v-1015h-87l-10 213h-7q-50 -83 -84 -119q-94 -98 -242 -98q-56 0 -131 11l18 94q55 -13 122 -13q137 0 228 115.5t91 307.5v504q0 91 -26 143q-30 62 -124 62q-60 0 -148 -17v92q75 15 156 15zM236 741q64 0 64 -75t-64 -75 q-61 0 -61 75t61 75z" />
<glyph unicode="&#xfb33;" horiz-adv-x="989" d="M949 1290v-77q-35 -13 -61.5 -25.5t-57 -35.5t-50.5 -52q-45 -68 -45 -172v-928h-102v928q0 59 14.5 109t35.5 79q43 60 77 78l14 8h-729v88h904zM365 741q64 0 64 -75t-64 -75q-61 0 -61 75t61 75z" />
<glyph unicode="&#xfb34;" horiz-adv-x="1256" d="M182 1290q292 20 402.5 20t176 -8.5t128.5 -33t104.5 -64t67 -105t25.5 -153.5v-946h-103v946q0 134 -70 200q-57 55 -182 68q-50 6 -154.5 6t-394.5 -22v92zM182 0v813h102v-813h-102zM626 741q64 0 64 -75t-64 -75q-61 0 -61 75t61 75z" />
<glyph unicode="&#xfb35;" horiz-adv-x="466" d="M182 0v1290h102v-1290h-102zM-2 741q64 0 64 -75t-64 -75q-61 0 -61 75t61 75z" />
<glyph unicode="&#xfb36;" horiz-adv-x="466" d="M435 1290v-77q-61 -48 -106.5 -156.5t-45.5 -241.5v-815h-102v815q0 79 17 150t43 119q46 83 85 118h-289v88h398zM-2 741q64 0 64 -75t-64 -75q-61 0 -61 75t61 75z" />
<glyph unicode="&#xfb38;" horiz-adv-x="1258" d="M655 1310q230 0 357 -163t127 -502t-127 -502t-357.5 -163t-357.5 163t-127 502v645h103v-645q0 -328 119 -467q42 -50 108.5 -79t153.5 -29t153.5 29t108.5 78.5t68 124t36.5 157.5t10.5 186t-10.5 185.5t-36.5 157t-68 124.5t-108.5 79t-153.5 29q-45 0 -92 -10v92 q46 8 93 8zM642 741q64 0 64 -75t-64 -75q-61 0 -61 75t61 75z" />
<glyph unicode="&#xfb39;" horiz-adv-x="442" d="M170 482v808h102v-694l-93 -114h-9zM12 974q64 0 64 -75t-64 -75q-61 0 -61 75t61 75z" />
<glyph unicode="&#xfb3a;" horiz-adv-x="968" d="M317.5 1309q94.5 0 183 -35t143.5 -91.5t91 -135.5q64 -140 64 -330v-1209h-104v1209q0 236 -97 369.5t-299 133.5q-96 0 -169 -21q-25 -7 -59.5 -19t-41.5 -14v95q40 18 117 33t171.5 15zM360 741q64 0 64 -75t-64 -75q-61 0 -61 75t61 75z" />
<glyph unicode="&#xfb3b;" horiz-adv-x="961" d="M194.5 1295.5q70.5 13.5 165.5 13.5t183.5 -35t143.5 -91.5t91 -135.5q64 -140 64 -330v-181q0 -145 -48 -274q-34 -90 -103 -160q-74 -76 -193 -106q-63 -16 -137.5 -16t-146.5 9t-107 18l-35 9v108q41 -20 125 -37t157 -17t130 19.5t95.5 51t68 74.5t46 86t26.5 89 q18 78 18 146v181q0 236 -97 369.5t-299 133.5q-112 0 -228 -40l-42 -14v95q11 5 31.5 13t91 21.5zM356 741q64 0 64 -75t-64 -75q-61 0 -61 75t61 75z" />
<glyph unicode="&#xfb3c;" horiz-adv-x="930" d="M848 1296v-114l-192 -675l-91 -507h-104l89 494l203 706h-708v369h102v-273h701zM316 741q64 0 64 -75t-64 -75q-61 0 -61 75t61 75z" />
<glyph unicode="&#xfb3e;" horiz-adv-x="1200" d="M664 1310q179 0 272.5 -114t93.5 -310v-886h-385v88h284v798q0 154 -72.5 244t-192.5 90q-83 0 -151 -20t-106.5 -48.5t-65 -57t-35.5 -48.5l-10 -20l-97 -1026h-102l96 1005q4 71 -9 119q-4 16 -6 25t-8.5 27t-8.5 24q-4 14 -19 51l-17 45h109q37 -86 49 -141h13 q13 20 50.5 50.5t76.5 50.5t104 37t137 17zM598 741q64 0 64 -75t-64 -75q-61 0 -61 75t61 75z" />
<glyph unicode="&#xfb40;" horiz-adv-x="884" d="M448 1310q130 0 198 -81.5t68 -213.5v-682q0 -68 -10 -151t-20 -132l-9 -50h-546v88h456q27 127 27 245v682q0 92 -40.5 148.5t-124 56.5t-171.5 -17v92q75 15 172 15zM390 741q64 0 64 -75t-64 -75q-61 0 -61 75t61 75z" />
<glyph unicode="&#xfb41;" horiz-adv-x="1207" d="M306 1211l-167 -7v92q271 14 464 14q229 0 357 -162t128 -500.5t-127.5 -503t-357.5 -164.5t-357 164t-127 504q0 400 187 563zM724.5 1203q-54.5 17 -112.5 17q-105 0 -174 -4l-23 -2q-98 -94 -143.5 -230t-45.5 -336q0 -332 115 -469q42 -50 108 -79.5t153 -29.5 t153.5 29.5t108.5 79.5t68 125q47 136 47 344q0 216 -47 344q-41 109 -114 165q-39 29 -93.5 46zM602 741q64 0 64 -75t-64 -75q-61 0 -61 75t61 75z" />
<glyph unicode="&#xfb43;" horiz-adv-x="1222" d="M466 441q-159 0 -263 116.5t-104 301.5q0 109 41 197t109 142q139 112 319 112q230 0 357 -163t127 -502v-1137h-102v1137q0 329 -119 467q-43 50 -110 79t-151 29t-150.5 -23.5t-108.5 -61t-71 -85.5q-52 -90 -52 -191q0 -150 68.5 -233t216.5 -104l14 -2l-16 -79h-5z M566 931q64 0 64 -75t-64 -75q-61 0 -61 75t61 75z" />
<glyph unicode="&#xfb44;" horiz-adv-x="1190" d="M485 441q-159 0 -262.5 116.5t-103.5 301.5q0 109 41 197t108 142q139 112 319 112q230 0 357 -163t127 -502t-127 -502t-357 -163q-173 0 -287 15l-38 5v89q165 -19 324 -19q87 0 153.5 29t108.5 78.5t68 124t36.5 157.5t10.5 186t-10.5 185.5t-36.5 157t-68 124.5 t-108.5 79t-150.5 29t-150.5 -23.5t-108.5 -61t-70 -85.5q-53 -90 -53 -191q0 -149 79 -244t206 -95h14l-16 -79h-5zM593 922q64 0 64 -75t-64 -75q-61 0 -61 75t61 75z" />
<glyph unicode="&#xfb46;" horiz-adv-x="1074" d="M970 0h-888v88h767l-329 492l-434 710h108l385 -640l55 -82q199 185 228 468l25 254h90l-24 -254q-15 -157 -84 -298.5t-184 -245.5l285 -429v-63zM259 571q64 0 64 -75t-64 -75q-61 0 -61 75t61 75z" />
<glyph unicode="&#xfb47;" horiz-adv-x="1174" d="M783 17v-17h-100v17q0 39 9 84l14 73q11 53 40 159t34.5 127t20 71t17.5 62l172 609h-808v88h910v-88l-172 -609q-12 -41 -28.5 -101t-29.5 -106t-20.5 -76t-18 -71t-16.5 -69.5t-12 -59.5q-12 -62 -12 -93zM183 -492v1251h102v-1251h-102zM566 741q64 0 64 -75t-64 -75 q-61 0 -61 75t61 75z" />
<glyph unicode="&#xfb48;" horiz-adv-x="993" d="M45 1300q168 10 278 10t175.5 -8.5t128.5 -33t104.5 -64t67 -105t25.5 -153.5v-946h-102v946q0 134 -70 200q-58 55 -183 68q-50 6 -116 6q-112 0 -263 -8l-45 -3v91zM336 741q64 0 64 -75t-64 -75q-61 0 -61 75t61 75z" />
<glyph unicode="&#xfb49;" horiz-adv-x="1369" d="M553 0h-372l-109 1290h95l65 -778q85 21 141 47t103 65t77 94q64 119 83 318l25 254h91l-25 -254q-14 -144 -43 -242t-85 -173.5t-141.5 -121t-213.5 -72.5l-4 -1l28 -339h285q155 0 289.5 84.5t221 233t104.5 330.5l54 555h92l-55 -555q-23 -229 -140 -411 q-61 -95 -141 -167t-190 -114.5t-235 -42.5zM759 526q64 0 64 -75t-64 -75q-61 0 -61 75t61 75z" />
<glyph unicode="&#xfb4a;" horiz-adv-x="1232" d="M110 1290q292 20 426.5 20t200 -8.5t128.5 -33t104.5 -64t67 -105t25.5 -153.5v-946h-102v946q0 134 -70 200q-58 55 -183 68q-50 6 -133 6t-216 -7v-905q0 -308 -266 -308q-22 0 -67 9v84q29 -3 67 -3q77 0 120.5 53.5t43.5 164.5v900l-146 -10v92zM637 741q64 0 64 -75 t-64 -75q-61 0 -61 75t61 75z" />
<glyph unicode="&#xfb4b;" horiz-adv-x="466" d="M202 1548q64 0 64 -75t-64 -75q-61 0 -61 75t61 75zM182 0v1290h102v-1290h-102z" />
<glyph horiz-adv-x="0" />
<glyph horiz-adv-x="1256" d="M863 1449h-470v83h470v-83z" />
</font>
</defs>
</svg>
