<?xml version="1.0" standalone="no"?>
<!DOCTYPE svg PUBLIC "-//W3C//DTD SVG 1.1//EN" "http://www.w3.org/Graphics/SVG/1.1/DTD/svg11.dtd" >
<svg xmlns="http://www.w3.org/2000/svg">
<metadata></metadata>
<defs>
<font id="open_sans_hebrewregular" horiz-adv-x="1171" >
<font-face units-per-em="2048" ascent="1638" descent="-410" />
<missing-glyph horiz-adv-x="532" />
<glyph unicode="&#xd;" horiz-adv-x="682" />
<glyph unicode=" "  horiz-adv-x="532" />
<glyph unicode="&#x09;" horiz-adv-x="532" />
<glyph unicode="&#xa0;" horiz-adv-x="532" />
<glyph unicode="!" horiz-adv-x="547" d="M326 403h-105l-51 1059h207zM272 242q58 0 89.5 -35t31.5 -100t-32 -100.5t-88 -35.5t-88.5 33t-32.5 102q0 136 120 136z" />
<glyph unicode="&#x22;" horiz-adv-x="821" d="M279 934h-105l-41 528h186zM647 934h-104l-41 528h186z" />
<glyph unicode="#" horiz-adv-x="1323" d="M1270 1026v-127h-290l-65 -340h283v-129h-307l-84 -430h-137l84 430h-303l-82 -430h-136l80 430h-262v129h287l68 340h-277v127h299l82 436h139l-82 -436h305l84 436h134l-84 -436h264zM541 899l-66 -340h303l66 340h-303z" />
<glyph unicode="$" d="M649 1554v-180q183 -4 355 -74l-52 -131q-152 60 -303 70v-434q155 -49 232.5 -96t116.5 -111q38 -60 38 -149q0 -137 -102 -225t-285 -111v-232h-129v223q-109 0 -216 17.5t-173 48.5v156q80 -36 191 -61q112 -23 198 -23v440q-204 64 -287 150t-83 220t101 218 q102 84 269 102v182h129zM370.5 1173q-51.5 -46 -51.5 -118.5t45 -119.5t156 -87v387q-98 -16 -149.5 -62zM866 436q0 72 -44.5 116.5t-172.5 88.5v-389q217 30 217 184z" />
<glyph unicode="%" horiz-adv-x="1686" d="M399 1483q145 0 223 -119t78 -342.5t-76.5 -340t-221 -116.5t-221.5 119.5t-77 341.5q0 457 295 457zM512 0h-147l811 1462h147zM399 1364q-82 0 -119.5 -82.5t-37.5 -255.5t37.5 -256.5t119.5 -83.5q164 0 164 339t-164 339zM1059 782q75 115 219.5 115t223.5 -118.5 t79 -342t-76.5 -340t-221.5 -116.5t-222 119t-77 343.5t75 339.5zM1404 693.5q-40 82.5 -123.5 82.5t-121 -81.5t-37.5 -255t37.5 -257t121 -83.5t123.5 83.5t40 256t-40 255z" />
<glyph unicode="&#x26;" horiz-adv-x="1495" d="M565 -20q-216 0 -334 106t-118 293q0 129 69 230q70 100 250 202q-82 91 -114 141q-68 107 -68 215q0 150 98 234t266.5 84t261 -83t92.5 -233q0 -107 -67 -199q-68 -89 -225 -182l407 -391q93 103 146 328h168q-67 -284 -205 -434l299 -291h-229l-185 178 q-119 -106 -239.5 -152t-272.5 -46zM751.5 1300q-51.5 48 -139.5 48t-143 -48t-55 -123t35 -136t124 -152q132 77 181 140t49 143t-51.5 128zM362 197q79 -68 207 -68q242 0 399 154l-436 424q-108 -66 -154 -111q-93 -88 -93 -209t77 -190z" />
<glyph unicode="'" horiz-adv-x="453" d="M279 934h-105l-41 528h186z" />
<glyph unicode="(" horiz-adv-x="606" d="M329.5 1040.5q-73.5 -230.5 -73.5 -472.5t74 -472.5t213 -419.5h-160q-147 171 -224 397.5t-77 489.5t77.5 494t223.5 405h162q-142 -191 -215.5 -421.5z" />
<glyph unicode=")" horiz-adv-x="606" d="M223 1462q148 -177 224.5 -408.5t76.5 -493.5t-77 -488.5t-224 -395.5h-160q139 187 213 418t74 473.5t-73.5 473t-215.5 421.5h162z" />
<glyph unicode="*" horiz-adv-x="1130" d="M614 1161l398 111l26 -182l-381 -31l248 -326l-172 -94l-176 362l-160 -362l-176 94l242 326l-377 31l29 182l391 -111l-43 395h194z" />
<glyph unicode="+" d="M653 791h412v-138h-412v-426h-139v426h-410v138h410v428h139v-428z" />
<glyph unicode="," horiz-adv-x="502" d="M350 238l15 -23q-25 -99 -74.5 -231t-102.5 -248h-125q29 111 59 257q31 140 46 245h182z" />
<glyph unicode="-" horiz-adv-x="659" d="M575 473h-491v152h491v-152z" />
<glyph unicode="." horiz-adv-x="545" d="M182.5 207q30.5 35 88 35t90 -35t32.5 -100.5t-32.5 -100.5t-88.5 -35t-88 33t-32 100.5t30.5 102.5z" />
<glyph unicode="/" horiz-adv-x="752" d="M186 0h-166l545 1462h166z" />
<glyph unicode="0" d="M221 1299.5q119 185.5 359.5 185.5t364.5 -192.5t124 -566t-120 -560t-360.5 -186.5t-363.5 191.5t-123 567t119 561zM824 1194q-74 147 -239 147t-240 -144.5t-75 -463.5t75 -464.5t240 -145.5t239.5 147.5t74.5 462.5t-75 461z" />
<glyph unicode="1" d="M715 0h-162v1042q0 123 8 246q-21 -22 -40.5 -39t-244.5 -200l-88 114l387 299h140v-1462z" />
<glyph unicode="2" d="M559 1483q207 0 323 -106q116 -104 116 -283q0 -138 -77 -274t-292 -345l-320 -313v-8h752v-154h-962v143l386 387q182 185 235 258t81 143t28 156q0 118 -71.5 186t-196.5 68q-91 0 -172.5 -30t-181.5 -109l-88 113q202 168 440 168z" />
<glyph unicode="3" d="M557 1483q212 0 330.5 -97.5t118.5 -267.5q0 -139 -78 -228.5t-223 -119.5v-8q174 -21 260 -110t86 -238q0 -210 -145 -322t-412 -112q-238 0 -401 79v158q195 -96 407 -96q379 0 379 297q0 266 -418 266h-144v143h146q171 0 271 75.5t100 209.5q0 107 -73.5 168 t-199.5 61q-94 0 -179.5 -25.5t-195.5 -96.5l-84 112q91 72 209 112t246 40z" />
<glyph unicode="4" d="M913 487h217v-151h-217v-336h-159v336h-711v145l694 989h176v-983zM754 487v485q0 153 10 324h-8q-48 -96 -90 -159l-457 -650h545z" />
<glyph unicode="5" d="M950 1309h-585l-37 -439q118 23 229 23q232 0 363 -115q133 -114 133 -313q0 -227 -144.5 -356t-395 -129t-380.5 79v160q72 -46 173.5 -71t205.5 -25q177 0 274 83.5t97 239.5q0 306 -375 306q-92 0 -254 -29l-86 55l55 684h727v-153z" />
<glyph unicode="6" d="M647 911q197 0 310.5 -118.5t113.5 -323.5q0 -228 -124.5 -358.5t-343.5 -130.5t-353 170q-133 170 -133 475q0 858 663 858q115 0 178 -19v-143q-75 25 -176 25q-237 0 -360 -148t-135 -459h12q109 172 348 172zM604 780q-123 0 -221 -83t-96 -191q-1 -102 39.5 -191 t114 -141.5t160.5 -52.5h7q143 0 221 90t78 247.5t-74 239.5t-217 82h-12z" />
<glyph unicode="7" d="M93 1309v153h974v-133l-598 -1329h-184l606 1309h-798z" />
<glyph unicode="8" d="M152 1135q0 159 118 253.5t316 94.5t315 -93.5t117 -256.5q0 -110 -68 -198.5t-213 -160.5q180 -86 252 -179q76 -92 76 -216q0 -182 -127 -291q-128 -108 -355 -108t-353 102.5t-126 290.5q0 251 306 391q-136 77 -197 166.5t-61 204.5zM781 1288q-72 60 -198.5 60 t-197 -60t-70.5 -155.5t59 -163.5q59 -65 218 -131q144 61 203 129.5t59 165.5t-73 155zM335 554.5q-67 -77.5 -67 -191.5t83.5 -181t233.5 -67t233 69.5t83 192.5q0 97 -78 172.5t-272 146.5q-149 -64 -216 -141.5z" />
<glyph unicode="9" d="M528 551q-194 0 -308 115.5t-114 323.5q0 230 127 361.5t336 131.5h10q217 0 349.5 -172t132.5 -464v-9q0 -858 -664 -858q-115 0 -184 20v143q81 -26 182 -26q240 0 362.5 148.5t133.5 455.5h-12q-54 -83 -145 -126.5t-206 -43.5zM348 1249.5q-78 -91.5 -78 -247.5 t73.5 -237t217.5 -81h12q127 0 223.5 81.5t96.5 184.5v6q1 104 -40 193t-115 140.5t-162 51.5h-7q-143 0 -221 -91.5z" />
<glyph unicode=":" horiz-adv-x="545" d="M270 1124q123 0 123 -136q0 -64 -32.5 -99t-88.5 -35t-88 33t-32 101q0 136 118 136zM182.5 207q30.5 35 88 35t90 -35t32.5 -100.5t-32.5 -100.5t-88.5 -35t-88 33t-32 100.5t30.5 102.5z" />
<glyph unicode=";" horiz-adv-x="545" d="M266 1124q123 0 123 -136q0 -64 -32.5 -99t-90.5 -35t-88.5 34.5t-30.5 99.5q0 136 119 136zM350 238l15 -23q-25 -99 -74.5 -231t-102.5 -248h-125q29 111 59 257q31 140 46 245h182z" />
<glyph unicode="&#x3c;" d="M1065 1092l-782 -371l782 -328v-151l-961 422v98l961 479v-149z" />
<glyph unicode="=" d="M1049 858h-930v136h930v-136zM1049 449h-930v137h930v-137z" />
<glyph unicode="&#x3e;" d="M1065 762v-98l-961 -422v151l783 326l-783 373v149z" />
<glyph unicode="?" horiz-adv-x="879" d="M27 1384q189 99 387.5 99t304.5 -94t106 -265q0 -133 -77 -234q-37 -48 -164 -159q-101 -86 -133.5 -143.5t-32.5 -151.5v-33h-129v54q0 117 36 192q35 75 134 160q137 116 172 174t35 139q0 102 -65.5 157.5t-188.5 55.5q-81 0 -155.5 -18.5t-170.5 -67.5zM360 242 q58 0 89.5 -35t31.5 -100t-32 -100.5t-88 -35.5t-88.5 33t-32.5 102q0 136 120 136z" />
<glyph unicode="@" horiz-adv-x="1841" d="M885 -186q-364 0 -564 199.5t-200 557.5q0 260 107 463t305 314q197 112 453 112q217 0 383 -91q167 -89 259 -256.5t92 -383.5q0 -140 -43.5 -258.5t-124 -184t-176 -65.5t-154.5 53t-69 132h-8q-40 -88 -115.5 -136.5t-175.5 -48.5q-150 0 -235 102q-84 103 -84 279 q0 204 118.5 331.5t309.5 127.5q72 0 157.5 -13t151.5 -34l-25 -470v-22q0 -178 133 -178q91 0 148 107.5t57 279.5v9q0 173 -74.5 308.5t-209.5 209t-306 73.5h-10h-12q-211 0 -375 -93t-251 -262.5t-87 -387.5v-10q0 -305 161 -469t464 -164q208 0 436 86v-133 q-192 -84 -436 -84zM963 938q-130 0 -203.5 -90t-73.5 -250q0 -254 195 -254q207 0 225 313l14 261q-74 20 -157 20z" />
<glyph unicode="A" horiz-adv-x="1296" d="M1296 0h-176l-182 465h-586l-180 -465h-172l578 1468h143zM885 618l-170 453q-34 88 -68 211q-22 -94 -63 -211l-172 -453h473z" />
<glyph unicode="B" horiz-adv-x="1327" d="M201 1462h413q290 0 420.5 -87t130.5 -275q0 -131 -73 -215t-211 -109v-10q333 -57 333 -350q0 -197 -133.5 -306.5t-369.5 -109.5h-510v1462zM371 1315v-479h280q179 0 259 56q78 56 78 185t-87 183.5t-280 54.5h-250zM371 692v-547h305q179 0 267.5 69t88.5 209 t-91 204.5t-279 64.5h-291z" />
<glyph unicode="C" horiz-adv-x="1292" d="M798 -20q-324 0 -499 196t-175 557v10q0 218 84.5 387t244 261t366.5 92h9q229 0 402 -84l-72 -146q-167 78 -332 78q-241 0 -380.5 -160.5t-139.5 -443t134 -440.5q135 -156 384 -156q154 0 349 55v-149q-156 -57 -375 -57z" />
<glyph unicode="D" horiz-adv-x="1493" d="M201 1462h448q341 0 530 -189t189 -528q0 -362 -197 -553.5t-565 -191.5h-405v1462zM371 1315v-1168h207q303 0 456.5 149.5t153.5 439t-144 434.5t-426 145h-247z" />
<glyph unicode="E" horiz-adv-x="1139" d="M1016 1311h-645v-471h605v-150h-605v-538h645v-152h-815v1462h815v-151z" />
<glyph unicode="F" horiz-adv-x="1057" d="M1016 1311h-645v-535h605v-151h-605v-625h-170v1462h815v-151z" />
<glyph unicode="G" horiz-adv-x="1491" d="M1341 55q-233 -75 -514 -75q-332 0 -517 197q-185 199 -185 554q0 229 91 400t263.5 261.5t404 90.5t435.5 -86l-66 -150q-198 84 -381 84q-267 0 -417 -159t-150 -448t144.5 -442t424.5 -153q149 0 297 35v450h-327v152h497v-711z" />
<glyph unicode="H" horiz-adv-x="1511" d="M1311 0h-170v688h-770v-688h-170v1462h170v-622h770v622h170v-1462z" />
<glyph unicode="I" horiz-adv-x="571" d="M371 0h-170v1462h170v-1462z" />
<glyph unicode="J" horiz-adv-x="547" d="M360 1462v-1448q0 -191 -96.5 -295t-275.5 -104q-94 0 -148 27v145q72 -20 148 -20q99 0 150.5 60t51.5 173v1462h170z" />
<glyph unicode="K" horiz-adv-x="1257" d="M371 0h-170v1462h170v-725l663 725h201l-588 -635l610 -827h-200l-533 709l-153 -136v-573z" />
<glyph unicode="L" horiz-adv-x="1063" d="M371 154h645v-154h-815v1462h170v-1308z" />
<glyph unicode="M" horiz-adv-x="1849" d="M1649 0h-170v942q0 154 14 352h-8l-501 -1294h-136l-496 1296h-8q14 -160 14 -366v-930h-157v1462h256l463 -1206h8l467 1206h254v-1462z" />
<glyph unicode="N" horiz-adv-x="1544" d="M1343 0h-194l-799 1227h-8q16 -209 16 -396v-831h-157v1462h192l797 -1222h8l-9 173q-5 104 -5 148.5v61.5v839h159v-1462z" />
<glyph unicode="O" horiz-adv-x="1595" d="M301 1288q176 197 495.5 197t496.5 -200t177 -552t-177.5 -552.5t-497 -200.5t-495.5 197q-175 197 -175 555.5t176 555.5zM1166.5 1180.5q-123.5 152.5 -366 152.5t-369 -153.5t-126.5 -448t126.5 -448.5t368.5 -154t366 153t124 449.5t-123.5 449z" />
<glyph unicode="P" horiz-adv-x="1233" d="M201 1462h379q548 0 548 -426q0 -222 -151.5 -341.5t-433.5 -119.5h-172v-575h-170v1462zM371 1315v-594h153q227 0 327.5 73.5t100.5 226t-95.5 223.5t-295.5 71h-190z" />
<glyph unicode="Q" horiz-adv-x="1595" d="M300 177q-175 197 -175 555.5t176 555.5t495.5 197t496.5 -200t177 -552q0 -280 -112.5 -466.5t-319.5 -252.5l348 -362h-247l-285 330l-55 -2q-323 0 -499 197zM1166.5 1180.5q-123.5 152.5 -366 152.5t-369 -153.5t-126.5 -448t126.5 -448.5t368.5 -154t366 153 t124 449.5t-123.5 449z" />
<glyph unicode="R" horiz-adv-x="1266" d="M201 1462h401q268 0 397 -102.5t129 -310.5q0 -290 -294 -392l397 -657h-201l-354 608h-305v-608h-170v1462zM371 1313v-559h233q179 0 263.5 71t84.5 215t-85.5 208.5t-274.5 64.5h-221z" />
<glyph unicode="S" horiz-adv-x="1124" d="M512 129q168 0 255 64t87 180q0 75 -30.5 124t-101 89.5t-218.5 93.5q-205 74 -292 174t-87 264.5t127 264.5t340 100t396 -80l-52 -148q-180 76 -352 76q-135 0 -211 -58t-76 -161q0 -75 28 -124t92.5 -88.5t205.5 -90.5q232 -84 317.5 -178t85.5 -242q0 -191 -140 -301 q-140 -108 -391 -108t-389 67v164q193 -82 406 -82z" />
<glyph unicode="T" horiz-adv-x="1133" d="M1114 1311h-463v-1311h-170v1311h-463v151h1096v-151z" />
<glyph unicode="U" horiz-adv-x="1491" d="M1305 1462v-946q0 -251 -151.5 -393.5t-414.5 -142.5t-409 144q-144 144 -144 396v942h170v-954q0 -184 100.5 -281.5t289.5 -97.5t289 99t100 282v952h170z" />
<glyph unicode="V" horiz-adv-x="1219" d="M692 0h-168l-524 1462h180l336 -946q56 -158 92 -317q37 167 94 323l334 940h183z" />
<glyph unicode="W" horiz-adv-x="1896" d="M1477 0h-168l-295 978q-24 71 -48 167.5t-26 116.5q-23 -134 -70 -290l-286 -972h-168l-389 1462h180l231 -903q47 -187 70 -344q26 179 80 358l262 889h180l275 -897q48 -154 81 -350q19 141 72 346l230 901h180z" />
<glyph unicode="X" horiz-adv-x="1182" d="M686 770l488 -770h-194l-392 643l-400 -643h-180l486 764l-453 698h188l363 -579l366 579h181z" />
<glyph unicode="Y" horiz-adv-x="1147" d="M659 0h-172v559l-487 903h186l387 -731l390 731h184l-488 -895v-567z" />
<glyph unicode="Z" horiz-adv-x="1169" d="M1087 154v-154h-1005v133l776 1176h-752v153h959v-133l-776 -1175h798z" />
<glyph unicode="[" horiz-adv-x="674" d="M623 1321h-289v-1503h289v-142h-457v1786h457v-141z" />
<glyph unicode="\" horiz-adv-x="752" d="M733 0h-166l-544 1462h163z" />
<glyph unicode="]" horiz-adv-x="674" d="M508 -324h-457v142h289v1503h-289v141h457v-1786z" />
<glyph unicode="^" horiz-adv-x="1110" d="M1059 551h-152l-372 745l-334 -745h-152l434 922h99z" />
<glyph unicode="_" horiz-adv-x="918" d="M922 -315h-926v131h926v-131z" />
<glyph unicode="`" horiz-adv-x="1182" d="M393 1569h203q32 -69 89 -159.5t101 -143.5v-25h-110q-66 52 -155 148.5t-128 158.5v21z" />
<glyph unicode="a" horiz-adv-x="1139" d="M217 1020q172 94 370 94t291.5 -87.5t93.5 -278.5v-748h-122l-33 156h-8q-82 -103 -163.5 -139.5t-203.5 -36.5q-163 0 -256 84.5t-93 238.5q0 331 532 348l186 6v68q0 130 -55.5 190.5t-186.5 60.5t-301 -83zM268 301q0 -89 54 -136.5t153 -47.5q155 0 243.5 85.5 t88.5 237.5v99l-166 -7q-198 -7 -285.5 -61.5t-87.5 -169.5z" />
<glyph unicode="b" horiz-adv-x="1255" d="M342 1556v-378q0 -121 -8 -228h8q116 164 338.5 164t340.5 -148q120 -147 120 -417.5t-120.5 -419.5t-340.5 -149t-338 161h-12l-35 -141h-119v1556h166zM893 869.5q-75 104.5 -238 104.5t-238 -97t-75 -327.5t77 -331.5q77 -99 247 -99q151 0 226.5 110t75.5 323 t-75 317.5z" />
<glyph unicode="c" horiz-adv-x="974" d="M614 -20q-238 0 -369 146q-130 146 -130 418t132 422q133 150 378 150q76 0 154.5 -16.5t127.5 -40.5l-51 -141q-56 22 -118 36t-117 14q-334 0 -334 -425q0 -203 82 -310.5t241 -107.5q136 0 281 59v-147q-112 -57 -277 -57z" />
<glyph unicode="d" horiz-adv-x="1255" d="M1079 0h-135l-22 147h-9q-116 -167 -337.5 -167t-341.5 147q-119 148 -119 418.5t120 420.5t338.5 150t337.5 -162h13l-7 79l-4 77v446h166v-1556zM913 510v35q0 233 -78 332q-75 99 -247 99q-146 0 -223.5 -112.5t-77.5 -321.5t77 -316t226 -107q170 0 246.5 92.5 t76.5 298.5z" />
<glyph unicode="e" horiz-adv-x="1149" d="M639 -20q-243 0 -384 148q-140 149 -140 413t130.5 419.5t344 155.5t332.5 -137q120 -133 120 -356v-105h-755q5 -192 97 -292.5t265 -100.5t345 74v-148q-87 -38 -166.5 -54.5t-188.5 -16.5zM864 653q0 156 -70 239.5t-200.5 83.5t-209.5 -85t-93 -238h573z" />
<glyph unicode="f" horiz-adv-x="694" d="M225 1163q0 404 353 404q85 0 204 -35l-43 -133q-94 31 -164 31q-94 0 -139 -63t-45 -200v-71h279v-129h-279v-967h-166v967h-196v75l196 60v61z" />
<glyph unicode="g" horiz-adv-x="1122" d="M496 174h194q178 0 273.5 -75t95.5 -218q0 -182 -146 -277.5t-426 -95.5q-215 0 -331.5 80t-116.5 226q0 100 64.5 173t179.5 99q-44 20 -71.5 60t-27.5 95.5t31.5 101t101.5 87.5q-84 34 -139 119q-53 85 -53 192q0 179 108 277t306 98q84 0 155 -20h379v-106l-203 -23 q72 -91 72 -219q0 -161 -110 -257t-302 -96q-46 0 -92 8q-106 -55 -106 -141q0 -46 38 -67t126 -21zM532 994q-118 0 -180.5 -63t-62.5 -181.5t64.5 -178t181.5 -59.5q243 0 243 236q0 246 -246 246zM637 25h-199q-114 0 -176.5 -54t-62.5 -149q0 -187 290 -187 q205 0 307.5 61t102.5 171q0 90 -55 124t-207 34z" />
<glyph unicode="h" horiz-adv-x="1257" d="M342 1556v-471q0 -83 -8 -141h10q49 80 140 125t206 45q203 0 302.5 -97t99.5 -302v-715h-166v709q0 135 -61.5 200t-190.5 65q-175 0 -253.5 -93.5t-78.5 -307.5v-573h-166v1556h166z" />
<glyph unicode="i" horiz-adv-x="518" d="M189 1475.5q27 27.5 70 27.5t71 -28t28 -82t-28 -82.5t-71 -28.5t-70 28.5t-27 83t27 82zM342 0h-166v1096h166v-1096z" />
<glyph unicode="j" horiz-adv-x="518" d="M189 1475.5q27 27.5 70 27.5t71 -28t28 -82t-28 -82.5t-71 -28.5t-70 28.5t-27 83t27 82zM342 1096v-1264q0 -324 -299 -324q-97 0 -154 25v135q71 -20 143 -20q144 0 144 172v1276h166z" />
<glyph unicode="k" horiz-adv-x="1075" d="M340 1556v-825q0 -47 -8 -170h8q46 64 131 160l354 375h197l-444 -467l475 -629h-201l-387 518l-125 -108v-410h-164v1556h164z" />
<glyph unicode="l" horiz-adv-x="518" d="M342 0h-166v1556h166v-1556z" />
<glyph unicode="m" horiz-adv-x="1905" d="M1368 1116q188 0 279.5 -97t91.5 -304v-715h-166v713q0 132 -56.5 196.5t-173.5 64.5q-155 0 -229 -88.5t-74 -273.5v-612h-166v713q0 132 -56.5 196.5t-174.5 64.5q-157 0 -229 -93t-72 -306v-575h-166v1096h135l27 -150h8q47 80 132.5 125t191.5 45q256 0 336 -186h8 q49 87 142.5 136.5t211.5 49.5z" />
<glyph unicode="n" horiz-adv-x="1257" d="M694 1116q200 0 299 -97t99 -304v-715h-166v709q0 135 -61.5 200t-190.5 65q-173 0 -252.5 -93t-79.5 -306v-575h-166v1096h135l27 -150h8q51 81 142.5 125.5t205.5 44.5z" />
<glyph unicode="o" horiz-adv-x="1237" d="M114 549q0 268 133.5 417.5t368 149.5t368.5 -153q137 -152 137 -417t-135 -415.5t-373 -150.5h-8q-217 0 -354 154t-137 401v14zM615 974q-329 0 -329 -425q0 -210 84.5 -320t247 -110t247 109.5t84.5 319.5t-84.5 318t-249.5 108z" />
<glyph unicode="p" horiz-adv-x="1255" d="M342 946q120 170 340.5 170t339.5 -149t119 -419t-120.5 -419t-340.5 -149t-338 161h-12q12 -96 12 -182v-451h-166v1588h135l23 -150h8zM342 549q0 -230 77 -331q77 -99 247 -99q143 0 222.5 114.5t79.5 318t-79.5 313t-226.5 109.5q-169 0 -244 -93t-76 -295v-37z" />
<glyph unicode="q" horiz-adv-x="1255" d="M565 -20q-212 0 -331 149t-119 417t120 419t339 151t341 -170h9l24 150h131v-1588h-166v469q0 95 11 170h-13q-116 -167 -346 -167zM913 545q0 230 -78 330.5t-247 100.5q-146 0 -223.5 -112.5t-77.5 -320.5t77 -316t226 -108q165 0 241.5 88.5t81.5 300.5v37z" />
<glyph unicode="r" horiz-adv-x="836" d="M676 1116q72 0 131 -12l-23 -154q-68 15 -120 15q-134 0 -228 -107.5t-94 -269.5v-588h-166v1096h137l19 -203h8q61 108 147.5 165.5t188.5 57.5z" />
<glyph unicode="s" horiz-adv-x="976" d="M453 117q270 0 270 168q0 64 -55.5 109.5t-216.5 107.5q-154 57 -218.5 100t-95.5 96t-31 129q0 133 109 211t292 78t353 -72l-59 -135q-164 67 -289.5 67t-186.5 -36t-61 -102q0 -44 22 -75t72 -59t193 -81q195 -71 263.5 -143t68.5 -181q0 -153 -114.5 -236t-326 -83 t-333.5 69v154q170 -86 344 -86z" />
<glyph unicode="t" horiz-adv-x="723" d="M354 1096h318v-129h-318v-645q0 -98 46.5 -151.5t127.5 -53.5t152 20v-128q-24 -12 -78 -20.5t-96 -8.5q-318 0 -318 335v652h-157v80l157 69l70 234h96v-254z" />
<glyph unicode="u" horiz-adv-x="1257" d="M1081 0h-137l-24 147h-9q-51 -81 -141 -124t-207 -43q-203 0 -301 95.5t-98 303.5v717h168v-711q0 -135 61.5 -200.5t190.5 -65.5q172 0 251.5 94.5t79.5 306.5v576h166v-1096z" />
<glyph unicode="v" horiz-adv-x="1026" d="M610 0h-194l-416 1096h178l236 -650q82 -234 94 -296h8q10 52 67 213.5t265 732.5h178z" />
<glyph unicode="w" horiz-adv-x="1593" d="M1268 0h-197l-201 643q-14 43 -71 268h-8q-42 -181 -70 -270l-207 -641h-192l-299 1096h174q120 -462 161 -629q57 -222 64 -291h8q9 51 36 148.5t42 142.5l201 629h180l196 -629q58 -179 76 -289h8q5 36 19 98.5t211 819.5h172z" />
<glyph unicode="x" horiz-adv-x="1073" d="M631 561l401 -561h-188l-307 444l-310 -444h-188l401 561l-381 535h189l289 -420l288 420h187z" />
<glyph unicode="y" horiz-adv-x="1032" d="M166 -492q-74 0 -150 17v133q56 -12 123 -12q171 0 244 192l61 156l-442 1102h178l240 -625q77 -208 98 -309h8q14 51 50 160.5t276 773.5h178l-471 -1248q-72 -187 -164 -262q-93 -78 -229 -78z" />
<glyph unicode="z" horiz-adv-x="958" d="M877 129v-129h-795v113l598 854h-561v129h743v-129l-590 -838h605z" />
<glyph unicode="{" horiz-adv-x="776" d="M705 1462v-139q-230 -6 -230 -199v-295q0 -215 -223 -254v-12q223 -39 223 -254v-297q0 -100 57 -147t173 -49v-140q-190 2 -294 87t-104 239v303q0 102 -61.5 147.5t-184.5 45.5v141q129 2 187.5 47.5t58.5 142.5v306q0 155 108 241q109 86 290 86z" />
<glyph unicode="|" horiz-adv-x="1128" d="M635 -496h-141v2052h141v-2052z" />
<glyph unicode="}" horiz-adv-x="776" d="M72 1462q184 0 289.5 -87t105.5 -240v-306q0 -97 59 -142.5t189 -47.5v-141q-125 0 -186.5 -45.5t-61.5 -147.5v-303q0 -153 -103 -238.5t-292 -87.5v140q114 2 170.5 49t56.5 147v297q0 113 54 173t169 81v12q-223 39 -223 254v295q0 193 -227 199v139z" />
<glyph unicode="~" d="M1065 702q-104 -110 -236.5 -110t-277.5 65q-78 33 -121.5 44.5t-94 11.5t-113.5 -33t-118 -88v151q100 109 244 109q66 0 121.5 -13.5t167.5 -60.5t192 -47q55 0 118.5 32.5t117.5 88.5v-150z" />
<glyph unicode="&#xa1;" horiz-adv-x="547" d="M183.5 1082q31.5 36 87 36t89 -33.5t33.5 -102.5q0 -134 -121 -134q-59 0 -89.5 35t-30.5 99t31.5 100zM375 -373h-207l51 1057h105z" />
<glyph unicode="&#xa2;" d="M721 1483v-164q156 -6 265 -59l-48 -140q-134 51 -242 51q-171 0 -252.5 -105t-81.5 -320t79.5 -316.5t246.5 -101.5q140 0 282 59v-147q-103 -54 -251 -60v-200h-133v206q-203 32 -299.5 168.5t-96.5 386.5q0 509 396 570v172h135z" />
<glyph unicode="&#xa3;" d="M268 782v316q0 178 112 280.5t302 102.5t360 -84l-62 -133q-154 77 -287.5 77t-195 -63t-61.5 -201v-295h422v-127h-422v-221q0 -101 -33 -168.5t-106 -111.5h795v-154h-1029v141q205 46 205 291v223h-198v127h198z" />
<glyph unicode="&#xa5;" d="M982 692v-127h-316v-170h316v-127h-316v-268h-164v268h-316v127h316v170h-316v127h256l-411 770h178l375 -727l379 727h174l-416 -770h261z" />
<glyph unicode="&#xa6;" horiz-adv-x="1128" d="M635 780h-141v776h141v-776zM635 -496h-141v777h141v-777z" />
<glyph unicode="&#xa7;" horiz-adv-x="1057" d="M477 123q134 0 204.5 38t70.5 109q0 45 -23 74t-78.5 58.5t-183.5 77t-195 92t-100 102t-33 139.5t43 150.5t121 105.5q-78 42 -118 98.5t-40 137.5q0 122 104.5 191t299.5 69q94 0 172 -14t178 -54l-53 -131q-94 38 -165 52t-144 14q-232 0 -232 -123q0 -60 60.5 -101.5 t231.5 -103.5t246 -137.5t75 -182.5q0 -90 -40.5 -160.5t-115.5 -111.5q153 -81 153 -224.5t-116.5 -219.5t-332 -76t-343.5 65v148q78 -38 174 -60t180 -22zM770 758q0 83 -72.5 138t-259.5 114q-68 -21 -111 -69q-42 -49 -42 -112q0 -77 64.5 -128.5t234.5 -114.5l49 -19 q137 80 137 191z" />
<glyph unicode="&#xa8;" horiz-adv-x="1182" d="M334 1466.5q25 24.5 65.5 24.5t66.5 -24.5t26 -73t-26 -74t-66 -25.5t-65.5 25.5t-25.5 74t25 73zM780 1491q40 0 66 -24.5t26 -73t-26.5 -74t-65.5 -25.5t-64.5 25.5t-25.5 74t25 73t65 24.5z" />
<glyph unicode="&#xa9;" horiz-adv-x="1704" d="M470 83q-175 103 -273 276.5t-98 371t101 374.5t276 277.5t375.5 100.5t376 -100.5t276 -276.5t100.5 -374.5t-98 -372t-272.5 -276.5t-381.5 -103t-382 103zM1176 1290q-148 88 -323 88t-323.5 -87t-237.5 -236q-87 -149 -87 -323t87 -324.5t237 -237.5 q152 -86 324.5 -86t322 87.5t235.5 234.5q88 148 88 324t-87 324.5t-236 235.5zM883 274q-195 0 -298.5 121t-103.5 332t110 336q111 123 302 123q128 0 246 -60l-58 -118q-108 51 -188 51q-124 0 -192 -86.5t-68 -248t63.5 -242.5t194.5 -81q86 0 211 45v-124 q-114 -48 -219 -48z" />
<glyph unicode="&#xab;" horiz-adv-x="1018" d="M543 889l-289 -350l289 -351l-119 -71l-342 407v27l342 407zM938 889l-287 -350l287 -351l-117 -71l-344 407v27l344 407z" />
<glyph unicode="&#xac;" d="M1065 264h-137v389h-824v138h961v-527z" />
<glyph unicode="&#xad;" horiz-adv-x="659" d="M575 473h-491v152h491v-152z" />
<glyph unicode="&#xae;" horiz-adv-x="1704" d="M470 83q-175 103 -273 276.5t-98 371t101 374.5t276 277.5t375.5 100.5t376 -100.5t276 -276.5t100.5 -374.5t-98 -372t-272.5 -276.5t-381.5 -103t-382 103zM1176 1290q-148 88 -323 88t-323.5 -87t-237.5 -236q-87 -149 -87 -323t87 -324.5t237 -237.5 q152 -86 324.5 -86t322 87.5t235.5 234.5q88 148 88 324t-87 324.5t-236 235.5zM575 1176h261q165 0 243 -64.5t78 -198.5q0 -81 -42.5 -142t-120.5 -91l239 -395h-168l-207 354h-135v-354h-148v891zM723 1049v-287h108q79 0 128 41q49 43 49 111.5t-42.5 101.5t-136.5 33 h-106z" />
<glyph unicode="&#xaf;" horiz-adv-x="1024" d="M1030 1556h-1036v127h1036v-127z" />
<glyph unicode="&#xb0;" horiz-adv-x="877" d="M438 1483q130 0 221 -90.5t91 -221.5q0 -84 -41 -155.5t-114 -113.5t-157 -42q-130 0 -221 90q-90 90 -90 220t90 222q91 91 221 91zM440 1368q-82 0 -140 -57t-58 -139.5t58 -140t139 -57.5t138.5 57t57.5 141t-57 139q-56 57 -138 57z" />
<glyph unicode="&#xb1;" d="M653 791h412v-138h-412v-426h-139v426h-410v138h410v428h139v-428zM1065 0h-961v139h961v-139z" />
<glyph unicode="&#xb2;" horiz-adv-x="711" d="M344 1481q131 0 205 -65t74 -177q0 -79 -44 -154.5t-192 -214.5l-174 -165h440v-119h-604v104l236 230q85 81 128 132.5t59.5 89.5t16.5 97.5t-39 95t-98 35.5t-107 -19t-118 -69l-66 88q131 111 283 111z" />
<glyph unicode="&#xb3;" horiz-adv-x="711" d="M334 1481q137 0 215 -59.5t78 -166.5q0 -78 -39.5 -130t-110.5 -76q176 -47 176 -209q0 -129 -92 -200t-251.5 -71t-276.5 56v123q148 -68 270 -68q211 0 211 162q0 144 -231 144h-117v108h119q101 0 151.5 38.5t50.5 103.5t-40 99.5t-107 34.5q-110 0 -234 -78l-69 90 q139 99 297 99z" />
<glyph unicode="&#xb4;" horiz-adv-x="1182" d="M786 1569v-21q-45 -66 -132 -161t-150 -146h-111v25q48 62 103.5 150t87.5 153h202z" />
<glyph unicode="&#xb6;" horiz-adv-x="1341" d="M1120 -260h-114v1712h-213v-1712h-115v819q-62 -18 -146 -18q-215 0 -317 124t-102 381t109.5 383.5t340.5 126.5h557v-1816z" />
<glyph unicode="&#xb7;" horiz-adv-x="545" d="M182.5 823.5q30.5 34.5 88 34.5t90 -35t32.5 -100t-32.5 -100t-88.5 -35t-88 33t-32 100.5t30.5 102z" />
<glyph unicode="&#xb8;" horiz-adv-x="465" d="M436 -289q0 -98 -77 -150.5t-226 -52.5q-51 0 -96 9v106q48 -8 117 -8t108 21t39 68.5t-39 74.5q-43 27 -149 43l88 178h110l-55 -115q180 -39 180 -174z" />
<glyph unicode="&#xb9;" horiz-adv-x="711" d="M481 586h-133v579q0 91 6 181q-25 -25 -50.5 -46.5t-160.5 -115.5l-67 96l262 182h143v-876z" />
<glyph unicode="&#xbb;" horiz-adv-x="1018" d="M541 551v-27l-344 -407l-117 71l287 351l-287 350l117 69zM936 551v-27l-344 -407l-117 71l287 351l-287 350l117 69z" />
<glyph unicode="&#xbc;" horiz-adv-x="1597" d="M480 586h-133v579q0 91 6 181q-25 -25 -50.5 -46.5t-160.5 -115.5l-67 96l262 182h143v-876zM395 0h-143l903 1462h143zM1364 320h125v-117h-125v-203h-145v203h-402v101l408 579h139v-563zM1219 320v195q0 134 6 209q-10 -23 -51.5 -85t-48.5 -73l-168 -246h262z" />
<glyph unicode="&#xbd;" horiz-adv-x="1597" d="M451 586h-133v579q0 91 6 181q-25 -25 -50.5 -46.5t-160.5 -115.5l-67 96l262 182h143v-876zM327 0h-143l903 1462h143zM1190 896q131 0 205 -65t74 -177q0 -80 -44 -155t-192 -214l-174 -165h440v-120h-604v105l236 230q92 89 131.5 136t56 85.5t16.5 98t-39 95 t-98 35.5t-106.5 -19t-119.5 -69l-65 88q129 111 283 111z" />
<glyph unicode="&#xbe;" horiz-adv-x="1597" d="M327 1481q137 0 215 -59.5t78 -166.5q0 -78 -39.5 -130t-110.5 -76q176 -47 176 -209q0 -129 -92 -200t-251.5 -71t-276.5 56v123q148 -68 270 -68q211 0 211 162q0 144 -231 144h-117v108h119q101 0 151.5 38.5t50.5 103.5t-40 99.5t-107 34.5q-109 0 -235 -78l-68 90 q139 99 297 99zM487 0h-143l903 1462h143zM1444 320h125v-117h-125v-203h-145v203h-402v101l408 579h139v-563zM1299 320v195q0 134 6 209q-10 -23 -51.5 -85t-48.5 -73l-168 -246h262z" />
<glyph unicode="&#xbf;" horiz-adv-x="879" d="M430 1082q33 36 87.5 36t88 -33.5t33.5 -102.5q0 -134 -121 -134q-59 0 -90 34.5t-31 99t33 100.5zM590 684v-51q0 -122 -38.5 -197t-145 -167.5t-138 -131.5t-44.5 -77.5t-13 -94.5q0 -100 66.5 -156.5t187.5 -56.5q82 0 157.5 19.5t170.5 66.5l59 -135 q-196 -96 -390.5 -96t-302.5 93t-108 263q0 97 32 159q19 36 33.5 59.5t51.5 60.5q42 41 135 123t124.5 138.5t31.5 149.5v31h131z" />
<glyph unicode="&#xc0;" horiz-adv-x="1296" d="M331 1907h203q32 -69 89 -159.5t101 -143.5v-25h-110q-66 52 -155 148.5t-128 158.5v21zM1296 0h-176l-182 465h-586l-180 -465h-172l578 1468h143zM885 618l-170 453q-34 88 -68 211q-22 -94 -63 -211l-172 -453h473z" />
<glyph unicode="&#xc1;" horiz-adv-x="1296" d="M919 1907v-21q-45 -66 -132 -161t-150 -146h-111v25q48 62 103.5 150t87.5 153h202zM1296 0h-176l-182 465h-586l-180 -465h-172l578 1468h143zM885 618l-170 453q-34 88 -68 211q-22 -94 -63 -211l-172 -453h473z" />
<glyph unicode="&#xc2;" horiz-adv-x="1296" d="M977 1579h-119q-86 54 -221 186q-137 -133 -219 -186h-115v23q129 139 180 203t72 102h166q24 -45 77 -108q46 -58 179 -197v-23zM1296 0h-176l-182 465h-586l-180 -465h-172l578 1468h143zM885 618l-170 453q-34 88 -68 211q-22 -94 -63 -211l-172 -453h473z" />
<glyph unicode="&#xc3;" horiz-adv-x="1296" d="M792 1581q-60 0 -164 60q-38 22 -54 31q-54 28 -98 28t-69.5 -29t-40.5 -92h-98q13 121 70.5 189.5t148.5 68.5q69 0 171 -59q15 -10 25 -15t20.5 -11t15 -8t14 -7t15 -7t13.5 -5t14 -4q18 -3 26 -3q47 0 71.5 28t40.5 93h99q-13 -122 -70 -190t-150 -68zM1296 0h-176 l-182 465h-586l-180 -465h-172l578 1468h143zM885 618l-170 453q-34 88 -68 211q-22 -94 -63 -211l-172 -453h473z" />
<glyph unicode="&#xc4;" horiz-adv-x="1296" d="M389 1804.5q25 24.5 65.5 24.5t66.5 -24.5t26 -73t-26 -74t-66 -25.5t-65.5 25.5t-25.5 74t25 73zM835 1829q40 0 66 -24.5t26 -73t-26.5 -74t-65.5 -25.5t-64.5 25.5t-25.5 74t25 73t65 24.5zM1296 0h-176l-182 465h-586l-180 -465h-172l578 1468h143zM885 618l-170 453 q-34 88 -68 211q-22 -94 -63 -211l-172 -453h473z" />
<glyph unicode="&#xc5;" horiz-adv-x="1296" d="M424 1585q0 98 60.5 155.5t161 57.5t162.5 -59t62 -152q0 -69 -31.5 -120t-87.5 -76l545 -1391h-176l-182 465h-586l-180 -465h-172l546 1388q-58 23 -90 74.5t-32 122.5zM645 1702q-52 0 -84.5 -31t-32.5 -86.5t30 -86t85 -30.5t87 31t32 86t-32.5 86t-84.5 31zM885 618 l-170 453q-34 88 -68 211q-22 -94 -63 -211l-172 -453h473z" />
<glyph unicode="&#xc6;" horiz-adv-x="1788" d="M1665 1311h-580v-471h541v-150h-541v-538h580v-152h-750v465h-514l-227 -465h-176l698 1462h969v-151zM915 618v693h-118l-328 -693h446z" />
<glyph unicode="&#xc7;" horiz-adv-x="1292" d="M827 1331q-241 0 -380.5 -160.5t-139.5 -444t134.5 -439.5t383.5 -156q154 0 349 55v-149q-145 -55 -359 -57l-45 -95q180 -39 180 -174q0 -98 -77 -150.5t-226 -52.5q-51 0 -96 9v106q48 -8 117 -8t108 21t39 68.5t-39 74.5q-43 27 -149 43l80 162q-280 28 -431 221.5 t-151 527.5q0 226 85 396t244 262q160 92 382 92t395 -84l-72 -146q-167 78 -332 78z" />
<glyph unicode="&#xc8;" horiz-adv-x="1139" d="M320 1907h203q32 -69 89 -159.5t101 -143.5v-25h-110q-66 52 -155 148.5t-128 158.5v21zM1016 1311h-645v-471h606v-150h-606v-538h645v-152h-815v1462h815v-151z" />
<glyph unicode="&#xc9;" horiz-adv-x="1139" d="M849 1907v-21q-45 -66 -132 -161t-150 -146h-111v25q48 62 103.5 150t87.5 153h202zM1016 1311h-645v-471h606v-150h-606v-538h645v-152h-815v1462h815v-151z" />
<glyph unicode="&#xca;" horiz-adv-x="1139" d="M937 1579h-119q-86 54 -221 186q-137 -133 -219 -186h-115v23q129 139 180 203t72 102h166q24 -45 77 -108q46 -58 179 -197v-23zM1016 1311h-645v-471h606v-150h-606v-538h645v-152h-815v1462h815v-151z" />
<glyph unicode="&#xcb;" horiz-adv-x="1139" d="M352 1804.5q25 24.5 65.5 24.5t66.5 -24.5t26 -73t-26 -74t-66 -25.5t-65.5 25.5t-25.5 74t25 73zM798 1829q40 0 66 -24.5t26 -73t-26.5 -74t-65.5 -25.5t-64.5 25.5t-25.5 74t25 73t65 24.5zM1016 1311h-645v-471h606v-150h-606v-538h645v-152h-815v1462h815v-151z" />
<glyph unicode="&#xcc;" horiz-adv-x="571" d="M5 1907h203q32 -69 89 -159.5t101 -143.5v-25h-110q-66 52 -155 148.5t-128 158.5v21zM371 0h-170v1462h170v-1462z" />
<glyph unicode="&#xcd;" horiz-adv-x="571" d="M572 1907v-21q-45 -66 -132 -161t-150 -146h-111v25q48 62 103.5 150t87.5 153h202zM371 0h-170v1462h170v-1462z" />
<glyph unicode="&#xce;" horiz-adv-x="571" d="M617 1579h-119q-86 54 -221 186q-137 -133 -219 -186h-115v23q129 139 180 203t72 102h166q24 -45 77 -108q46 -58 179 -197v-23zM371 0h-170v1462h170v-1462z" />
<glyph unicode="&#xcf;" horiz-adv-x="571" d="M30 1804.5q25 24.5 65.5 24.5t66.5 -24.5t26 -73t-26 -74t-66 -25.5t-65.5 25.5t-25.5 74t25 73zM476 1829q40 0 66 -24.5t26 -73t-26.5 -74t-65.5 -25.5t-64.5 25.5t-25.5 74t25 73t65 24.5zM371 0h-170v1462h170v-1462z" />
<glyph unicode="&#xd0;" horiz-adv-x="1479" d="M201 1462h434q338 0 527.5 -188t189.5 -529q0 -362 -196.5 -553.5t-565.5 -191.5h-389v649h-154v150h154v663zM371 1315v-516h379v-150h-379v-502h190q610 0 610 592q0 576 -569 576h-231z" />
<glyph unicode="&#xd1;" horiz-adv-x="1544" d="M935 1581q-60 0 -164 60q-38 22 -54 31q-54 28 -98 28t-69.5 -29t-40.5 -92h-98q13 121 70.5 189.5t148.5 68.5q69 0 171 -59q15 -10 25 -15t20.5 -11t15 -8t14 -7t15 -7t13.5 -5t14 -4q18 -3 26 -3q47 0 71.5 28t40.5 93h99q-13 -122 -70 -190t-150 -68zM1343 0h-194 l-799 1227h-8q16 -209 16 -396v-831h-157v1462h192l797 -1222h8q-4 43 -9 167.5t-5 163v52.5v839h159v-1462z" />
<glyph unicode="&#xd2;" horiz-adv-x="1595" d="M514 1907h203q32 -69 89 -159.5t101 -143.5v-25h-110q-66 52 -155 148.5t-128 158.5v21zM301.5 1289q176.5 196 495 196t496 -200t177.5 -552t-178 -552.5t-497 -200.5t-494.5 197t-175.5 556.5t176.5 555.5zM1166.5 1180.5q-123.5 152.5 -366 152.5t-369 -153.5 t-126.5 -448t126.5 -448.5t368.5 -154t366 153t124 449.5t-123.5 449z" />
<glyph unicode="&#xd3;" horiz-adv-x="1595" d="M1052 1907v-21q-45 -66 -132 -161t-150 -146h-111v25q48 62 103.5 150t87.5 153h202zM301.5 1289q176.5 196 495 196t496 -200t177.5 -552t-178 -552.5t-497 -200.5t-494.5 197t-175.5 556.5t176.5 555.5zM1166.5 1180.5q-123.5 152.5 -366 152.5t-369 -153.5 t-126.5 -448t126.5 -448.5t368.5 -154t366 153t124 449.5t-123.5 449z" />
<glyph unicode="&#xd4;" horiz-adv-x="1595" d="M1122 1579h-119q-86 54 -221 186q-136 -133 -219 -186h-115v23q129 139 180 203t72 102h166q24 -45 77 -108q46 -58 179 -197v-23zM301.5 1289q176.5 196 495 196t496 -200t177.5 -552t-178 -552.5t-497 -200.5t-494.5 197t-175.5 556.5t176.5 555.5zM1166.5 1180.5 q-123.5 152.5 -366 152.5t-369 -153.5t-126.5 -448t126.5 -448.5t368.5 -154t366 153t124 449.5t-123.5 449z" />
<glyph unicode="&#xd5;" horiz-adv-x="1595" d="M942 1581q-60 0 -164 60q-38 22 -54 31q-54 28 -98 28t-69.5 -29t-40.5 -92h-98q13 121 70.5 189.5t148.5 68.5q69 0 171 -59q15 -10 25 -15t20.5 -11t15 -8t14 -7t15 -7t13.5 -5t14 -4q18 -3 26 -3q47 0 71.5 28t40.5 93h99q-13 -122 -70 -190t-150 -68zM301.5 1289 q176.5 196 495 196t496 -200t177.5 -552t-178 -552.5t-497 -200.5t-494.5 197t-175.5 556.5t176.5 555.5zM1166.5 1180.5q-123.5 152.5 -366 152.5t-369 -153.5t-126.5 -448t126.5 -448.5t368.5 -154t366 153t124 449.5t-123.5 449z" />
<glyph unicode="&#xd6;" horiz-adv-x="1595" d="M547 1804.5q25 24.5 65.5 24.5t66.5 -24.5t26 -73t-26 -74t-66 -25.5t-65.5 25.5t-25.5 74t25 73zM993 1829q40 0 66 -24.5t26 -73t-26.5 -74t-65.5 -25.5t-64.5 25.5t-25.5 74t25 73t65 24.5zM301.5 1289q176.5 196 495 196t496 -200t177.5 -552t-178 -552.5 t-497 -200.5t-494.5 197t-175.5 556.5t176.5 555.5zM1166.5 1180.5q-123.5 152.5 -366 152.5t-369 -153.5t-126.5 -448t126.5 -448.5t368.5 -154t366 153t124 449.5t-123.5 449z" />
<glyph unicode="&#xd7;" d="M1036 1077l-352 -354l350 -352l-96 -99l-354 351l-348 -351l-101 99l350 352l-352 352l100 101l353 -355l354 355z" />
<glyph unicode="&#xd8;" horiz-adv-x="1595" d="M1278 1298q192 -203 192 -560t-178 -557.5t-493 -200.5q-235 0 -383 100l-101 -141l-120 79l108 154q-178 197 -178 559t176.5 558t499.5 196q209 0 366 -94l97 135l120 -80zM801 1333q-243 0 -369.5 -153.5t-126.5 -446.5q0 -261 101 -416l669 943q-106 73 -274 73z M799 129q243 0 367 153t124 451q0 271 -110 426l-672 -948q115 -82 291 -82z" />
<glyph unicode="&#xd9;" horiz-adv-x="1491" d="M463 1907h203q32 -69 89 -159.5t101 -143.5v-25h-110q-66 52 -155 148.5t-128 158.5v21zM1305 1462v-946q0 -250 -151 -393t-414.5 -143t-408.5 143.5t-145 396.5v942h170v-954q0 -184 100.5 -281.5t289.5 -97.5t289 98.5t100 282.5v952h170z" />
<glyph unicode="&#xda;" horiz-adv-x="1491" d="M993 1907v-21q-45 -66 -132 -161t-150 -146h-111v25q48 62 103.5 150t87.5 153h202zM1305 1462v-946q0 -250 -151 -393t-414.5 -143t-408.5 143.5t-145 396.5v942h170v-954q0 -184 100.5 -281.5t289.5 -97.5t289 98.5t100 282.5v952h170z" />
<glyph unicode="&#xdb;" horiz-adv-x="1491" d="M1067 1579h-119q-86 54 -221 186q-137 -133 -219 -186h-115v23q129 139 180 203t72 102h166q24 -45 77 -108q46 -58 179 -197v-23zM1305 1462v-946q0 -250 -151 -393t-414.5 -143t-408.5 143.5t-145 396.5v942h170v-954q0 -184 100.5 -281.5t289.5 -97.5t289 98.5 t100 282.5v952h170z" />
<glyph unicode="&#xdc;" horiz-adv-x="1491" d="M486 1804.5q25 24.5 65.5 24.5t66.5 -24.5t26 -73t-26 -74t-66 -25.5t-65.5 25.5t-25.5 74t25 73zM932 1829q40 0 66 -24.5t26 -73t-26.5 -74t-65.5 -25.5t-64.5 25.5t-25.5 74t25 73t65 24.5zM1305 1462v-946q0 -250 -151 -393t-414.5 -143t-408.5 143.5t-145 396.5v942 h170v-954q0 -184 100.5 -281.5t289.5 -97.5t289 98.5t100 282.5v952h170z" />
<glyph unicode="&#xdd;" horiz-adv-x="1147" d="M835 1907v-21q-45 -66 -132 -161t-150 -146h-111v25q48 62 103.5 150t87.5 153h202zM659 0h-172v559l-487 903h186l387 -731l390 731h184l-488 -895v-567z" />
<glyph unicode="&#xde;" horiz-adv-x="1251" d="M371 1206h215q282 0 420.5 -103.5t138.5 -324.5t-151 -340t-439 -119h-184v-319h-170v1462h170v-256zM371 1059v-594h168q227 0 327.5 71.5t100.5 228t-95 225.5t-297 69h-204z" />
<glyph unicode="&#xdf;" horiz-adv-x="1274" d="M176 0v1202q0 179 111 272t324 93t325.5 -78.5t112.5 -217.5t-143 -255q-87 -69 -115.5 -103t-28.5 -66.5t13 -53t49.5 -49.5t113.5 -80q138 -93 190 -171.5t52 -181.5q0 -160 -97 -245.5t-281 -85.5t-290 69v154q64 -39 142 -62.5t149 -23.5q215 0 215 182 q0 75 -41 128.5t-160 129.5t-167 137.5t-48 145.5q0 62 34 115t108 109t105.5 100.5t31.5 97.5q0 80 -68 122.5t-195 42.5q-276 0 -276 -223v-1204h-166z" />
<glyph unicode="&#xe0;" horiz-adv-x="1139" d="M279 1569h203q32 -69 89 -159.5t101 -143.5v-25h-110q-66 52 -155 148.5t-128 158.5v21zM217 1020q172 94 370 94t292 -87.5t94 -278.5v-748h-123l-33 156h-8q-80 -101 -161 -138.5t-206 -37.5q-164 0 -256 84.5t-92 238.5q0 331 531 348l186 6v68q0 130 -56 191 t-185.5 61t-301.5 -84zM268 301q0 -89 54 -136.5t153 -47.5q156 0 244 85t88 238v99l-166 -7q-198 -7 -285.5 -61.5t-87.5 -169.5z" />
<glyph unicode="&#xe1;" horiz-adv-x="1139" d="M829 1569v-21q-45 -66 -132 -161t-150 -146h-111v25q48 62 103.5 150t87.5 153h202zM217 1020q172 94 370 94t292 -87.5t94 -278.5v-748h-123l-33 156h-8q-80 -101 -161 -138.5t-206 -37.5q-164 0 -256 84.5t-92 238.5q0 331 531 348l186 6v68q0 130 -56 191t-185.5 61 t-301.5 -84zM268 301q0 -89 54 -136.5t153 -47.5q156 0 244 85t88 238v99l-166 -7q-198 -7 -285.5 -61.5t-87.5 -169.5z" />
<glyph unicode="&#xe2;" horiz-adv-x="1139" d="M902 1241h-119q-86 54 -221 186q-136 -133 -219 -186h-115v23q129 139 180 203t72 102h166q24 -45 77 -108q46 -58 179 -197v-23zM217 1020q172 94 370 94t292 -87.5t94 -278.5v-748h-123l-33 156h-8q-80 -101 -161 -138.5t-206 -37.5q-164 0 -256 84.5t-92 238.5 q0 331 531 348l186 6v68q0 130 -56 191t-185.5 61t-301.5 -84zM268 301q0 -89 54 -136.5t153 -47.5q156 0 244 85t88 238v99l-166 -7q-198 -7 -285.5 -61.5t-87.5 -169.5z" />
<glyph unicode="&#xe3;" horiz-adv-x="1139" d="M721 1243q-60 0 -164 60q-38 22 -54 31q-54 28 -98 28t-69.5 -29t-40.5 -92h-98q13 121 70.5 189.5t148.5 68.5q69 0 171 -59q15 -10 25 -15t20.5 -11t15 -8t14 -7t15 -7t13.5 -5t14 -4q18 -3 26 -3q47 0 71.5 28t40.5 93h99q-13 -122 -70 -190t-150 -68zM217 1020 q172 94 370 94t292 -87.5t94 -278.5v-748h-123l-33 156h-8q-80 -101 -161 -138.5t-206 -37.5q-164 0 -256 84.5t-92 238.5q0 331 531 348l186 6v68q0 130 -56 191t-185.5 61t-301.5 -84zM268 301q0 -89 54 -136.5t153 -47.5q156 0 244 85t88 238v99l-166 -7 q-198 -7 -285.5 -61.5t-87.5 -169.5z" />
<glyph unicode="&#xe4;" horiz-adv-x="1139" d="M304 1466.5q25 24.5 65.5 24.5t66.5 -24.5t26 -73t-26 -74t-66 -25.5t-65.5 25.5t-25.5 74t25 73zM750 1491q40 0 66 -24.5t26 -73t-26.5 -74t-65.5 -25.5t-64.5 25.5t-25.5 74t25 73t65 24.5zM217 1020q172 94 370 94t292 -87.5t94 -278.5v-748h-123l-33 156h-8 q-80 -101 -161 -138.5t-206 -37.5q-164 0 -256 84.5t-92 238.5q0 331 531 348l186 6v68q0 130 -56 191t-185.5 61t-301.5 -84zM268 301q0 -89 54 -136.5t153 -47.5q156 0 244 85t88 238v99l-166 -7q-198 -7 -285.5 -61.5t-87.5 -169.5z" />
<glyph unicode="&#xe5;" horiz-adv-x="1139" d="M418.5 1611.5q60.5 57.5 161 57.5t162.5 -59t62 -154.5t-61.5 -155t-163 -59.5t-161.5 58.5t-60 156.5t60.5 155.5zM579 1573q-52 0 -84.5 -31t-32.5 -86.5t30 -86t85 -30.5t87 31t32 86t-32.5 86t-84.5 31zM217 1020q172 94 370 94t292 -87.5t94 -278.5v-748h-123 l-33 156h-8q-80 -101 -161 -138.5t-206 -37.5q-164 0 -256 84.5t-92 238.5q0 331 531 348l186 6v68q0 130 -56 191t-185.5 61t-301.5 -84zM268 301q0 -89 54 -136.5t153 -47.5q156 0 244 85t88 238v99l-166 -7q-198 -7 -285.5 -61.5t-87.5 -169.5z" />
<glyph unicode="&#xe6;" horiz-adv-x="1757" d="M557 1114q131 0 213 -44t123 -138q54 89 139.5 136.5t194.5 47.5q192 0 308 -133.5t116 -355.5v-107h-701q8 -395 322 -395q173 0 332 74v-148q-88 -39 -162 -55t-174 -16q-289 0 -414 233q-80 -125 -177.5 -179t-234.5 -54q-163 0 -255.5 85t-92.5 243t125 246.5 t377 96.5l184 6v68q0 129 -57.5 190.5t-177.5 61.5q-143 0 -307 -84l-52 127q76 42 175.5 68t195.5 26zM1473 653q0 156 -64 240t-184.5 84t-190 -83t-80.5 -241h519zM268 301q0 -92 52 -138t143 -46q146 0 229.5 85t83.5 238v99l-158 -7q-186 -8 -268 -62.5t-82 -168.5z " />
<glyph unicode="&#xe7;" horiz-adv-x="975" d="M621 969q-334 0 -334 -426q0 -203 82 -310.5t241 -107.5q136 0 281 59v-147q-105 -54 -264 -57l-45 -95q180 -39 180 -174q0 -98 -77 -150.5t-226 -52.5q-51 0 -96 9v106q48 -8 117 -8t108 21t39 68.5t-39 74.5q-43 27 -149 43l81 164q-195 29 -300 172.5t-105 382.5 q0 276 132.5 425.5t377.5 149.5q77 0 156.5 -16.5t125.5 -40.5l-51 -141q-128 51 -235 51z" />
<glyph unicode="&#xe8;" horiz-adv-x="1149" d="M318 1569h203q32 -69 89 -159.5t101 -143.5v-25h-110q-66 52 -155 148.5t-128 158.5v21zM639 -20q-244 0 -384 148.5t-140 411.5t130.5 419.5t343 156.5t333 -135t120.5 -358v-105h-755q5 -192 97 -292.5t264.5 -100.5t346.5 74v-148q-89 -39 -168 -55t-188 -16zM864 653 q0 156 -70 240t-200.5 84t-209.5 -85.5t-93 -238.5h573z" />
<glyph unicode="&#xe9;" horiz-adv-x="1149" d="M864 1569v-21q-45 -66 -132 -161t-150 -146h-111v25q48 62 103.5 150t87.5 153h202zM639 -20q-244 0 -384 148.5t-140 411.5t130.5 419.5t343 156.5t333 -135t120.5 -358v-105h-755q5 -192 97 -292.5t264.5 -100.5t346.5 74v-148q-89 -39 -168 -55t-188 -16zM864 653 q0 156 -70 240t-200.5 84t-209.5 -85.5t-93 -238.5h573z" />
<glyph unicode="&#xea;" horiz-adv-x="1149" d="M933 1241h-119q-86 54 -221 186q-137 -133 -219 -186h-115v23q129 139 180 203t72 102h166q24 -45 77 -108q46 -58 179 -197v-23zM639 -20q-244 0 -384 148.5t-140 411.5t130.5 419.5t343 156.5t333 -135t120.5 -358v-105h-755q5 -192 97 -292.5t264.5 -100.5t346.5 74 v-148q-89 -39 -168 -55t-188 -16zM864 653q0 156 -70 240t-200.5 84t-209.5 -85.5t-93 -238.5h573z" />
<glyph unicode="&#xeb;" horiz-adv-x="1149" d="M344 1466.5q25 24.5 65.5 24.5t66.5 -24.5t26 -73t-26 -74t-66 -25.5t-65.5 25.5t-25.5 74t25 73zM790 1491q40 0 66 -24.5t26 -73t-26.5 -74t-65.5 -25.5t-64.5 25.5t-25.5 74t25 73t65 24.5zM639 -20q-244 0 -384 148.5t-140 411.5t130.5 419.5t343 156.5t333 -135 t120.5 -358v-105h-755q5 -192 97 -292.5t264.5 -100.5t346.5 74v-148q-89 -39 -168 -55t-188 -16zM864 653q0 156 -70 240t-200.5 84t-209.5 -85.5t-93 -238.5h573z" />
<glyph unicode="&#xec;" horiz-adv-x="518" d="M-38 1569h203q32 -69 89 -159.5t101 -143.5v-25h-110q-66 52 -155 148.5t-128 158.5v21zM342 0h-166v1096h166v-1096z" />
<glyph unicode="&#xed;" horiz-adv-x="518" d="M562 1569v-21q-45 -66 -132 -161t-150 -146h-111v25q48 62 103.5 150t87.5 153h202zM342 0h-166v1096h166v-1096z" />
<glyph unicode="&#xee;" horiz-adv-x="518" d="M597 1241h-119q-86 54 -221 186q-137 -133 -219 -186h-115v23q129 139 180 203t72 102h166q24 -45 77 -108q46 -58 179 -197v-23zM342 0h-166v1096h166v-1096z" />
<glyph unicode="&#xef;" horiz-adv-x="518" d="M5 1466.5q25 24.5 65.5 24.5t66.5 -24.5t26 -73t-26 -74t-66 -25.5t-65.5 25.5t-25.5 74t25 73zM451 1491q40 0 66 -24.5t26 -73t-26.5 -74t-65.5 -25.5t-64.5 25.5t-25.5 74t25 73t65 24.5zM342 0h-166v1096h166v-1096z" />
<glyph unicode="&#xf0;" horiz-adv-x="1221" d="M1122 563q0 -282 -131 -432.5t-377 -150.5q-224 0 -362.5 135.5t-138.5 362t131 358t354.5 131.5t323.5 -121l8 4q-57 215 -262 405l-271 -155l-73 108l233 133q-91 61 -186 111l69 117q158 -74 258 -148l238 138l76 -107l-207 -119q153 -144 235 -343t82 -427zM618 829 q-337 0 -337 -360q0 -167 87.5 -258.5t254.5 -91.5q331 0 331 393q0 147 -90 232t-246 85z" />
<glyph unicode="&#xf1;" horiz-adv-x="1257" d="M802 1243q-60 0 -164 60q-38 22 -54 31q-54 28 -98 28t-69.5 -29t-40.5 -92h-98q13 121 70.5 189.5t148.5 68.5q69 0 171 -59q15 -10 25 -15t20.5 -11t15 -8t14 -7t15 -7t13.5 -5t14 -4q18 -3 26 -3q47 0 71.5 28t40.5 93h99q-13 -122 -70 -190t-150 -68zM694 1116 q201 0 299.5 -97t98.5 -304v-715h-166v709q0 135 -61.5 200.5t-190.5 65.5q-173 0 -252.5 -94t-79.5 -306v-575h-166v1096h135l27 -150h8q51 81 142.5 125.5t205.5 44.5z" />
<glyph unicode="&#xf2;" horiz-adv-x="1237" d="M349 1569h203q32 -69 89 -159.5t101 -143.5v-25h-110q-66 52 -155 148.5t-128 158.5v21zM249 966q134 150 368 150t369.5 -153t135.5 -417t-135 -415t-373 -151q-147 0 -261 69t-176 198.5t-62 301.5q0 267 134 417zM616 975q-329 0 -329 -426q0 -210 84.5 -320t247 -110 t247 109.5t84.5 320t-84.5 318.5t-249.5 108z" />
<glyph unicode="&#xf3;" horiz-adv-x="1237" d="M872 1569v-21q-45 -66 -132 -161t-150 -146h-111v25q48 62 103.5 150t87.5 153h202zM249 966q134 150 368 150t369.5 -153t135.5 -417t-135 -415t-373 -151q-147 0 -261 69t-176 198.5t-62 301.5q0 267 134 417zM616 975q-329 0 -329 -426q0 -210 84.5 -320t247 -110 t247 109.5t84.5 320t-84.5 318.5t-249.5 108z" />
<glyph unicode="&#xf4;" horiz-adv-x="1237" d="M956 1241h-119q-86 54 -221 186q-136 -133 -219 -186h-115v23q129 139 180 203t72 102h166q24 -45 77 -108q46 -58 179 -197v-23zM249 966q134 150 368 150t369.5 -153t135.5 -417t-135 -415t-373 -151q-147 0 -261 69t-176 198.5t-62 301.5q0 267 134 417zM616 975 q-329 0 -329 -426q0 -210 84.5 -320t247 -110t247 109.5t84.5 320t-84.5 318.5t-249.5 108z" />
<glyph unicode="&#xf5;" horiz-adv-x="1237" d="M773 1243q-60 0 -164 60q-38 22 -54 31q-54 28 -98 28t-69.5 -29t-40.5 -92h-98q13 121 70.5 189.5t148.5 68.5q69 0 171 -59q15 -10 25 -15t20.5 -11t15 -8t14 -7t15 -7t13.5 -5t14 -4q18 -3 26 -3q47 0 71.5 28t40.5 93h99q-13 -122 -70 -190t-150 -68zM249 966 q134 150 368 150t369.5 -153t135.5 -417t-135 -415t-373 -151q-147 0 -261 69t-176 198.5t-62 301.5q0 267 134 417zM616 975q-329 0 -329 -426q0 -210 84.5 -320t247 -110t247 109.5t84.5 320t-84.5 318.5t-249.5 108z" />
<glyph unicode="&#xf6;" horiz-adv-x="1237" d="M361 1466.5q25 24.5 65.5 24.5t66.5 -24.5t26 -73t-26 -74t-66 -25.5t-65.5 25.5t-25.5 74t25 73zM807 1491q40 0 66 -24.5t26 -73t-26.5 -74t-65.5 -25.5t-64.5 25.5t-25.5 74t25 73t65 24.5zM249 966q134 150 368 150t369.5 -153t135.5 -417t-135 -415t-373 -151 q-147 0 -261 69t-176 198.5t-62 301.5q0 267 134 417zM616 975q-329 0 -329 -426q0 -210 84.5 -320t247 -110t247 109.5t84.5 320t-84.5 318.5t-249.5 108z" />
<glyph unicode="&#xf7;" d="M500 1161q29 31 82.5 31t82.5 -31.5t29 -89t-29.5 -89.5t-81 -32t-82 31.5t-30.5 90t29 89.5zM1065 653h-961v138h961v-138zM500 463q29 31 82.5 31t82.5 -31.5t29 -89t-29.5 -89.5t-81 -32t-82 32t-30.5 90t29 89z" />
<glyph unicode="&#xf8;" horiz-adv-x="1237" d="M995 950q127 -151 127 -409.5t-135 -409.5t-373 -151q-153 0 -266 69l-84 -117l-114 78l94 131q-129 151 -129 413t134 412t372 150q155 0 270 -76l84 119l117 -76zM616 975q-329 0 -329 -426q0 -170 53 -273l465 646q-76 53 -189 53zM618 119q163 0 247.5 109.5 t84.5 320.5q0 163 -51 264l-465 -643q70 -51 184 -51z" />
<glyph unicode="&#xf9;" horiz-adv-x="1257" d="M333 1569h203q32 -69 89 -159.5t101 -143.5v-25h-110q-66 52 -155 148.5t-128 158.5v21zM1081 0h-137l-24 147h-9q-51 -81 -141 -124t-207 -43q-203 0 -301 96t-98 303v717h168v-711q0 -135 61.5 -200.5t190.5 -65.5q173 0 252 94.5t79 306.5v576h166v-1096z" />
<glyph unicode="&#xfa;" horiz-adv-x="1257" d="M899 1569v-21q-45 -66 -132 -161t-150 -146h-111v25q48 62 103.5 150t87.5 153h202zM1081 0h-137l-24 147h-9q-51 -81 -141 -124t-207 -43q-203 0 -301 96t-98 303v717h168v-711q0 -135 61.5 -200.5t190.5 -65.5q173 0 252 94.5t79 306.5v576h166v-1096z" />
<glyph unicode="&#xfb;" horiz-adv-x="1257" d="M960 1241h-119q-86 54 -221 186q-136 -133 -219 -186h-115v23q129 139 180 203t72 102h166q24 -45 77 -108q46 -58 179 -197v-23zM1081 0h-137l-24 147h-9q-51 -81 -141 -124t-207 -43q-203 0 -301 96t-98 303v717h168v-711q0 -135 61.5 -200.5t190.5 -65.5 q173 0 252 94.5t79 306.5v576h166v-1096z" />
<glyph unicode="&#xfc;" horiz-adv-x="1257" d="M367 1466.5q25 24.5 65.5 24.5t66.5 -24.5t26 -73t-26 -74t-66 -25.5t-65.5 25.5t-25.5 74t25 73zM813 1491q40 0 66 -24.5t26 -73t-26.5 -74t-65.5 -25.5t-64.5 25.5t-25.5 74t25 73t65 24.5zM1081 0h-137l-24 147h-9q-51 -81 -141 -124t-207 -43q-203 0 -301 96 t-98 303v717h168v-711q0 -135 61.5 -200.5t190.5 -65.5q173 0 252 94.5t79 306.5v576h166v-1096z" />
<glyph unicode="&#xfd;" horiz-adv-x="1032" d="M804 1569v-21q-45 -66 -132 -161t-150 -146h-111v25q48 62 103.5 150t87.5 153h202zM166 -492q-74 0 -150 17v133q56 -12 123 -12q171 0 244 192l61 156l-442 1102h178l240 -625q77 -208 98 -309h8q15 56 50 161t276 773h178l-471 -1248q-69 -182 -162 -261t-231 -79z " />
<glyph unicode="&#xfe;" horiz-adv-x="1255" d="M342 1556v-466q0 -52 -6 -142h8q124 168 340.5 168t336.5 -150t120 -417.5t-120.5 -418t-338.5 -150.5t-340 161h-12l4 -34q8 -82 8 -140v-459h-166v2048h166zM342 549q0 -230 76.5 -330t247.5 -100q303 0 303 432q0 216 -74.5 320t-236 104t-238 -91.5t-78.5 -293.5v-41 z" />
<glyph unicode="&#xff;" horiz-adv-x="1032" d="M259 1466.5q25 24.5 65.5 24.5t66.5 -24.5t26 -73t-26 -74t-66 -25.5t-65.5 25.5t-25.5 74t25 73zM705 1491q40 0 66 -24.5t26 -73t-26.5 -74t-65.5 -25.5t-64.5 25.5t-25.5 74t25 73t65 24.5zM166 -492q-74 0 -150 17v133q56 -12 123 -12q171 0 244 192l61 156 l-442 1102h178l240 -625q77 -208 98 -309h8q15 56 50 161t276 773h178l-471 -1248q-69 -182 -162 -261t-231 -79z" />
<glyph unicode="&#x131;" horiz-adv-x="518" d="M342 0h-166v1096h166v-1096z" />
<glyph unicode="&#x152;" horiz-adv-x="1890" d="M1767 0h-768q-105 -20 -194 -20q-327 0 -503.5 196.5t-176.5 557.5t174 556t494 195q100 0 192 -23h782v-151h-589v-471h551v-150h-551v-538h589v-152zM811 1333q-249 0 -377.5 -152.5t-128.5 -448.5t128.5 -449.5t375.5 -153.5q112 0 199 33v1141q-87 30 -197 30z" />
<glyph unicode="&#x153;" horiz-adv-x="1929" d="M1430 -20q-294 0 -418 235q-62 -116 -166 -175.5t-242 -59.5q-224 0 -357.5 153t-133.5 417t131.5 414t365.5 150q132 0 234 -59.5t164 -173.5q58 113 154.5 173t221.5 60q201 0 320 -132.5t119 -358.5v-105h-729q8 -393 338 -393q177 0 342 74v-148q-88 -39 -164.5 -55 t-179.5 -16zM844.5 869q-77.5 106 -241.5 106t-240 -106t-76 -320.5t77 -322t240 -107.5t240.5 105.5t77.5 322t-77.5 322.5zM1642 653q0 158 -66 240t-193.5 82t-200 -82t-84.5 -240h544z" />
<glyph unicode="&#x160;" horiz-adv-x="1124" d="M240 1907h115q114 -73 219 -189q132 132 221 189h119v-25l-66 -68q-143 -148 -190 -235h-166q-22 40 -73.5 103.5t-178.5 199.5v25zM512 129q168 0 255 64t87 180q0 75 -30 124t-101.5 89.5t-218.5 93.5q-204 73 -291.5 173t-87.5 264.5t126.5 265t340 100.5t397.5 -80 l-53 -148q-180 76 -352 76q-135 0 -211 -58t-76 -161q0 -76 28 -124t94 -88.5t204 -90.5q227 -81 315 -174.5t88 -245.5q0 -192 -139.5 -300.5t-391 -108.5t-389.5 67v164q193 -82 406 -82z" />
<glyph unicode="&#x161;" horiz-adv-x="977" d="M165 1569h115q114 -73 219 -189q132 132 221 189h119v-25l-66 -68q-143 -148 -190 -235h-166q-22 40 -73.5 103.5t-178.5 199.5v25zM453 117q270 0 270 168q0 64 -55 110q-56 45 -217 107q-154 57 -217 100q-128 83 -128 221t109 215.5t292 77.5t353 -72l-59 -135 q-166 68 -290.5 68t-185.5 -36.5t-61 -102.5q0 -44 22 -75t72 -59t193 -81q191 -70 261.5 -141t70.5 -183q0 -153 -113.5 -236t-326 -83t-334.5 69v154q170 -86 344 -86z" />
<glyph unicode="&#x178;" horiz-adv-x="1147" d="M319 1804.5q25 24.5 65.5 24.5t66.5 -24.5t26 -73t-26 -74t-66 -25.5t-65.5 25.5t-25.5 74t25 73zM765 1829q40 0 66 -24.5t26 -73t-26.5 -74t-65.5 -25.5t-64.5 25.5t-25.5 74t25 73t65 24.5zM659 0h-172v559l-487 903h186l387 -731l390 731h184l-488 -895v-567z" />
<glyph unicode="&#x17d;" horiz-adv-x="1169" d="M249 1907h115q114 -73 219 -189q132 132 221 189h119v-25l-66 -68q-143 -148 -190 -235h-166q-22 40 -73.5 103.5t-178.5 199.5v25zM1087 154v-154h-1005v133l776 1176h-752v153h959v-133l-776 -1175h798z" />
<glyph unicode="&#x17e;" horiz-adv-x="958" d="M146 1569h115q114 -73 219 -189q132 132 221 189h119v-25l-66 -68q-143 -148 -190 -235h-166q-22 40 -73.5 103.5t-178.5 199.5v25zM877 129v-129h-795v113l598 854h-561v129h743v-129l-590 -838h605z" />
<glyph unicode="&#x192;" horiz-adv-x="1182" d="M498 1110q0 196 81 284.5t263 88.5q86 0 205 -43l-43 -129q-104 32 -162 32q-97 0 -137.5 -52.5t-40.5 -176.5v-149h282v-129h-278v-969q0 -185 -79 -272t-261 -87q-70 0 -133 19v139q70 -18 131 -18q94 0 133 50t39 165v973h-222v75l222 59v140z" />
<glyph unicode="&#x2c6;" horiz-adv-x="1212" d="M942 1241h-119q-86 54 -221 186q-136 -133 -219 -186h-115v23q129 139 180 203t72 102h166q24 -45 77 -108q46 -58 179 -197v-23z" />
<glyph unicode="&#x2c7;" horiz-adv-x="1212" d="M268 1569h115q114 -73 219 -189q132 132 221 189h119v-25l-66 -68q-143 -148 -190 -235h-166q-22 40 -73.5 103.5t-178.5 199.5v25z" />
<glyph unicode="&#x2d8;" horiz-adv-x="1212" d="M819.5 1312q-83.5 -71 -222.5 -71t-217 68.5t-87 199.5h104q11 -93 84 -118q35 -13 128 -13t141.5 31.5t58.5 99.5h104q-10 -126 -93.5 -197z" />
<glyph unicode="&#x2d9;" horiz-adv-x="518" d="M189 1475.5q27 27.5 70 27.5t71 -28t28 -82t-28 -82.5t-71 -28.5t-70 28.5t-27 83t27 82z" />
<glyph unicode="&#x2da;" horiz-adv-x="1182" d="M427.5 1611.5q60.5 57.5 161 57.5t162.5 -59t62 -154.5t-61.5 -155t-163 -59.5t-161.5 58.5t-60 156.5t60.5 155.5zM588 1573q-52 0 -84.5 -31t-32.5 -86.5t30 -86t85 -30.5t87 31t32 86t-32.5 86t-84.5 31z" />
<glyph unicode="&#x2db;" horiz-adv-x="403" d="M178 -238q0 -94 94 -94q44 0 97 13v-109q-65 -18 -125 -18q-207 0 -207 188q0 68 42 136t116 122h120q-72 -70 -104.5 -124t-32.5 -114z" />
<glyph unicode="&#x2dc;" horiz-adv-x="1212" d="M788 1243q-60 0 -164 60q-38 22 -54 31q-54 28 -98 28t-69.5 -29t-40.5 -92h-98q13 121 70.5 189.5t148.5 68.5q69 0 171 -59q15 -10 25 -15t20.5 -11t15 -8t14 -7t15 -7t13.5 -5t14 -4q18 -3 26 -3q47 0 71.5 28t40.5 93h99q-13 -122 -70 -190t-150 -68z" />
<glyph unicode="&#x2dd;" horiz-adv-x="1182" d="M594 1569v-21q-36 -62 -121.5 -160t-144.5 -147h-97v25q38 50 92.5 143.5t84.5 159.5h186zM950 1569v-21q-36 -62 -121.5 -160t-144.5 -147h-96v25q47 65 97.5 153.5t78.5 149.5h186z" />
<glyph unicode="&#x301;" horiz-adv-x="0" d="M-362 1569v-21q-45 -66 -132 -161t-150 -146h-111v25q48 62 103.5 150t87.5 153h202z" />
<glyph unicode="&#x303;" horiz-adv-x="0" d="M-475 1243q-60 0 -164 60q-38 22 -54 31q-54 28 -98 28t-69.5 -29t-40.5 -92h-98q13 121 70.5 189.5t148.5 68.5q69 0 171 -59q15 -10 25 -15t20.5 -11t15 -8t14 -7t15 -7t13.5 -5t14 -4q18 -3 26 -3q47 0 71.5 28t40.5 93h99q-13 -122 -70 -190t-150 -68z" />
<glyph unicode="&#x3bc;" horiz-adv-x="1268" d="M1092 0h-136l-26 147h-10q-111 -167 -340 -167q-149 0 -238 92h-10q10 -80 10 -244v-320h-166v1588h166v-715q0 -262 254 -262q172 0 251 95t79 306v576h166v-1096z" />
<glyph unicode="&#x5b0;" horiz-adv-x="0" d="M626 -92q73 0 73 -86.5t-73 -86.5q-70 0 -70 86.5t70 86.5zM626 -395q73 0 73 -86.5t-73 -86.5q-70 0 -70 86.5t70 86.5z" />
<glyph unicode="&#x5b1;" horiz-adv-x="0" d="M347 -92q73 0 73 -86.5t-73 -86.5q-70 0 -70 86.5t70 86.5zM677 -92q73 0 73 -86.5t-73 -86.5q-70 0 -70 86.5t70 86.5zM970 -92q73 0 73 -86.5t-73 -86.5q-70 0 -70 86.5t70 86.5zM511 -395q73 0 73 -86.5t-73 -86.5q-70 0 -70 86.5t70 86.5zM970 -395q73 0 73 -86.5 t-73 -86.5q-70 0 -70 86.5t70 86.5z" />
<glyph unicode="&#x5b2;" horiz-adv-x="0" d="M902 -92q73 0 73 -86.5t-73 -86.5q-70 0 -70 86.5t70 86.5zM726 -219h-410v82h410v-82zM902 -395q73 0 73 -86.5t-73 -86.5q-70 0 -70 86.5t70 86.5z" />
<glyph unicode="&#x5b3;" horiz-adv-x="0" d="M902 -92q73 0 73 -86.5t-73 -86.5q-70 0 -70 86.5t70 86.5zM726 -219h-164v-232h-82v232h-164v82h410v-82zM902 -395q73 0 73 -86.5t-73 -86.5q-70 0 -70 86.5t70 86.5z" />
<glyph unicode="&#x5b4;" horiz-adv-x="0" d="M626 -92q73 0 73 -86.5t-73 -86.5q-70 0 -70 86.5t70 86.5z" />
<glyph unicode="&#x5b5;" horiz-adv-x="0" d="M461 -92q73 0 73 -86.5t-73 -86.5q-70 0 -70 86.5t70 86.5zM791 -92q73 0 73 -86.5t-73 -86.5q-70 0 -70 86.5t70 86.5z" />
<glyph unicode="&#x5b6;" horiz-adv-x="0" d="M462 -92q73 0 73 -86.5t-73 -86.5q-70 0 -70 86.5t70 86.5zM792 -92q73 0 73 -86.5t-73 -86.5q-70 0 -70 86.5t70 86.5zM626 -395q73 0 73 -86.5t-73 -86.5q-70 0 -70 86.5t70 86.5z" />
<glyph unicode="&#x5b7;" horiz-adv-x="0" d="M831 -210h-410v82h410v-82z" />
<glyph unicode="&#x5b8;" horiz-adv-x="0" d="M831 -210h-164v-232h-82v232h-164v82h410v-82z" />
<glyph unicode="&#x5b9;" horiz-adv-x="0" d="M626 1564q73 0 73 -86.5t-73 -86.5q-70 0 -70 86.5t70 86.5z" />
<glyph unicode="&#x5ba;" horiz-adv-x="0" d="M626 1564q73 0 73 -86.5t-73 -86.5q-70 0 -70 86.5t70 86.5z" />
<glyph unicode="&#x5bb;" horiz-adv-x="0" d="M462 -92q73 0 73 -86.5t-73 -86.5q-70 0 -70 86.5t70 86.5zM626 -243q73 0 73 -86.5t-73 -86.5q-70 0 -70 86.5t70 86.5zM792 -395q73 0 73 -86.5t-73 -86.5q-70 0 -70 86.5t70 86.5z" />
<glyph unicode="&#x5bc;" horiz-adv-x="0" d="M626 735q73 0 73 -86.5t-73 -86.5q-70 0 -70 86.5t70 86.5z" />
<glyph unicode="&#x5bd;" horiz-adv-x="1256" d="M679 -509h-103v352h103v-352z" />
<glyph unicode="&#x5be;" horiz-adv-x="659" d="M575 1138h-491v152h491v-152z" />
<glyph unicode="&#x5c1;" horiz-adv-x="0" d="M572 1564q73 0 73 -86.5t-73 -86.5q-70 0 -70 86.5t70 86.5z" />
<glyph unicode="&#x5c2;" horiz-adv-x="0" d="M626 1564q73 0 73 -86.5t-73 -86.5q-70 0 -70 86.5t70 86.5z" />
<glyph unicode="&#x5c7;" horiz-adv-x="0" d="M521 -210h-161v-234h-93v234h-156v100h410v-100z" />
<glyph unicode="&#x5d0;" horiz-adv-x="1157" d="M1043 1290v-419q0 -82 -7 -141.5t-29 -125.5q-45 -134 -191 -191l249 -413h-187l-315 539l-152 228q-40 -15 -58 -30q-95 -77 -95 -258v-479h-166v419q0 219 65 325q26 43 72.5 80.5t111.5 59.5l-248 406h188l296 -499l167 -259q51 30 75.5 62t41 87t16.5 130v479h166z " />
<glyph unicode="&#x5d1;" horiz-adv-x="1093" d="M102 1295q160 15 375 15t318 -93.5t103 -316.5v-771h147v-129h-943v129h630v773q0 154 -69.5 210.5t-214.5 56.5q-155 0 -295 -11l-51 -4v141z" />
<glyph unicode="&#x5d2;" horiz-adv-x="857" d="M334 1176q-54 0 -122 -18v131q80 21 179 21q312 0 312 -343v-967h-137l-19 218h-8q-5 -12 -23.5 -42t-36.5 -52.5t-47 -49.5t-60.5 -47t-74 -33.5t-87.5 -13.5q-94 0 -140 13l24 152q42 -13 137 -13q70 0 149 58q94 71 134 190q23 69 23 150v423q0 121 -53 174 q-49 49 -150 49z" />
<glyph unicode="&#x5d3;" horiz-adv-x="1033" d="M985 1290v-114q-206 -59 -206 -288v-888h-166v888q0 59 14 108.5t34 77.5q41 58 74 75l14 7v5h-706v129h942z" />
<glyph unicode="&#x5d4;" horiz-adv-x="1257" d="M1078 1059q25 -70 25 -159v-900h-166v902q0 267 -358 267q-158 0 -349 -11l-70 -4v141q233 15 426.5 15t318.5 -58.5t173 -192.5zM326 0h-166v823h166v-823z" />
<glyph unicode="&#x5d5;" horiz-adv-x="486" d="M326 0h-166v1290h166v-1290z" />
<glyph unicode="&#x5d6;" horiz-adv-x="612" d="M565 1290v-129q-6 -3 -16 -9.5t-35.5 -36.5t-45 -69.5t-35.5 -114.5t-16 -166v-765h-166v763q0 71 17.5 138t42.5 111q53 94 93 128l17 16v5h-309v129h453z" />
<glyph unicode="&#x5d7;" horiz-adv-x="1257" d="M160 0v1295q233 15 442 15q178 0 300 -57q128 -60 176 -194q25 -70 25 -159v-900h-166v902q0 267 -358 267l-253 -9v-1160h-166z" />
<glyph unicode="&#x5d8;" horiz-adv-x="1252" d="M806.5 1141q-56.5 30 -135.5 30t-139 -10v136q59 13 142.5 13t156 -24t133.5 -76.5t104 -129.5q92 -162 92 -435q0 -136 -26 -247.5t-71.5 -188t-109.5 -129t-138 -76.5t-158 -24t-158 24t-138 76.5t-109.5 129t-71.5 188t-26 247.5v645h172v-645q0 -217 67 -361 q36 -78 103 -121.5t152 -43.5t143.5 29.5t95 78.5t59.5 119q41 123 41 299q0 87 -7 157.5t-28 141.5t-55 119t-90.5 78z" />
<glyph unicode="&#x5d9;" horiz-adv-x="453" d="M147 436v854h166v-684l-132 -170h-34z" />
<glyph unicode="&#x5da;" horiz-adv-x="971" d="M327 1310q84 0 155 -20t120.5 -53.5t88 -80t62 -96t39.5 -105.5q26 -96 26 -199v-1248h-166v1228q0 127 -28 212q-12 37 -36.5 79t-57.5 70t-85.5 47t-126 19t-144.5 -12.5t-101 -25.5l-30 -13v148q11 6 32 14t94.5 22t157.5 14z" />
<glyph unicode="&#x5db;" horiz-adv-x="934" d="M350 1310q84 0 155 -20t120.5 -53.5t88 -80t62 -96t38.5 -105.5q27 -96 27 -199v-219q0 -60 -11 -129.5t-28.5 -119t-55 -109.5t-88 -101t-132.5 -69.5t-173 -28.5t-160.5 9t-98.5 19l-28 9v150q131 -42 287 -42q61 0 110.5 17.5t82 44.5t57.5 66t38 76t21 79 q13 63 13 132v196q0 127 -28 212q-12 37 -36.5 79t-57.5 70t-85.5 47t-126 19t-144.5 -12.5t-101 -25.5l-30 -13v148q11 6 32 14t94.5 22t157.5 14z" />
<glyph unicode="&#x5dc;" horiz-adv-x="975" d="M236 1290h679v-129l-173 -660l-104 -501h-168l104 501l175 660h-679v393h166v-264z" />
<glyph unicode="&#x5dd;" horiz-adv-x="1257" d="M160 0v1283q175 27 442 27q501 0 501 -352v-958h-943zM937 129v805q0 63 -21 107.5t-52.5 69t-82.5 38t-95 17t-102 3.5q-122 0 -221 -8l-37 -3v-1029h611z" />
<glyph unicode="&#x5de;" horiz-adv-x="1228" d="M696 1310q189 0 283.5 -114t94.5 -314v-882h-440v129h274v746q0 295 -270 295q-47 0 -92.5 -16.5t-76.5 -39.5q-66 -51 -93 -88l-12 -16l-95 -1010h-167l94 992v22t-14 92t-35 122l-26 62h167q27 -45 46 -136h7q52 62 125 102q38 20 100 37t130 17z" />
<glyph unicode="&#x5df;" horiz-adv-x="463" d="M143 898q0 196 -70 390h166q8 -19 19.5 -53.5t31 -136.5t19.5 -200v-1390h-166v1390z" />
<glyph unicode="&#x5e0;" horiz-adv-x="879" d="M356 1176q-54 0 -122 -18v131q80 21 179 21q312 0 312 -343v-652q0 -81 -9.5 -160t-19.5 -117l-10 -38h-594v129h446q20 75 20 186v638q0 120 -52 174q-48 49 -150 49z" />
<glyph unicode="&#x5e1;" horiz-adv-x="1190" d="M595 1310q232 0 367.5 -165t135.5 -500q0 -136 -26 -247.5t-71.5 -188t-109.5 -129t-138 -76.5t-158 -24t-158 24t-138 76.5t-109.5 129t-71.5 188t-26 247.5q0 187 42.5 316.5t105.5 198.5l-128 -8v141q211 17 483 17zM302.5 935q-38.5 -147 -38.5 -272t15.5 -213.5 t51.5 -166t103 -121t161 -43.5t161 43.5t103 121.5q67 144 67 361q0 288 -96 416q-36 48 -96 77.5t-139 29.5l-179 -2q-75 -84 -113.5 -231z" />
<glyph unicode="&#x5e2;" horiz-adv-x="1256" d="M330 1290l154 -582q28 -128 120 -536q293 108 334 555l50 562h166l-49 -562q-10 -128 -37.5 -220.5t-57.5 -149.5t-81 -118t-116.5 -106t-161 -81t-211.5 -52l-370 -52v131l391 61l-303 1150h172z" />
<glyph unicode="&#x5e3;" horiz-adv-x="1206" d="M70 849q0 110 42.5 200t112.5 145.5t155.5 85.5t183.5 30t186 -39.5t156.5 -118t107 -208.5t38.5 -299v-1137h-165v1137q0 217 -67 361q-36 78 -103 121.5t-150.5 43.5t-142.5 -20.5t-95.5 -53.5t-60.5 -77q-45 -79 -45 -171q0 -134 60.5 -203t191.5 -93l44 -8l-27 -123 l-38 5q-175 23 -279.5 130.5t-104.5 291.5z" />
<glyph unicode="&#x5e4;" horiz-adv-x="1173" d="M92 849q0 110 42.5 200t112.5 145.5t155.5 85.5t172.5 30t161 -24t138 -76.5t109.5 -129t71.5 -188t26 -247.5t-26 -247.5t-71.5 -188t-109.5 -129.5q-123 -100 -296 -100q-170 0 -326 20l-50 7v143q1 -1 49 -8q158 -23 326 -23q76 0 135 29.5t95.5 78.5t60.5 119 q41 122 41 299q0 217 -67 361q-36 78 -103 121.5t-150.5 43.5t-142.5 -20.5t-95.5 -53t-60.5 -75.5q-45 -80 -45 -173q0 -134 60.5 -203t191.5 -93l44 -8l-27 -123l-38 5q-175 23 -279.5 130.5t-104.5 291.5z" />
<glyph unicode="&#x5e5;" horiz-adv-x="959" d="M691 890v399h166v-339q0 -227 -81 -339q-31 -44 -85 -81t-128 -56l-121 -33v-933h-166v1069l-268 713h177l220 -614q19 -56 28 -102l109 38q149 49 149 278z" />
<glyph unicode="&#x5e6;" horiz-adv-x="1125" d="M1024 0h-949v129h550l228 -11v4l-333 451l-455 717h189l386 -621l32 -45q77 46 116.5 154t56.5 284l22 231h166l-20 -207q-1 -10 -4.5 -50.5t-6.5 -63.5t-9 -66.5t-15 -74t-22 -72t-32 -73.5t-43 -66q-46 -64 -130 -107l273 -384v-129z" />
<glyph unicode="&#x5e7;" horiz-adv-x="1170" d="M810 34v-34h-165v34q0 73 33 198.5t48 179.5q29 111 74 260l143 490h-783v128h949v-128l-150 -510q-26 -92 -43 -151.5t-34 -121t-28 -106.5t-22 -94q-22 -98 -22 -145zM326 -493h-165v1264h165v-1264z" />
<glyph unicode="&#x5e8;" horiz-adv-x="970" d="M43 1303q140 7 251 7t184.5 -13.5t137.5 -43.5t108 -77q93 -101 93 -276v-900h-166v902q0 267 -358 267q-108 0 -250 -7v141z" />
<glyph unicode="&#x5e9;" horiz-adv-x="1473" d="M664 129q204 0 339.5 147t163.5 451l51 562h165l-49 -562q-10 -130 -41 -230.5t-64 -164t-87.5 -126.5t-122.5 -107t-166.5 -71.5t-215.5 -27.5h-428l-107 1290h168l60 -721l133 44q154 50 177 278l39 399h166l-33 -339q-7 -68 -18 -122.5t-36 -113.5t-60.5 -103 t-93.5 -81t-134 -56l-130 -35l26 -311h298z" />
<glyph unicode="&#x5ea;" horiz-adv-x="1296" d="M170 -14q-44 0 -100 14v137q73 -10 81 -10q143 0 143 170v853l-141 -13v141q279 32 488 32q178 0 300 -57q128 -60 176 -194q25 -70 25 -159v-900h-167v902q0 267 -357 267q-44 0 -158 -6v-843q0 -158 -72 -246t-218 -88z" />
<glyph unicode="&#x5f3;" horiz-adv-x="348" d="M324 1268q-55 -215 -177 -479h-122q70 281 102 501h182z" />
<glyph unicode="&#x5f4;" horiz-adv-x="717" d="M324 1268q-55 -215 -177 -479h-122q70 281 102 501h182zM391 789q77 303 105 501h182l14 -22q-23 -88 -70.5 -220t-105.5 -259h-125z" />
<glyph unicode="&#x2013;" horiz-adv-x="1024" d="M942 473h-860v152h860v-152z" />
<glyph unicode="&#x2014;" horiz-adv-x="2048" d="M1966 473h-1884v152h1884v-152z" />
<glyph unicode="&#x2018;" horiz-adv-x="348" d="M25 982q51 203 176 480h123q-65 -249 -103 -501h-184z" />
<glyph unicode="&#x2019;" horiz-adv-x="348" d="M324 1440q-55 -215 -177 -479h-122q71 285 102 501h182z" />
<glyph unicode="&#x201a;" horiz-adv-x="502" d="M350 238l15 -23q-25 -99 -74.5 -231t-102.5 -248h-125q29 111 59 257q31 140 46 245h182z" />
<glyph unicode="&#x201c;" horiz-adv-x="717" d="M25 982q51 203 176 480h123q-65 -249 -103 -501h-184zM692 1462q-71 -273 -102 -501h-184l-15 21q54 211 178 480h123z" />
<glyph unicode="&#x201d;" horiz-adv-x="717" d="M324 1440q-55 -215 -177 -479h-122q71 285 102 501h182zM391 961q77 303 105 501h182l14 -22q-23 -88 -70.5 -220t-105.5 -259h-125z" />
<glyph unicode="&#x201e;" horiz-adv-x="829" d="M309 238l15 -22q-25 -99 -74.5 -231t-102.5 -248h-122q71 287 102 501h182zM391 -263q75 295 105 501h182l14 -22q-23 -88 -72 -223t-104 -256h-125z" />
<glyph unicode="&#x2020;" horiz-adv-x="1028" d="M553 1139l352 30v-171l-352 32l49 -1030h-196l49 1030l-332 -32v171l332 -30l-49 417h196z" />
<glyph unicode="&#x2021;" horiz-adv-x="1044" d="M569 1176l353 30v-168l-353 31l43 -283l-43 -299l353 31v-168l-353 29l49 -379h-198l49 379l-346 -29v168l346 -31l-43 299l43 283l-346 -31v168l346 -30l-49 380h198z" />
<glyph unicode="&#x2022;" horiz-adv-x="770" d="M220.5 931.5q56.5 62.5 163.5 62.5t164.5 -62t57.5 -182.5t-57.5 -185t-164 -64.5t-163.5 65t-57 184.5t56.5 182z" />
<glyph unicode="&#x2026;" horiz-adv-x="1606" d="M182.5 207q30.5 35 88 35t90 -35t32.5 -100.5t-32.5 -100.5t-88.5 -35t-88 33t-32 100.5t30.5 102.5zM712.5 207q30.5 35 88 35t90 -35t32.5 -100.5t-32.5 -100.5t-88.5 -35t-88 33t-32 100.5t30.5 102.5zM1243.5 207q30.5 35 88 35t90 -35t32.5 -100.5t-32.5 -100.5 t-88.5 -35t-88 33t-32 100.5t30.5 102.5z" />
<glyph unicode="&#x2030;" horiz-adv-x="2462" d="M412 1483q152 0 234.5 -120.5t82.5 -343t-80 -338.5t-233.5 -116t-235 119.5t-81.5 341.5q0 457 313 457zM535 0h-148l811 1462h148zM412 1364q-92 0 -134 -83t-42 -255.5t42 -256t134 -83.5q180 0 180 339t-180 339zM1313 897q151 0 234 -118.5t83 -343t-80.5 -340 t-233.5 -115.5t-234 119t-81 341q0 457 312 457zM2046 897q151 0 234 -118.5t83 -343t-80.5 -340t-232.5 -115.5t-233.5 119.5t-81.5 340.5q0 457 311 457zM1313 776q-92 0 -133 -81.5t-41 -255t41 -257t133 -83.5q180 0 180 338.5t-180 338.5zM2046 776q-92 0 -134 -81.5 t-42 -254.5t42 -257t134 -84q180 0 180 338.5t-180 338.5z" />
<glyph unicode="&#x2039;" horiz-adv-x="623" d="M543 889l-289 -350l289 -351l-119 -71l-342 407v27l342 407z" />
<glyph unicode="&#x203a;" horiz-adv-x="623" d="M541 551v-27l-344 -407l-117 71l287 351l-287 350l117 69z" />
<glyph unicode="&#x20aa;" horiz-adv-x="1604" d="M160 1289h478q112 0 190 -18t135 -62q111 -86 111 -309v-513h-166v515q0 157 -80 212q-41 27 -88.5 36.5t-82.5 9.5h-42h-289v-1160h-166v1289zM1450 1289v-562q0 -131 -32 -257q-38 -153 -129 -264q-51 -63 -117.5 -107.5t-164 -71.5t-214.5 -27h-262v903h166v-774h123 q201 0 327 138q64 70 100 187.5t36 272.5v562h167z" />
<glyph unicode="&#x20ac;" horiz-adv-x="1208" d="M63 930h164q39 261 185 407t383 146q202 0 366 -97l-71 -139q-169 86 -295 86q-319 0 -398 -403h510v-129h-524l-2 -57v-64l2 -45h463v-129h-447q37 -183 139.5 -280t264.5 -97t315 66v-150q-147 -65 -317 -65q-236 0 -381 134t-191 392h-166v129h152l-2 42v44l2 80h-152 v129z" />
<glyph unicode="&#x2122;" horiz-adv-x="1589" d="M580 1356h-211v-615h-123v615h-209v106h543v-106zM1413 741h-127v420l6 137h-8l-211 -557h-105l-200 559h-8l6 -129v-430h-119v721h187l196 -559l203 559h180v-721z" />
<glyph unicode="&#x25fc;" horiz-adv-x="1095" d="M0 1095h1095v-1095h-1095v1095z" />
<glyph unicode="&#xfb2a;" horiz-adv-x="1473" d="M1337 1606q73 0 73 -86.5t-73 -86.5q-70 0 -70 86.5t70 86.5zM664 129q204 0 339.5 147t163.5 451l51 562h165l-49 -562q-10 -130 -41 -230.5t-64 -164t-87.5 -126.5t-122.5 -107t-166.5 -71.5t-215.5 -27.5h-428l-107 1290h168l60 -721l133 44q154 50 177 278l39 399 h166l-33 -339q-7 -68 -18 -122.5t-36 -113.5t-60.5 -103t-93.5 -81t-134 -56l-130 -35l26 -311h298z" />
<glyph unicode="&#xfb2b;" horiz-adv-x="1473" d="M153 1606q73 0 73 -86.5t-73 -86.5q-70 0 -70 86.5t70 86.5zM664 129q204 0 339.5 147t163.5 451l51 562h165l-49 -562q-10 -130 -41 -230.5t-64 -164t-87.5 -126.5t-122.5 -107t-166.5 -71.5t-215.5 -27.5h-428l-107 1290h168l60 -721l133 44q154 50 177 278l39 399h166 l-33 -339q-7 -68 -18 -122.5t-36 -113.5t-60.5 -103t-93.5 -81t-134 -56l-130 -35l26 -311h298z" />
<glyph unicode="&#xfb2c;" horiz-adv-x="1473" d="M1337 1606q73 0 73 -86.5t-73 -86.5q-70 0 -70 86.5t70 86.5zM664 129q204 0 339.5 147t163.5 451l51 562h165l-49 -562q-10 -130 -41 -230.5t-64 -164t-87.5 -126.5t-122.5 -107t-166.5 -71.5t-215.5 -27.5h-428l-107 1290h168l60 -721l133 44q154 50 177 278l39 399 h166l-33 -339q-7 -68 -18 -122.5t-36 -113.5t-60.5 -103t-93.5 -81t-134 -56l-130 -35l26 -311h298zM804 519q73 0 73 -86.5t-73 -86.5q-70 0 -70 86.5t70 86.5z" />
<glyph unicode="&#xfb2d;" horiz-adv-x="1473" d="M153 1606q73 0 73 -86.5t-73 -86.5q-70 0 -70 86.5t70 86.5zM664 129q204 0 339.5 147t163.5 451l51 562h165l-49 -562q-10 -130 -41 -230.5t-64 -164t-87.5 -126.5t-122.5 -107t-166.5 -71.5t-215.5 -27.5h-428l-107 1290h168l60 -721l133 44q154 50 177 278l39 399h166 l-33 -339q-7 -68 -18 -122.5t-36 -113.5t-60.5 -103t-93.5 -81t-134 -56l-130 -35l26 -311h298zM804 519q73 0 73 -86.5t-73 -86.5q-70 0 -70 86.5t70 86.5z" />
<glyph unicode="&#xfb2e;" horiz-adv-x="1157" d="M1043 1290v-419q0 -82 -7 -141.5t-29 -125.5q-45 -134 -191 -191l249 -413h-187l-315 539l-152 228q-40 -15 -58 -30q-95 -77 -95 -258v-479h-166v419q0 219 65 325q26 43 72.5 80.5t111.5 59.5l-248 406h188l296 -499l167 -259q51 30 75.5 62t41 87t16.5 130v479h166z M782 -225h-410v82h410v-82z" />
<glyph unicode="&#xfb2f;" horiz-adv-x="1157" d="M1043 1290v-419q0 -82 -7 -141.5t-29 -125.5q-45 -134 -191 -191l249 -413h-187l-315 539l-152 228q-40 -15 -58 -30q-95 -77 -95 -258v-479h-166v419q0 219 65 325q26 43 72.5 80.5t111.5 59.5l-248 406h188l296 -499l167 -259q51 30 75.5 62t41 87t16.5 130v479h166z M782 -225h-164v-232h-82v232h-164v82h410v-82z" />
<glyph unicode="&#xfb30;" horiz-adv-x="1157" d="M1043 1290v-419q0 -82 -7 -141.5t-29 -125.5q-45 -134 -191 -191l249 -413h-187l-315 539l-152 228q-40 -15 -58 -30q-95 -77 -95 -258v-479h-166v419q0 219 65 325q26 43 72.5 80.5t111.5 59.5l-248 406h188l296 -499l167 -259q51 30 75.5 62t41 87t16.5 130v479h166z M465 461q73 0 73 -86.5t-73 -86.5q-70 0 -70 86.5t70 86.5z" />
<glyph unicode="&#xfb31;" horiz-adv-x="1093" d="M102 1295q160 15 375 15t318 -93.5t103 -316.5v-771h147v-129h-943v129h630v773q0 154 -69.5 210.5t-214.5 56.5q-155 0 -295 -11l-51 -4v141zM395 752q73 0 73 -86.5t-73 -86.5q-70 0 -70 86.5t70 86.5z" />
<glyph unicode="&#xfb32;" horiz-adv-x="857" d="M334 1176q-54 0 -122 -18v131q80 21 179 21q312 0 312 -343v-967h-137l-19 218h-8q-5 -12 -23.5 -42t-36.5 -52.5t-47 -49.5t-60.5 -47t-74 -33.5t-87.5 -13.5q-94 0 -140 13l24 152q42 -13 137 -13q70 0 149 58q94 71 134 190q23 69 23 150v423q0 121 -53 174 q-49 49 -150 49zM331 752q73 0 73 -86.5t-73 -86.5q-70 0 -70 86.5t70 86.5z" />
<glyph unicode="&#xfb33;" horiz-adv-x="1033" d="M985 1290v-114q-206 -59 -206 -288v-888h-166v888q0 59 14 108.5t34 77.5q41 58 74 75l14 7v5h-706v129h942zM337 752q73 0 73 -86.5t-73 -86.5q-70 0 -70 86.5t70 86.5z" />
<glyph unicode="&#xfb34;" horiz-adv-x="1257" d="M1078 1059q25 -70 25 -159v-900h-166v902q0 267 -358 267q-158 0 -349 -11l-70 -4v141q233 15 426.5 15t318.5 -58.5t173 -192.5zM160 0v823h166v-823h-166zM627 752q73 0 73 -86.5t-73 -86.5q-70 0 -70 86.5t70 86.5z" />
<glyph unicode="&#xfb35;" horiz-adv-x="486" d="M160 0v1290h166v-1290h-166zM-32 801q73 0 73 -86.5t-73 -86.5q-70 0 -70 86.5t70 86.5z" />
<glyph unicode="&#xfb36;" horiz-adv-x="612" d="M565 1290v-129q-6 -3 -16 -9.5t-35.5 -36.5t-45 -69.5t-35.5 -114.5t-16 -166v-765h-166v763q0 71 17.5 138t42.5 111q53 94 93 128l17 16v5h-309v129h453zM46 752q73 0 73 -86.5t-73 -86.5q-70 0 -70 86.5t70 86.5z" />
<glyph unicode="&#xfb38;" horiz-adv-x="1252" d="M806.5 1141q-56.5 30 -135.5 30t-139 -10v136q59 13 142.5 13t156 -24t133.5 -76.5t104 -129.5q92 -162 92 -435q0 -136 -26 -247.5t-71.5 -188t-109.5 -129t-138 -76.5t-158 -24t-158 24t-138 76.5t-109.5 129t-71.5 188t-26 247.5v645h172v-645q0 -217 67 -361 q36 -78 103 -121.5t152 -43.5t143.5 29.5t95 78.5t59.5 119q41 123 41 299q0 87 -7 157.5t-28 141.5t-55 119t-90.5 78zM646 752q73 0 73 -86.5t-73 -86.5q-70 0 -70 86.5t70 86.5z" />
<glyph unicode="&#xfb39;" horiz-adv-x="453" d="M147 436v854h166v-684l-132 -170h-34zM-38 998q73 0 73 -86.5t-73 -86.5q-70 0 -70 86.5t70 86.5z" />
<glyph unicode="&#xfb3a;" horiz-adv-x="971" d="M327 1310q84 0 155 -20t120.5 -53.5t88 -80t62 -96t39.5 -105.5q26 -96 26 -199v-1248h-166v1228q0 127 -28 212q-12 37 -36.5 79t-57.5 70t-85.5 47t-126 19t-144.5 -12.5t-101 -25.5l-30 -13v148q11 6 32 14t94.5 22t157.5 14zM316 752q73 0 73 -86.5t-73 -86.5 q-70 0 -70 86.5t70 86.5z" />
<glyph unicode="&#xfb3b;" horiz-adv-x="934" d="M350 1310q84 0 155 -20t120.5 -53.5t88 -80t62 -96t38.5 -105.5q27 -96 27 -199v-219q0 -60 -11 -129.5t-28.5 -119t-55 -109.5t-88 -101t-132.5 -69.5t-173 -28.5t-160.5 9t-98.5 19l-28 9v150q131 -42 287 -42q61 0 110.5 17.5t82 44.5t57.5 66t38 76t21 79 q13 63 13 132v196q0 127 -28 212q-12 37 -36.5 79t-57.5 70t-85.5 47t-126 19t-144.5 -12.5t-101 -25.5l-30 -13v148q11 6 32 14t94.5 22t157.5 14zM340 752q73 0 73 -86.5t-73 -86.5q-70 0 -70 86.5t70 86.5z" />
<glyph unicode="&#xfb3c;" horiz-adv-x="975" d="M915 1290v-129l-173 -660l-104 -501h-168l104 501l175 660h-679v393h166v-264h679zM292 752q73 0 73 -86.5t-73 -86.5q-70 0 -70 86.5t70 86.5z" />
<glyph unicode="&#xfb3e;" horiz-adv-x="1228" d="M696 1310q189 0 283.5 -114t94.5 -314v-882h-440v129h274v746q0 295 -270 295q-47 0 -92.5 -16.5t-76.5 -39.5q-66 -51 -93 -88l-12 -16l-95 -1010h-167l94 992v22t-14 92t-35 122l-26 62h167q27 -45 46 -136h7q52 62 125 102q38 20 100 37t130 17zM612 752 q73 0 73 -86.5t-73 -86.5q-70 0 -70 86.5t70 86.5z" />
<glyph unicode="&#xfb40;" horiz-adv-x="879" d="M356 1176q-54 0 -122 -18v131q80 21 179 21q312 0 312 -343v-652q0 -81 -9.5 -160t-19.5 -117l-10 -38h-594v129h446q20 75 20 186v638q0 120 -52 174q-48 49 -150 49zM280 752q73 0 73 -86.5t-73 -86.5q-70 0 -70 86.5t70 86.5z" />
<glyph unicode="&#xfb41;" horiz-adv-x="1190" d="M595 1310q232 0 367.5 -165t135.5 -500q0 -136 -26 -247.5t-71.5 -188t-109.5 -129t-138 -76.5t-158 -24t-158 24t-138 76.5t-109.5 129t-71.5 188t-26 247.5q0 187 42.5 316.5t105.5 198.5l-128 -8v141q211 17 483 17zM302.5 935q-38.5 -147 -38.5 -272t15.5 -213.5 t51.5 -166t103 -121t161 -43.5t161 43.5t103 121.5q67 144 67 361q0 288 -96 416q-36 48 -96 77.5t-139 29.5l-179 -2q-75 -84 -113.5 -231zM593 752q73 0 73 -86.5t-73 -86.5q-70 0 -70 86.5t70 86.5z" />
<glyph unicode="&#xfb43;" horiz-adv-x="1206" d="M70 849q0 110 42.5 200t112.5 145.5t155.5 85.5t183.5 30t186 -39.5t156.5 -118t107 -208.5t38.5 -299v-1137h-165v1137q0 217 -67 361q-36 78 -103 121.5t-150.5 43.5t-142.5 -20.5t-95.5 -53.5t-60.5 -77q-45 -79 -45 -171q0 -134 60.5 -203t191.5 -93l44 -8l-27 -123 l-38 5q-175 23 -279.5 130.5t-104.5 291.5zM546 946q73 0 73 -86.5t-73 -86.5q-70 0 -70 86.5t70 86.5z" />
<glyph unicode="&#xfb44;" horiz-adv-x="1173" d="M92 849q0 110 42.5 200t112.5 145.5t155.5 85.5t172.5 30t161 -24t138 -76.5t109.5 -129t71.5 -188t26 -247.5t-26 -247.5t-71.5 -188t-109.5 -129.5q-123 -100 -296 -100q-170 0 -326 20l-50 7v143q1 -1 49 -8q158 -23 326 -23q76 0 135 29.5t95.5 78.5t60.5 119 q41 122 41 299q0 217 -67 361q-36 78 -103 121.5t-150.5 43.5t-142.5 -20.5t-95.5 -53t-60.5 -75.5q-45 -80 -45 -173q0 -134 60.5 -203t191.5 -93l44 -8l-27 -123l-38 5q-175 23 -279.5 130.5t-104.5 291.5zM585 934q73 0 73 -86.5t-73 -86.5q-70 0 -70 86.5t70 86.5z" />
<glyph unicode="&#xfb46;" horiz-adv-x="1125" d="M1024 0h-949v129h550l228 -11v4l-333 451l-455 717h189l386 -621l32 -45q77 46 116.5 154t56.5 284l22 231h166l-20 -207q-1 -10 -4.5 -50.5t-6.5 -63.5t-9 -66.5t-15 -74t-22 -72t-32 -73.5t-43 -66q-46 -64 -130 -107l273 -384v-129zM240 667q73 0 73 -86.5t-73 -86.5 q-70 0 -70 86.5t70 86.5z" />
<glyph unicode="&#xfb47;" horiz-adv-x="1170" d="M810 34v-34h-165v34q0 73 33 198.5t48 179.5q29 111 74 260l143 490h-783v128h949v-128l-150 -510q-26 -92 -43 -151.5t-34 -121t-28 -106.5t-22 -94q-22 -98 -22 -145zM161 -493v1264h165v-1264h-165zM562 752q73 0 73 -86.5t-73 -86.5q-70 0 -70 86.5t70 86.5z" />
<glyph unicode="&#xfb48;" horiz-adv-x="970" d="M43 1303q140 7 251 7t184.5 -13.5t137.5 -43.5t108 -77q93 -101 93 -276v-900h-166v902q0 267 -358 267q-108 0 -250 -7v141zM319 752q73 0 73 -86.5t-73 -86.5q-70 0 -70 86.5t70 86.5z" />
<glyph unicode="&#xfb49;" horiz-adv-x="1473" d="M664 129q204 0 339.5 147t163.5 451l51 562h165l-49 -562q-10 -130 -41 -230.5t-64 -164t-87.5 -126.5t-122.5 -107t-166.5 -71.5t-215.5 -27.5h-428l-107 1290h168l60 -721l133 44q154 50 177 278l39 399h166l-33 -339q-7 -68 -18 -122.5t-36 -113.5t-60.5 -103 t-93.5 -81t-134 -56l-130 -35l26 -311h298zM804 519q73 0 73 -86.5t-73 -86.5q-70 0 -70 86.5t70 86.5z" />
<glyph unicode="&#xfb4a;" horiz-adv-x="1296" d="M170 -14q-44 0 -100 14v137q73 -10 81 -10q143 0 143 170v853l-141 -13v141q279 32 488 32q178 0 300 -57q128 -60 176 -194q25 -70 25 -159v-900h-167v902q0 267 -357 267q-44 0 -158 -6v-843q0 -158 -72 -246t-218 -88zM713 752q73 0 73 -86.5t-73 -86.5 q-70 0 -70 86.5t70 86.5z" />
<glyph unicode="&#xfb4b;" horiz-adv-x="486" d="M204 1606q73 0 73 -86.5t-73 -86.5q-70 0 -70 86.5t70 86.5zM160 0v1290h166v-1290h-166z" />
<glyph horiz-adv-x="0" />
</font>
</defs>
</svg>
