<?xml version="1.0" encoding="UTF-8"?><!DOCTYPE svg PUBLIC "-//W3C//DTD SVG 1.1//EN" "http://www.w3.org/Graphics/SVG/1.1/DTD/svg11.dtd"><svg xmlns="http://www.w3.org/2000/svg" xmlns:xlink="http://www.w3.org/1999/xlink" version="1.1" width="24" height="24" viewBox="0 0 24.00 24.00"><path d="M5.12,5H18.87L17.93,4H5.93L5.12,5M20.54,5.23C20.83,5.57 21,6 21,6.5V19A2,2 0 0,1 19,21H5A2,2 0 0,1 3,19V6.5C3,6 3.17,5.57 3.46,5.23L4.84,3.55C5.12,3.21 5.53,3 6,3H18C18.47,3 18.88,3.21 19.15,3.55L20.54,5.23M6,18H12V15H6V18Z" /></svg>