<?xml version="1.0" encoding="utf-8"?>
<!-- Generator: Adobe Illustrator 18.0.0, SVG Export Plug-In . SVG Version: 6.00 Build 0)  -->
<!DOCTYPE svg PUBLIC "-//W3C//DTD SVG 1.1//EN" "http://www.w3.org/Graphics/SVG/1.1/DTD/svg11.dtd">
<svg version="1.1" id="Layer_1" xmlns="http://www.w3.org/2000/svg" xmlns:xlink="http://www.w3.org/1999/xlink" x="0px" y="0px"
	 viewBox="0 0 470 205.4" enable-background="new 0 0 470 205.4" xml:space="preserve">
<rect x="71.3" y="117.2" fill="#BADBDB" width="134" height="2"/>
<g>
	<g>
		
			<rect x="112.2" y="44.5" transform="matrix(0.6091 -0.7931 0.7931 0.6091 -33.0953 127.813)" fill="#BADBDB" width="1.9" height="106.1"/>
	</g>
	<g>
		
			<rect x="111.7" y="82.2" transform="matrix(-0.6091 -0.7931 0.7931 -0.6091 74.2514 307.02)" fill="#BADBDB" width="2.1" height="106.1"/>
	</g>
</g>
<g>
	<g>
		
			<rect x="246" y="84.8" transform="matrix(0.7376 -0.6752 0.6752 0.7376 -28.2624 202.9702)" fill="#BADBDB" width="2" height="106.1"/>
	</g>
</g>
<g>
	<g>
		
			<rect x="246" y="45.5" transform="matrix(-0.7376 -0.6752 0.6752 -0.7376 362.687 337.956)" fill="#BADBDB" width="2" height="106.1"/>
	</g>
</g>
<g>
	
		<rect x="375.6" y="41" transform="matrix(-0.5201 -0.8541 0.8541 -0.5201 519.4274 415.9573)" fill="#BADBDB" width="1.9" height="42"/>
	
		<rect x="374.4" y="61.9" transform="matrix(0.5201 -0.8541 0.8541 0.5201 109.3011 360.43)" fill="#BADBDB" width="2" height="42"/>
</g>
<g>
	
		<rect x="375.6" y="122.4" transform="matrix(-0.5201 -0.8541 0.8541 -0.5201 449.9451 539.6172)" fill="#BADBDB" width="1.9" height="42"/>
	
		<rect x="374.4" y="143.3" transform="matrix(0.5201 -0.8541 0.8541 0.5201 39.8188 399.4708)" fill="#BADBDB" width="2" height="42"/>
</g>
<g>
	<path fill="#326DE6" d="M396.2,20.8h1.9v2.9c-0.8,0.9-2,1.4-3.4,1.4c-1.2,0-2.2-0.4-3.1-1.2c-0.8-0.8-1.2-1.8-1.2-3.1
		c0-1.2,0.4-2.3,1.3-3.1c0.8-0.8,1.9-1.2,3.1-1.2s2.2,0.4,3.1,1.2l-1,1.4c-0.4-0.3-0.7-0.5-1-0.7s-0.7-0.2-1-0.2
		c-0.7,0-1.3,0.2-1.8,0.7s-0.7,1.1-0.7,1.9s0.2,1.4,0.7,1.9c0.5,0.5,1,0.7,1.7,0.7c0.6,0,1.2-0.1,1.6-0.4V20.8z"/>
	<path fill="#326DE6" d="M402.9,20.2c-0.5,0-0.9,0.2-1.2,0.6c-0.3,0.4-0.4,0.9-0.4,1.5V25h-1.8v-6.4h1.8v0.8
		c0.2-0.3,0.5-0.5,0.9-0.7s0.7-0.3,1.1-0.3l0,1.7H402.9z"/>
	<path fill="#326DE6" d="M410.7,21.8c0,0.9-0.3,1.7-1,2.3c-0.6,0.6-1.4,1-2.4,1s-1.8-0.3-2.4-1c-0.6-0.6-1-1.4-1-2.3
		c0-0.9,0.3-1.7,1-2.3s1.4-1,2.4-1s1.8,0.3,2.4,1C410.4,20.1,410.7,20.9,410.7,21.8z M405.8,21.8c0,0.5,0.1,0.9,0.4,1.3
		c0.3,0.3,0.7,0.5,1.1,0.5s0.8-0.2,1.1-0.5c0.3-0.3,0.4-0.8,0.4-1.3c0-0.5-0.1-0.9-0.4-1.3s-0.7-0.5-1.1-0.5s-0.8,0.2-1.1,0.5
		S405.8,21.3,405.8,21.8z"/>
	<path fill="#326DE6" d="M416.2,22v-3.4h1.8V25h-1.8v-0.8c-0.4,0.6-1,0.9-1.7,0.9s-1.3-0.2-1.8-0.7c-0.5-0.4-0.7-1.1-0.7-2v-3.9h1.8
		v3.5c0,1,0.4,1.5,1.1,1.5c0.4,0,0.7-0.1,0.9-0.4C416,22.9,416.2,22.5,416.2,22z"/>
	<path fill="#326DE6" d="M423.4,18.5c0.7,0,1.4,0.3,2,0.9c0.6,0.6,0.9,1.4,0.9,2.3s-0.3,1.7-0.9,2.4c-0.6,0.6-1.3,1-2,1
		c-0.8,0-1.4-0.3-1.9-0.9v3.1h-1.8v-8.7h1.8v0.7C422,18.8,422.6,18.5,423.4,18.5z M421.4,21.8c0,0.5,0.1,0.9,0.4,1.3
		c0.3,0.3,0.6,0.5,1.1,0.5c0.4,0,0.8-0.2,1.1-0.5c0.3-0.3,0.5-0.7,0.5-1.3s-0.2-0.9-0.5-1.3s-0.7-0.5-1.1-0.5s-0.8,0.2-1.1,0.5
		C421.6,20.8,421.4,21.3,421.4,21.8z"/>
	<path fill="#326DE6" d="M427.7,17.8c-0.2-0.2-0.3-0.4-0.3-0.7c0-0.3,0.1-0.5,0.3-0.7c0.2-0.2,0.4-0.3,0.7-0.3s0.5,0.1,0.7,0.3
		c0.2,0.2,0.3,0.4,0.3,0.7c0,0.3-0.1,0.5-0.3,0.7c-0.2,0.2-0.4,0.3-0.7,0.3S427.9,18,427.7,17.8z M429.3,25h-1.8v-6.4h1.8V25z"/>
	<path fill="#326DE6" d="M432.8,21.4V25H431v-6.4h1.8v0.7c0.5-0.5,1.1-0.8,1.8-0.8c0.7,0,1.2,0.2,1.7,0.7c0.5,0.5,0.7,1.1,0.7,1.9
		V25h-1.8v-3.6c0-1-0.4-1.5-1.1-1.5c-0.4,0-0.7,0.1-0.9,0.4C432.9,20.5,432.8,20.9,432.8,21.4z"/>
	<path fill="#326DE6" d="M443.3,23.9c-0.6,0.6-1.3,0.9-2.1,0.9s-1.5-0.3-2.1-0.8c-0.6-0.6-0.9-1.3-0.9-2.3s0.3-1.7,0.9-2.3
		s1.3-0.9,2-0.9s1.4,0.3,1.9,0.9v-0.8h1.8v5.6c0,0.6-0.1,1.1-0.3,1.5c-0.2,0.4-0.5,0.8-0.8,1c-0.7,0.5-1.4,0.8-2.3,0.8
		c-0.5,0-1-0.1-1.5-0.2s-0.9-0.4-1.3-0.7l0.7-1.3c0.6,0.4,1.2,0.7,1.9,0.7c0.7,0,1.2-0.2,1.5-0.5S443.3,24.6,443.3,23.9z
		 M443.1,21.6c0-0.5-0.1-0.9-0.4-1.2c-0.3-0.3-0.6-0.4-1.1-0.4c-0.4,0-0.8,0.1-1.1,0.4c-0.3,0.3-0.5,0.7-0.5,1.2s0.1,0.9,0.4,1.2
		c0.3,0.3,0.7,0.5,1.1,0.5c0.4,0,0.8-0.2,1.1-0.5C442.9,22.6,443.1,22.2,443.1,21.6z"/>
</g>
<path fill="#E6F4F5" d="M71,92.8H13.5c-1.4,0-2.6-1.2-2.6-2.6V61.5c0-1.4,1.2-2.6,2.6-2.6H71c1.4,0,2.6,1.2,2.6,2.6v28.7
	C73.6,91.7,72.4,92.8,71,92.8z"/>
<path fill="#326DE6" d="M39,87.6H16.5c-0.3,0-0.6-0.3-0.6-0.6V65.3c0-0.3,0.3-0.6,0.6-0.6H39c0.3,0,0.6,0.3,0.6,0.6V87
	C39.6,87.3,39.4,87.6,39,87.6z"/>
<path fill="#326DE6" d="M68.1,87.6H45.5c-0.3,0-0.6-0.3-0.6-0.6V65.3c0-0.3,0.3-0.6,0.6-0.6h22.6c0.3,0,0.6,0.3,0.6,0.6V87
	C68.7,87.3,68.4,87.6,68.1,87.6z"/>
<path fill="#E6F4F5" d="M71,134.5H13.5c-1.4,0-2.6-1.2-2.6-2.6v-28.7c0-1.4,1.2-2.6,2.6-2.6H71c1.4,0,2.6,1.2,2.6,2.6V132
	C73.6,133.4,72.4,134.5,71,134.5z"/>
<path fill="#326DE6" d="M39,129.3H16.5c-0.3,0-0.6-0.3-0.6-0.6V107c0-0.3,0.3-0.6,0.6-0.6H39c0.3,0,0.6,0.3,0.6,0.6v21.7
	C39.6,129,39.4,129.3,39,129.3z"/>
<path fill="#326DE6" d="M68.1,129.3H45.5c-0.3,0-0.6-0.3-0.6-0.6V107c0-0.3,0.3-0.6,0.6-0.6h22.6c0.3,0,0.6,0.3,0.6,0.6v21.7
	C68.7,129,68.4,129.3,68.1,129.3z"/>
<path fill="#E6F4F5" d="M71,176.3H13.5c-1.4,0-2.6-1.2-2.6-2.6v-28.7c0-1.4,1.2-2.6,2.6-2.6H71c1.4,0,2.6,1.2,2.6,2.6v28.7
	C73.6,175.1,72.4,176.3,71,176.3z"/>
<path fill="#326DE6" d="M39,171H16.5c-0.3,0-0.6-0.3-0.6-0.6v-21.7c0-0.3,0.3-0.6,0.6-0.6H39c0.3,0,0.6,0.3,0.6,0.6v21.7
	C39.6,170.7,39.4,171,39,171z"/>
<path fill="#E6F4F5" d="M203.7,144.8V91.4c0-1.4,1.2-2.6,2.6-2.6h23.2c1.4,0,2.6,1.2,2.6,2.6v53.4c0,1.4-1.2,2.6-2.6,2.6h-23.2
	C204.8,147.4,203.7,146.3,203.7,144.8z"/>
<path fill="#628EDD" d="M208.1,141.6V94.3c0-0.3,0.3-0.6,0.6-0.6h17.9c0.3,0,0.6,0.3,0.6,0.6v47.3c0,0.3-0.3,0.6-0.6,0.6h-17.9
	C208.3,142.2,208.1,141.9,208.1,141.6z"/>
<path fill="#E6F4F5" d="M317.2,102h-57.4c-1.4,0-2.6-1.2-2.6-2.6V58.3c0-1.4,1.2-2.6,2.6-2.6h57.4c1.4,0,2.6,1.2,2.6,2.6v41.1
	C319.8,100.8,318.6,102,317.2,102z"/>
<path fill="#09C1D1" d="M285.2,76.2h-22.6c-0.3,0-0.6-0.3-0.6-0.6V62c0-0.3,0.3-0.6,0.6-0.6h22.6c0.3,0,0.6,0.3,0.6,0.6v13.6
	C285.8,76,285.6,76.2,285.2,76.2z"/>
<path fill="#09C1D1" d="M314.3,76.2h-22.6c-0.3,0-0.6-0.3-0.6-0.6V62c0-0.3,0.3-0.6,0.6-0.6h22.6c0.3,0,0.6,0.3,0.6,0.6v13.6
	C314.9,76,314.6,76.2,314.3,76.2z"/>
<path fill="#09C1D1" d="M314.3,96.5h-51.6c-0.3,0-0.6-0.3-0.6-0.6V82.3c0-0.3,0.3-0.6,0.6-0.6h51.6c0.3,0,0.6,0.3,0.6,0.6V96
	C314.9,96.3,314.6,96.5,314.3,96.5z"/>
<path fill="#E6F4F5" d="M317.2,179.9h-57.4c-1.4,0-2.6-1.2-2.6-2.6v-41.1c0-1.4,1.2-2.6,2.6-2.6h57.4c1.4,0,2.6,1.2,2.6,2.6v41.1
	C319.8,178.7,318.6,179.9,317.2,179.9z"/>
<path fill="#09C1D1" d="M285.2,154.1h-22.6c-0.3,0-0.6-0.3-0.6-0.6v-13.6c0-0.3,0.3-0.6,0.6-0.6h22.6c0.3,0,0.6,0.3,0.6,0.6v13.6
	C285.8,153.9,285.6,154.1,285.2,154.1z"/>
<path fill="#09C1D1" d="M314.3,154.1h-22.6c-0.3,0-0.6-0.3-0.6-0.6v-13.6c0-0.3,0.3-0.6,0.6-0.6h22.6c0.3,0,0.6,0.3,0.6,0.6v13.6
	C314.9,153.9,314.6,154.1,314.3,154.1z"/>
<path fill="#09C1D1" d="M314.3,174.4h-51.6c-0.3,0-0.6-0.3-0.6-0.6v-13.6c0-0.3,0.3-0.6,0.6-0.6h51.6c0.3,0,0.6,0.3,0.6,0.6v13.6
	C314.9,174.2,314.6,174.4,314.3,174.4z"/>
<path fill="#326DE6" d="M68.1,171H45.5c-0.3,0-0.6-0.3-0.6-0.6v-21.7c0-0.3,0.3-0.6,0.6-0.6h22.6c0.3,0,0.6,0.3,0.6,0.6v21.7
	C68.7,170.7,68.4,171,68.1,171z"/>
<g>
	<path fill="#326DE6" d="M16.5,42.8c0,1.3-0.5,2.2-1.6,2.5l2.1,2.9h-2.3L13,45.7h-1.3v2.6H9.9v-8.2H13c1.3,0,2.2,0.2,2.7,0.6
		S16.5,41.9,16.5,42.8z M14.3,43.8c0.2-0.2,0.3-0.5,0.3-1s-0.1-0.7-0.4-0.9c-0.2-0.2-0.6-0.2-1.2-0.2h-1.4v2.4H13
		C13.7,44.1,14.1,44,14.3,43.8z"/>
	<path fill="#326DE6" d="M23.7,47.4c-0.7,0.7-1.5,1-2.5,1c-1,0-1.8-0.3-2.4-0.9s-0.9-1.4-0.9-2.4s0.3-1.8,1-2.4s1.4-0.9,2.3-0.9
		c0.9,0,1.6,0.3,2.2,0.8c0.6,0.5,0.9,1.2,0.9,2.2v0.9h-4.6c0.1,0.3,0.2,0.6,0.5,0.8c0.3,0.2,0.6,0.3,1,0.3c0.6,0,1.1-0.2,1.5-0.6
		L23.7,47.4z M22,43.6c-0.2-0.2-0.5-0.3-0.9-0.3c-0.3,0-0.7,0.1-1,0.3c-0.3,0.2-0.5,0.5-0.5,0.9h2.8C22.4,44.1,22.2,43.8,22,43.6z"
		/>
	<path fill="#326DE6" d="M29.2,41.9c0.7,0,1.4,0.3,2,0.9c0.6,0.6,0.9,1.4,0.9,2.3s-0.3,1.7-0.9,2.3c-0.6,0.6-1.2,0.9-2,0.9
		s-1.4-0.3-1.9-0.9v3.1h-1.8V42h1.8v0.7C27.8,42.1,28.4,41.9,29.2,41.9z M27.2,45.1c0,0.5,0.1,0.9,0.4,1.3c0.3,0.3,0.6,0.5,1,0.5
		c0.4,0,0.8-0.2,1.1-0.5c0.3-0.3,0.5-0.7,0.5-1.2s-0.1-0.9-0.4-1.3c-0.3-0.3-0.7-0.5-1.1-0.5c-0.4,0-0.8,0.2-1.1,0.5
		C27.4,44.2,27.2,44.6,27.2,45.1z"/>
	<path fill="#326DE6" d="M35.1,48.3h-1.8v-8.7h1.8V48.3z"/>
	<path fill="#326DE6" d="M36.9,41.2c-0.2-0.2-0.3-0.4-0.3-0.7c0-0.3,0.1-0.5,0.3-0.7c0.2-0.2,0.4-0.3,0.7-0.3c0.3,0,0.5,0.1,0.7,0.3
		c0.2,0.2,0.3,0.4,0.3,0.7c0,0.3-0.1,0.5-0.3,0.7c-0.2,0.2-0.4,0.3-0.7,0.3C37.3,41.5,37.1,41.4,36.9,41.2z M38.5,48.3h-1.8V42h1.8
		V48.3z"/>
	<path fill="#326DE6" d="M43.2,46.8c0.6,0,1.1-0.3,1.6-0.9l1,1.2c-0.8,0.8-1.7,1.3-2.6,1.3c-0.9,0-1.7-0.3-2.4-0.9
		c-0.7-0.6-1-1.4-1-2.3s0.3-1.8,1-2.4s1.4-0.9,2.4-0.9c0.5,0,0.9,0.1,1.4,0.3c0.5,0.2,0.9,0.5,1.2,0.8l-0.9,1.2
		c-0.2-0.2-0.5-0.4-0.7-0.6c-0.3-0.1-0.6-0.2-0.9-0.2c-0.5,0-0.9,0.2-1.2,0.5c-0.3,0.3-0.5,0.7-0.5,1.3c0,0.5,0.2,1,0.5,1.2
		C42.3,46.7,42.7,46.8,43.2,46.8z"/>
	<path fill="#326DE6" d="M52.3,48.3h-1.7v-0.8c-0.5,0.6-1,0.9-1.7,0.9s-1.2-0.2-1.7-0.6c-0.5-0.4-0.7-0.9-0.7-1.5s0.2-1.1,0.7-1.4
		c0.5-0.3,1.1-0.5,1.9-0.5h1.3v0c0-0.7-0.4-1-1.1-1c-0.3,0-0.6,0.1-1,0.2c-0.3,0.1-0.6,0.3-0.9,0.5l-0.8-1.1
		c0.8-0.6,1.8-0.9,2.8-0.9c0.8,0,1.4,0.2,1.9,0.6s0.7,1,0.7,1.8V48.3z M50.6,45.9v-0.3h-1.1c-0.7,0-1.1,0.2-1.1,0.7
		c0,0.2,0.1,0.4,0.3,0.5c0.2,0.1,0.4,0.2,0.7,0.2c0.3,0,0.6-0.1,0.8-0.3C50.4,46.5,50.6,46.2,50.6,45.9z"/>
	<path fill="#326DE6" d="M56,43.2v2.8c0,0.2,0.1,0.4,0.2,0.6c0.1,0.1,0.3,0.2,0.4,0.2c0.3,0,0.6-0.1,0.8-0.4l0.7,1.2
		c-0.5,0.5-1.1,0.8-1.7,0.8s-1.1-0.2-1.5-0.6c-0.4-0.4-0.6-0.9-0.6-1.6v-2.9h-0.7V42h0.7v-1.9H56V42h1.5v1.3H56z"/>
	<path fill="#326DE6" d="M59.2,41.2c-0.2-0.2-0.3-0.4-0.3-0.7c0-0.3,0.1-0.5,0.3-0.7c0.2-0.2,0.4-0.3,0.7-0.3c0.3,0,0.5,0.1,0.7,0.3
		c0.2,0.2,0.3,0.4,0.3,0.7c0,0.3-0.1,0.5-0.3,0.7c-0.2,0.2-0.4,0.3-0.7,0.3C59.6,41.5,59.4,41.4,59.2,41.2z M60.8,48.3H59V42h1.8
		V48.3z"/>
	<path fill="#326DE6" d="M68.8,45.1c0,0.9-0.3,1.7-1,2.3s-1.4,0.9-2.4,0.9c-1,0-1.8-0.3-2.4-0.9s-1-1.4-1-2.3c0-0.9,0.3-1.7,1-2.3
		s1.4-0.9,2.4-0.9c1,0,1.8,0.3,2.4,0.9S68.8,44.2,68.8,45.1z M63.9,45.1c0,0.5,0.1,0.9,0.4,1.3c0.3,0.3,0.7,0.5,1.1,0.5
		c0.5,0,0.8-0.2,1.1-0.5c0.3-0.3,0.4-0.7,0.4-1.3c0-0.5-0.1-0.9-0.4-1.3c-0.3-0.3-0.7-0.5-1.1-0.5c-0.5,0-0.8,0.2-1.1,0.5
		C64,44.2,63.9,44.6,63.9,45.1z"/>
	<path fill="#326DE6" d="M71.8,44.8v3.5h-1.8V42h1.8v0.7c0.5-0.5,1.1-0.8,1.8-0.8s1.2,0.2,1.7,0.7c0.4,0.5,0.7,1.1,0.7,1.9v3.8h-1.8
		v-3.6c0-1-0.4-1.5-1.1-1.5c-0.4,0-0.7,0.1-0.9,0.4C72,43.9,71.8,44.3,71.8,44.8z"/>
</g>
<g>
	<rect x="54.2" y="185.9" fill-rule="evenodd" clip-rule="evenodd" fill="#BADBDB" width="3.8" height="2.2"/>
	<rect x="60.9" y="185.9" fill-rule="evenodd" clip-rule="evenodd" fill="#BADBDB" width="3.8" height="2.2"/>
	<rect x="67.6" y="185.9" fill-rule="evenodd" clip-rule="evenodd" fill="#BADBDB" width="3.8" height="2.2"/>
	<rect x="33.9" y="185.9" fill-rule="evenodd" clip-rule="evenodd" fill="#BADBDB" width="3.8" height="2.2"/>
	<rect x="40.7" y="185.9" fill-rule="evenodd" clip-rule="evenodd" fill="#BADBDB" width="3.8" height="2.2"/>
	<rect x="47.4" y="185.9" fill-rule="evenodd" clip-rule="evenodd" fill="#BADBDB" width="3.8" height="2.2"/>
	<rect x="13.7" y="185.9" fill-rule="evenodd" clip-rule="evenodd" fill="#BADBDB" width="3.8" height="2.2"/>
	<rect x="20.4" y="185.9" fill-rule="evenodd" clip-rule="evenodd" fill="#BADBDB" width="3.8" height="2.2"/>
	<rect x="27.1" y="185.9" fill-rule="evenodd" clip-rule="evenodd" fill="#BADBDB" width="3.8" height="2.2"/>
	<path fill-rule="evenodd" clip-rule="evenodd" fill="#BADBDB" d="M1.2,178.1l2.2-0.4c0,0-0.1-0.2-0.1-0.5c0-0.3,0-0.7,0-1.1
		c0-0.9,0-1.9,0-1.9H1.1c0,0,0,0.9,0,1.9c0,0.5,0,1,0,1.4C1.1,177.9,1.2,178.1,1.2,178.1z"/>
	<path fill-rule="evenodd" clip-rule="evenodd" fill="#BADBDB" d="M4.3,184.5l1.6-1.5c0,0-0.6-0.6-1-1.3c-0.5-0.7-0.8-1.4-0.8-1.4
		l-2,0.9c0,0,0.4,0.9,1,1.8C3.6,183.8,4.3,184.5,4.3,184.5z"/>
	<path fill-rule="evenodd" clip-rule="evenodd" fill="#BADBDB" d="M10.5,187.9l0.5-2.2c0,0-0.8-0.1-1.6-0.5
		c-0.8-0.3-1.5-0.7-1.5-0.7l-1.2,1.9c0,0,0.9,0.5,1.8,0.9c0.5,0.2,0.9,0.3,1.3,0.4C10.2,187.9,10.5,187.9,10.5,187.9z"/>
	<rect x="1.1" y="154" fill-rule="evenodd" clip-rule="evenodd" fill="#BADBDB" width="2.2" height="3.8"/>
	<rect x="1.1" y="160.7" fill-rule="evenodd" clip-rule="evenodd" fill="#BADBDB" width="2.2" height="3.8"/>
	
		<rect x="1.1" y="167.5" transform="matrix(-0.9991 -4.249190e-002 4.249190e-002 -0.9991 -2.814 338.6295)" fill-rule="evenodd" clip-rule="evenodd" fill="#BADBDB" width="2.2" height="3.8"/>
	<rect x="1.1" y="133.7" fill-rule="evenodd" clip-rule="evenodd" fill="#BADBDB" width="2.2" height="3.8"/>
	<rect x="1.1" y="140.5" fill-rule="evenodd" clip-rule="evenodd" fill="#BADBDB" width="2.2" height="3.8"/>
	<rect x="1.1" y="147.2" fill-rule="evenodd" clip-rule="evenodd" fill="#BADBDB" width="2.2" height="3.8"/>
	<rect x="1.1" y="113.5" fill-rule="evenodd" clip-rule="evenodd" fill="#BADBDB" width="2.2" height="3.8"/>
	<rect x="1.1" y="120.2" fill-rule="evenodd" clip-rule="evenodd" fill="#BADBDB" width="2.2" height="3.8"/>
	<rect x="1.1" y="126.9" fill-rule="evenodd" clip-rule="evenodd" fill="#BADBDB" width="2.2" height="3.8"/>
	<rect x="1.1" y="93.2" fill-rule="evenodd" clip-rule="evenodd" fill="#BADBDB" width="2.2" height="3.8"/>
	<rect x="1.1" y="100" fill-rule="evenodd" clip-rule="evenodd" fill="#BADBDB" width="2.2" height="3.8"/>
	<rect x="1.1" y="106.7" fill-rule="evenodd" clip-rule="evenodd" fill="#BADBDB" width="2.2" height="3.8"/>
	<rect x="1.1" y="73" fill-rule="evenodd" clip-rule="evenodd" fill="#BADBDB" width="2.2" height="3.8"/>
	<rect x="1.1" y="79.7" fill-rule="evenodd" clip-rule="evenodd" fill="#BADBDB" width="2.2" height="3.8"/>
	<rect x="1.1" y="86.4" fill-rule="evenodd" clip-rule="evenodd" fill="#BADBDB" width="2.2" height="3.8"/>
	<rect x="1.1" y="52.7" fill-rule="evenodd" clip-rule="evenodd" fill="#BADBDB" width="2.2" height="3.8"/>
	<rect x="1.1" y="59.4" fill-rule="evenodd" clip-rule="evenodd" fill="#BADBDB" width="2.2" height="3.8"/>
	<rect x="1.1" y="66.2" fill-rule="evenodd" clip-rule="evenodd" fill="#BADBDB" width="2.2" height="3.8"/>
	<path fill-rule="evenodd" clip-rule="evenodd" fill="#BADBDB" d="M1.2,36.1l2.2,0.4c0,0,0-0.2,0.1-0.5c0.1-0.3,0.2-0.7,0.3-1.1
		c0.1-0.4,0.3-0.8,0.4-1c0.1-0.3,0.2-0.5,0.2-0.5l-2-1.1c0,0-0.1,0.2-0.3,0.6c-0.2,0.3-0.3,0.8-0.5,1.3c-0.2,0.5-0.3,1-0.4,1.3
		C1.3,35.8,1.2,36.1,1.2,36.1z"/>
	<rect x="1.1" y="39.2" fill-rule="evenodd" clip-rule="evenodd" fill="#BADBDB" width="2.2" height="3.8"/>
	<rect x="1.1" y="45.9" fill-rule="evenodd" clip-rule="evenodd" fill="#BADBDB" width="2.2" height="3.8"/>
	<rect x="17.5" y="26.2" fill-rule="evenodd" clip-rule="evenodd" fill="#BADBDB" width="3.8" height="2.2"/>
	<path fill-rule="evenodd" clip-rule="evenodd" fill="#BADBDB" d="M10.7,26.4l0.4,2.2c0,0,0.8-0.1,1.6-0.1c0.9,0,1.8,0,1.8,0v-2.2
		c0,0-1,0-1.9,0c-0.5,0-1,0-1.4,0.1C10.9,26.3,10.7,26.4,10.7,26.4z"/>
	<path fill-rule="evenodd" clip-rule="evenodd" fill="#BADBDB" d="M4.4,29.7L6,31.2c0,0,0.1-0.1,0.4-0.3c0.2-0.2,0.5-0.5,0.9-0.7
		c0.3-0.3,0.7-0.4,0.9-0.6c0.3-0.1,0.5-0.2,0.5-0.2l-1-2c0,0-0.2,0.1-0.6,0.3c-0.3,0.2-0.8,0.4-1.2,0.7C5.1,28.9,4.4,29.7,4.4,29.7z
		"/>
	<rect x="37.8" y="26.2" fill-rule="evenodd" clip-rule="evenodd" fill="#BADBDB" width="3.8" height="2.2"/>
	<rect x="31.1" y="26.2" fill-rule="evenodd" clip-rule="evenodd" fill="#BADBDB" width="3.8" height="2.2"/>
	<rect x="24.3" y="26.2" fill-rule="evenodd" clip-rule="evenodd" fill="#BADBDB" width="3.8" height="2.2"/>
	<rect x="58.1" y="26.2" fill-rule="evenodd" clip-rule="evenodd" fill="#BADBDB" width="3.8" height="2.2"/>
	<rect x="51.3" y="26.2" fill-rule="evenodd" clip-rule="evenodd" fill="#BADBDB" width="3.8" height="2.2"/>
	<rect x="44.6" y="26.2" fill-rule="evenodd" clip-rule="evenodd" fill="#BADBDB" width="3.8" height="2.2"/>
	<path fill-rule="evenodd" clip-rule="evenodd" fill="#BADBDB" d="M78.5,27.6l-1.1,2c0,0,0.7,0.4,1.4,0.9c0.3,0.3,0.6,0.5,0.8,0.8
		c0.2,0.2,0.3,0.4,0.3,0.4l1.7-1.5c0,0-0.2-0.2-0.4-0.5c-0.3-0.3-0.6-0.6-1-0.9C79.4,28.1,78.5,27.6,78.5,27.6z"/>
	<path fill-rule="evenodd" clip-rule="evenodd" fill="#BADBDB" d="M71.6,26.2v2.2c0,0,0.2,0,0.6,0c0.4,0,0.8,0,1.2,0
		c0.8,0,1.6,0.2,1.6,0.2l0.5-2.2c0,0-1-0.2-2-0.3c-0.5,0-1,0-1.4,0C71.8,26.2,71.6,26.2,71.6,26.2z"/>
	<rect x="64.9" y="26.2" fill-rule="evenodd" clip-rule="evenodd" fill="#BADBDB" width="3.8" height="2.2"/>
	<rect x="82.3" y="46.5" fill-rule="evenodd" clip-rule="evenodd" fill="#BADBDB" width="2.2" height="3.8"/>
	<rect x="82.3" y="39.7" fill-rule="evenodd" clip-rule="evenodd" fill="#BADBDB" width="2.2" height="3.8"/>
	<path fill-rule="evenodd" clip-rule="evenodd" fill="#BADBDB" d="M83.4,32.8l-2,1c0,0,0.4,0.7,0.6,1.5c0.1,0.4,0.2,0.8,0.2,1.1
		c0,0.3,0.1,0.5,0.1,0.5l2.2-0.3c0,0,0-0.2-0.1-0.6c0-0.4-0.1-0.9-0.3-1.4C83.8,33.7,83.4,32.8,83.4,32.8z"/>
	<rect x="82.3" y="60" fill-rule="evenodd" clip-rule="evenodd" fill="#BADBDB" width="2.2" height="3.8"/>
	<rect x="82.3" y="53.3" fill-rule="evenodd" clip-rule="evenodd" fill="#BADBDB" width="2.2" height="3.8"/>
	<rect x="82.3" y="85.5" fill-rule="evenodd" clip-rule="evenodd" fill="#BADBDB" width="2.2" height="3.8"/>
	<rect x="82.3" y="105.8" fill-rule="evenodd" clip-rule="evenodd" fill="#BADBDB" width="2.2" height="3.8"/>
	<rect x="82.3" y="99" fill-rule="evenodd" clip-rule="evenodd" fill="#BADBDB" width="2.2" height="3.8"/>
	<rect x="82.3" y="92.3" fill-rule="evenodd" clip-rule="evenodd" fill="#BADBDB" width="2.2" height="3.8"/>
	<rect x="82.3" y="127.5" fill-rule="evenodd" clip-rule="evenodd" fill="#BADBDB" width="2.2" height="3.8"/>
	<rect x="82.3" y="147.8" fill-rule="evenodd" clip-rule="evenodd" fill="#BADBDB" width="2.2" height="3.8"/>
	<rect x="82.3" y="141" fill-rule="evenodd" clip-rule="evenodd" fill="#BADBDB" width="2.2" height="3.8"/>
	<rect x="82.3" y="134.3" fill-rule="evenodd" clip-rule="evenodd" fill="#BADBDB" width="2.2" height="3.8"/>
	<rect x="82.3" y="168" fill-rule="evenodd" clip-rule="evenodd" fill="#BADBDB" width="2.2" height="3.8"/>
	<path fill-rule="evenodd" clip-rule="evenodd" fill="#BADBDB" d="M78.4,186.8l-1.1-2c0,0-0.7,0.4-1.5,0.6c-0.4,0.1-0.8,0.2-1.1,0.3
		c-0.3,0-0.5,0.1-0.5,0.1l0.4,2.2c0,0,0.2,0,0.6-0.1c0.4-0.1,0.9-0.2,1.3-0.3C77.5,187.3,78.4,186.8,78.4,186.8z"/>
	<path fill-rule="evenodd" clip-rule="evenodd" fill="#BADBDB" d="M83.3,181.7l-2-1c0,0-0.4,0.7-0.9,1.4c-0.5,0.7-1.1,1.2-1.1,1.2
		l1.6,1.6c0,0,0.7-0.7,1.3-1.5C82.9,182.6,83.3,181.7,83.3,181.7z"/>
	<path fill-rule="evenodd" clip-rule="evenodd" fill="#BADBDB" d="M84.5,174.8h-2.2c0,0,0,0.9,0,1.8c0,0.8-0.2,1.6-0.2,1.6l2.2,0.5
		c0,0,0.2-1,0.2-2C84.5,175.8,84.5,174.8,84.5,174.8z"/>
</g>
<g>
	<rect x="297" y="184.6" fill-rule="evenodd" clip-rule="evenodd" fill="#BADBDB" width="3.8" height="2.2"/>
	<rect x="303.7" y="184.6" fill-rule="evenodd" clip-rule="evenodd" fill="#BADBDB" width="3.8" height="2.2"/>
	<rect x="310.5" y="184.6" fill-rule="evenodd" clip-rule="evenodd" fill="#BADBDB" width="3.8" height="2.2"/>
	<rect x="276.6" y="184.6" fill-rule="evenodd" clip-rule="evenodd" fill="#BADBDB" width="3.8" height="2.2"/>
	<rect x="283.4" y="184.6" fill-rule="evenodd" clip-rule="evenodd" fill="#BADBDB" width="3.8" height="2.2"/>
	<rect x="290.1" y="184.6" fill-rule="evenodd" clip-rule="evenodd" fill="#BADBDB" width="3.8" height="2.2"/>
	<path fill-rule="evenodd" clip-rule="evenodd" fill="#BADBDB" d="M259.9,186.7l0.4-2.2c0,0-0.2,0-0.5-0.1c-0.3-0.1-0.7-0.2-1.1-0.3
		c-0.8-0.3-1.5-0.6-1.5-0.6l-1.1,2c0,0,0.9,0.5,1.9,0.8c0.5,0.2,1,0.3,1.3,0.4C259.6,186.7,259.9,186.7,259.9,186.7z"/>
	<rect x="263" y="184.6" fill-rule="evenodd" clip-rule="evenodd" fill="#BADBDB" width="3.8" height="2.2"/>
	<rect x="269.8" y="184.6" fill-rule="evenodd" clip-rule="evenodd" fill="#BADBDB" width="3.8" height="2.2"/>
	<rect x="250" y="166.6" fill-rule="evenodd" clip-rule="evenodd" fill="#BADBDB" width="2.2" height="3.8"/>
	<path fill-rule="evenodd" clip-rule="evenodd" fill="#BADBDB" d="M250.2,177.3l2.2-0.4c0,0,0-0.2-0.1-0.5c0-0.3,0-0.7-0.1-1.1
		c0-0.9,0-1.9,0-1.9H250c0,0,0,1,0,1.9c0,0.5,0,1,0.1,1.4C250.1,177,250.2,177.3,250.2,177.3z"/>
	<path fill-rule="evenodd" clip-rule="evenodd" fill="#BADBDB" d="M253.5,183.6l1.6-1.6c0,0-0.6-0.6-1.1-1.2c-0.3-0.3-0.4-0.7-0.6-1
		c-0.1-0.3-0.2-0.5-0.2-0.5l-2,1c0,0,0.1,0.2,0.3,0.6c0.2,0.3,0.4,0.8,0.7,1.2C252.7,182.8,253.5,183.6,253.5,183.6z"/>
	<rect x="250" y="146.2" fill-rule="evenodd" clip-rule="evenodd" fill="#BADBDB" width="2.2" height="3.8"/>
	<rect x="250" y="153" fill-rule="evenodd" clip-rule="evenodd" fill="#BADBDB" width="2.2" height="3.8"/>
	<rect x="250" y="159.7" fill-rule="evenodd" clip-rule="evenodd" fill="#BADBDB" width="2.2" height="3.8"/>
	<rect x="250" y="125.8" fill-rule="evenodd" clip-rule="evenodd" fill="#BADBDB" width="2.2" height="3.8"/>
	<rect x="250" y="132.6" fill-rule="evenodd" clip-rule="evenodd" fill="#BADBDB" width="2.2" height="3.8"/>
	<rect x="250" y="105.5" fill-rule="evenodd" clip-rule="evenodd" fill="#BADBDB" width="2.2" height="3.8"/>
	<rect x="250" y="112.3" fill-rule="evenodd" clip-rule="evenodd" fill="#BADBDB" width="2.2" height="3.8"/>
	<rect x="250" y="119" fill-rule="evenodd" clip-rule="evenodd" fill="#BADBDB" width="2.2" height="3.8"/>
	<rect x="250" y="85.1" fill-rule="evenodd" clip-rule="evenodd" fill="#BADBDB" width="2.2" height="3.8"/>
	<rect x="250" y="98.6" fill-rule="evenodd" clip-rule="evenodd" fill="#BADBDB" width="2.2" height="3.8"/>
	<rect x="250" y="64.8" fill-rule="evenodd" clip-rule="evenodd" fill="#BADBDB" width="2.2" height="3.8"/>
	<rect x="250" y="71.5" fill-rule="evenodd" clip-rule="evenodd" fill="#BADBDB" width="2.2" height="3.8"/>
	<rect x="250" y="78.3" fill-rule="evenodd" clip-rule="evenodd" fill="#BADBDB" width="2.2" height="3.8"/>
	<path fill-rule="evenodd" clip-rule="evenodd" fill="#BADBDB" d="M256.1,49.6l1.1,2c0,0,0.7-0.4,1.5-0.6c0.4-0.1,0.8-0.2,1.1-0.3
		c0.3,0,0.5-0.1,0.5-0.1l-0.4-2.2c0,0-0.2,0-0.6,0.1c-0.4,0.1-0.9,0.2-1.3,0.4C257,49.2,256.1,49.6,256.1,49.6z"/>
	<path fill-rule="evenodd" clip-rule="evenodd" fill="#BADBDB" d="M251.2,54.8l2,1c0,0,0.4-0.7,0.8-1.4c0.5-0.7,1.1-1.2,1.1-1.2
		l-1.6-1.6c0,0-0.7,0.7-1.3,1.5C251.6,53.8,251.2,54.8,251.2,54.8z"/>
	<path fill-rule="evenodd" clip-rule="evenodd" fill="#BADBDB" d="M250,61.7h2.2c0,0,0-0.9,0-1.8c0-0.8,0.2-1.6,0.2-1.6l-2.2-0.4
		c0,0-0.2,1-0.2,2C250,60.7,250,61.7,250,61.7z"/>
	<rect x="276.6" y="48.3" fill-rule="evenodd" clip-rule="evenodd" fill="#BADBDB" width="3.8" height="2.2"/>
	<rect x="269.9" y="48.3" fill-rule="evenodd" clip-rule="evenodd" fill="#BADBDB" width="3.8" height="2.2"/>
	<rect x="263.1" y="48.3" fill-rule="evenodd" clip-rule="evenodd" fill="#BADBDB" width="3.8" height="2.2"/>
	<rect x="297" y="48.3" fill-rule="evenodd" clip-rule="evenodd" fill="#BADBDB" width="3.8" height="2.2"/>
	<rect x="290.2" y="48.3" fill-rule="evenodd" clip-rule="evenodd" fill="#BADBDB" width="3.8" height="2.2"/>
	<rect x="283.5" y="48.3" fill-rule="evenodd" clip-rule="evenodd" fill="#BADBDB" width="3.8" height="2.2"/>
	<path fill-rule="evenodd" clip-rule="evenodd" fill="#BADBDB" d="M317.5,48.4l-0.4,2.2c0,0,0.2,0,0.5,0.1c0.3,0.1,0.7,0.2,1.1,0.3
		c0.8,0.3,1.5,0.6,1.5,0.6l1.1-2c0,0-0.9-0.5-1.9-0.8c-0.5-0.2-1-0.3-1.3-0.4C317.7,48.4,317.5,48.4,317.5,48.4z"/>
	<rect x="310.6" y="48.3" fill-rule="evenodd" clip-rule="evenodd" fill="#BADBDB" width="3.8" height="2.2"/>
	<rect x="303.8" y="48.3" fill-rule="evenodd" clip-rule="evenodd" fill="#BADBDB" width="3.8" height="2.2"/>
	<rect x="325.2" y="64.8" fill-rule="evenodd" clip-rule="evenodd" fill="#BADBDB" width="2.2" height="3.8"/>
	<path fill-rule="evenodd" clip-rule="evenodd" fill="#BADBDB" d="M327.2,57.9l-2.2,0.4c0,0,0,0.2,0.1,0.5c0,0.3,0,0.7,0.1,1.1
		c0,0.9,0,1.9,0,1.9h2.2c0,0,0-1,0-1.9c0-0.5,0-1-0.1-1.4C327.3,58.1,327.2,57.9,327.2,57.9z"/>
	<path fill-rule="evenodd" clip-rule="evenodd" fill="#BADBDB" d="M323.9,51.6l-1.6,1.6c0,0,0.6,0.6,1.1,1.2c0.3,0.3,0.4,0.7,0.6,1
		c0.1,0.3,0.2,0.5,0.2,0.5l2-1c0,0-0.1-0.2-0.3-0.6c-0.2-0.3-0.4-0.8-0.7-1.2C324.7,52.3,323.9,51.6,323.9,51.6z"/>
	<rect x="325.2" y="85.2" fill-rule="evenodd" clip-rule="evenodd" fill="#BADBDB" width="2.2" height="3.8"/>
	<rect x="325.2" y="78.4" fill-rule="evenodd" clip-rule="evenodd" fill="#BADBDB" width="2.2" height="3.8"/>
	<rect x="325.2" y="105.5" fill-rule="evenodd" clip-rule="evenodd" fill="#BADBDB" width="2.2" height="3.8"/>
	<rect x="325.2" y="98.7" fill-rule="evenodd" clip-rule="evenodd" fill="#BADBDB" width="2.2" height="3.8"/>
	<rect x="325.2" y="92" fill-rule="evenodd" clip-rule="evenodd" fill="#BADBDB" width="2.2" height="3.8"/>
	<rect x="325.2" y="125.9" fill-rule="evenodd" clip-rule="evenodd" fill="#BADBDB" width="2.2" height="3.8"/>
	<rect x="325.2" y="119.1" fill-rule="evenodd" clip-rule="evenodd" fill="#BADBDB" width="2.2" height="3.8"/>
	<rect x="325.2" y="112.3" fill-rule="evenodd" clip-rule="evenodd" fill="#BADBDB" width="2.2" height="3.8"/>
	<rect x="325.2" y="146.2" fill-rule="evenodd" clip-rule="evenodd" fill="#BADBDB" width="2.2" height="3.8"/>
	<rect x="325.2" y="139.5" fill-rule="evenodd" clip-rule="evenodd" fill="#BADBDB" width="2.2" height="3.8"/>
	<rect x="325.2" y="132.7" fill-rule="evenodd" clip-rule="evenodd" fill="#BADBDB" width="2.2" height="3.8"/>
	<rect x="325.2" y="166.6" fill-rule="evenodd" clip-rule="evenodd" fill="#BADBDB" width="2.2" height="3.8"/>
	<rect x="325.2" y="159.8" fill-rule="evenodd" clip-rule="evenodd" fill="#BADBDB" width="2.2" height="3.8"/>
	<path fill-rule="evenodd" clip-rule="evenodd" fill="#BADBDB" d="M321.3,185.5l-1.1-2c0,0-0.7,0.4-1.5,0.6
		c-0.4,0.1-0.8,0.2-1.1,0.3c-0.3,0-0.5,0.1-0.5,0.1l0.4,2.2c0,0,0.2,0,0.6-0.1c0.4-0.1,0.9-0.2,1.3-0.4
		C320.4,186,321.3,185.5,321.3,185.5z"/>
	<path fill-rule="evenodd" clip-rule="evenodd" fill="#BADBDB" d="M326.2,180.4l-2-1c0,0-0.4,0.7-0.8,1.4c-0.5,0.7-1.1,1.2-1.1,1.2
		l1.6,1.6c0,0,0.7-0.7,1.3-1.5C325.8,181.3,326.2,180.4,326.2,180.4z"/>
	<path fill-rule="evenodd" clip-rule="evenodd" fill="#BADBDB" d="M327.4,173.4h-2.2c0,0,0,0.9,0,1.8c0,0.8-0.2,1.6-0.2,1.6l2.2,0.4
		c0,0,0.2-1,0.2-2C327.4,174.4,327.4,173.4,327.4,173.4z"/>
</g>
<g>
	<rect x="214.3" y="152.7" fill-rule="evenodd" clip-rule="evenodd" fill="#BADBDB" width="3.7" height="2.2"/>
	<rect x="220.9" y="152.7" fill-rule="evenodd" clip-rule="evenodd" fill="#BADBDB" width="3.7" height="2.2"/>
	<polygon fill-rule="evenodd" clip-rule="evenodd" fill="#BADBDB" points="231.5,155 230.9,152.7 227.6,152.7 227.6,155 	"/>
	<path fill-rule="evenodd" clip-rule="evenodd" fill="#BADBDB" d="M198,152.6l1.8-1.7c0,0-0.6-0.6-0.9-1.3c-0.4-0.7-0.5-1.5-0.5-1.5
		l-2.1,1.1c0,0,0,0.2,0.1,0.6c0.1,0.4,0.3,0.8,0.5,1.3C197.3,151.8,198,152.6,198,152.6z"/>
	<path fill-rule="evenodd" clip-rule="evenodd" fill="#BADBDB" d="M204.4,154.9l0.7-2.2c0,0-0.2,0-0.5,0c-0.3,0-0.7,0-1.1,0
		c-0.8-0.1-1.6-0.4-1.6-0.4l-1.3,2c0,0,0.9,0.4,1.9,0.5c0.5,0,1,0.1,1.3,0.1C204.1,154.9,204.4,154.9,204.4,154.9z"/>
	<polygon fill-rule="evenodd" clip-rule="evenodd" fill="#BADBDB" points="211.3,155 211.3,152.7 207.6,152.7 207.5,155 	"/>
	<rect x="196" y="128.7" fill-rule="evenodd" clip-rule="evenodd" fill="#BADBDB" width="2.2" height="3.7"/>
	<rect x="196" y="135.4" fill-rule="evenodd" clip-rule="evenodd" fill="#BADBDB" width="2.2" height="3.7"/>
	<polygon fill-rule="evenodd" clip-rule="evenodd" fill="#BADBDB" points="196,145.9 198.3,145.4 198.3,142 196,142 	"/>
	<rect x="196" y="108.7" fill-rule="evenodd" clip-rule="evenodd" fill="#BADBDB" width="2.2" height="3.7"/>
	<polygon fill-rule="evenodd" clip-rule="evenodd" fill="#BADBDB" points="196,92.4 198.3,92.4 198.3,89.1 196.1,88.5 	"/>
	<rect x="196" y="95.4" fill-rule="evenodd" clip-rule="evenodd" fill="#BADBDB" width="2.2" height="3.7"/>
	<rect x="196" y="102" fill-rule="evenodd" clip-rule="evenodd" fill="#BADBDB" width="2.2" height="3.7"/>
	<rect x="208.2" y="80.2" fill-rule="evenodd" clip-rule="evenodd" fill="#BADBDB" width="3.7" height="2.2"/>
	<path fill-rule="evenodd" clip-rule="evenodd" fill="#BADBDB" d="M201.2,80.5l1.2,2.1c0,0,0.8-0.2,1.6-0.2c0.8,0,1.6,0,1.6,0
		l-0.5-2.2c0,0-1,0-2,0C202.1,80.2,201.2,80.5,201.2,80.5z"/>
	<path fill-rule="evenodd" clip-rule="evenodd" fill="#BADBDB" d="M196.4,85.3l2.1,1.2c0,0,0.2-0.8,0.7-1.5c0.4-0.7,1-1.2,1-1.2
		l-1.7-1.8c0,0-0.8,0.6-1.3,1.5C196.7,84.4,196.4,85.3,196.4,85.3z"/>
	<polygon fill-rule="evenodd" clip-rule="evenodd" fill="#BADBDB" points="228.3,80.2 228.3,82.4 231.5,82.4 232.2,80.2 	"/>
	<rect x="221.6" y="80.2" fill-rule="evenodd" clip-rule="evenodd" fill="#BADBDB" width="3.7" height="2.2"/>
	<rect x="214.9" y="80.2" fill-rule="evenodd" clip-rule="evenodd" fill="#BADBDB" width="3.7" height="2.2"/>
	<rect x="237.9" y="92.7" fill-rule="evenodd" clip-rule="evenodd" fill="#BADBDB" width="2.2" height="3.7"/>
	<path fill-rule="evenodd" clip-rule="evenodd" fill="#BADBDB" d="M239.9,85.6l-2.1,1.2c0,0,0.1,0.2,0.1,0.5
		c0.1,0.3,0.1,0.7,0.1,1.1c0,0.8,0,1.6,0,1.6l2.2-0.5c0,0,0-1,0-2c0-0.5,0-1-0.1-1.3C240,85.9,239.9,85.6,239.9,85.6z"/>
	<path fill-rule="evenodd" clip-rule="evenodd" fill="#BADBDB" d="M235.3,80.6l-1.3,2.1c0,0,0.8,0.2,1.4,0.7
		c0.7,0.5,1.2,1.1,1.2,1.1l1.8-1.6c0,0-0.6-0.8-1.4-1.3C236.3,81,235.3,80.6,235.3,80.6z"/>
	<rect x="237.9" y="112.7" fill-rule="evenodd" clip-rule="evenodd" fill="#BADBDB" width="2.2" height="3.7"/>
	<rect x="237.9" y="119.4" fill-rule="evenodd" clip-rule="evenodd" fill="#BADBDB" width="2.2" height="3.7"/>
	<path fill-rule="evenodd" clip-rule="evenodd" fill="#BADBDB" d="M238,152.8l-1.7-1.7c0,0-0.6,0.6-1.3,1c-0.7,0.4-1.5,0.6-1.5,0.6
		l1.2,2.1c0,0,1-0.2,1.8-0.7C237.3,153.5,238,152.8,238,152.8z"/>
	<path fill-rule="evenodd" clip-rule="evenodd" fill="#BADBDB" d="M240.2,146.3l-2.2-0.6c0,0,0,0.8,0,1.6c0,0.8-0.3,1.6-0.3,1.6
		l2.1,1.3c0,0,0.3-0.9,0.4-1.9C240.2,147.3,240.2,146.3,240.2,146.3z"/>
	<polygon fill-rule="evenodd" clip-rule="evenodd" fill="#BADBDB" points="240.2,139.4 237.9,139.4 237.9,143.1 240.2,143.1 	"/>
</g>
<g>
	<rect x="439.8" y="201.9" fill-rule="evenodd" clip-rule="evenodd" fill="#BADBDB" width="3.7" height="2.2"/>
	<rect x="446.6" y="201.9" fill-rule="evenodd" clip-rule="evenodd" fill="#BADBDB" width="3.7" height="2.2"/>
	<rect x="453.2" y="201.9" fill-rule="evenodd" clip-rule="evenodd" fill="#BADBDB" width="3.7" height="2.2"/>
	<rect x="419.6" y="201.9" fill-rule="evenodd" clip-rule="evenodd" fill="#BADBDB" width="3.7" height="2.2"/>
	<rect x="426.4" y="201.9" fill-rule="evenodd" clip-rule="evenodd" fill="#BADBDB" width="3.7" height="2.2"/>
	<rect x="433.1" y="201.9" fill-rule="evenodd" clip-rule="evenodd" fill="#BADBDB" width="3.7" height="2.2"/>
	<rect x="399.5" y="201.9" fill-rule="evenodd" clip-rule="evenodd" fill="#BADBDB" width="3.7" height="2.2"/>
	<rect x="406.2" y="201.9" fill-rule="evenodd" clip-rule="evenodd" fill="#BADBDB" width="3.7" height="2.2"/>
	<rect x="412.9" y="201.9" fill-rule="evenodd" clip-rule="evenodd" fill="#BADBDB" width="3.7" height="2.2"/>
	<path fill-rule="evenodd" clip-rule="evenodd" fill="#BADBDB" d="M383,204.2v-2.2l-3.7,0l-0.1,2.2c0,0,0.3,0,0.6,0
		c0.4,0,0.8,0,1.3,0C382.1,204.2,383,204.2,383,204.2z"/>
	<rect x="386" y="201.9" fill-rule="evenodd" clip-rule="evenodd" fill="#BADBDB" width="3.7" height="2.2"/>
	<rect x="392.7" y="201.9" fill-rule="evenodd" clip-rule="evenodd" fill="#BADBDB" width="3.7" height="2.2"/>
	<path fill-rule="evenodd" clip-rule="evenodd" fill="#BADBDB" d="M367.9,193l2.2-0.1c0,0,0-0.2,0-0.5c0-0.3,0-0.8,0-1.3
		c0-0.9,0-1.9,0-1.9h-2.2c0,0,0,0.9,0,1.9c0,0.5,0,0.9,0,1.3C367.9,192.7,367.9,193,367.9,193z"/>
	<path fill-rule="evenodd" clip-rule="evenodd" fill="#BADBDB" d="M370.3,199.6l1.8-1.4c0,0-0.1-0.2-0.3-0.4c-0.2-0.3-0.4-0.6-0.6-1
		c-0.4-0.7-0.6-1.5-0.6-1.5l-2.1,0.7c0,0,0.3,1,0.8,1.8c0.2,0.4,0.5,0.9,0.7,1.2C370.1,199.4,370.3,199.6,370.3,199.6z"/>
	<path fill-rule="evenodd" clip-rule="evenodd" fill="#BADBDB" d="M376,203.7l0.7-2.1c0,0-0.2-0.1-0.5-0.2c-0.3-0.1-0.7-0.3-1-0.4
		c-0.4-0.2-0.7-0.4-1-0.6c-0.2-0.2-0.4-0.3-0.4-0.3l-1.4,1.8c0,0,0.2,0.1,0.5,0.4c0.3,0.2,0.7,0.5,1.2,0.7c0.4,0.2,0.9,0.4,1.3,0.5
		C375.8,203.6,376,203.7,376,203.7z"/>
	<rect x="367.9" y="169" fill-rule="evenodd" clip-rule="evenodd" fill="#BADBDB" width="2.2" height="3.7"/>
	<rect x="367.9" y="175.7" fill-rule="evenodd" clip-rule="evenodd" fill="#BADBDB" width="2.2" height="3.7"/>
	<rect x="367.9" y="182.4" fill-rule="evenodd" clip-rule="evenodd" fill="#BADBDB" width="2.2" height="3.7"/>
	<rect x="367.9" y="128.6" fill-rule="evenodd" clip-rule="evenodd" fill="#BADBDB" width="2.2" height="3.7"/>
	<rect x="367.9" y="135.3" fill-rule="evenodd" clip-rule="evenodd" fill="#BADBDB" width="2.2" height="3.7"/>
	<rect x="367.9" y="108.4" fill-rule="evenodd" clip-rule="evenodd" fill="#BADBDB" width="2.2" height="3.7"/>
	<rect x="367.9" y="115.1" fill-rule="evenodd" clip-rule="evenodd" fill="#BADBDB" width="2.2" height="3.7"/>
	<rect x="367.9" y="121.8" fill-rule="evenodd" clip-rule="evenodd" fill="#BADBDB" width="2.2" height="3.7"/>
	<rect x="367.9" y="88.2" fill-rule="evenodd" clip-rule="evenodd" fill="#BADBDB" width="2.2" height="3.7"/>
	<rect x="367.9" y="95" fill-rule="evenodd" clip-rule="evenodd" fill="#BADBDB" width="2.2" height="3.7"/>
	<rect x="367.9" y="101.6" fill-rule="evenodd" clip-rule="evenodd" fill="#BADBDB" width="2.2" height="3.7"/>
	<rect x="367.9" y="47.9" fill-rule="evenodd" clip-rule="evenodd" fill="#BADBDB" width="2.2" height="3.7"/>
	<rect x="367.9" y="54.6" fill-rule="evenodd" clip-rule="evenodd" fill="#BADBDB" width="2.2" height="3.7"/>
	<rect x="367.9" y="27.7" fill-rule="evenodd" clip-rule="evenodd" fill="#BADBDB" width="2.2" height="3.7"/>
	<rect x="367.9" y="34.4" fill-rule="evenodd" clip-rule="evenodd" fill="#BADBDB" width="2.2" height="3.7"/>
	<rect x="367.9" y="41.1" fill-rule="evenodd" clip-rule="evenodd" fill="#BADBDB" width="2.2" height="3.7"/>
	<path fill-rule="evenodd" clip-rule="evenodd" fill="#BADBDB" d="M368,11.1l2.2,0.4c0,0,0-0.2,0.1-0.5c0.1-0.3,0.2-0.7,0.3-1.1
		c0.1-0.4,0.3-0.8,0.4-1c0.1-0.3,0.2-0.5,0.2-0.5l-2-1.1c0,0-0.1,0.2-0.3,0.6c-0.2,0.3-0.4,0.8-0.5,1.3c-0.2,0.5-0.3,1-0.4,1.3
		C368.1,10.8,368,11.1,368,11.1z"/>
	<rect x="367.9" y="14.2" fill-rule="evenodd" clip-rule="evenodd" fill="#BADBDB" width="2.2" height="3.7"/>
	<rect x="367.9" y="20.9" fill-rule="evenodd" clip-rule="evenodd" fill="#BADBDB" width="2.2" height="3.7"/>
	<rect x="384.3" y="1.3" fill-rule="evenodd" clip-rule="evenodd" fill="#BADBDB" width="3.7" height="2.2"/>
	<path fill-rule="evenodd" clip-rule="evenodd" fill="#BADBDB" d="M377.5,1.5l0.4,2.2c0,0,0.8-0.1,1.6-0.1c0.9,0,1.8,0,1.8,0V1.3
		c0,0-0.9,0-1.9,0c-0.5,0-1,0-1.4,0.1C377.7,1.4,377.5,1.5,377.5,1.5z"/>
	<path fill-rule="evenodd" clip-rule="evenodd" fill="#BADBDB" d="M371.2,4.7l1.6,1.6c0,0,0.1-0.1,0.4-0.3c0.2-0.2,0.5-0.5,0.9-0.7
		c0.3-0.3,0.7-0.4,0.9-0.6c0.3-0.1,0.5-0.2,0.5-0.2l-1-2c0,0-0.2,0.1-0.6,0.3c-0.3,0.2-0.8,0.4-1.2,0.7c-0.4,0.3-0.8,0.6-1.1,0.9
		C371.4,4.6,371.2,4.7,371.2,4.7z"/>
	<rect x="404.5" y="1.3" fill-rule="evenodd" clip-rule="evenodd" fill="#BADBDB" width="3.7" height="2.2"/>
	<rect x="397.8" y="1.3" fill-rule="evenodd" clip-rule="evenodd" fill="#BADBDB" width="3.7" height="2.2"/>
	<rect x="391.1" y="1.3" fill-rule="evenodd" clip-rule="evenodd" fill="#BADBDB" width="3.7" height="2.2"/>
	<rect x="424.7" y="1.3" fill-rule="evenodd" clip-rule="evenodd" fill="#BADBDB" width="3.7" height="2.2"/>
	<rect x="418" y="1.3" fill-rule="evenodd" clip-rule="evenodd" fill="#BADBDB" width="3.7" height="2.2"/>
	<rect x="411.3" y="1.3" fill-rule="evenodd" clip-rule="evenodd" fill="#BADBDB" width="3.7" height="2.2"/>
	<rect x="444.9" y="1.3" fill-rule="evenodd" clip-rule="evenodd" fill="#BADBDB" width="3.7" height="2.2"/>
	<rect x="438.2" y="1.3" fill-rule="evenodd" clip-rule="evenodd" fill="#BADBDB" width="3.7" height="2.2"/>
	<rect x="431.5" y="1.3" fill-rule="evenodd" clip-rule="evenodd" fill="#BADBDB" width="3.7" height="2.2"/>
	<path fill-rule="evenodd" clip-rule="evenodd" fill="#BADBDB" d="M465.1,3.3l-1.3,1.8c0,0,0.7,0.5,1.3,1c0.6,0.6,1.1,1.2,1.1,1.2
		l1.8-1.3c0,0-0.6-0.8-1.3-1.5C466,3.9,465.1,3.3,465.1,3.3z"/>
	<path fill-rule="evenodd" clip-rule="evenodd" fill="#BADBDB" d="M458.4,1.3l0,2.2c0,0,0.2,0,0.5,0c0.3,0,0.7,0,1.1,0.1
		c0.8,0.1,1.6,0.4,1.6,0.4l0.8-2.1c0,0-0.9-0.3-1.9-0.5c-0.5-0.1-1-0.1-1.4-0.1C458.6,1.3,458.4,1.3,458.4,1.3z"/>
	<rect x="451.6" y="1.3" fill-rule="evenodd" clip-rule="evenodd" fill="#BADBDB" width="3.7" height="2.2"/>
	<rect x="467.9" y="22.6" fill-rule="evenodd" clip-rule="evenodd" fill="#BADBDB" width="2.2" height="3.7"/>
	<rect x="467.9" y="15.9" fill-rule="evenodd" clip-rule="evenodd" fill="#BADBDB" width="2.2" height="3.7"/>
	<path fill-rule="evenodd" clip-rule="evenodd" fill="#BADBDB" d="M469.4,9l-2.1,0.8c0,0,0.3,0.8,0.4,1.6c0.1,0.4,0.1,0.8,0.1,1.1
		c0,0.3,0,0.5,0,0.5l2.2,0c0,0,0-0.3,0-0.6c0-0.4-0.1-0.9-0.1-1.4C469.8,9.9,469.4,9,469.4,9z"/>
	<rect x="467.9" y="42.8" fill-rule="evenodd" clip-rule="evenodd" fill="#BADBDB" width="2.2" height="3.7"/>
	<rect x="467.9" y="36.1" fill-rule="evenodd" clip-rule="evenodd" fill="#BADBDB" width="2.2" height="3.7"/>
	<rect x="467.9" y="29.4" fill-rule="evenodd" clip-rule="evenodd" fill="#BADBDB" width="2.2" height="3.7"/>
	<rect x="467.9" y="63" fill-rule="evenodd" clip-rule="evenodd" fill="#BADBDB" width="2.2" height="3.7"/>
	<rect x="467.9" y="56.3" fill-rule="evenodd" clip-rule="evenodd" fill="#BADBDB" width="2.2" height="3.7"/>
	<rect x="467.9" y="49.6" fill-rule="evenodd" clip-rule="evenodd" fill="#BADBDB" width="2.2" height="3.7"/>
	<rect x="467.9" y="83.2" fill-rule="evenodd" clip-rule="evenodd" fill="#BADBDB" width="2.2" height="3.7"/>
	<rect x="467.9" y="76.5" fill-rule="evenodd" clip-rule="evenodd" fill="#BADBDB" width="2.2" height="3.7"/>
	<rect x="467.9" y="69.8" fill-rule="evenodd" clip-rule="evenodd" fill="#BADBDB" width="2.2" height="3.7"/>
	<rect x="467.9" y="103.4" fill-rule="evenodd" clip-rule="evenodd" fill="#BADBDB" width="2.2" height="3.7"/>
	<rect x="467.9" y="96.7" fill-rule="evenodd" clip-rule="evenodd" fill="#BADBDB" width="2.2" height="3.7"/>
	<rect x="467.9" y="90" fill-rule="evenodd" clip-rule="evenodd" fill="#BADBDB" width="2.2" height="3.7"/>
	<rect x="467.9" y="123.6" fill-rule="evenodd" clip-rule="evenodd" fill="#BADBDB" width="2.2" height="3.7"/>
	<rect x="467.9" y="116.8" fill-rule="evenodd" clip-rule="evenodd" fill="#BADBDB" width="2.2" height="3.7"/>
	<rect x="467.9" y="110.1" fill-rule="evenodd" clip-rule="evenodd" fill="#BADBDB" width="2.2" height="3.7"/>
	<rect x="467.9" y="143.8" fill-rule="evenodd" clip-rule="evenodd" fill="#BADBDB" width="2.2" height="3.7"/>
	<rect x="467.9" y="137" fill-rule="evenodd" clip-rule="evenodd" fill="#BADBDB" width="2.2" height="3.7"/>
	<rect x="467.9" y="130.3" fill-rule="evenodd" clip-rule="evenodd" fill="#BADBDB" width="2.2" height="3.7"/>
	<rect x="467.9" y="163.9" fill-rule="evenodd" clip-rule="evenodd" fill="#BADBDB" width="2.2" height="3.7"/>
	<rect x="467.9" y="157.2" fill-rule="evenodd" clip-rule="evenodd" fill="#BADBDB" width="2.2" height="3.7"/>
	<rect x="467.9" y="150.5" fill-rule="evenodd" clip-rule="evenodd" fill="#BADBDB" width="2.2" height="3.7"/>
	<rect x="467.9" y="184.1" fill-rule="evenodd" clip-rule="evenodd" fill="#BADBDB" width="2.2" height="3.7"/>
	<rect x="467.9" y="177.4" fill-rule="evenodd" clip-rule="evenodd" fill="#BADBDB" width="2.2" height="3.7"/>
	<rect x="467.9" y="170.7" fill-rule="evenodd" clip-rule="evenodd" fill="#BADBDB" width="2.2" height="3.7"/>
	<path fill-rule="evenodd" clip-rule="evenodd" fill="#BADBDB" d="M463.9,202.8l-1.1-2c0,0-0.7,0.4-1.5,0.6
		c-0.4,0.1-0.8,0.2-1.1,0.3c-0.3,0-0.5,0.1-0.5,0.1l0.4,2.2c0,0,0.2,0,0.6-0.1c0.4-0.1,0.9-0.2,1.3-0.3
		C463,203.3,463.9,202.8,463.9,202.8z"/>
	<path fill-rule="evenodd" clip-rule="evenodd" fill="#BADBDB" d="M468.9,197.8l-2-1c0,0-0.4,0.7-0.9,1.4c-0.5,0.7-1.1,1.2-1.1,1.2
		l1.5,1.6c0,0,0.7-0.7,1.3-1.5C468.4,198.7,468.9,197.8,468.9,197.8z"/>
	<path fill-rule="evenodd" clip-rule="evenodd" fill="#BADBDB" d="M470.1,190.9h-2.2c0,0,0,0.9,0,1.8c0,0.8-0.2,1.6-0.2,1.6l2.2,0.5
		c0,0,0.2-1,0.2-2C470.1,191.8,470.1,190.9,470.1,190.9z"/>
</g>
<path fill="#09C1D1" d="M448,110.8h-59.3c-4.5,0-8.2-3.7-8.2-8.2V43.8c0-4.5,3.7-8.2,8.2-8.2H448c4.5,0,8.2,3.7,8.2,8.2v58.8
	C456.2,107.1,452.5,110.8,448,110.8z"/>
<path fill="#09C1D1" d="M448,190.9h-59.3c-4.5,0-8.2-3.7-8.2-8.2v-58.8c0-4.5,3.7-8.2,8.2-8.2H448c4.5,0,8.2,3.7,8.2,8.2v58.8
	C456.2,187.2,452.5,190.9,448,190.9z"/>
<path fill="#E6F4F5" d="M446.7,70.5h-57.4c-1.4,0-2.6-1.2-2.6-2.6V44.2c0-1.4,1.2-2.6,2.6-2.6h57.4c1.4,0,2.6,1.2,2.6,2.6V68
	C449.3,69.4,448.1,70.5,446.7,70.5z"/>
<path fill="#326DE6" d="M441.5,66h-49.3c-0.3,0-0.6-0.3-0.6-0.6V47.2c0-0.3,0.3-0.6,0.6-0.6h49.3c0.3,0,0.6,0.3,0.6,0.6v18.3
	C442.1,65.8,441.8,66,441.5,66z"/>
<path fill="#E6F4F5" d="M446.7,104.1h-57.4c-1.4,0-2.6-1.2-2.6-2.6V77.8c0-1.4,1.2-2.6,2.6-2.6h57.4c1.4,0,2.6,1.2,2.6,2.6v23.8
	C449.3,103,448.1,104.1,446.7,104.1z"/>
<path fill="#326DE6" d="M442.1,99.6h-49.9c-0.3,0-0.6-0.3-0.6-0.6V80.7c0-0.3,0.3-0.6,0.6-0.6h49.9c0.3,0,0.6,0.3,0.6,0.6V99
	C442.7,99.4,442.5,99.6,442.1,99.6z"/>
<path fill="#E6F4F5" d="M446.7,151h-57.4c-1.4,0-2.6-1.2-2.6-2.6v-23.8c0-1.4,1.2-2.6,2.6-2.6h57.4c1.4,0,2.6,1.2,2.6,2.6v23.8
	C449.3,149.8,448.1,151,446.7,151z"/>
<path fill="#326DE6" d="M441.5,146.5h-49.3c-0.3,0-0.6-0.3-0.6-0.6v-18.3c0-0.3,0.3-0.6,0.6-0.6h49.3c0.3,0,0.6,0.3,0.6,0.6v18.3
	C442.1,146.2,441.8,146.5,441.5,146.5z"/>
<path fill="#E6F4F5" d="M446.7,184.6h-57.4c-1.4,0-2.6-1.2-2.6-2.6v-23.8c0-1.4,1.2-2.6,2.6-2.6h57.4c1.4,0,2.6,1.2,2.6,2.6V182
	C449.3,183.4,448.1,184.6,446.7,184.6z"/>
<path fill="#326DE6" d="M442.1,180.1h-49.9c-0.3,0-0.6-0.3-0.6-0.6v-18.3c0-0.3,0.3-0.6,0.6-0.6h49.9c0.3,0,0.6,0.3,0.6,0.6v18.3
	C442.7,179.8,442.5,180.1,442.1,180.1z"/>
<rect x="315.3" y="153.3" fill="#BADBDB" width="35.1" height="2"/>
<rect x="316.8" y="72.3" fill="#BADBDB" width="35.1" height="2"/>
<path fill="#326DE6" d="M139.4,134c-7.5,0-15-0.1-22.4,0c-8.9,0.1-15.9-7.4-15.3-16.1c0.4-6.1,3.7-10.3,9.3-12.7
	c0.6-0.2,0.8-0.5,0.9-1.1c1.2-4.1,3.8-6.8,8-7.7c1.8-0.4,3.6-0.2,5.3,0.6c0.5,0.3,0.7,0.1,1-0.4c3.9-6.9,9.7-10.5,17.7-10.4
	c9,0.1,17.2,7.5,18.4,16.4c0.1,1,0.2,2,0.2,3c0,0.4,0,0.6,0.5,0.6c7.2,0.2,13,6.4,12.8,14.1c-0.2,7.5-6.4,13.5-13.8,13.5
	C154.5,134,146.9,134,139.4,134z"/>
<g>
	<path fill="#FFFFFF" d="M117.5,115.7c0.8,0.7,1.1,1.7,1.1,2.9s-0.4,2.2-1.1,2.9s-1.9,1.1-3.4,1.1h-2.7v-7.9h2.8
		C115.7,114.7,116.7,115.1,117.5,115.7z M116.2,120.5c0.4-0.4,0.7-1,0.7-1.8c0-0.8-0.2-1.4-0.7-1.8c-0.4-0.4-1.1-0.6-2-0.6h-1v4.8
		h1.1C115.1,121.1,115.8,120.9,116.2,120.5z"/>
	<path fill="#FFFFFF" d="M120.1,115.8c-0.2-0.2-0.3-0.4-0.3-0.7s0.1-0.5,0.3-0.7c0.2-0.2,0.4-0.3,0.7-0.3s0.5,0.1,0.7,0.3
		s0.3,0.4,0.3,0.7s-0.1,0.5-0.3,0.7c-0.2,0.2-0.4,0.3-0.7,0.3S120.3,115.9,120.1,115.8z M121.6,122.6h-1.7v-6.1h1.7V122.6z"/>
	<path fill="#FFFFFF" d="M127.9,120.7c0,0.6-0.2,1.1-0.7,1.4c-0.4,0.4-1,0.5-1.7,0.5c-0.5,0-0.9-0.1-1.4-0.2
		c-0.5-0.2-0.9-0.4-1.3-0.7l0.8-1.1c0.6,0.5,1.3,0.7,2,0.7c0.2,0,0.4,0,0.5-0.1s0.2-0.2,0.2-0.3s-0.1-0.3-0.3-0.4s-0.4-0.2-0.8-0.3
		c-0.3-0.1-0.6-0.2-0.8-0.3c-0.2-0.1-0.4-0.2-0.6-0.3c-0.5-0.3-0.7-0.7-0.7-1.3s0.2-1,0.7-1.4c0.5-0.4,1-0.5,1.8-0.5
		s1.4,0.2,2.2,0.7l-0.6,1.1c-0.5-0.4-1.1-0.5-1.6-0.5s-0.8,0.1-0.8,0.4c0,0.2,0.1,0.3,0.3,0.4c0.2,0.1,0.4,0.2,0.8,0.3
		s0.7,0.2,0.8,0.3c0.2,0.1,0.4,0.2,0.6,0.3C127.6,119.7,127.9,120.1,127.9,120.7z"/>
	<path fill="#FFFFFF" d="M132.1,121.2c0.6,0,1.1-0.3,1.5-0.9l1,1.1c-0.8,0.8-1.6,1.2-2.6,1.2c-0.9,0-1.7-0.3-2.3-0.9
		c-0.6-0.6-0.9-1.3-0.9-2.3s0.3-1.7,1-2.3c0.6-0.6,1.4-0.9,2.3-0.9c0.4,0,0.9,0.1,1.3,0.3c0.5,0.2,0.8,0.5,1.2,0.8l-0.9,1.2
		c-0.2-0.2-0.4-0.4-0.7-0.5s-0.6-0.2-0.8-0.2c-0.4,0-0.8,0.1-1.2,0.4c-0.3,0.3-0.5,0.7-0.5,1.2c0,0.5,0.2,0.9,0.5,1.2
		C131.3,121.1,131.7,121.2,132.1,121.2z"/>
	<path fill="#FFFFFF" d="M141.8,119.6c0,0.9-0.3,1.6-0.9,2.2c-0.6,0.6-1.4,0.9-2.3,0.9c-0.9,0-1.7-0.3-2.3-0.9
		c-0.6-0.6-0.9-1.4-0.9-2.2c0-0.9,0.3-1.6,0.9-2.2c0.6-0.6,1.4-0.9,2.3-0.9c0.9,0,1.7,0.3,2.3,0.9
		C141.5,118,141.8,118.7,141.8,119.6z M137,119.6c0,0.5,0.1,0.9,0.4,1.2c0.3,0.3,0.6,0.5,1.1,0.5c0.4,0,0.8-0.2,1.1-0.5
		c0.3-0.3,0.4-0.7,0.4-1.2s-0.1-0.9-0.4-1.2c-0.3-0.3-0.6-0.5-1.1-0.5c-0.4,0-0.8,0.2-1.1,0.5C137.2,118.7,137,119.1,137,119.6z"/>
	<path fill="#FFFFFF" d="M144.6,122.6l-2.4-6.1h1.8l1.5,3.9l1.5-3.9h1.8l-2.4,6.1H144.6z"/>
	<path fill="#FFFFFF" d="M154.9,121.8c-0.7,0.7-1.5,1-2.4,1s-1.7-0.3-2.3-0.9c-0.6-0.6-0.9-1.3-0.9-2.3s0.3-1.7,0.9-2.3
		c0.6-0.6,1.3-0.9,2.2-0.9s1.6,0.3,2.1,0.8c0.6,0.5,0.9,1.2,0.9,2.1v0.9h-4.5c0.1,0.3,0.2,0.6,0.5,0.8c0.3,0.2,0.6,0.3,1,0.3
		c0.6,0,1.1-0.2,1.5-0.6L154.9,121.8z M153.2,118.1c-0.2-0.2-0.5-0.3-0.9-0.3s-0.6,0.1-0.9,0.3c-0.3,0.2-0.4,0.5-0.5,0.8h2.7
		C153.6,118.6,153.5,118.3,153.2,118.1z"/>
	<path fill="#FFFFFF" d="M159.8,118c-0.5,0-0.9,0.2-1.1,0.5s-0.4,0.8-0.4,1.4v2.6h-1.7v-6.1h1.7v0.8c0.2-0.3,0.5-0.5,0.8-0.6
		c0.3-0.2,0.7-0.3,1-0.3l0,1.6H159.8z"/>
	<path fill="#FFFFFF" d="M162.3,125.1c-0.6,0-1.2-0.2-1.7-0.7l0.8-1.3c0.3,0.3,0.6,0.4,0.9,0.4c0.2,0,0.3-0.1,0.4-0.2
		s0.2-0.3,0.2-0.5c0-0.2-0.8-2.2-2.4-6.2h1.8l1.5,3.8l1.5-3.8h1.8l-2.8,7.2c-0.2,0.4-0.4,0.7-0.8,1
		C163.1,124.9,162.7,125.1,162.3,125.1z"/>
</g>
<g>
	<path fill="#326DE6" d="M347,77.8c-2.7,0-5.4,0-8.1,0c-3.2,0-5.7-2.7-5.5-5.8c0.2-2.2,1.3-3.7,3.3-4.6c0.2-0.1,0.3-0.2,0.3-0.4
		c0.4-1.5,1.4-2.5,2.9-2.8c0.7-0.1,1.3-0.1,1.9,0.2c0.2,0.1,0.3,0,0.4-0.1c1.4-2.5,3.5-3.8,6.4-3.8c3.3,0,6.2,2.7,6.6,5.9
		c0,0.4,0.1,0.7,0.1,1.1c0,0.1,0,0.2,0.2,0.2c2.6,0.1,4.7,2.3,4.6,5.1c-0.1,2.7-2.3,4.9-5,4.9C352.5,77.8,349.8,77.8,347,77.8z"/>
</g>
<g>
	<path fill="#326DE6" d="M347,158.6c-2.7,0-5.4,0-8.1,0c-3.2,0-5.7-2.7-5.5-5.8c0.2-2.2,1.3-3.7,3.3-4.6c0.2-0.1,0.3-0.2,0.3-0.4
		c0.4-1.5,1.4-2.5,2.9-2.8c0.7-0.1,1.3-0.1,1.9,0.2c0.2,0.1,0.3,0,0.4-0.1c1.4-2.5,3.5-3.8,6.4-3.8c3.3,0,6.2,2.7,6.6,5.9
		c0,0.4,0.1,0.7,0.1,1.1c0,0.1,0,0.2,0.2,0.2c2.6,0.1,4.7,2.3,4.6,5.1c-0.1,2.7-2.3,4.9-5,4.9C352.5,158.6,349.8,158.6,347,158.6z"
		/>
</g>
</svg>
