<?xml version="1.0" encoding="utf-8"?>
<!-- Generator: Adobe Illustrator 18.0.0, SVG Export Plug-In . SVG Version: 6.00 Build 0)  -->
<!DOCTYPE svg PUBLIC "-//W3C//DTD SVG 1.1//EN" "http://www.w3.org/Graphics/SVG/1.1/DTD/svg11.dtd">
<svg version="1.1" id="Layer_1" xmlns="http://www.w3.org/2000/svg" xmlns:xlink="http://www.w3.org/1999/xlink" x="0px" y="0px"
	 viewBox="0 0 470 572" enable-background="new 0 0 470 572" xml:space="preserve">
<polygon opacity="0.1" fill="#C9E9EC" points="2.4,398.1 165.3,317.7 185.8,342.9 137.1,398.1 "/>
<polygon opacity="0.1" fill="#C9E9EC" points="165.3,398.1 214.5,332.4 257,332.4 300,398.1 "/>
<polygon opacity="0.1" fill="#C9E9EC" points="469.6,398.1 306.7,317.7 286.2,342.9 334.9,398.1 "/>
<g>
	<g>
		
			<rect x="179.6" y="220.1" transform="matrix(0.7902 -0.6128 0.6128 0.7902 -97.7702 157.3858)" fill-rule="evenodd" clip-rule="evenodd" fill="#BFDEDE" width="2.8" height="2.8"/>
		
			<rect x="189.9" y="233.4" transform="matrix(0.7902 -0.6128 0.6128 0.7902 -103.7434 166.4753)" fill-rule="evenodd" clip-rule="evenodd" fill="#BFDEDE" width="2.8" height="2.8"/>
		
			<rect x="186.5" y="229" transform="matrix(0.7902 -0.6128 0.6128 0.7902 -101.7523 163.4455)" fill-rule="evenodd" clip-rule="evenodd" fill="#BFDEDE" width="2.8" height="2.8"/>
		
			<rect x="183" y="224.5" transform="matrix(0.7902 -0.6128 0.6128 0.7902 -99.7613 160.4157)" fill-rule="evenodd" clip-rule="evenodd" fill="#BFDEDE" width="2.8" height="2.8"/>
		
			<rect x="193.3" y="237.8" transform="matrix(0.7902 -0.6128 0.6128 0.7902 -105.7345 169.5052)" fill-rule="evenodd" clip-rule="evenodd" fill="#BFDEDE" width="2.8" height="2.8"/>
	</g>
	<g>
		<g>
			
				<rect x="193.7" y="245.8" transform="matrix(0.9921 0.1255 -0.1255 0.9921 32.5759 -22.9095)" fill="#BFDEDE" width="8.9" height="2.8"/>
		</g>
		<g>
			<g>
				
					<rect x="200.2" y="240.1" transform="matrix(0.9921 0.1255 -0.1255 0.9921 32.2701 -23.3597)" fill="#BFDEDE" width="2.8" height="8.9"/>
			</g>
		</g>
	</g>
</g>
<g>
	<g>
		
			<rect x="299.5" y="220.1" transform="matrix(-0.7902 -0.6128 0.6128 -0.7902 402.9828 580.953)" fill-rule="evenodd" clip-rule="evenodd" fill="#BFDEDE" width="2.8" height="2.8"/>
		
			<rect x="289.2" y="233.4" transform="matrix(-0.7902 -0.6128 0.6128 -0.7902 376.4288 598.4033)" fill-rule="evenodd" clip-rule="evenodd" fill="#BFDEDE" width="2.8" height="2.8"/>
		
			<rect x="292.7" y="229" transform="matrix(-0.7902 -0.6128 0.6128 -0.7902 385.2801 592.5865)" fill-rule="evenodd" clip-rule="evenodd" fill="#BFDEDE" width="2.8" height="2.8"/>
		
			<rect x="296.1" y="224.5" transform="matrix(-0.7902 -0.6128 0.6128 -0.7902 394.1314 586.7698)" fill-rule="evenodd" clip-rule="evenodd" fill="#BFDEDE" width="2.8" height="2.8"/>
		
			<rect x="285.8" y="237.8" transform="matrix(-0.7902 -0.6128 0.6128 -0.7902 367.5775 604.2201)" fill-rule="evenodd" clip-rule="evenodd" fill="#BFDEDE" width="2.8" height="2.8"/>
	</g>
	<g>
		<g>
			
				<rect x="279.3" y="245.8" transform="matrix(-0.9921 0.1255 -0.1255 -0.9921 596.3018 456.7644)" fill="#BFDEDE" width="8.9" height="2.8"/>
		</g>
		<g>
			<g>
				
					<rect x="278.9" y="240.1" transform="matrix(-0.9921 0.1255 -0.1255 -0.9921 589.1537 451.9087)" fill="#BFDEDE" width="2.8" height="8.9"/>
			</g>
		</g>
	</g>
</g>
<g>
	<g>
		<g>
			
				<rect x="90.3" y="361.5" transform="matrix(0.4657 0.8849 -0.8849 0.4657 370.1211 112.721)" fill-rule="evenodd" clip-rule="evenodd" fill="#BADBDB" width="2.8" height="2.8"/>
			
				<rect x="95.3" y="358.9" transform="matrix(0.4657 0.8849 -0.8849 0.4657 370.4607 106.9449)" fill-rule="evenodd" clip-rule="evenodd" fill="#BADBDB" width="2.8" height="2.8"/>
			
				<rect x="85.4" y="364.1" transform="matrix(0.4657 0.8849 -0.8849 0.4657 369.7815 118.4972)" fill-rule="evenodd" clip-rule="evenodd" fill="#BADBDB" width="2.8" height="2.8"/>
		</g>
		<g>
			
				<rect x="70.5" y="371.9" transform="matrix(0.4657 0.8849 -0.8849 0.4657 368.7628 135.8256)" fill-rule="evenodd" clip-rule="evenodd" fill="#BADBDB" width="2.8" height="2.8"/>
			
				<rect x="75.5" y="369.3" transform="matrix(0.4657 0.8849 -0.8849 0.4657 369.1024 130.0495)" fill-rule="evenodd" clip-rule="evenodd" fill="#BADBDB" width="2.8" height="2.8"/>
			
				<rect x="80.4" y="366.7" transform="matrix(0.4657 0.8849 -0.8849 0.4657 369.4419 124.2733)" fill-rule="evenodd" clip-rule="evenodd" fill="#BADBDB" width="2.8" height="2.8"/>
			
				<rect x="55.6" y="379.7" transform="matrix(0.4657 0.8849 -0.8849 0.4657 367.744 153.1541)" fill-rule="evenodd" clip-rule="evenodd" fill="#BADBDB" width="2.8" height="2.8"/>
			
				<rect x="60.6" y="377.1" transform="matrix(0.4657 0.8849 -0.8849 0.4657 368.0836 147.3779)" fill-rule="evenodd" clip-rule="evenodd" fill="#BADBDB" width="2.8" height="2.8"/>
			
				<rect x="65.5" y="374.5" transform="matrix(0.4657 0.8849 -0.8849 0.4657 368.4232 141.6018)" fill-rule="evenodd" clip-rule="evenodd" fill="#BADBDB" width="2.8" height="2.8"/>
			
				<rect x="50.7" y="382.3" transform="matrix(0.4657 0.8849 -0.8849 0.4657 367.4044 158.9302)" fill-rule="evenodd" clip-rule="evenodd" fill="#BADBDB" width="2.8" height="2.8"/>
		</g>
		<g>
			
				<rect x="139.8" y="335.4" transform="matrix(0.4657 0.8849 -0.8849 0.4657 373.517 54.9595)" fill-rule="evenodd" clip-rule="evenodd" fill="#BADBDB" width="2.8" height="2.8"/>
			
				<rect x="144.8" y="332.8" transform="matrix(0.4657 0.8849 -0.8849 0.4657 373.8565 49.1834)" fill-rule="evenodd" clip-rule="evenodd" fill="#BADBDB" width="2.8" height="2.8"/>
			
				<rect x="134.9" y="338" transform="matrix(0.4657 0.8849 -0.8849 0.4657 373.1774 60.7357)" fill-rule="evenodd" clip-rule="evenodd" fill="#BADBDB" width="2.8" height="2.8"/>
		</g>
		<g>
			
				<rect x="120" y="345.8" transform="matrix(0.4657 0.8849 -0.8849 0.4657 372.1586 78.0641)" fill-rule="evenodd" clip-rule="evenodd" fill="#BADBDB" width="2.8" height="2.8"/>
			
				<rect x="125" y="343.2" transform="matrix(0.4657 0.8849 -0.8849 0.4657 372.4982 72.288)" fill-rule="evenodd" clip-rule="evenodd" fill="#BADBDB" width="2.8" height="2.8"/>
			
				<rect x="129.9" y="340.6" transform="matrix(0.4657 0.8849 -0.8849 0.4657 372.8378 66.5118)" fill-rule="evenodd" clip-rule="evenodd" fill="#BADBDB" width="2.8" height="2.8"/>
			
				<rect x="105.2" y="353.7" transform="matrix(0.4657 0.8849 -0.8849 0.4657 371.1399 95.3926)" fill-rule="evenodd" clip-rule="evenodd" fill="#BADBDB" width="2.8" height="2.8"/>
			
				<rect x="110.1" y="351.1" transform="matrix(0.4657 0.8849 -0.8849 0.4657 371.4795 89.6164)" fill-rule="evenodd" clip-rule="evenodd" fill="#BADBDB" width="2.8" height="2.8"/>
			
				<rect x="115.1" y="348.4" transform="matrix(0.4657 0.8849 -0.8849 0.4657 371.819 83.8403)" fill-rule="evenodd" clip-rule="evenodd" fill="#BADBDB" width="2.8" height="2.8"/>
			
				<rect x="100.2" y="356.3" transform="matrix(0.4657 0.8849 -0.8849 0.4657 370.8003 101.1687)" fill-rule="evenodd" clip-rule="evenodd" fill="#BADBDB" width="2.8" height="2.8"/>
		</g>
		<g>
			<g>
				
					<rect x="38.9" y="384.9" transform="matrix(-0.2967 0.955 -0.955 -0.2967 425.1272 459.4959)" fill="#BADBDB" width="8.9" height="2.8"/>
			</g>
			<g>
				<g>
					
						<rect x="44" y="385.7" transform="matrix(-0.2967 0.955 -0.955 -0.2967 431.3993 462.5404)" fill="#BADBDB" width="2.8" height="8.9"/>
				</g>
			</g>
		</g>
	</g>
</g>
<g>
	<g>
		<g>
			
				<rect x="101.5" y="257.6" transform="matrix(0.6367 -0.7711 0.7711 0.6367 -162.3392 173.4653)" fill-rule="evenodd" clip-rule="evenodd" fill="#BADBDB" width="2.8" height="2.8"/>
			
				<rect x="97.2" y="254" transform="matrix(0.6367 -0.7711 0.7711 0.6367 -161.1594 168.8418)" fill-rule="evenodd" clip-rule="evenodd" fill="#BADBDB" width="2.8" height="2.8"/>
			
				<rect x="105.8" y="261.2" transform="matrix(0.6367 -0.7711 0.7711 0.6367 -163.5189 178.0887)" fill-rule="evenodd" clip-rule="evenodd" fill="#BADBDB" width="2.8" height="2.8"/>
		</g>
		<g>
			
				<rect x="118.8" y="271.9" transform="matrix(0.6367 -0.7711 0.7711 0.6367 -167.0581 191.9591)" fill-rule="evenodd" clip-rule="evenodd" fill="#BADBDB" width="2.8" height="2.8"/>
			
				<rect x="114.5" y="268.3" transform="matrix(0.6367 -0.7711 0.7711 0.6367 -165.8784 187.3356)" fill-rule="evenodd" clip-rule="evenodd" fill="#BADBDB" width="2.8" height="2.8"/>
			
				<rect x="110.1" y="264.7" transform="matrix(0.6367 -0.7711 0.7711 0.6367 -164.6986 182.7122)" fill-rule="evenodd" clip-rule="evenodd" fill="#BADBDB" width="2.8" height="2.8"/>
			
				<rect x="131.7" y="282.6" transform="matrix(0.6367 -0.7711 0.7711 0.6367 -170.5973 205.8295)" fill-rule="evenodd" clip-rule="evenodd" fill="#BADBDB" width="2.8" height="2.8"/>
			
				<rect x="127.4" y="279" transform="matrix(0.6367 -0.7711 0.7711 0.6367 -169.4176 201.206)" fill-rule="evenodd" clip-rule="evenodd" fill="#BADBDB" width="2.8" height="2.8"/>
			
				<rect x="123.1" y="275.4" transform="matrix(0.6367 -0.7711 0.7711 0.6367 -168.2378 196.5826)" fill-rule="evenodd" clip-rule="evenodd" fill="#BADBDB" width="2.8" height="2.8"/>
			
				<rect x="136" y="286.1" transform="matrix(0.6367 -0.7711 0.7711 0.6367 -171.7771 210.4529)" fill-rule="evenodd" clip-rule="evenodd" fill="#BADBDB" width="2.8" height="2.8"/>
		</g>
		<g>
			
				<rect x="58.3" y="222" transform="matrix(0.6367 -0.7711 0.7711 0.6367 -150.5418 127.2308)" fill-rule="evenodd" clip-rule="evenodd" fill="#BADBDB" width="2.8" height="2.8"/>
			
				<rect x="54" y="218.4" transform="matrix(0.6367 -0.7711 0.7711 0.6367 -149.3621 122.6074)" fill-rule="evenodd" clip-rule="evenodd" fill="#BADBDB" width="2.8" height="2.8"/>
			
				<rect x="62.7" y="225.5" transform="matrix(0.6367 -0.7711 0.7711 0.6367 -151.7216 131.8543)" fill-rule="evenodd" clip-rule="evenodd" fill="#BADBDB" width="2.8" height="2.8"/>
		</g>
		<g>
			
				<rect x="75.6" y="236.2" transform="matrix(0.6367 -0.7711 0.7711 0.6367 -155.2608 145.7246)" fill-rule="evenodd" clip-rule="evenodd" fill="#BADBDB" width="2.8" height="2.8"/>
			
				<rect x="71.3" y="232.7" transform="matrix(0.6367 -0.7711 0.7711 0.6367 -154.081 141.1012)" fill-rule="evenodd" clip-rule="evenodd" fill="#BADBDB" width="2.8" height="2.8"/>
			
				<rect x="67" y="229.1" transform="matrix(0.6367 -0.7711 0.7711 0.6367 -152.9013 136.4777)" fill-rule="evenodd" clip-rule="evenodd" fill="#BADBDB" width="2.8" height="2.8"/>
			
				<rect x="88.6" y="246.9" transform="matrix(0.6367 -0.7711 0.7711 0.6367 -158.8 159.595)" fill-rule="evenodd" clip-rule="evenodd" fill="#BADBDB" width="2.8" height="2.8"/>
			
				<rect x="84.2" y="243.4" transform="matrix(0.6367 -0.7711 0.7711 0.6367 -157.6202 154.9715)" fill-rule="evenodd" clip-rule="evenodd" fill="#BADBDB" width="2.8" height="2.8"/>
			
				<rect x="79.9" y="239.8" transform="matrix(0.6367 -0.7711 0.7711 0.6367 -156.4405 150.3481)" fill-rule="evenodd" clip-rule="evenodd" fill="#BADBDB" width="2.8" height="2.8"/>
			
				<rect x="92.9" y="250.5" transform="matrix(0.6367 -0.7711 0.7711 0.6367 -159.9797 164.2184)" fill-rule="evenodd" clip-rule="evenodd" fill="#BADBDB" width="2.8" height="2.8"/>
		</g>
		<g>
			<g>
				
					<rect x="138.7" y="293.2" transform="matrix(0.9955 -9.477451e-002 9.477451e-002 0.9955 -27.273 14.8936)" fill="#BADBDB" width="8.9" height="2.8"/>
			</g>
			<g>
				<g>
					
						<rect x="144.5" y="286.8" transform="matrix(0.9955 -9.477451e-002 9.477451e-002 0.9955 -26.9442 15.1399)" fill="#BADBDB" width="2.8" height="8.9"/>
				</g>
			</g>
		</g>
	</g>
</g>
<g>
	<g>
		<g>
			
				<rect x="364.2" y="257.6" transform="matrix(-0.6367 -0.7711 0.7711 -0.6367 398.5601 705.7986)" fill-rule="evenodd" clip-rule="evenodd" fill="#BADBDB" width="2.8" height="2.8"/>
			
				<rect x="368.5" y="254" transform="matrix(-0.6367 -0.7711 0.7711 -0.6367 408.3727 703.2947)" fill-rule="evenodd" clip-rule="evenodd" fill="#BADBDB" width="2.8" height="2.8"/>
			
				<rect x="359.8" y="261.2" transform="matrix(-0.6367 -0.7711 0.7711 -0.6367 388.7474 708.3024)" fill-rule="evenodd" clip-rule="evenodd" fill="#BADBDB" width="2.8" height="2.8"/>
		</g>
		<g>
			
				<rect x="346.9" y="271.9" transform="matrix(-0.6367 -0.7711 0.7711 -0.6367 359.3095 715.8138)" fill-rule="evenodd" clip-rule="evenodd" fill="#BADBDB" width="2.8" height="2.8"/>
			
				<rect x="351.2" y="268.3" transform="matrix(-0.6367 -0.7711 0.7711 -0.6367 369.1221 713.3101)" fill-rule="evenodd" clip-rule="evenodd" fill="#BADBDB" width="2.8" height="2.8"/>
			
				<rect x="355.5" y="264.7" transform="matrix(-0.6367 -0.7711 0.7711 -0.6367 378.9348 710.8062)" fill-rule="evenodd" clip-rule="evenodd" fill="#BADBDB" width="2.8" height="2.8"/>
			
				<rect x="333.9" y="282.6" transform="matrix(-0.6367 -0.7711 0.7711 -0.6367 329.8716 723.3254)" fill-rule="evenodd" clip-rule="evenodd" fill="#BADBDB" width="2.8" height="2.8"/>
			
				<rect x="338.3" y="279" transform="matrix(-0.6367 -0.7711 0.7711 -0.6367 339.6842 720.8215)" fill-rule="evenodd" clip-rule="evenodd" fill="#BADBDB" width="2.8" height="2.8"/>
			
				<rect x="342.6" y="275.4" transform="matrix(-0.6367 -0.7711 0.7711 -0.6367 349.4969 718.3177)" fill-rule="evenodd" clip-rule="evenodd" fill="#BADBDB" width="2.8" height="2.8"/>
			
				<rect x="329.6" y="286.1" transform="matrix(-0.6367 -0.7711 0.7711 -0.6367 320.059 725.8292)" fill-rule="evenodd" clip-rule="evenodd" fill="#BADBDB" width="2.8" height="2.8"/>
		</g>
		<g>
			
				<rect x="407.3" y="222" transform="matrix(-0.6367 -0.7711 0.7711 -0.6367 496.6864 680.7603)" fill-rule="evenodd" clip-rule="evenodd" fill="#BADBDB" width="2.8" height="2.8"/>
			
				<rect x="411.6" y="218.4" transform="matrix(-0.6367 -0.7711 0.7711 -0.6367 506.499 678.2565)" fill-rule="evenodd" clip-rule="evenodd" fill="#BADBDB" width="2.8" height="2.8"/>
			
				<rect x="403" y="225.5" transform="matrix(-0.6367 -0.7711 0.7711 -0.6367 486.8737 683.2642)" fill-rule="evenodd" clip-rule="evenodd" fill="#BADBDB" width="2.8" height="2.8"/>
		</g>
		<g>
			
				<rect x="390.1" y="236.2" transform="matrix(-0.6367 -0.7711 0.7711 -0.6367 457.4358 690.7756)" fill-rule="evenodd" clip-rule="evenodd" fill="#BADBDB" width="2.8" height="2.8"/>
			
				<rect x="394.4" y="232.7" transform="matrix(-0.6367 -0.7711 0.7711 -0.6367 467.2485 688.2719)" fill-rule="evenodd" clip-rule="evenodd" fill="#BADBDB" width="2.8" height="2.8"/>
			
				<rect x="398.7" y="229.1" transform="matrix(-0.6367 -0.7711 0.7711 -0.6367 477.0611 685.7679)" fill-rule="evenodd" clip-rule="evenodd" fill="#BADBDB" width="2.8" height="2.8"/>
			
				<rect x="377.1" y="246.9" transform="matrix(-0.6367 -0.7711 0.7711 -0.6367 427.998 698.2871)" fill-rule="evenodd" clip-rule="evenodd" fill="#BADBDB" width="2.8" height="2.8"/>
			
				<rect x="381.4" y="243.4" transform="matrix(-0.6367 -0.7711 0.7711 -0.6367 437.8105 695.7833)" fill-rule="evenodd" clip-rule="evenodd" fill="#BADBDB" width="2.8" height="2.8"/>
			
				<rect x="385.7" y="239.8" transform="matrix(-0.6367 -0.7711 0.7711 -0.6367 447.6232 693.2795)" fill-rule="evenodd" clip-rule="evenodd" fill="#BADBDB" width="2.8" height="2.8"/>
			
				<rect x="372.8" y="250.5" transform="matrix(-0.6367 -0.7711 0.7711 -0.6367 418.1853 700.7909)" fill-rule="evenodd" clip-rule="evenodd" fill="#BADBDB" width="2.8" height="2.8"/>
		</g>
		<g>
			<g>
				
					<rect x="320.9" y="293.2" transform="matrix(-0.9955 -9.477451e-002 9.477451e-002 -0.9955 621.2327 618.6368)" fill="#BADBDB" width="8.9" height="2.8"/>
			</g>
			<g>
				<g>
					
						<rect x="321.2" y="286.8" transform="matrix(-0.9955 -9.477451e-002 9.477451e-002 -0.9955 616.0468 611.7153)" fill="#BADBDB" width="2.8" height="8.9"/>
				</g>
			</g>
		</g>
	</g>
</g>
<g>
	<g>
		<g>
			
				<rect x="163.5" y="352.2" transform="matrix(0.732 0.6813 -0.6813 0.732 285.0511 -17.5711)" fill-rule="evenodd" clip-rule="evenodd" fill="#BADBDB" width="2.8" height="2.8"/>
		</g>
		<g>
			
				<rect x="152" y="364.4" transform="matrix(0.732 0.6813 -0.6813 0.732 290.3597 -6.4826)" fill-rule="evenodd" clip-rule="evenodd" fill="#BADBDB" width="2.8" height="2.8"/>
			
				<rect x="155.8" y="360.3" transform="matrix(0.732 0.6813 -0.6813 0.732 288.5902 -10.1788)" fill-rule="evenodd" clip-rule="evenodd" fill="#BADBDB" width="2.8" height="2.8"/>
			
				<rect x="159.6" y="356.2" transform="matrix(0.732 0.6813 -0.6813 0.732 286.8206 -13.8749)" fill-rule="evenodd" clip-rule="evenodd" fill="#BADBDB" width="2.8" height="2.8"/>
			
				<rect x="140.6" y="376.7" transform="matrix(0.732 0.6813 -0.6813 0.732 295.6684 4.6058)" fill-rule="evenodd" clip-rule="evenodd" fill="#BADBDB" width="2.8" height="2.8"/>
			
				<rect x="144.4" y="372.6" transform="matrix(0.732 0.6813 -0.6813 0.732 293.8989 0.9097)" fill-rule="evenodd" clip-rule="evenodd" fill="#BADBDB" width="2.8" height="2.8"/>
			
				<rect x="148.2" y="368.5" transform="matrix(0.732 0.6813 -0.6813 0.732 292.1293 -2.7865)" fill-rule="evenodd" clip-rule="evenodd" fill="#BADBDB" width="2.8" height="2.8"/>
			
				<rect x="136.8" y="380.8" transform="matrix(0.732 0.6813 -0.6813 0.732 297.438 8.302)" fill-rule="evenodd" clip-rule="evenodd" fill="#BADBDB" width="2.8" height="2.8"/>
		</g>
		<g>
			<g>
				
					<rect x="126.4" y="385.5" transform="matrix(3.586436e-002 0.9994 -0.9994 3.586436e-002 512.8217 242.2493)" fill="#BADBDB" width="8.9" height="2.8"/>
			</g>
			<g>
				<g>
					
						<rect x="132.6" y="385.4" transform="matrix(3.586436e-002 0.9994 -0.9994 3.586436e-002 518.8248 241.926)" fill="#BADBDB" width="2.8" height="8.9"/>
				</g>
			</g>
		</g>
	</g>
</g>
<g>
	<g>
		<g>
			
				<rect x="379.6" y="361.5" transform="matrix(-0.4657 0.8849 -0.8849 -0.4657 879.4887 194.7645)" fill-rule="evenodd" clip-rule="evenodd" fill="#BADBDB" width="2.8" height="2.8"/>
			
				<rect x="374.6" y="358.9" transform="matrix(-0.4657 0.8849 -0.8849 -0.4657 869.9216 195.327)" fill-rule="evenodd" clip-rule="evenodd" fill="#BADBDB" width="2.8" height="2.8"/>
			
				<rect x="384.5" y="364.1" transform="matrix(-0.4657 0.8849 -0.8849 -0.4657 889.0558 194.2021)" fill-rule="evenodd" clip-rule="evenodd" fill="#BADBDB" width="2.8" height="2.8"/>
		</g>
		<g>
			
				<rect x="399.4" y="371.9" transform="matrix(-0.4657 0.8849 -0.8849 -0.4657 917.7571 192.5148)" fill-rule="evenodd" clip-rule="evenodd" fill="#BADBDB" width="2.8" height="2.8"/>
			
				<rect x="394.4" y="369.3" transform="matrix(-0.4657 0.8849 -0.8849 -0.4657 908.1901 193.0772)" fill-rule="evenodd" clip-rule="evenodd" fill="#BADBDB" width="2.8" height="2.8"/>
			
				<rect x="389.5" y="366.7" transform="matrix(-0.4657 0.8849 -0.8849 -0.4657 898.6229 193.6396)" fill-rule="evenodd" clip-rule="evenodd" fill="#BADBDB" width="2.8" height="2.8"/>
			
				<rect x="414.2" y="379.7" transform="matrix(-0.4657 0.8849 -0.8849 -0.4657 946.4584 190.8274)" fill-rule="evenodd" clip-rule="evenodd" fill="#BADBDB" width="2.8" height="2.8"/>
			
				<rect x="409.3" y="377.1" transform="matrix(-0.4657 0.8849 -0.8849 -0.4657 936.8913 191.3898)" fill-rule="evenodd" clip-rule="evenodd" fill="#BADBDB" width="2.8" height="2.8"/>
			
				<rect x="404.3" y="374.5" transform="matrix(-0.4657 0.8849 -0.8849 -0.4657 927.3242 191.9523)" fill-rule="evenodd" clip-rule="evenodd" fill="#BADBDB" width="2.8" height="2.8"/>
			
				<rect x="419.2" y="382.3" transform="matrix(-0.4657 0.8849 -0.8849 -0.4657 956.0255 190.2649)" fill-rule="evenodd" clip-rule="evenodd" fill="#BADBDB" width="2.8" height="2.8"/>
		</g>
		<g>
			
				<rect x="330" y="335.4" transform="matrix(-0.4657 0.8849 -0.8849 -0.4657 783.8177 200.3891)" fill-rule="evenodd" clip-rule="evenodd" fill="#BADBDB" width="2.8" height="2.8"/>
			
				<rect x="325.1" y="332.8" transform="matrix(-0.4657 0.8849 -0.8849 -0.4657 774.2506 200.9516)" fill-rule="evenodd" clip-rule="evenodd" fill="#BADBDB" width="2.8" height="2.8"/>
			
				<rect x="335" y="338" transform="matrix(-0.4657 0.8849 -0.8849 -0.4657 793.3848 199.8267)" fill-rule="evenodd" clip-rule="evenodd" fill="#BADBDB" width="2.8" height="2.8"/>
		</g>
		<g>
			
				<rect x="349.8" y="345.8" transform="matrix(-0.4657 0.8849 -0.8849 -0.4657 822.0861 198.1393)" fill-rule="evenodd" clip-rule="evenodd" fill="#BADBDB" width="2.8" height="2.8"/>
			
				<rect x="344.9" y="343.2" transform="matrix(-0.4657 0.8849 -0.8849 -0.4657 812.519 198.7017)" fill-rule="evenodd" clip-rule="evenodd" fill="#BADBDB" width="2.8" height="2.8"/>
			
				<rect x="339.9" y="340.6" transform="matrix(-0.4657 0.8849 -0.8849 -0.4657 802.9519 199.2642)" fill-rule="evenodd" clip-rule="evenodd" fill="#BADBDB" width="2.8" height="2.8"/>
			
				<rect x="364.7" y="353.7" transform="matrix(-0.4657 0.8849 -0.8849 -0.4657 850.7874 196.452)" fill-rule="evenodd" clip-rule="evenodd" fill="#BADBDB" width="2.8" height="2.8"/>
			
				<rect x="359.7" y="351.1" transform="matrix(-0.4657 0.8849 -0.8849 -0.4657 841.2203 197.0144)" fill-rule="evenodd" clip-rule="evenodd" fill="#BADBDB" width="2.8" height="2.8"/>
			
				<rect x="354.8" y="348.4" transform="matrix(-0.4657 0.8849 -0.8849 -0.4657 831.6533 197.5769)" fill-rule="evenodd" clip-rule="evenodd" fill="#BADBDB" width="2.8" height="2.8"/>
			
				<rect x="369.6" y="356.3" transform="matrix(-0.4657 0.8849 -0.8849 -0.4657 860.3545 195.8895)" fill-rule="evenodd" clip-rule="evenodd" fill="#BADBDB" width="2.8" height="2.8"/>
		</g>
		<g>
			<g>
				
					<rect x="424.8" y="384.9" transform="matrix(0.2967 0.955 -0.955 0.2967 670.7903 -138.2936)" fill="#BADBDB" width="8.9" height="2.8"/>
			</g>
			<g>
				<g>
					
						<rect x="425.9" y="385.7" transform="matrix(0.2967 0.955 -0.955 0.2967 673.0325 -133.6746)" fill="#BADBDB" width="2.8" height="8.9"/>
				</g>
			</g>
		</g>
	</g>
</g>
<g>
	<g>
		<g>
			
				<rect x="306.4" y="352.2" transform="matrix(-0.732 0.6813 -0.6813 -0.732 773.9822 402.6508)" fill-rule="evenodd" clip-rule="evenodd" fill="#BADBDB" width="2.8" height="2.8"/>
		</g>
		<g>
			
				<rect x="317.8" y="364.4" transform="matrix(-0.732 0.6813 -0.6813 -0.732 802.1717 416.1467)" fill-rule="evenodd" clip-rule="evenodd" fill="#BADBDB" width="2.8" height="2.8"/>
			
				<rect x="314" y="360.3" transform="matrix(-0.732 0.6813 -0.6813 -0.732 792.7752 411.648)" fill-rule="evenodd" clip-rule="evenodd" fill="#BADBDB" width="2.8" height="2.8"/>
			
				<rect x="310.2" y="356.2" transform="matrix(-0.732 0.6813 -0.6813 -0.732 783.3787 407.1494)" fill-rule="evenodd" clip-rule="evenodd" fill="#BADBDB" width="2.8" height="2.8"/>
			
				<rect x="329.3" y="376.7" transform="matrix(-0.732 0.6813 -0.6813 -0.732 830.3613 429.6425)" fill-rule="evenodd" clip-rule="evenodd" fill="#BADBDB" width="2.8" height="2.8"/>
			
				<rect x="325.5" y="372.6" transform="matrix(-0.732 0.6813 -0.6813 -0.732 820.9648 425.1439)" fill-rule="evenodd" clip-rule="evenodd" fill="#BADBDB" width="2.8" height="2.8"/>
			
				<rect x="321.7" y="368.5" transform="matrix(-0.732 0.6813 -0.6813 -0.732 811.5683 420.6453)" fill-rule="evenodd" clip-rule="evenodd" fill="#BADBDB" width="2.8" height="2.8"/>
			
				<rect x="333.1" y="380.8" transform="matrix(-0.732 0.6813 -0.6813 -0.732 839.7578 434.1412)" fill-rule="evenodd" clip-rule="evenodd" fill="#BADBDB" width="2.8" height="2.8"/>
		</g>
		<g>
			<g>
				
					<rect x="337.3" y="385.5" transform="matrix(-3.586433e-002 0.9994 -0.9994 -3.586433e-002 740.7103 59.2001)" fill="#BADBDB" width="8.9" height="2.8"/>
			</g>
			<g>
				<g>
					
						<rect x="337.2" y="385.4" transform="matrix(-3.586433e-002 0.9994 -0.9994 -3.586433e-002 740.3752 65.4224)" fill="#BADBDB" width="2.8" height="8.9"/>
				</g>
			</g>
		</g>
	</g>
</g>
<g>
	<g>
		<g>
			
				<rect x="252.7" y="343" transform="matrix(-0.8297 0.5581 -0.5581 -0.8297 657.1701 488.3664)" fill-rule="evenodd" clip-rule="evenodd" fill="#BADBDB" width="2.8" height="2.8"/>
			
				<rect x="249.6" y="338.4" transform="matrix(-0.8297 0.5581 -0.5581 -0.8297 648.8614 481.612)" fill-rule="evenodd" clip-rule="evenodd" fill="#BADBDB" width="2.8" height="2.8"/>
			
				<rect x="255.8" y="347.7" transform="matrix(-0.8297 0.5581 -0.5581 -0.8297 665.4788 495.1208)" fill-rule="evenodd" clip-rule="evenodd" fill="#BADBDB" width="2.8" height="2.8"/>
		</g>
		<g>
			
				<rect x="265.2" y="361.6" transform="matrix(-0.8297 0.5581 -0.5581 -0.8297 690.4049 515.384)" fill-rule="evenodd" clip-rule="evenodd" fill="#BADBDB" width="2.8" height="2.8"/>
			
				<rect x="262.1" y="356.9" transform="matrix(-0.8297 0.5581 -0.5581 -0.8297 682.0962 508.6296)" fill-rule="evenodd" clip-rule="evenodd" fill="#BADBDB" width="2.8" height="2.8"/>
			
				<rect x="274.6" y="375.5" transform="matrix(-0.8297 0.5581 -0.5581 -0.8297 715.331 535.6471)" fill-rule="evenodd" clip-rule="evenodd" fill="#BADBDB" width="2.8" height="2.8"/>
			
				<rect x="271.4" y="370.9" transform="matrix(-0.8297 0.5581 -0.5581 -0.8297 707.0223 528.8927)" fill-rule="evenodd" clip-rule="evenodd" fill="#BADBDB" width="2.8" height="2.8"/>
			
				<rect x="268.3" y="366.2" transform="matrix(-0.8297 0.5581 -0.5581 -0.8297 698.7136 522.1383)" fill-rule="evenodd" clip-rule="evenodd" fill="#BADBDB" width="2.8" height="2.8"/>
			
				<rect x="277.7" y="380.2" transform="matrix(-0.8297 0.5581 -0.5581 -0.8297 723.6396 542.4015)" fill-rule="evenodd" clip-rule="evenodd" fill="#BADBDB" width="2.8" height="2.8"/>
		</g>
		<g>
			<g>
				
					<rect x="281.1" y="385.9" transform="matrix(-0.192 0.9814 -0.9814 -0.192 720.5385 181.4557)" fill="#BADBDB" width="8.9" height="2.8"/>
			</g>
			<g>
				<g>
					
						<rect x="280.6" y="385.3" transform="matrix(-0.192 0.9814 -0.9814 -0.192 718.6278 187.8614)" fill="#BADBDB" width="2.8" height="8.9"/>
				</g>
			</g>
		</g>
	</g>
</g>
<g>
	<g>
		<g>
			
				<rect x="211.4" y="343" transform="matrix(0.8297 0.5581 -0.5581 0.8297 228.4583 -60.1173)" fill-rule="evenodd" clip-rule="evenodd" fill="#BADBDB" width="2.8" height="2.8"/>
			
				<rect x="214.5" y="338.4" transform="matrix(0.8297 0.5581 -0.5581 0.8297 226.3979 -62.6518)" fill-rule="evenodd" clip-rule="evenodd" fill="#BADBDB" width="2.8" height="2.8"/>
			
				<rect x="208.2" y="347.7" transform="matrix(0.8297 0.5581 -0.5581 0.8297 230.5186 -57.5828)" fill-rule="evenodd" clip-rule="evenodd" fill="#BADBDB" width="2.8" height="2.8"/>
		</g>
		<g>
			
				<rect x="198.9" y="361.6" transform="matrix(0.8297 0.5581 -0.5581 0.8297 236.6997 -49.9794)" fill-rule="evenodd" clip-rule="evenodd" fill="#BADBDB" width="2.8" height="2.8"/>
			
				<rect x="202" y="356.9" transform="matrix(0.8297 0.5581 -0.5581 0.8297 234.6394 -52.5139)" fill-rule="evenodd" clip-rule="evenodd" fill="#BADBDB" width="2.8" height="2.8"/>
			
				<rect x="189.5" y="375.5" transform="matrix(0.8297 0.5581 -0.5581 0.8297 242.8808 -42.3759)" fill-rule="evenodd" clip-rule="evenodd" fill="#BADBDB" width="2.8" height="2.8"/>
			
				<rect x="192.6" y="370.9" transform="matrix(0.8297 0.5581 -0.5581 0.8297 240.8204 -44.9104)" fill-rule="evenodd" clip-rule="evenodd" fill="#BADBDB" width="2.8" height="2.8"/>
			
				<rect x="195.7" y="366.2" transform="matrix(0.8297 0.5581 -0.5581 0.8297 238.7601 -47.4449)" fill-rule="evenodd" clip-rule="evenodd" fill="#BADBDB" width="2.8" height="2.8"/>
			
				<rect x="186.4" y="380.2" transform="matrix(0.8297 0.5581 -0.5581 0.8297 244.9411 -39.8414)" fill-rule="evenodd" clip-rule="evenodd" fill="#BADBDB" width="2.8" height="2.8"/>
		</g>
		<g>
			<g>
				
					<rect x="176.8" y="385.9" transform="matrix(0.1921 0.9814 -0.9814 0.1921 526.5947 135.0233)" fill="#BADBDB" width="8.9" height="2.8"/>
			</g>
			<g>
				<g>
					
						<rect x="183.5" y="385.3" transform="matrix(0.1921 0.9814 -0.9814 0.1921 531.8683 133.4503)" fill="#BADBDB" width="2.8" height="8.9"/>
				</g>
			</g>
		</g>
	</g>
</g>
<path fill="#E6F4F5" d="M298.5,483.4H166.2c-1.3,0-2.4-1.1-2.4-2.4v-80.4c0-1.3,1.1-2.4,2.4-2.4h132.3c1.3,0,2.4,1.1,2.4,2.4V481
	C300.9,482.3,299.8,483.4,298.5,483.4z"/>
<path fill="#E6F4F5" d="M134.6,483.4H2.4c-1.3,0-2.4-1.1-2.4-2.4v-80.4c0-1.3,1.1-2.4,2.4-2.4h132.3c1.3,0,2.4,1.1,2.4,2.4V481
	C137.1,482.3,136,483.4,134.6,483.4z"/>
<path fill="#09C1D1" d="M68.3,476.8H7.9c-0.7,0-1.3-0.6-1.3-1.3v-51.7c0-0.7,0.6-1.3,1.3-1.3h60.5c0.7,0,1.3,0.6,1.3,1.3v51.7
	C69.7,476.3,69.1,476.8,68.3,476.8z"/>
<path fill="#326DE6" d="M99.8,447.1H75.4c-0.3,0-0.6-0.3-0.6-0.6v-23.4c0-0.3,0.3-0.6,0.6-0.6h24.4c0.3,0,0.6,0.3,0.6,0.6v23.4
	C100.3,446.8,100.1,447.1,99.8,447.1z"/>
<path fill="#BADBDB" d="M97.6,120H73.3c-0.3,0-0.6-0.3-0.6-0.6V96c0-0.3,0.3-0.6,0.6-0.6h24.4c0.3,0,0.6,0.3,0.6,0.6v23.4
	C98.2,119.7,97.9,120,97.6,120z"/>
<path fill="#09C1D1" d="M129.8,447.1h-24.4c-0.3,0-0.6-0.3-0.6-0.6v-23.4c0-0.3,0.3-0.6,0.6-0.6h24.4c0.3,0,0.6,0.3,0.6,0.6v23.4
	C130.4,446.8,130.1,447.1,129.8,447.1z"/>
<path fill="#09C1D1" d="M195.4,476.8H171c-0.3,0-0.6-0.3-0.6-0.6v-23.4c0-0.3,0.3-0.6,0.6-0.6h24.4c0.3,0,0.6,0.3,0.6,0.6v23.4
	C195.9,476.6,195.7,476.8,195.4,476.8z"/>
<path fill="#326DE6" d="M225.4,476.8h-24.4c-0.3,0-0.6-0.3-0.6-0.6v-23.4c0-0.3,0.3-0.6,0.6-0.6h24.4c0.3,0,0.6,0.3,0.6,0.6v23.4
	C226,476.6,225.7,476.8,225.4,476.8z"/>
<path fill="#628EDD" d="M129.6,476.8H75.7c-0.5,0-0.8-0.4-0.8-0.8v-22.9c0-0.5,0.4-0.8,0.8-0.8h53.9c0.5,0,0.8,0.4,0.8,0.8V476
	C130.4,476.5,130,476.8,129.6,476.8z"/>
<path fill="#09C1D1" d="M292.9,476.8h-60.5c-0.7,0-1.3-0.6-1.3-1.3v-51.7c0-0.7,0.6-1.3,1.3-1.3h60.5c0.7,0,1.3,0.6,1.3,1.3v51.7
	C294.3,476.3,293.7,476.8,292.9,476.8z"/>
<path fill="#BADBDB" d="M208.1,122.8h-53.7c-0.7,0-1.3-0.6-1.3-1.3V80.7c0-0.7,0.6-1.3,1.3-1.3h53.7c0.7,0,1.3,0.6,1.3,1.3v40.7
	C209.4,122.2,208.9,122.8,208.1,122.8z"/>
<path fill="#628EDD" d="M225.2,447.1h-53.9c-0.5,0-0.8-0.4-0.8-0.8v-22.9c0-0.5,0.4-0.8,0.8-0.8h53.9c0.5,0,0.8,0.4,0.8,0.8v22.9
	C226,446.7,225.6,447.1,225.2,447.1z"/>
<path fill="#E6F4F5" d="M468.4,483.4H336.1c-1.3,0-2.4-1.1-2.4-2.4v-80.4c0-1.3,1.1-2.4,2.4-2.4h132.3c1.3,0,2.4,1.1,2.4,2.4V481
	C470.8,482.3,469.7,483.4,468.4,483.4z"/>
<path fill="#628EDD" d="M425,476.8h-52.6c-0.5,0-0.8-0.4-0.8-0.8v-22.9c0-0.5,0.4-0.8,0.8-0.8H425c0.5,0,0.8,0.4,0.8,0.8V476
	C425.8,476.5,425.4,476.8,425,476.8z"/>
<path fill="#628EDD" d="M425,447.1h-52.6c-0.5,0-0.8-0.4-0.8-0.8v-22.9c0-0.5,0.4-0.8,0.8-0.8H425c0.5,0,0.8,0.4,0.8,0.8v22.9
	C425.8,446.7,425.4,447.1,425,447.1z"/>
<path fill="#BADBDB" d="M255.2,92.7h52.6c0.5,0,0.8,0.4,0.8,0.8v22.9c0,0.5-0.4,0.8-0.8,0.8h-52.6c-0.5,0-0.8-0.4-0.8-0.8V93.5
	C254.4,93,254.7,92.7,255.2,92.7z"/>
<path fill="#326DE6" d="M365.3,452.5v23.8c0,0.3-0.2,0.6-0.6,0.6h-23.4c-0.3,0-0.6-0.2-0.6-0.6v-23.8c0-0.3,0.2-0.6,0.6-0.6h23.4
	C365.1,451.9,365.3,452.2,365.3,452.5z"/>
<path fill="#09C1D1" d="M365.3,423.1v23.8c0,0.3-0.2,0.6-0.6,0.6h-23.4c-0.3,0-0.6-0.2-0.6-0.6v-23.8c0-0.3,0.2-0.6,0.6-0.6h23.4
	C365.1,422.5,365.3,422.8,365.3,423.1z"/>
<path fill="#BADBDB" d="M392.4,94.2V118c0,0.3-0.2,0.6-0.6,0.6h-23.4c-0.3,0-0.6-0.2-0.6-0.6V94.2c0-0.3,0.2-0.6,0.6-0.6h23.4
	C392.2,93.6,392.4,93.9,392.4,94.2z"/>
<path fill="#326DE6" d="M98.1,391.1h-5.5c-0.1,0-0.1-0.1-0.1-0.1v-5.3c0-0.1,0.1-0.1,0.1-0.1h5.5c0.1,0,0.1,0.1,0.1,0.1v5.3
	C98.2,391.1,98.1,391.1,98.1,391.1z"/>
<path fill="#09C1D1" d="M318.7,346.7h-5.5c-0.1,0-0.1-0.1-0.1-0.1v-5.3c0-0.1,0.1-0.1,0.1-0.1h5.5c0.1,0,0.1,0.1,0.1,0.1v5.3
	C318.8,346.7,318.7,346.7,318.7,346.7z"/>
<path fill="#09C1D1" d="M153.7,349.5h-5.5c-0.1,0-0.1-0.1-0.1-0.1v-5.3c0-0.1,0.1-0.1,0.1-0.1h5.5c0.1,0,0.1,0.1,0.1,0.1v5.3
	C153.8,349.5,153.8,349.5,153.7,349.5z"/>
<path fill="#09C1D1" d="M121.6,379.8h-13.7c-0.2,0-0.3-0.1-0.3-0.3v-11.7c0-0.2,0.1-0.3,0.3-0.3h13.7c0.2,0,0.3,0.1,0.3,0.3v11.7
	C121.9,379.7,121.7,379.8,121.6,379.8z"/>
<path fill="#628EDD" d="M128.7,356.2h11.9c0.1,0,0.2,0.1,0.2,0.2v5.2c0,0.1-0.1,0.2-0.2,0.2h-11.9c-0.1,0-0.2-0.1-0.2-0.2v-5.2
	C128.5,356.2,128.6,356.2,128.7,356.2z"/>
<rect x="371.9" y="384.5" fill="#326DE6" width="5.8" height="5.6"/>
<rect x="230.8" y="385.9" fill="#326DE6" width="5.8" height="5.6"/>
<path fill="#09C1D1" d="M226.8,375.7h13.7c0.2,0,0.3-0.1,0.3-0.3v-11.7c0-0.2-0.1-0.3-0.3-0.3h-13.7c-0.2,0-0.3,0.1-0.3,0.3v11.7
	C226.5,375.6,226.7,375.7,226.8,375.7z"/>
<path fill="#628EDD" d="M338.6,355.1h-11.9c-0.1,0-0.2,0.1-0.2,0.2v5.2c0,0.1,0.1,0.2,0.2,0.2h11.9c0.1,0,0.2-0.1,0.2-0.2v-5.2
	C338.8,355.2,338.7,355.1,338.6,355.1z"/>
<path fill="#628EDD" d="M360,368.2h-11.9c-0.1,0-0.2,0.1-0.2,0.2v5.2c0,0.1,0.1,0.2,0.2,0.2H360c0.1,0,0.2-0.1,0.2-0.2v-5.2
	C360.2,368.3,360.1,368.2,360,368.2z"/>
<path fill="#628EDD" d="M239.7,350.4h-11.9c-0.1,0-0.2,0.1-0.2,0.2v5.2c0,0.1,0.1,0.2,0.2,0.2h11.9c0.1,0,0.2-0.1,0.2-0.2v-5.2
	C239.9,350.5,239.8,350.4,239.7,350.4z"/>
<g>
	<path fill="#326DE6" d="M14.2,406h2.1v9.3h-2.1l-4.4-5.8v5.8H7.7V406h1.9l4.6,6V406z"/>
	<path fill="#326DE6" d="M25.5,411.7c0,1-0.4,1.9-1.1,2.6s-1.6,1.1-2.7,1.1c-1.1,0-2-0.4-2.7-1.1c-0.7-0.7-1.1-1.6-1.1-2.6
		s0.4-1.9,1.1-2.6c0.7-0.7,1.6-1.1,2.7-1.1c1.1,0,2,0.4,2.7,1.1C25.1,409.8,25.5,410.7,25.5,411.7z M19.9,411.7
		c0,0.6,0.2,1.1,0.5,1.4c0.3,0.4,0.8,0.6,1.3,0.6s0.9-0.2,1.3-0.6c0.3-0.4,0.5-0.8,0.5-1.4s-0.2-1.1-0.5-1.4
		c-0.3-0.4-0.8-0.6-1.3-0.6s-0.9,0.2-1.3,0.6S19.9,411.1,19.9,411.7z"/>
	<path fill="#326DE6" d="M29.8,415.4c-0.8,0-1.6-0.4-2.3-1.1c-0.7-0.7-1-1.6-1-2.7s0.3-1.9,1-2.6c0.6-0.7,1.4-1,2.3-1
		s1.6,0.3,2.1,0.9v-3.5h2v9.9h-2v-0.9C31.4,415,30.7,415.4,29.8,415.4z M28.6,411.7c0,0.6,0.2,1,0.5,1.4c0.3,0.4,0.7,0.6,1.2,0.6
		c0.5,0,0.9-0.2,1.2-0.6c0.3-0.4,0.5-0.8,0.5-1.4s-0.2-1.1-0.5-1.4s-0.7-0.6-1.2-0.6c-0.5,0-0.9,0.2-1.2,0.6S28.6,411.1,28.6,411.7z
		"/>
	<path fill="#326DE6" d="M42,414.2c-0.8,0.8-1.8,1.1-2.8,1.1c-1.1,0-2-0.3-2.7-1s-1.1-1.6-1.1-2.7c0-1.1,0.4-2,1.1-2.7
		c0.7-0.7,1.6-1,2.6-1s1.8,0.3,2.5,0.9s1,1.4,1,2.4v1.1h-5.2c0.1,0.4,0.3,0.7,0.6,1s0.7,0.4,1.2,0.4c0.7,0,1.3-0.2,1.7-0.7L42,414.2
		z M40.1,410c-0.3-0.2-0.6-0.3-1-0.3s-0.8,0.1-1.1,0.4c-0.3,0.2-0.5,0.6-0.6,1h3.1C40.5,410.5,40.4,410.2,40.1,410z"/>
</g>
<g>
	<path fill="#326DE6" d="M178,406h2.1v9.3H178l-4.4-5.8v5.8h-2.1V406h1.9l4.6,6V406z"/>
	<path fill="#326DE6" d="M189.3,411.7c0,1-0.4,1.9-1.1,2.6s-1.6,1.1-2.7,1.1c-1.1,0-2-0.4-2.7-1.1c-0.7-0.7-1.1-1.6-1.1-2.6
		s0.4-1.9,1.1-2.6c0.7-0.7,1.6-1.1,2.7-1.1c1.1,0,2,0.4,2.7,1.1C188.9,409.8,189.3,410.7,189.3,411.7z M183.7,411.7
		c0,0.6,0.2,1.1,0.5,1.4c0.3,0.4,0.8,0.6,1.3,0.6s0.9-0.2,1.3-0.6c0.3-0.4,0.5-0.8,0.5-1.4s-0.2-1.1-0.5-1.4
		c-0.3-0.4-0.8-0.6-1.3-0.6s-0.9,0.2-1.3,0.6S183.7,411.1,183.7,411.7z"/>
	<path fill="#326DE6" d="M193.6,415.4c-0.8,0-1.6-0.4-2.3-1.1c-0.7-0.7-1-1.6-1-2.7s0.3-1.9,1-2.6c0.6-0.7,1.4-1,2.3-1
		s1.6,0.3,2.1,0.9v-3.5h2v9.9h-2v-0.9C195.2,415,194.5,415.4,193.6,415.4z M192.4,411.7c0,0.6,0.2,1,0.5,1.4
		c0.3,0.4,0.7,0.6,1.2,0.6c0.5,0,0.9-0.2,1.2-0.6c0.3-0.4,0.5-0.8,0.5-1.4s-0.2-1.1-0.5-1.4s-0.7-0.6-1.2-0.6
		c-0.5,0-0.9,0.2-1.2,0.6S192.4,411.1,192.4,411.7z"/>
	<path fill="#326DE6" d="M205.8,414.2c-0.8,0.8-1.8,1.1-2.8,1.1c-1.1,0-2-0.3-2.7-1s-1.1-1.6-1.1-2.7c0-1.1,0.4-2,1.1-2.7
		c0.7-0.7,1.6-1,2.6-1s1.8,0.3,2.5,0.9s1,1.4,1,2.4v1.1h-5.2c0.1,0.4,0.3,0.7,0.6,1s0.7,0.4,1.2,0.4c0.7,0,1.3-0.2,1.7-0.7
		L205.8,414.2z M203.9,410c-0.3-0.2-0.6-0.3-1-0.3s-0.8,0.1-1.1,0.4c-0.3,0.2-0.5,0.6-0.6,1h3.1C204.3,410.5,204.2,410.2,203.9,410z
		"/>
</g>
<g>
	<path fill="#326DE6" d="M173.7,15.9l-1.4-3.2h-6.2l-1.4,3.2h-3.5l6.3-14.7h3.2l6.3,14.7H173.7z M169.3,5.6l-1.8,4.3h3.7L169.3,5.6z
		"/>
	<path fill="#326DE6" d="M181.7,9.6v6.3h-3.1V4.6h3.1v1.3c1-1,2-1.4,3.2-1.4c1.2,0,2.2,0.4,3,1.3c0.8,0.8,1.2,2,1.2,3.4v6.9H186V9.5
		c0-1.7-0.6-2.6-1.9-2.6c-0.6,0-1.2,0.2-1.6,0.7C182,8.1,181.7,8.7,181.7,9.6z"/>
	<path fill="#326DE6" d="M208.8,10.3c0,1.6-0.6,3-1.7,4.1c-1.1,1.1-2.6,1.7-4.3,1.7c-1.7,0-3.1-0.6-4.3-1.7
		c-1.1-1.1-1.7-2.5-1.7-4.1s0.6-3,1.7-4.1c1.1-1.1,2.6-1.7,4.3-1.7c1.7,0,3.1,0.6,4.3,1.7C208.2,7.3,208.8,8.6,208.8,10.3z
		 M200,10.3c0,0.9,0.3,1.7,0.8,2.3c0.5,0.6,1.2,0.9,2,0.9c0.8,0,1.5-0.3,2-0.9c0.5-0.6,0.8-1.3,0.8-2.3c0-0.9-0.3-1.7-0.8-2.3
		c-0.5-0.6-1.2-0.9-2-0.9c-0.8,0-1.5,0.3-2,0.9C200.3,8.6,200,9.4,200,10.3z"/>
	<path fill="#326DE6" d="M216.6,13.3c1,0,2-0.5,2.8-1.6l1.9,2.1c-1.5,1.5-3,2.3-4.7,2.3c-1.7,0-3.1-0.5-4.3-1.6
		c-1.2-1.1-1.8-2.5-1.8-4.2s0.6-3.1,1.8-4.2c1.2-1.1,2.6-1.6,4.2-1.6c0.8,0,1.6,0.2,2.5,0.5s1.6,0.8,2.2,1.5l-1.6,2.1
		c-0.4-0.4-0.8-0.8-1.3-1c-0.5-0.2-1-0.4-1.6-0.4c-0.8,0-1.5,0.3-2.1,0.8c-0.6,0.5-0.9,1.3-0.9,2.2s0.3,1.7,0.9,2.2
		C215.1,13,215.8,13.3,216.6,13.3z"/>
	<path fill="#326DE6" d="M233.1,14.3c-1.3,1.2-2.8,1.8-4.5,1.8c-1.7,0-3.1-0.5-4.3-1.6c-1.1-1.1-1.7-2.5-1.7-4.3
		c0-1.8,0.6-3.2,1.7-4.2c1.1-1,2.5-1.6,4-1.6s2.9,0.5,4,1.4c1.1,0.9,1.6,2.2,1.6,3.9v1.7h-8.2c0.1,0.6,0.4,1.1,1,1.5
		c0.5,0.4,1.2,0.6,1.8,0.6c1.1,0,2-0.4,2.7-1.1L233.1,14.3z M230.1,7.6c-0.4-0.4-1-0.5-1.6-0.5c-0.6,0-1.2,0.2-1.7,0.6
		c-0.5,0.4-0.8,0.9-0.9,1.5h5C230.8,8.5,230.6,8,230.1,7.6z"/>
	<path fill="#326DE6" d="M245.9,15.9h-3v-1.4c-0.8,1-1.8,1.5-3,1.5c-1.2,0-2.2-0.3-3-1c-0.8-0.7-1.2-1.6-1.2-2.8
		c0-1.2,0.4-2,1.3-2.6c0.8-0.6,2-0.9,3.4-0.9h2.4V8.8c0-1.2-0.6-1.8-1.9-1.8c-0.5,0-1.1,0.1-1.7,0.3c-0.6,0.2-1.1,0.5-1.5,0.8
		l-1.4-2c1.5-1.1,3.2-1.6,5.1-1.6c1.4,0,2.5,0.3,3.4,1c0.9,0.7,1.3,1.8,1.3,3.3V15.9z M242.8,11.6v-0.5h-2c-1.3,0-1.9,0.4-1.9,1.2
		c0,0.4,0.1,0.7,0.5,0.9c0.3,0.2,0.7,0.3,1.3,0.3c0.6,0,1.1-0.2,1.5-0.5C242.5,12.7,242.8,12.2,242.8,11.6z"/>
	<path fill="#326DE6" d="M251.9,9.6v6.3h-3.1V4.6h3.1v1.3c1-1,2-1.4,3.2-1.4c1.2,0,2.2,0.4,3,1.3c0.8,0.8,1.2,2,1.2,3.4v6.9h-3.1
		V9.5c0-1.7-0.6-2.6-1.9-2.6c-0.6,0-1.2,0.2-1.6,0.7C252.2,8.1,251.9,8.7,251.9,9.6z"/>
	<path fill="#326DE6" d="M279,10.3c0,1.6-0.6,3-1.7,4.1c-1.1,1.1-2.6,1.7-4.3,1.7c-1.7,0-3.1-0.6-4.3-1.7c-1.1-1.1-1.7-2.5-1.7-4.1
		s0.6-3,1.7-4.1c1.1-1.1,2.6-1.7,4.3-1.7c1.7,0,3.1,0.6,4.3,1.7C278.5,7.3,279,8.6,279,10.3z M270.3,10.3c0,0.9,0.3,1.7,0.8,2.3
		c0.5,0.6,1.2,0.9,2,0.9c0.8,0,1.5-0.3,2-0.9c0.5-0.6,0.8-1.3,0.8-2.3c0-0.9-0.3-1.7-0.8-2.3c-0.5-0.6-1.2-0.9-2-0.9
		c-0.8,0-1.5,0.3-2,0.9C270.5,8.6,270.3,9.4,270.3,10.3z"/>
	<path fill="#326DE6" d="M284.9,4v0.8h2.7V7h-2.7v8.9h-3.2V7h-1.3V4.7h1.3V4c0-1.2,0.4-2.2,1.1-2.9c0.7-0.7,1.7-1.1,2.8-1.1
		c1.1,0,2.1,0.4,3,1.3l-1.1,2.1c-0.5-0.5-1-0.8-1.5-0.8c-0.3,0-0.6,0.1-0.8,0.3S284.9,3.5,284.9,4z"/>
	<path fill="#326DE6" d="M154.3,37.3v-6.1h3.2v11.3h-3.2V41c-0.8,1.1-1.8,1.7-3,1.7c-1.2,0-2.3-0.4-3.1-1.2
		c-0.8-0.8-1.3-1.9-1.3-3.5v-6.8h3.2v6.2c0,1.7,0.6,2.6,1.9,2.6c0.6,0,1.2-0.2,1.6-0.7C154.1,38.8,154.3,38.2,154.3,37.3z"/>
	<path fill="#326DE6" d="M169,39c0,1.1-0.4,2-1.2,2.7c-0.8,0.7-1.9,1-3.1,1c-0.8,0-1.7-0.2-2.6-0.5s-1.7-0.7-2.5-1.3l1.4-2
		c1.2,0.9,2.4,1.4,3.8,1.4c0.4,0,0.7-0.1,1-0.2c0.2-0.2,0.4-0.4,0.4-0.6s-0.2-0.5-0.5-0.7c-0.3-0.2-0.8-0.4-1.4-0.6
		c-0.6-0.2-1.1-0.4-1.4-0.5c-0.3-0.1-0.7-0.3-1.1-0.6c-0.9-0.5-1.3-1.3-1.3-2.4s0.4-1.9,1.3-2.6c0.8-0.7,1.9-1,3.3-1
		c1.3,0,2.7,0.4,4,1.3l-1.2,2.1c-1-0.7-2-1-2.9-1s-1.5,0.3-1.5,0.8c0,0.3,0.2,0.5,0.5,0.7s0.8,0.4,1.5,0.6c0.7,0.2,1.2,0.4,1.5,0.5
		c0.3,0.1,0.7,0.3,1.1,0.6C168.6,37.1,169,37.9,169,39z"/>
	<path fill="#326DE6" d="M181.1,40.9c-1.3,1.2-2.8,1.8-4.5,1.8c-1.7,0-3.1-0.5-4.3-1.6c-1.1-1.1-1.7-2.5-1.7-4.3
		c0-1.8,0.6-3.2,1.7-4.2c1.1-1,2.5-1.6,4-1.6s2.9,0.5,4,1.4c1.1,0.9,1.6,2.2,1.6,3.9V38h-8.2c0.1,0.6,0.4,1.1,1,1.5
		c0.5,0.4,1.2,0.6,1.8,0.6c1.1,0,2-0.4,2.7-1.1L181.1,40.9z M178.1,34.2c-0.4-0.4-1-0.5-1.6-0.5c-0.6,0-1.2,0.2-1.7,0.6
		c-0.5,0.4-0.8,0.9-0.9,1.5h5C178.8,35.1,178.6,34.5,178.1,34.2z"/>
	<path fill="#326DE6" d="M190.3,34c-0.9,0-1.6,0.3-2.1,1s-0.7,1.5-0.7,2.6v4.9h-3.1V31.2h3.1v1.5c0.4-0.5,0.9-0.9,1.5-1.2
		c0.6-0.3,1.2-0.5,1.9-0.5l0,3H190.3z"/>
	<path fill="#326DE6" d="M203.9,39.9c1,0,2-0.5,2.8-1.6l1.9,2.1c-1.5,1.5-3,2.3-4.7,2.3c-1.7,0-3.1-0.5-4.3-1.6
		c-1.2-1.1-1.8-2.5-1.8-4.2s0.6-3.1,1.8-4.2c1.2-1.1,2.6-1.6,4.2-1.6c0.8,0,1.6,0.2,2.5,0.5s1.6,0.8,2.2,1.5l-1.6,2.1
		c-0.4-0.4-0.8-0.8-1.3-1c-0.5-0.2-1-0.4-1.6-0.4c-0.8,0-1.5,0.3-2.1,0.8c-0.6,0.5-0.9,1.3-0.9,2.2s0.3,1.7,0.9,2.2
		C202.4,39.6,203.1,39.9,203.9,39.9z"/>
	<path fill="#326DE6" d="M221.8,36.9c0,1.6-0.6,3-1.7,4.1c-1.1,1.1-2.6,1.7-4.3,1.7c-1.7,0-3.1-0.6-4.3-1.7
		c-1.1-1.1-1.7-2.5-1.7-4.1s0.6-3,1.7-4.1c1.1-1.1,2.6-1.7,4.3-1.7c1.7,0,3.1,0.6,4.3,1.7C221.3,33.8,221.8,35.2,221.8,36.9z
		 M213.1,36.9c0,0.9,0.3,1.7,0.8,2.3c0.5,0.6,1.2,0.9,2,0.9c0.8,0,1.5-0.3,2-0.9c0.5-0.6,0.8-1.3,0.8-2.3c0-0.9-0.3-1.7-0.8-2.3
		c-0.5-0.6-1.2-0.9-2-0.9c-0.8,0-1.5,0.3-2,0.9C213.3,35.2,213.1,35.9,213.1,36.9z"/>
	<path fill="#326DE6" d="M227.3,36.2v6.3h-3.1V31.2h3.1v1.3c1-1,2-1.4,3.2-1.4c1.2,0,2.2,0.4,3,1.3c0.8,0.8,1.2,2,1.2,3.4v6.9h-3.1
		v-6.4c0-1.7-0.6-2.6-1.9-2.6c-0.6,0-1.2,0.2-1.6,0.7C227.5,34.7,227.3,35.3,227.3,36.2z"/>
	<path fill="#326DE6" d="M241.2,33.5v5.1c0,0.4,0.1,0.8,0.3,1c0.2,0.2,0.5,0.4,0.8,0.4c0.6,0,1.1-0.3,1.5-0.8l1.2,2.2
		c-1,0.9-2,1.3-3.1,1.3s-2-0.4-2.7-1.1c-0.7-0.7-1.1-1.7-1.1-2.9v-5.2h-1.3v-2.3h1.3v-3.4h3.2v3.4h2.7v2.3H241.2z"/>
	<path fill="#326DE6" d="M256.2,42.5h-3v-1.4c-0.8,1-1.8,1.5-3,1.5c-1.2,0-2.2-0.3-3-1c-0.8-0.7-1.2-1.6-1.2-2.8
		c0-1.2,0.4-2,1.3-2.6c0.8-0.6,2-0.9,3.4-0.9h2.4v-0.1c0-1.2-0.6-1.8-1.9-1.8c-0.5,0-1.1,0.1-1.7,0.3c-0.6,0.2-1.1,0.5-1.5,0.8
		l-1.4-2c1.5-1.1,3.2-1.6,5.1-1.6c1.4,0,2.5,0.3,3.4,1c0.9,0.7,1.3,1.8,1.3,3.3V42.5z M253.1,38.2v-0.5h-2c-1.3,0-1.9,0.4-1.9,1.2
		c0,0.4,0.1,0.7,0.5,0.9c0.3,0.2,0.7,0.3,1.3,0.3c0.6,0,1.1-0.2,1.5-0.5C252.8,39.2,253.1,38.8,253.1,38.2z"/>
	<path fill="#326DE6" d="M259.4,29.8c-0.4-0.4-0.5-0.8-0.5-1.3s0.2-1,0.5-1.3c0.4-0.4,0.8-0.5,1.3-0.5s1,0.2,1.3,0.5
		s0.5,0.8,0.5,1.3s-0.2,1-0.5,1.3c-0.4,0.4-0.8,0.5-1.3,0.5S259.7,30.1,259.4,29.8z M262.3,42.5h-3.1V31.2h3.1V42.5z"/>
	<path fill="#326DE6" d="M268.4,36.2v6.3h-3.1V31.2h3.1v1.3c1-1,2-1.4,3.2-1.4c1.2,0,2.2,0.4,3,1.3c0.8,0.8,1.2,2,1.2,3.4v6.9h-3.1
		v-6.4c0-1.7-0.6-2.6-1.9-2.6c-0.6,0-1.2,0.2-1.6,0.7C268.6,34.7,268.4,35.3,268.4,36.2z"/>
	<path fill="#326DE6" d="M288.4,40.9c-1.3,1.2-2.8,1.8-4.5,1.8c-1.7,0-3.1-0.5-4.3-1.6c-1.1-1.1-1.7-2.5-1.7-4.3
		c0-1.8,0.6-3.2,1.7-4.2c1.1-1,2.5-1.6,4-1.6s2.9,0.5,4,1.4c1.1,0.9,1.6,2.2,1.6,3.9V38h-8.2c0.1,0.6,0.4,1.1,1,1.5
		c0.5,0.4,1.2,0.6,1.8,0.6c1.1,0,2-0.4,2.7-1.1L288.4,40.9z M285.4,34.2c-0.4-0.4-1-0.5-1.6-0.5c-0.6,0-1.2,0.2-1.7,0.6
		c-0.5,0.4-0.8,0.9-0.9,1.5h5C286.1,35.1,285.8,34.5,285.4,34.2z"/>
	<path fill="#326DE6" d="M297.6,34c-0.9,0-1.6,0.3-2.1,1s-0.7,1.5-0.7,2.6v4.9h-3.1V31.2h3.1v1.5c0.4-0.5,0.9-0.9,1.5-1.2
		c0.6-0.3,1.2-0.5,1.9-0.5l0,3H297.6z"/>
	<path fill="#326DE6" d="M308.7,39c0,1.1-0.4,2-1.2,2.7c-0.8,0.7-1.9,1-3.1,1c-0.8,0-1.7-0.2-2.6-0.5s-1.7-0.7-2.5-1.3l1.4-2
		c1.2,0.9,2.4,1.4,3.8,1.4c0.4,0,0.7-0.1,1-0.2c0.2-0.2,0.4-0.4,0.4-0.6s-0.2-0.5-0.5-0.7c-0.3-0.2-0.8-0.4-1.4-0.6
		c-0.6-0.2-1.1-0.4-1.4-0.5c-0.3-0.1-0.7-0.3-1.1-0.6c-0.9-0.5-1.3-1.3-1.3-2.4s0.4-1.9,1.3-2.6c0.8-0.7,1.9-1,3.3-1
		c1.3,0,2.7,0.4,4,1.3l-1.2,2.1c-1-0.7-2-1-2.9-1s-1.5,0.3-1.5,0.8c0,0.3,0.2,0.5,0.5,0.7s0.8,0.4,1.5,0.6c0.7,0.2,1.2,0.4,1.5,0.5
		c0.3,0.1,0.7,0.3,1.1,0.6C308.3,37.1,308.7,37.9,308.7,39z"/>
</g>
<g>
	<path fill="#326DE6" d="M348.7,406h2.1v9.3h-2.1l-4.4-5.8v5.8h-2.1V406h1.9l4.6,6V406z"/>
	<path fill="#326DE6" d="M360,411.7c0,1-0.4,1.9-1.1,2.6s-1.6,1.1-2.7,1.1c-1.1,0-2-0.4-2.7-1.1c-0.7-0.7-1.1-1.6-1.1-2.6
		s0.4-1.9,1.1-2.6c0.7-0.7,1.6-1.1,2.7-1.1c1.1,0,2,0.4,2.7,1.1C359.6,409.8,360,410.7,360,411.7z M354.4,411.7
		c0,0.6,0.2,1.1,0.5,1.4c0.3,0.4,0.8,0.6,1.3,0.6s0.9-0.2,1.3-0.6c0.3-0.4,0.5-0.8,0.5-1.4s-0.2-1.1-0.5-1.4
		c-0.3-0.4-0.8-0.6-1.3-0.6s-0.9,0.2-1.3,0.6S354.4,411.1,354.4,411.7z"/>
	<path fill="#326DE6" d="M364.3,415.4c-0.8,0-1.6-0.4-2.3-1.1c-0.7-0.7-1-1.6-1-2.7s0.3-1.9,1-2.6c0.6-0.7,1.4-1,2.3-1
		s1.6,0.3,2.1,0.9v-3.5h2v9.9h-2v-0.9C365.9,415,365.2,415.4,364.3,415.4z M363.1,411.7c0,0.6,0.2,1,0.5,1.4
		c0.3,0.4,0.7,0.6,1.2,0.6c0.5,0,0.9-0.2,1.2-0.6c0.3-0.4,0.5-0.8,0.5-1.4s-0.2-1.1-0.5-1.4s-0.7-0.6-1.2-0.6
		c-0.5,0-0.9,0.2-1.2,0.6S363.1,411.1,363.1,411.7z"/>
	<path fill="#326DE6" d="M376.5,414.2c-0.8,0.8-1.8,1.1-2.8,1.1c-1.1,0-2-0.3-2.7-1s-1.1-1.6-1.1-2.7c0-1.1,0.4-2,1.1-2.7
		c0.7-0.7,1.6-1,2.6-1s1.8,0.3,2.5,0.9s1,1.4,1,2.4v1.1h-5.2c0.1,0.4,0.3,0.7,0.6,1s0.7,0.4,1.2,0.4c0.7,0,1.3-0.2,1.7-0.7
		L376.5,414.2z M374.6,410c-0.3-0.2-0.6-0.3-1-0.3s-0.8,0.1-1.1,0.4c-0.3,0.2-0.5,0.6-0.6,1h3.1C375,410.5,374.9,410.2,374.6,410z"
		/>
</g>
<g>
	<path fill="#326DE6" stroke="#DFE8F7" stroke-width="1.3994" stroke-miterlimit="10" d="M235.2,350.5c-16.8,0-33.7-0.2-50.5,0.1
		c-20,0.3-35.7-16.8-34.4-36.2c0.9-13.7,8.3-23.2,20.8-28.6c1.3-0.5,1.7-1.2,2.1-2.4c2.7-9.3,8.5-15.3,18.1-17.2
		c4.1-0.8,8.2-0.3,12,1.4c1.2,0.6,1.6,0.3,2.2-0.8c8.7-15.5,21.8-23.7,39.8-23.5c20.3,0.3,38.6,16.9,41.4,37
		c0.3,2.2,0.5,4.4,0.5,6.7c0,0.9,0.1,1.3,1.2,1.4c16.2,0.5,29.3,14.4,28.9,31.7c-0.4,16.8-14.3,30.5-31.1,30.5
		C269.1,350.5,252.1,350.5,235.2,350.5z"/>
</g>
<g>
	<path fill="#FFFFFF" d="M184.7,293.5h2.6v4.8l4.4-4.8h3.2l-4.7,5.2c0.4,0.6,1.1,1.6,2.2,3.1s1.9,2.7,2.4,3.4h-3.1l-3.4-4.6
		l-1.2,1.3v3.3h-2.6V293.5z"/>
	<path fill="#FFFFFF" d="M201.8,301.1v-4.9h2.5v9h-2.5v-1.2c-0.6,0.9-1.4,1.3-2.4,1.3s-1.8-0.3-2.5-0.9c-0.7-0.6-1-1.5-1-2.8v-5.5
		h2.5v4.9c0,1.4,0.5,2.1,1.5,2.1c0.5,0,0.9-0.2,1.3-0.5C201.6,302.3,201.8,301.8,201.8,301.1z"/>
	<path fill="#FFFFFF" d="M211.9,296.1c1.1,0,2.1,0.4,2.9,1.3c0.8,0.9,1.2,2,1.2,3.3c0,1.3-0.4,2.5-1.3,3.4c-0.8,0.9-1.8,1.4-2.9,1.4
		s-2-0.4-2.7-1.3v1.2h-2.5v-12.5h2.5v4.4C209.9,296.5,210.8,296.1,211.9,296.1z M209.2,300.8c0,0.7,0.2,1.3,0.6,1.8
		c0.4,0.5,0.9,0.7,1.5,0.7s1.1-0.2,1.5-0.7s0.7-1.1,0.7-1.8s-0.2-1.3-0.6-1.8c-0.4-0.5-0.9-0.7-1.5-0.7c-0.6,0-1.1,0.2-1.5,0.7
		C209.4,299.4,209.2,300,209.2,300.8z"/>
	<path fill="#FFFFFF" d="M225.7,304c-1,1-2.2,1.4-3.6,1.4c-1.4,0-2.5-0.4-3.4-1.3c-0.9-0.8-1.3-2-1.3-3.4c0-1.4,0.5-2.6,1.4-3.4
		c0.9-0.8,2-1.3,3.2-1.3s2.3,0.4,3.2,1.1c0.9,0.8,1.3,1.8,1.3,3.1v1.3h-6.6c0.1,0.5,0.3,0.9,0.8,1.2s0.9,0.5,1.5,0.5
		c0.9,0,1.6-0.3,2.2-0.9L225.7,304z M223.3,298.6c-0.3-0.3-0.8-0.4-1.3-0.4s-1,0.2-1.4,0.5c-0.4,0.3-0.7,0.7-0.7,1.2h4
		C223.8,299.3,223.6,298.9,223.3,298.6z"/>
	<path fill="#FFFFFF" d="M233,298.5c-0.8,0-1.3,0.3-1.7,0.8c-0.4,0.5-0.6,1.2-0.6,2.1v3.9h-2.5v-9h2.5v1.2c0.3-0.4,0.7-0.7,1.2-0.9
		c0.5-0.3,1-0.4,1.5-0.4l0,2.4H233z"/>
	<path fill="#FFFFFF" d="M237.7,300.2v5h-2.5v-9h2.5v1c0.8-0.8,1.6-1.2,2.6-1.2s1.7,0.3,2.4,1c0.6,0.7,1,1.6,1,2.7v5.5h-2.5v-5.1
		c0-1.4-0.5-2.1-1.5-2.1c-0.5,0-0.9,0.2-1.3,0.5C237.9,299,237.7,299.5,237.7,300.2z"/>
	<path fill="#FFFFFF" d="M253.7,304c-1,1-2.2,1.4-3.6,1.4c-1.4,0-2.5-0.4-3.4-1.3c-0.9-0.8-1.3-2-1.3-3.4c0-1.4,0.5-2.6,1.4-3.4
		c0.9-0.8,2-1.3,3.2-1.3s2.3,0.4,3.2,1.1c0.9,0.8,1.3,1.8,1.3,3.1v1.3h-6.6c0.1,0.5,0.3,0.9,0.8,1.2s0.9,0.5,1.5,0.5
		c0.9,0,1.6-0.3,2.2-0.9L253.7,304z M251.3,298.6c-0.3-0.3-0.8-0.4-1.3-0.4s-1,0.2-1.4,0.5c-0.4,0.3-0.7,0.7-0.7,1.2h4
		C251.8,299.3,251.6,298.9,251.3,298.6z"/>
	<path fill="#FFFFFF" d="M259.2,298v4c0,0.3,0.1,0.6,0.3,0.8c0.2,0.2,0.4,0.3,0.6,0.3c0.5,0,0.9-0.2,1.2-0.6l0.9,1.8
		c-0.8,0.7-1.6,1.1-2.5,1.1c-0.9,0-1.6-0.3-2.2-0.9c-0.6-0.6-0.9-1.3-0.9-2.3V298h-1.1v-1.8h1.1v-2.7h2.5v2.7h2.2v1.8H259.2z"/>
	<path fill="#FFFFFF" d="M271.4,304c-1,1-2.2,1.4-3.6,1.4c-1.4,0-2.5-0.4-3.4-1.3c-0.9-0.8-1.3-2-1.3-3.4c0-1.4,0.5-2.6,1.4-3.4
		c0.9-0.8,2-1.3,3.2-1.3s2.3,0.4,3.2,1.1c0.9,0.8,1.3,1.8,1.3,3.1v1.3h-6.6c0.1,0.5,0.3,0.9,0.8,1.2s0.9,0.5,1.5,0.5
		c0.9,0,1.6-0.3,2.2-0.9L271.4,304z M269,298.6c-0.3-0.3-0.8-0.4-1.3-0.4s-1,0.2-1.4,0.5c-0.4,0.3-0.7,0.7-0.7,1.2h4
		C269.5,299.3,269.3,298.9,269,298.6z"/>
	<path fill="#FFFFFF" d="M280.7,302.5c0,0.9-0.3,1.6-1,2.1s-1.5,0.8-2.5,0.8c-0.7,0-1.4-0.1-2.1-0.4c-0.7-0.2-1.4-0.6-2-1.1l1.1-1.6
		c0.9,0.7,1.9,1.1,3,1.1c0.3,0,0.6-0.1,0.8-0.2c0.2-0.1,0.3-0.3,0.3-0.5s-0.1-0.4-0.4-0.6c-0.3-0.2-0.6-0.3-1.1-0.5
		c-0.5-0.2-0.9-0.3-1.1-0.4c-0.3-0.1-0.6-0.3-0.9-0.5c-0.7-0.4-1-1.1-1-1.9s0.3-1.5,1-2c0.7-0.5,1.5-0.8,2.6-0.8
		c1.1,0,2.1,0.4,3.2,1.1l-0.9,1.7c-0.8-0.5-1.6-0.8-2.3-0.8c-0.8,0-1.2,0.2-1.2,0.6c0,0.2,0.1,0.4,0.4,0.6c0.2,0.1,0.7,0.3,1.2,0.5
		c0.6,0.2,1,0.3,1.2,0.4c0.2,0.1,0.5,0.2,0.9,0.4C280.4,300.9,280.7,301.6,280.7,302.5z"/>
	<path fill="#FFFFFF" d="M214.7,318l-3.2,6.4h-1.6l-3.2-6.4v7.4h-2.6v-11.7h3.5l3,6.4l3-6.4h3.5v11.7h-2.6V318z"/>
	<path fill="#FFFFFF" d="M227.6,325.4h-2.4v-1.1c-0.6,0.8-1.5,1.2-2.4,1.2s-1.8-0.3-2.4-0.8c-0.6-0.6-1-1.3-1-2.2
		c0-0.9,0.3-1.6,1-2.1c0.7-0.5,1.6-0.7,2.8-0.7h1.9v-0.1c0-1-0.5-1.4-1.5-1.4c-0.4,0-0.9,0.1-1.4,0.3c-0.5,0.2-0.9,0.4-1.2,0.6
		l-1.1-1.6c1.2-0.9,2.5-1.3,4.1-1.3c1.1,0,2,0.3,2.7,0.8c0.7,0.5,1,1.4,1,2.6V325.4z M225,322v-0.4h-1.6c-1,0-1.5,0.3-1.5,0.9
		c0,0.3,0.1,0.6,0.4,0.7c0.2,0.2,0.6,0.3,1,0.3s0.8-0.1,1.2-0.4S225,322.4,225,322z"/>
	<path fill="#FFFFFF" d="M236.7,322.6c0,0.9-0.3,1.6-1,2.1s-1.5,0.8-2.5,0.8c-0.7,0-1.4-0.1-2.1-0.4c-0.7-0.2-1.4-0.6-2-1.1l1.1-1.6
		c0.9,0.7,1.9,1.1,3,1.1c0.3,0,0.6-0.1,0.8-0.2c0.2-0.1,0.3-0.3,0.3-0.5s-0.1-0.4-0.4-0.6c-0.3-0.2-0.6-0.3-1.1-0.5
		c-0.5-0.2-0.9-0.3-1.1-0.4c-0.3-0.1-0.6-0.3-0.9-0.5c-0.7-0.4-1-1.1-1-1.9s0.3-1.5,1-2c0.7-0.5,1.5-0.8,2.6-0.8
		c1.1,0,2.1,0.4,3.2,1.1l-0.9,1.7c-0.8-0.5-1.6-0.8-2.3-0.8c-0.8,0-1.2,0.2-1.2,0.6c0,0.2,0.1,0.4,0.4,0.6c0.2,0.1,0.7,0.3,1.2,0.5
		c0.6,0.2,1,0.3,1.2,0.4c0.2,0.1,0.5,0.2,0.9,0.4C236.4,321.1,236.7,321.7,236.7,322.6z"/>
	<path fill="#FFFFFF" d="M241.6,318.2v4c0,0.3,0.1,0.6,0.3,0.8c0.2,0.2,0.4,0.3,0.6,0.3c0.5,0,0.9-0.2,1.2-0.6l0.9,1.8
		c-0.8,0.7-1.6,1.1-2.5,1.1c-0.9,0-1.6-0.3-2.2-0.9c-0.6-0.6-0.9-1.3-0.9-2.3v-4.2H238v-1.8h1.1v-2.7h2.5v2.7h2.2v1.8H241.6z"/>
	<path fill="#FFFFFF" d="M253.8,324.1c-1,1-2.2,1.4-3.6,1.4c-1.4,0-2.5-0.4-3.4-1.3c-0.9-0.8-1.3-2-1.3-3.4c0-1.4,0.5-2.6,1.4-3.4
		c0.9-0.8,2-1.3,3.2-1.3s2.3,0.4,3.2,1.1c0.9,0.8,1.3,1.8,1.3,3.1v1.3h-6.6c0.1,0.5,0.3,0.9,0.8,1.2s0.9,0.5,1.5,0.5
		c0.9,0,1.6-0.3,2.2-0.9L253.8,324.1z M251.3,318.8c-0.3-0.3-0.8-0.4-1.3-0.4s-1,0.2-1.4,0.5c-0.4,0.3-0.7,0.7-0.7,1.2h4
		C251.9,319.5,251.7,319,251.3,318.8z"/>
	<path fill="#FFFFFF" d="M261.1,318.6c-0.8,0-1.3,0.3-1.7,0.8c-0.4,0.5-0.6,1.2-0.6,2.1v3.9h-2.5v-9h2.5v1.2
		c0.3-0.4,0.7-0.7,1.2-0.9c0.5-0.3,1-0.4,1.5-0.4l0,2.4H261.1z"/>
</g>
<path fill-rule="evenodd" clip-rule="evenodd" fill="none" stroke="#326DE6" stroke-width="2.099" stroke-miterlimit="10" d="
	M383,74.9v-7.8c0-5.1-4-9.2-8.9-9.2H91c-4.9,0-8.9,4.1-8.9,9.2v7.8"/>
<g>
	<path fill="#326DE6" d="M119.1,529.2c-0.3,0.3-0.5,0.6-0.5,1c0,0.4,0.2,0.8,0.6,1c0.4,0.3,1.3,0.5,2.7,0.9c1.4,0.3,2.5,0.9,3.2,1.5
		c0.8,0.7,1.2,1.7,1.2,3s-0.5,2.4-1.5,3.2c-1,0.8-2.3,1.2-3.9,1.2c-2.3,0-4.4-0.9-6.3-2.6l2-2.4c1.6,1.4,3,2.1,4.4,2.1
		c0.6,0,1.1-0.1,1.4-0.4c0.3-0.3,0.5-0.6,0.5-1c0-0.4-0.2-0.8-0.5-1s-1.1-0.5-2.2-0.8c-1.7-0.4-3-0.9-3.7-1.6s-1.2-1.7-1.2-3.1
		s0.5-2.5,1.5-3.2c1-0.8,2.2-1.1,3.7-1.1c1,0,2,0.2,2.9,0.5c1,0.3,1.8,0.8,2.6,1.4l-1.7,2.4c-1.3-1-2.6-1.4-3.9-1.4
		C119.9,528.8,119.4,528.9,119.1,529.2z"/>
	<path fill="#326DE6" d="M134.2,538.3c1,0,2-0.5,2.8-1.6l1.9,2.1c-1.5,1.5-3,2.3-4.7,2.3c-1.7,0-3.1-0.5-4.3-1.6
		c-1.2-1.1-1.8-2.5-1.8-4.2s0.6-3.1,1.8-4.2c1.2-1.1,2.6-1.6,4.2-1.6c0.8,0,1.6,0.2,2.5,0.5c0.8,0.3,1.6,0.8,2.2,1.5l-1.6,2.1
		c-0.4-0.4-0.8-0.8-1.3-1c-0.5-0.2-1-0.4-1.6-0.4c-0.8,0-1.5,0.3-2.1,0.8c-0.6,0.5-0.9,1.3-0.9,2.2c0,1,0.3,1.7,0.9,2.2
		C132.7,538,133.4,538.3,134.2,538.3z"/>
	<path fill="#326DE6" d="M144.1,534.8v6.1H141v-15.6h3.1v5.5c1-1,2-1.4,3.2-1.4s2.2,0.4,3,1.3c0.8,0.8,1.2,2,1.2,3.4v6.9h-3.1v-6.2
		c0-1.7-0.6-2.6-1.9-2.6c-0.6,0-1.2,0.2-1.6,0.7C144.4,533.3,144.1,533.9,144.1,534.8z"/>
	<path fill="#326DE6" d="M164.2,539.3c-1.3,1.2-2.8,1.8-4.5,1.8c-1.7,0-3.1-0.5-4.3-1.6c-1.1-1.1-1.7-2.5-1.7-4.3s0.6-3.2,1.7-4.2
		c1.1-1,2.5-1.6,4-1.6s2.9,0.5,4,1.4c1.1,0.9,1.6,2.2,1.6,3.9v1.7h-8.2c0.1,0.6,0.4,1.1,1,1.5c0.5,0.4,1.2,0.6,1.8,0.6
		c1.1,0,2-0.4,2.7-1.1L164.2,539.3z M161.2,532.6c-0.4-0.4-1-0.5-1.6-0.5c-0.6,0-1.2,0.2-1.7,0.6s-0.8,0.9-0.9,1.5h5
		C161.8,533.5,161.6,532.9,161.2,532.6z"/>
	<path fill="#326DE6" d="M171.9,541.1c-1.3,0-2.5-0.6-3.6-1.7c-1-1.1-1.6-2.5-1.6-4.2c0-1.7,0.5-3.1,1.5-4.1c1-1.1,2.2-1.6,3.6-1.6
		c1.4,0,2.5,0.5,3.4,1.4v-5.5h3.1v15.6h-3.1v-1.5C174.3,540.5,173.2,541.1,171.9,541.1z M169.9,535.3c0,0.9,0.3,1.7,0.8,2.2
		c0.5,0.6,1.2,0.9,1.9,0.9s1.3-0.3,1.9-0.9c0.5-0.6,0.8-1.3,0.8-2.2s-0.3-1.7-0.8-2.3c-0.5-0.6-1.1-0.9-1.9-0.9s-1.4,0.3-1.9,0.9
		C170.2,533.6,169.9,534.4,169.9,535.3z"/>
	<path fill="#326DE6" d="M188.6,535.7v-6.1h3.2v11.3h-3.2v-1.5c-0.8,1.1-1.8,1.7-3,1.7c-1.2,0-2.3-0.4-3.1-1.2
		c-0.8-0.8-1.3-1.9-1.3-3.5v-6.8h3.2v6.2c0,1.7,0.6,2.6,1.9,2.6c0.6,0,1.2-0.2,1.6-0.7C188.4,537.2,188.6,536.6,188.6,535.7z"/>
	<path fill="#326DE6" d="M197.9,540.9h-3.1v-15.6h3.1V540.9z"/>
	<path fill="#326DE6" d="M210.7,539.3c-1.3,1.2-2.8,1.8-4.5,1.8c-1.7,0-3.1-0.5-4.3-1.6c-1.1-1.1-1.7-2.5-1.7-4.3s0.6-3.2,1.7-4.2
		c1.1-1,2.5-1.6,4-1.6s2.9,0.5,4,1.4c1.1,0.9,1.6,2.2,1.6,3.9v1.7h-8.2c0.1,0.6,0.4,1.1,1,1.5c0.5,0.4,1.2,0.6,1.8,0.6
		c1.1,0,2-0.4,2.7-1.1L210.7,539.3z M207.7,532.6c-0.4-0.4-1-0.5-1.6-0.5c-0.6,0-1.2,0.2-1.7,0.6s-0.8,0.9-0.9,1.5h5
		C208.4,533.5,208.1,532.9,207.7,532.6z"/>
	<path fill="#326DE6" d="M218.4,541.1c-1.3,0-2.5-0.6-3.6-1.7c-1-1.1-1.6-2.5-1.6-4.2c0-1.7,0.5-3.1,1.5-4.1c1-1.1,2.2-1.6,3.6-1.6
		c1.4,0,2.5,0.5,3.4,1.4v-5.5h3.1v15.6h-3.1v-1.5C220.9,540.5,219.8,541.1,218.4,541.1z M216.4,535.3c0,0.9,0.3,1.7,0.8,2.2
		c0.5,0.6,1.2,0.9,1.9,0.9s1.3-0.3,1.9-0.9c0.5-0.6,0.8-1.3,0.8-2.2s-0.3-1.7-0.8-2.3c-0.5-0.6-1.1-0.9-1.9-0.9s-1.4,0.3-1.9,0.9
		C216.7,533.6,216.4,534.4,216.4,535.3z"/>
	<path fill="#326DE6" d="M243,540.9h-3v-1.4c-0.8,1-1.8,1.5-3,1.5c-1.2,0-2.2-0.3-3-1c-0.8-0.7-1.2-1.6-1.2-2.8s0.4-2,1.3-2.6
		c0.8-0.6,2-0.9,3.4-0.9h2.4v-0.1c0-1.2-0.6-1.8-1.9-1.8c-0.5,0-1.1,0.1-1.7,0.3s-1.1,0.5-1.5,0.8l-1.4-2c1.5-1.1,3.2-1.6,5.1-1.6
		c1.4,0,2.5,0.3,3.4,1c0.9,0.7,1.3,1.8,1.3,3.3V540.9z M239.8,536.6v-0.5h-2c-1.3,0-1.9,0.4-1.9,1.2c0,0.4,0.1,0.7,0.5,0.9
		c0.3,0.2,0.7,0.3,1.3,0.3c0.6,0,1.1-0.2,1.5-0.5S239.8,537.2,239.8,536.6z"/>
	<path fill="#326DE6" d="M249,534.6v6.3h-3.1v-11.3h3.1v1.3c1-1,2-1.4,3.2-1.4c1.2,0,2.2,0.4,3,1.3c0.8,0.8,1.2,2,1.2,3.4v6.9h-3.1
		v-6.4c0-1.7-0.6-2.6-1.9-2.6c-0.6,0-1.2,0.2-1.6,0.7C249.3,533.1,249,533.7,249,534.6z"/>
	<path fill="#326DE6" d="M263.8,541.1c-1.3,0-2.5-0.6-3.6-1.7c-1-1.1-1.6-2.5-1.6-4.2c0-1.7,0.5-3.1,1.5-4.1c1-1.1,2.2-1.6,3.6-1.6
		c1.4,0,2.5,0.5,3.4,1.4v-5.5h3.1v15.6h-3.1v-1.5C266.3,540.5,265.2,541.1,263.8,541.1z M261.8,535.3c0,0.9,0.3,1.7,0.8,2.2
		c0.5,0.6,1.2,0.9,1.9,0.9s1.3-0.3,1.9-0.9c0.5-0.6,0.8-1.3,0.8-2.2s-0.3-1.7-0.8-2.3c-0.5-0.6-1.1-0.9-1.9-0.9s-1.4,0.3-1.9,0.9
		C262.1,533.6,261.8,534.4,261.8,535.3z"/>
	<path fill="#326DE6" d="M285.4,529.4c1.3,0,2.5,0.5,3.5,1.6s1.5,2.5,1.5,4.1c0,1.7-0.5,3.1-1.5,4.2c-1,1.1-2.2,1.7-3.6,1.7
		c-1.4,0-2.5-0.6-3.3-1.7v5.6h-3.1v-15.4h3.1v1.3C282.9,529.9,284.1,529.4,285.4,529.4z M281.9,535.3c0,0.9,0.3,1.7,0.8,2.2
		c0.5,0.6,1.1,0.9,1.9,0.9c0.7,0,1.4-0.3,1.9-0.9c0.5-0.6,0.8-1.3,0.8-2.2c0-0.9-0.3-1.7-0.8-2.3c-0.5-0.6-1.2-0.9-1.9-0.9
		s-1.4,0.3-1.9,0.9C282.2,533.6,281.9,534.4,281.9,535.3z"/>
	<path fill="#326DE6" d="M302.4,540.9h-3v-1.4c-0.8,1-1.8,1.5-3,1.5c-1.2,0-2.2-0.3-3-1c-0.8-0.7-1.2-1.6-1.2-2.8s0.4-2,1.3-2.6
		c0.8-0.6,2-0.9,3.4-0.9h2.4v-0.1c0-1.2-0.6-1.8-1.9-1.8c-0.5,0-1.1,0.1-1.7,0.3s-1.1,0.5-1.5,0.8l-1.4-2c1.5-1.1,3.2-1.6,5.1-1.6
		c1.4,0,2.5,0.3,3.4,1c0.9,0.7,1.3,1.8,1.3,3.3V540.9z M299.2,536.6v-0.5h-2c-1.3,0-1.9,0.4-1.9,1.2c0,0.4,0.1,0.7,0.5,0.9
		c0.3,0.2,0.7,0.3,1.3,0.3c0.6,0,1.1-0.2,1.5-0.5S299.2,537.2,299.2,536.6z"/>
	<path fill="#326DE6" d="M310.7,538.3c1,0,2-0.5,2.8-1.6l1.9,2.1c-1.5,1.5-3,2.3-4.7,2.3c-1.7,0-3.1-0.5-4.3-1.6
		c-1.2-1.1-1.8-2.5-1.8-4.2s0.6-3.1,1.8-4.2c1.2-1.1,2.6-1.6,4.2-1.6c0.8,0,1.6,0.2,2.5,0.5c0.8,0.3,1.6,0.8,2.2,1.5l-1.6,2.1
		c-0.4-0.4-0.8-0.8-1.3-1c-0.5-0.2-1-0.4-1.6-0.4c-0.8,0-1.5,0.3-2.1,0.8c-0.6,0.5-0.9,1.3-0.9,2.2c0,1,0.3,1.7,0.9,2.2
		C309.2,538,309.9,538.3,310.7,538.3z"/>
	<path fill="#326DE6" d="M320.6,540.9h-3.1v-15.6h3.1v8l3.5-3.7h4l-4.3,4.6l4.5,6.7h-3.7l-2.9-4.3l-1,1.1V540.9z"/>
	<path fill="#326DE6" d="M339.7,539.3c-1.3,1.2-2.8,1.8-4.5,1.8c-1.7,0-3.1-0.5-4.3-1.6c-1.1-1.1-1.7-2.5-1.7-4.3s0.6-3.2,1.7-4.2
		c1.1-1,2.5-1.6,4-1.6s2.9,0.5,4,1.4c1.1,0.9,1.6,2.2,1.6,3.9v1.7h-8.2c0.1,0.6,0.4,1.1,1,1.5c0.5,0.4,1.2,0.6,1.8,0.6
		c1.1,0,2-0.4,2.7-1.1L339.7,539.3z M336.7,532.6c-0.4-0.4-1-0.5-1.6-0.5c-0.6,0-1.2,0.2-1.7,0.6s-0.8,0.9-0.9,1.5h5
		C337.4,533.5,337.2,532.9,336.7,532.6z"/>
	<path fill="#326DE6" d="M347.5,541.1c-1.3,0-2.5-0.6-3.6-1.7c-1-1.1-1.6-2.5-1.6-4.2c0-1.7,0.5-3.1,1.5-4.1c1-1.1,2.2-1.6,3.6-1.6
		c1.4,0,2.5,0.5,3.4,1.4v-5.5h3.1v15.6h-3.1v-1.5C349.9,540.5,348.8,541.1,347.5,541.1z M345.5,535.3c0,0.9,0.3,1.7,0.8,2.2
		c0.5,0.6,1.2,0.9,1.9,0.9s1.3-0.3,1.9-0.9c0.5-0.6,0.8-1.3,0.8-2.2s-0.3-1.7-0.8-2.3c-0.5-0.6-1.1-0.9-1.9-0.9s-1.4,0.3-1.9,0.9
		C345.7,533.6,345.5,534.4,345.5,535.3z"/>
	<path fill="#326DE6" d="M116.5,567.7c-1.3,0-2.5-0.6-3.6-1.7c-1-1.1-1.6-2.5-1.6-4.2c0-1.7,0.5-3.1,1.5-4.1c1-1.1,2.2-1.6,3.6-1.6
		c1.4,0,2.5,0.5,3.4,1.4v-5.5h3.1v15.6h-3.1V566C118.9,567.1,117.8,567.7,116.5,567.7z M114.5,561.9c0,0.9,0.3,1.7,0.8,2.2
		c0.5,0.6,1.2,0.9,1.9,0.9s1.3-0.3,1.9-0.9c0.5-0.6,0.8-1.3,0.8-2.2s-0.3-1.7-0.8-2.3c-0.5-0.6-1.1-0.9-1.9-0.9s-1.4,0.3-1.9,0.9
		C114.8,560.2,114.5,561,114.5,561.9z"/>
	<path fill="#326DE6" d="M127.9,572c-1.1,0-2.1-0.4-3.1-1.3l1.4-2.3c0.5,0.5,1.1,0.8,1.6,0.8c0.3,0,0.5-0.1,0.8-0.4
		c0.2-0.3,0.3-0.6,0.3-0.9c0-0.3-1.5-4.2-4.4-11.5h3.4l2.8,7l2.7-7h3.4l-5.2,13.3c-0.3,0.8-0.8,1.4-1.4,1.8
		C129.4,571.7,128.7,572,127.9,572z"/>
	<path fill="#326DE6" d="M141.5,561.2v6.3h-3.1v-11.3h3.1v1.3c1-1,2-1.4,3.2-1.4c1.2,0,2.2,0.4,3,1.3c0.8,0.8,1.2,2,1.2,3.4v6.9
		h-3.1v-6.4c0-1.7-0.6-2.6-1.9-2.6c-0.6,0-1.2,0.2-1.6,0.7C141.7,559.7,141.5,560.3,141.5,561.2z"/>
	<path fill="#326DE6" d="M161.3,567.5h-3v-1.4c-0.8,1-1.8,1.5-3,1.5c-1.2,0-2.2-0.3-3-1c-0.8-0.7-1.2-1.6-1.2-2.8s0.4-2,1.3-2.6
		c0.8-0.6,2-0.9,3.4-0.9h2.4v-0.1c0-1.2-0.6-1.8-1.9-1.8c-0.5,0-1.1,0.1-1.7,0.3s-1.1,0.5-1.5,0.8l-1.4-2c1.5-1.1,3.2-1.6,5.1-1.6
		c1.4,0,2.5,0.3,3.4,1c0.9,0.7,1.3,1.8,1.3,3.3V567.5z M158.2,563.2v-0.5h-2c-1.3,0-1.9,0.4-1.9,1.2c0,0.4,0.1,0.7,0.5,0.9
		c0.3,0.2,0.7,0.3,1.3,0.3c0.6,0,1.1-0.2,1.5-0.5S158.2,563.8,158.2,563.2z"/>
	<path fill="#326DE6" d="M174.6,561.4v6.1h-3.2v-6.2c0-0.9-0.1-1.6-0.4-2s-0.7-0.6-1.3-0.6c-0.6,0-1.1,0.2-1.6,0.7
		c-0.5,0.5-0.7,1.1-0.7,2v6.1h-3.1v-11.3h3.1v1.3c0.9-1,1.9-1.5,3-1.5c0.7,0,1.4,0.2,1.9,0.6c0.6,0.4,1,0.9,1.3,1.5
		c0.4-0.7,1-1.2,1.8-1.6c0.7-0.4,1.5-0.6,2.2-0.6c1.3,0,2.4,0.4,3.2,1.2c0.8,0.8,1.2,1.9,1.2,3.4v6.9h-3.2v-6.2
		c0-1.7-0.6-2.6-1.9-2.6c-0.6,0-1.2,0.2-1.6,0.7C174.8,559.9,174.6,560.5,174.6,561.4z"/>
	<path fill="#326DE6" d="M185.1,554.8c-0.4-0.4-0.5-0.8-0.5-1.3c0-0.5,0.2-1,0.5-1.3c0.4-0.4,0.8-0.5,1.3-0.5s1,0.2,1.3,0.5
		s0.5,0.8,0.5,1.3c0,0.5-0.2,1-0.5,1.3c-0.4,0.4-0.8,0.5-1.3,0.5S185.5,555.1,185.1,554.8z M188,567.5h-3.1v-11.3h3.1V567.5z"/>
	<path fill="#326DE6" d="M196.4,564.9c1,0,2-0.5,2.8-1.6l1.9,2.1c-1.5,1.5-3,2.3-4.7,2.3c-1.7,0-3.1-0.5-4.3-1.6
		c-1.2-1.1-1.8-2.5-1.8-4.2s0.6-3.1,1.8-4.2c1.2-1.1,2.6-1.6,4.2-1.6c0.8,0,1.6,0.2,2.5,0.5c0.8,0.3,1.6,0.8,2.2,1.5l-1.6,2.1
		c-0.4-0.4-0.8-0.8-1.3-1c-0.5-0.2-1-0.4-1.6-0.4c-0.8,0-1.5,0.3-2.1,0.8c-0.6,0.5-0.9,1.3-0.9,2.2c0,1,0.3,1.7,0.9,2.2
		C194.9,564.6,195.6,564.9,196.4,564.9z"/>
	<path fill="#326DE6" d="M212.8,567.5h-3v-1.4c-0.8,1-1.8,1.5-3,1.5c-1.2,0-2.2-0.3-3-1c-0.8-0.7-1.2-1.6-1.2-2.8s0.4-2,1.3-2.6
		c0.8-0.6,2-0.9,3.4-0.9h2.4v-0.1c0-1.2-0.6-1.8-1.9-1.8c-0.5,0-1.1,0.1-1.7,0.3s-1.1,0.5-1.5,0.8l-1.4-2c1.5-1.1,3.2-1.6,5.1-1.6
		c1.4,0,2.5,0.3,3.4,1c0.9,0.7,1.3,1.8,1.3,3.3V567.5z M209.6,563.2v-0.5h-2c-1.3,0-1.9,0.4-1.9,1.2c0,0.4,0.1,0.7,0.5,0.9
		c0.3,0.2,0.7,0.3,1.3,0.3c0.6,0,1.1-0.2,1.5-0.5S209.6,563.8,209.6,563.2z"/>
	<path fill="#326DE6" d="M218.8,567.5h-3.1v-15.6h3.1V567.5z"/>
	<path fill="#326DE6" d="M224.9,567.5h-3.1v-15.6h3.1V567.5z"/>
	<path fill="#326DE6" d="M229.9,572c-1.1,0-2.1-0.4-3.1-1.3l1.4-2.3c0.5,0.5,1.1,0.8,1.6,0.8c0.3,0,0.5-0.1,0.8-0.4
		c0.2-0.3,0.3-0.6,0.3-0.9c0-0.3-1.5-4.2-4.4-11.5h3.4l2.8,7l2.7-7h3.4l-5.2,13.3c-0.3,0.8-0.8,1.4-1.4,1.8
		C231.4,571.7,230.7,572,229.9,572z"/>
	<path fill="#326DE6" d="M257.1,561.9c0,1.6-0.6,3-1.7,4.1c-1.1,1.1-2.6,1.7-4.3,1.7c-1.7,0-3.1-0.6-4.3-1.7
		c-1.1-1.1-1.7-2.5-1.7-4.1c0-1.6,0.6-3,1.7-4.1c1.1-1.1,2.6-1.7,4.3-1.7c1.7,0,3.1,0.6,4.3,1.7
		C256.6,558.8,257.1,560.2,257.1,561.9z M248.4,561.9c0,0.9,0.3,1.7,0.8,2.3c0.5,0.6,1.2,0.9,2,0.9c0.8,0,1.5-0.3,2-0.9
		c0.5-0.6,0.8-1.3,0.8-2.3s-0.3-1.7-0.8-2.3c-0.5-0.6-1.2-0.9-2-0.9c-0.8,0-1.5,0.3-2,0.9S248.4,560.9,248.4,561.9z"/>
	<path fill="#326DE6" d="M262.6,561.2v6.3h-3.1v-11.3h3.1v1.3c1-1,2-1.4,3.2-1.4c1.2,0,2.2,0.4,3,1.3c0.8,0.8,1.2,2,1.2,3.4v6.9
		h-3.1v-6.4c0-1.7-0.6-2.6-1.9-2.6c-0.6,0-1.2,0.2-1.6,0.7C262.8,559.7,262.6,560.3,262.6,561.2z"/>
	<path fill="#326DE6" d="M276.5,558.5v5.1c0,0.4,0.1,0.8,0.3,1c0.2,0.2,0.5,0.4,0.8,0.4c0.6,0,1.1-0.3,1.5-0.8l1.2,2.2
		c-1,0.9-2,1.3-3.1,1.3s-2-0.4-2.7-1.1c-0.7-0.7-1.1-1.7-1.1-2.9v-5.2H272v-2.3h1.3v-3.4h3.2v3.4h2.7v2.3H276.5z"/>
	<path fill="#326DE6" d="M293.1,561.9c0,1.6-0.6,3-1.7,4.1c-1.1,1.1-2.6,1.7-4.3,1.7c-1.7,0-3.1-0.6-4.3-1.7
		c-1.1-1.1-1.7-2.5-1.7-4.1c0-1.6,0.6-3,1.7-4.1c1.1-1.1,2.6-1.7,4.3-1.7c1.7,0,3.1,0.6,4.3,1.7
		C292.5,558.8,293.1,560.2,293.1,561.9z M284.3,561.9c0,0.9,0.3,1.7,0.8,2.3c0.5,0.6,1.2,0.9,2,0.9c0.8,0,1.5-0.3,2-0.9
		c0.5-0.6,0.8-1.3,0.8-2.3s-0.3-1.7-0.8-2.3c-0.5-0.6-1.2-0.9-2-0.9c-0.8,0-1.5,0.3-2,0.9S284.3,560.9,284.3,561.9z"/>
	<path fill="#326DE6" d="M304.1,561.2v6.3H301v-11.3h3.1v1.3c1-1,2-1.4,3.2-1.4c1.2,0,2.2,0.4,3,1.3c0.8,0.8,1.2,2,1.2,3.4v6.9h-3.1
		v-6.4c0-1.7-0.6-2.6-1.9-2.6c-0.6,0-1.2,0.2-1.6,0.7C304.4,559.7,304.1,560.3,304.1,561.2z"/>
	<path fill="#326DE6" d="M325.7,561.9c0,1.6-0.6,3-1.7,4.1c-1.1,1.1-2.6,1.7-4.3,1.7c-1.7,0-3.1-0.6-4.3-1.7
		c-1.1-1.1-1.7-2.5-1.7-4.1c0-1.6,0.6-3,1.7-4.1c1.1-1.1,2.6-1.7,4.3-1.7c1.7,0,3.1,0.6,4.3,1.7
		C325.1,558.8,325.7,560.2,325.7,561.9z M316.9,561.9c0,0.9,0.3,1.7,0.8,2.3c0.5,0.6,1.2,0.9,2,0.9c0.8,0,1.5-0.3,2-0.9
		c0.5-0.6,0.8-1.3,0.8-2.3s-0.3-1.7-0.8-2.3c-0.5-0.6-1.2-0.9-2-0.9c-0.8,0-1.5,0.3-2,0.9S316.9,560.9,316.9,561.9z"/>
	<path fill="#326DE6" d="M332.5,567.7c-1.3,0-2.5-0.6-3.6-1.7c-1-1.1-1.6-2.5-1.6-4.2c0-1.7,0.5-3.1,1.5-4.1c1-1.1,2.2-1.6,3.6-1.6
		c1.4,0,2.5,0.5,3.4,1.4v-5.5h3.1v15.6h-3.1V566C335,567.1,333.9,567.7,332.5,567.7z M330.6,561.9c0,0.9,0.3,1.7,0.8,2.2
		c0.5,0.6,1.2,0.9,1.9,0.9s1.3-0.3,1.9-0.9c0.5-0.6,0.8-1.3,0.8-2.2s-0.3-1.7-0.8-2.3c-0.5-0.6-1.1-0.9-1.9-0.9s-1.4,0.3-1.9,0.9
		C330.8,560.2,330.6,561,330.6,561.9z"/>
	<path fill="#326DE6" d="M351.8,565.9c-1.3,1.2-2.8,1.8-4.5,1.8c-1.7,0-3.1-0.5-4.3-1.6c-1.1-1.1-1.7-2.5-1.7-4.3s0.6-3.2,1.7-4.2
		c1.1-1,2.5-1.6,4-1.6s2.9,0.5,4,1.4c1.1,0.9,1.6,2.2,1.6,3.9v1.7h-8.2c0.1,0.6,0.4,1.1,1,1.5c0.5,0.4,1.2,0.6,1.8,0.6
		c1.1,0,2-0.4,2.7-1.1L351.8,565.9z M348.8,559.2c-0.4-0.4-1-0.5-1.6-0.5c-0.6,0-1.2,0.2-1.7,0.6s-0.8,0.9-0.9,1.5h5
		C349.4,560.1,349.2,559.5,348.8,559.2z"/>
	<path fill="#326DE6" d="M363.5,564c0,1.1-0.4,2-1.2,2.7c-0.8,0.7-1.9,1-3.1,1c-0.8,0-1.7-0.2-2.6-0.5s-1.7-0.7-2.5-1.3l1.4-2
		c1.2,0.9,2.4,1.4,3.8,1.4c0.4,0,0.7-0.1,1-0.2c0.2-0.2,0.4-0.4,0.4-0.6s-0.2-0.5-0.5-0.7c-0.3-0.2-0.8-0.4-1.4-0.6
		c-0.6-0.2-1.1-0.4-1.4-0.5s-0.7-0.3-1.1-0.6c-0.9-0.5-1.3-1.3-1.3-2.4c0-1,0.4-1.9,1.3-2.5c0.8-0.7,1.9-1,3.3-1
		c1.3,0,2.7,0.4,4,1.3l-1.2,2.1c-1-0.7-2-1-2.9-1s-1.5,0.3-1.5,0.8c0,0.3,0.2,0.5,0.5,0.7s0.8,0.4,1.5,0.6c0.7,0.2,1.2,0.4,1.5,0.5
		c0.3,0.1,0.7,0.3,1.1,0.6C363.1,562.1,363.5,562.9,363.5,564z"/>
</g>
<path fill-rule="evenodd" clip-rule="evenodd" fill="none" stroke="#326DE6" stroke-width="2.099" stroke-miterlimit="10" d="
	M82.2,493.2v7.8c0,5.1,4,9.2,8.9,9.2h283.1c4.9,0,8.9-4.1,8.9-9.2v-7.8"/>
<g>
	<path fill="#09C1D1" stroke="#FFFFFF" stroke-width="1.3994" stroke-miterlimit="10" d="M189.4,199.8H129c-0.7,0-1.3-0.6-1.3-1.3
		v-51.7c0-0.7,0.6-1.3,1.3-1.3h60.5c0.7,0,1.3,0.6,1.3,1.3v51.7C190.8,199.2,190.2,199.8,189.4,199.8z"/>
	<path fill="#09C1D1" stroke="#FFFFFF" stroke-width="1.3994" stroke-miterlimit="10" d="M183.8,205.4h-60.5c-0.7,0-1.3-0.6-1.3-1.3
		v-51.7c0-0.7,0.6-1.3,1.3-1.3h60.5c0.7,0,1.3,0.6,1.3,1.3v51.7C185.2,204.8,184.6,205.4,183.8,205.4z"/>
</g>
<g>
	<path fill="#628EDD" stroke="#FFFFFF" stroke-width="1.3994" stroke-miterlimit="10" d="M294,164.5h52.6c0.5,0,0.8,0.4,0.8,0.8
		v22.9c0,0.5-0.4,0.8-0.8,0.8H294c-0.5,0-0.8-0.4-0.8-0.8v-22.9C293.2,164.9,293.5,164.5,294,164.5z"/>
	<path fill="#628EDD" stroke="#FFFFFF" stroke-width="1.3994" stroke-miterlimit="10" d="M288.4,169.7H341c0.5,0,0.8,0.4,0.8,0.8
		v22.9c0,0.5-0.4,0.8-0.8,0.8h-52.6c-0.5,0-0.8-0.4-0.8-0.8v-22.9C287.6,170.1,288,169.7,288.4,169.7z"/>
	<path fill="#628EDD" stroke="#FFFFFF" stroke-width="1.3994" stroke-miterlimit="10" d="M282.8,175.3h52.6c0.5,0,0.8,0.4,0.8,0.8
		V199c0,0.5-0.4,0.8-0.8,0.8h-52.6c-0.5,0-0.8-0.4-0.8-0.8v-22.9C282,175.7,282.4,175.3,282.8,175.3z"/>
	<path fill="#628EDD" stroke="#FFFFFF" stroke-width="1.3994" stroke-miterlimit="10" d="M277.2,180.9h52.6c0.5,0,0.8,0.4,0.8,0.8
		v22.9c0,0.5-0.4,0.8-0.8,0.8h-52.6c-0.5,0-0.8-0.4-0.8-0.8v-22.9C276.4,181.3,276.8,180.9,277.2,180.9z"/>
</g>
<g>
	<path fill="#09C1D1" stroke="#FFFFFF" stroke-width="1.3994" stroke-miterlimit="10" d="M454.4,169.9v23.8c0,0.3-0.2,0.6-0.6,0.6
		h-23.4c-0.3,0-0.6-0.2-0.6-0.6v-23.8c0-0.3,0.2-0.6,0.6-0.6h23.4C454.2,169.3,454.4,169.6,454.4,169.9z"/>
	<path fill="#09C1D1" stroke="#FFFFFF" stroke-width="1.3994" stroke-miterlimit="10" d="M448.8,175.5v23.8c0,0.3-0.2,0.6-0.6,0.6
		h-23.4c-0.3,0-0.6-0.2-0.6-0.6v-23.8c0-0.3,0.2-0.6,0.6-0.6h23.4C448.6,174.9,448.8,175.2,448.8,175.5z"/>
	<path fill="#09C1D1" stroke="#FFFFFF" stroke-width="1.3994" stroke-miterlimit="10" d="M443.2,181.1v23.8c0,0.3-0.2,0.6-0.6,0.6
		h-23.4c-0.3,0-0.6-0.2-0.6-0.6v-23.8c0-0.3,0.2-0.6,0.6-0.6h23.4C443,180.5,443.2,180.8,443.2,181.1z"/>
</g>
<g>
	<path fill="#326DE6" d="M45.7,193.8H21.4c-0.3,0-0.6-0.3-0.6-0.6v-23.4c0-0.3,0.3-0.6,0.6-0.6h24.4c0.3,0,0.6,0.3,0.6,0.6v23.4
		C46.3,193.6,46,193.8,45.7,193.8z"/>
	<path fill="#326DE6" stroke="#FFFFFF" stroke-width="1.3994" stroke-miterlimit="10" d="M41.4,199.4H17c-0.3,0-0.6-0.3-0.6-0.6
		v-23.4c0-0.3,0.3-0.6,0.6-0.6h24.4c0.3,0,0.6,0.3,0.6,0.6v23.4C41.9,199.2,41.7,199.4,41.4,199.4z"/>
	<path fill="#326DE6" stroke="#FFFFFF" stroke-width="1.3994" stroke-miterlimit="10" d="M36.5,205.4H12.1c-0.3,0-0.6-0.3-0.6-0.6
		v-23.4c0-0.3,0.3-0.6,0.6-0.6h24.4c0.3,0,0.6,0.3,0.6,0.6v23.4C37,205.2,36.8,205.4,36.5,205.4z"/>
</g>
<g>
	<polygon fill="#BADBDB" points="161.3,261.6 159.3,263.5 86.6,187.8 83.8,184.9 83.8,129.9 86.6,129.9 86.6,183.7 	"/>
	<g>
		<g>
			
				<rect x="160.4" y="268.5" transform="matrix(0.9955 -9.477451e-002 9.477451e-002 0.9955 -24.8328 16.8389)" fill="#BADBDB" width="8.9" height="2.8"/>
		</g>
		<g>
			<g>
				
					<rect x="166.2" y="262.1" transform="matrix(0.9955 -9.477451e-002 9.477451e-002 0.9955 -24.5041 17.0852)" fill="#BADBDB" width="2.8" height="8.9"/>
			</g>
		</g>
	</g>
</g>
<g>
	<polygon fill="#BADBDB" points="304,261.6 306,263.5 378.7,187.8 381.5,184.9 381.5,129.9 378.7,129.9 378.7,183.7 	"/>
	<g>
		<g>
			
				<rect x="296" y="268.5" transform="matrix(-0.9955 -9.477451e-002 9.477451e-002 -0.9955 574.0027 566.9616)" fill="#BADBDB" width="8.9" height="2.8"/>
		</g>
		<g>
			<g>
				
					<rect x="296.3" y="262.1" transform="matrix(-0.9955 -9.477451e-002 9.477451e-002 -0.9955 568.8168 560.0401)" fill="#BADBDB" width="2.8" height="8.9"/>
			</g>
		</g>
	</g>
</g>
<g>
	
		<rect x="212.3" y="128.3" transform="matrix(0.9483 -0.3173 0.3173 0.9483 -45.5431 76.9984)" fill="#BADBDB" width="2.8" height="100"/>
	<g>
		<g>
			
				<rect x="225.5" y="232" transform="matrix(0.9163 0.4004 -0.4004 0.9163 112.6989 -72.5559)" fill="#BFDEDE" width="8.9" height="2.8"/>
		</g>
		<g>
			<g>
				
					<rect x="232.6" y="227.4" transform="matrix(0.9163 0.4004 -0.4004 0.9163 112.4038 -74.3022)" fill="#BFDEDE" width="2.8" height="8.9"/>
			</g>
		</g>
	</g>
</g>
<g>
	
		<rect x="266.3" y="128.3" transform="matrix(-0.9488 -0.3159 0.3159 -0.9488 465.4059 432.1304)" fill="#BADBDB" width="2.8" height="100"/>
	<g>
		<g>
			
				<rect x="247.1" y="232" transform="matrix(-0.9158 0.4017 -0.4017 -0.9158 575.584 346.1281)" fill="#BFDEDE" width="8.9" height="2.8"/>
		</g>
		<g>
			<g>
				
					<rect x="246.1" y="227.4" transform="matrix(-0.9158 0.4017 -0.4017 -0.9158 567.2253 344.7334)" fill="#BFDEDE" width="2.8" height="8.9"/>
			</g>
		</g>
	</g>
</g>
</svg>
