<?xml version="1.0" encoding="utf-8"?>
<!-- Generator: Adobe Illustrator 18.0.0, SVG Export Plug-In . SVG Version: 6.00 Build 0)  -->
<!DOCTYPE svg PUBLIC "-//W3C//DTD SVG 1.1//EN" "http://www.w3.org/Graphics/SVG/1.1/DTD/svg11.dtd">
<svg version="1.1" xmlns="http://www.w3.org/2000/svg" xmlns:xlink="http://www.w3.org/1999/xlink" x="0px" y="0px"
	 viewBox="0 0 320 342" enable-background="new 0 0 320 342" xml:space="preserve">
<g id="Layer_1">
</g>
<g id="Layer_2">
	<polygon opacity="0.1" fill="#C9E9EC" points="22.6,237.4 118.8,190 130.9,204.8 102.1,237.4 	"/>
	<polygon opacity="0.1" fill="#C9E9EC" points="118.8,237.4 147.8,198.6 172.9,198.6 198.3,237.4 	"/>
	<polygon opacity="0.1" fill="#C9E9EC" points="298.4,237.4 202.3,190 190.2,204.8 218.9,237.4 	"/>
	<g>
		<g>
			
				<rect x="127.3" y="132.3" transform="matrix(0.7902 -0.6128 0.6128 0.7902 -54.7387 106.4223)" fill-rule="evenodd" clip-rule="evenodd" fill="#BFDEDE" width="1.7" height="1.7"/>
			
				<rect x="133.3" y="140.2" transform="matrix(0.7902 -0.6128 0.6128 0.7902 -58.2645 111.7874)" fill-rule="evenodd" clip-rule="evenodd" fill="#BFDEDE" width="1.7" height="1.7"/>
			
				<rect x="131.3" y="137.6" transform="matrix(0.7902 -0.6128 0.6128 0.7902 -57.0892 109.999)" fill-rule="evenodd" clip-rule="evenodd" fill="#BFDEDE" width="1.7" height="1.7"/>
			
				<rect x="129.3" y="135" transform="matrix(0.7902 -0.6128 0.6128 0.7902 -55.914 108.2107)" fill-rule="evenodd" clip-rule="evenodd" fill="#BFDEDE" width="1.7" height="1.7"/>
			
				<rect x="135.4" y="142.8" transform="matrix(0.7902 -0.6128 0.6128 0.7902 -59.4397 113.5758)" fill-rule="evenodd" clip-rule="evenodd" fill="#BFDEDE" width="1.7" height="1.7"/>
		</g>
		<g>
			<g>
				
					<rect x="135.6" y="147.5" transform="matrix(0.9921 0.1255 -0.1255 0.9921 19.7 -16.1683)" fill="#BFDEDE" width="5.3" height="1.7"/>
			</g>
			<g>
				<g>
					
						<rect x="139.4" y="144.1" transform="matrix(0.9921 0.1255 -0.1255 0.9921 19.5194 -16.434)" fill="#BFDEDE" width="1.7" height="5.3"/>
				</g>
			</g>
		</g>
	</g>
	<g>
		<g>
			
				<rect x="198" y="132.3" transform="matrix(-0.7902 -0.6128 0.6128 -0.7902 274.4035 360.2647)" fill-rule="evenodd" clip-rule="evenodd" fill="#BFDEDE" width="1.7" height="1.7"/>
			
				<rect x="192" y="140.2" transform="matrix(-0.7902 -0.6128 0.6128 -0.7902 258.7299 370.5648)" fill-rule="evenodd" clip-rule="evenodd" fill="#BFDEDE" width="1.7" height="1.7"/>
			
				<rect x="194" y="137.6" transform="matrix(-0.7902 -0.6128 0.6128 -0.7902 263.9544 367.1314)" fill-rule="evenodd" clip-rule="evenodd" fill="#BFDEDE" width="1.7" height="1.7"/>
			
				<rect x="196" y="135" transform="matrix(-0.7902 -0.6128 0.6128 -0.7902 269.179 363.6981)" fill-rule="evenodd" clip-rule="evenodd" fill="#BFDEDE" width="1.7" height="1.7"/>
			
				<rect x="189.9" y="142.8" transform="matrix(-0.7902 -0.6128 0.6128 -0.7902 253.5053 373.9982)" fill-rule="evenodd" clip-rule="evenodd" fill="#BFDEDE" width="1.7" height="1.7"/>
		</g>
		<g>
			<g>
				
					<rect x="186.1" y="147.5" transform="matrix(-0.9921 0.1255 -0.1255 -0.9921 394.5876 271.7697)" fill="#BFDEDE" width="5.3" height="1.7"/>
			</g>
			<g>
				<g>
					
						<rect x="185.9" y="144.1" transform="matrix(-0.9921 0.1255 -0.1255 -0.9921 390.3683 268.9035)" fill="#BFDEDE" width="1.7" height="5.3"/>
				</g>
			</g>
		</g>
	</g>
	<g>
		<g>
			<g>
				
					<rect x="74.5" y="215.8" transform="matrix(0.4657 0.8849 -0.8849 0.4657 231.9586 49.0326)" fill-rule="evenodd" clip-rule="evenodd" fill="#BADBDB" width="1.7" height="1.7"/>
				
					<rect x="77.5" y="214.2" transform="matrix(0.4657 0.8849 -0.8849 0.4657 232.159 45.6231)" fill-rule="evenodd" clip-rule="evenodd" fill="#BADBDB" width="1.7" height="1.7"/>
				
					<rect x="71.6" y="217.3" transform="matrix(0.4657 0.8849 -0.8849 0.4657 231.7581 52.442)" fill-rule="evenodd" clip-rule="evenodd" fill="#BADBDB" width="1.7" height="1.7"/>
			</g>
			<g>
				
					<rect x="62.9" y="221.9" transform="matrix(0.4657 0.8849 -0.8849 0.4657 231.1568 62.6702)" fill-rule="evenodd" clip-rule="evenodd" fill="#BADBDB" width="1.7" height="1.7"/>
				
					<rect x="65.8" y="220.4" transform="matrix(0.4657 0.8849 -0.8849 0.4657 231.3572 59.2608)" fill-rule="evenodd" clip-rule="evenodd" fill="#BADBDB" width="1.7" height="1.7"/>
				
					<rect x="68.7" y="218.9" transform="matrix(0.4657 0.8849 -0.8849 0.4657 231.5577 55.8514)" fill-rule="evenodd" clip-rule="evenodd" fill="#BADBDB" width="1.7" height="1.7"/>
				
					<rect x="54.1" y="226.6" transform="matrix(0.4657 0.8849 -0.8849 0.4657 230.5555 72.8984)" fill-rule="evenodd" clip-rule="evenodd" fill="#BADBDB" width="1.7" height="1.7"/>
				
					<rect x="57" y="225" transform="matrix(0.4657 0.8849 -0.8849 0.4657 230.7559 69.489)" fill-rule="evenodd" clip-rule="evenodd" fill="#BADBDB" width="1.7" height="1.7"/>
				
					<rect x="59.9" y="223.5" transform="matrix(0.4657 0.8849 -0.8849 0.4657 230.9564 66.0796)" fill-rule="evenodd" clip-rule="evenodd" fill="#BADBDB" width="1.7" height="1.7"/>
				
					<rect x="51.2" y="228.1" transform="matrix(0.4657 0.8849 -0.8849 0.4657 230.355 76.3078)" fill-rule="evenodd" clip-rule="evenodd" fill="#BADBDB" width="1.7" height="1.7"/>
			</g>
			<g>
				
					<rect x="103.8" y="200.4" transform="matrix(0.4657 0.8849 -0.8849 0.4657 233.963 14.9385)" fill-rule="evenodd" clip-rule="evenodd" fill="#BADBDB" width="1.7" height="1.7"/>
				
					<rect x="106.7" y="198.9" transform="matrix(0.4657 0.8849 -0.8849 0.4657 234.1634 11.5291)" fill-rule="evenodd" clip-rule="evenodd" fill="#BADBDB" width="1.7" height="1.7"/>
				
					<rect x="100.9" y="201.9" transform="matrix(0.4657 0.8849 -0.8849 0.4657 233.7625 18.3479)" fill-rule="evenodd" clip-rule="evenodd" fill="#BADBDB" width="1.7" height="1.7"/>
			</g>
			<g>
				
					<rect x="92.1" y="206.6" transform="matrix(0.4657 0.8849 -0.8849 0.4657 233.1612 28.5761)" fill-rule="evenodd" clip-rule="evenodd" fill="#BADBDB" width="1.7" height="1.7"/>
				
					<rect x="95" y="205" transform="matrix(0.4657 0.8849 -0.8849 0.4657 233.3616 25.1667)" fill-rule="evenodd" clip-rule="evenodd" fill="#BADBDB" width="1.7" height="1.7"/>
				
					<rect x="97.9" y="203.5" transform="matrix(0.4657 0.8849 -0.8849 0.4657 233.5621 21.7573)" fill-rule="evenodd" clip-rule="evenodd" fill="#BADBDB" width="1.7" height="1.7"/>
				
					<rect x="83.3" y="211.2" transform="matrix(0.4657 0.8849 -0.8849 0.4657 232.5599 38.8043)" fill-rule="evenodd" clip-rule="evenodd" fill="#BADBDB" width="1.7" height="1.7"/>
				
					<rect x="86.2" y="209.6" transform="matrix(0.4657 0.8849 -0.8849 0.4657 232.7603 35.3949)" fill-rule="evenodd" clip-rule="evenodd" fill="#BADBDB" width="1.7" height="1.7"/>
				
					<rect x="89.2" y="208.1" transform="matrix(0.4657 0.8849 -0.8849 0.4657 232.9608 31.9855)" fill-rule="evenodd" clip-rule="evenodd" fill="#BADBDB" width="1.7" height="1.7"/>
				
					<rect x="80.4" y="212.7" transform="matrix(0.4657 0.8849 -0.8849 0.4657 232.3594 42.2137)" fill-rule="evenodd" clip-rule="evenodd" fill="#BADBDB" width="1.7" height="1.7"/>
			</g>
			<g>
				<g>
					
						<rect x="44.2" y="229.6" transform="matrix(-0.2967 0.955 -0.955 -0.2967 280.7908 254.0784)" fill="#BADBDB" width="5.3" height="1.7"/>
				</g>
				<g>
					<g>
						
							<rect x="47.2" y="230.1" transform="matrix(-0.2967 0.955 -0.955 -0.2967 284.4929 255.8755)" fill="#BADBDB" width="1.7" height="5.3"/>
					</g>
				</g>
			</g>
		</g>
	</g>
	<g>
		<g>
			<g>
				
					<rect x="81.2" y="154.5" transform="matrix(0.6367 -0.7711 0.7711 0.6367 -89.9725 119.6487)" fill-rule="evenodd" clip-rule="evenodd" fill="#BADBDB" width="1.7" height="1.7"/>
				
					<rect x="78.6" y="152.4" transform="matrix(0.6367 -0.7711 0.7711 0.6367 -89.2762 116.9197)" fill-rule="evenodd" clip-rule="evenodd" fill="#BADBDB" width="1.7" height="1.7"/>
				
					<rect x="83.7" y="156.6" transform="matrix(0.6367 -0.7711 0.7711 0.6367 -90.6689 122.3777)" fill-rule="evenodd" clip-rule="evenodd" fill="#BADBDB" width="1.7" height="1.7"/>
			</g>
			<g>
				
					<rect x="91.3" y="162.9" transform="matrix(0.6367 -0.7711 0.7711 0.6367 -92.7579 130.5648)" fill-rule="evenodd" clip-rule="evenodd" fill="#BADBDB" width="1.7" height="1.7"/>
				
					<rect x="88.8" y="160.8" transform="matrix(0.6367 -0.7711 0.7711 0.6367 -92.0616 127.8358)" fill-rule="evenodd" clip-rule="evenodd" fill="#BADBDB" width="1.7" height="1.7"/>
				
					<rect x="86.3" y="158.7" transform="matrix(0.6367 -0.7711 0.7711 0.6367 -91.3652 125.1068)" fill-rule="evenodd" clip-rule="evenodd" fill="#BADBDB" width="1.7" height="1.7"/>
				
					<rect x="99" y="169.2" transform="matrix(0.6367 -0.7711 0.7711 0.6367 -94.8469 138.7518)" fill-rule="evenodd" clip-rule="evenodd" fill="#BADBDB" width="1.7" height="1.7"/>
				
					<rect x="96.4" y="167.1" transform="matrix(0.6367 -0.7711 0.7711 0.6367 -94.1506 136.0228)" fill-rule="evenodd" clip-rule="evenodd" fill="#BADBDB" width="1.7" height="1.7"/>
				
					<rect x="93.9" y="165" transform="matrix(0.6367 -0.7711 0.7711 0.6367 -93.4543 133.2938)" fill-rule="evenodd" clip-rule="evenodd" fill="#BADBDB" width="1.7" height="1.7"/>
				
					<rect x="101.5" y="171.3" transform="matrix(0.6367 -0.7711 0.7711 0.6367 -95.5433 141.4809)" fill-rule="evenodd" clip-rule="evenodd" fill="#BADBDB" width="1.7" height="1.7"/>
			</g>
			<g>
				
					<rect x="55.7" y="133.4" transform="matrix(0.6367 -0.7711 0.7711 0.6367 -83.0091 92.3585)" fill-rule="evenodd" clip-rule="evenodd" fill="#BADBDB" width="1.7" height="1.7"/>
				
					<rect x="53.1" y="131.3" transform="matrix(0.6367 -0.7711 0.7711 0.6367 -82.3127 89.6295)" fill-rule="evenodd" clip-rule="evenodd" fill="#BADBDB" width="1.7" height="1.7"/>
				
					<rect x="58.2" y="135.5" transform="matrix(0.6367 -0.7711 0.7711 0.6367 -83.7054 95.0875)" fill-rule="evenodd" clip-rule="evenodd" fill="#BADBDB" width="1.7" height="1.7"/>
			</g>
			<g>
				
					<rect x="65.9" y="141.9" transform="matrix(0.6367 -0.7711 0.7711 0.6367 -85.7945 103.2746)" fill-rule="evenodd" clip-rule="evenodd" fill="#BADBDB" width="1.7" height="1.7"/>
				
					<rect x="63.3" y="139.8" transform="matrix(0.6367 -0.7711 0.7711 0.6367 -85.0981 100.5456)" fill-rule="evenodd" clip-rule="evenodd" fill="#BADBDB" width="1.7" height="1.7"/>
				
					<rect x="60.8" y="137.6" transform="matrix(0.6367 -0.7711 0.7711 0.6367 -84.4018 97.8166)" fill-rule="evenodd" clip-rule="evenodd" fill="#BADBDB" width="1.7" height="1.7"/>
				
					<rect x="73.5" y="148.2" transform="matrix(0.6367 -0.7711 0.7711 0.6367 -87.8835 111.4617)" fill-rule="evenodd" clip-rule="evenodd" fill="#BADBDB" width="1.7" height="1.7"/>
				
					<rect x="71" y="146.1" transform="matrix(0.6367 -0.7711 0.7711 0.6367 -87.1872 108.7326)" fill-rule="evenodd" clip-rule="evenodd" fill="#BADBDB" width="1.7" height="1.7"/>
				
					<rect x="68.4" y="144" transform="matrix(0.6367 -0.7711 0.7711 0.6367 -86.4908 106.0036)" fill-rule="evenodd" clip-rule="evenodd" fill="#BADBDB" width="1.7" height="1.7"/>
				
					<rect x="76.1" y="150.3" transform="matrix(0.6367 -0.7711 0.7711 0.6367 -88.5798 114.1907)" fill-rule="evenodd" clip-rule="evenodd" fill="#BADBDB" width="1.7" height="1.7"/>
			</g>
			<g>
				<g>
					
						<rect x="103.1" y="175.5" transform="matrix(0.9955 -9.477451e-002 9.477451e-002 0.9955 -16.232 10.815)" fill="#BADBDB" width="5.3" height="1.7"/>
				</g>
				<g>
					<g>
						
							<rect x="106.5" y="171.7" transform="matrix(0.9955 -9.477451e-002 9.477451e-002 0.9955 -16.038 10.9604)" fill="#BADBDB" width="1.7" height="5.3"/>
					</g>
				</g>
			</g>
		</g>
	</g>
	<g>
		<g>
			<g>
				
					<rect x="236.2" y="154.5" transform="matrix(-0.6367 -0.7711 0.7711 -0.6367 268.1472 436.9467)" fill-rule="evenodd" clip-rule="evenodd" fill="#BADBDB" width="1.7" height="1.7"/>
				
					<rect x="238.7" y="152.4" transform="matrix(-0.6367 -0.7711 0.7711 -0.6367 273.9392 435.4688)" fill-rule="evenodd" clip-rule="evenodd" fill="#BADBDB" width="1.7" height="1.7"/>
				
					<rect x="233.6" y="156.6" transform="matrix(-0.6367 -0.7711 0.7711 -0.6367 262.3552 438.4247)" fill-rule="evenodd" clip-rule="evenodd" fill="#BADBDB" width="1.7" height="1.7"/>
			</g>
			<g>
				
					<rect x="226" y="162.9" transform="matrix(-0.6367 -0.7711 0.7711 -0.6367 244.9793 442.8583)" fill-rule="evenodd" clip-rule="evenodd" fill="#BADBDB" width="1.7" height="1.7"/>
				
					<rect x="228.5" y="160.8" transform="matrix(-0.6367 -0.7711 0.7711 -0.6367 250.7713 441.3804)" fill-rule="evenodd" clip-rule="evenodd" fill="#BADBDB" width="1.7" height="1.7"/>
				
					<rect x="231.1" y="158.7" transform="matrix(-0.6367 -0.7711 0.7711 -0.6367 256.5633 439.9026)" fill-rule="evenodd" clip-rule="evenodd" fill="#BADBDB" width="1.7" height="1.7"/>
				
					<rect x="218.4" y="169.2" transform="matrix(-0.6367 -0.7711 0.7711 -0.6367 227.6034 447.292)" fill-rule="evenodd" clip-rule="evenodd" fill="#BADBDB" width="1.7" height="1.7"/>
				
					<rect x="220.9" y="167.1" transform="matrix(-0.6367 -0.7711 0.7711 -0.6367 233.3954 445.8141)" fill-rule="evenodd" clip-rule="evenodd" fill="#BADBDB" width="1.7" height="1.7"/>
				
					<rect x="223.4" y="165" transform="matrix(-0.6367 -0.7711 0.7711 -0.6367 239.1873 444.3362)" fill-rule="evenodd" clip-rule="evenodd" fill="#BADBDB" width="1.7" height="1.7"/>
				
					<rect x="215.8" y="171.3" transform="matrix(-0.6367 -0.7711 0.7711 -0.6367 221.8114 448.77)" fill-rule="evenodd" clip-rule="evenodd" fill="#BADBDB" width="1.7" height="1.7"/>
			</g>
			<g>
				
					<rect x="261.7" y="133.4" transform="matrix(-0.6367 -0.7711 0.7711 -0.6367 326.0669 422.1678)" fill-rule="evenodd" clip-rule="evenodd" fill="#BADBDB" width="1.7" height="1.7"/>
				
					<rect x="264.2" y="131.3" transform="matrix(-0.6367 -0.7711 0.7711 -0.6367 331.8589 420.6899)" fill-rule="evenodd" clip-rule="evenodd" fill="#BADBDB" width="1.7" height="1.7"/>
				
					<rect x="259.1" y="135.5" transform="matrix(-0.6367 -0.7711 0.7711 -0.6367 320.2749 423.6457)" fill-rule="evenodd" clip-rule="evenodd" fill="#BADBDB" width="1.7" height="1.7"/>
			</g>
			<g>
				
					<rect x="251.5" y="141.9" transform="matrix(-0.6367 -0.7711 0.7711 -0.6367 302.899 428.0793)" fill-rule="evenodd" clip-rule="evenodd" fill="#BADBDB" width="1.7" height="1.7"/>
				
					<rect x="254" y="139.8" transform="matrix(-0.6367 -0.7711 0.7711 -0.6367 308.6909 426.6015)" fill-rule="evenodd" clip-rule="evenodd" fill="#BADBDB" width="1.7" height="1.7"/>
				
					<rect x="256.6" y="137.6" transform="matrix(-0.6367 -0.7711 0.7711 -0.6367 314.483 425.1236)" fill-rule="evenodd" clip-rule="evenodd" fill="#BADBDB" width="1.7" height="1.7"/>
				
					<rect x="243.8" y="148.2" transform="matrix(-0.6367 -0.7711 0.7711 -0.6367 285.5231 432.5131)" fill-rule="evenodd" clip-rule="evenodd" fill="#BADBDB" width="1.7" height="1.7"/>
				
					<rect x="246.4" y="146.1" transform="matrix(-0.6367 -0.7711 0.7711 -0.6367 291.3151 431.0352)" fill-rule="evenodd" clip-rule="evenodd" fill="#BADBDB" width="1.7" height="1.7"/>
				
					<rect x="248.9" y="144" transform="matrix(-0.6367 -0.7711 0.7711 -0.6367 297.107 429.5573)" fill-rule="evenodd" clip-rule="evenodd" fill="#BADBDB" width="1.7" height="1.7"/>
				
					<rect x="241.3" y="150.3" transform="matrix(-0.6367 -0.7711 0.7711 -0.6367 279.7311 433.9909)" fill-rule="evenodd" clip-rule="evenodd" fill="#BADBDB" width="1.7" height="1.7"/>
			</g>
			<g>
				<g>
					
						<rect x="210.6" y="175.5" transform="matrix(-0.9955 -9.477451e-002 9.477451e-002 -0.9955 408.8418 372.002)" fill="#BADBDB" width="5.3" height="1.7"/>
				</g>
				<g>
					<g>
						
							<rect x="210.8" y="171.7" transform="matrix(-0.9955 -9.477451e-002 9.477451e-002 -0.9955 405.7808 367.9166)" fill="#BADBDB" width="1.7" height="5.3"/>
					</g>
				</g>
			</g>
		</g>
	</g>
	<g>
		<g>
			<g>
				
					<rect x="117.7" y="210.3" transform="matrix(0.732 0.6813 -0.6813 0.732 175.596 -24.193)" fill-rule="evenodd" clip-rule="evenodd" fill="#BADBDB" width="1.7" height="1.7"/>
			</g>
			<g>
				
					<rect x="111" y="217.5" transform="matrix(0.732 0.6813 -0.6813 0.732 178.7295 -17.648)" fill-rule="evenodd" clip-rule="evenodd" fill="#BADBDB" width="1.7" height="1.7"/>
				
					<rect x="113.2" y="215.1" transform="matrix(0.732 0.6813 -0.6813 0.732 177.685 -19.8296)" fill-rule="evenodd" clip-rule="evenodd" fill="#BADBDB" width="1.7" height="1.7"/>
				
					<rect x="115.5" y="212.7" transform="matrix(0.732 0.6813 -0.6813 0.732 176.6405 -22.0113)" fill-rule="evenodd" clip-rule="evenodd" fill="#BADBDB" width="1.7" height="1.7"/>
				
					<rect x="104.2" y="224.8" transform="matrix(0.732 0.6813 -0.6813 0.732 181.8629 -11.1029)" fill-rule="evenodd" clip-rule="evenodd" fill="#BADBDB" width="1.7" height="1.7"/>
				
					<rect x="106.5" y="222.4" transform="matrix(0.732 0.6813 -0.6813 0.732 180.8184 -13.2846)" fill-rule="evenodd" clip-rule="evenodd" fill="#BADBDB" width="1.7" height="1.7"/>
				
					<rect x="108.7" y="220" transform="matrix(0.732 0.6813 -0.6813 0.732 179.7739 -15.4663)" fill-rule="evenodd" clip-rule="evenodd" fill="#BADBDB" width="1.7" height="1.7"/>
				
					<rect x="102" y="227.2" transform="matrix(0.732 0.6813 -0.6813 0.732 182.9074 -8.9213)" fill-rule="evenodd" clip-rule="evenodd" fill="#BADBDB" width="1.7" height="1.7"/>
			</g>
			<g>
				<g>
					
						<rect x="95.9" y="230" transform="matrix(3.586436e-002 0.9994 -0.9994 3.586436e-002 325.596 124.0985)" fill="#BADBDB" width="5.3" height="1.7"/>
				</g>
				<g>
					<g>
						
							<rect x="99.5" y="229.9" transform="matrix(3.586436e-002 0.9994 -0.9994 3.586436e-002 329.1393 123.9076)" fill="#BADBDB" width="1.7" height="5.3"/>
					</g>
				</g>
			</g>
		</g>
	</g>
	<g>
		<g>
			<g>
				
					<rect x="245.3" y="215.8" transform="matrix(-0.4657 0.8849 -0.8849 -0.4657 552.4001 99.716)" fill-rule="evenodd" clip-rule="evenodd" fill="#BADBDB" width="1.7" height="1.7"/>
				
					<rect x="242.3" y="214.2" transform="matrix(-0.4657 0.8849 -0.8849 -0.4657 546.753 100.048)" fill-rule="evenodd" clip-rule="evenodd" fill="#BADBDB" width="1.7" height="1.7"/>
				
					<rect x="248.2" y="217.3" transform="matrix(-0.4657 0.8849 -0.8849 -0.4657 558.0471 99.384)" fill-rule="evenodd" clip-rule="evenodd" fill="#BADBDB" width="1.7" height="1.7"/>
			</g>
			<g>
				
					<rect x="257" y="221.9" transform="matrix(-0.4657 0.8849 -0.8849 -0.4657 574.9882 98.388)" fill-rule="evenodd" clip-rule="evenodd" fill="#BADBDB" width="1.7" height="1.7"/>
				
					<rect x="254" y="220.4" transform="matrix(-0.4657 0.8849 -0.8849 -0.4657 569.3412 98.72)" fill-rule="evenodd" clip-rule="evenodd" fill="#BADBDB" width="1.7" height="1.7"/>
				
					<rect x="251.1" y="218.9" transform="matrix(-0.4657 0.8849 -0.8849 -0.4657 563.6942 99.052)" fill-rule="evenodd" clip-rule="evenodd" fill="#BADBDB" width="1.7" height="1.7"/>
				
					<rect x="265.7" y="226.6" transform="matrix(-0.4657 0.8849 -0.8849 -0.4657 591.9293 97.392)" fill-rule="evenodd" clip-rule="evenodd" fill="#BADBDB" width="1.7" height="1.7"/>
				
					<rect x="262.8" y="225" transform="matrix(-0.4657 0.8849 -0.8849 -0.4657 586.2823 97.724)" fill-rule="evenodd" clip-rule="evenodd" fill="#BADBDB" width="1.7" height="1.7"/>
				
					<rect x="259.9" y="223.5" transform="matrix(-0.4657 0.8849 -0.8849 -0.4657 580.6353 98.056)" fill-rule="evenodd" clip-rule="evenodd" fill="#BADBDB" width="1.7" height="1.7"/>
				
					<rect x="268.7" y="228.1" transform="matrix(-0.4657 0.8849 -0.8849 -0.4657 597.5764 97.0601)" fill-rule="evenodd" clip-rule="evenodd" fill="#BADBDB" width="1.7" height="1.7"/>
			</g>
			<g>
				
					<rect x="216" y="200.4" transform="matrix(-0.4657 0.8849 -0.8849 -0.4657 495.9297 103.0359)" fill-rule="evenodd" clip-rule="evenodd" fill="#BADBDB" width="1.7" height="1.7"/>
				
					<rect x="213.1" y="198.9" transform="matrix(-0.4657 0.8849 -0.8849 -0.4657 490.2826 103.3679)" fill-rule="evenodd" clip-rule="evenodd" fill="#BADBDB" width="1.7" height="1.7"/>
				
					<rect x="219" y="201.9" transform="matrix(-0.4657 0.8849 -0.8849 -0.4657 501.5767 102.7039)" fill-rule="evenodd" clip-rule="evenodd" fill="#BADBDB" width="1.7" height="1.7"/>
			</g>
			<g>
				
					<rect x="227.7" y="206.6" transform="matrix(-0.4657 0.8849 -0.8849 -0.4657 518.5178 101.708)" fill-rule="evenodd" clip-rule="evenodd" fill="#BADBDB" width="1.7" height="1.7"/>
				
					<rect x="224.8" y="205" transform="matrix(-0.4657 0.8849 -0.8849 -0.4657 512.8708 102.0399)" fill-rule="evenodd" clip-rule="evenodd" fill="#BADBDB" width="1.7" height="1.7"/>
				
					<rect x="221.9" y="203.5" transform="matrix(-0.4657 0.8849 -0.8849 -0.4657 507.2238 102.372)" fill-rule="evenodd" clip-rule="evenodd" fill="#BADBDB" width="1.7" height="1.7"/>
				
					<rect x="236.5" y="211.2" transform="matrix(-0.4657 0.8849 -0.8849 -0.4657 535.4589 100.712)" fill-rule="evenodd" clip-rule="evenodd" fill="#BADBDB" width="1.7" height="1.7"/>
				
					<rect x="233.6" y="209.6" transform="matrix(-0.4657 0.8849 -0.8849 -0.4657 529.8119 101.044)" fill-rule="evenodd" clip-rule="evenodd" fill="#BADBDB" width="1.7" height="1.7"/>
				
					<rect x="230.7" y="208.1" transform="matrix(-0.4657 0.8849 -0.8849 -0.4657 524.1649 101.376)" fill-rule="evenodd" clip-rule="evenodd" fill="#BADBDB" width="1.7" height="1.7"/>
				
					<rect x="239.4" y="212.7" transform="matrix(-0.4657 0.8849 -0.8849 -0.4657 541.106 100.38)" fill-rule="evenodd" clip-rule="evenodd" fill="#BADBDB" width="1.7" height="1.7"/>
			</g>
			<g>
				<g>
					
						<rect x="272" y="229.6" transform="matrix(0.2967 0.955 -0.955 0.2967 413.1893 -100.2084)" fill="#BADBDB" width="5.3" height="1.7"/>
				</g>
				<g>
					<g>
						
							<rect x="272.6" y="230.1" transform="matrix(0.2967 0.955 -0.955 0.2967 414.5128 -97.482)" fill="#BADBDB" width="1.7" height="5.3"/>
					</g>
				</g>
			</g>
		</g>
	</g>
	<g>
		<g>
			<g>
				
					<rect x="202.1" y="210.3" transform="matrix(-0.732 0.6813 -0.6813 -0.732 495.2869 227.3927)" fill-rule="evenodd" clip-rule="evenodd" fill="#BADBDB" width="1.7" height="1.7"/>
			</g>
			<g>
				
					<rect x="208.8" y="217.5" transform="matrix(-0.732 0.6813 -0.6813 -0.732 511.9259 235.3587)" fill-rule="evenodd" clip-rule="evenodd" fill="#BADBDB" width="1.7" height="1.7"/>
				
					<rect x="206.6" y="215.1" transform="matrix(-0.732 0.6813 -0.6813 -0.732 506.3796 232.7034)" fill-rule="evenodd" clip-rule="evenodd" fill="#BADBDB" width="1.7" height="1.7"/>
				
					<rect x="204.3" y="212.7" transform="matrix(-0.732 0.6813 -0.6813 -0.732 500.8332 230.048)" fill-rule="evenodd" clip-rule="evenodd" fill="#BADBDB" width="1.7" height="1.7"/>
				
					<rect x="215.6" y="224.8" transform="matrix(-0.732 0.6813 -0.6813 -0.732 528.565 243.3247)" fill-rule="evenodd" clip-rule="evenodd" fill="#BADBDB" width="1.7" height="1.7"/>
				
					<rect x="213.3" y="222.4" transform="matrix(-0.732 0.6813 -0.6813 -0.732 523.0186 240.6694)" fill-rule="evenodd" clip-rule="evenodd" fill="#BADBDB" width="1.7" height="1.7"/>
				
					<rect x="211.1" y="220" transform="matrix(-0.732 0.6813 -0.6813 -0.732 517.4723 238.014)" fill-rule="evenodd" clip-rule="evenodd" fill="#BADBDB" width="1.7" height="1.7"/>
				
					<rect x="217.9" y="227.2" transform="matrix(-0.732 0.6813 -0.6813 -0.732 534.1113 245.9801)" fill-rule="evenodd" clip-rule="evenodd" fill="#BADBDB" width="1.7" height="1.7"/>
			</g>
			<g>
				<g>
					
						<rect x="220.4" y="230" transform="matrix(-3.586433e-002 0.9994 -0.9994 -3.586433e-002 461.6322 16.2263)" fill="#BADBDB" width="5.3" height="1.7"/>
				</g>
				<g>
					<g>
						
							<rect x="220.3" y="229.9" transform="matrix(-3.586433e-002 0.9994 -0.9994 -3.586433e-002 461.4344 19.8991)" fill="#BADBDB" width="1.7" height="5.3"/>
					</g>
				</g>
			</g>
		</g>
	</g>
	<g>
		<g>
			<g>
				
					<rect x="170.4" y="204.9" transform="matrix(-0.8297 0.5581 -0.5581 -0.8297 428.1153 280.8393)" fill-rule="evenodd" clip-rule="evenodd" fill="#BADBDB" width="1.7" height="1.7"/>
				
					<rect x="168.6" y="202.1" transform="matrix(-0.8297 0.5581 -0.5581 -0.8297 423.211 276.8525)" fill-rule="evenodd" clip-rule="evenodd" fill="#BADBDB" width="1.7" height="1.7"/>
				
					<rect x="172.2" y="207.6" transform="matrix(-0.8297 0.5581 -0.5581 -0.8297 433.0196 284.8261)" fill-rule="evenodd" clip-rule="evenodd" fill="#BADBDB" width="1.7" height="1.7"/>
			</g>
			<g>
				
					<rect x="177.8" y="215.9" transform="matrix(-0.8297 0.5581 -0.5581 -0.8297 447.7324 296.7866)" fill-rule="evenodd" clip-rule="evenodd" fill="#BADBDB" width="1.7" height="1.7"/>
				
					<rect x="175.9" y="213.1" transform="matrix(-0.8297 0.5581 -0.5581 -0.8297 442.8281 292.7998)" fill-rule="evenodd" clip-rule="evenodd" fill="#BADBDB" width="1.7" height="1.7"/>
				
					<rect x="183.3" y="224.1" transform="matrix(-0.8297 0.5581 -0.5581 -0.8297 462.4452 308.7471)" fill-rule="evenodd" clip-rule="evenodd" fill="#BADBDB" width="1.7" height="1.7"/>
				
					<rect x="181.5" y="221.3" transform="matrix(-0.8297 0.5581 -0.5581 -0.8297 457.5409 304.7602)" fill-rule="evenodd" clip-rule="evenodd" fill="#BADBDB" width="1.7" height="1.7"/>
				
					<rect x="179.6" y="218.6" transform="matrix(-0.8297 0.5581 -0.5581 -0.8297 452.6366 300.7734)" fill-rule="evenodd" clip-rule="evenodd" fill="#BADBDB" width="1.7" height="1.7"/>
				
					<rect x="185.2" y="226.8" transform="matrix(-0.8297 0.5581 -0.5581 -0.8297 467.3494 312.7339)" fill-rule="evenodd" clip-rule="evenodd" fill="#BADBDB" width="1.7" height="1.7"/>
			</g>
			<g>
				<g>
					
						<rect x="187.2" y="230.2" transform="matrix(-0.192 0.9814 -0.9814 -0.192 452.9995 89.1486)" fill="#BADBDB" width="5.3" height="1.7"/>
				</g>
				<g>
					<g>
						
							<rect x="186.9" y="229.8" transform="matrix(-0.192 0.9814 -0.9814 -0.192 451.8717 92.9296)" fill="#BADBDB" width="1.7" height="5.3"/>
					</g>
				</g>
			</g>
		</g>
	</g>
	<g>
		<g>
			<g>
				
					<rect x="146" y="204.9" transform="matrix(0.8297 0.5581 -0.5581 0.8297 139.8175 -46.9273)" fill-rule="evenodd" clip-rule="evenodd" fill="#BADBDB" width="1.7" height="1.7"/>
				
					<rect x="147.8" y="202.1" transform="matrix(0.8297 0.5581 -0.5581 0.8297 138.6014 -48.4233)" fill-rule="evenodd" clip-rule="evenodd" fill="#BADBDB" width="1.7" height="1.7"/>
				
					<rect x="144.2" y="207.6" transform="matrix(0.8297 0.5581 -0.5581 0.8297 141.0336 -45.4313)" fill-rule="evenodd" clip-rule="evenodd" fill="#BADBDB" width="1.7" height="1.7"/>
			</g>
			<g>
				
					<rect x="138.6" y="215.9" transform="matrix(0.8297 0.5581 -0.5581 0.8297 144.6821 -40.9433)" fill-rule="evenodd" clip-rule="evenodd" fill="#BADBDB" width="1.7" height="1.7"/>
				
					<rect x="140.5" y="213.1" transform="matrix(0.8297 0.5581 -0.5581 0.8297 143.4659 -42.4393)" fill-rule="evenodd" clip-rule="evenodd" fill="#BADBDB" width="1.7" height="1.7"/>
				
					<rect x="133.1" y="224.1" transform="matrix(0.8297 0.5581 -0.5581 0.8297 148.3305 -36.4553)" fill-rule="evenodd" clip-rule="evenodd" fill="#BADBDB" width="1.7" height="1.7"/>
				
					<rect x="134.9" y="221.3" transform="matrix(0.8297 0.5581 -0.5581 0.8297 147.1143 -37.9513)" fill-rule="evenodd" clip-rule="evenodd" fill="#BADBDB" width="1.7" height="1.7"/>
				
					<rect x="136.8" y="218.6" transform="matrix(0.8297 0.5581 -0.5581 0.8297 145.8982 -39.4473)" fill-rule="evenodd" clip-rule="evenodd" fill="#BADBDB" width="1.7" height="1.7"/>
				
					<rect x="131.3" y="226.8" transform="matrix(0.8297 0.5581 -0.5581 0.8297 149.5466 -34.9593)" fill-rule="evenodd" clip-rule="evenodd" fill="#BADBDB" width="1.7" height="1.7"/>
			</g>
			<g>
				<g>
					
						<rect x="125.6" y="230.2" transform="matrix(0.1921 0.9814 -0.9814 0.1921 330.3646 60.8109)" fill="#BADBDB" width="5.3" height="1.7"/>
				</g>
				<g>
					<g>
						
							<rect x="129.5" y="229.8" transform="matrix(0.1921 0.9814 -0.9814 0.1921 333.4774 59.8825)" fill="#BADBDB" width="1.7" height="5.3"/>
					</g>
				</g>
			</g>
		</g>
	</g>
	<path fill="#E6F4F5" d="M197.4,287.8h-78.1c-0.8,0-1.4-0.6-1.4-1.4v-47.5c0-0.8,0.6-1.4,1.4-1.4h78.1c0.8,0,1.4,0.6,1.4,1.4v47.5
		C198.9,287.1,198.2,287.8,197.4,287.8z"/>
	<path fill="#E6F4F5" d="M100.7,287.8H22.6c-0.8,0-1.4-0.6-1.4-1.4v-47.5c0-0.8,0.6-1.4,1.4-1.4h78.1c0.8,0,1.4,0.6,1.4,1.4v47.5
		C102.1,287.1,101.5,287.8,100.7,287.8z"/>
	<path fill="#09C1D1" d="M61.6,283.9H25.9c-0.4,0-0.8-0.3-0.8-0.8v-30.5c0-0.4,0.3-0.8,0.8-0.8h35.7c0.4,0,0.8,0.3,0.8,0.8v30.5
		C62.4,283.5,62,283.9,61.6,283.9z"/>
	<path fill="#326DE6" d="M80.1,266.3H65.7c-0.2,0-0.3-0.1-0.3-0.3v-13.8c0-0.2,0.1-0.3,0.3-0.3h14.4c0.2,0,0.3,0.1,0.3,0.3V266
		C80.5,266.2,80.3,266.3,80.1,266.3z"/>
	<path fill="#BADBDB" d="M78.9,73.2H64.5c-0.2,0-0.3-0.1-0.3-0.3V59.1c0-0.2,0.1-0.3,0.3-0.3h14.4c0.2,0,0.3,0.1,0.3,0.3v13.8
		C79.2,73.1,79,73.2,78.9,73.2z"/>
	<path fill="#09C1D1" d="M97.9,266.3H83.5c-0.2,0-0.3-0.1-0.3-0.3v-13.8c0-0.2,0.1-0.3,0.3-0.3h14.4c0.2,0,0.3,0.1,0.3,0.3V266
		C98.2,266.2,98,266.3,97.9,266.3z"/>
	<path fill="#09C1D1" d="M136.6,283.9h-14.4c-0.2,0-0.3-0.1-0.3-0.3v-13.8c0-0.2,0.1-0.3,0.3-0.3h14.4c0.2,0,0.3,0.1,0.3,0.3v13.8
		C136.9,283.7,136.7,283.9,136.6,283.9z"/>
	<path fill="#326DE6" d="M154.3,283.9h-14.4c-0.2,0-0.3-0.1-0.3-0.3v-13.8c0-0.2,0.1-0.3,0.3-0.3h14.4c0.2,0,0.3,0.1,0.3,0.3v13.8
		C154.6,283.7,154.5,283.9,154.3,283.9z"/>
	<path fill="#628EDD" d="M97.7,283.9H65.9c-0.3,0-0.5-0.2-0.5-0.5v-13.5c0-0.3,0.2-0.5,0.5-0.5h31.8c0.3,0,0.5,0.2,0.5,0.5v13.5
		C98.2,283.7,98,283.9,97.7,283.9z"/>
	<path fill="#09C1D1" d="M194.2,283.9h-35.7c-0.4,0-0.8-0.3-0.8-0.8v-30.5c0-0.4,0.3-0.8,0.8-0.8h35.7c0.4,0,0.8,0.3,0.8,0.8v30.5
		C194.9,283.5,194.6,283.9,194.2,283.9z"/>
	<path fill="#BADBDB" d="M144.1,74.9h-31.7c-0.4,0-0.8-0.3-0.8-0.8v-24c0-0.4,0.3-0.8,0.8-0.8h31.7c0.4,0,0.8,0.3,0.8,0.8v24
		C144.9,74.5,144.5,74.9,144.1,74.9z"/>
	<path fill="#628EDD" d="M154.1,266.3h-31.8c-0.3,0-0.5-0.2-0.5-0.5v-13.5c0-0.3,0.2-0.5,0.5-0.5h31.8c0.3,0,0.5,0.2,0.5,0.5v13.5
		C154.6,266.1,154.4,266.3,154.1,266.3z"/>
	<path fill="#E6F4F5" d="M297.7,287.8h-78.1c-0.8,0-1.4-0.6-1.4-1.4v-47.5c0-0.8,0.6-1.4,1.4-1.4h78.1c0.8,0,1.4,0.6,1.4,1.4v47.5
		C299.1,287.1,298.5,287.8,297.7,287.8z"/>
	<path fill="#628EDD" d="M272.1,283.9h-31c-0.3,0-0.5-0.2-0.5-0.5v-13.5c0-0.3,0.2-0.5,0.5-0.5h31c0.3,0,0.5,0.2,0.5,0.5v13.5
		C272.6,283.7,272.4,283.9,272.1,283.9z"/>
	<path fill="#628EDD" d="M272.1,266.3h-31c-0.3,0-0.5-0.2-0.5-0.5v-13.5c0-0.3,0.2-0.5,0.5-0.5h31c0.3,0,0.5,0.2,0.5,0.5v13.5
		C272.6,266.1,272.4,266.3,272.1,266.3z"/>
	<path fill="#BADBDB" d="M171.9,57.1h31c0.3,0,0.5,0.2,0.5,0.5v13.5c0,0.3-0.2,0.5-0.5,0.5h-31c-0.3,0-0.5-0.2-0.5-0.5V57.6
		C171.4,57.3,171.6,57.1,171.9,57.1z"/>
	<path fill="#326DE6" d="M236.9,269.5v14.1c0,0.2-0.1,0.3-0.3,0.3h-13.8c-0.2,0-0.3-0.1-0.3-0.3v-14.1c0-0.2,0.1-0.3,0.3-0.3h13.8
		C236.7,269.2,236.9,269.3,236.9,269.5z"/>
	<path fill="#09C1D1" d="M236.9,252.2v14.1c0,0.2-0.1,0.3-0.3,0.3h-13.8c-0.2,0-0.3-0.1-0.3-0.3v-14.1c0-0.2,0.1-0.3,0.3-0.3h13.8
		C236.7,251.8,236.9,252,236.9,252.2z"/>
	<path fill="#BADBDB" d="M252.9,58v14.1c0,0.2-0.1,0.3-0.3,0.3h-13.8c-0.2,0-0.3-0.1-0.3-0.3V58c0-0.2,0.1-0.3,0.3-0.3h13.8
		C252.7,57.7,252.9,57.8,252.9,58z"/>
	<path fill="#326DE6" d="M79.1,233.3h-3.3c0,0-0.1,0-0.1-0.1v-3.1c0,0,0-0.1,0.1-0.1h3.3c0,0,0.1,0,0.1,0.1L79.1,233.3
		C79.2,233.2,79.2,233.3,79.1,233.3z"/>
	<path fill="#09C1D1" d="M209.3,207.1h-3.3c0,0-0.1,0-0.1-0.1v-3.1c0,0,0-0.1,0.1-0.1h3.3c0,0,0.1,0,0.1,0.1L209.3,207.1
		C209.4,207,209.4,207.1,209.3,207.1z"/>
	<path fill="#09C1D1" d="M112,208.7h-3.3c0,0-0.1,0-0.1-0.1v-3.1c0,0,0-0.1,0.1-0.1h3.3c0,0,0.1,0,0.1,0.1L112,208.7
		C112,208.7,112,208.7,112,208.7z"/>
	<path fill="#09C1D1" d="M93,226.6h-8.1c-0.1,0-0.2-0.1-0.2-0.2v-6.9c0-0.1,0.1-0.2,0.2-0.2H93c0.1,0,0.2,0.1,0.2,0.2v6.9
		C93.2,226.6,93.1,226.6,93,226.6z"/>
	<path fill="#628EDD" d="M97.2,212.6h7c0.1,0,0.1,0,0.1,0.1v3.1c0,0.1,0,0.1-0.1,0.1h-7c-0.1,0-0.1,0-0.1-0.1v-3.1
		C97.1,212.7,97.1,212.6,97.2,212.6z"/>
	<rect x="240.8" y="229.4" fill="#326DE6" width="3.4" height="3.3"/>
	<rect x="157.5" y="230.2" fill="#326DE6" width="3.4" height="3.3"/>
	<path fill="#09C1D1" d="M155.1,224.2h8.1c0.1,0,0.2-0.1,0.2-0.2v-6.9c0-0.1-0.1-0.2-0.2-0.2h-8.1c-0.1,0-0.2,0.1-0.2,0.2v6.9
		C155,224.1,155,224.2,155.1,224.2z"/>
	<path fill="#628EDD" d="M221.1,212h-7c-0.1,0-0.1,0-0.1,0.1v3.1c0,0.1,0,0.1,0.1,0.1h7c0.1,0,0.1,0,0.1-0.1v-3.1
		C221.2,212.1,221.2,212,221.1,212z"/>
	<path fill="#628EDD" d="M233.7,219.7h-7c-0.1,0-0.1,0-0.1,0.1v3.1c0,0.1,0,0.1,0.1,0.1h7c0.1,0,0.1,0,0.1-0.1v-3.1
		C233.8,219.8,233.8,219.7,233.7,219.7z"/>
	<path fill="#628EDD" d="M162.7,209.3h-7c-0.1,0-0.1,0-0.1,0.1v3.1c0,0.1,0,0.1,0.1,0.1h7c0.1,0,0.1,0,0.1-0.1v-3.1
		C162.8,209.3,162.8,209.3,162.7,209.3z"/>
	<g>
		<path fill="#326DE6" d="M29.6,242.1h1.2v5.5h-1.2l-2.6-3.4v3.4h-1.2v-5.5h1.1l2.7,3.5V242.1z"/>
		<path fill="#326DE6" d="M36.3,245.4c0,0.6-0.2,1.1-0.6,1.5s-1,0.6-1.6,0.6c-0.6,0-1.2-0.2-1.6-0.6c-0.4-0.4-0.6-0.9-0.6-1.5
			c0-0.6,0.2-1.1,0.6-1.5c0.4-0.4,1-0.6,1.6-0.6c0.6,0,1.2,0.2,1.6,0.6C36.1,244.3,36.3,244.8,36.3,245.4z M33,245.4
			c0,0.3,0.1,0.6,0.3,0.8c0.2,0.2,0.4,0.3,0.8,0.3s0.6-0.1,0.8-0.3c0.2-0.2,0.3-0.5,0.3-0.8s-0.1-0.6-0.3-0.8
			c-0.2-0.2-0.4-0.3-0.8-0.3s-0.6,0.1-0.8,0.3C33.1,244.8,33,245.1,33,245.4z"/>
		<path fill="#326DE6" d="M38.9,247.6c-0.5,0-0.9-0.2-1.3-0.6c-0.4-0.4-0.6-0.9-0.6-1.6c0-0.6,0.2-1.1,0.6-1.5s0.8-0.6,1.3-0.6
			s0.9,0.2,1.3,0.5v-2.1h1.2v5.8h-1.2V247C39.8,247.4,39.4,247.6,38.9,247.6z M38.1,245.4c0,0.3,0.1,0.6,0.3,0.8
			c0.2,0.2,0.4,0.3,0.7,0.3c0.3,0,0.5-0.1,0.7-0.3c0.2-0.2,0.3-0.5,0.3-0.8c0-0.3-0.1-0.6-0.3-0.9c-0.2-0.2-0.4-0.3-0.7-0.3
			c-0.3,0-0.5,0.1-0.7,0.3C38.2,244.8,38.1,245.1,38.1,245.4z"/>
		<path fill="#326DE6" d="M46,246.9c-0.5,0.4-1,0.7-1.7,0.7c-0.6,0-1.2-0.2-1.6-0.6c-0.4-0.4-0.6-0.9-0.6-1.6c0-0.7,0.2-1.2,0.6-1.6
			c0.4-0.4,0.9-0.6,1.5-0.6s1.1,0.2,1.5,0.5c0.4,0.4,0.6,0.8,0.6,1.4v0.6h-3.1c0,0.2,0.2,0.4,0.4,0.6c0.2,0.1,0.4,0.2,0.7,0.2
			c0.4,0,0.8-0.1,1-0.4L46,246.9z M44.9,244.4c-0.2-0.1-0.4-0.2-0.6-0.2s-0.4,0.1-0.6,0.2c-0.2,0.1-0.3,0.3-0.3,0.6h1.9
			C45.2,244.8,45.1,244.6,44.9,244.4z"/>
	</g>
	<g>
		<path fill="#326DE6" d="M126.3,242.1h1.2v5.5h-1.2l-2.6-3.4v3.4h-1.2v-5.5h1.1l2.7,3.5V242.1z"/>
		<path fill="#326DE6" d="M133,245.4c0,0.6-0.2,1.1-0.6,1.5s-1,0.6-1.6,0.6c-0.6,0-1.2-0.2-1.6-0.6c-0.4-0.4-0.6-0.9-0.6-1.5
			c0-0.6,0.2-1.1,0.6-1.5c0.4-0.4,1-0.6,1.6-0.6c0.6,0,1.2,0.2,1.6,0.6C132.8,244.3,133,244.8,133,245.4z M129.7,245.4
			c0,0.3,0.1,0.6,0.3,0.8c0.2,0.2,0.4,0.3,0.8,0.3s0.6-0.1,0.8-0.3c0.2-0.2,0.3-0.5,0.3-0.8s-0.1-0.6-0.3-0.8
			c-0.2-0.2-0.4-0.3-0.8-0.3s-0.6,0.1-0.8,0.3C129.8,244.8,129.7,245.1,129.7,245.4z"/>
		<path fill="#326DE6" d="M135.5,247.6c-0.5,0-0.9-0.2-1.3-0.6c-0.4-0.4-0.6-0.9-0.6-1.6c0-0.6,0.2-1.1,0.6-1.5s0.8-0.6,1.3-0.6
			s0.9,0.2,1.3,0.5v-2.1h1.2v5.8h-1.2V247C136.4,247.4,136,247.6,135.5,247.6z M134.8,245.4c0,0.3,0.1,0.6,0.3,0.8
			c0.2,0.2,0.4,0.3,0.7,0.3c0.3,0,0.5-0.1,0.7-0.3c0.2-0.2,0.3-0.5,0.3-0.8c0-0.3-0.1-0.6-0.3-0.9c-0.2-0.2-0.4-0.3-0.7-0.3
			c-0.3,0-0.5,0.1-0.7,0.3C134.9,244.8,134.8,245.1,134.8,245.4z"/>
		<path fill="#326DE6" d="M142.7,246.9c-0.5,0.4-1,0.7-1.7,0.7c-0.6,0-1.2-0.2-1.6-0.6c-0.4-0.4-0.6-0.9-0.6-1.6
			c0-0.7,0.2-1.2,0.6-1.6c0.4-0.4,0.9-0.6,1.5-0.6s1.1,0.2,1.5,0.5c0.4,0.4,0.6,0.8,0.6,1.4v0.6H140c0,0.2,0.2,0.4,0.4,0.6
			c0.2,0.1,0.4,0.2,0.7,0.2c0.4,0,0.8-0.1,1-0.4L142.7,246.9z M141.6,244.4c-0.2-0.1-0.4-0.2-0.6-0.2s-0.4,0.1-0.6,0.2
			c-0.2,0.1-0.3,0.3-0.3,0.6h1.9C141.8,244.8,141.7,244.6,141.6,244.4z"/>
	</g>
	<g>
		<path fill="#326DE6" d="M123.2,12l-0.8-1.9h-3.7l-0.8,1.9h-2.1l3.8-8.8h1.9l3.8,8.8H123.2z M120.6,5.8l-1.1,2.6h2.2L120.6,5.8z"/>
		<path fill="#326DE6" d="M128,8.2V12h-1.9V5.2h1.9v0.8c0.6-0.6,1.2-0.9,1.9-0.9s1.3,0.3,1.8,0.8s0.7,1.2,0.7,2V12h-1.9V8.1
			c0-1-0.4-1.6-1.1-1.6c-0.4,0-0.7,0.1-1,0.4S128,7.6,128,8.2z"/>
		<path fill="#326DE6" d="M144.3,8.6c0,1-0.3,1.8-1,2.5c-0.7,0.7-1.5,1-2.6,1c-1,0-1.9-0.3-2.6-1c-0.7-0.7-1-1.5-1-2.5
			c0-1,0.3-1.8,1-2.5c0.7-0.7,1.5-1,2.6-1c1,0,1.9,0.3,2.6,1C144,6.8,144.3,7.6,144.3,8.6z M139,8.6c0,0.6,0.2,1,0.5,1.4
			c0.3,0.3,0.7,0.5,1.2,0.5c0.5,0,0.9-0.2,1.2-0.5s0.5-0.8,0.5-1.4c0-0.6-0.2-1-0.5-1.4c-0.3-0.4-0.7-0.5-1.2-0.5
			c-0.5,0-0.9,0.2-1.2,0.5C139.2,7.6,139,8,139,8.6z"/>
		<path fill="#326DE6" d="M149,10.4c0.6,0,1.2-0.3,1.7-0.9l1.1,1.3c-0.9,0.9-1.8,1.4-2.8,1.4c-1,0-1.9-0.3-2.6-1
			c-0.7-0.6-1.1-1.5-1.1-2.5c0-1,0.4-1.9,1.1-2.5c0.7-0.7,1.6-1,2.5-1c0.5,0,1,0.1,1.5,0.3c0.5,0.2,0.9,0.5,1.3,0.9l-1,1.3
			c-0.2-0.3-0.5-0.5-0.8-0.6c-0.3-0.1-0.6-0.2-0.9-0.2c-0.5,0-0.9,0.2-1.3,0.5c-0.4,0.3-0.5,0.8-0.5,1.3c0,0.6,0.2,1,0.5,1.3
			S148.5,10.4,149,10.4z"/>
		<path fill="#326DE6" d="M158.9,11c-0.8,0.7-1.7,1.1-2.7,1.1c-1,0-1.9-0.3-2.6-1c-0.7-0.6-1-1.5-1-2.6s0.3-1.9,1-2.5
			s1.5-0.9,2.4-0.9c0.9,0,1.7,0.3,2.4,0.8c0.7,0.6,1,1.3,1,2.3v1h-4.9c0.1,0.4,0.3,0.7,0.6,0.9c0.3,0.2,0.7,0.4,1.1,0.4
			c0.7,0,1.2-0.2,1.6-0.7L158.9,11z M157.1,7c-0.3-0.2-0.6-0.3-1-0.3c-0.4,0-0.7,0.1-1,0.3c-0.3,0.2-0.5,0.5-0.5,0.9h3
			C157.5,7.5,157.4,7.2,157.1,7z"/>
		<path fill="#326DE6" d="M166.6,12h-1.8v-0.8c-0.5,0.6-1.1,0.9-1.8,0.9c-0.7,0-1.3-0.2-1.8-0.6c-0.5-0.4-0.7-1-0.7-1.7
			s0.3-1.2,0.8-1.6c0.5-0.3,1.2-0.5,2.1-0.5h1.4v0c0-0.7-0.4-1.1-1.1-1.1c-0.3,0-0.7,0.1-1,0.2c-0.4,0.1-0.7,0.3-0.9,0.5L160.7,6
			c0.9-0.6,1.9-1,3-1c0.8,0,1.5,0.2,2,0.6c0.5,0.4,0.8,1.1,0.8,2V12z M164.7,9.4V9h-1.2c-0.8,0-1.1,0.2-1.1,0.7
			c0,0.2,0.1,0.4,0.3,0.6c0.2,0.1,0.4,0.2,0.8,0.2s0.6-0.1,0.9-0.3C164.6,10,164.7,9.7,164.7,9.4z"/>
		<path fill="#326DE6" d="M170.2,8.2V12h-1.9V5.2h1.9v0.8c0.6-0.6,1.2-0.9,1.9-0.9s1.3,0.3,1.8,0.8s0.7,1.2,0.7,2V12h-1.9V8.1
			c0-1-0.4-1.6-1.1-1.6c-0.4,0-0.7,0.1-1,0.4C170.3,7.2,170.2,7.6,170.2,8.2z"/>
		<path fill="#326DE6" d="M186.5,8.6c0,1-0.3,1.8-1,2.5c-0.7,0.7-1.5,1-2.6,1c-1,0-1.9-0.3-2.6-1c-0.7-0.7-1-1.5-1-2.5
			c0-1,0.3-1.8,1-2.5s1.5-1,2.6-1c1,0,1.9,0.3,2.6,1C186.1,6.8,186.5,7.6,186.5,8.6z M181.2,8.6c0,0.6,0.2,1,0.5,1.4
			c0.3,0.3,0.7,0.5,1.2,0.5s0.9-0.2,1.2-0.5c0.3-0.3,0.5-0.8,0.5-1.4c0-0.6-0.2-1-0.5-1.4c-0.3-0.4-0.7-0.5-1.2-0.5
			s-0.9,0.2-1.2,0.5C181.4,7.6,181.2,8,181.2,8.6z"/>
		<path fill="#326DE6" d="M190,4.8v0.5h1.6v1.4H190V12h-1.9V6.6h-0.8V5.2h0.8V4.8c0-0.7,0.2-1.3,0.7-1.8c0.4-0.4,1-0.6,1.7-0.6
			c0.7,0,1.3,0.3,1.8,0.8l-0.7,1.3C191.3,4.1,191,4,190.7,4c-0.2,0-0.4,0.1-0.5,0.2C190.1,4.3,190,4.5,190,4.8z"/>
		<path fill="#326DE6" d="M111.6,24v-3.7h1.9v6.8h-1.9v-0.9c-0.5,0.7-1.1,1-1.8,1c-0.7,0-1.4-0.2-1.9-0.7c-0.5-0.5-0.8-1.2-0.8-2.1
			v-4.1h1.9V24c0,1,0.4,1.6,1.1,1.6c0.4,0,0.7-0.1,1-0.4S111.6,24.5,111.6,24z"/>
		<path fill="#326DE6" d="M120.4,25c0,0.7-0.2,1.2-0.7,1.6c-0.5,0.4-1.1,0.6-1.9,0.6c-0.5,0-1-0.1-1.6-0.3c-0.5-0.2-1-0.4-1.5-0.8
			l0.8-1.2c0.7,0.5,1.5,0.8,2.3,0.8c0.2,0,0.4,0,0.6-0.1c0.1-0.1,0.2-0.2,0.2-0.4s-0.1-0.3-0.3-0.4s-0.5-0.3-0.9-0.4
			c-0.4-0.1-0.7-0.2-0.9-0.3c-0.2-0.1-0.4-0.2-0.7-0.4c-0.5-0.3-0.8-0.8-0.8-1.4c0-0.6,0.3-1.1,0.8-1.5c0.5-0.4,1.2-0.6,2-0.6
			s1.6,0.3,2.4,0.8l-0.7,1.3c-0.6-0.4-1.2-0.6-1.8-0.6s-0.9,0.2-0.9,0.5c0,0.2,0.1,0.3,0.3,0.4c0.2,0.1,0.5,0.2,0.9,0.4
			c0.4,0.1,0.7,0.2,0.9,0.3s0.4,0.2,0.6,0.3C120.1,23.8,120.4,24.3,120.4,25z"/>
		<path fill="#326DE6" d="M127.7,26.1c-0.8,0.7-1.7,1.1-2.7,1.1c-1,0-1.9-0.3-2.6-1c-0.7-0.6-1-1.5-1-2.6s0.3-1.9,1-2.5
			s1.5-0.9,2.4-0.9c0.9,0,1.7,0.3,2.4,0.8c0.7,0.6,1,1.3,1,2.3v1h-4.9c0.1,0.4,0.3,0.7,0.6,0.9c0.3,0.2,0.7,0.4,1.1,0.4
			c0.7,0,1.2-0.2,1.6-0.7L127.7,26.1z M125.9,22.1c-0.3-0.2-0.6-0.3-1-0.3c-0.4,0-0.7,0.1-1,0.3c-0.3,0.2-0.5,0.5-0.5,0.9h3
			C126.3,22.6,126.1,22.3,125.9,22.1z"/>
		<path fill="#326DE6" d="M133.2,22c-0.6,0-1,0.2-1.3,0.6c-0.3,0.4-0.4,0.9-0.4,1.6v2.9h-1.9v-6.8h1.9v0.9c0.2-0.3,0.5-0.5,0.9-0.7
			c0.4-0.2,0.7-0.3,1.1-0.3l0,1.8H133.2z"/>
		<path fill="#326DE6" d="M141.4,25.5c0.6,0,1.2-0.3,1.7-0.9l1.1,1.3c-0.9,0.9-1.8,1.4-2.8,1.4c-1,0-1.9-0.3-2.6-1
			c-0.7-0.6-1.1-1.5-1.1-2.5c0-1,0.4-1.9,1.1-2.5c0.7-0.7,1.6-1,2.5-1c0.5,0,1,0.1,1.5,0.3c0.5,0.2,0.9,0.5,1.3,0.9l-1,1.3
			c-0.2-0.3-0.5-0.5-0.8-0.6c-0.3-0.1-0.6-0.2-0.9-0.2c-0.5,0-0.9,0.2-1.3,0.5c-0.4,0.3-0.5,0.8-0.5,1.3c0,0.6,0.2,1,0.5,1.3
			S140.9,25.5,141.4,25.5z"/>
		<path fill="#326DE6" d="M152.1,23.7c0,1-0.3,1.8-1,2.5c-0.7,0.7-1.5,1-2.6,1c-1,0-1.9-0.3-2.6-1c-0.7-0.7-1-1.5-1-2.5
			c0-1,0.3-1.8,1-2.5c0.7-0.7,1.5-1,2.6-1c1,0,1.9,0.3,2.6,1C151.8,21.9,152.1,22.7,152.1,23.7z M146.9,23.7c0,0.6,0.2,1,0.5,1.4
			c0.3,0.3,0.7,0.5,1.2,0.5c0.5,0,0.9-0.2,1.2-0.5s0.5-0.8,0.5-1.4c0-0.6-0.2-1-0.5-1.4c-0.3-0.4-0.7-0.5-1.2-0.5
			c-0.5,0-0.9,0.2-1.2,0.5C147,22.7,146.9,23.1,146.9,23.7z"/>
		<path fill="#326DE6" d="M155.4,23.3v3.8h-1.9v-6.8h1.9v0.8c0.6-0.6,1.2-0.9,1.9-0.9s1.3,0.3,1.8,0.8s0.7,1.2,0.7,2v4.1H158v-3.8
			c0-1-0.4-1.6-1.1-1.6c-0.4,0-0.7,0.1-1,0.4S155.4,22.8,155.4,23.3z"/>
		<path fill="#326DE6" d="M163.7,21.7v3c0,0.3,0.1,0.5,0.2,0.6c0.1,0.1,0.3,0.2,0.5,0.2c0.4,0,0.7-0.2,0.9-0.5l0.7,1.3
			c-0.6,0.5-1.2,0.8-1.9,0.8c-0.7,0-1.2-0.2-1.7-0.6c-0.4-0.4-0.7-1-0.7-1.8v-3.1H161v-1.4h0.8v-2h1.9v2h1.6v1.4H163.7z"/>
		<path fill="#326DE6" d="M172.8,27.1H171v-0.8c-0.5,0.6-1.1,0.9-1.8,0.9c-0.7,0-1.3-0.2-1.8-0.6c-0.5-0.4-0.7-1-0.7-1.7
			s0.3-1.2,0.8-1.6c0.5-0.3,1.2-0.5,2.1-0.5h1.4v0c0-0.7-0.4-1.1-1.1-1.1c-0.3,0-0.7,0.1-1,0.2c-0.4,0.1-0.7,0.3-0.9,0.5l-0.8-1.2
			c0.9-0.6,1.9-1,3-1c0.8,0,1.5,0.2,2,0.6c0.5,0.4,0.8,1.1,0.8,2V27.1z M170.9,24.5v-0.3h-1.2c-0.8,0-1.1,0.2-1.1,0.7
			c0,0.2,0.1,0.4,0.3,0.6c0.2,0.1,0.4,0.2,0.8,0.2s0.6-0.1,0.9-0.3C170.7,25.1,170.9,24.8,170.9,24.5z"/>
		<path fill="#326DE6" d="M174.7,19.4c-0.2-0.2-0.3-0.5-0.3-0.8c0-0.3,0.1-0.6,0.3-0.8c0.2-0.2,0.5-0.3,0.8-0.3
			c0.3,0,0.6,0.1,0.8,0.3c0.2,0.2,0.3,0.5,0.3,0.8c0,0.3-0.1,0.6-0.3,0.8c-0.2,0.2-0.5,0.3-0.8,0.3
			C175.1,19.8,174.9,19.6,174.7,19.4z M176.4,27.1h-1.9v-6.8h1.9V27.1z"/>
		<path fill="#326DE6" d="M180.1,23.3v3.8h-1.9v-6.8h1.9v0.8c0.6-0.6,1.2-0.9,1.9-0.9s1.3,0.3,1.8,0.8s0.7,1.2,0.7,2v4.1h-1.9v-3.8
			c0-1-0.4-1.6-1.1-1.6c-0.4,0-0.7,0.1-1,0.4C180.2,22.4,180.1,22.8,180.1,23.3z"/>
		<path fill="#326DE6" d="M192.1,26.1c-0.8,0.7-1.7,1.1-2.7,1.1c-1,0-1.9-0.3-2.6-1s-1-1.5-1-2.6s0.3-1.9,1-2.5
			c0.7-0.6,1.5-0.9,2.4-0.9s1.7,0.3,2.4,0.8c0.7,0.6,1,1.3,1,2.3v1h-4.9c0.1,0.4,0.3,0.7,0.6,0.9c0.3,0.2,0.7,0.4,1.1,0.4
			c0.7,0,1.2-0.2,1.6-0.7L192.1,26.1z M190.3,22.1c-0.3-0.2-0.6-0.3-1-0.3c-0.4,0-0.7,0.1-1,0.3c-0.3,0.2-0.5,0.5-0.5,0.9h3
			C190.7,22.6,190.5,22.3,190.3,22.1z"/>
		<path fill="#326DE6" d="M197.6,22c-0.6,0-1,0.2-1.3,0.6s-0.4,0.9-0.4,1.6v2.9H194v-6.8h1.9v0.9c0.2-0.3,0.5-0.5,0.9-0.7
			c0.4-0.2,0.7-0.3,1.1-0.3l0,1.8H197.6z"/>
		<path fill="#326DE6" d="M204.2,25c0,0.7-0.2,1.2-0.7,1.6s-1.1,0.6-1.9,0.6c-0.5,0-1-0.1-1.6-0.3c-0.5-0.2-1-0.4-1.5-0.8l0.8-1.2
			c0.7,0.5,1.5,0.8,2.3,0.8c0.2,0,0.4,0,0.6-0.1s0.2-0.2,0.2-0.4s-0.1-0.3-0.3-0.4s-0.5-0.3-0.9-0.4c-0.4-0.1-0.7-0.2-0.9-0.3
			s-0.4-0.2-0.7-0.4c-0.5-0.3-0.8-0.8-0.8-1.4c0-0.6,0.3-1.1,0.8-1.5c0.5-0.4,1.2-0.6,2-0.6s1.6,0.3,2.4,0.8l-0.7,1.3
			c-0.6-0.4-1.2-0.6-1.8-0.6s-0.9,0.2-0.9,0.5c0,0.2,0.1,0.3,0.3,0.4c0.2,0.1,0.5,0.2,0.9,0.4s0.7,0.2,0.9,0.3
			c0.2,0.1,0.4,0.2,0.6,0.3C204,23.8,204.2,24.3,204.2,25z"/>
	</g>
	<g>
		<path fill="#326DE6" d="M227.1,242.1h1.2v5.5h-1.2l-2.6-3.4v3.4h-1.2v-5.5h1.1l2.7,3.5V242.1z"/>
		<path fill="#326DE6" d="M233.7,245.4c0,0.6-0.2,1.1-0.6,1.5c-0.4,0.4-1,0.6-1.6,0.6c-0.6,0-1.2-0.2-1.6-0.6s-0.6-0.9-0.6-1.5
			c0-0.6,0.2-1.1,0.6-1.5c0.4-0.4,1-0.6,1.6-0.6c0.6,0,1.2,0.2,1.6,0.6C233.5,244.3,233.7,244.8,233.7,245.4z M230.5,245.4
			c0,0.3,0.1,0.6,0.3,0.8c0.2,0.2,0.4,0.3,0.8,0.3c0.3,0,0.6-0.1,0.8-0.3c0.2-0.2,0.3-0.5,0.3-0.8s-0.1-0.6-0.3-0.8
			c-0.2-0.2-0.4-0.3-0.8-0.3c-0.3,0-0.6,0.1-0.8,0.3C230.5,244.8,230.5,245.1,230.5,245.4z"/>
		<path fill="#326DE6" d="M236.3,247.6c-0.5,0-0.9-0.2-1.3-0.6s-0.6-0.9-0.6-1.6c0-0.6,0.2-1.1,0.6-1.5s0.8-0.6,1.3-0.6
			s0.9,0.2,1.3,0.5v-2.1h1.2v5.8h-1.2V247C237.2,247.4,236.8,247.6,236.3,247.6z M235.6,245.4c0,0.3,0.1,0.6,0.3,0.8
			c0.2,0.2,0.4,0.3,0.7,0.3c0.3,0,0.5-0.1,0.7-0.3c0.2-0.2,0.3-0.5,0.3-0.8c0-0.3-0.1-0.6-0.3-0.9c-0.2-0.2-0.4-0.3-0.7-0.3
			s-0.5,0.1-0.7,0.3C235.7,244.8,235.6,245.1,235.6,245.4z"/>
		<path fill="#326DE6" d="M243.5,246.9c-0.5,0.4-1,0.7-1.7,0.7s-1.2-0.2-1.6-0.6c-0.4-0.4-0.6-0.9-0.6-1.6c0-0.7,0.2-1.2,0.6-1.6
			c0.4-0.4,0.9-0.6,1.5-0.6s1.1,0.2,1.5,0.5c0.4,0.4,0.6,0.8,0.6,1.4v0.6h-3.1c0,0.2,0.2,0.4,0.4,0.6s0.4,0.2,0.7,0.2
			c0.4,0,0.8-0.1,1-0.4L243.5,246.9z M242.4,244.4c-0.2-0.1-0.4-0.2-0.6-0.2s-0.4,0.1-0.6,0.2s-0.3,0.3-0.3,0.6h1.9
			C242.6,244.8,242.5,244.6,242.4,244.4z"/>
	</g>
	<g>
		<path fill="#326DE6" stroke="#DFE8F7" stroke-width="0.826" stroke-miterlimit="10" d="M160.1,209.3c-9.9,0-19.9-0.1-29.8,0
			c-11.8,0.2-21.1-9.9-20.3-21.3c0.6-8.1,4.9-13.7,12.3-16.9c0.7-0.3,1-0.7,1.2-1.4c1.6-5.5,5-9,10.7-10.2c2.4-0.5,4.8-0.2,7.1,0.8
			c0.7,0.3,0.9,0.1,1.3-0.5c5.1-9.2,12.9-14,23.5-13.9c12,0.2,22.8,10,24.4,21.8c0.2,1.3,0.3,2.6,0.3,3.9c0,0.5,0,0.8,0.7,0.8
			c9.5,0.3,17.3,8.5,17.1,18.7c-0.2,9.9-8.5,18-18.4,18C180.1,209.3,170.1,209.3,160.1,209.3z"/>
	</g>
	<g>
		<path fill="#FFFFFF" d="M130.3,175.7h1.5v2.8l2.6-2.8h1.9l-2.8,3.1c0.2,0.3,0.7,0.9,1.3,1.8c0.6,0.9,1.1,1.6,1.4,2h-1.8l-2-2.7
			l-0.7,0.8v2h-1.5V175.7z"/>
		<path fill="#FFFFFF" d="M140.3,180.2v-2.9h1.5v5.3h-1.5v-0.7c-0.4,0.5-0.8,0.8-1.4,0.8s-1.1-0.2-1.5-0.5s-0.6-0.9-0.6-1.6v-3.2
			h1.5v2.9c0,0.8,0.3,1.2,0.9,1.2c0.3,0,0.6-0.1,0.8-0.3C140.2,180.9,140.3,180.6,140.3,180.2z"/>
		<path fill="#FFFFFF" d="M146.3,177.2c0.6,0,1.2,0.3,1.7,0.8s0.7,1.2,0.7,1.9s-0.2,1.5-0.7,2s-1.1,0.8-1.7,0.8
			c-0.6,0-1.2-0.3-1.6-0.8v0.7h-1.5v-7.4h1.5v2.6C145.1,177.4,145.7,177.2,146.3,177.2z M144.7,179.9c0,0.4,0.1,0.8,0.4,1.1
			c0.2,0.3,0.5,0.4,0.9,0.4c0.3,0,0.6-0.1,0.9-0.4c0.3-0.3,0.4-0.6,0.4-1.1s-0.1-0.8-0.4-1.1c-0.3-0.3-0.6-0.4-0.9-0.4
			s-0.6,0.1-0.9,0.4S144.7,179.5,144.7,179.9z"/>
		<path fill="#FFFFFF" d="M154.5,181.8c-0.6,0.6-1.3,0.9-2.1,0.9c-0.8,0-1.5-0.2-2-0.7s-0.8-1.2-0.8-2c0-0.8,0.3-1.5,0.8-2
			c0.5-0.5,1.2-0.7,1.9-0.7s1.4,0.2,1.9,0.7c0.5,0.4,0.8,1.1,0.8,1.8v0.8H151c0,0.3,0.2,0.5,0.5,0.7c0.3,0.2,0.5,0.3,0.9,0.3
			c0.5,0,1-0.2,1.3-0.5L154.5,181.8z M153,178.7c-0.2-0.2-0.5-0.3-0.7-0.3s-0.6,0.1-0.8,0.3c-0.2,0.2-0.4,0.4-0.4,0.7h2.3
			C153.4,179.1,153.2,178.8,153,178.7z"/>
		<path fill="#FFFFFF" d="M158.8,178.6c-0.4,0-0.8,0.2-1,0.5s-0.3,0.7-0.3,1.2v2.3H156v-5.3h1.5v0.7c0.2-0.2,0.4-0.4,0.7-0.6
			c0.3-0.2,0.6-0.2,0.9-0.2l0,1.4H158.8z"/>
		<path fill="#FFFFFF" d="M161.5,179.6v3H160v-5.3h1.5v0.6c0.4-0.5,1-0.7,1.5-0.7s1,0.2,1.4,0.6s0.6,0.9,0.6,1.6v3.2h-1.5v-3
			c0-0.8-0.3-1.2-0.9-1.2c-0.3,0-0.6,0.1-0.8,0.3S161.5,179.2,161.5,179.6z"/>
		<path fill="#FFFFFF" d="M171,181.8c-0.6,0.6-1.3,0.9-2.1,0.9s-1.5-0.2-2-0.7s-0.8-1.2-0.8-2c0-0.8,0.3-1.5,0.8-2
			c0.5-0.5,1.2-0.7,1.9-0.7s1.4,0.2,1.9,0.7c0.5,0.4,0.8,1.1,0.8,1.8v0.8h-3.9c0,0.3,0.2,0.5,0.5,0.7s0.5,0.3,0.9,0.3
			c0.5,0,1-0.2,1.3-0.5L171,181.8z M169.6,178.7c-0.2-0.2-0.5-0.3-0.7-0.3c-0.3,0-0.6,0.1-0.8,0.3c-0.2,0.2-0.4,0.4-0.4,0.7h2.3
			C169.9,179.1,169.8,178.8,169.6,178.7z"/>
		<path fill="#FFFFFF" d="M174.2,178.3v2.4c0,0.2,0.1,0.4,0.2,0.5c0.1,0.1,0.2,0.2,0.4,0.2c0.3,0,0.5-0.1,0.7-0.4l0.6,1
			c-0.5,0.4-0.9,0.6-1.5,0.6c-0.5,0-0.9-0.2-1.3-0.5s-0.5-0.8-0.5-1.4v-2.5h-0.6v-1.1h0.6v-1.6h1.5v1.6h1.3v1.1H174.2z"/>
		<path fill="#FFFFFF" d="M181.4,181.8c-0.6,0.6-1.3,0.9-2.1,0.9s-1.5-0.2-2-0.7s-0.8-1.2-0.8-2c0-0.8,0.3-1.5,0.8-2
			c0.5-0.5,1.2-0.7,1.9-0.7s1.4,0.2,1.9,0.7c0.5,0.4,0.8,1.1,0.8,1.8v0.8H178c0,0.3,0.2,0.5,0.5,0.7s0.5,0.3,0.9,0.3
			c0.5,0,1-0.2,1.3-0.5L181.4,181.8z M180,178.7c-0.2-0.2-0.5-0.3-0.7-0.3c-0.3,0-0.6,0.1-0.8,0.3c-0.2,0.2-0.4,0.4-0.4,0.7h2.3
			C180.3,179.1,180.2,178.8,180,178.7z"/>
		<path fill="#FFFFFF" d="M186.9,181c0,0.5-0.2,0.9-0.6,1.3c-0.4,0.3-0.9,0.5-1.5,0.5c-0.4,0-0.8-0.1-1.2-0.2
			c-0.4-0.1-0.8-0.4-1.2-0.6l0.7-0.9c0.6,0.4,1.1,0.6,1.8,0.6c0.2,0,0.3,0,0.5-0.1c0.1-0.1,0.2-0.2,0.2-0.3s-0.1-0.2-0.2-0.3
			c-0.2-0.1-0.4-0.2-0.7-0.3c-0.3-0.1-0.5-0.2-0.7-0.2c-0.2-0.1-0.3-0.2-0.5-0.3c-0.4-0.3-0.6-0.6-0.6-1.1s0.2-0.9,0.6-1.2
			c0.4-0.3,0.9-0.5,1.5-0.5s1.3,0.2,1.9,0.6l-0.6,1c-0.5-0.3-0.9-0.5-1.4-0.5c-0.5,0-0.7,0.1-0.7,0.4c0,0.1,0.1,0.2,0.2,0.3
			c0.1,0.1,0.4,0.2,0.7,0.3c0.3,0.1,0.6,0.2,0.7,0.2c0.1,0.1,0.3,0.1,0.5,0.3C186.8,180,186.9,180.4,186.9,181z"/>
		<path fill="#FFFFFF" d="M147.9,190.1l-1.9,3.8h-0.9l-1.9-3.8v4.4h-1.5v-6.9h2.1l1.8,3.8l1.8-3.8h2.1v6.9h-1.5V190.1z"/>
		<path fill="#FFFFFF" d="M155.6,194.5h-1.4v-0.6c-0.4,0.5-0.9,0.7-1.4,0.7s-1-0.2-1.4-0.5c-0.4-0.3-0.6-0.8-0.6-1.3
			c0-0.5,0.2-1,0.6-1.2c0.4-0.3,0.9-0.4,1.6-0.4h1.1v0c0-0.6-0.3-0.9-0.9-0.9c-0.3,0-0.5,0.1-0.8,0.2c-0.3,0.1-0.5,0.2-0.7,0.4
			l-0.7-1c0.7-0.5,1.5-0.8,2.4-0.8c0.6,0,1.2,0.2,1.6,0.5s0.6,0.8,0.6,1.5V194.5z M154.1,192.5v-0.3h-0.9c-0.6,0-0.9,0.2-0.9,0.6
			c0,0.2,0.1,0.3,0.2,0.4s0.3,0.2,0.6,0.2c0.3,0,0.5-0.1,0.7-0.2C154,193,154.1,192.7,154.1,192.5z"/>
		<path fill="#FFFFFF" d="M160.9,192.8c0,0.5-0.2,0.9-0.6,1.3s-0.9,0.5-1.5,0.5c-0.4,0-0.8-0.1-1.2-0.2s-0.8-0.4-1.2-0.6l0.7-0.9
			c0.6,0.4,1.1,0.6,1.8,0.6c0.2,0,0.3,0,0.5-0.1s0.2-0.2,0.2-0.3s-0.1-0.2-0.2-0.3c-0.2-0.1-0.4-0.2-0.7-0.3
			c-0.3-0.1-0.5-0.2-0.7-0.2c-0.2-0.1-0.3-0.2-0.5-0.3c-0.4-0.3-0.6-0.6-0.6-1.1s0.2-0.9,0.6-1.2c0.4-0.3,0.9-0.5,1.5-0.5
			c0.6,0,1.3,0.2,1.9,0.6l-0.6,1c-0.5-0.3-0.9-0.5-1.4-0.5c-0.5,0-0.7,0.1-0.7,0.4c0,0.1,0.1,0.2,0.2,0.3c0.1,0.1,0.4,0.2,0.7,0.3
			c0.3,0.1,0.6,0.2,0.7,0.2s0.3,0.1,0.5,0.3C160.8,191.9,160.9,192.3,160.9,192.8z"/>
		<path fill="#FFFFFF" d="M163.8,190.2v2.4c0,0.2,0.1,0.4,0.2,0.5c0.1,0.1,0.2,0.2,0.4,0.2c0.3,0,0.5-0.1,0.7-0.4l0.6,1
			c-0.5,0.4-0.9,0.6-1.5,0.6c-0.5,0-0.9-0.2-1.3-0.5s-0.5-0.8-0.5-1.4v-2.5h-0.6v-1.1h0.6v-1.6h1.5v1.6h1.3v1.1H163.8z"/>
		<path fill="#FFFFFF" d="M171,193.7c-0.6,0.6-1.3,0.9-2.1,0.9s-1.5-0.2-2-0.7s-0.8-1.2-0.8-2c0-0.8,0.3-1.5,0.8-2
			c0.5-0.5,1.2-0.7,1.9-0.7s1.4,0.2,1.9,0.7c0.5,0.4,0.8,1.1,0.8,1.8v0.8h-3.9c0,0.3,0.2,0.5,0.5,0.7s0.5,0.3,0.9,0.3
			c0.5,0,1-0.2,1.3-0.5L171,193.7z M169.6,190.6c-0.2-0.2-0.5-0.3-0.7-0.3c-0.3,0-0.6,0.1-0.8,0.3c-0.2,0.2-0.4,0.4-0.4,0.7h2.3
			C169.9,191,169.8,190.7,169.6,190.6z"/>
		<path fill="#FFFFFF" d="M175.3,190.5c-0.4,0-0.8,0.2-1,0.5s-0.3,0.7-0.3,1.2v2.3h-1.5v-5.3h1.5v0.7c0.2-0.2,0.4-0.4,0.7-0.6
			c0.3-0.2,0.6-0.2,0.9-0.2l0,1.4H175.3z"/>
	</g>
	<path fill-rule="evenodd" clip-rule="evenodd" fill="none" stroke="#326DE6" stroke-width="1.239" stroke-miterlimit="10" d="
		M246.9,46.6v-4.6c0-3-2.4-5.4-5.2-5.4H74.9c-2.9,0-5.2,2.4-5.2,5.4v4.6"/>
	<g>
		<path fill="#326DE6" d="M88.3,313.6c-0.2,0.2-0.3,0.4-0.3,0.6c0,0.3,0.1,0.5,0.3,0.6c0.2,0.2,0.8,0.3,1.6,0.5
			c0.8,0.2,1.5,0.5,2,0.9c0.5,0.4,0.7,1,0.7,1.8s-0.3,1.4-0.9,1.9c-0.6,0.5-1.4,0.7-2.3,0.7c-1.4,0-2.7-0.5-3.8-1.6l1.2-1.4
			c1,0.8,1.8,1.3,2.6,1.3c0.4,0,0.6-0.1,0.9-0.2c0.2-0.2,0.3-0.4,0.3-0.6c0-0.3-0.1-0.5-0.3-0.6c-0.2-0.2-0.7-0.3-1.3-0.5
			c-1-0.2-1.8-0.6-2.3-1c-0.5-0.4-0.7-1-0.7-1.8c0-0.8,0.3-1.5,0.9-1.9c0.6-0.5,1.4-0.7,2.3-0.7c0.6,0,1.2,0.1,1.8,0.3
			s1.1,0.5,1.5,0.9l-1,1.4c-0.8-0.6-1.6-0.9-2.4-0.9C88.7,313.4,88.5,313.5,88.3,313.6z"/>
		<path fill="#326DE6" d="M97.4,319.1c0.6,0,1.2-0.3,1.7-0.9l1.1,1.3c-0.9,0.9-1.8,1.4-2.8,1.4s-1.9-0.3-2.6-1
			c-0.7-0.6-1.1-1.5-1.1-2.5s0.4-1.9,1.1-2.5s1.6-1,2.5-1c0.5,0,1,0.1,1.5,0.3c0.5,0.2,0.9,0.5,1.3,0.9l-1,1.3
			c-0.2-0.3-0.5-0.5-0.8-0.6s-0.6-0.2-0.9-0.2c-0.5,0-0.9,0.2-1.3,0.5c-0.4,0.3-0.5,0.8-0.5,1.4s0.2,1,0.5,1.3
			C96.5,319,96.9,319.1,97.4,319.1z"/>
		<path fill="#326DE6" d="M103.4,317v3.7h-1.9v-9.4h1.9v3.3c0.6-0.6,1.2-0.9,1.9-0.9s1.3,0.3,1.8,0.8c0.5,0.5,0.7,1.2,0.7,2v4.1
			h-1.9V317c0-1-0.4-1.6-1.2-1.6c-0.4,0-0.7,0.1-1,0.4S103.4,316.5,103.4,317z"/>
		<path fill="#326DE6" d="M115.5,319.7c-0.8,0.7-1.7,1.1-2.7,1.1c-1,0-1.9-0.3-2.6-1c-0.7-0.6-1-1.5-1-2.6s0.3-1.9,1-2.6
			c0.7-0.6,1.5-0.9,2.4-0.9s1.7,0.3,2.4,0.8c0.7,0.6,1,1.3,1,2.3v1h-5c0.1,0.4,0.3,0.7,0.6,0.9c0.3,0.2,0.7,0.4,1.1,0.4
			c0.7,0,1.2-0.2,1.6-0.7L115.5,319.7z M113.6,315.7c-0.3-0.2-0.6-0.3-1-0.3c-0.4,0-0.7,0.1-1,0.3c-0.3,0.2-0.5,0.5-0.5,0.9h3
			C114,316.2,113.9,315.9,113.6,315.7z"/>
		<path fill="#326DE6" d="M120.1,320.8c-0.8,0-1.5-0.3-2.2-1c-0.6-0.7-0.9-1.5-0.9-2.5c0-1,0.3-1.8,0.9-2.5c0.6-0.6,1.3-1,2.2-1
			s1.5,0.3,2,0.9v-3.3h1.9v9.4h-1.9v-0.9C121.6,320.5,120.9,320.8,120.1,320.8z M118.9,317.3c0,0.5,0.2,1,0.5,1.3
			c0.3,0.4,0.7,0.5,1.2,0.5c0.4,0,0.8-0.2,1.1-0.5c0.3-0.4,0.5-0.8,0.5-1.4s-0.2-1-0.5-1.4s-0.7-0.6-1.1-0.6c-0.4,0-0.8,0.2-1.2,0.6
			C119.1,316.3,118.9,316.8,118.9,317.3z"/>
		<path fill="#326DE6" d="M130.2,317.6v-3.7h1.9v6.8h-1.9v-0.9c-0.5,0.7-1.1,1-1.8,1s-1.4-0.2-1.9-0.7c-0.5-0.5-0.8-1.2-0.8-2.1
			v-4.1h1.9v3.7c0,1,0.4,1.6,1.2,1.6c0.4,0,0.7-0.1,1-0.4C130.1,318.5,130.2,318.1,130.2,317.6z"/>
		<path fill="#326DE6" d="M135.8,320.7h-1.9v-9.4h1.9V320.7z"/>
		<path fill="#326DE6" d="M143.5,319.7c-0.8,0.7-1.7,1.1-2.7,1.1c-1,0-1.9-0.3-2.6-1c-0.7-0.6-1-1.5-1-2.6s0.3-1.9,1-2.6
			c0.7-0.6,1.5-0.9,2.4-0.9s1.7,0.3,2.4,0.8c0.7,0.6,1,1.3,1,2.3v1h-5c0.1,0.4,0.3,0.7,0.6,0.9c0.3,0.2,0.7,0.4,1.1,0.4
			c0.7,0,1.2-0.2,1.6-0.7L143.5,319.7z M141.7,315.7c-0.3-0.2-0.6-0.3-1-0.3c-0.4,0-0.7,0.1-1,0.3c-0.3,0.2-0.5,0.5-0.5,0.9h3
			C142.1,316.2,142,315.9,141.7,315.7z"/>
		<path fill="#326DE6" d="M148.2,320.8c-0.8,0-1.5-0.3-2.2-1c-0.6-0.7-0.9-1.5-0.9-2.5c0-1,0.3-1.8,0.9-2.5c0.6-0.6,1.3-1,2.2-1
			s1.5,0.3,2,0.9v-3.3h1.9v9.4h-1.9v-0.9C149.6,320.5,149,320.8,148.2,320.8z M147,317.3c0,0.5,0.2,1,0.5,1.3
			c0.3,0.4,0.7,0.5,1.2,0.5c0.4,0,0.8-0.2,1.1-0.5c0.3-0.4,0.5-0.8,0.5-1.4s-0.2-1-0.5-1.4s-0.7-0.6-1.1-0.6c-0.4,0-0.8,0.2-1.2,0.6
			C147.1,316.3,147,316.8,147,317.3z"/>
		<path fill="#326DE6" d="M163,320.7h-1.8v-0.8c-0.5,0.6-1.1,0.9-1.8,0.9s-1.3-0.2-1.8-0.6c-0.5-0.4-0.7-1-0.7-1.7s0.3-1.2,0.8-1.6
			s1.2-0.5,2.1-0.5h1.4v0c0-0.7-0.4-1.1-1.2-1.1c-0.3,0-0.7,0.1-1,0.2s-0.7,0.3-0.9,0.5l-0.8-1.2c0.9-0.6,1.9-1,3.1-1
			c0.8,0,1.5,0.2,2,0.6s0.8,1.1,0.8,2V320.7z M161.1,318.1v-0.3h-1.2c-0.8,0-1.1,0.2-1.1,0.7c0,0.2,0.1,0.4,0.3,0.6s0.4,0.2,0.8,0.2
			c0.3,0,0.6-0.1,0.9-0.3C161,318.7,161.1,318.5,161.1,318.1z"/>
		<path fill="#326DE6" d="M166.6,316.9v3.8h-1.9v-6.8h1.9v0.8c0.6-0.6,1.2-0.9,1.9-0.9s1.3,0.3,1.8,0.8c0.5,0.5,0.7,1.2,0.7,2v4.1
			h-1.9v-3.8c0-1-0.4-1.6-1.2-1.6c-0.4,0-0.7,0.1-1,0.4C166.8,316,166.6,316.4,166.6,316.9z"/>
		<path fill="#326DE6" d="M175.6,320.8c-0.8,0-1.5-0.3-2.2-1s-0.9-1.5-0.9-2.5c0-1,0.3-1.8,0.9-2.5c0.6-0.6,1.3-1,2.2-1
			s1.5,0.3,2,0.9v-3.3h1.9v9.4h-1.9v-0.9C177,320.5,176.4,320.8,175.6,320.8z M174.4,317.3c0,0.5,0.2,1,0.5,1.3
			c0.3,0.4,0.7,0.5,1.2,0.5c0.4,0,0.8-0.2,1.1-0.5c0.3-0.4,0.5-0.8,0.5-1.4s-0.2-1-0.5-1.4c-0.3-0.4-0.7-0.6-1.1-0.6
			s-0.8,0.2-1.2,0.6C174.5,316.3,174.4,316.8,174.4,317.3z"/>
		<path fill="#326DE6" d="M188.6,313.8c0.8,0,1.5,0.3,2.1,1c0.6,0.7,0.9,1.5,0.9,2.5s-0.3,1.8-0.9,2.5c-0.6,0.7-1.3,1-2.2,1
			c-0.8,0-1.5-0.3-2-1v3.4h-1.9v-9.3h1.9v0.8C187.1,314.1,187.8,313.8,188.6,313.8z M186.5,317.3c0,0.6,0.2,1,0.5,1.4
			c0.3,0.4,0.7,0.5,1.1,0.5s0.8-0.2,1.2-0.5c0.3-0.4,0.5-0.8,0.5-1.3s-0.2-1-0.5-1.4c-0.3-0.4-0.7-0.6-1.2-0.6s-0.8,0.2-1.1,0.6
			C186.6,316.3,186.5,316.8,186.5,317.3z"/>
		<path fill="#326DE6" d="M198.8,320.7H197v-0.8c-0.5,0.6-1.1,0.9-1.8,0.9s-1.3-0.2-1.8-0.6c-0.5-0.4-0.7-1-0.7-1.7s0.3-1.2,0.8-1.6
			c0.5-0.3,1.2-0.5,2.1-0.5h1.4v0c0-0.7-0.4-1.1-1.2-1.1c-0.3,0-0.7,0.1-1,0.2s-0.7,0.3-0.9,0.5l-0.8-1.2c0.9-0.6,1.9-1,3.1-1
			c0.8,0,1.5,0.2,2,0.6s0.8,1.1,0.8,2V320.7z M196.9,318.1v-0.3h-1.2c-0.8,0-1.1,0.2-1.1,0.7c0,0.2,0.1,0.4,0.3,0.6s0.4,0.2,0.8,0.2
			c0.3,0,0.6-0.1,0.9-0.3C196.8,318.7,196.9,318.5,196.9,318.1z"/>
		<path fill="#326DE6" d="M203.8,319.1c0.6,0,1.2-0.3,1.7-0.9l1.1,1.3c-0.9,0.9-1.8,1.4-2.8,1.4c-1,0-1.9-0.3-2.6-1
			c-0.7-0.6-1.1-1.5-1.1-2.5s0.4-1.9,1.1-2.5s1.6-1,2.5-1c0.5,0,1,0.1,1.5,0.3c0.5,0.2,0.9,0.5,1.3,0.9l-1,1.3
			c-0.2-0.3-0.5-0.5-0.8-0.6c-0.3-0.1-0.6-0.2-0.9-0.2c-0.5,0-0.9,0.2-1.3,0.5c-0.4,0.3-0.5,0.8-0.5,1.4s0.2,1,0.5,1.3
			C202.9,319,203.3,319.1,203.8,319.1z"/>
		<path fill="#326DE6" d="M209.8,320.7h-1.9v-9.4h1.9v4.8l2.1-2.3h2.4l-2.6,2.8l2.7,4.1h-2.3l-1.7-2.6l-0.6,0.6V320.7z"/>
		<path fill="#326DE6" d="M221.4,319.7c-0.8,0.7-1.7,1.1-2.7,1.1s-1.9-0.3-2.6-1c-0.7-0.6-1-1.5-1-2.6s0.3-1.9,1-2.6
			c0.7-0.6,1.5-0.9,2.4-0.9s1.7,0.3,2.4,0.8c0.7,0.6,1,1.3,1,2.3v1h-5c0.1,0.4,0.3,0.7,0.6,0.9s0.7,0.4,1.1,0.4
			c0.7,0,1.2-0.2,1.6-0.7L221.4,319.7z M219.5,315.7c-0.3-0.2-0.6-0.3-1-0.3c-0.4,0-0.7,0.1-1,0.3c-0.3,0.2-0.5,0.5-0.5,0.9h3
			C219.9,316.2,219.8,315.9,219.5,315.7z"/>
		<path fill="#326DE6" d="M226,320.8c-0.8,0-1.5-0.3-2.2-1s-0.9-1.5-0.9-2.5c0-1,0.3-1.8,0.9-2.5c0.6-0.6,1.3-1,2.2-1s1.5,0.3,2,0.9
			v-3.3h1.9v9.4H228v-0.9C227.5,320.5,226.8,320.8,226,320.8z M224.8,317.3c0,0.5,0.2,1,0.5,1.3c0.3,0.4,0.7,0.5,1.2,0.5
			c0.4,0,0.8-0.2,1.1-0.5c0.3-0.4,0.5-0.8,0.5-1.4s-0.2-1-0.5-1.4c-0.3-0.4-0.7-0.6-1.1-0.6s-0.8,0.2-1.2,0.6
			C225,316.3,224.8,316.8,224.8,317.3z"/>
		<path fill="#326DE6" d="M86.7,337.7c-0.8,0-1.5-0.3-2.2-1c-0.6-0.7-0.9-1.5-0.9-2.5c0-1,0.3-1.8,0.9-2.5c0.6-0.6,1.3-1,2.2-1
			s1.5,0.3,2,0.9v-3.3h1.9v9.4h-1.9v-0.9C88.2,337.4,87.5,337.7,86.7,337.7z M85.5,334.2c0,0.5,0.2,1,0.5,1.3
			c0.3,0.4,0.7,0.5,1.2,0.5c0.4,0,0.8-0.2,1.1-0.5c0.3-0.4,0.5-0.8,0.5-1.4s-0.2-1-0.5-1.4s-0.7-0.6-1.1-0.6c-0.4,0-0.8,0.2-1.2,0.6
			C85.6,333.2,85.5,333.7,85.5,334.2z"/>
		<path fill="#326DE6" d="M93.6,340.3c-0.7,0-1.3-0.3-1.9-0.8l0.9-1.4c0.3,0.3,0.6,0.5,1,0.5c0.2,0,0.3-0.1,0.5-0.3
			c0.1-0.2,0.2-0.4,0.2-0.6c0-0.2-0.9-2.5-2.6-6.9h2l1.7,4.2l1.7-4.2h2l-3.2,8c-0.2,0.5-0.5,0.8-0.9,1.1
			C94.5,340.1,94,340.3,93.6,340.3z"/>
		<path fill="#326DE6" d="M101.8,333.8v3.8h-1.9v-6.8h1.9v0.8c0.6-0.6,1.2-0.9,1.9-0.9c0.7,0,1.3,0.3,1.8,0.8s0.7,1.2,0.7,2v4.1
			h-1.9v-3.8c0-1-0.4-1.6-1.2-1.6c-0.4,0-0.7,0.1-1,0.4C101.9,332.9,101.8,333.3,101.8,333.8z"/>
		<path fill="#326DE6" d="M113.7,337.6H112v-0.8c-0.5,0.6-1.1,0.9-1.8,0.9s-1.3-0.2-1.8-0.6c-0.5-0.4-0.7-1-0.7-1.7s0.3-1.2,0.8-1.6
			s1.2-0.5,2.1-0.5h1.4v0c0-0.7-0.4-1.1-1.2-1.1c-0.3,0-0.7,0.1-1,0.2s-0.7,0.3-0.9,0.5l-0.8-1.2c0.9-0.6,1.9-1,3.1-1
			c0.8,0,1.5,0.2,2,0.6c0.5,0.4,0.8,1.1,0.8,2V337.6z M111.8,335v-0.3h-1.2c-0.8,0-1.1,0.2-1.1,0.7c0,0.2,0.1,0.4,0.3,0.6
			s0.4,0.2,0.8,0.2c0.3,0,0.6-0.1,0.9-0.3C111.7,335.6,111.8,335.3,111.8,335z"/>
		<path fill="#326DE6" d="M121.7,333.9v3.7h-1.9v-3.7c0-0.5-0.1-0.9-0.2-1.2c-0.2-0.3-0.4-0.4-0.8-0.4s-0.7,0.1-1,0.4
			s-0.4,0.7-0.4,1.2v3.7h-1.9v-6.8h1.9v0.8c0.5-0.6,1.1-0.9,1.8-0.9c0.4,0,0.8,0.1,1.2,0.4s0.6,0.6,0.8,0.9c0.3-0.4,0.6-0.7,1.1-1
			c0.4-0.2,0.9-0.3,1.3-0.3c0.8,0,1.4,0.2,1.9,0.7c0.5,0.5,0.7,1.2,0.7,2.1v4.1h-1.9v-3.7c0-1-0.4-1.6-1.2-1.6c-0.4,0-0.7,0.1-1,0.4
			C121.9,333,121.7,333.4,121.7,333.9z"/>
		<path fill="#326DE6" d="M128.1,329.9c-0.2-0.2-0.3-0.5-0.3-0.8c0-0.3,0.1-0.6,0.3-0.8s0.5-0.3,0.8-0.3c0.3,0,0.6,0.1,0.8,0.3
			c0.2,0.2,0.3,0.5,0.3,0.8c0,0.3-0.1,0.6-0.3,0.8c-0.2,0.2-0.5,0.3-0.8,0.3C128.6,330.2,128.3,330.1,128.1,329.9z M129.8,337.6
			h-1.9v-6.8h1.9V337.6z"/>
		<path fill="#326DE6" d="M134.9,336c0.6,0,1.2-0.3,1.7-0.9l1.1,1.3c-0.9,0.9-1.8,1.4-2.8,1.4s-1.9-0.3-2.6-1
			c-0.7-0.6-1.1-1.5-1.1-2.5s0.4-1.9,1.1-2.5s1.6-1,2.5-1c0.5,0,1,0.1,1.5,0.3c0.5,0.2,0.9,0.5,1.3,0.9l-1,1.3
			c-0.2-0.3-0.5-0.5-0.8-0.6s-0.6-0.2-0.9-0.2c-0.5,0-0.9,0.2-1.3,0.5c-0.4,0.3-0.5,0.8-0.5,1.4s0.2,1,0.5,1.3
			C134,335.9,134.4,336,134.9,336z"/>
		<path fill="#326DE6" d="M144.8,337.6H143v-0.8c-0.5,0.6-1.1,0.9-1.8,0.9s-1.3-0.2-1.8-0.6c-0.5-0.4-0.7-1-0.7-1.7s0.3-1.2,0.8-1.6
			s1.2-0.5,2.1-0.5h1.4v0c0-0.7-0.4-1.1-1.2-1.1c-0.3,0-0.7,0.1-1,0.2s-0.7,0.3-0.9,0.5l-0.8-1.2c0.9-0.6,1.9-1,3.1-1
			c0.8,0,1.5,0.2,2,0.6c0.5,0.4,0.8,1.1,0.8,2V337.6z M142.9,335v-0.3h-1.2c-0.8,0-1.1,0.2-1.1,0.7c0,0.2,0.1,0.4,0.3,0.6
			s0.4,0.2,0.8,0.2c0.3,0,0.6-0.1,0.9-0.3C142.7,335.6,142.9,335.3,142.9,335z"/>
		<path fill="#326DE6" d="M148.4,337.6h-1.9v-9.4h1.9V337.6z"/>
		<path fill="#326DE6" d="M152.1,337.6h-1.9v-9.4h1.9V337.6z"/>
		<path fill="#326DE6" d="M155.1,340.3c-0.7,0-1.3-0.3-1.9-0.8l0.9-1.4c0.3,0.3,0.6,0.5,1,0.5c0.2,0,0.3-0.1,0.5-0.3
			c0.1-0.2,0.2-0.4,0.2-0.6c0-0.2-0.9-2.5-2.6-6.9h2l1.7,4.2l1.7-4.2h2l-3.2,8c-0.2,0.5-0.5,0.8-0.9,1.1
			C156,340.1,155.6,340.3,155.1,340.3z"/>
		<path fill="#326DE6" d="M171.5,334.2c0,1-0.3,1.8-1,2.5s-1.5,1-2.6,1s-1.9-0.3-2.6-1s-1-1.5-1-2.5c0-1,0.3-1.8,1-2.5
			c0.7-0.7,1.5-1,2.6-1s1.9,0.3,2.6,1C171.2,332.4,171.5,333.2,171.5,334.2z M166.2,334.2c0,0.6,0.2,1,0.5,1.4
			c0.3,0.4,0.7,0.5,1.2,0.5c0.5,0,0.9-0.2,1.2-0.5c0.3-0.4,0.5-0.8,0.5-1.4s-0.2-1-0.5-1.4s-0.7-0.5-1.2-0.5c-0.5,0-0.9,0.2-1.2,0.5
			C166.4,333.2,166.2,333.6,166.2,334.2z"/>
		<path fill="#326DE6" d="M174.8,333.8v3.8h-1.9v-6.8h1.9v0.8c0.6-0.6,1.2-0.9,1.9-0.9s1.3,0.3,1.8,0.8c0.5,0.5,0.7,1.2,0.7,2v4.1
			h-1.9v-3.8c0-1-0.4-1.6-1.2-1.6c-0.4,0-0.7,0.1-1,0.4C175,332.9,174.8,333.3,174.8,333.8z"/>
		<path fill="#326DE6" d="M183.2,332.2v3.1c0,0.3,0.1,0.5,0.2,0.6c0.1,0.1,0.3,0.2,0.5,0.2c0.4,0,0.7-0.2,0.9-0.5l0.7,1.3
			c-0.6,0.5-1.2,0.8-1.9,0.8c-0.7,0-1.2-0.2-1.7-0.6s-0.7-1-0.7-1.8v-3.1h-0.8v-1.4h0.8v-2h1.9v2h1.6v1.4H183.2z"/>
		<path fill="#326DE6" d="M193.2,334.2c0,1-0.3,1.8-1,2.5s-1.5,1-2.6,1s-1.9-0.3-2.6-1s-1-1.5-1-2.5c0-1,0.3-1.8,1-2.5
			c0.7-0.7,1.5-1,2.6-1s1.9,0.3,2.6,1C192.9,332.4,193.2,333.2,193.2,334.2z M187.9,334.2c0,0.6,0.2,1,0.5,1.4
			c0.3,0.4,0.7,0.5,1.2,0.5c0.5,0,0.9-0.2,1.2-0.5c0.3-0.4,0.5-0.8,0.5-1.4s-0.2-1-0.5-1.4s-0.7-0.5-1.2-0.5c-0.5,0-0.9,0.2-1.2,0.5
			C188.1,333.2,187.9,333.6,187.9,334.2z"/>
		<path fill="#326DE6" d="M199.9,333.8v3.8H198v-6.8h1.9v0.8c0.6-0.6,1.2-0.9,1.9-0.9s1.3,0.3,1.8,0.8c0.5,0.5,0.7,1.2,0.7,2v4.1
			h-1.9v-3.8c0-1-0.4-1.6-1.2-1.6c-0.4,0-0.7,0.1-1,0.4C200,332.9,199.9,333.3,199.9,333.8z"/>
		<path fill="#326DE6" d="M212.9,334.2c0,1-0.3,1.8-1,2.5s-1.5,1-2.6,1s-1.9-0.3-2.6-1s-1-1.5-1-2.5c0-1,0.3-1.8,1-2.5
			c0.7-0.7,1.5-1,2.6-1s1.9,0.3,2.6,1C212.5,332.4,212.9,333.2,212.9,334.2z M207.6,334.2c0,0.6,0.2,1,0.5,1.4
			c0.3,0.4,0.7,0.5,1.2,0.5c0.5,0,0.9-0.2,1.2-0.5c0.3-0.4,0.5-0.8,0.5-1.4s-0.2-1-0.5-1.4s-0.7-0.5-1.2-0.5c-0.5,0-0.9,0.2-1.2,0.5
			C207.7,333.2,207.6,333.6,207.6,334.2z"/>
		<path fill="#326DE6" d="M217,337.7c-0.8,0-1.5-0.3-2.2-1s-0.9-1.5-0.9-2.5c0-1,0.3-1.8,0.9-2.5c0.6-0.6,1.3-1,2.2-1s1.5,0.3,2,0.9
			v-3.3h1.9v9.4H219v-0.9C218.5,337.4,217.8,337.7,217,337.7z M215.8,334.2c0,0.5,0.2,1,0.5,1.3c0.3,0.4,0.7,0.5,1.2,0.5
			c0.4,0,0.8-0.2,1.1-0.5c0.3-0.4,0.5-0.8,0.5-1.4s-0.2-1-0.5-1.4c-0.3-0.4-0.7-0.6-1.1-0.6s-0.8,0.2-1.2,0.6
			C216,333.2,215.8,333.7,215.8,334.2z"/>
		<path fill="#326DE6" d="M228.6,336.6c-0.8,0.7-1.7,1.1-2.7,1.1s-1.9-0.3-2.6-1c-0.7-0.6-1-1.5-1-2.6s0.3-1.9,1-2.6
			c0.7-0.6,1.5-0.9,2.4-0.9s1.7,0.3,2.4,0.8c0.7,0.6,1,1.3,1,2.3v1h-5c0.1,0.4,0.3,0.7,0.6,0.9s0.7,0.4,1.1,0.4
			c0.7,0,1.2-0.2,1.6-0.7L228.6,336.6z M226.8,332.6c-0.3-0.2-0.6-0.3-1-0.3c-0.4,0-0.7,0.1-1,0.3c-0.3,0.2-0.5,0.5-0.5,0.9h3
			C227.2,333.1,227,332.8,226.8,332.6z"/>
		<path fill="#326DE6" d="M235.7,335.5c0,0.7-0.2,1.2-0.7,1.6s-1.1,0.6-1.9,0.6c-0.5,0-1-0.1-1.6-0.3c-0.5-0.2-1-0.4-1.5-0.8
			l0.8-1.2c0.7,0.5,1.5,0.8,2.3,0.8c0.2,0,0.4,0,0.6-0.1c0.1-0.1,0.2-0.2,0.2-0.4c0-0.2-0.1-0.3-0.3-0.4c-0.2-0.1-0.5-0.3-0.9-0.4
			s-0.7-0.2-0.9-0.3c-0.2-0.1-0.4-0.2-0.7-0.4c-0.5-0.3-0.8-0.8-0.8-1.4c0-0.6,0.3-1.1,0.8-1.5c0.5-0.4,1.2-0.6,2-0.6
			s1.6,0.3,2.4,0.8l-0.7,1.3c-0.6-0.4-1.2-0.6-1.8-0.6s-0.9,0.2-0.9,0.5c0,0.2,0.1,0.3,0.3,0.4s0.5,0.2,0.9,0.4
			c0.4,0.1,0.7,0.2,0.9,0.3c0.2,0.1,0.4,0.2,0.7,0.3C235.4,334.3,235.7,334.8,235.7,335.5z"/>
	</g>
	<path fill-rule="evenodd" clip-rule="evenodd" fill="none" stroke="#326DE6" stroke-width="1.239" stroke-miterlimit="10" d="
		M69.6,293.5v4.6c0,3,2.3,5.4,5.2,5.4h166.8c2.9,0,5.2-2.4,5.2-5.4v-4.6"/>
	<g>
		<path fill="#09C1D1" stroke="#FFFFFF" stroke-width="0.826" stroke-miterlimit="10" d="M133.1,120.4H97.4c-0.4,0-0.8-0.3-0.8-0.8
			V89.1c0-0.4,0.3-0.8,0.8-0.8h35.7c0.4,0,0.8,0.3,0.8,0.8v30.5C133.8,120,133.5,120.4,133.1,120.4z"/>
		<path fill="#09C1D1" stroke="#FFFFFF" stroke-width="0.826" stroke-miterlimit="10" d="M129.8,123.7H94.1c-0.4,0-0.8-0.3-0.8-0.8
			V92.4c0-0.4,0.3-0.8,0.8-0.8h35.7c0.4,0,0.8,0.3,0.8,0.8v30.5C130.5,123.3,130.2,123.7,129.8,123.7z"/>
	</g>
	<g>
		<path fill="#628EDD" stroke="#FFFFFF" stroke-width="0.826" stroke-miterlimit="10" d="M194.8,99.5h31c0.3,0,0.5,0.2,0.5,0.5v13.5
			c0,0.3-0.2,0.5-0.5,0.5h-31c-0.3,0-0.5-0.2-0.5-0.5V100C194.3,99.7,194.5,99.5,194.8,99.5z"/>
		<path fill="#628EDD" stroke="#FFFFFF" stroke-width="0.826" stroke-miterlimit="10" d="M191.5,102.6h31c0.3,0,0.5,0.2,0.5,0.5
			v13.5c0,0.3-0.2,0.5-0.5,0.5h-31c-0.3,0-0.5-0.2-0.5-0.5v-13.5C191,102.8,191.2,102.6,191.5,102.6z"/>
		<path fill="#628EDD" stroke="#FFFFFF" stroke-width="0.826" stroke-miterlimit="10" d="M188.2,105.9h31c0.3,0,0.5,0.2,0.5,0.5
			v13.5c0,0.3-0.2,0.5-0.5,0.5h-31c-0.3,0-0.5-0.2-0.5-0.5v-13.5C187.7,106.1,187.9,105.9,188.2,105.9z"/>
		<path fill="#628EDD" stroke="#FFFFFF" stroke-width="0.826" stroke-miterlimit="10" d="M184.9,109.2h31c0.3,0,0.5,0.2,0.5,0.5
			v13.5c0,0.3-0.2,0.5-0.5,0.5h-31c-0.3,0-0.5-0.2-0.5-0.5v-13.5C184.4,109.4,184.6,109.2,184.9,109.2z"/>
	</g>
	<g>
		<path fill="#09C1D1" stroke="#FFFFFF" stroke-width="0.826" stroke-miterlimit="10" d="M289.5,102.7v14.1c0,0.2-0.1,0.3-0.3,0.3
			h-13.8c-0.2,0-0.3-0.1-0.3-0.3v-14.1c0-0.2,0.1-0.3,0.3-0.3h13.8C289.3,102.4,289.5,102.5,289.5,102.7z"/>
		<path fill="#09C1D1" stroke="#FFFFFF" stroke-width="0.826" stroke-miterlimit="10" d="M286.2,106V120c0,0.2-0.1,0.3-0.3,0.3H272
			c-0.2,0-0.3-0.1-0.3-0.3V106c0-0.2,0.1-0.3,0.3-0.3h13.8C286,105.7,286.2,105.8,286.2,106z"/>
		<path fill="#09C1D1" stroke="#FFFFFF" stroke-width="0.826" stroke-miterlimit="10" d="M282.9,109.3v14.1c0,0.2-0.1,0.3-0.3,0.3
			h-13.8c-0.2,0-0.3-0.1-0.3-0.3v-14.1c0-0.2,0.1-0.3,0.3-0.3h13.8C282.7,109,282.9,109.1,282.9,109.3z"/>
	</g>
	<g>
		<path fill="#326DE6" d="M48.2,116.8H33.9c-0.2,0-0.3-0.1-0.3-0.3v-13.8c0-0.2,0.1-0.3,0.3-0.3h14.4c0.2,0,0.3,0.1,0.3,0.3v13.8
			C48.6,116.7,48.4,116.8,48.2,116.8z"/>
		<path fill="#326DE6" stroke="#FFFFFF" stroke-width="0.826" stroke-miterlimit="10" d="M45.7,120.1H31.3c-0.2,0-0.3-0.1-0.3-0.3
			V106c0-0.2,0.1-0.3,0.3-0.3h14.4c0.2,0,0.3,0.1,0.3,0.3v13.8C46,120,45.8,120.1,45.7,120.1z"/>
		<path fill="#326DE6" stroke="#FFFFFF" stroke-width="0.826" stroke-miterlimit="10" d="M42.8,123.7H28.4c-0.2,0-0.3-0.1-0.3-0.3
			v-13.8c0-0.2,0.1-0.3,0.3-0.3h14.4c0.2,0,0.3,0.1,0.3,0.3v13.8C43.1,123.5,42.9,123.7,42.8,123.7z"/>
	</g>
	<g>
		<polygon fill="#BADBDB" points="116.5,156.8 115.3,158 72.4,113.3 70.7,111.5 70.7,79.1 72.4,79.1 72.4,110.9 		"/>
		<g>
			<g>
				
					<rect x="115.9" y="160.9" transform="matrix(0.9955 -9.477451e-002 9.477451e-002 0.9955 -14.7918 11.9632)" fill="#BADBDB" width="5.3" height="1.7"/>
			</g>
			<g>
				<g>
					
						<rect x="119.3" y="157.1" transform="matrix(0.9955 -9.477451e-002 9.477451e-002 0.9955 -14.5977 12.1086)" fill="#BADBDB" width="1.7" height="5.3"/>
				</g>
			</g>
		</g>
	</g>
	<g>
		<polygon fill="#BADBDB" points="200.7,156.8 201.9,158 244.8,113.3 246.4,111.5 246.4,79.1 244.8,79.1 244.8,110.9 		"/>
		<g>
			<g>
				
					<rect x="196" y="160.9" transform="matrix(-0.9955 -9.477451e-002 9.477451e-002 -0.9955 380.964 341.5004)" fill="#BADBDB" width="5.3" height="1.7"/>
			</g>
			<g>
				<g>
					
						<rect x="196.1" y="157.1" transform="matrix(-0.9955 -9.477451e-002 9.477451e-002 -0.9955 377.903 337.415)" fill="#BADBDB" width="1.7" height="5.3"/>
				</g>
			</g>
		</g>
	</g>
	<g>
		
			<rect x="146.5" y="78.2" transform="matrix(0.9483 -0.3173 0.3173 0.9483 -26.5535 52.3126)" fill="#BADBDB" width="1.7" height="59"/>
		<g>
			<g>
				
					<rect x="154.3" y="139.4" transform="matrix(0.9163 0.4004 -0.4004 0.9163 69.2687 -51.1291)" fill="#BFDEDE" width="5.3" height="1.7"/>
			</g>
			<g>
				<g>
					
						<rect x="158.5" y="136.6" transform="matrix(0.9163 0.4004 -0.4004 0.9163 69.0945 -52.1599)" fill="#BFDEDE" width="1.7" height="5.3"/>
				</g>
			</g>
		</g>
	</g>
	<g>
		
			<rect x="178.4" y="78.2" transform="matrix(-0.9488 -0.3159 0.3159 -0.9488 315.3358 266.5001)" fill="#BADBDB" width="1.7" height="59"/>
		<g>
			<g>
				
					<rect x="167.1" y="139.4" transform="matrix(-0.9158 0.4017 -0.4017 -0.9158 381.4068 200.4137)" fill="#BFDEDE" width="5.3" height="1.7"/>
			</g>
			<g>
				<g>
					
						<rect x="166.5" y="136.6" transform="matrix(-0.9158 0.4017 -0.4017 -0.9158 376.473 199.5904)" fill="#BFDEDE" width="1.7" height="5.3"/>
				</g>
			</g>
		</g>
	</g>
</g>
</svg>
