<?xml version="1.0" encoding="utf-8"?>
<!-- Generator: Adobe Illustrator 18.0.0, SVG Export Plug-In . SVG Version: 6.00 Build 0)  -->
<!DOCTYPE svg PUBLIC "-//W3C//DTD SVG 1.1//EN" "http://www.w3.org/Graphics/SVG/1.1/DTD/svg11.dtd">
<svg version="1.1" xmlns="http://www.w3.org/2000/svg" xmlns:xlink="http://www.w3.org/1999/xlink" x="0px" y="0px"
	 viewBox="0 0 320 557" enable-background="new 0 0 320 557" xml:space="preserve">
<g id="Layer_1">
</g>
<g id="Layer_2">
	
		<rect x="175.9" y="203.5" transform="matrix(0.6752 -0.7376 0.7376 0.6752 -132.7179 214.5315)" fill="#BADBDB" width="2.7" height="108.9"/>
	
		<rect x="137.8" y="203.5" transform="matrix(-0.6752 -0.7376 0.7376 -0.6752 42.767 534.7963)" fill="#BADBDB" width="2.7" height="108.9"/>
	
		<rect x="118.5" y="387.7" transform="matrix(0.8541 -0.5201 0.5201 0.8541 -199.0685 123.0497)" fill="#BADBDB" width="2.7" height="57.3"/>
	
		<rect x="90" y="387.8" transform="matrix(0.8541 0.5201 -0.5201 0.8541 229.8803 13.2484)" fill="#BADBDB" width="2.7" height="57.3"/>
	
		<rect x="227.5" y="387.7" transform="matrix(0.8541 -0.5201 0.5201 0.8541 -183.1612 179.7589)" fill="#BADBDB" width="2.7" height="57.3"/>
	
		<rect x="199" y="387.8" transform="matrix(0.8541 0.5201 -0.5201 0.8541 245.7876 -43.4608)" fill="#BADBDB" width="2.7" height="57.3"/>
	<g>
		<path fill="#326DE6" d="M137.7,537.9h1.9v3c-0.8,0.9-2,1.4-3.5,1.4c-1.2,0-2.3-0.4-3.1-1.2s-1.3-1.8-1.3-3.1s0.4-2.3,1.3-3.1
			c0.9-0.8,1.9-1.2,3.1-1.2s2.3,0.4,3.1,1.2l-1,1.4c-0.4-0.3-0.7-0.6-1-0.7s-0.7-0.2-1-0.2c-0.7,0-1.3,0.2-1.8,0.7s-0.7,1.1-0.7,1.9
			s0.2,1.4,0.7,1.9c0.5,0.5,1,0.7,1.7,0.7c0.6,0,1.2-0.1,1.6-0.4V537.9z"/>
		<path fill="#326DE6" d="M144.4,537.3c-0.5,0-0.9,0.2-1.2,0.6s-0.4,0.9-0.4,1.5v2.8H141v-6.5h1.8v0.9c0.2-0.3,0.5-0.5,0.9-0.7
			c0.3-0.2,0.7-0.3,1.1-0.3l0,1.7H144.4z"/>
		<path fill="#326DE6" d="M152.3,538.9c0,0.9-0.3,1.7-1,2.4c-0.6,0.6-1.5,1-2.4,1c-1,0-1.8-0.3-2.4-1c-0.6-0.6-1-1.4-1-2.4
			c0-0.9,0.3-1.7,1-2.4c0.6-0.6,1.5-1,2.4-1c1,0,1.8,0.3,2.4,1C152,537.2,152.3,538,152.3,538.9z M147.3,538.9c0,0.5,0.2,1,0.5,1.3
			c0.3,0.3,0.7,0.5,1.2,0.5c0.5,0,0.9-0.2,1.2-0.5c0.3-0.3,0.5-0.8,0.5-1.3c0-0.5-0.2-1-0.5-1.3s-0.7-0.5-1.2-0.5
			c-0.5,0-0.9,0.2-1.2,0.5S147.3,538.4,147.3,538.9z"/>
		<path fill="#326DE6" d="M157.8,539.2v-3.5h1.8v6.5h-1.8v-0.9c-0.4,0.6-1,0.9-1.7,0.9s-1.3-0.2-1.8-0.7c-0.5-0.4-0.7-1.1-0.7-2
			v-3.9h1.8v3.5c0,1,0.4,1.5,1.1,1.5c0.4,0,0.7-0.1,0.9-0.4S157.8,539.7,157.8,539.2z"/>
		<path fill="#326DE6" d="M165.1,535.6c0.8,0,1.4,0.3,2,0.9s0.9,1.4,0.9,2.4s-0.3,1.7-0.9,2.4c-0.6,0.6-1.3,1-2.1,1
			s-1.4-0.3-1.9-0.9v3.2h-1.8v-8.8h1.8v0.7C163.7,535.8,164.4,535.6,165.1,535.6z M163.1,538.9c0,0.5,0.1,1,0.4,1.3
			c0.3,0.3,0.6,0.5,1.1,0.5s0.8-0.2,1.1-0.5c0.3-0.3,0.5-0.8,0.5-1.3c0-0.5-0.2-1-0.5-1.3c-0.3-0.4-0.7-0.5-1.1-0.5
			s-0.8,0.2-1.1,0.5C163.3,537.9,163.1,538.4,163.1,538.9z"/>
		<path fill="#326DE6" d="M169.5,534.9c-0.2-0.2-0.3-0.5-0.3-0.8s0.1-0.5,0.3-0.8s0.5-0.3,0.8-0.3s0.5,0.1,0.8,0.3s0.3,0.5,0.3,0.8
			s-0.1,0.5-0.3,0.8s-0.5,0.3-0.8,0.3S169.7,535.1,169.5,534.9z M171.1,542.1h-1.8v-6.5h1.8V542.1z"/>
		<path fill="#326DE6" d="M174.6,538.5v3.6h-1.8v-6.5h1.8v0.7c0.5-0.6,1.2-0.8,1.8-0.8c0.7,0,1.3,0.2,1.7,0.7
			c0.5,0.5,0.7,1.1,0.7,1.9v3.9h-1.8v-3.6c0-1-0.4-1.5-1.1-1.5c-0.4,0-0.7,0.1-0.9,0.4C174.8,537.6,174.6,538,174.6,538.5z"/>
		<path fill="#326DE6" d="M185.3,541c-0.6,0.6-1.3,0.9-2.1,0.9s-1.6-0.3-2.1-0.9s-0.9-1.3-0.9-2.3s0.3-1.7,0.9-2.4
			c0.6-0.6,1.3-0.9,2-0.9c0.8,0,1.4,0.3,1.9,0.9v-0.9h1.8v5.6c0,0.6-0.1,1.1-0.3,1.5c-0.2,0.4-0.5,0.8-0.8,1.1
			c-0.7,0.5-1.4,0.8-2.4,0.8c-0.5,0-1-0.1-1.5-0.2c-0.5-0.2-0.9-0.4-1.3-0.7l0.7-1.4c0.6,0.4,1.2,0.7,1.9,0.7s1.2-0.2,1.6-0.5
			S185.3,541.8,185.3,541z M185,538.8c0-0.5-0.1-0.9-0.4-1.2s-0.6-0.4-1.1-0.4s-0.8,0.1-1.1,0.4c-0.3,0.3-0.5,0.7-0.5,1.2
			s0.1,0.9,0.4,1.2c0.3,0.3,0.7,0.5,1.1,0.5c0.4,0,0.8-0.2,1.1-0.5C184.9,539.7,185,539.3,185,538.8z"/>
	</g>
	<rect x="55.2" y="338.1" fill-rule="evenodd" clip-rule="evenodd" fill="#BADBDB" width="3" height="5.1"/>
	<rect x="55.2" y="310.3" fill-rule="evenodd" clip-rule="evenodd" fill="#BADBDB" width="3" height="5.1"/>
	<rect x="55.2" y="319.6" fill-rule="evenodd" clip-rule="evenodd" fill="#BADBDB" width="3" height="5.1"/>
	<rect x="55.2" y="328.8" fill-rule="evenodd" clip-rule="evenodd" fill="#BADBDB" width="3" height="5.1"/>
	<path fill-rule="evenodd" clip-rule="evenodd" fill="#BADBDB" d="M55.4,287.6l3,0.5c0,0,0-0.3,0.1-0.7c0.1-0.4,0.2-1,0.4-1.5
		c0.3-1.1,0.9-2.1,0.9-2.1l-2.7-1.5c0,0-0.7,1.2-1.1,2.5c-0.2,0.7-0.4,1.3-0.5,1.8C55.4,287.2,55.4,287.6,55.4,287.6z"/>
	<rect x="55.2" y="291.8" fill-rule="evenodd" clip-rule="evenodd" fill="#BADBDB" width="3" height="5.1"/>
	<rect x="55.2" y="301" fill-rule="evenodd" clip-rule="evenodd" fill="#BADBDB" width="3" height="5.1"/>
	<rect x="77.7" y="274" fill-rule="evenodd" clip-rule="evenodd" fill="#BADBDB" width="5.1" height="3"/>
	<path fill-rule="evenodd" clip-rule="evenodd" fill="#BADBDB" d="M68.3,274.3l0.6,3c0,0,0.3,0,0.7-0.1c0.4-0.1,1-0.1,1.5-0.1
		c1.3,0,2.5,0,2.5,0v-3c0,0-1.3,0-2.6,0c-0.7,0-1.4,0-1.9,0.1C68.6,274.2,68.3,274.3,68.3,274.3z"/>
	<path fill-rule="evenodd" clip-rule="evenodd" fill="#BADBDB" d="M59.7,278.8l2.2,2.1c0,0,0.8-0.8,1.7-1.5c0.4-0.4,0.9-0.6,1.3-0.8
		c0.4-0.2,0.6-0.3,0.6-0.3l-1.4-2.7c0,0-0.3,0.2-0.8,0.4c-0.4,0.3-1.1,0.6-1.6,1C60.7,277.8,59.7,278.8,59.7,278.8z"/>
	<rect x="125" y="274" fill-rule="evenodd" clip-rule="evenodd" fill="#BADBDB" width="5.1" height="3"/>
	<rect x="105.8" y="274" fill-rule="evenodd" clip-rule="evenodd" fill="#BADBDB" width="5.1" height="3"/>
	<rect x="87" y="274" fill-rule="evenodd" clip-rule="evenodd" fill="#BADBDB" width="5.1" height="3"/>
	<rect x="97" y="274" fill-rule="evenodd" clip-rule="evenodd" fill="#BADBDB" width="5.1" height="3"/>
	<rect x="142.8" y="274" fill-rule="evenodd" clip-rule="evenodd" fill="#BADBDB" width="5.1" height="3"/>
	<rect x="133.5" y="274" fill-rule="evenodd" clip-rule="evenodd" fill="#BADBDB" width="5.1" height="3"/>
	<rect x="170.5" y="274" fill-rule="evenodd" clip-rule="evenodd" fill="#BADBDB" width="5.1" height="3"/>
	<rect x="161.3" y="274" fill-rule="evenodd" clip-rule="evenodd" fill="#BADBDB" width="5.1" height="3"/>
	<rect x="152.1" y="274" fill-rule="evenodd" clip-rule="evenodd" fill="#BADBDB" width="5.1" height="3"/>
	<rect x="207.2" y="274" fill-rule="evenodd" clip-rule="evenodd" fill="#BADBDB" width="5.1" height="3"/>
	<rect x="179.8" y="274" fill-rule="evenodd" clip-rule="evenodd" fill="#BADBDB" width="5.1" height="3"/>
	<rect x="236.2" y="274" fill-rule="evenodd" clip-rule="evenodd" fill="#BADBDB" width="5.1" height="3"/>
	<rect x="227" y="274" fill-rule="evenodd" clip-rule="evenodd" fill="#BADBDB" width="5.1" height="3"/>
	<rect x="217.8" y="274" fill-rule="evenodd" clip-rule="evenodd" fill="#BADBDB" width="5.1" height="3"/>
	<path fill-rule="evenodd" clip-rule="evenodd" fill="#BADBDB" d="M262,282.4l-2.7,1.5c0,0,0.5,1,0.9,2.1c0.2,0.5,0.3,1.1,0.4,1.5
		c0.1,0.4,0.1,0.7,0.1,0.7l3-0.5c0,0-0.1-0.3-0.1-0.9c-0.1-0.5-0.3-1.2-0.5-1.8C262.6,283.6,262,282.4,262,282.4z"/>
	<path fill-rule="evenodd" clip-rule="evenodd" fill="#BADBDB" d="M255,275.7l-1.4,2.7c0,0,1,0.5,1.9,1.2c0.9,0.6,1.7,1.5,1.7,1.5
		l2.2-2.1c0,0-0.9-1-2.1-1.8C256.2,276.2,255,275.7,255,275.7z"/>
	<path fill-rule="evenodd" clip-rule="evenodd" fill="#BADBDB" d="M245.5,274v3c0,0,1.3,0,2.5,0c1.1,0,2.2,0.2,2.2,0.2l0.6-3
		c0,0-1.4-0.2-2.7-0.3C246.8,274,245.5,274,245.5,274z"/>
	<rect x="260.8" y="310.4" fill-rule="evenodd" clip-rule="evenodd" fill="#BADBDB" width="3" height="5.1"/>
	<rect x="260.8" y="301.1" fill-rule="evenodd" clip-rule="evenodd" fill="#BADBDB" width="3" height="5.1"/>
	<rect x="260.8" y="291.9" fill-rule="evenodd" clip-rule="evenodd" fill="#BADBDB" width="3" height="5.1"/>
	<rect x="260.8" y="338.1" fill-rule="evenodd" clip-rule="evenodd" fill="#BADBDB" width="3" height="5.1"/>
	<rect x="260.8" y="328.9" fill-rule="evenodd" clip-rule="evenodd" fill="#BADBDB" width="3" height="5.1"/>
	<rect x="260.8" y="319.7" fill-rule="evenodd" clip-rule="evenodd" fill="#BADBDB" width="3" height="5.1"/>
	<path fill-rule="evenodd" clip-rule="evenodd" fill="#BADBDB" d="M263.7,351.5l-3-0.5c0,0,0,0.3-0.1,0.7c-0.1,0.4-0.2,1-0.4,1.5
		c-0.3,1.1-0.9,2.1-0.9,2.1l2.7,1.5c0,0,0.7-1.2,1.1-2.5c0.2-0.7,0.4-1.3,0.5-1.8C263.6,351.8,263.7,351.5,263.7,351.5z"/>
	<rect x="236.2" y="362" fill-rule="evenodd" clip-rule="evenodd" fill="#BADBDB" width="5.1" height="3"/>
	<rect x="227.2" y="362" fill-rule="evenodd" clip-rule="evenodd" fill="#BADBDB" width="5.1" height="3"/>
	<path fill-rule="evenodd" clip-rule="evenodd" fill="#BADBDB" d="M250.8,364.8l-0.6-3c0,0-0.3,0-0.7,0.1c-0.4,0.1-1,0.1-1.5,0.1
		c-1.3,0-2.5,0-2.5,0v3c0,0,1.3,0,2.6,0c0.7,0,1.4,0,1.9-0.1C250.4,364.8,250.8,364.8,250.8,364.8z"/>
	<path fill-rule="evenodd" clip-rule="evenodd" fill="#BADBDB" d="M259.3,360.2l-2.2-2.1c0,0-0.8,0.8-1.7,1.5
		c-0.4,0.4-0.9,0.6-1.3,0.8c-0.4,0.2-0.6,0.3-0.6,0.3l1.4,2.7c0,0,0.3-0.2,0.8-0.4c0.4-0.3,1.1-0.6,1.6-1
		C258.4,361.2,259.3,360.2,259.3,360.2z"/>
	<rect x="198.2" y="362" fill-rule="evenodd" clip-rule="evenodd" fill="#BADBDB" width="5.1" height="3"/>
	<rect x="170.5" y="362" fill-rule="evenodd" clip-rule="evenodd" fill="#BADBDB" width="5.1" height="3"/>
	<rect x="179.7" y="362" fill-rule="evenodd" clip-rule="evenodd" fill="#BADBDB" width="5.1" height="3"/>
	<rect x="188.9" y="362" fill-rule="evenodd" clip-rule="evenodd" fill="#BADBDB" width="5.1" height="3"/>
	<rect x="142.7" y="362" fill-rule="evenodd" clip-rule="evenodd" fill="#BADBDB" width="5.1" height="3"/>
	<rect x="152" y="362" fill-rule="evenodd" clip-rule="evenodd" fill="#BADBDB" width="5.1" height="3"/>
	<rect x="161.2" y="362" fill-rule="evenodd" clip-rule="evenodd" fill="#BADBDB" width="5.1" height="3"/>
	<rect x="115" y="362" fill-rule="evenodd" clip-rule="evenodd" fill="#BADBDB" width="5.1" height="3"/>
	<rect x="124.2" y="362" fill-rule="evenodd" clip-rule="evenodd" fill="#BADBDB" width="5.1" height="3"/>
	<rect x="133.4" y="362" fill-rule="evenodd" clip-rule="evenodd" fill="#BADBDB" width="5.1" height="3"/>
	<rect x="77.7" y="362" fill-rule="evenodd" clip-rule="evenodd" fill="#BADBDB" width="5.1" height="3"/>
	<rect x="86.9" y="362" fill-rule="evenodd" clip-rule="evenodd" fill="#BADBDB" width="5.1" height="3"/>
	<rect x="97" y="362" fill-rule="evenodd" clip-rule="evenodd" fill="#BADBDB" width="5.1" height="3"/>
	<path fill-rule="evenodd" clip-rule="evenodd" fill="#BADBDB" d="M57.1,356.6l2.7-1.5c0,0-0.5-1-0.9-2.1c-0.2-0.5-0.3-1.1-0.4-1.5
		c-0.1-0.4-0.1-0.7-0.1-0.7l-3,0.5c0,0,0.1,0.3,0.1,0.9c0.1,0.5,0.3,1.2,0.5,1.8C56.4,355.4,57.1,356.6,57.1,356.6z"/>
	<path fill-rule="evenodd" clip-rule="evenodd" fill="#BADBDB" d="M64.1,363.4l1.4-2.7c0,0-1-0.5-1.9-1.2c-0.9-0.6-1.7-1.5-1.7-1.5
		l-2.2,2.1c0,0,0.9,1,2.1,1.8C62.8,362.8,64.1,363.4,64.1,363.4z"/>
	<path fill-rule="evenodd" clip-rule="evenodd" fill="#BADBDB" d="M73.5,365v-3c0,0-1.3,0-2.5,0c-1.1,0-2.2-0.2-2.2-0.2l-0.6,3
		c0,0,1.4,0.2,2.7,0.3C72.2,365,73.5,365,73.5,365z"/>
	<rect x="35.2" y="496" fill-rule="evenodd" clip-rule="evenodd" fill="#BADBDB" width="3" height="5.1"/>
	<rect x="35.2" y="504.7" fill-rule="evenodd" clip-rule="evenodd" fill="#BADBDB" width="3" height="5.1"/>
	<rect x="35.2" y="513.5" fill-rule="evenodd" clip-rule="evenodd" fill="#BADBDB" width="3" height="5.1"/>
	<rect x="35.2" y="522.2" fill-rule="evenodd" clip-rule="evenodd" fill="#BADBDB" width="3" height="5.1"/>
	<rect x="35.2" y="531" fill-rule="evenodd" clip-rule="evenodd" fill="#BADBDB" width="3" height="5.1"/>
	<rect x="35.2" y="469.7" fill-rule="evenodd" clip-rule="evenodd" fill="#BADBDB" width="3" height="5.1"/>
	<rect x="35.2" y="478.5" fill-rule="evenodd" clip-rule="evenodd" fill="#BADBDB" width="3" height="5.1"/>
	<rect x="35.2" y="487.2" fill-rule="evenodd" clip-rule="evenodd" fill="#BADBDB" width="3" height="5.1"/>
	<rect x="35.2" y="443.5" fill-rule="evenodd" clip-rule="evenodd" fill="#BADBDB" width="3" height="5.1"/>
	<rect x="35.2" y="452.2" fill-rule="evenodd" clip-rule="evenodd" fill="#BADBDB" width="3" height="5.1"/>
	<rect x="35.2" y="461" fill-rule="evenodd" clip-rule="evenodd" fill="#BADBDB" width="3" height="5.1"/>
	<path fill-rule="evenodd" clip-rule="evenodd" fill="#BADBDB" d="M35.2,422.3h3l0-5l-3-0.1c0,0,0,0.3,0,0.8c0,0.5,0,1.1,0,1.8
		C35.2,421.1,35.2,422.3,35.2,422.3z"/>
	<rect x="35.2" y="426" fill-rule="evenodd" clip-rule="evenodd" fill="#BADBDB" width="3" height="5.1"/>
	<rect x="35.2" y="434.7" fill-rule="evenodd" clip-rule="evenodd" fill="#BADBDB" width="3" height="5.1"/>
	<path fill-rule="evenodd" clip-rule="evenodd" fill="#BADBDB" d="M50.5,401.7l0.2,3c0,0,0.3,0,0.7,0c0.5,0,1.1,0,1.7,0
		c1.3,0,2.6,0,2.6,0v-3c0,0-1.3,0-2.6,0c-0.6,0-1.3,0-1.8,0C50.8,401.7,50.5,401.7,50.5,401.7z"/>
	<path fill-rule="evenodd" clip-rule="evenodd" fill="#BADBDB" d="M41.4,405l1.9,2.4c0,0,0.2-0.2,0.6-0.4c0.4-0.2,0.8-0.5,1.3-0.8
		c1-0.5,2-0.9,2-0.9l-1-2.9c0,0-1.3,0.4-2.5,1.1c-0.6,0.3-1.2,0.7-1.6,1C41.7,404.8,41.4,405,41.4,405z"/>
	<path fill-rule="evenodd" clip-rule="evenodd" fill="#BADBDB" d="M35.9,412.8l2.9,0.9c0,0,0.1-0.3,0.2-0.7c0.1-0.4,0.4-0.9,0.6-1.4
		c0.2-0.5,0.6-1,0.8-1.3c0.2-0.3,0.4-0.6,0.4-0.6l-2.4-1.8c0,0-0.2,0.3-0.5,0.7c-0.3,0.4-0.7,1-0.9,1.6c-0.3,0.6-0.6,1.2-0.7,1.7
		C36,412.5,35.9,412.8,35.9,412.8z"/>
	<rect x="80.2" y="401.7" fill-rule="evenodd" clip-rule="evenodd" fill="#BADBDB" width="5.1" height="3"/>
	<rect x="70" y="401.7" fill-rule="evenodd" clip-rule="evenodd" fill="#BADBDB" width="5.1" height="3"/>
	<rect x="59.8" y="401.7" fill-rule="evenodd" clip-rule="evenodd" fill="#BADBDB" width="5.1" height="3"/>
	<rect x="133.6" y="401.7" fill-rule="evenodd" clip-rule="evenodd" fill="#BADBDB" width="5.1" height="3"/>
	<rect x="123.9" y="401.7" fill-rule="evenodd" clip-rule="evenodd" fill="#BADBDB" width="5.1" height="3"/>
	<rect x="162.9" y="401.7" fill-rule="evenodd" clip-rule="evenodd" fill="#BADBDB" width="5.1" height="3"/>
	<rect x="153.1" y="401.7" fill-rule="evenodd" clip-rule="evenodd" fill="#BADBDB" width="5.1" height="3"/>
	<rect x="143.4" y="401.7" fill-rule="evenodd" clip-rule="evenodd" fill="#BADBDB" width="5.1" height="3"/>
	<rect x="192.1" y="401.7" fill-rule="evenodd" clip-rule="evenodd" fill="#BADBDB" width="5.1" height="3"/>
	<rect x="182.3" y="401.7" fill-rule="evenodd" clip-rule="evenodd" fill="#BADBDB" width="5.1" height="3"/>
	<rect x="172.6" y="401.7" fill-rule="evenodd" clip-rule="evenodd" fill="#BADBDB" width="5.1" height="3"/>
	<rect x="243.1" y="401.7" fill-rule="evenodd" clip-rule="evenodd" fill="#BADBDB" width="5.1" height="3"/>
	<rect x="233.9" y="401.7" fill-rule="evenodd" clip-rule="evenodd" fill="#BADBDB" width="5.1" height="3"/>
	<rect x="261.4" y="401.7" fill-rule="evenodd" clip-rule="evenodd" fill="#BADBDB" width="5.1" height="3"/>
	<rect x="252.3" y="401.7" fill-rule="evenodd" clip-rule="evenodd" fill="#BADBDB" width="5.1" height="3"/>
	<path fill-rule="evenodd" clip-rule="evenodd" fill="#BADBDB" d="M271.8,401.9l-0.5,3c0,0,0.3,0,0.7,0.1c0.4,0.1,1,0.2,1.5,0.4
		c0.5,0.2,1,0.4,1.4,0.6c0.4,0.2,0.6,0.3,0.6,0.3l1.5-2.7c0,0-0.3-0.1-0.8-0.4c-0.5-0.2-1.1-0.5-1.7-0.7c-0.6-0.2-1.3-0.4-1.8-0.5
		C272.1,402,271.8,401.9,271.8,401.9z"/>
	<rect x="282.1" y="424.1" fill-rule="evenodd" clip-rule="evenodd" fill="#BADBDB" width="3" height="5.1"/>
	<path fill-rule="evenodd" clip-rule="evenodd" fill="#BADBDB" d="M284.9,414.8l-3,0.6c0,0,0.2,1.1,0.2,2.2c0,1.2,0,2.5,0,2.5h3
		c0,0,0-1.3,0-2.6c0-0.7,0-1.4-0.1-1.9C284.9,415.1,284.9,414.8,284.9,414.8z"/>
	<path fill-rule="evenodd" clip-rule="evenodd" fill="#BADBDB" d="M280.4,406.2l-2.1,2.2c0,0,0.2,0.2,0.5,0.5c0.3,0.3,0.6,0.7,1,1.2
		c0.3,0.4,0.6,0.9,0.8,1.3c0.2,0.4,0.3,0.6,0.3,0.6l2.7-1.4c0,0-0.2-0.3-0.4-0.8c-0.3-0.4-0.6-1-1-1.6c-0.4-0.6-0.8-1.1-1.2-1.5
		C280.7,406.5,280.4,406.2,280.4,406.2z"/>
	<rect x="282.1" y="451.6" fill-rule="evenodd" clip-rule="evenodd" fill="#BADBDB" width="3" height="5.1"/>
	<rect x="282.1" y="442.5" fill-rule="evenodd" clip-rule="evenodd" fill="#BADBDB" width="3" height="5.1"/>
	<rect x="282.1" y="433.3" fill-rule="evenodd" clip-rule="evenodd" fill="#BADBDB" width="3" height="5.1"/>
	<rect x="282.1" y="479.1" fill-rule="evenodd" clip-rule="evenodd" fill="#BADBDB" width="3" height="5.1"/>
	<rect x="282.1" y="470" fill-rule="evenodd" clip-rule="evenodd" fill="#BADBDB" width="3" height="5.1"/>
	<rect x="282.1" y="460.8" fill-rule="evenodd" clip-rule="evenodd" fill="#BADBDB" width="3" height="5.1"/>
	<rect x="282.1" y="506.6" fill-rule="evenodd" clip-rule="evenodd" fill="#BADBDB" width="3" height="5.1"/>
	<rect x="282.1" y="497.5" fill-rule="evenodd" clip-rule="evenodd" fill="#BADBDB" width="3" height="5.1"/>
	<rect x="282.1" y="488.3" fill-rule="evenodd" clip-rule="evenodd" fill="#BADBDB" width="3" height="5.1"/>
	<path fill-rule="evenodd" clip-rule="evenodd" fill="#BADBDB" d="M282.3,549.2l-2.5-1.8c0,0-0.6,0.9-1.4,1.7
		c-0.8,0.8-1.7,1.4-1.7,1.4l1.8,2.5c0,0,1.1-0.8,2.1-1.8C281.5,550.3,282.3,549.2,282.3,549.2z"/>
	<path fill-rule="evenodd" clip-rule="evenodd" fill="#BADBDB" d="M285.1,540l-3,0c0,0,0,0.3,0,0.7c0,0.4,0,1-0.1,1.5
		c-0.2,1.1-0.5,2.2-0.5,2.2l2.9,1c0,0,0.5-1.3,0.7-2.6c0.1-0.7,0.2-1.4,0.2-1.9C285.1,540.3,285.1,540,285.1,540z"/>
	<rect x="282.1" y="515.8" fill-rule="evenodd" clip-rule="evenodd" fill="#BADBDB" width="3" height="5.1"/>
	<rect x="282.1" y="522.7" fill-rule="evenodd" clip-rule="evenodd" fill="#BADBDB" width="3" height="5.1"/>
	<rect x="282.1" y="531.9" fill-rule="evenodd" clip-rule="evenodd" fill="#BADBDB" width="3" height="5.1"/>
	<path fill-rule="evenodd" clip-rule="evenodd" fill="#BADBDB" d="M274.6,555.1l-1.1-2.9c0,0-1,0.4-2.1,0.6
		c-0.5,0.1-1.1,0.2-1.5,0.2c-0.4,0-0.7,0-0.7,0l0.1,3c0,0,0.3,0,0.9,0c0.5,0,1.2-0.1,1.9-0.2C273.3,555.6,274.6,555.1,274.6,555.1z"
		/>
	<rect x="249.9" y="553" fill-rule="evenodd" clip-rule="evenodd" fill="#BADBDB" width="5.1" height="3"/>
	<rect x="259.1" y="553" fill-rule="evenodd" clip-rule="evenodd" fill="#BADBDB" width="5.1" height="3"/>
	<rect x="222.4" y="553" fill-rule="evenodd" clip-rule="evenodd" fill="#BADBDB" width="5.1" height="3"/>
	<rect x="231.6" y="553" fill-rule="evenodd" clip-rule="evenodd" fill="#BADBDB" width="5.1" height="3"/>
	<rect x="240.7" y="553" fill-rule="evenodd" clip-rule="evenodd" fill="#BADBDB" width="5.1" height="3"/>
	<rect x="194.9" y="553" fill-rule="evenodd" clip-rule="evenodd" fill="#BADBDB" width="5.1" height="3"/>
	<rect x="204.1" y="553" fill-rule="evenodd" clip-rule="evenodd" fill="#BADBDB" width="5.1" height="3"/>
	<rect x="213.2" y="553" fill-rule="evenodd" clip-rule="evenodd" fill="#BADBDB" width="5.1" height="3"/>
	<rect x="167.4" y="553" fill-rule="evenodd" clip-rule="evenodd" fill="#BADBDB" width="5.1" height="3"/>
	<rect x="176.6" y="553" fill-rule="evenodd" clip-rule="evenodd" fill="#BADBDB" width="5.1" height="3"/>
	<rect x="185.7" y="553" fill-rule="evenodd" clip-rule="evenodd" fill="#BADBDB" width="5.1" height="3"/>
	<rect x="139.9" y="553" fill-rule="evenodd" clip-rule="evenodd" fill="#BADBDB" width="5.1" height="3"/>
	<rect x="149.1" y="553" fill-rule="evenodd" clip-rule="evenodd" fill="#BADBDB" width="5.1" height="3"/>
	<rect x="158.2" y="553" fill-rule="evenodd" clip-rule="evenodd" fill="#BADBDB" width="5.1" height="3"/>
	<rect x="112.4" y="553" fill-rule="evenodd" clip-rule="evenodd" fill="#BADBDB" width="5.1" height="3"/>
	<rect x="121.6" y="553" fill-rule="evenodd" clip-rule="evenodd" fill="#BADBDB" width="5.1" height="3"/>
	<rect x="130.7" y="553" fill-rule="evenodd" clip-rule="evenodd" fill="#BADBDB" width="5.1" height="3"/>
	<rect x="84.9" y="553" fill-rule="evenodd" clip-rule="evenodd" fill="#BADBDB" width="5.1" height="3"/>
	<rect x="94.1" y="553" fill-rule="evenodd" clip-rule="evenodd" fill="#BADBDB" width="5.1" height="3"/>
	<rect x="103.2" y="553" fill-rule="evenodd" clip-rule="evenodd" fill="#BADBDB" width="5.1" height="3"/>
	<rect x="57.4" y="553" fill-rule="evenodd" clip-rule="evenodd" fill="#BADBDB" width="5.1" height="3"/>
	<rect x="66.6" y="553" fill-rule="evenodd" clip-rule="evenodd" fill="#BADBDB" width="5.1" height="3"/>
	<rect x="75.7" y="553" fill-rule="evenodd" clip-rule="evenodd" fill="#BADBDB" width="5.1" height="3"/>
	<path fill-rule="evenodd" clip-rule="evenodd" fill="#BADBDB" d="M37,547.6l2.7-1.5c0,0-0.5-1-0.9-2c-0.2-0.5-0.3-1.1-0.4-1.5
		c-0.1-0.4-0.1-0.7-0.1-0.7l-3,0.5c0,0,0.1,0.3,0.1,0.8c0.1,0.5,0.3,1.2,0.5,1.8C36.4,546.4,37,547.6,37,547.6z"/>
	<path fill-rule="evenodd" clip-rule="evenodd" fill="#BADBDB" d="M43.9,554.3l1.4-2.7c0,0-1-0.5-1.9-1.2c-0.9-0.6-1.7-1.5-1.7-1.5
		l-2.2,2.1c0,0,0.9,1,2,1.8C42.7,553.7,43.9,554.3,43.9,554.3z"/>
	<path fill-rule="evenodd" clip-rule="evenodd" fill="#BADBDB" d="M53.3,556v-3c0,0-1.2,0-2.5,0c-1.1,0-2.2-0.2-2.2-0.2l-0.6,3
		c0,0,1.3,0.3,2.7,0.3C52,556,53.3,556,53.3,556z"/>
	<path fill="#09C1D1" d="M255.1,521.4h-80.8c-6.1,0-11.1-5-11.1-11.1v-80.1c0-6.1,5-11.1,11.1-11.1h80.8c6.1,0,11.1,5,11.1,11.1
		v80.1C266.2,516.4,261.3,521.4,255.1,521.4z"/>
	<path fill="#E6F4F5" d="M253.3,466.5H175c-1.9,0-3.5-1.6-3.5-3.5v-32.4c0-1.9,1.6-3.5,3.5-3.5h78.2c1.9,0,3.5,1.6,3.5,3.5V463
		C256.8,464.9,255.2,466.5,253.3,466.5z"/>
	<path fill="#326DE6" d="M246.2,460.4H179c-0.4,0-0.8-0.4-0.8-0.8v-24.9c0-0.4,0.4-0.8,0.8-0.8h67.2c0.4,0,0.8,0.4,0.8,0.8v24.9
		C247,460,246.6,460.4,246.2,460.4z"/>
	<path fill="#E6F4F5" d="M253.3,512.3H175c-1.9,0-3.5-1.6-3.5-3.5v-32.4c0-1.9,1.6-3.5,3.5-3.5h78.2c1.9,0,3.5,1.6,3.5,3.5v32.4
		C256.8,510.7,255.2,512.3,253.3,512.3z"/>
	<path fill="#326DE6" d="M247.1,506.1h-68c-0.4,0-0.8-0.4-0.8-0.8v-24.9c0-0.4,0.4-0.8,0.8-0.8h68c0.4,0,0.8,0.4,0.8,0.8v24.9
		C247.9,505.8,247.5,506.1,247.1,506.1z"/>
	<path fill="#09C1D1" d="M53.8,510.9v-80.8c0-6.1,5-11.1,11.1-11.1h80.1c6.1,0,11.1,5,11.1,11.1v80.8c0,6.1-5,11.1-11.1,11.1H64.9
		C58.8,522,53.8,517.1,53.8,510.9z"/>
	<path fill="#E6F4F5" d="M144.2,466.8H65.9c-1.9,0-3.5-1.6-3.5-3.5v-32.4c0-1.9,1.6-3.5,3.5-3.5h78.2c1.9,0,3.5,1.6,3.5,3.5v32.4
		C147.7,465.2,146.1,466.8,144.2,466.8z"/>
	<path fill="#326DE6" d="M137.1,460.7H69.9c-0.4,0-0.8-0.4-0.8-0.8v-24.9c0-0.4,0.4-0.8,0.8-0.8h67.2c0.4,0,0.8,0.4,0.8,0.8v24.9
		C137.9,460.3,137.5,460.7,137.1,460.7z"/>
	<path fill="#E6F4F5" d="M144.2,512.5H65.9c-1.9,0-3.5-1.6-3.5-3.5v-32.4c0-1.9,1.6-3.5,3.5-3.5h78.2c1.9,0,3.5,1.6,3.5,3.5V509
		C147.7,510.9,146.1,512.5,144.2,512.5z"/>
	<path fill="#326DE6" d="M138,506.4h-68c-0.4,0-0.8-0.4-0.8-0.8v-24.9c0-0.4,0.4-0.8,0.8-0.8h68c0.4,0,0.8,0.4,0.8,0.8v24.9
		C138.8,506,138.4,506.4,138,506.4z"/>
	<rect x="105.1" y="348.1" fill="#BADBDB" width="2.7" height="41.2"/>
	<rect x="213.3" y="350.1" fill="#BADBDB" width="2.7" height="32.9"/>
	<rect x="156.7" y="28" fill="#BADBDB" width="2.7" height="182.5"/>
	<g>
		
			<rect x="126.6" y="89.1" transform="matrix(0.7931 -0.6091 0.6091 0.7931 -51.8991 104.6667)" fill="#BADBDB" width="2.9" height="79.2"/>
	</g>
	<g>
		
			<rect x="186.6" y="89.1" transform="matrix(-0.7931 -0.6091 0.6091 -0.7931 258.874 345.383)" fill="#BADBDB" width="2.9" height="79.2"/>
	</g>
	<path fill="#E6F4F5" d="M193.5,114.2V35.9c0-1.9,1.6-3.5,3.5-3.5h39.2c1.9,0,3.5,1.6,3.5,3.5v78.2c0,1.9-1.6,3.5-3.5,3.5H197
		C195.1,117.7,193.5,116.1,193.5,114.2z"/>
	<path fill="#326DE6" d="M200.7,70.7V39.9c0-0.4,0.4-0.8,0.8-0.8H231c0.4,0,0.8,0.4,0.8,0.8v30.7c0,0.4-0.4,0.8-0.8,0.8h-29.5
		C201,71.5,200.7,71.1,200.7,70.7z"/>
	<path fill="#326DE6" d="M200.7,110.3V79.5c0-0.4,0.4-0.8,0.8-0.8H231c0.4,0,0.8,0.4,0.8,0.8v30.7c0,0.4-0.4,0.8-0.8,0.8h-29.5
		C201,111.1,200.7,110.7,200.7,110.3z"/>
	<path fill="#E6F4F5" d="M136.6,114.2V35.9c0-1.9,1.6-3.5,3.5-3.5h39.2c1.9,0,3.5,1.6,3.5,3.5v78.2c0,1.9-1.6,3.5-3.5,3.5h-39.2
		C138.2,117.7,136.6,116.1,136.6,114.2z"/>
	<path fill="#326DE6" d="M143.8,70.7V39.9c0-0.4,0.4-0.8,0.8-0.8h29.5c0.4,0,0.8,0.4,0.8,0.8v30.7c0,0.4-0.4,0.8-0.8,0.8h-29.5
		C144.2,71.5,143.8,71.1,143.8,70.7z"/>
	<path fill="#326DE6" d="M143.8,110.3V79.5c0-0.4,0.4-0.8,0.8-0.8h29.5c0.4,0,0.8,0.4,0.8,0.8v30.7c0,0.4-0.4,0.8-0.8,0.8h-29.5
		C144.2,111.1,143.8,110.7,143.8,110.3z"/>
	<path fill="#E6F4F5" d="M79.8,114.2V35.9c0-1.9,1.6-3.5,3.5-3.5h39.2c1.9,0,3.5,1.6,3.5,3.5v78.2c0,1.9-1.6,3.5-3.5,3.5H83.3
		C81.4,117.7,79.8,116.1,79.8,114.2z"/>
	<path fill="#326DE6" d="M87,70.7V39.9c0-0.4,0.4-0.8,0.8-0.8h29.5c0.4,0,0.8,0.4,0.8,0.8v30.7c0,0.4-0.4,0.8-0.8,0.8H87.8
		C87.3,71.5,87,71.1,87,70.7z"/>
	<path fill="#326DE6" d="M87,110.3V79.5c0-0.4,0.4-0.8,0.8-0.8h29.5c0.4,0,0.8,0.4,0.8,0.8v30.7c0,0.4-0.4,0.8-0.8,0.8H87.8
		C87.3,111.1,87,110.7,87,110.3z"/>
	<g>
		<path fill="#326DE6" d="M132.1,18.5c0,1.4-0.5,2.3-1.6,2.7l2.2,3.1h-2.4l-1.9-2.8h-1.3v2.8h-1.9v-8.6h3.3c1.3,0,2.3,0.2,2.9,0.7
			C131.8,16.7,132.1,17.5,132.1,18.5z M129.8,19.5c0.2-0.2,0.4-0.6,0.4-1s-0.1-0.8-0.4-1c-0.2-0.2-0.7-0.3-1.3-0.3h-1.4v2.6h1.4
			C129.1,19.8,129.6,19.7,129.8,19.5z"/>
		<path fill="#326DE6" d="M139.7,23.3c-0.7,0.7-1.6,1.1-2.6,1.1c-1,0-1.8-0.3-2.5-0.9s-1-1.5-1-2.5s0.3-1.9,1-2.5
			c0.7-0.6,1.5-0.9,2.4-0.9c0.9,0,1.7,0.3,2.3,0.8c0.6,0.6,1,1.3,1,2.3v1h-4.8c0.1,0.4,0.2,0.7,0.6,0.9s0.7,0.3,1.1,0.3
			c0.7,0,1.2-0.2,1.6-0.7L139.7,23.3z M137.9,19.3c-0.3-0.2-0.6-0.3-0.9-0.3c-0.4,0-0.7,0.1-1,0.3s-0.5,0.5-0.5,0.9h2.9
			C138.3,19.8,138.2,19.5,137.9,19.3z"/>
		<path fill="#326DE6" d="M145.4,17.5c0.8,0,1.5,0.3,2.1,1c0.6,0.6,0.9,1.5,0.9,2.4c0,1-0.3,1.8-0.9,2.5c-0.6,0.7-1.3,1-2.1,1
			c-0.8,0-1.5-0.3-2-1v3.3h-1.9v-9h1.9v0.7C144,17.8,144.6,17.5,145.4,17.5z M143.4,20.9c0,0.5,0.2,1,0.5,1.3
			c0.3,0.3,0.7,0.5,1.1,0.5c0.4,0,0.8-0.2,1.1-0.5c0.3-0.3,0.5-0.8,0.5-1.3c0-0.5-0.2-1-0.5-1.3c-0.3-0.4-0.7-0.5-1.1-0.5
			s-0.8,0.2-1.1,0.5C143.5,19.9,143.4,20.4,143.4,20.9z"/>
		<path fill="#326DE6" d="M151.6,24.2h-1.9v-9.2h1.9V24.2z"/>
		<path fill="#326DE6" d="M153.5,16.7c-0.2-0.2-0.3-0.5-0.3-0.8s0.1-0.6,0.3-0.8s0.5-0.3,0.8-0.3c0.3,0,0.6,0.1,0.8,0.3
			s0.3,0.5,0.3,0.8s-0.1,0.6-0.3,0.8s-0.5,0.3-0.8,0.3C154,17.1,153.7,17,153.5,16.7z M155.2,24.2h-1.9v-6.6h1.9V24.2z"/>
		<path fill="#326DE6" d="M160.2,22.7c0.6,0,1.2-0.3,1.7-0.9l1.1,1.2c-0.9,0.9-1.8,1.3-2.8,1.3s-1.8-0.3-2.5-0.9
			c-0.7-0.6-1-1.5-1-2.5s0.3-1.8,1-2.5s1.5-1,2.5-1c0.5,0,1,0.1,1.5,0.3c0.5,0.2,0.9,0.5,1.3,0.9l-1,1.3c-0.2-0.3-0.5-0.5-0.8-0.6
			c-0.3-0.1-0.6-0.2-0.9-0.2c-0.5,0-0.9,0.2-1.3,0.5c-0.4,0.3-0.5,0.8-0.5,1.3c0,0.6,0.2,1,0.5,1.3
			C159.3,22.5,159.7,22.7,160.2,22.7z"/>
		<path fill="#326DE6" d="M169.8,24.2h-1.7v-0.8c-0.5,0.6-1.1,0.9-1.8,0.9c-0.7,0-1.3-0.2-1.8-0.6c-0.5-0.4-0.7-1-0.7-1.6
			s0.2-1.2,0.7-1.5c0.5-0.3,1.2-0.5,2-0.5h1.4v0c0-0.7-0.4-1.1-1.1-1.1c-0.3,0-0.7,0.1-1,0.2s-0.7,0.3-0.9,0.5l-0.8-1.2
			c0.9-0.6,1.9-1,3-1c0.8,0,1.5,0.2,2,0.6s0.8,1,0.8,1.9V24.2z M168,21.7v-0.3h-1.2c-0.7,0-1.1,0.2-1.1,0.7c0,0.2,0.1,0.4,0.3,0.5
			c0.2,0.1,0.4,0.2,0.8,0.2c0.3,0,0.6-0.1,0.9-0.3S168,22,168,21.7z"/>
		<path fill="#326DE6" d="M173.6,18.9v3c0,0.3,0.1,0.5,0.2,0.6c0.1,0.1,0.3,0.2,0.5,0.2c0.3,0,0.6-0.2,0.9-0.5l0.7,1.3
			c-0.6,0.5-1.2,0.8-1.8,0.8c-0.6,0-1.2-0.2-1.6-0.6c-0.4-0.4-0.7-1-0.7-1.7v-3.1H171v-1.3h0.8v-2h1.9v2h1.6v1.3H173.6z"/>
		<path fill="#326DE6" d="M177,16.7c-0.2-0.2-0.3-0.5-0.3-0.8s0.1-0.6,0.3-0.8s0.5-0.3,0.8-0.3s0.6,0.1,0.8,0.3s0.3,0.5,0.3,0.8
			s-0.1,0.6-0.3,0.8s-0.5,0.3-0.8,0.3S177.2,17,177,16.7z M178.7,24.2h-1.9v-6.6h1.9V24.2z"/>
		<path fill="#326DE6" d="M187.1,20.9c0,1-0.3,1.8-1,2.4s-1.5,1-2.5,1c-1,0-1.8-0.3-2.5-1s-1-1.5-1-2.4s0.3-1.8,1-2.4s1.5-1,2.5-1
			c1,0,1.8,0.3,2.5,1S187.1,19.9,187.1,20.9z M182,20.9c0,0.5,0.2,1,0.5,1.3c0.3,0.3,0.7,0.5,1.2,0.5s0.9-0.2,1.2-0.5
			c0.3-0.3,0.5-0.8,0.5-1.3s-0.2-1-0.5-1.3c-0.3-0.3-0.7-0.5-1.2-0.5s-0.9,0.2-1.2,0.5C182.1,19.9,182,20.4,182,20.9z"/>
		<path fill="#326DE6" d="M190.3,20.5v3.7h-1.9v-6.6h1.9v0.7c0.6-0.6,1.2-0.9,1.9-0.9c0.7,0,1.3,0.2,1.8,0.7c0.5,0.5,0.7,1.2,0.7,2
			v4h-1.9v-3.8c0-1-0.4-1.5-1.1-1.5c-0.4,0-0.7,0.1-1,0.4C190.5,19.6,190.3,20,190.3,20.5z"/>
	</g>
	<rect x="62.6" y="91.4" fill-rule="evenodd" clip-rule="evenodd" fill="#BADBDB" width="3" height="5.1"/>
	<rect x="62.6" y="100.6" fill-rule="evenodd" clip-rule="evenodd" fill="#BADBDB" width="3" height="5.1"/>
	<rect x="62.6" y="109.7" fill-rule="evenodd" clip-rule="evenodd" fill="#BADBDB" width="3" height="5.1"/>
	<rect x="62.6" y="63.8" fill-rule="evenodd" clip-rule="evenodd" fill="#BADBDB" width="3" height="5.1"/>
	<rect x="62.6" y="73" fill-rule="evenodd" clip-rule="evenodd" fill="#BADBDB" width="3" height="5.1"/>
	<rect x="62.6" y="82.1" fill-rule="evenodd" clip-rule="evenodd" fill="#BADBDB" width="3" height="5.1"/>
	<rect x="62.6" y="36.2" fill-rule="evenodd" clip-rule="evenodd" fill="#BADBDB" width="3" height="5.1"/>
	<rect x="62.6" y="45.4" fill-rule="evenodd" clip-rule="evenodd" fill="#BADBDB" width="3" height="5.1"/>
	<rect x="62.6" y="18.8" fill-rule="evenodd" clip-rule="evenodd" fill="#BADBDB" width="3" height="5.1"/>
	<rect x="62.6" y="28" fill-rule="evenodd" clip-rule="evenodd" fill="#BADBDB" width="3" height="5.1"/>
	<rect x="62.6" y="54.5" fill-rule="evenodd" clip-rule="evenodd" fill="#BADBDB" width="3" height="5.1"/>
	<path fill-rule="evenodd" clip-rule="evenodd" fill="#BADBDB" d="M76.3,2.3l0.5,3c0,0,0.3-0.1,0.7-0.1c0.4,0,1-0.1,1.6-0.1
		c1.3,0,2.6,0,2.6,0v-3c0,0-1.3,0-2.6,0c-0.7,0-1.4,0-1.9,0.1C76.6,2.2,76.3,2.3,76.3,2.3z"/>
	<path fill-rule="evenodd" clip-rule="evenodd" fill="#BADBDB" d="M67.5,6.4l2.1,2.2c0,0,0.8-0.8,1.7-1.4c0.9-0.6,2-1.1,2-1.1
		l-1.3-2.8c0,0-1.3,0.5-2.4,1.3C68.5,5.5,67.5,6.4,67.5,6.4z"/>
	<path fill-rule="evenodd" clip-rule="evenodd" fill="#BADBDB" d="M62.9,14.9l3,0.6c0,0,0.2-1.1,0.6-2.1c0.4-1,1-2,1-2l-2.6-1.6
		c0,0-0.7,1.2-1.2,2.5c-0.3,0.6-0.5,1.3-0.6,1.8C63,14.6,62.9,14.9,62.9,14.9z"/>
	<rect x="104" y="2.1" fill-rule="evenodd" clip-rule="evenodd" fill="#BADBDB" width="5.1" height="3"/>
	<rect x="94.8" y="2.1" fill-rule="evenodd" clip-rule="evenodd" fill="#BADBDB" width="5.1" height="3"/>
	
		<rect x="86.7" y="1.1" transform="matrix(4.249183e-002 -0.9991 0.9991 4.249183e-002 80.8686 91.6287)" fill-rule="evenodd" clip-rule="evenodd" fill="#BADBDB" width="3" height="5.1"/>
	<rect x="131.6" y="2.1" fill-rule="evenodd" clip-rule="evenodd" fill="#BADBDB" width="5.1" height="3"/>
	<rect x="122.4" y="2.1" fill-rule="evenodd" clip-rule="evenodd" fill="#BADBDB" width="5.1" height="3"/>
	<rect x="113.3" y="2.1" fill-rule="evenodd" clip-rule="evenodd" fill="#BADBDB" width="5.1" height="3"/>
	<rect x="159.2" y="2.1" fill-rule="evenodd" clip-rule="evenodd" fill="#BADBDB" width="5.1" height="3"/>
	<rect x="150" y="2.1" fill-rule="evenodd" clip-rule="evenodd" fill="#BADBDB" width="5.1" height="3"/>
	<rect x="140.9" y="2.1" fill-rule="evenodd" clip-rule="evenodd" fill="#BADBDB" width="5.1" height="3"/>
	<rect x="186.8" y="2.1" fill-rule="evenodd" clip-rule="evenodd" fill="#BADBDB" width="5.1" height="3"/>
	<rect x="177.6" y="2.1" fill-rule="evenodd" clip-rule="evenodd" fill="#BADBDB" width="5.1" height="3"/>
	<rect x="168.5" y="2.1" fill-rule="evenodd" clip-rule="evenodd" fill="#BADBDB" width="5.1" height="3"/>
	<rect x="214.4" y="2.1" fill-rule="evenodd" clip-rule="evenodd" fill="#BADBDB" width="5.1" height="3"/>
	<rect x="205.2" y="2.1" fill-rule="evenodd" clip-rule="evenodd" fill="#BADBDB" width="5.1" height="3"/>
	<rect x="196.1" y="2.1" fill-rule="evenodd" clip-rule="evenodd" fill="#BADBDB" width="5.1" height="3"/>
	<rect x="232.8" y="2.1" fill-rule="evenodd" clip-rule="evenodd" fill="#BADBDB" width="5.1" height="3"/>
	<rect x="223.7" y="2.1" fill-rule="evenodd" clip-rule="evenodd" fill="#BADBDB" width="5.1" height="3"/>
	<path fill-rule="evenodd" clip-rule="evenodd" fill="#BADBDB" d="M243,2.3l-0.5,3c0,0,0.3,0,0.7,0.1c0.4,0.1,1,0.2,1.5,0.4
		c0.5,0.2,1.1,0.4,1.4,0.6c0.4,0.2,0.6,0.3,0.6,0.3l1.5-2.7c0,0-0.3-0.1-0.8-0.4c-0.5-0.2-1.1-0.5-1.7-0.7c-0.6-0.2-1.3-0.4-1.8-0.5
		C243.3,2.4,243,2.3,243,2.3z"/>
	<rect x="253.4" y="41.5" fill-rule="evenodd" clip-rule="evenodd" fill="#BADBDB" width="3" height="5.1"/>
	<path fill-rule="evenodd" clip-rule="evenodd" fill="#BADBDB" d="M256.2,32.1l-3,0.6c0,0,0.2,1.1,0.2,2.2c0,1.3,0,2.5,0,2.5h3
		c0,0,0-1.3,0-2.6c0-0.7,0-1.4-0.1-1.9C256.2,32.5,256.2,32.1,256.2,32.1z"/>
	<rect x="253.4" y="23.5" fill-rule="evenodd" clip-rule="evenodd" fill="#BADBDB" width="3" height="5.1"/>
	<path fill-rule="evenodd" clip-rule="evenodd" fill="#BADBDB" d="M256.2,14.1l-3,0.6c0,0,0.2,1.1,0.2,2.2c0,1.3,0,2.5,0,2.5h3
		c0,0,0-1.3,0-2.6c0-0.7,0-1.4-0.1-1.9C256.2,14.5,256.2,14.1,256.2,14.1z"/>
	<path fill-rule="evenodd" clip-rule="evenodd" fill="#BADBDB" d="M251.7,6.6l-2.1,2.2c0,0,0.2,0.2,0.5,0.5c0.3,0.3,0.6,0.7,1,1.2
		c0.4,0.4,0.6,0.9,0.8,1.3c0.2,0.4,0.3,0.6,0.3,0.6l2.7-1.4c0,0-0.2-0.3-0.4-0.8c-0.3-0.4-0.6-1-1-1.6
		C252.7,7.6,251.7,6.6,251.7,6.6z"/>
	<rect x="253.4" y="69.1" fill-rule="evenodd" clip-rule="evenodd" fill="#BADBDB" width="3" height="5.1"/>
	<rect x="253.4" y="59.9" fill-rule="evenodd" clip-rule="evenodd" fill="#BADBDB" width="3" height="5.1"/>
	<rect x="253.4" y="50.8" fill-rule="evenodd" clip-rule="evenodd" fill="#BADBDB" width="3" height="5.1"/>
	<rect x="253.4" y="96.7" fill-rule="evenodd" clip-rule="evenodd" fill="#BADBDB" width="3" height="5.1"/>
	<rect x="253.4" y="87.5" fill-rule="evenodd" clip-rule="evenodd" fill="#BADBDB" width="3" height="5.1"/>
	<rect x="253.4" y="78.4" fill-rule="evenodd" clip-rule="evenodd" fill="#BADBDB" width="3" height="5.1"/>
	<path fill-rule="evenodd" clip-rule="evenodd" fill="#BADBDB" d="M254.5,124.5l-2.7-1.5c0,0-0.5,1-1.2,1.9c-0.3,0.4-0.7,0.8-1,1.1
		c-0.3,0.3-0.5,0.5-0.5,0.5l2,2.3c0,0,0.3-0.2,0.6-0.6c0.4-0.4,0.8-0.9,1.3-1.4C253.8,125.7,254.5,124.5,254.5,124.5z"/>
	<path fill-rule="evenodd" clip-rule="evenodd" fill="#BADBDB" d="M256.4,115.1h-3c0,0,0,0.3,0,0.8c0,0.5,0,1.1,0,1.6
		c0,1.1-0.3,2.2-0.3,2.2l3,0.7c0,0,0.3-1.3,0.4-2.7c0-0.7,0-1.4,0-1.8C256.4,115.4,256.4,115.1,256.4,115.1z"/>
	<rect x="253.4" y="106" fill-rule="evenodd" clip-rule="evenodd" fill="#BADBDB" width="3" height="5.1"/>
	<path fill-rule="evenodd" clip-rule="evenodd" fill="#BADBDB" d="M247.4,131.2l-1.3-2.7c0,0-1,0.5-2.1,0.8
		c-0.5,0.2-1.1,0.3-1.5,0.3c-0.4,0.1-0.7,0.1-0.7,0.1l0.4,3c0,0,0.3,0,0.8-0.1c0.5-0.1,1.2-0.2,1.8-0.4
		C246.2,131.8,247.4,131.2,247.4,131.2z"/>
	<rect x="232.1" y="129.7" fill-rule="evenodd" clip-rule="evenodd" fill="#BADBDB" width="5.1" height="3"/>
	<rect x="208.9" y="129.7" fill-rule="evenodd" clip-rule="evenodd" fill="#BADBDB" width="5.1" height="3"/>
	<rect x="220.5" y="129.7" fill-rule="evenodd" clip-rule="evenodd" fill="#BADBDB" width="5.1" height="3"/>
	<rect x="197.3" y="129.7" fill-rule="evenodd" clip-rule="evenodd" fill="#BADBDB" width="5.1" height="3"/>
	<rect x="147.6" y="129.7" fill-rule="evenodd" clip-rule="evenodd" fill="#BADBDB" width="5.1" height="3"/>
	<rect x="164.5" y="129.7" fill-rule="evenodd" clip-rule="evenodd" fill="#BADBDB" width="5.1" height="3"/>
	<rect x="174.6" y="129.7" fill-rule="evenodd" clip-rule="evenodd" fill="#BADBDB" width="5.1" height="3"/>
	<rect x="138.6" y="129.7" fill-rule="evenodd" clip-rule="evenodd" fill="#BADBDB" width="5.1" height="3"/>
	<rect x="96.6" y="129.7" fill-rule="evenodd" clip-rule="evenodd" fill="#BADBDB" width="5.1" height="3"/>
	<rect x="107.1" y="129.7" fill-rule="evenodd" clip-rule="evenodd" fill="#BADBDB" width="5.1" height="3"/>
	<rect x="117.6" y="129.7" fill-rule="evenodd" clip-rule="evenodd" fill="#BADBDB" width="5.1" height="3"/>
	<rect x="86.1" y="129.7" fill-rule="evenodd" clip-rule="evenodd" fill="#BADBDB" width="5.1" height="3"/>
	<path fill-rule="evenodd" clip-rule="evenodd" fill="#BADBDB" d="M64.4,124.4l2.7-1.5c0,0-0.5-1-0.9-2.1c-0.2-0.5-0.3-1.1-0.4-1.5
		c-0.1-0.4-0.1-0.7-0.1-0.7l-3,0.5c0,0,0.1,0.3,0.1,0.8c0.1,0.5,0.3,1.2,0.5,1.8C63.8,123.1,64.4,124.4,64.4,124.4z"/>
	<path fill-rule="evenodd" clip-rule="evenodd" fill="#BADBDB" d="M71.4,131.1l1.4-2.7c0,0-1-0.5-1.9-1.2c-0.9-0.6-1.7-1.5-1.7-1.5
		l-2.2,2.1c0,0,0.9,1,2.1,1.8C70.1,130.5,71.4,131.1,71.4,131.1z"/>
	<path fill-rule="evenodd" clip-rule="evenodd" fill="#BADBDB" d="M80.8,132.8v-3c0,0-1.2,0-2.5,0c-1.1,0-2.2-0.2-2.2-0.2l-0.6,3
		c0,0,1.3,0.3,2.7,0.3C79.5,132.8,80.8,132.8,80.8,132.8z"/>
	<path fill="#E6F4F5" d="M122.3,208.3h72.8c1.9,0,3.5,1.6,3.5,3.5v31.6c0,1.9-1.6,3.5-3.5,3.5h-72.8c-1.9,0-3.5-1.6-3.5-3.5v-31.6
		C118.8,209.8,120.4,208.3,122.3,208.3z"/>
	<path fill="#628EDD" d="M126.8,214.3h64.4c0.4,0,0.8,0.4,0.8,0.8v24.4c0,0.4-0.4,0.8-0.8,0.8h-64.4c-0.4,0-0.8-0.4-0.8-0.8v-24.4
		C125.9,214.6,126.3,214.3,126.8,214.3z"/>
	<rect x="108.6" y="222.7" fill-rule="evenodd" clip-rule="evenodd" fill="#BADBDB" width="3" height="5.1"/>
	<rect x="108.6" y="231.8" fill-rule="evenodd" clip-rule="evenodd" fill="#BADBDB" width="3" height="5.1"/>
	<polygon fill-rule="evenodd" clip-rule="evenodd" fill="#BADBDB" points="108.6,246.2 111.6,245.4 111.6,240.8 108.6,240.8 	"/>
	<path fill-rule="evenodd" clip-rule="evenodd" fill="#BADBDB" d="M111.8,200.5l2.3,2.4c0,0,0.8-0.8,1.8-1.2c1-0.5,2.1-0.7,2.1-0.7
		l-1.5-2.9c0,0-0.3,0.1-0.8,0.2c-0.5,0.1-1.1,0.4-1.7,0.7C112.8,199.6,111.8,200.5,111.8,200.5z"/>
	<path fill-rule="evenodd" clip-rule="evenodd" fill="#BADBDB" d="M108.6,209.2l3,0.9c0,0,0-0.3,0-0.7c0-0.4,0-1,0-1.5
		c0.1-1.1,0.5-2.1,0.5-2.1l-2.8-1.8c0,0-0.6,1.2-0.7,2.6c-0.1,0.7-0.1,1.3-0.1,1.8C108.6,208.9,108.6,209.2,108.6,209.2z"/>
	<polygon fill-rule="evenodd" clip-rule="evenodd" fill="#BADBDB" points="108.6,218.6 111.6,218.6 111.6,213.6 108.6,213.5 	"/>
	<rect x="139.2" y="197.9" fill-rule="evenodd" clip-rule="evenodd" fill="#BADBDB" width="5.1" height="3"/>
	<rect x="130.2" y="197.9" fill-rule="evenodd" clip-rule="evenodd" fill="#BADBDB" width="5.1" height="3"/>
	<polygon fill-rule="evenodd" clip-rule="evenodd" fill="#BADBDB" points="120.9,197.9 121.6,200.9 126.2,200.9 126.2,197.9 	"/>
	<rect x="166.5" y="197.9" fill-rule="evenodd" clip-rule="evenodd" fill="#BADBDB" width="5.1" height="3"/>
	<polygon fill-rule="evenodd" clip-rule="evenodd" fill="#BADBDB" points="193.8,197.9 193.8,200.9 198.3,200.9 199.2,197.9 	"/>
	<rect x="184.7" y="197.9" fill-rule="evenodd" clip-rule="evenodd" fill="#BADBDB" width="5.1" height="3"/>
	<rect x="175.7" y="197.9" fill-rule="evenodd" clip-rule="evenodd" fill="#BADBDB" width="5.1" height="3"/>
	<rect x="207.4" y="214.5" fill-rule="evenodd" clip-rule="evenodd" fill="#BADBDB" width="3" height="5.1"/>
	<path fill-rule="evenodd" clip-rule="evenodd" fill="#BADBDB" d="M210,204.9l-2.8,1.7c0,0,0.3,1.1,0.3,2.2c0,1.1,0,2.2,0,2.2l3-0.7
		c0,0,0-1.3,0-2.7C210.4,206.2,210,204.9,210,204.9z"/>
	<path fill-rule="evenodd" clip-rule="evenodd" fill="#BADBDB" d="M203.4,198.4l-1.7,2.8c0,0,1.1,0.3,2,0.9c0.9,0.6,1.7,1.4,1.7,1.4
		l2.4-2.3c0,0-0.9-1-2-1.7C204.7,198.8,203.4,198.4,203.4,198.4z"/>
	<polygon fill-rule="evenodd" clip-rule="evenodd" fill="#BADBDB" points="210.5,241.8 207.4,241.8 207.4,246.2 210.4,247.2 	"/>
	<rect x="207.4" y="232.7" fill-rule="evenodd" clip-rule="evenodd" fill="#BADBDB" width="3" height="5.1"/>
	<rect x="207.4" y="223.6" fill-rule="evenodd" clip-rule="evenodd" fill="#BADBDB" width="3" height="5.1"/>
	<rect x="188.4" y="255" fill-rule="evenodd" clip-rule="evenodd" fill="#BADBDB" width="5.1" height="3"/>
	<path fill-rule="evenodd" clip-rule="evenodd" fill="#BADBDB" d="M203,257.6l-1.6-2.9c0,0-0.3,0.1-0.7,0.1c-0.4,0.1-1,0.1-1.5,0.1
		c-1.1,0-2.2,0-2.2,0l0.6,3c0,0,1.3,0,2.7,0c0.7,0,1.3-0.1,1.8-0.2C202.7,257.7,203,257.6,203,257.6z"/>
	<path fill-rule="evenodd" clip-rule="evenodd" fill="#BADBDB" d="M209.8,251.4l-2.8-1.7c0,0-0.3,1.1-1,2c-0.6,0.9-1.5,1.6-1.5,1.6
		l2.2,2.5c0,0,1.1-0.8,1.8-2C209.4,252.7,209.8,251.4,209.8,251.4z"/>
	<rect x="161.1" y="255" fill-rule="evenodd" clip-rule="evenodd" fill="#BADBDB" width="5.1" height="3"/>
	<rect x="151.9" y="255" fill-rule="evenodd" clip-rule="evenodd" fill="#BADBDB" width="5.1" height="3"/>
	<path fill-rule="evenodd" clip-rule="evenodd" fill="#BADBDB" d="M111.5,255.1l2.4-2.4c0,0-0.8-0.8-1.3-1.8c-0.6-1-0.8-2.1-0.8-2.1
		l-2.9,1.6c0,0,0.3,1.3,1,2.5C110.6,254.1,111.5,255.1,111.5,255.1z"/>
	<path fill-rule="evenodd" clip-rule="evenodd" fill="#BADBDB" d="M120.4,258l0.8-3c0,0-1.1,0-2.2,0c-1.1,0-2.2-0.4-2.2-0.4
		l-1.8,2.8c0,0,1.3,0.5,2.6,0.6C119,258,120.4,258,120.4,258z"/>
	<polygon fill-rule="evenodd" clip-rule="evenodd" fill="#BADBDB" points="129.7,258 129.7,255 124.7,255 124.7,258 	"/>
	<path fill="#326DE6" d="M160.1,185c-7.2,0-14.3-0.1-21.5,0c-8.5,0.1-15.2-7.1-14.6-15.4c0.4-5.8,3.5-9.9,8.9-12.2
		c0.5-0.2,0.7-0.5,0.9-1c1.1-3.9,3.6-6.5,7.7-7.3c1.7-0.4,3.5-0.1,5.1,0.6c0.5,0.2,0.7,0.1,0.9-0.3c3.7-6.6,9.3-10.1,16.9-10
		c8.6,0.1,16.4,7.2,17.6,15.7c0.1,0.9,0.2,1.9,0.2,2.8c0,0.4,0,0.6,0.5,0.6c6.9,0.2,12.5,6.1,12.3,13.5c-0.2,7.1-6.1,13-13.2,13
		C174.6,185,167.4,185,160.1,185z"/>
	<g>
		<path fill="#FFFFFF" d="M141.2,166.9c0.7,0.6,1,1.5,1,2.6s-0.3,2-1,2.6s-1.6,1-3,1h-2.4v-7h2.5C139.6,166,140.6,166.3,141.2,166.9
			z M140.1,171.1c0.4-0.4,0.6-0.9,0.6-1.6s-0.2-1.2-0.6-1.6s-1-0.6-1.8-0.6h-0.9v4.3h1C139.2,171.6,139.7,171.4,140.1,171.1z"/>
		<path fill="#FFFFFF" d="M143.5,166.9c-0.2-0.2-0.3-0.4-0.3-0.6s0.1-0.5,0.3-0.6c0.2-0.2,0.4-0.3,0.6-0.3c0.2,0,0.5,0.1,0.6,0.3
			c0.2,0.2,0.3,0.4,0.3,0.6s-0.1,0.5-0.3,0.6c-0.2,0.2-0.4,0.3-0.6,0.3C143.9,167.2,143.7,167.1,143.5,166.9z M144.9,173h-1.5v-5.4
			h1.5V173z"/>
		<path fill="#FFFFFF" d="M150.4,171.3c0,0.5-0.2,1-0.6,1.3c-0.4,0.3-0.9,0.5-1.5,0.5c-0.4,0-0.8-0.1-1.3-0.2
			c-0.4-0.1-0.8-0.4-1.2-0.6l0.7-0.9c0.6,0.4,1.2,0.7,1.8,0.7c0.2,0,0.3,0,0.5-0.1c0.1-0.1,0.2-0.2,0.2-0.3s-0.1-0.2-0.2-0.4
			c-0.2-0.1-0.4-0.2-0.7-0.3s-0.5-0.2-0.7-0.2c-0.2-0.1-0.3-0.2-0.5-0.3c-0.4-0.3-0.6-0.6-0.6-1.1s0.2-0.9,0.6-1.2
			c0.4-0.3,0.9-0.5,1.6-0.5s1.3,0.2,1.9,0.6l-0.6,1c-0.5-0.3-0.9-0.5-1.4-0.5s-0.7,0.1-0.7,0.4c0,0.1,0.1,0.3,0.2,0.3
			s0.4,0.2,0.7,0.3c0.3,0.1,0.6,0.2,0.7,0.2s0.3,0.1,0.5,0.3C150.2,170.4,150.4,170.8,150.4,171.3z"/>
		<path fill="#FFFFFF" d="M154.1,171.8c0.5,0,1-0.3,1.4-0.8l0.9,1c-0.7,0.7-1.4,1.1-2.3,1.1c-0.8,0-1.5-0.3-2-0.8
			c-0.6-0.5-0.8-1.2-0.8-2s0.3-1.5,0.8-2c0.6-0.5,1.2-0.8,2-0.8c0.4,0,0.8,0.1,1.2,0.2s0.7,0.4,1,0.7l-0.8,1
			c-0.2-0.2-0.4-0.4-0.6-0.5c-0.3-0.1-0.5-0.2-0.7-0.2c-0.4,0-0.7,0.1-1,0.4c-0.3,0.3-0.4,0.6-0.4,1.1s0.1,0.8,0.4,1.1
			C153.4,171.6,153.7,171.8,154.1,171.8z"/>
		<path fill="#FFFFFF" d="M162.7,170.3c0,0.8-0.3,1.4-0.8,2c-0.5,0.5-1.2,0.8-2,0.8c-0.8,0-1.5-0.3-2-0.8c-0.5-0.5-0.8-1.2-0.8-2
			c0-0.8,0.3-1.4,0.8-2c0.5-0.5,1.2-0.8,2-0.8c0.8,0,1.5,0.3,2,0.8C162.4,168.9,162.7,169.5,162.7,170.3z M158.5,170.3
			c0,0.4,0.1,0.8,0.4,1.1s0.6,0.4,1,0.4c0.4,0,0.7-0.1,1-0.4s0.4-0.6,0.4-1.1s-0.1-0.8-0.4-1.1c-0.3-0.3-0.6-0.4-1-0.4
			c-0.4,0-0.7,0.1-1,0.4C158.6,169.5,158.5,169.9,158.5,170.3z"/>
		<path fill="#FFFFFF" d="M165.1,173l-2.1-5.4h1.6l1.3,3.4l1.3-3.4h1.6l-2.1,5.4H165.1z"/>
		<path fill="#FFFFFF" d="M174.2,172.2c-0.6,0.6-1.3,0.9-2.1,0.9s-1.5-0.3-2-0.8c-0.5-0.5-0.8-1.2-0.8-2s0.3-1.5,0.8-2
			c0.5-0.5,1.2-0.8,1.9-0.8c0.7,0,1.4,0.2,1.9,0.7c0.5,0.4,0.8,1.1,0.8,1.8v0.8h-3.9c0,0.3,0.2,0.5,0.5,0.7c0.3,0.2,0.6,0.3,0.9,0.3
			c0.5,0,1-0.2,1.3-0.5L174.2,172.2z M172.7,169c-0.2-0.2-0.5-0.3-0.8-0.3c-0.3,0-0.6,0.1-0.8,0.3c-0.2,0.2-0.4,0.4-0.4,0.7h2.4
			C173.1,169.5,173,169.2,172.7,169z"/>
		<path fill="#FFFFFF" d="M178.5,168.9c-0.4,0-0.8,0.2-1,0.5s-0.3,0.7-0.3,1.3v2.3h-1.5v-5.4h1.5v0.7c0.2-0.2,0.4-0.4,0.7-0.6
			c0.3-0.2,0.6-0.2,0.9-0.2l0,1.4H178.5z"/>
		<path fill="#FFFFFF" d="M180.8,175.1c-0.5,0-1-0.2-1.5-0.6l0.7-1.1c0.3,0.2,0.5,0.4,0.8,0.4c0.1,0,0.3-0.1,0.4-0.2
			s0.2-0.3,0.2-0.4c0-0.2-0.7-2-2.1-5.5h1.6l1.3,3.4l1.3-3.4h1.6l-2.5,6.4c-0.1,0.4-0.4,0.7-0.7,0.9
			C181.5,175,181.1,175.1,180.8,175.1z"/>
	</g>
	<path fill="#326DE6" d="M214.9,394.5c-3.7,0-7.4,0-11.1,0c-4.4,0.1-7.8-3.7-7.5-7.9c0.2-3,1.8-5.1,4.6-6.3c0.3-0.1,0.4-0.3,0.5-0.5
		c0.6-2,1.9-3.4,4-3.8c0.9-0.2,1.8-0.1,2.6,0.3c0.3,0.1,0.3,0.1,0.5-0.2c1.9-3.4,4.8-5.2,8.7-5.1c4.4,0.1,8.5,3.7,9.1,8.1
		c0.1,0.5,0.1,1,0.1,1.5c0,0.2,0,0.3,0.3,0.3c3.5,0.1,6.4,3.1,6.3,6.9c-0.1,3.7-3.1,6.7-6.8,6.7
		C222.3,394.5,218.6,394.5,214.9,394.5z"/>
	<path fill="#326DE6" d="M105.4,394.5c-3.7,0-7.4,0-11.1,0c-4.4,0.1-7.8-3.7-7.5-7.9c0.2-3,1.8-5.1,4.6-6.3c0.3-0.1,0.4-0.3,0.5-0.5
		c0.6-2,1.9-3.4,4-3.8c0.9-0.2,1.8-0.1,2.6,0.3c0.3,0.1,0.3,0.1,0.5-0.2c1.9-3.4,4.8-5.2,8.7-5.1c4.4,0.1,8.5,3.7,9.1,8.1
		c0.1,0.5,0.1,1,0.1,1.5c0,0.2,0,0.3,0.3,0.3c3.5,0.1,6.4,3.1,6.3,6.9c-0.1,3.7-3.1,6.7-6.8,6.7
		C112.8,394.5,109.1,394.5,105.4,394.5z"/>
	<path fill="#E6F4F5" d="M245.5,351h-78.2c-1.9,0-3.5-1.6-3.5-3.5v-56c0-1.9,1.6-3.5,3.5-3.5h78.2c1.9,0,3.5,1.6,3.5,3.5v56
		C249,349.4,247.4,351,245.5,351z"/>
	<path fill="#09C1D1" d="M202,315.9h-30.7c-0.4,0-0.8-0.4-0.8-0.8v-18.6c0-0.4,0.4-0.8,0.8-0.8H202c0.4,0,0.8,0.4,0.8,0.8v18.6
		C202.8,315.5,202.4,315.9,202,315.9z"/>
	<path fill="#09C1D1" d="M241.5,315.9h-30.7c-0.4,0-0.8-0.4-0.8-0.8v-18.6c0-0.4,0.4-0.8,0.8-0.8h30.7c0.4,0,0.8,0.4,0.8,0.8v18.6
		C242.3,315.5,242,315.9,241.5,315.9z"/>
	<path fill="#09C1D1" d="M241.6,343.6h-70.3c-0.4,0-0.8-0.4-0.8-0.8v-18.6c0-0.4,0.4-0.8,0.8-0.8h70.3c0.4,0,0.8,0.4,0.8,0.8v18.6
		C242.4,343.2,242,343.6,241.6,343.6z"/>
	<path fill="#E6F4F5" d="M151.8,351H73.5c-1.9,0-3.5-1.6-3.5-3.5v-56c0-1.9,1.6-3.5,3.5-3.5h78.2c1.9,0,3.5,1.6,3.5,3.5v56
		C155.3,349.4,153.7,351,151.8,351z"/>
	<path fill="#09C1D1" d="M108.2,315.9H77.5c-0.4,0-0.8-0.4-0.8-0.8v-18.6c0-0.4,0.4-0.8,0.8-0.8h30.7c0.4,0,0.8,0.4,0.8,0.8v18.6
		C109,315.5,108.7,315.9,108.2,315.9z"/>
	<path fill="#09C1D1" d="M147.8,315.9h-30.7c-0.4,0-0.8-0.4-0.8-0.8v-18.6c0-0.4,0.4-0.8,0.8-0.8h30.7c0.4,0,0.8,0.4,0.8,0.8v18.6
		C148.6,315.5,148.3,315.9,147.8,315.9z"/>
	<path fill="#09C1D1" d="M147.8,343.6H77.5c-0.4,0-0.8-0.4-0.8-0.8v-18.6c0-0.4,0.4-0.8,0.8-0.8h70.3c0.4,0,0.8,0.4,0.8,0.8v18.6
		C148.6,343.2,148.3,343.6,147.8,343.6z"/>
</g>
</svg>
